<?xml version="1.0" encoding="utf-8" standalone="no"?>
<!DOCTYPE svg PUBLIC "-//W3C//DTD SVG 1.1//EN"
  "http://www.w3.org/Graphics/SVG/1.1/DTD/svg11.dtd">
<svg xmlns:xlink="http://www.w3.org/1999/xlink" width="314.311719pt" height="253.636297pt" viewBox="0 0 314.311719 253.636297" xmlns="http://www.w3.org/2000/svg" version="1.1">
 <metadata>
  <rdf:RDF xmlns:dc="http://purl.org/dc/elements/1.1/" xmlns:cc="http://creativecommons.org/ns#" xmlns:rdf="http://www.w3.org/1999/02/22-rdf-syntax-ns#">
   <cc:Work>
    <dc:type rdf:resource="http://purl.org/dc/dcmitype/StillImage"/>
    <dc:date>2026-05-21T19:11:31.312776</dc:date>
    <dc:format>image/svg+xml</dc:format>
    <dc:creator>
     <cc:Agent>
      <dc:title>Matplotlib v3.10.0, https://matplotlib.org/</dc:title>
     </cc:Agent>
    </dc:creator>
   </cc:Work>
  </rdf:RDF>
 </metadata>
 <defs>
  <style type="text/css">*{stroke-linejoin: round; stroke-linecap: butt}</style>
 </defs>
 <g id="figure_1">
  <g id="patch_1">
   <path d="M 0 253.636297 
L 314.311719 253.636297 
L 314.311719 0 
L 0 0 
z
" style="fill: #ffffff"/>
  </g>
  <g id="axes_1">
   <g id="patch_2">
    <path d="M 31.711719 225.970828 
L 310.711719 225.970828 
L 310.711719 15.298828 
L 31.711719 15.298828 
z
" style="fill: #ffffff"/>
   </g>
   <g id="FillBetweenPolyCollection_1">
    <path d="M 31.711719 25.330828 
L 31.711719 25.330828 
L 36.004026 25.330828 
L 36.004026 145.360665 
L 40.296334 145.360665 
L 40.296334 162.02597 
L 44.588642 162.02597 
L 44.588642 168.632216 
L 48.88095 168.632216 
L 48.88095 174.036262 
L 53.173257 174.036262 
L 53.173257 178.541713 
L 57.465565 178.541713 
L 57.465565 181.277285 
L 61.757873 181.277285 
L 61.757873 183.52021 
L 66.05018 183.52021 
L 66.05018 184.98087 
L 70.342488 184.98087 
L 70.342488 187.8969 
L 74.634796 187.8969 
L 74.634796 189.647392 
L 78.927103 189.647392 
L 78.927103 191.594192 
L 83.219411 191.594192 
L 83.219411 193.445347 
L 87.511719 193.445347 
L 87.511719 195.292815 
L 91.804026 195.292815 
L 91.804026 196.554623 
L 96.096334 196.554623 
L 96.096334 197.911333 
L 100.388642 197.911333 
L 100.388642 200.626834 
L 104.68095 200.626834 
L 104.68095 201.787401 
L 108.973257 201.787401 
L 108.973257 203.531222 
L 113.265565 203.531222 
L 113.265565 205.187572 
L 117.557873 205.187572 
L 117.557873 205.871284 
L 121.85018 205.871284 
L 121.85018 207.624976 
L 126.142488 207.624976 
L 126.142488 208.305132 
L 130.434796 208.305132 
L 130.434796 209.081103 
L 134.727103 209.081103 
L 134.727103 209.859997 
L 139.019411 209.859997 
L 139.019411 210.151664 
L 143.311719 210.151664 
L 143.311719 211.323054 
L 147.604026 211.323054 
L 147.604026 212.008961 
L 151.896334 212.008961 
L 151.896334 212.702953 
L 156.188642 212.702953 
L 156.188642 212.999847 
L 160.48095 212.999847 
L 160.48095 212.999847 
L 164.773257 212.999847 
L 164.773257 212.999847 
L 169.065565 212.999847 
L 169.065565 212.999847 
L 173.357873 212.999847 
L 173.357873 212.999847 
L 177.65018 212.999847 
L 177.65018 212.999847 
L 181.942488 212.999847 
L 181.942488 212.999847 
L 186.234796 212.999847 
L 186.234796 212.999847 
L 194.819411 212.999847 
L 194.819411 212.999847 
L 199.111719 212.999847 
L 199.111719 212.999847 
L 203.404026 212.999847 
L 203.404026 212.999847 
L 207.696334 212.999847 
L 207.696334 212.999847 
L 211.988642 212.999847 
L 211.988642 212.999847 
L 216.28095 212.999847 
L 216.28095 212.999847 
L 220.573257 212.999847 
L 220.573257 212.999847 
L 224.865565 212.999847 
L 224.865565 212.999847 
L 229.157873 212.999847 
L 229.157873 212.999847 
L 233.45018 212.999847 
L 233.45018 212.999847 
L 237.742488 212.999847 
L 237.742488 212.999847 
L 242.034796 212.999847 
L 242.034796 212.999847 
L 246.327103 212.999847 
L 246.327103 212.999847 
L 254.911719 212.999847 
L 254.911719 212.999847 
L 259.204026 212.999847 
L 259.204026 212.999847 
L 263.496334 212.999847 
L 263.496334 212.999847 
L 267.788642 212.999847 
L 267.788642 212.999847 
L 272.08095 212.999847 
L 272.08095 212.999847 
L 276.373257 212.999847 
L 276.373257 212.999847 
L 280.665565 212.999847 
L 280.665565 212.999847 
L 284.957873 212.999847 
L 284.957873 212.999847 
L 289.25018 212.999847 
L 289.25018 212.999847 
L 293.542488 212.999847 
L 293.542488 212.999847 
L 297.834796 212.999847 
L 297.834796 212.999847 
L 302.127103 212.999847 
L 302.127103 212.999847 
L 306.419411 212.999847 
L 306.419411 212.999847 
L 310.711719 212.999847 
L 310.711719 212.999847 
L 315.004026 212.999847 
L 315.004026 212.999847 
L 319.296334 212.999847 
L 319.296334 212.999847 
L 323.588642 212.999847 
L 323.588642 212.999847 
L 332.173257 212.999847 
L 332.173257 212.999847 
L 340.757873 212.999847 
L 340.757873 212.999847 
L 353.634796 212.999847 
L 353.634796 212.999847 
L 362.219411 212.999847 
L 362.219411 212.999847 
L 370.804026 212.999847 
L 370.804026 212.999847 
L 375.096334 212.999847 
L 375.096334 212.999847 
L 379.388642 212.999847 
L 379.388642 212.999847 
L 383.68095 212.999847 
L 383.68095 212.999847 
L 387.973257 212.999847 
L 387.973257 212.999847 
L 409.434796 212.999847 
L 409.434796 212.999847 
L 413.727103 212.999847 
L 413.727103 212.999847 
L 418.019411 212.999847 
L 418.019411 212.999847 
L 418.019411 208.30089 
L 418.019411 208.30089 
L 418.019411 208.30089 
L 413.727103 208.30089 
L 413.727103 208.30089 
L 409.434796 208.30089 
L 409.434796 208.30089 
L 387.973257 208.30089 
L 387.973257 208.30089 
L 383.68095 208.30089 
L 383.68095 208.30089 
L 379.388642 208.30089 
L 379.388642 208.30089 
L 375.096334 208.30089 
L 375.096334 208.30089 
L 370.804026 208.30089 
L 370.804026 208.30089 
L 362.219411 208.30089 
L 362.219411 208.30089 
L 353.634796 208.30089 
L 353.634796 208.30089 
L 340.757873 208.30089 
L 340.757873 208.30089 
L 332.173257 208.30089 
L 332.173257 208.30089 
L 323.588642 208.30089 
L 323.588642 208.30089 
L 319.296334 208.30089 
L 319.296334 208.30089 
L 315.004026 208.30089 
L 315.004026 208.30089 
L 310.711719 208.30089 
L 310.711719 208.30089 
L 306.419411 208.30089 
L 306.419411 208.30089 
L 302.127103 208.30089 
L 302.127103 208.30089 
L 297.834796 208.30089 
L 297.834796 208.30089 
L 293.542488 208.30089 
L 293.542488 208.30089 
L 289.25018 208.30089 
L 289.25018 208.30089 
L 284.957873 208.30089 
L 284.957873 208.30089 
L 280.665565 208.30089 
L 280.665565 208.30089 
L 276.373257 208.30089 
L 276.373257 208.30089 
L 272.08095 208.30089 
L 272.08095 208.30089 
L 267.788642 208.30089 
L 267.788642 208.30089 
L 263.496334 208.30089 
L 263.496334 208.30089 
L 259.204026 208.30089 
L 259.204026 208.30089 
L 254.911719 208.30089 
L 254.911719 208.30089 
L 246.327103 208.30089 
L 246.327103 208.30089 
L 242.034796 208.30089 
L 242.034796 208.30089 
L 237.742488 208.30089 
L 237.742488 208.30089 
L 233.45018 208.30089 
L 233.45018 208.30089 
L 229.157873 208.30089 
L 229.157873 208.30089 
L 224.865565 208.30089 
L 224.865565 208.30089 
L 220.573257 208.30089 
L 220.573257 208.30089 
L 216.28095 208.30089 
L 216.28095 208.30089 
L 211.988642 208.30089 
L 211.988642 208.30089 
L 207.696334 208.30089 
L 207.696334 208.30089 
L 203.404026 208.30089 
L 203.404026 208.30089 
L 199.111719 208.30089 
L 199.111719 208.30089 
L 194.819411 208.30089 
L 194.819411 208.30089 
L 186.234796 208.30089 
L 186.234796 208.30089 
L 181.942488 208.30089 
L 181.942488 208.30089 
L 177.65018 208.30089 
L 177.65018 208.30089 
L 173.357873 208.30089 
L 173.357873 208.30089 
L 169.065565 208.30089 
L 169.065565 208.30089 
L 164.773257 208.30089 
L 164.773257 208.30089 
L 160.48095 208.30089 
L 160.48095 208.30089 
L 156.188642 208.30089 
L 156.188642 207.961347 
L 151.896334 207.961347 
L 151.896334 207.170274 
L 147.604026 207.170274 
L 147.604026 206.390082 
L 143.311719 206.390082 
L 143.311719 205.063362 
L 139.019411 205.063362 
L 139.019411 204.734009 
L 134.727103 204.734009 
L 134.727103 203.856812 
L 130.434796 203.856812 
L 130.434796 202.985403 
L 126.142488 202.985403 
L 126.142488 202.224066 
L 121.85018 202.224066 
L 121.85018 200.270919 
L 117.557873 200.270919 
L 117.557873 199.513031 
L 113.265565 199.513031 
L 113.265565 197.683468 
L 108.973257 197.683468 
L 108.973257 195.765825 
L 104.68095 195.765825 
L 104.68095 194.494453 
L 100.388642 194.494453 
L 100.388642 191.535234 
L 96.096334 191.535234 
L 96.096334 190.063676 
L 91.804026 190.063676 
L 91.804026 188.699185 
L 87.511719 188.699185 
L 87.511719 186.708136 
L 83.219411 186.708136 
L 83.219411 184.720684 
L 78.927103 184.720684 
L 78.927103 182.63754 
L 74.634796 182.63754 
L 74.634796 180.770177 
L 70.342488 180.770177 
L 70.342488 177.67086 
L 66.05018 177.67086 
L 66.05018 176.123791 
L 61.757873 176.123791 
L 61.757873 173.754798 
L 57.465565 173.754798 
L 57.465565 170.875758 
L 53.173257 170.875758 
L 53.173257 166.156985 
L 48.88095 166.156985 
L 48.88095 160.531752 
L 44.588642 160.531752 
L 44.588642 153.701929 
L 40.296334 153.701929 
L 40.296334 136.675226 
L 36.004026 136.675226 
L 36.004026 25.330828 
L 31.711719 25.330828 
z
" clip-path="url(#p02526ac4c4)" style="fill: #0f4d92; fill-opacity: 0.25; stroke: #0f4d92; stroke-opacity: 0.25"/>
   </g>
   <g id="matplotlib.axis_1">
    <g id="xtick_1">
     <g id="line2d_1">
      <path d="M 31.711719 225.970828 
L 31.711719 15.298828 
" clip-path="url(#p02526ac4c4)" style="fill: none; stroke-dasharray: 1.11,0.48; stroke-dashoffset: 0; stroke: #b0b0b0; stroke-opacity: 0.3; stroke-width: 0.3"/>
     </g>
     <g id="line2d_2">
      <defs>
       <path id="mcc34a9ef9f" d="M 0 0 
L 0 3.5 
" style="stroke: #000000; stroke-width: 0.8"/>
      </defs>
      <g>
       <use xlink:href="#mcc34a9ef9f" x="31.711719" y="225.970828" style="stroke: #000000; stroke-width: 0.8"/>
      </g>
     </g>
     <g id="text_1">
      <text style="font-size: 6.5px; font-family: 'DejaVu Sans', 'Arial', 'Helvetica', sans-serif; text-anchor: middle" x="31.711719" y="237.909812" transform="rotate(-0 31.711719 237.909812)">0</text>
     </g>
    </g>
    <g id="xtick_2">
     <g id="line2d_3">
      <path d="M 74.634796 225.970828 
L 74.634796 15.298828 
" clip-path="url(#p02526ac4c4)" style="fill: none; stroke-dasharray: 1.11,0.48; stroke-dashoffset: 0; stroke: #b0b0b0; stroke-opacity: 0.3; stroke-width: 0.3"/>
     </g>
     <g id="line2d_4">
      <g>
       <use xlink:href="#mcc34a9ef9f" x="74.634796" y="225.970828" style="stroke: #000000; stroke-width: 0.8"/>
      </g>
     </g>
     <g id="text_2">
      <text style="font-size: 6.5px; font-family: 'DejaVu Sans', 'Arial', 'Helvetica', sans-serif; text-anchor: middle" x="74.634796" y="237.909812" transform="rotate(-0 74.634796 237.909812)">10</text>
     </g>
    </g>
    <g id="xtick_3">
     <g id="line2d_5">
      <path d="M 117.557873 225.970828 
L 117.557873 15.298828 
" clip-path="url(#p02526ac4c4)" style="fill: none; stroke-dasharray: 1.11,0.48; stroke-dashoffset: 0; stroke: #b0b0b0; stroke-opacity: 0.3; stroke-width: 0.3"/>
     </g>
     <g id="line2d_6">
      <g>
       <use xlink:href="#mcc34a9ef9f" x="117.557873" y="225.970828" style="stroke: #000000; stroke-width: 0.8"/>
      </g>
     </g>
     <g id="text_3">
      <text style="font-size: 6.5px; font-family: 'DejaVu Sans', 'Arial', 'Helvetica', sans-serif; text-anchor: middle" x="117.557873" y="237.909812" transform="rotate(-0 117.557873 237.909812)">20</text>
     </g>
    </g>
    <g id="xtick_4">
     <g id="line2d_7">
      <path d="M 160.48095 225.970828 
L 160.48095 15.298828 
" clip-path="url(#p02526ac4c4)" style="fill: none; stroke-dasharray: 1.11,0.48; stroke-dashoffset: 0; stroke: #b0b0b0; stroke-opacity: 0.3; stroke-width: 0.3"/>
     </g>
     <g id="line2d_8">
      <g>
       <use xlink:href="#mcc34a9ef9f" x="160.48095" y="225.970828" style="stroke: #000000; stroke-width: 0.8"/>
      </g>
     </g>
     <g id="text_4">
      <text style="font-size: 6.5px; font-family: 'DejaVu Sans', 'Arial', 'Helvetica', sans-serif; text-anchor: middle" x="160.48095" y="237.909812" transform="rotate(-0 160.48095 237.909812)">30</text>
     </g>
    </g>
    <g id="xtick_5">
     <g id="line2d_9">
      <path d="M 203.404026 225.970828 
L 203.404026 15.298828 
" clip-path="url(#p02526ac4c4)" style="fill: none; stroke-dasharray: 1.11,0.48; stroke-dashoffset: 0; stroke: #b0b0b0; stroke-opacity: 0.3; stroke-width: 0.3"/>
     </g>
     <g id="line2d_10">
      <g>
       <use xlink:href="#mcc34a9ef9f" x="203.404026" y="225.970828" style="stroke: #000000; stroke-width: 0.8"/>
      </g>
     </g>
     <g id="text_5">
      <text style="font-size: 6.5px; font-family: 'DejaVu Sans', 'Arial', 'Helvetica', sans-serif; text-anchor: middle" x="203.404026" y="237.909812" transform="rotate(-0 203.404026 237.909812)">40</text>
     </g>
    </g>
    <g id="xtick_6">
     <g id="line2d_11">
      <path d="M 246.327103 225.970828 
L 246.327103 15.298828 
" clip-path="url(#p02526ac4c4)" style="fill: none; stroke-dasharray: 1.11,0.48; stroke-dashoffset: 0; stroke: #b0b0b0; stroke-opacity: 0.3; stroke-width: 0.3"/>
     </g>
     <g id="line2d_12">
      <g>
       <use xlink:href="#mcc34a9ef9f" x="246.327103" y="225.970828" style="stroke: #000000; stroke-width: 0.8"/>
      </g>
     </g>
     <g id="text_6">
      <text style="font-size: 6.5px; font-family: 'DejaVu Sans', 'Arial', 'Helvetica', sans-serif; text-anchor: middle" x="246.327103" y="237.909812" transform="rotate(-0 246.327103 237.909812)">50</text>
     </g>
    </g>
    <g id="xtick_7">
     <g id="line2d_13">
      <path d="M 289.25018 225.970828 
L 289.25018 15.298828 
" clip-path="url(#p02526ac4c4)" style="fill: none; stroke-dasharray: 1.11,0.48; stroke-dashoffset: 0; stroke: #b0b0b0; stroke-opacity: 0.3; stroke-width: 0.3"/>
     </g>
     <g id="line2d_14">
      <g>
       <use xlink:href="#mcc34a9ef9f" x="289.25018" y="225.970828" style="stroke: #000000; stroke-width: 0.8"/>
      </g>
     </g>
     <g id="text_7">
      <text style="font-size: 6.5px; font-family: 'DejaVu Sans', 'Arial', 'Helvetica', sans-serif; text-anchor: middle" x="289.25018" y="237.909812" transform="rotate(-0 289.25018 237.909812)">60</text>
     </g>
    </g>
    <g id="text_8">
     <text style="font-size: 7px; font-family: 'DejaVu Sans', 'Arial', 'Helvetica', sans-serif; text-anchor: middle" x="171.211719" y="248.580516" transform="rotate(-0 171.211719 248.580516)">Days Since Registration</text>
    </g>
   </g>
   <g id="matplotlib.axis_2">
    <g id="ytick_1">
     <g id="line2d_15">
      <path d="M 31.711719 225.970828 
L 310.711719 225.970828 
" clip-path="url(#p02526ac4c4)" style="fill: none; stroke-dasharray: 1.11,0.48; stroke-dashoffset: 0; stroke: #b0b0b0; stroke-opacity: 0.3; stroke-width: 0.3"/>
     </g>
     <g id="line2d_16">
      <defs>
       <path id="m692d8c8abc" d="M 0 0 
L -3.5 0 
" style="stroke: #000000; stroke-width: 0.8"/>
      </defs>
      <g>
       <use xlink:href="#m692d8c8abc" x="31.711719" y="225.970828" style="stroke: #000000; stroke-width: 0.8"/>
      </g>
     </g>
     <g id="text_9">
      <text style="font-size: 6.5px; font-family: 'DejaVu Sans', 'Arial', 'Helvetica', sans-serif; text-anchor: end" x="24.711719" y="228.44032" transform="rotate(-0 24.711719 228.44032)">0.0</text>
     </g>
    </g>
    <g id="ytick_2">
     <g id="line2d_17">
      <path d="M 31.711719 185.842828 
L 310.711719 185.842828 
" clip-path="url(#p02526ac4c4)" style="fill: none; stroke-dasharray: 1.11,0.48; stroke-dashoffset: 0; stroke: #b0b0b0; stroke-opacity: 0.3; stroke-width: 0.3"/>
     </g>
     <g id="line2d_18">
      <g>
       <use xlink:href="#m692d8c8abc" x="31.711719" y="185.842828" style="stroke: #000000; stroke-width: 0.8"/>
      </g>
     </g>
     <g id="text_10">
      <text style="font-size: 6.5px; font-family: 'DejaVu Sans', 'Arial', 'Helvetica', sans-serif; text-anchor: end" x="24.711719" y="188.31232" transform="rotate(-0 24.711719 188.31232)">0.2</text>
     </g>
    </g>
    <g id="ytick_3">
     <g id="line2d_19">
      <path d="M 31.711719 145.714828 
L 310.711719 145.714828 
" clip-path="url(#p02526ac4c4)" style="fill: none; stroke-dasharray: 1.11,0.48; stroke-dashoffset: 0; stroke: #b0b0b0; stroke-opacity: 0.3; stroke-width: 0.3"/>
     </g>
     <g id="line2d_20">
      <g>
       <use xlink:href="#m692d8c8abc" x="31.711719" y="145.714828" style="stroke: #000000; stroke-width: 0.8"/>
      </g>
     </g>
     <g id="text_11">
      <text style="font-size: 6.5px; font-family: 'DejaVu Sans', 'Arial', 'Helvetica', sans-serif; text-anchor: end" x="24.711719" y="148.18432" transform="rotate(-0 24.711719 148.18432)">0.4</text>
     </g>
    </g>
    <g id="ytick_4">
     <g id="line2d_21">
      <path d="M 31.711719 105.586828 
L 310.711719 105.586828 
" clip-path="url(#p02526ac4c4)" style="fill: none; stroke-dasharray: 1.11,0.48; stroke-dashoffset: 0; stroke: #b0b0b0; stroke-opacity: 0.3; stroke-width: 0.3"/>
     </g>
     <g id="line2d_22">
      <g>
       <use xlink:href="#m692d8c8abc" x="31.711719" y="105.586828" style="stroke: #000000; stroke-width: 0.8"/>
      </g>
     </g>
     <g id="text_12">
      <text style="font-size: 6.5px; font-family: 'DejaVu Sans', 'Arial', 'Helvetica', sans-serif; text-anchor: end" x="24.711719" y="108.05632" transform="rotate(-0 24.711719 108.05632)">0.6</text>
     </g>
    </g>
    <g id="ytick_5">
     <g id="line2d_23">
      <path d="M 31.711719 65.458828 
L 310.711719 65.458828 
" clip-path="url(#p02526ac4c4)" style="fill: none; stroke-dasharray: 1.11,0.48; stroke-dashoffset: 0; stroke: #b0b0b0; stroke-opacity: 0.3; stroke-width: 0.3"/>
     </g>
     <g id="line2d_24">
      <g>
       <use xlink:href="#m692d8c8abc" x="31.711719" y="65.458828" style="stroke: #000000; stroke-width: 0.8"/>
      </g>
     </g>
     <g id="text_13">
      <text style="font-size: 6.5px; font-family: 'DejaVu Sans', 'Arial', 'Helvetica', sans-serif; text-anchor: end" x="24.711719" y="67.92832" transform="rotate(-0 24.711719 67.92832)">0.8</text>
     </g>
    </g>
    <g id="ytick_6">
     <g id="line2d_25">
      <path d="M 31.711719 25.330828 
L 310.711719 25.330828 
" clip-path="url(#p02526ac4c4)" style="fill: none; stroke-dasharray: 1.11,0.48; stroke-dashoffset: 0; stroke: #b0b0b0; stroke-opacity: 0.3; stroke-width: 0.3"/>
     </g>
     <g id="line2d_26">
      <g>
       <use xlink:href="#m692d8c8abc" x="31.711719" y="25.330828" style="stroke: #000000; stroke-width: 0.8"/>
      </g>
     </g>
     <g id="text_14">
      <text style="font-size: 6.5px; font-family: 'DejaVu Sans', 'Arial', 'Helvetica', sans-serif; text-anchor: end" x="24.711719" y="27.80032" transform="rotate(-0 24.711719 27.80032)">1.0</text>
     </g>
    </g>
    <g id="text_15">
     <text style="font-size: 7px; font-family: 'DejaVu Sans', 'Arial', 'Helvetica', sans-serif; text-anchor: middle" x="8.918906" y="120.634828" transform="rotate(-90 8.918906 120.634828)">Survival Probability</text>
    </g>
   </g>
   <g id="line2d_27">
    <path d="M 31.711719 25.330828 
L 36.004026 25.330828 
L 36.004026 140.999788 
L 40.296334 140.999788 
L 40.296334 157.87347 
L 44.588642 157.87347 
L 44.588642 164.602855 
L 48.88095 164.602855 
L 48.88095 170.126977 
L 53.173257 170.126977 
L 53.173257 174.747152 
L 57.465565 174.747152 
L 57.465565 177.559432 
L 61.757873 177.559432 
L 61.757873 179.869519 
L 66.05018 179.869519 
L 66.05018 181.376098 
L 70.342488 181.376098 
L 70.342488 184.389255 
L 74.634796 184.389255 
L 74.634796 186.201527 
L 78.927103 186.201527 
L 78.927103 188.220274 
L 83.219411 188.220274 
L 83.219411 190.143224 
L 87.511719 190.143224 
L 87.511719 192.066175 
L 91.804026 192.066175 
L 91.804026 193.381878 
L 96.096334 193.381878 
L 96.096334 194.798788 
L 100.388642 194.798788 
L 100.388642 197.641841 
L 104.68095 197.641841 
L 104.68095 198.860292 
L 108.973257 198.860292 
L 108.973257 200.69484 
L 113.265565 200.69484 
L 113.265565 202.441554 
L 117.557873 202.441554 
L 117.557873 203.163944 
L 121.85018 203.163944 
L 121.85018 205.021518 
L 126.142488 205.021518 
L 126.142488 205.743908 
L 130.434796 205.743908 
L 130.434796 206.569497 
L 134.727103 206.569497 
L 134.727103 207.3995 
L 139.019411 207.3995 
L 139.019411 207.710752 
L 143.311719 207.710752 
L 143.311719 208.962871 
L 147.604026 208.962871 
L 147.604026 209.697783 
L 151.896334 209.697783 
L 151.896334 210.442301 
L 156.188642 210.442301 
L 156.188642 210.761381 
L 315.311719 210.761381 
L 315.311719 210.761381 
" clip-path="url(#p02526ac4c4)" style="fill: none; stroke: #0f4d92; stroke-width: 1.5; stroke-linecap: square"/>
   </g>
   <g id="line2d_28">
    <path d="M 36.004026 225.970828 
L 36.004026 15.298828 
" clip-path="url(#p02526ac4c4)" style="fill: none; stroke-dasharray: 0.6,0.99; stroke-dashoffset: 0; stroke: #767676; stroke-width: 0.6"/>
   </g>
   <g id="line2d_29">
    <path d="M 61.757873 225.970828 
L 61.757873 15.298828 
" clip-path="url(#p02526ac4c4)" style="fill: none; stroke-dasharray: 0.6,0.99; stroke-dashoffset: 0; stroke: #767676; stroke-width: 0.6"/>
   </g>
   <g id="line2d_30">
    <path d="M 91.804026 225.970828 
L 91.804026 15.298828 
" clip-path="url(#p02526ac4c4)" style="fill: none; stroke-dasharray: 0.6,0.99; stroke-dashoffset: 0; stroke: #767676; stroke-width: 0.6"/>
   </g>
   <g id="line2d_31">
    <path d="M 160.48095 225.970828 
L 160.48095 15.298828 
" clip-path="url(#p02526ac4c4)" style="fill: none; stroke-dasharray: 0.6,0.99; stroke-dashoffset: 0; stroke: #767676; stroke-width: 0.6"/>
   </g>
   <g id="patch_3">
    <path d="M 31.711719 225.970828 
L 31.711719 15.298828 
" style="fill: none; stroke: #000000; stroke-width: 0.8; stroke-linejoin: miter; stroke-linecap: square"/>
   </g>
   <g id="patch_4">
    <path d="M 31.711719 225.970828 
L 310.711719 225.970828 
" style="fill: none; stroke: #000000; stroke-width: 0.8; stroke-linejoin: miter; stroke-linecap: square"/>
   </g>
   <g id="patch_5">
    <path d="M 42.631931 135.401828 
Q 40.08336 137.554364 37.96186 139.346193 
" style="fill: none; stroke: #767676; stroke-width: 0.5; stroke-linecap: round"/>
    <path d="M 40.35237 138.767004 
L 37.96186 139.346193 
L 38.932815 137.086271 
" style="fill: none; stroke: #767676; stroke-width: 0.5; stroke-linecap: round"/>
   </g>
   <g id="text_16">
    <text style="font-size: 5.5px; font-family: 'DejaVu Sans', 'Arial', 'Helvetica', sans-serif; fill: #4d4d4d" transform="translate(44.588642 124.808991)">Day 1</text>
    <text style="font-size: 5.5px; font-family: 'DejaVu Sans', 'Arial', 'Helvetica', sans-serif; fill: #4d4d4d" transform="translate(44.588642 130.967788)">42.4%</text>
   </g>
   <g id="patch_6">
    <path d="M 68.385778 174.271559 
Q 65.837206 176.424095 63.715706 178.215924 
" style="fill: none; stroke: #767676; stroke-width: 0.5; stroke-linecap: round"/>
    <path d="M 66.106216 177.636735 
L 63.715706 178.215924 
L 64.686661 175.956002 
" style="fill: none; stroke: #767676; stroke-width: 0.5; stroke-linecap: round"/>
   </g>
   <g id="text_17">
    <text style="font-size: 5.5px; font-family: 'DejaVu Sans', 'Arial', 'Helvetica', sans-serif; fill: #4d4d4d" transform="translate(70.342488 163.678722)">Day 7</text>
    <text style="font-size: 5.5px; font-family: 'DejaVu Sans', 'Arial', 'Helvetica', sans-serif; fill: #4d4d4d" transform="translate(70.342488 169.837519)">23.0%</text>
   </g>
   <g id="patch_7">
    <path d="M 98.895482 187.740196 
Q 96.134039 189.937091 93.81006 191.785957 
" style="fill: none; stroke: #767676; stroke-width: 0.5; stroke-linecap: round"/>
    <path d="M 96.216526 191.27711 
L 93.81006 191.785957 
L 94.846862 189.555476 
" style="fill: none; stroke: #767676; stroke-width: 0.5; stroke-linecap: round"/>
   </g>
   <g id="text_18">
    <text style="font-size: 5.5px; font-family: 'DejaVu Sans', 'Arial', 'Helvetica', sans-serif; fill: #4d4d4d" transform="translate(100.388642 177.191081)">Day 14</text>
    <text style="font-size: 5.5px; font-family: 'DejaVu Sans', 'Arial', 'Helvetica', sans-serif; fill: #4d4d4d" transform="translate(100.388642 183.349878)">16.2%</text>
   </g>
   <g id="patch_8">
    <path d="M 167.572405 205.1197 
Q 164.810962 207.316594 162.486983 209.16546 
" style="fill: none; stroke: #767676; stroke-width: 0.5; stroke-linecap: round"/>
    <path d="M 164.893449 208.656613 
L 162.486983 209.16546 
L 163.523785 206.93498 
" style="fill: none; stroke: #767676; stroke-width: 0.5; stroke-linecap: round"/>
   </g>
   <g id="text_19">
    <text style="font-size: 5.5px; font-family: 'DejaVu Sans', 'Arial', 'Helvetica', sans-serif; fill: #4d4d4d" transform="translate(169.065565 194.570584)">Day 30</text>
    <text style="font-size: 5.5px; font-family: 'DejaVu Sans', 'Arial', 'Helvetica', sans-serif; fill: #4d4d4d" transform="translate(169.065565 200.729381)">7.6%</text>
   </g>
   <g id="text_20">
    <text style="font-weight: 700; font-size: 7.5px; font-family: 'DejaVu Sans', 'Arial', 'Helvetica', sans-serif; text-anchor: middle" x="171.211719" y="9.298828" transform="rotate(-0 171.211719 9.298828)">Kaplan-Meier Player Retention Curve</text>
   </g>
  </g>
 </g>
 <defs>
  <clipPath id="p02526ac4c4">
   <rect x="31.711719" y="15.298828" width="279" height="210.672"/>
  </clipPath>
 </defs>
</svg>
