<?xml version="1.0" encoding="utf-8" standalone="no"?>
<!DOCTYPE svg PUBLIC "-//W3C//DTD SVG 1.1//EN"
  "http://www.w3.org/Graphics/SVG/1.1/DTD/svg11.dtd">
<svg xmlns:xlink="http://www.w3.org/1999/xlink" width="312.804062pt" height="241.385516pt" viewBox="0 0 312.804062 241.385516" xmlns="http://www.w3.org/2000/svg" version="1.1">
 <metadata>
  <rdf:RDF xmlns:dc="http://purl.org/dc/elements/1.1/" xmlns:cc="http://creativecommons.org/ns#" xmlns:rdf="http://www.w3.org/1999/02/22-rdf-syntax-ns#">
   <cc:Work>
    <dc:type rdf:resource="http://purl.org/dc/dcmitype/StillImage"/>
    <dc:date>2026-05-21T16:40:15.398617</dc:date>
    <dc:format>image/svg+xml</dc:format>
    <dc:creator>
     <cc:Agent>
      <dc:title>Matplotlib v3.10.0, https://matplotlib.org/</dc:title>
     </cc:Agent>
    </dc:creator>
   </cc:Work>
  </rdf:RDF>
 </metadata>
 <defs>
  <style type="text/css">*{stroke-linejoin: round; stroke-linecap: butt}</style>
 </defs>
 <g id="figure_1">
  <g id="patch_1">
   <path d="M -0 241.385516 
L 312.804062 241.385516 
L 312.804062 0 
L -0 0 
z
" style="fill: #ffffff"/>
  </g>
  <g id="axes_1">
   <g id="patch_2">
    <path d="M 30.204063 214.272 
L 309.204063 214.272 
L 309.204063 3.6 
L 30.204063 3.6 
z
" style="fill: #ffffff"/>
   </g>
   <g id="FillBetweenPolyCollection_1">
    <path d="M 30.204063 13.632 
L 30.204063 13.632 
L 34.49637 13.632 
L 34.49637 133.661836 
L 38.788678 133.661836 
L 38.788678 150.327142 
L 43.080986 150.327142 
L 43.080986 156.933388 
L 47.373293 156.933388 
L 47.373293 162.337434 
L 51.665601 162.337434 
L 51.665601 166.842885 
L 55.957909 166.842885 
L 55.957909 169.578456 
L 60.250216 169.578456 
L 60.250216 171.821382 
L 64.542524 171.821382 
L 64.542524 173.282042 
L 68.834832 173.282042 
L 68.834832 176.198072 
L 73.127139 176.198072 
L 73.127139 177.948564 
L 77.419447 177.948564 
L 77.419447 179.895364 
L 81.711755 179.895364 
L 81.711755 181.746519 
L 86.004063 181.746519 
L 86.004063 183.593987 
L 90.29637 183.593987 
L 90.29637 184.855795 
L 94.588678 184.855795 
L 94.588678 186.212505 
L 98.880986 186.212505 
L 98.880986 188.928006 
L 103.173293 188.928006 
L 103.173293 190.088573 
L 107.465601 190.088573 
L 107.465601 191.832394 
L 111.757909 191.832394 
L 111.757909 193.488744 
L 116.050216 193.488744 
L 116.050216 194.172456 
L 120.342524 194.172456 
L 120.342524 195.926147 
L 124.634832 195.926147 
L 124.634832 196.606303 
L 128.927139 196.606303 
L 128.927139 197.382275 
L 133.219447 197.382275 
L 133.219447 198.161169 
L 137.511755 198.161169 
L 137.511755 198.452836 
L 141.804062 198.452836 
L 141.804062 199.624226 
L 146.09637 199.624226 
L 146.09637 200.310133 
L 150.388678 200.310133 
L 150.388678 201.004125 
L 154.680986 201.004125 
L 154.680986 201.301019 
L 158.973293 201.301019 
L 158.973293 201.301019 
L 163.265601 201.301019 
L 163.265601 201.301019 
L 167.557909 201.301019 
L 167.557909 201.301019 
L 171.850216 201.301019 
L 171.850216 201.301019 
L 176.142524 201.301019 
L 176.142524 201.301019 
L 180.434832 201.301019 
L 180.434832 201.301019 
L 184.727139 201.301019 
L 184.727139 201.301019 
L 193.311755 201.301019 
L 193.311755 201.301019 
L 197.604062 201.301019 
L 197.604062 201.301019 
L 201.89637 201.301019 
L 201.89637 201.301019 
L 206.188678 201.301019 
L 206.188678 201.301019 
L 210.480986 201.301019 
L 210.480986 201.301019 
L 214.773293 201.301019 
L 214.773293 201.301019 
L 219.065601 201.301019 
L 219.065601 201.301019 
L 223.357909 201.301019 
L 223.357909 201.301019 
L 227.650216 201.301019 
L 227.650216 201.301019 
L 231.942524 201.301019 
L 231.942524 201.301019 
L 236.234832 201.301019 
L 236.234832 201.301019 
L 240.527139 201.301019 
L 240.527139 201.301019 
L 244.819447 201.301019 
L 244.819447 201.301019 
L 253.404062 201.301019 
L 253.404062 201.301019 
L 257.69637 201.301019 
L 257.69637 201.301019 
L 261.988678 201.301019 
L 261.988678 201.301019 
L 266.280986 201.301019 
L 266.280986 201.301019 
L 270.573293 201.301019 
L 270.573293 201.301019 
L 274.865601 201.301019 
L 274.865601 201.301019 
L 279.157909 201.301019 
L 279.157909 201.301019 
L 283.450216 201.301019 
L 283.450216 201.301019 
L 287.742524 201.301019 
L 287.742524 201.301019 
L 292.034832 201.301019 
L 292.034832 201.301019 
L 296.327139 201.301019 
L 296.327139 201.301019 
L 300.619447 201.301019 
L 300.619447 201.301019 
L 304.911755 201.301019 
L 304.911755 201.301019 
L 309.204063 201.301019 
L 309.204063 201.301019 
L 313.49637 201.301019 
L 313.49637 201.301019 
L 317.788678 201.301019 
L 317.788678 201.301019 
L 322.080986 201.301019 
L 322.080986 201.301019 
L 330.665601 201.301019 
L 330.665601 201.301019 
L 339.250216 201.301019 
L 339.250216 201.301019 
L 352.127139 201.301019 
L 352.127139 201.301019 
L 360.711755 201.301019 
L 360.711755 201.301019 
L 369.29637 201.301019 
L 369.29637 201.301019 
L 373.588678 201.301019 
L 373.588678 201.301019 
L 377.880986 201.301019 
L 377.880986 201.301019 
L 382.173293 201.301019 
L 382.173293 201.301019 
L 386.465601 201.301019 
L 386.465601 201.301019 
L 407.927139 201.301019 
L 407.927139 201.301019 
L 412.219447 201.301019 
L 412.219447 201.301019 
L 416.511755 201.301019 
L 416.511755 201.301019 
L 416.511755 196.602062 
L 416.511755 196.602062 
L 416.511755 196.602062 
L 412.219447 196.602062 
L 412.219447 196.602062 
L 407.927139 196.602062 
L 407.927139 196.602062 
L 386.465601 196.602062 
L 386.465601 196.602062 
L 382.173293 196.602062 
L 382.173293 196.602062 
L 377.880986 196.602062 
L 377.880986 196.602062 
L 373.588678 196.602062 
L 373.588678 196.602062 
L 369.29637 196.602062 
L 369.29637 196.602062 
L 360.711755 196.602062 
L 360.711755 196.602062 
L 352.127139 196.602062 
L 352.127139 196.602062 
L 339.250216 196.602062 
L 339.250216 196.602062 
L 330.665601 196.602062 
L 330.665601 196.602062 
L 322.080986 196.602062 
L 322.080986 196.602062 
L 317.788678 196.602062 
L 317.788678 196.602062 
L 313.49637 196.602062 
L 313.49637 196.602062 
L 309.204063 196.602062 
L 309.204063 196.602062 
L 304.911755 196.602062 
L 304.911755 196.602062 
L 300.619447 196.602062 
L 300.619447 196.602062 
L 296.327139 196.602062 
L 296.327139 196.602062 
L 292.034832 196.602062 
L 292.034832 196.602062 
L 287.742524 196.602062 
L 287.742524 196.602062 
L 283.450216 196.602062 
L 283.450216 196.602062 
L 279.157909 196.602062 
L 279.157909 196.602062 
L 274.865601 196.602062 
L 274.865601 196.602062 
L 270.573293 196.602062 
L 270.573293 196.602062 
L 266.280986 196.602062 
L 266.280986 196.602062 
L 261.988678 196.602062 
L 261.988678 196.602062 
L 257.69637 196.602062 
L 257.69637 196.602062 
L 253.404062 196.602062 
L 253.404062 196.602062 
L 244.819447 196.602062 
L 244.819447 196.602062 
L 240.527139 196.602062 
L 240.527139 196.602062 
L 236.234832 196.602062 
L 236.234832 196.602062 
L 231.942524 196.602062 
L 231.942524 196.602062 
L 227.650216 196.602062 
L 227.650216 196.602062 
L 223.357909 196.602062 
L 223.357909 196.602062 
L 219.065601 196.602062 
L 219.065601 196.602062 
L 214.773293 196.602062 
L 214.773293 196.602062 
L 210.480986 196.602062 
L 210.480986 196.602062 
L 206.188678 196.602062 
L 206.188678 196.602062 
L 201.89637 196.602062 
L 201.89637 196.602062 
L 197.604062 196.602062 
L 197.604062 196.602062 
L 193.311755 196.602062 
L 193.311755 196.602062 
L 184.727139 196.602062 
L 184.727139 196.602062 
L 180.434832 196.602062 
L 180.434832 196.602062 
L 176.142524 196.602062 
L 176.142524 196.602062 
L 171.850216 196.602062 
L 171.850216 196.602062 
L 167.557909 196.602062 
L 167.557909 196.602062 
L 163.265601 196.602062 
L 163.265601 196.602062 
L 158.973293 196.602062 
L 158.973293 196.602062 
L 154.680986 196.602062 
L 154.680986 196.262519 
L 150.388678 196.262519 
L 150.388678 195.471446 
L 146.09637 195.471446 
L 146.09637 194.691254 
L 141.804062 194.691254 
L 141.804062 193.364534 
L 137.511755 193.364534 
L 137.511755 193.03518 
L 133.219447 193.03518 
L 133.219447 192.157984 
L 128.927139 192.157984 
L 128.927139 191.286575 
L 124.634832 191.286575 
L 124.634832 190.525237 
L 120.342524 190.525237 
L 120.342524 188.572091 
L 116.050216 188.572091 
L 116.050216 187.814203 
L 111.757909 187.814203 
L 111.757909 185.984639 
L 107.465601 185.984639 
L 107.465601 184.066997 
L 103.173293 184.066997 
L 103.173293 182.795625 
L 98.880986 182.795625 
L 98.880986 179.836406 
L 94.588678 179.836406 
L 94.588678 178.364848 
L 90.29637 178.364848 
L 90.29637 177.000357 
L 86.004063 177.000357 
L 86.004063 175.009308 
L 81.711755 175.009308 
L 81.711755 173.021856 
L 77.419447 173.021856 
L 77.419447 170.938712 
L 73.127139 170.938712 
L 73.127139 169.071349 
L 68.834832 169.071349 
L 68.834832 165.972032 
L 64.542524 165.972032 
L 64.542524 164.424963 
L 60.250216 164.424963 
L 60.250216 162.055969 
L 55.957909 162.055969 
L 55.957909 159.17693 
L 51.665601 159.17693 
L 51.665601 154.458157 
L 47.373293 154.458157 
L 47.373293 148.832924 
L 43.080986 148.832924 
L 43.080986 142.003101 
L 38.788678 142.003101 
L 38.788678 124.976398 
L 34.49637 124.976398 
L 34.49637 13.632 
L 30.204063 13.632 
z
" clip-path="url(#pc7cd60b0e0)" style="fill: #0f4d92; fill-opacity: 0.25; stroke: #0f4d92; stroke-opacity: 0.25"/>
   </g>
   <g id="matplotlib.axis_1">
    <g id="xtick_1">
     <g id="line2d_1">
      <path d="M 30.204063 214.272 
L 30.204063 3.6 
" clip-path="url(#pc7cd60b0e0)" style="fill: none; stroke-dasharray: 1.11,0.48; stroke-dashoffset: 0; stroke: #b0b0b0; stroke-opacity: 0.3; stroke-width: 0.3"/>
     </g>
     <g id="line2d_2">
      <defs>
       <path id="m7d171d64ae" d="M 0 0 
L 0 3.5 
" style="stroke: #000000; stroke-width: 0.8"/>
      </defs>
      <g>
       <use xlink:href="#m7d171d64ae" x="30.204063" y="214.272" style="stroke: #000000; stroke-width: 0.8"/>
      </g>
     </g>
     <g id="text_1">
      <text style="font-size: 6.5px; font-family: 'Arial', 'Helvetica', 'DejaVu Sans', sans-serif; text-anchor: middle" x="30.204063" y="225.924578" transform="rotate(-0 30.204063 225.924578)">0</text>
     </g>
    </g>
    <g id="xtick_2">
     <g id="line2d_3">
      <path d="M 73.127139 214.272 
L 73.127139 3.6 
" clip-path="url(#pc7cd60b0e0)" style="fill: none; stroke-dasharray: 1.11,0.48; stroke-dashoffset: 0; stroke: #b0b0b0; stroke-opacity: 0.3; stroke-width: 0.3"/>
     </g>
     <g id="line2d_4">
      <g>
       <use xlink:href="#m7d171d64ae" x="73.127139" y="214.272" style="stroke: #000000; stroke-width: 0.8"/>
      </g>
     </g>
     <g id="text_2">
      <text style="font-size: 6.5px; font-family: 'Arial', 'Helvetica', 'DejaVu Sans', sans-serif; text-anchor: middle" x="73.127139" y="225.924578" transform="rotate(-0 73.127139 225.924578)">10</text>
     </g>
    </g>
    <g id="xtick_3">
     <g id="line2d_5">
      <path d="M 116.050216 214.272 
L 116.050216 3.6 
" clip-path="url(#pc7cd60b0e0)" style="fill: none; stroke-dasharray: 1.11,0.48; stroke-dashoffset: 0; stroke: #b0b0b0; stroke-opacity: 0.3; stroke-width: 0.3"/>
     </g>
     <g id="line2d_6">
      <g>
       <use xlink:href="#m7d171d64ae" x="116.050216" y="214.272" style="stroke: #000000; stroke-width: 0.8"/>
      </g>
     </g>
     <g id="text_3">
      <text style="font-size: 6.5px; font-family: 'Arial', 'Helvetica', 'DejaVu Sans', sans-serif; text-anchor: middle" x="116.050216" y="225.924578" transform="rotate(-0 116.050216 225.924578)">20</text>
     </g>
    </g>
    <g id="xtick_4">
     <g id="line2d_7">
      <path d="M 158.973293 214.272 
L 158.973293 3.6 
" clip-path="url(#pc7cd60b0e0)" style="fill: none; stroke-dasharray: 1.11,0.48; stroke-dashoffset: 0; stroke: #b0b0b0; stroke-opacity: 0.3; stroke-width: 0.3"/>
     </g>
     <g id="line2d_8">
      <g>
       <use xlink:href="#m7d171d64ae" x="158.973293" y="214.272" style="stroke: #000000; stroke-width: 0.8"/>
      </g>
     </g>
     <g id="text_4">
      <text style="font-size: 6.5px; font-family: 'Arial', 'Helvetica', 'DejaVu Sans', sans-serif; text-anchor: middle" x="158.973293" y="225.924578" transform="rotate(-0 158.973293 225.924578)">30</text>
     </g>
    </g>
    <g id="xtick_5">
     <g id="line2d_9">
      <path d="M 201.89637 214.272 
L 201.89637 3.6 
" clip-path="url(#pc7cd60b0e0)" style="fill: none; stroke-dasharray: 1.11,0.48; stroke-dashoffset: 0; stroke: #b0b0b0; stroke-opacity: 0.3; stroke-width: 0.3"/>
     </g>
     <g id="line2d_10">
      <g>
       <use xlink:href="#m7d171d64ae" x="201.89637" y="214.272" style="stroke: #000000; stroke-width: 0.8"/>
      </g>
     </g>
     <g id="text_5">
      <text style="font-size: 6.5px; font-family: 'Arial', 'Helvetica', 'DejaVu Sans', sans-serif; text-anchor: middle" x="201.89637" y="225.924578" transform="rotate(-0 201.89637 225.924578)">40</text>
     </g>
    </g>
    <g id="xtick_6">
     <g id="line2d_11">
      <path d="M 244.819447 214.272 
L 244.819447 3.6 
" clip-path="url(#pc7cd60b0e0)" style="fill: none; stroke-dasharray: 1.11,0.48; stroke-dashoffset: 0; stroke: #b0b0b0; stroke-opacity: 0.3; stroke-width: 0.3"/>
     </g>
     <g id="line2d_12">
      <g>
       <use xlink:href="#m7d171d64ae" x="244.819447" y="214.272" style="stroke: #000000; stroke-width: 0.8"/>
      </g>
     </g>
     <g id="text_6">
      <text style="font-size: 6.5px; font-family: 'Arial', 'Helvetica', 'DejaVu Sans', sans-serif; text-anchor: middle" x="244.819447" y="225.924578" transform="rotate(-0 244.819447 225.924578)">50</text>
     </g>
    </g>
    <g id="xtick_7">
     <g id="line2d_13">
      <path d="M 287.742524 214.272 
L 287.742524 3.6 
" clip-path="url(#pc7cd60b0e0)" style="fill: none; stroke-dasharray: 1.11,0.48; stroke-dashoffset: 0; stroke: #b0b0b0; stroke-opacity: 0.3; stroke-width: 0.3"/>
     </g>
     <g id="line2d_14">
      <g>
       <use xlink:href="#m7d171d64ae" x="287.742524" y="214.272" style="stroke: #000000; stroke-width: 0.8"/>
      </g>
     </g>
     <g id="text_7">
      <text style="font-size: 6.5px; font-family: 'Arial', 'Helvetica', 'DejaVu Sans', sans-serif; text-anchor: middle" x="287.742524" y="225.924578" transform="rotate(-0 287.742524 225.924578)">60</text>
     </g>
    </g>
    <g id="text_8">
     <text style="font-size: 7px; font-family: 'Arial', 'Helvetica', 'DejaVu Sans', sans-serif; text-anchor: middle" x="169.704062" y="236.312234" transform="rotate(-0 169.704062 236.312234)">Days Since Registration</text>
    </g>
   </g>
   <g id="matplotlib.axis_2">
    <g id="ytick_1">
     <g id="line2d_15">
      <path d="M 30.204063 214.272 
L 309.204063 214.272 
" clip-path="url(#pc7cd60b0e0)" style="fill: none; stroke-dasharray: 1.11,0.48; stroke-dashoffset: 0; stroke: #b0b0b0; stroke-opacity: 0.3; stroke-width: 0.3"/>
     </g>
     <g id="line2d_16">
      <defs>
       <path id="m1b51c3c9ae" d="M 0 0 
L -3.5 0 
" style="stroke: #000000; stroke-width: 0.8"/>
      </defs>
      <g>
       <use xlink:href="#m1b51c3c9ae" x="30.204063" y="214.272" style="stroke: #000000; stroke-width: 0.8"/>
      </g>
     </g>
     <g id="text_9">
      <text style="font-size: 6.5px; font-family: 'Arial', 'Helvetica', 'DejaVu Sans', sans-serif; text-anchor: end" x="23.204063" y="216.598289" transform="rotate(-0 23.204063 216.598289)">0.0</text>
     </g>
    </g>
    <g id="ytick_2">
     <g id="line2d_17">
      <path d="M 30.204063 174.144 
L 309.204063 174.144 
" clip-path="url(#pc7cd60b0e0)" style="fill: none; stroke-dasharray: 1.11,0.48; stroke-dashoffset: 0; stroke: #b0b0b0; stroke-opacity: 0.3; stroke-width: 0.3"/>
     </g>
     <g id="line2d_18">
      <g>
       <use xlink:href="#m1b51c3c9ae" x="30.204063" y="174.144" style="stroke: #000000; stroke-width: 0.8"/>
      </g>
     </g>
     <g id="text_10">
      <text style="font-size: 6.5px; font-family: 'Arial', 'Helvetica', 'DejaVu Sans', sans-serif; text-anchor: end" x="23.204063" y="176.470289" transform="rotate(-0 23.204063 176.470289)">0.2</text>
     </g>
    </g>
    <g id="ytick_3">
     <g id="line2d_19">
      <path d="M 30.204063 134.016 
L 309.204063 134.016 
" clip-path="url(#pc7cd60b0e0)" style="fill: none; stroke-dasharray: 1.11,0.48; stroke-dashoffset: 0; stroke: #b0b0b0; stroke-opacity: 0.3; stroke-width: 0.3"/>
     </g>
     <g id="line2d_20">
      <g>
       <use xlink:href="#m1b51c3c9ae" x="30.204063" y="134.016" style="stroke: #000000; stroke-width: 0.8"/>
      </g>
     </g>
     <g id="text_11">
      <text style="font-size: 6.5px; font-family: 'Arial', 'Helvetica', 'DejaVu Sans', sans-serif; text-anchor: end" x="23.204063" y="136.342289" transform="rotate(-0 23.204063 136.342289)">0.4</text>
     </g>
    </g>
    <g id="ytick_4">
     <g id="line2d_21">
      <path d="M 30.204063 93.888 
L 309.204063 93.888 
" clip-path="url(#pc7cd60b0e0)" style="fill: none; stroke-dasharray: 1.11,0.48; stroke-dashoffset: 0; stroke: #b0b0b0; stroke-opacity: 0.3; stroke-width: 0.3"/>
     </g>
     <g id="line2d_22">
      <g>
       <use xlink:href="#m1b51c3c9ae" x="30.204063" y="93.888" style="stroke: #000000; stroke-width: 0.8"/>
      </g>
     </g>
     <g id="text_12">
      <text style="font-size: 6.5px; font-family: 'Arial', 'Helvetica', 'DejaVu Sans', sans-serif; text-anchor: end" x="23.204063" y="96.214289" transform="rotate(-0 23.204063 96.214289)">0.6</text>
     </g>
    </g>
    <g id="ytick_5">
     <g id="line2d_23">
      <path d="M 30.204063 53.76 
L 309.204063 53.76 
" clip-path="url(#pc7cd60b0e0)" style="fill: none; stroke-dasharray: 1.11,0.48; stroke-dashoffset: 0; stroke: #b0b0b0; stroke-opacity: 0.3; stroke-width: 0.3"/>
     </g>
     <g id="line2d_24">
      <g>
       <use xlink:href="#m1b51c3c9ae" x="30.204063" y="53.76" style="stroke: #000000; stroke-width: 0.8"/>
      </g>
     </g>
     <g id="text_13">
      <text style="font-size: 6.5px; font-family: 'Arial', 'Helvetica', 'DejaVu Sans', sans-serif; text-anchor: end" x="23.204063" y="56.086289" transform="rotate(-0 23.204063 56.086289)">0.8</text>
     </g>
    </g>
    <g id="ytick_6">
     <g id="line2d_25">
      <path d="M 30.204063 13.632 
L 309.204063 13.632 
" clip-path="url(#pc7cd60b0e0)" style="fill: none; stroke-dasharray: 1.11,0.48; stroke-dashoffset: 0; stroke: #b0b0b0; stroke-opacity: 0.3; stroke-width: 0.3"/>
     </g>
     <g id="line2d_26">
      <g>
       <use xlink:href="#m1b51c3c9ae" x="30.204063" y="13.632" style="stroke: #000000; stroke-width: 0.8"/>
      </g>
     </g>
     <g id="text_14">
      <text style="font-size: 6.5px; font-family: 'Arial', 'Helvetica', 'DejaVu Sans', sans-serif; text-anchor: end" x="23.204063" y="15.958289" transform="rotate(-0 23.204063 15.958289)">1.0</text>
     </g>
    </g>
    <g id="text_15">
     <text style="font-size: 7px; font-family: 'Arial', 'Helvetica', 'DejaVu Sans', sans-serif; text-anchor: middle" x="8.695781" y="108.936" transform="rotate(-90 8.695781 108.936)">Survival Probability</text>
    </g>
   </g>
   <g id="line2d_27">
    <path d="M 30.204063 13.632 
L 34.49637 13.632 
L 34.49637 129.30096 
L 38.788678 129.30096 
L 38.788678 146.174642 
L 43.080986 146.174642 
L 43.080986 152.904027 
L 47.373293 152.904027 
L 47.373293 158.428149 
L 51.665601 158.428149 
L 51.665601 163.048323 
L 55.957909 163.048323 
L 55.957909 165.860604 
L 60.250216 165.860604 
L 60.250216 168.170691 
L 64.542524 168.170691 
L 64.542524 169.67727 
L 68.834832 169.67727 
L 68.834832 172.690427 
L 73.127139 172.690427 
L 73.127139 174.502699 
L 77.419447 174.502699 
L 77.419447 176.521445 
L 81.711755 176.521445 
L 81.711755 178.444396 
L 86.004063 178.444396 
L 86.004063 180.367346 
L 90.29637 180.367346 
L 90.29637 181.683049 
L 94.588678 181.683049 
L 94.588678 183.09996 
L 98.880986 183.09996 
L 98.880986 185.943013 
L 103.173293 185.943013 
L 103.173293 187.161464 
L 107.465601 187.161464 
L 107.465601 188.996011 
L 111.757909 188.996011 
L 111.757909 190.742726 
L 116.050216 190.742726 
L 116.050216 191.465116 
L 120.342524 191.465116 
L 120.342524 193.32269 
L 124.634832 193.32269 
L 124.634832 194.04508 
L 128.927139 194.04508 
L 128.927139 194.870669 
L 133.219447 194.870669 
L 133.219447 195.700672 
L 137.511755 195.700672 
L 137.511755 196.011924 
L 141.804062 196.011924 
L 141.804062 197.264043 
L 146.09637 197.264043 
L 146.09637 197.998955 
L 150.388678 197.998955 
L 150.388678 198.743473 
L 154.680986 198.743473 
L 154.680986 199.062553 
L 313.804062 199.062553 
L 313.804062 199.062553 
" clip-path="url(#pc7cd60b0e0)" style="fill: none; stroke: #0f4d92; stroke-width: 1.5; stroke-linecap: square"/>
   </g>
   <g id="line2d_28">
    <path d="M 34.49637 214.272 
L 34.49637 3.6 
" clip-path="url(#pc7cd60b0e0)" style="fill: none; stroke-dasharray: 0.6,0.99; stroke-dashoffset: 0; stroke: #767676; stroke-width: 0.6"/>
   </g>
   <g id="line2d_29">
    <path d="M 60.250216 214.272 
L 60.250216 3.6 
" clip-path="url(#pc7cd60b0e0)" style="fill: none; stroke-dasharray: 0.6,0.99; stroke-dashoffset: 0; stroke: #767676; stroke-width: 0.6"/>
   </g>
   <g id="line2d_30">
    <path d="M 90.29637 214.272 
L 90.29637 3.6 
" clip-path="url(#pc7cd60b0e0)" style="fill: none; stroke-dasharray: 0.6,0.99; stroke-dashoffset: 0; stroke: #767676; stroke-width: 0.6"/>
   </g>
   <g id="line2d_31">
    <path d="M 158.973293 214.272 
L 158.973293 3.6 
" clip-path="url(#pc7cd60b0e0)" style="fill: none; stroke-dasharray: 0.6,0.99; stroke-dashoffset: 0; stroke: #767676; stroke-width: 0.6"/>
   </g>
   <g id="patch_3">
    <path d="M 30.204063 214.272 
L 30.204063 3.6 
" style="fill: none; stroke: #000000; stroke-width: 0.8; stroke-linejoin: miter; stroke-linecap: square"/>
   </g>
   <g id="patch_4">
    <path d="M 30.204063 214.272 
L 309.204063 214.272 
" style="fill: none; stroke: #000000; stroke-width: 0.8; stroke-linejoin: miter; stroke-linecap: square"/>
   </g>
   <g id="patch_5">
    <path d="M 40.888158 123.681279 
Q 38.442862 125.831191 36.417394 127.61199 
" style="fill: none; stroke: #767676; stroke-width: 0.5; stroke-linecap: round"/>
    <path d="M 38.795936 126.985461 
L 36.417394 127.61199 
L 37.343296 125.333239 
" style="fill: none; stroke: #767676; stroke-width: 0.5; stroke-linecap: round"/>
   </g>
   <g id="text_16">
    <text style="font-size: 5.5px; font-family: 'Arial', 'Helvetica', 'DejaVu Sans', sans-serif; fill: #4d4d4d" transform="translate(43.080986 113.387226)">Day 1</text>
    <text style="font-size: 5.5px; font-family: 'Arial', 'Helvetica', 'DejaVu Sans', sans-serif; fill: #4d4d4d" transform="translate(43.080986 119.26896)">42.4%</text>
   </g>
   <g id="patch_6">
    <path d="M 66.645243 162.55135 
Q 64.198708 164.701132 62.172104 166.481918 
" style="fill: none; stroke: #767676; stroke-width: 0.5; stroke-linecap: round"/>
    <path d="M 64.550823 165.856059 
L 62.172104 166.481918 
L 63.098648 164.203428 
" style="fill: none; stroke: #767676; stroke-width: 0.5; stroke-linecap: round"/>
   </g>
   <g id="text_17">
    <text style="font-size: 5.5px; font-family: 'Arial', 'Helvetica', 'DejaVu Sans', sans-serif; fill: #4d4d4d" transform="translate(68.834832 152.256957)">Day 7</text>
    <text style="font-size: 5.5px; font-family: 'Arial', 'Helvetica', 'DejaVu Sans', sans-serif; fill: #4d4d4d" transform="translate(68.834832 158.138691)">23.0%</text>
   </g>
   <g id="patch_7">
    <path d="M 97.094262 176.022707 
Q 94.46373 178.21305 92.262789 180.045688 
" style="fill: none; stroke: #767676; stroke-width: 0.5; stroke-linecap: round"/>
    <path d="M 94.657302 179.483276 
L 92.262789 180.045688 
L 93.249567 177.792631 
" style="fill: none; stroke: #767676; stroke-width: 0.5; stroke-linecap: round"/>
   </g>
   <g id="text_18">
    <text style="font-size: 5.5px; font-family: 'Arial', 'Helvetica', 'DejaVu Sans', sans-serif; fill: #4d4d4d" transform="translate(98.880986 165.769315)">Day 14</text>
    <text style="font-size: 5.5px; font-family: 'Arial', 'Helvetica', 'DejaVu Sans', sans-serif; fill: #4d4d4d" transform="translate(98.880986 171.651049)">16.2%</text>
   </g>
   <g id="patch_8">
    <path d="M 165.771185 193.402211 
Q 163.140653 195.592553 160.939712 197.425192 
" style="fill: none; stroke: #767676; stroke-width: 0.5; stroke-linecap: round"/>
    <path d="M 163.334225 196.862779 
L 160.939712 197.425192 
L 161.92649 195.172134 
" style="fill: none; stroke: #767676; stroke-width: 0.5; stroke-linecap: round"/>
   </g>
   <g id="text_19">
    <text style="font-size: 5.5px; font-family: 'Arial', 'Helvetica', 'DejaVu Sans', sans-serif; fill: #4d4d4d" transform="translate(167.557909 183.148818)">Day 30</text>
    <text style="font-size: 5.5px; font-family: 'Arial', 'Helvetica', 'DejaVu Sans', sans-serif; fill: #4d4d4d" transform="translate(167.557909 189.030553)">7.6%</text>
   </g>
   <g id="legend_1">
    <g id="line2d_32">
     <path d="M 247.225547 11.827578 
L 253.725547 11.827578 
L 253.725547 11.827578 
L 260.225547 11.827578 
L 260.225547 11.827578 
" style="fill: none; stroke: #0f4d92; stroke-width: 1.5; stroke-linecap: square"/>
    </g>
    <g id="text_20">
     <text style="font-size: 6.5px; font-family: 'Arial', 'Helvetica', 'DejaVu Sans', sans-serif; text-anchor: start" x="265.425547" y="14.102578" transform="rotate(-0 265.425547 14.102578)">KM_estimate</text>
    </g>
   </g>
  </g>
 </g>
 <defs>
  <clipPath id="pc7cd60b0e0">
   <rect x="30.204063" y="3.6" width="279" height="210.672"/>
  </clipPath>
 </defs>
</svg>
