<?xml version="1.0" encoding="utf-8" standalone="no"?>
<!DOCTYPE svg PUBLIC "-//W3C//DTD SVG 1.1//EN"
  "http://www.w3.org/Graphics/SVG/1.1/DTD/svg11.dtd">
<svg xmlns:xlink="http://www.w3.org/1999/xlink" width="314.311719pt" height="253.636297pt" viewBox="0 0 314.311719 253.636297" xmlns="http://www.w3.org/2000/svg" version="1.1">
 <metadata>
  <rdf:RDF xmlns:dc="http://purl.org/dc/elements/1.1/" xmlns:cc="http://creativecommons.org/ns#" xmlns:rdf="http://www.w3.org/1999/02/22-rdf-syntax-ns#">
   <cc:Work>
    <dc:type rdf:resource="http://purl.org/dc/dcmitype/StillImage"/>
    <dc:date>2026-05-24T15:40:34.174584</dc:date>
    <dc:format>image/svg+xml</dc:format>
    <dc:creator>
     <cc:Agent>
      <dc:title>Matplotlib v3.10.0, https://matplotlib.org/</dc:title>
     </cc:Agent>
    </dc:creator>
   </cc:Work>
  </rdf:RDF>
 </metadata>
 <defs>
  <style type="text/css">*{stroke-linejoin: round; stroke-linecap: butt}</style>
 </defs>
 <g id="figure_1">
  <g id="patch_1">
   <path d="M 0 253.636297 
L 314.311719 253.636297 
L 314.311719 0 
L 0 0 
z
" style="fill: #ffffff"/>
  </g>
  <g id="axes_1">
   <g id="patch_2">
    <path d="M 31.711719 225.970828 
L 310.711719 225.970828 
L 310.711719 15.298828 
L 31.711719 15.298828 
z
" style="fill: #ffffff"/>
   </g>
   <g id="FillBetweenPolyCollection_1">
    <defs>
     <path id="mf29361d0d0" d="M 31.711719 -228.305469 
L 31.711719 -228.305469 
L 36.004026 -228.305469 
L 36.004026 -90.84153 
L 40.296334 -90.84153 
L 40.296334 -69.383539 
L 44.588642 -69.383539 
L 44.588642 -56.043408 
L 48.88095 -56.043408 
L 48.88095 -48.406013 
L 53.173257 -48.406013 
L 53.173257 -44.248891 
L 57.465565 -44.248891 
L 57.465565 -40.69287 
L 61.757873 -40.69287 
L 61.757873 -38.283997 
L 66.05018 -38.283997 
L 66.05018 -36.266011 
L 70.342488 -36.266011 
L 70.342488 -34.632984 
L 74.634796 -34.632984 
L 74.634796 -33.734678 
L 78.927103 -33.734678 
L 78.927103 -33.377489 
L 83.219411 -33.377489 
L 83.219411 -32.8443 
L 87.511719 -32.8443 
L 87.511719 -32.138887 
L 91.804026 -32.138887 
L 91.804026 -31.701704 
L 96.096334 -31.701704 
L 96.096334 -31.095332 
L 100.388642 -31.095332 
L 100.388642 -30.667004 
L 104.68095 -30.667004 
L 104.68095 -30.412261 
L 108.973257 -30.412261 
L 108.973257 -30.327764 
L 113.265565 -30.327764 
L 113.265565 -29.908808 
L 117.557873 -29.908808 
L 117.557873 -29.578536 
L 121.85018 -29.578536 
L 121.85018 -29.496761 
L 126.142488 -29.496761 
L 126.142488 -29.253619 
L 130.434796 -29.253619 
L 130.434796 -29.014233 
L 139.019411 -29.014233 
L 139.019411 -28.935403 
L 147.604026 -28.935403 
L 147.604026 -28.702325 
L 160.48095 -28.702325 
L 160.48095 -28.702325 
L 160.48095 -30.341733 
L 160.48095 -30.341733 
L 160.48095 -30.341733 
L 147.604026 -30.341733 
L 147.604026 -30.707111 
L 139.019411 -30.707111 
L 139.019411 -30.827837 
L 130.434796 -30.827837 
L 130.434796 -31.18729 
L 126.142488 -31.18729 
L 126.142488 -31.543194 
L 121.85018 -31.543194 
L 121.85018 -31.661139 
L 117.557873 -31.661139 
L 117.557873 -32.129907 
L 113.265565 -32.129907 
L 113.265565 -32.710044 
L 108.973257 -32.710044 
L 108.973257 -32.825399 
L 104.68095 -32.825399 
L 104.68095 -33.170265 
L 100.388642 -33.170265 
L 100.388642 -33.741447 
L 96.096334 -33.741447 
L 96.096334 -34.534669 
L 91.804026 -34.534669 
L 91.804026 -35.097359 
L 87.511719 -35.097359 
L 87.511719 -35.991972 
L 83.219411 -35.991972 
L 83.219411 -36.658959 
L 78.927103 -36.658959 
L 78.927103 -37.10195 
L 74.634796 -37.10195 
L 74.634796 -38.204284 
L 70.342488 -38.204284 
L 70.342488 -40.172968 
L 66.05018 -40.172968 
L 66.05018 -42.557805 
L 61.757873 -42.557805 
L 61.757873 -45.353027 
L 57.465565 -45.353027 
L 57.465565 -49.404053 
L 53.173257 -49.404053 
L 53.173257 -54.056217 
L 48.88095 -54.056217 
L 48.88095 -62.437798 
L 44.588642 -62.437798 
L 44.588642 -76.734368 
L 40.296334 -76.734368 
L 40.296334 -99.1405 
L 36.004026 -99.1405 
L 36.004026 -228.305469 
L 31.711719 -228.305469 
z
" style="stroke: #0f4d92; stroke-opacity: 0.25"/>
    </defs>
    <g clip-path="url(#p0705e0ae76)">
     <use xlink:href="#mf29361d0d0" x="0" y="253.636297" style="fill: #0f4d92; fill-opacity: 0.25; stroke: #0f4d92; stroke-opacity: 0.25"/>
    </g>
   </g>
   <g id="matplotlib.axis_1">
    <g id="xtick_1">
     <g id="line2d_1">
      <path d="M 31.711719 225.970828 
L 31.711719 15.298828 
" clip-path="url(#p0705e0ae76)" style="fill: none; stroke-dasharray: 1.11,0.48; stroke-dashoffset: 0; stroke: #b0b0b0; stroke-opacity: 0.3; stroke-width: 0.3"/>
     </g>
     <g id="line2d_2">
      <defs>
       <path id="m9112d1da82" d="M 0 0 
L 0 3.5 
" style="stroke: #000000; stroke-width: 0.8"/>
      </defs>
      <g>
       <use xlink:href="#m9112d1da82" x="31.711719" y="225.970828" style="stroke: #000000; stroke-width: 0.8"/>
      </g>
     </g>
     <g id="text_1">
      <text style="font-size: 6.5px; font-family: 'DejaVu Sans', 'Arial', 'Helvetica', sans-serif; text-anchor: middle" x="31.711719" y="237.909812" transform="rotate(-0 31.711719 237.909812)">0</text>
     </g>
    </g>
    <g id="xtick_2">
     <g id="line2d_3">
      <path d="M 74.634796 225.970828 
L 74.634796 15.298828 
" clip-path="url(#p0705e0ae76)" style="fill: none; stroke-dasharray: 1.11,0.48; stroke-dashoffset: 0; stroke: #b0b0b0; stroke-opacity: 0.3; stroke-width: 0.3"/>
     </g>
     <g id="line2d_4">
      <g>
       <use xlink:href="#m9112d1da82" x="74.634796" y="225.970828" style="stroke: #000000; stroke-width: 0.8"/>
      </g>
     </g>
     <g id="text_2">
      <text style="font-size: 6.5px; font-family: 'DejaVu Sans', 'Arial', 'Helvetica', sans-serif; text-anchor: middle" x="74.634796" y="237.909812" transform="rotate(-0 74.634796 237.909812)">10</text>
     </g>
    </g>
    <g id="xtick_3">
     <g id="line2d_5">
      <path d="M 117.557873 225.970828 
L 117.557873 15.298828 
" clip-path="url(#p0705e0ae76)" style="fill: none; stroke-dasharray: 1.11,0.48; stroke-dashoffset: 0; stroke: #b0b0b0; stroke-opacity: 0.3; stroke-width: 0.3"/>
     </g>
     <g id="line2d_6">
      <g>
       <use xlink:href="#m9112d1da82" x="117.557873" y="225.970828" style="stroke: #000000; stroke-width: 0.8"/>
      </g>
     </g>
     <g id="text_3">
      <text style="font-size: 6.5px; font-family: 'DejaVu Sans', 'Arial', 'Helvetica', sans-serif; text-anchor: middle" x="117.557873" y="237.909812" transform="rotate(-0 117.557873 237.909812)">20</text>
     </g>
    </g>
    <g id="xtick_4">
     <g id="line2d_7">
      <path d="M 160.48095 225.970828 
L 160.48095 15.298828 
" clip-path="url(#p0705e0ae76)" style="fill: none; stroke-dasharray: 1.11,0.48; stroke-dashoffset: 0; stroke: #b0b0b0; stroke-opacity: 0.3; stroke-width: 0.3"/>
     </g>
     <g id="line2d_8">
      <g>
       <use xlink:href="#m9112d1da82" x="160.48095" y="225.970828" style="stroke: #000000; stroke-width: 0.8"/>
      </g>
     </g>
     <g id="text_4">
      <text style="font-size: 6.5px; font-family: 'DejaVu Sans', 'Arial', 'Helvetica', sans-serif; text-anchor: middle" x="160.48095" y="237.909812" transform="rotate(-0 160.48095 237.909812)">30</text>
     </g>
    </g>
    <g id="xtick_5">
     <g id="line2d_9">
      <path d="M 203.404026 225.970828 
L 203.404026 15.298828 
" clip-path="url(#p0705e0ae76)" style="fill: none; stroke-dasharray: 1.11,0.48; stroke-dashoffset: 0; stroke: #b0b0b0; stroke-opacity: 0.3; stroke-width: 0.3"/>
     </g>
     <g id="line2d_10">
      <g>
       <use xlink:href="#m9112d1da82" x="203.404026" y="225.970828" style="stroke: #000000; stroke-width: 0.8"/>
      </g>
     </g>
     <g id="text_5">
      <text style="font-size: 6.5px; font-family: 'DejaVu Sans', 'Arial', 'Helvetica', sans-serif; text-anchor: middle" x="203.404026" y="237.909812" transform="rotate(-0 203.404026 237.909812)">40</text>
     </g>
    </g>
    <g id="xtick_6">
     <g id="line2d_11">
      <path d="M 246.327103 225.970828 
L 246.327103 15.298828 
" clip-path="url(#p0705e0ae76)" style="fill: none; stroke-dasharray: 1.11,0.48; stroke-dashoffset: 0; stroke: #b0b0b0; stroke-opacity: 0.3; stroke-width: 0.3"/>
     </g>
     <g id="line2d_12">
      <g>
       <use xlink:href="#m9112d1da82" x="246.327103" y="225.970828" style="stroke: #000000; stroke-width: 0.8"/>
      </g>
     </g>
     <g id="text_6">
      <text style="font-size: 6.5px; font-family: 'DejaVu Sans', 'Arial', 'Helvetica', sans-serif; text-anchor: middle" x="246.327103" y="237.909812" transform="rotate(-0 246.327103 237.909812)">50</text>
     </g>
    </g>
    <g id="xtick_7">
     <g id="line2d_13">
      <path d="M 289.25018 225.970828 
L 289.25018 15.298828 
" clip-path="url(#p0705e0ae76)" style="fill: none; stroke-dasharray: 1.11,0.48; stroke-dashoffset: 0; stroke: #b0b0b0; stroke-opacity: 0.3; stroke-width: 0.3"/>
     </g>
     <g id="line2d_14">
      <g>
       <use xlink:href="#m9112d1da82" x="289.25018" y="225.970828" style="stroke: #000000; stroke-width: 0.8"/>
      </g>
     </g>
     <g id="text_7">
      <text style="font-size: 6.5px; font-family: 'DejaVu Sans', 'Arial', 'Helvetica', sans-serif; text-anchor: middle" x="289.25018" y="237.909812" transform="rotate(-0 289.25018 237.909812)">60</text>
     </g>
    </g>
    <g id="text_8">
     <text style="font-size: 7px; font-family: 'DejaVu Sans', 'Arial', 'Helvetica', sans-serif; text-anchor: middle" x="171.211719" y="248.580516" transform="rotate(-0 171.211719 248.580516)">Days Since Registration</text>
    </g>
   </g>
   <g id="matplotlib.axis_2">
    <g id="ytick_1">
     <g id="line2d_15">
      <path d="M 31.711719 225.970828 
L 310.711719 225.970828 
" clip-path="url(#p0705e0ae76)" style="fill: none; stroke-dasharray: 1.11,0.48; stroke-dashoffset: 0; stroke: #b0b0b0; stroke-opacity: 0.3; stroke-width: 0.3"/>
     </g>
     <g id="line2d_16">
      <defs>
       <path id="m1700fb1da0" d="M 0 0 
L -3.5 0 
" style="stroke: #000000; stroke-width: 0.8"/>
      </defs>
      <g>
       <use xlink:href="#m1700fb1da0" x="31.711719" y="225.970828" style="stroke: #000000; stroke-width: 0.8"/>
      </g>
     </g>
     <g id="text_9">
      <text style="font-size: 6.5px; font-family: 'DejaVu Sans', 'Arial', 'Helvetica', sans-serif; text-anchor: end" x="24.711719" y="228.44032" transform="rotate(-0 24.711719 228.44032)">0.0</text>
     </g>
    </g>
    <g id="ytick_2">
     <g id="line2d_17">
      <path d="M 31.711719 185.842828 
L 310.711719 185.842828 
" clip-path="url(#p0705e0ae76)" style="fill: none; stroke-dasharray: 1.11,0.48; stroke-dashoffset: 0; stroke: #b0b0b0; stroke-opacity: 0.3; stroke-width: 0.3"/>
     </g>
     <g id="line2d_18">
      <g>
       <use xlink:href="#m1700fb1da0" x="31.711719" y="185.842828" style="stroke: #000000; stroke-width: 0.8"/>
      </g>
     </g>
     <g id="text_10">
      <text style="font-size: 6.5px; font-family: 'DejaVu Sans', 'Arial', 'Helvetica', sans-serif; text-anchor: end" x="24.711719" y="188.31232" transform="rotate(-0 24.711719 188.31232)">0.2</text>
     </g>
    </g>
    <g id="ytick_3">
     <g id="line2d_19">
      <path d="M 31.711719 145.714828 
L 310.711719 145.714828 
" clip-path="url(#p0705e0ae76)" style="fill: none; stroke-dasharray: 1.11,0.48; stroke-dashoffset: 0; stroke: #b0b0b0; stroke-opacity: 0.3; stroke-width: 0.3"/>
     </g>
     <g id="line2d_20">
      <g>
       <use xlink:href="#m1700fb1da0" x="31.711719" y="145.714828" style="stroke: #000000; stroke-width: 0.8"/>
      </g>
     </g>
     <g id="text_11">
      <text style="font-size: 6.5px; font-family: 'DejaVu Sans', 'Arial', 'Helvetica', sans-serif; text-anchor: end" x="24.711719" y="148.18432" transform="rotate(-0 24.711719 148.18432)">0.4</text>
     </g>
    </g>
    <g id="ytick_4">
     <g id="line2d_21">
      <path d="M 31.711719 105.586828 
L 310.711719 105.586828 
" clip-path="url(#p0705e0ae76)" style="fill: none; stroke-dasharray: 1.11,0.48; stroke-dashoffset: 0; stroke: #b0b0b0; stroke-opacity: 0.3; stroke-width: 0.3"/>
     </g>
     <g id="line2d_22">
      <g>
       <use xlink:href="#m1700fb1da0" x="31.711719" y="105.586828" style="stroke: #000000; stroke-width: 0.8"/>
      </g>
     </g>
     <g id="text_12">
      <text style="font-size: 6.5px; font-family: 'DejaVu Sans', 'Arial', 'Helvetica', sans-serif; text-anchor: end" x="24.711719" y="108.05632" transform="rotate(-0 24.711719 108.05632)">0.6</text>
     </g>
    </g>
    <g id="ytick_5">
     <g id="line2d_23">
      <path d="M 31.711719 65.458828 
L 310.711719 65.458828 
" clip-path="url(#p0705e0ae76)" style="fill: none; stroke-dasharray: 1.11,0.48; stroke-dashoffset: 0; stroke: #b0b0b0; stroke-opacity: 0.3; stroke-width: 0.3"/>
     </g>
     <g id="line2d_24">
      <g>
       <use xlink:href="#m1700fb1da0" x="31.711719" y="65.458828" style="stroke: #000000; stroke-width: 0.8"/>
      </g>
     </g>
     <g id="text_13">
      <text style="font-size: 6.5px; font-family: 'DejaVu Sans', 'Arial', 'Helvetica', sans-serif; text-anchor: end" x="24.711719" y="67.92832" transform="rotate(-0 24.711719 67.92832)">0.8</text>
     </g>
    </g>
    <g id="ytick_6">
     <g id="line2d_25">
      <path d="M 31.711719 25.330828 
L 310.711719 25.330828 
" clip-path="url(#p0705e0ae76)" style="fill: none; stroke-dasharray: 1.11,0.48; stroke-dashoffset: 0; stroke: #b0b0b0; stroke-opacity: 0.3; stroke-width: 0.3"/>
     </g>
     <g id="line2d_26">
      <g>
       <use xlink:href="#m1700fb1da0" x="31.711719" y="25.330828" style="stroke: #000000; stroke-width: 0.8"/>
      </g>
     </g>
     <g id="text_14">
      <text style="font-size: 6.5px; font-family: 'DejaVu Sans', 'Arial', 'Helvetica', sans-serif; text-anchor: end" x="24.711719" y="27.80032" transform="rotate(-0 24.711719 27.80032)">1.0</text>
     </g>
    </g>
    <g id="text_15">
     <text style="font-size: 7px; font-family: 'DejaVu Sans', 'Arial', 'Helvetica', sans-serif; text-anchor: middle" x="8.918906" y="120.634828" transform="rotate(-90 8.918906 120.634828)">Survival Probability</text>
    </g>
   </g>
   <g id="line2d_27">
    <path d="M 31.711719 25.330828 
L 36.004026 25.330828 
L 36.004026 158.656108 
L 40.296334 158.656108 
L 40.296334 180.626188 
L 44.588642 180.626188 
L 44.588642 194.470348 
L 48.88095 194.470348 
L 48.88095 202.495948 
L 53.173257 202.495948 
L 53.173257 206.910028 
L 57.465565 206.910028 
L 57.465565 210.722188 
L 61.757873 210.722188 
L 61.757873 213.330508 
L 66.05018 213.330508 
L 66.05018 215.537548 
L 70.342488 215.537548 
L 70.342488 217.343308 
L 74.634796 217.343308 
L 74.634796 218.346508 
L 78.927103 218.346508 
L 78.927103 218.747788 
L 83.219411 218.747788 
L 83.219411 219.349708 
L 87.511719 219.349708 
L 87.511719 220.152268 
L 91.804026 220.152268 
L 91.804026 220.653868 
L 96.096334 220.653868 
L 96.096334 221.356108 
L 100.388642 221.356108 
L 100.388642 221.857708 
L 104.68095 221.857708 
L 104.68095 222.158668 
L 108.973257 222.158668 
L 108.973257 222.258988 
L 113.265565 222.258988 
L 113.265565 222.760588 
L 117.557873 222.760588 
L 117.557873 223.161868 
L 121.85018 223.161868 
L 121.85018 223.262188 
L 126.142488 223.262188 
L 126.142488 223.563148 
L 130.434796 223.563148 
L 130.434796 223.864108 
L 139.019411 223.864108 
L 139.019411 223.964428 
L 147.604026 223.964428 
L 147.604026 224.265388 
L 160.48095 224.265388 
L 160.48095 224.265388 
" clip-path="url(#p0705e0ae76)" style="fill: none; stroke: #0f4d92; stroke-width: 1.5; stroke-linecap: square"/>
   </g>
   <g id="line2d_28">
    <path d="M 36.004026 225.970828 
L 36.004026 15.298828 
" clip-path="url(#p0705e0ae76)" style="fill: none; stroke-dasharray: 0.6,0.99; stroke-dashoffset: 0; stroke: #767676; stroke-width: 0.6"/>
   </g>
   <g id="line2d_29">
    <path d="M 61.757873 225.970828 
L 61.757873 15.298828 
" clip-path="url(#p0705e0ae76)" style="fill: none; stroke-dasharray: 0.6,0.99; stroke-dashoffset: 0; stroke: #767676; stroke-width: 0.6"/>
   </g>
   <g id="line2d_30">
    <path d="M 91.804026 225.970828 
L 91.804026 15.298828 
" clip-path="url(#p0705e0ae76)" style="fill: none; stroke-dasharray: 0.6,0.99; stroke-dashoffset: 0; stroke: #767676; stroke-width: 0.6"/>
   </g>
   <g id="line2d_31">
    <path d="M 160.48095 225.970828 
L 160.48095 15.298828 
" clip-path="url(#p0705e0ae76)" style="fill: none; stroke-dasharray: 0.6,0.99; stroke-dashoffset: 0; stroke: #767676; stroke-width: 0.6"/>
   </g>
   <g id="patch_3">
    <path d="M 31.711719 225.970828 
L 31.711719 15.298828 
" style="fill: none; stroke: #000000; stroke-width: 0.8; stroke-linejoin: miter; stroke-linecap: square"/>
   </g>
   <g id="patch_4">
    <path d="M 31.711719 225.970828 
L 310.711719 225.970828 
" style="fill: none; stroke: #000000; stroke-width: 0.8; stroke-linejoin: miter; stroke-linecap: square"/>
   </g>
   <g id="patch_5">
    <path d="M 42.631931 153.058148 
Q 40.08336 155.210684 37.96186 157.002513 
" style="fill: none; stroke: #767676; stroke-width: 0.5; stroke-linecap: round"/>
    <path d="M 40.35237 156.423324 
L 37.96186 157.002513 
L 38.932815 154.742591 
" style="fill: none; stroke: #767676; stroke-width: 0.5; stroke-linecap: round"/>
   </g>
   <g id="text_16">
    <text style="font-size: 5.5px; font-family: 'DejaVu Sans', 'Arial', 'Helvetica', sans-serif; fill: #4d4d4d" transform="translate(44.588642 142.465311)">Day 1</text>
    <text style="font-size: 5.5px; font-family: 'DejaVu Sans', 'Arial', 'Helvetica', sans-serif; fill: #4d4d4d" transform="translate(44.588642 148.624108)">33.6%</text>
   </g>
   <g id="patch_6">
    <path d="M 68.09041 207.762816 
Q 65.673965 209.887402 63.677345 211.64287 
" style="fill: none; stroke: #767676; stroke-width: 0.5; stroke-linecap: round"/>
    <path d="M 66.055882 211.016319 
L 63.677345 211.64287 
L 64.603227 209.364111 
" style="fill: none; stroke: #767676; stroke-width: 0.5; stroke-linecap: round"/>
   </g>
   <g id="text_17">
    <text style="font-size: 5.5px; font-family: 'DejaVu Sans', 'Arial', 'Helvetica', sans-serif; fill: #4d4d4d" transform="translate(70.342488 197.139711)">Day 7</text>
    <text style="font-size: 5.5px; font-family: 'DejaVu Sans', 'Arial', 'Helvetica', sans-serif; fill: #4d4d4d" transform="translate(70.342488 203.298508)">6.3%</text>
   </g>
   <g id="patch_7">
    <path d="M 98.895482 215.012187 
Q 96.134039 217.209082 93.81006 219.057947 
" style="fill: none; stroke: #767676; stroke-width: 0.5; stroke-linecap: round"/>
    <path d="M 96.216526 218.5491 
L 93.81006 219.057947 
L 94.846862 216.827467 
" style="fill: none; stroke: #767676; stroke-width: 0.5; stroke-linecap: round"/>
   </g>
   <g id="text_18">
    <text style="font-size: 5.5px; font-family: 'DejaVu Sans', 'Arial', 'Helvetica', sans-serif; fill: #4d4d4d" transform="translate(100.388642 204.463071)">Day 14</text>
    <text style="font-size: 5.5px; font-family: 'DejaVu Sans', 'Arial', 'Helvetica', sans-serif; fill: #4d4d4d" transform="translate(100.388642 210.621868)">2.7%</text>
   </g>
   <g id="patch_8">
    <path d="M 167.572405 218.623707 
Q 164.810962 220.820602 162.486983 222.669467 
" style="fill: none; stroke: #767676; stroke-width: 0.5; stroke-linecap: round"/>
    <path d="M 164.893449 222.16062 
L 162.486983 222.669467 
L 163.523785 220.438987 
" style="fill: none; stroke: #767676; stroke-width: 0.5; stroke-linecap: round"/>
   </g>
   <g id="text_19">
    <text style="font-size: 5.5px; font-family: 'DejaVu Sans', 'Arial', 'Helvetica', sans-serif; fill: #4d4d4d" transform="translate(169.065565 208.074591)">Day 30</text>
    <text style="font-size: 5.5px; font-family: 'DejaVu Sans', 'Arial', 'Helvetica', sans-serif; fill: #4d4d4d" transform="translate(169.065565 214.233388)">0.8%</text>
   </g>
   <g id="text_20">
    <text style="font-weight: 700; font-size: 7.5px; font-family: 'DejaVu Sans', 'Arial', 'Helvetica', sans-serif; text-anchor: middle" x="171.211719" y="9.298828" transform="rotate(-0 171.211719 9.298828)">Kaplan-Meier Player Retention Curve</text>
   </g>
  </g>
 </g>
 <defs>
  <clipPath id="p0705e0ae76">
   <rect x="31.711719" y="15.298828" width="279" height="210.672"/>
  </clipPath>
 </defs>
</svg>
