<?xml version="1.0" encoding="utf-8" standalone="no"?>
<!DOCTYPE svg PUBLIC "-//W3C//DTD SVG 1.1//EN"
  "http://www.w3.org/Graphics/SVG/1.1/DTD/svg11.dtd">
<svg xmlns:xlink="http://www.w3.org/1999/xlink" width="324.652812pt" height="220.372297pt" viewBox="0 0 324.652812 220.372297" xmlns="http://www.w3.org/2000/svg" version="1.1">
 <metadata>
  <rdf:RDF xmlns:dc="http://purl.org/dc/elements/1.1/" xmlns:cc="http://creativecommons.org/ns#" xmlns:rdf="http://www.w3.org/1999/02/22-rdf-syntax-ns#">
   <cc:Work>
    <dc:type rdf:resource="http://purl.org/dc/dcmitype/StillImage"/>
    <dc:date>2026-05-24T15:59:43.805745</dc:date>
    <dc:format>image/svg+xml</dc:format>
    <dc:creator>
     <cc:Agent>
      <dc:title>Matplotlib v3.10.0, https://matplotlib.org/</dc:title>
     </cc:Agent>
    </dc:creator>
   </cc:Work>
  </rdf:RDF>
 </metadata>
 <defs>
  <style type="text/css">*{stroke-linejoin: round; stroke-linecap: butt}</style>
 </defs>
 <g id="figure_1">
  <g id="patch_1">
   <path d="M 0 220.372297 
L 324.652812 220.372297 
L 324.652812 0 
L 0 0 
z
" style="fill: #ffffff"/>
  </g>
  <g id="axes_1">
   <g id="patch_2">
    <path d="M 42.052813 192.706828 
L 321.052813 192.706828 
L 321.052813 15.298828 
L 42.052813 15.298828 
z
" style="fill: #ffffff"/>
   </g>
   <g id="matplotlib.axis_1">
    <g id="xtick_1">
     <g id="line2d_1">
      <path d="M 54.734631 192.706828 
L 54.734631 15.298828 
" clip-path="url(#p485cbf5ef2)" style="fill: none; stroke-dasharray: 1.11,0.48; stroke-dashoffset: 0; stroke: #b0b0b0; stroke-opacity: 0.3; stroke-width: 0.3"/>
     </g>
     <g id="line2d_2">
      <defs>
       <path id="m4ba45b4760" d="M 0 0 
L 0 3.5 
" style="stroke: #000000; stroke-width: 0.8"/>
      </defs>
      <g>
       <use xlink:href="#m4ba45b4760" x="54.734631" y="192.706828" style="stroke: #000000; stroke-width: 0.8"/>
      </g>
     </g>
     <g id="text_1">
      <text style="font-size: 6.5px; font-family: 'DejaVu Sans', 'Arial', 'Helvetica', sans-serif; text-anchor: middle" x="54.734631" y="204.645812" transform="rotate(-0 54.734631 204.645812)">0</text>
     </g>
    </g>
    <g id="xtick_2">
     <g id="line2d_3">
      <path d="M 105.512681 192.706828 
L 105.512681 15.298828 
" clip-path="url(#p485cbf5ef2)" style="fill: none; stroke-dasharray: 1.11,0.48; stroke-dashoffset: 0; stroke: #b0b0b0; stroke-opacity: 0.3; stroke-width: 0.3"/>
     </g>
     <g id="line2d_4">
      <g>
       <use xlink:href="#m4ba45b4760" x="105.512681" y="192.706828" style="stroke: #000000; stroke-width: 0.8"/>
      </g>
     </g>
     <g id="text_2">
      <text style="font-size: 6.5px; font-family: 'DejaVu Sans', 'Arial', 'Helvetica', sans-serif; text-anchor: middle" x="105.512681" y="204.645812" transform="rotate(-0 105.512681 204.645812)">200</text>
     </g>
    </g>
    <g id="xtick_3">
     <g id="line2d_5">
      <path d="M 156.290732 192.706828 
L 156.290732 15.298828 
" clip-path="url(#p485cbf5ef2)" style="fill: none; stroke-dasharray: 1.11,0.48; stroke-dashoffset: 0; stroke: #b0b0b0; stroke-opacity: 0.3; stroke-width: 0.3"/>
     </g>
     <g id="line2d_6">
      <g>
       <use xlink:href="#m4ba45b4760" x="156.290732" y="192.706828" style="stroke: #000000; stroke-width: 0.8"/>
      </g>
     </g>
     <g id="text_3">
      <text style="font-size: 6.5px; font-family: 'DejaVu Sans', 'Arial', 'Helvetica', sans-serif; text-anchor: middle" x="156.290732" y="204.645812" transform="rotate(-0 156.290732 204.645812)">400</text>
     </g>
    </g>
    <g id="xtick_4">
     <g id="line2d_7">
      <path d="M 207.068783 192.706828 
L 207.068783 15.298828 
" clip-path="url(#p485cbf5ef2)" style="fill: none; stroke-dasharray: 1.11,0.48; stroke-dashoffset: 0; stroke: #b0b0b0; stroke-opacity: 0.3; stroke-width: 0.3"/>
     </g>
     <g id="line2d_8">
      <g>
       <use xlink:href="#m4ba45b4760" x="207.068783" y="192.706828" style="stroke: #000000; stroke-width: 0.8"/>
      </g>
     </g>
     <g id="text_4">
      <text style="font-size: 6.5px; font-family: 'DejaVu Sans', 'Arial', 'Helvetica', sans-serif; text-anchor: middle" x="207.068783" y="204.645812" transform="rotate(-0 207.068783 204.645812)">600</text>
     </g>
    </g>
    <g id="xtick_5">
     <g id="line2d_9">
      <path d="M 257.846834 192.706828 
L 257.846834 15.298828 
" clip-path="url(#p485cbf5ef2)" style="fill: none; stroke-dasharray: 1.11,0.48; stroke-dashoffset: 0; stroke: #b0b0b0; stroke-opacity: 0.3; stroke-width: 0.3"/>
     </g>
     <g id="line2d_10">
      <g>
       <use xlink:href="#m4ba45b4760" x="257.846834" y="192.706828" style="stroke: #000000; stroke-width: 0.8"/>
      </g>
     </g>
     <g id="text_5">
      <text style="font-size: 6.5px; font-family: 'DejaVu Sans', 'Arial', 'Helvetica', sans-serif; text-anchor: middle" x="257.846834" y="204.645812" transform="rotate(-0 257.846834 204.645812)">800</text>
     </g>
    </g>
    <g id="xtick_6">
     <g id="line2d_11">
      <path d="M 308.624885 192.706828 
L 308.624885 15.298828 
" clip-path="url(#p485cbf5ef2)" style="fill: none; stroke-dasharray: 1.11,0.48; stroke-dashoffset: 0; stroke: #b0b0b0; stroke-opacity: 0.3; stroke-width: 0.3"/>
     </g>
     <g id="line2d_12">
      <g>
       <use xlink:href="#m4ba45b4760" x="308.624885" y="192.706828" style="stroke: #000000; stroke-width: 0.8"/>
      </g>
     </g>
     <g id="text_6">
      <text style="font-size: 6.5px; font-family: 'DejaVu Sans', 'Arial', 'Helvetica', sans-serif; text-anchor: middle" x="308.624885" y="204.645812" transform="rotate(-0 308.624885 204.645812)">1000</text>
     </g>
    </g>
    <g id="text_7">
     <text style="font-size: 7px; font-family: 'DejaVu Sans', 'Arial', 'Helvetica', sans-serif; text-anchor: middle" x="181.552813" y="215.316516" transform="rotate(-0 181.552813 215.316516)">Simulation Count</text>
    </g>
   </g>
   <g id="matplotlib.axis_2">
    <g id="ytick_1">
     <g id="line2d_13">
      <path d="M 42.052813 178.898448 
L 321.052813 178.898448 
" clip-path="url(#p485cbf5ef2)" style="fill: none; stroke-dasharray: 1.11,0.48; stroke-dashoffset: 0; stroke: #b0b0b0; stroke-opacity: 0.3; stroke-width: 0.3"/>
     </g>
     <g id="line2d_14">
      <defs>
       <path id="m429b948a2a" d="M 0 0 
L -3.5 0 
" style="stroke: #000000; stroke-width: 0.8"/>
      </defs>
      <g>
       <use xlink:href="#m429b948a2a" x="42.052813" y="178.898448" style="stroke: #000000; stroke-width: 0.8"/>
      </g>
     </g>
     <g id="text_8">
      <text style="font-size: 6.5px; font-family: 'DejaVu Sans', 'Arial', 'Helvetica', sans-serif; text-anchor: end" x="35.052813" y="181.36794" transform="rotate(-0 35.052813 181.36794)">67500</text>
     </g>
    </g>
    <g id="ytick_2">
     <g id="line2d_15">
      <path d="M 42.052813 153.557801 
L 321.052813 153.557801 
" clip-path="url(#p485cbf5ef2)" style="fill: none; stroke-dasharray: 1.11,0.48; stroke-dashoffset: 0; stroke: #b0b0b0; stroke-opacity: 0.3; stroke-width: 0.3"/>
     </g>
     <g id="line2d_16">
      <g>
       <use xlink:href="#m429b948a2a" x="42.052813" y="153.557801" style="stroke: #000000; stroke-width: 0.8"/>
      </g>
     </g>
     <g id="text_9">
      <text style="font-size: 6.5px; font-family: 'DejaVu Sans', 'Arial', 'Helvetica', sans-serif; text-anchor: end" x="35.052813" y="156.027293" transform="rotate(-0 35.052813 156.027293)">68000</text>
     </g>
    </g>
    <g id="ytick_3">
     <g id="line2d_17">
      <path d="M 42.052813 128.217154 
L 321.052813 128.217154 
" clip-path="url(#p485cbf5ef2)" style="fill: none; stroke-dasharray: 1.11,0.48; stroke-dashoffset: 0; stroke: #b0b0b0; stroke-opacity: 0.3; stroke-width: 0.3"/>
     </g>
     <g id="line2d_18">
      <g>
       <use xlink:href="#m429b948a2a" x="42.052813" y="128.217154" style="stroke: #000000; stroke-width: 0.8"/>
      </g>
     </g>
     <g id="text_10">
      <text style="font-size: 6.5px; font-family: 'DejaVu Sans', 'Arial', 'Helvetica', sans-serif; text-anchor: end" x="35.052813" y="130.686646" transform="rotate(-0 35.052813 130.686646)">68500</text>
     </g>
    </g>
    <g id="ytick_4">
     <g id="line2d_19">
      <path d="M 42.052813 102.876506 
L 321.052813 102.876506 
" clip-path="url(#p485cbf5ef2)" style="fill: none; stroke-dasharray: 1.11,0.48; stroke-dashoffset: 0; stroke: #b0b0b0; stroke-opacity: 0.3; stroke-width: 0.3"/>
     </g>
     <g id="line2d_20">
      <g>
       <use xlink:href="#m429b948a2a" x="42.052813" y="102.876506" style="stroke: #000000; stroke-width: 0.8"/>
      </g>
     </g>
     <g id="text_11">
      <text style="font-size: 6.5px; font-family: 'DejaVu Sans', 'Arial', 'Helvetica', sans-serif; text-anchor: end" x="35.052813" y="105.345999" transform="rotate(-0 35.052813 105.345999)">69000</text>
     </g>
    </g>
    <g id="ytick_5">
     <g id="line2d_21">
      <path d="M 42.052813 77.535859 
L 321.052813 77.535859 
" clip-path="url(#p485cbf5ef2)" style="fill: none; stroke-dasharray: 1.11,0.48; stroke-dashoffset: 0; stroke: #b0b0b0; stroke-opacity: 0.3; stroke-width: 0.3"/>
     </g>
     <g id="line2d_22">
      <g>
       <use xlink:href="#m429b948a2a" x="42.052813" y="77.535859" style="stroke: #000000; stroke-width: 0.8"/>
      </g>
     </g>
     <g id="text_12">
      <text style="font-size: 6.5px; font-family: 'DejaVu Sans', 'Arial', 'Helvetica', sans-serif; text-anchor: end" x="35.052813" y="80.005352" transform="rotate(-0 35.052813 80.005352)">69500</text>
     </g>
    </g>
    <g id="ytick_6">
     <g id="line2d_23">
      <path d="M 42.052813 52.195212 
L 321.052813 52.195212 
" clip-path="url(#p485cbf5ef2)" style="fill: none; stroke-dasharray: 1.11,0.48; stroke-dashoffset: 0; stroke: #b0b0b0; stroke-opacity: 0.3; stroke-width: 0.3"/>
     </g>
     <g id="line2d_24">
      <g>
       <use xlink:href="#m429b948a2a" x="42.052813" y="52.195212" style="stroke: #000000; stroke-width: 0.8"/>
      </g>
     </g>
     <g id="text_13">
      <text style="font-size: 6.5px; font-family: 'DejaVu Sans', 'Arial', 'Helvetica', sans-serif; text-anchor: end" x="35.052813" y="54.664704" transform="rotate(-0 35.052813 54.664704)">70000</text>
     </g>
    </g>
    <g id="ytick_7">
     <g id="line2d_25">
      <path d="M 42.052813 26.854565 
L 321.052813 26.854565 
" clip-path="url(#p485cbf5ef2)" style="fill: none; stroke-dasharray: 1.11,0.48; stroke-dashoffset: 0; stroke: #b0b0b0; stroke-opacity: 0.3; stroke-width: 0.3"/>
     </g>
     <g id="line2d_26">
      <g>
       <use xlink:href="#m429b948a2a" x="42.052813" y="26.854565" style="stroke: #000000; stroke-width: 0.8"/>
      </g>
     </g>
     <g id="text_14">
      <text style="font-size: 6.5px; font-family: 'DejaVu Sans', 'Arial', 'Helvetica', sans-serif; text-anchor: end" x="35.052813" y="29.324057" transform="rotate(-0 35.052813 29.324057)">70500</text>
     </g>
    </g>
    <g id="text_15">
     <text style="font-size: 7px; font-family: 'DejaVu Sans', 'Arial', 'Helvetica', sans-serif; text-anchor: middle" x="8.918906" y="104.002828" transform="rotate(-90 8.918906 104.002828)">Cumulative Mean Revenue (CNY)</text>
    </g>
   </g>
   <g id="line2d_27">
    <path d="M 54.734631 108.952529 
L 55.242411 47.097362 
L 55.496301 48.121222 
L 55.750192 23.362828 
L 56.004082 62.487086 
L 56.257972 79.532365 
L 56.511862 57.224956 
L 56.765753 65.876198 
L 57.019643 56.775926 
L 57.273533 107.191063 
L 57.527423 113.189197 
L 57.781314 111.068182 
L 58.035204 112.190009 
L 58.289094 130.401659 
L 58.542984 122.45416 
L 58.796875 131.464262 
L 59.050765 135.656728 
L 59.304655 135.248376 
L 59.558546 139.950556 
L 59.812436 159.233969 
L 60.066326 165.719776 
L 60.320216 168.002192 
L 60.574107 158.388871 
L 61.081887 148.734464 
L 61.335777 151.592895 
L 61.589668 162.15878 
L 61.843558 162.045605 
L 62.097448 160.221429 
L 62.351338 161.947469 
L 62.605229 160.598954 
L 62.859119 161.14876 
L 63.113009 155.463642 
L 63.62079 173.05487 
L 63.87468 172.264 
L 64.12857 169.525658 
L 64.38246 174.060234 
L 64.636351 174.898394 
L 64.890241 177.243301 
L 65.144131 167.271266 
L 65.651912 179.052951 
L 65.905802 179.32505 
L 66.159692 175.888208 
L 66.413582 178.391207 
L 66.667473 179.129914 
L 66.921363 183.444351 
L 67.175253 182.849844 
L 67.429143 181.723579 
L 67.936924 174.582752 
L 68.190814 175.032402 
L 68.444704 177.843349 
L 68.698595 177.241634 
L 68.952485 173.33532 
L 69.206375 173.392792 
L 69.460265 169.18989 
L 69.714156 173.54006 
L 70.221936 176.72789 
L 70.475826 180.686918 
L 70.983607 178.786067 
L 71.237497 180.381981 
L 71.491387 177.084364 
L 71.745278 176.187618 
L 72.253058 182.609245 
L 72.506948 180.997217 
L 72.760839 180.187064 
L 73.014729 180.190174 
L 73.268619 178.280339 
L 73.522509 177.932311 
L 73.7764 180.129422 
L 74.28418 174.411173 
L 74.53807 172.584455 
L 74.791961 177.519507 
L 75.045851 177.796383 
L 75.299741 177.084576 
L 75.553632 176.831719 
L 75.807522 175.031776 
L 76.061412 175.699471 
L 76.569193 180.325993 
L 76.823083 180.774661 
L 77.076973 182.080388 
L 77.330863 182.636506 
L 77.584754 181.24873 
L 77.838644 182.846077 
L 78.092534 181.759179 
L 78.346424 182.128529 
L 78.600315 184.642828 
L 78.854205 181.86577 
L 79.108095 180.87322 
L 79.361985 178.416972 
L 79.615876 177.567558 
L 79.869766 179.050024 
L 80.123656 179.004151 
L 80.377546 181.440174 
L 80.631437 180.514949 
L 80.885327 182.712502 
L 81.139217 182.090377 
L 81.393107 181.832464 
L 81.646998 182.887823 
L 81.900888 183.012009 
L 82.154778 182.635336 
L 82.408668 182.47665 
L 82.916449 183.986685 
L 83.170339 181.167221 
L 83.424229 179.957739 
L 83.67812 181.04487 
L 84.1859 181.408272 
L 84.43979 180.113127 
L 84.693681 182.028147 
L 84.947571 182.026964 
L 85.201461 179.884211 
L 85.455351 182.543151 
L 85.709242 183.51992 
L 85.963132 182.437246 
L 86.217022 182.746009 
L 86.470912 181.730939 
L 86.724803 179.532753 
L 86.978693 180.547896 
L 87.232583 180.834094 
L 87.486473 182.637819 
L 87.740364 180.469775 
L 87.994254 182.074217 
L 88.248144 179.370196 
L 88.755925 177.424491 
L 89.009815 178.959813 
L 89.263705 179.690053 
L 89.517595 178.988096 
L 89.771486 179.69603 
L 90.025376 179.447986 
L 90.279266 177.893176 
L 90.787047 180.01358 
L 91.040937 177.613267 
L 91.294827 178.170325 
L 91.802608 176.458112 
L 92.056498 174.006767 
L 92.564279 174.586143 
L 92.818169 174.225041 
L 93.072059 175.532984 
L 93.83373 172.851911 
L 94.08762 173.410983 
L 94.34151 173.570005 
L 94.595401 173.312618 
L 94.849291 171.805383 
L 95.103181 171.47738 
L 95.357071 172.190525 
L 95.610962 172.310398 
L 95.864852 172.971319 
L 96.626523 170.905708 
L 96.880413 170.980301 
L 97.388193 173.134638 
L 97.642084 173.086597 
L 97.895974 173.425062 
L 98.149864 175.074777 
L 98.403754 175.274183 
L 98.911535 177.604257 
L 99.165425 177.646091 
L 99.419315 178.070626 
L 99.673206 179.515149 
L 99.927096 179.118273 
L 100.180986 179.814326 
L 100.434876 181.895752 
L 100.688767 182.05662 
L 100.942657 181.821164 
L 101.196547 182.465322 
L 101.958218 179.710573 
L 102.212108 179.707372 
L 102.719889 181.149157 
L 102.973779 180.216728 
L 103.227669 180.010928 
L 103.481559 180.114673 
L 103.73545 179.985112 
L 104.24323 177.085698 
L 104.751011 174.101095 
L 105.004901 175.45248 
L 105.512681 174.257313 
L 105.766572 174.632726 
L 106.020462 173.230148 
L 106.274352 174.496965 
L 106.782133 174.475146 
L 107.036023 174.744065 
L 107.289913 174.764047 
L 107.797694 177.193719 
L 108.051584 177.064952 
L 108.305474 175.156461 
L 108.559365 172.242174 
L 109.321035 169.923603 
L 109.574926 169.524043 
L 110.082706 169.890902 
L 110.590487 170.033822 
L 110.844377 169.391953 
L 111.098267 169.489649 
L 111.352157 170.185028 
L 111.606048 170.404819 
L 112.113828 168.524787 
L 112.367718 168.515626 
L 112.621609 169.073137 
L 112.875499 170.60971 
L 113.129389 170.600816 
L 113.383279 170.835163 
L 113.63717 170.311351 
L 113.89106 170.804431 
L 114.14495 170.59403 
L 114.39884 171.576763 
L 114.652731 170.585083 
L 114.906621 170.368122 
L 115.160511 170.65643 
L 115.414401 172.032442 
L 115.668292 171.671106 
L 115.922182 171.599418 
L 116.429962 170.932446 
L 116.683853 171.683117 
L 116.937743 171.03497 
L 117.191633 170.729755 
L 117.445523 171.768028 
L 117.699414 170.905297 
L 117.953304 170.680004 
L 118.207194 169.586479 
L 118.461084 168.995316 
L 118.714975 167.928062 
L 118.968865 167.474947 
L 119.222755 168.265291 
L 119.476645 169.66813 
L 119.730536 169.359722 
L 119.984426 169.68357 
L 120.238316 169.076224 
L 120.492206 169.031734 
L 120.746097 168.660442 
L 120.999987 170.155726 
L 121.253877 169.190375 
L 121.507767 169.889712 
L 121.761658 169.95842 
L 122.015548 170.203619 
L 122.269438 170.925176 
L 122.523328 172.135246 
L 123.031109 171.418913 
L 123.79278 173.526029 
L 124.04667 173.625274 
L 124.808341 172.851492 
L 125.062231 173.779055 
L 125.316121 173.417788 
L 125.570012 173.771925 
L 125.823902 174.533073 
L 126.077792 174.28133 
L 126.331682 174.885972 
L 126.585573 174.634603 
L 127.347243 173.011347 
L 127.601134 173.360915 
L 127.855024 172.110797 
L 128.870585 173.512233 
L 129.124475 173.011882 
L 129.378365 173.516851 
L 129.632256 173.096845 
L 129.886146 173.834795 
L 130.393926 172.841509 
L 130.647817 172.829603 
L 130.901707 172.202332 
L 131.155597 172.260651 
L 131.409487 172.044989 
L 131.917268 172.342064 
L 132.171158 171.500339 
L 132.425048 171.795802 
L 132.678939 171.350335 
L 132.932829 172.028271 
L 133.6945 171.72332 
L 134.20228 170.907845 
L 134.710061 171.540253 
L 134.963951 172.552546 
L 135.217841 172.552584 
L 135.725622 170.455447 
L 135.979512 170.666496 
L 136.233402 171.555581 
L 136.741183 171.558682 
L 136.995073 171.965403 
L 137.502853 172.027841 
L 137.756744 171.786094 
L 138.010634 172.67546 
L 138.264524 172.921424 
L 138.518414 172.392678 
L 138.772305 172.854204 
L 139.026195 173.844645 
L 139.280085 173.836209 
L 139.533975 174.113437 
L 139.787866 173.699318 
L 140.041756 173.898664 
L 140.295646 173.926096 
L 140.549536 173.035646 
L 140.803427 172.948497 
L 141.057317 172.41653 
L 141.565098 172.978673 
L 141.818988 172.043827 
L 142.072878 172.196562 
L 142.326768 171.992476 
L 142.580659 170.975242 
L 142.834549 171.156071 
L 143.85011 172.700854 
L 144.104 172.67322 
L 144.35789 172.318324 
L 144.611781 172.821849 
L 144.865671 172.717955 
L 145.119561 173.484611 
L 145.373451 173.733001 
L 145.627342 173.592155 
L 145.881232 172.650738 
L 146.389012 171.937915 
L 148.166244 174.580914 
L 148.420134 173.317449 
L 148.674025 172.982439 
L 148.927915 173.546343 
L 149.181805 173.595646 
L 149.435695 173.17427 
L 149.689586 173.356587 
L 150.197366 174.713163 
L 150.705147 175.426628 
L 150.959037 175.335649 
L 151.212927 175.832248 
L 151.466817 175.006038 
L 151.720708 175.539299 
L 151.974598 175.529512 
L 152.482378 174.829452 
L 152.736269 174.750321 
L 152.990159 174.499041 
L 153.497939 175.33923 
L 154.00572 175.096815 
L 154.25961 174.108259 
L 154.5135 173.860137 
L 154.767391 172.988085 
L 155.021281 173.441147 
L 155.275171 173.389439 
L 155.529061 173.552583 
L 155.782952 172.904523 
L 156.544622 173.515902 
L 156.798513 173.02522 
L 157.306293 173.621209 
L 157.814074 173.260571 
L 158.067964 172.911374 
L 158.575745 173.857884 
L 158.829635 173.065705 
L 159.083525 173.107646 
L 159.337415 172.921978 
L 159.845196 172.928528 
L 160.099086 172.703543 
L 160.606867 172.876103 
L 160.860757 172.643253 
L 161.114647 173.497801 
L 161.368537 173.653291 
L 161.622428 173.60699 
L 161.876318 173.76268 
L 162.130208 173.698846 
L 162.384098 173.297482 
L 162.891879 174.443137 
L 163.399659 173.7541 
L 163.65355 173.903149 
L 163.90744 173.864525 
L 164.16133 173.706263 
L 164.41522 173.812835 
L 164.669111 174.672489 
L 164.923001 174.677063 
L 165.430781 176.034772 
L 165.938562 175.882471 
L 166.446342 175.217998 
L 167.208013 175.436366 
L 167.715794 174.940775 
L 167.969684 175.02932 
L 168.223574 174.907953 
L 168.477464 174.980716 
L 168.731355 174.72344 
L 168.985245 174.300531 
L 169.239135 174.812836 
L 169.493025 174.49594 
L 169.746916 173.932829 
L 170.000806 174.299537 
L 170.254696 173.818262 
L 171.016367 174.630979 
L 171.270257 175.092104 
L 171.524147 174.583945 
L 172.031928 174.726951 
L 172.539708 174.287351 
L 173.047489 173.401032 
L 173.301379 173.564603 
L 173.80916 173.409724 
L 174.06305 173.754138 
L 174.31694 174.31963 
L 174.824721 174.548041 
L 175.078611 174.258311 
L 175.332501 173.502081 
L 175.586392 173.33971 
L 175.840282 172.871653 
L 176.094172 172.795619 
L 176.348062 172.343622 
L 176.855843 173.295365 
L 177.109733 173.435955 
L 177.363623 173.817382 
L 177.617514 173.404726 
L 177.871404 173.232441 
L 178.379184 172.420013 
L 178.633075 172.729106 
L 178.886965 172.684368 
L 179.394745 171.845813 
L 179.648636 171.923252 
L 180.156416 172.540181 
L 180.664197 172.218997 
L 181.171977 173.069074 
L 181.679758 173.54795 
L 182.187538 173.596756 
L 182.695319 173.013658 
L 182.949209 172.495379 
L 183.203099 172.567619 
L 183.456989 173.25114 
L 183.71088 173.576627 
L 183.96477 173.386259 
L 184.21866 173.854854 
L 184.47255 173.639562 
L 184.726441 173.633053 
L 185.234221 173.249827 
L 185.488111 173.379994 
L 185.742002 172.962112 
L 186.249782 172.893421 
L 186.503672 172.642239 
L 186.757563 172.655919 
L 187.011453 172.397435 
L 187.265343 172.420662 
L 187.773124 173.308385 
L 188.027014 173.016139 
L 188.280904 173.083767 
L 188.534794 173.308635 
L 188.788685 172.33192 
L 189.042575 171.923626 
L 190.058136 173.923399 
L 190.312026 174.070094 
L 190.565917 174.584944 
L 190.819807 174.688949 
L 191.073697 174.003654 
L 191.327587 173.930582 
L 191.581478 173.454754 
L 192.089258 173.476358 
L 192.343148 173.241317 
L 192.597039 173.296405 
L 193.104819 174.098855 
L 193.6126 174.729429 
L 193.86649 174.745123 
L 194.12038 175.039765 
L 194.628161 174.964504 
L 194.882051 175.104675 
L 195.135941 175.074726 
L 195.643722 176.364312 
L 195.897612 176.565093 
L 196.151502 176.09638 
L 196.659283 175.981544 
L 197.167063 176.516396 
L 197.420953 176.149005 
L 197.674844 176.278152 
L 197.928734 175.905105 
L 198.182624 176.126756 
L 198.436514 176.163631 
L 198.690405 176.361999 
L 199.198185 175.711232 
L 199.452075 175.676158 
L 199.705966 175.480032 
L 199.959856 175.60747 
L 200.213746 175.457425 
L 200.467636 175.160281 
L 200.721527 175.27092 
L 200.975417 175.601323 
L 201.229307 175.356068 
L 201.737088 174.40152 
L 201.990978 174.943432 
L 202.244868 174.769707 
L 202.498758 174.877651 
L 203.006539 174.856911 
L 203.260429 175.054987 
L 203.514319 174.808047 
L 203.76821 174.785128 
L 204.0221 174.509149 
L 204.52988 175.641539 
L 205.037661 175.781073 
L 205.291551 175.630936 
L 205.799332 175.682933 
L 206.307112 174.824492 
L 206.561003 174.735264 
L 206.814893 174.382662 
L 207.576564 174.490906 
L 207.830454 174.001865 
L 208.592125 173.624175 
L 208.846015 173.852977 
L 209.099905 173.319738 
L 209.353795 173.629453 
L 209.607686 173.481534 
L 209.861576 173.824867 
L 210.369356 172.861788 
L 210.623247 172.732581 
L 210.877137 172.906077 
L 211.131027 172.653272 
L 211.384917 173.042521 
L 211.638808 173.038972 
L 212.146588 172.680813 
L 212.400478 172.048067 
L 212.654369 172.483011 
L 212.908259 172.321855 
L 213.162149 172.307899 
L 213.416039 171.464249 
L 213.66993 171.21282 
L 213.92382 171.194292 
L 214.17771 171.387333 
L 215.193271 171.320231 
L 215.447161 171.439934 
L 215.954942 170.890832 
L 216.208832 171.029114 
L 216.716613 170.439139 
L 216.970503 170.313177 
L 217.224393 169.7186 
L 217.478283 169.447874 
L 217.732174 169.860631 
L 217.986064 169.764525 
L 218.239954 169.900518 
L 218.493844 169.608121 
L 218.747735 169.78912 
L 219.001625 169.514314 
L 219.763296 170.120089 
L 220.017186 169.983572 
L 220.271076 170.116394 
L 220.524966 169.923013 
L 220.778857 169.944329 
L 221.032747 169.784451 
L 221.286637 169.929341 
L 221.794418 169.67364 
L 222.048308 170.263636 
L 222.556089 169.17142 
L 222.809979 169.303973 
L 223.063869 169.686709 
L 223.57165 169.823474 
L 223.82554 169.867188 
L 224.07943 169.775346 
L 224.33332 169.322926 
L 224.587211 169.16013 
L 224.841101 169.376808 
L 225.348881 169.13476 
L 225.602772 168.821974 
L 225.856662 169.012091 
L 226.364442 169.005476 
L 226.618333 168.800125 
L 226.872223 168.418517 
L 227.126113 168.901206 
L 227.633894 168.624616 
L 227.887784 168.9623 
L 228.141674 168.491111 
L 228.649455 168.221566 
L 229.157235 168.904478 
L 229.411125 169.216942 
L 230.172796 168.623177 
L 230.426686 168.392191 
L 230.680577 168.511944 
L 230.934467 168.868174 
L 231.442247 168.737211 
L 231.696138 168.539397 
L 231.950028 168.743074 
L 232.457808 168.630394 
L 232.711699 168.742296 
L 233.473369 168.289364 
L 233.72726 168.701076 
L 233.98115 168.731107 
L 234.23504 168.928896 
L 234.48893 168.683911 
L 234.742821 168.688391 
L 234.996711 168.980986 
L 235.250601 169.099618 
L 235.504491 169.404906 
L 235.758382 168.729536 
L 236.012272 168.628018 
L 236.266162 168.758295 
L 236.773943 168.60524 
L 237.281723 168.885549 
L 237.535613 168.765253 
L 237.789504 168.355905 
L 238.043394 168.207316 
L 238.297284 167.797818 
L 238.551174 167.912426 
L 238.805065 167.832228 
L 239.058955 168.262595 
L 239.312845 168.170391 
L 239.566736 168.396033 
L 239.820626 168.283949 
L 240.074516 168.46113 
L 240.328406 168.475582 
L 240.582297 168.729778 
L 240.836187 168.446218 
L 241.597858 168.955444 
L 241.851748 169.343321 
L 242.105638 169.197517 
L 242.359528 169.253677 
L 243.62898 168.784492 
L 243.88287 169.012906 
L 244.13676 168.938996 
L 244.39065 169.261081 
L 244.644541 168.51366 
L 244.898431 168.382497 
L 245.660102 168.496999 
L 246.167882 168.189575 
L 246.675663 168.700533 
L 246.929553 168.759674 
L 247.437333 168.343074 
L 247.691224 168.518037 
L 247.945114 168.38512 
L 248.199004 168.015106 
L 248.452894 167.848751 
L 249.214565 168.224101 
L 249.468455 168.502766 
L 249.722346 168.524443 
L 249.976236 168.373071 
L 250.230126 168.457041 
L 250.991797 168.028939 
L 251.499577 168.366095 
L 251.753468 167.966711 
L 252.007358 168.01455 
L 252.261248 167.759384 
L 252.769029 167.691964 
L 253.022919 167.70785 
L 253.530699 167.490785 
L 254.29237 168.055964 
L 254.54626 167.994846 
L 254.800151 168.333586 
L 255.054041 168.315514 
L 255.561822 168.423574 
L 256.069602 168.092394 
L 256.577383 167.797442 
L 256.831273 167.85178 
L 257.085163 168.197099 
L 257.339053 167.956359 
L 257.592944 167.50088 
L 257.846834 167.303722 
L 258.354614 167.609421 
L 258.608505 167.786784 
L 258.862395 168.228227 
L 259.116285 168.326712 
L 259.624066 168.061264 
L 259.877956 168.103063 
L 260.131846 167.763242 
L 260.385736 167.774652 
L 260.639627 167.941853 
L 261.147407 167.603826 
L 261.401297 167.705508 
L 261.655188 167.566599 
L 261.909078 167.289594 
L 262.162968 167.251945 
L 262.416858 167.589337 
L 262.670749 167.557146 
L 262.924639 167.739438 
L 263.178529 167.592287 
L 263.432419 167.832902 
L 263.68631 167.767629 
L 263.9402 167.507435 
L 264.44798 167.429314 
L 264.701871 167.336937 
L 265.209651 166.714385 
L 265.463541 166.734226 
L 265.717432 167.038906 
L 265.971322 166.85883 
L 266.479102 167.200217 
L 266.986883 167.409875 
L 267.240773 167.194352 
L 267.748554 167.457295 
L 268.002444 166.969179 
L 268.256334 166.883362 
L 268.510224 167.140888 
L 268.764115 166.79122 
L 269.018005 166.988746 
L 269.779676 166.578306 
L 270.033566 166.982918 
L 270.287456 167.057458 
L 270.541346 166.558185 
L 270.795237 166.665207 
L 271.303017 166.475772 
L 271.556908 166.74651 
L 271.810798 166.776319 
L 272.572469 166.607848 
L 273.84192 166.677284 
L 274.09581 166.481875 
L 274.3497 166.490818 
L 274.857481 166.939657 
L 275.111371 167.460577 
L 276.126932 167.210233 
L 276.634713 167.30526 
L 276.888603 167.300802 
L 277.396383 167.004172 
L 277.904164 167.234615 
L 278.665835 167.009969 
L 279.173615 167.3672 
L 279.427505 167.098881 
L 279.681396 167.339955 
L 279.935286 167.206549 
L 280.950847 167.922128 
L 281.458627 167.889796 
L 281.712518 167.780973 
L 282.220298 167.335275 
L 282.474188 167.234257 
L 282.981969 166.680212 
L 283.235859 166.756529 
L 284.25142 166.240117 
L 284.759201 166.500752 
L 285.266981 166.092572 
L 285.774762 165.945115 
L 286.536432 166.419453 
L 286.790323 165.993476 
L 287.044213 165.983435 
L 287.298103 165.813557 
L 288.059774 165.817539 
L 288.567555 166.380537 
L 288.821445 166.203338 
L 289.329225 166.367065 
L 289.583116 166.21771 
L 290.344786 166.285752 
L 290.852567 166.71926 
L 291.360347 166.825402 
L 291.868128 167.141922 
L 292.375908 167.067904 
L 292.629799 167.216258 
L 292.883689 167.609191 
L 293.137579 167.717055 
L 293.391469 167.698667 
L 293.89925 167.50871 
L 294.40703 167.632853 
L 294.660921 167.739889 
L 294.914811 167.570368 
L 295.168701 167.162714 
L 295.422591 167.145726 
L 295.676482 167.289257 
L 295.930372 167.203798 
L 296.184262 167.238131 
L 296.438152 167.124628 
L 296.945933 167.061787 
L 297.199823 167.341259 
L 297.453713 166.933122 
L 297.707604 166.814778 
L 297.961494 166.854551 
L 298.723165 167.750513 
L 298.977055 167.571237 
L 299.230945 167.861819 
L 299.992616 167.540235 
L 300.500396 167.161132 
L 300.754287 167.182983 
L 301.008177 167.40108 
L 301.769848 167.136839 
L 302.023738 166.882674 
L 302.277628 166.46687 
L 302.531518 166.437602 
L 302.785409 166.676354 
L 303.547079 166.920718 
L 303.80097 167.029313 
L 304.562641 166.949196 
L 304.816531 166.626273 
L 305.070421 166.666983 
L 305.578202 166.32112 
L 306.085982 166.230141 
L 306.339872 166.174282 
L 306.593763 166.311615 
L 307.101543 166.088087 
L 307.355433 165.579668 
L 307.609324 165.951024 
L 307.863214 166.022481 
L 308.117104 165.951801 
L 308.370994 165.736615 
L 308.370994 165.736615 
" clip-path="url(#p485cbf5ef2)" style="fill: none; stroke: #0f4d92; stroke-opacity: 0.9; stroke-width: 0.8; stroke-linecap: square"/>
   </g>
   <g id="line2d_28">
    <path d="M 42.052813 165.736615 
L 321.052813 165.736615 
" clip-path="url(#p485cbf5ef2)" style="fill: none; stroke-dasharray: 2.22,0.96; stroke-dashoffset: 0; stroke: #767676; stroke-width: 0.6"/>
   </g>
   <g id="patch_3">
    <path d="M 42.052813 192.706828 
L 42.052813 15.298828 
" style="fill: none; stroke: #000000; stroke-width: 0.8; stroke-linejoin: miter; stroke-linecap: square"/>
   </g>
   <g id="patch_4">
    <path d="M 42.052813 192.706828 
L 321.052813 192.706828 
" style="fill: none; stroke: #000000; stroke-width: 0.8; stroke-linejoin: miter; stroke-linecap: square"/>
   </g>
   <g id="text_16">
    <text style="font-weight: 700; font-size: 7.5px; font-family: 'DejaVu Sans', 'Arial', 'Helvetica', sans-serif; text-anchor: middle" x="181.552813" y="9.298828" transform="rotate(-0 181.552813 9.298828)">Monte Carlo Convergence</text>
   </g>
   <g id="legend_1">
    <g id="line2d_29">
     <path d="M 262.008125 23.157891 
L 268.008125 23.157891 
L 274.008125 23.157891 
" style="fill: none; stroke-dasharray: 2.22,0.96; stroke-dashoffset: 0; stroke: #767676; stroke-width: 0.6"/>
    </g>
    <g id="text_17">
     <text style="font-size: 6px; font-family: 'DejaVu Sans', 'Arial', 'Helvetica', sans-serif; text-anchor: start" x="278.808125" y="25.257891" transform="rotate(-0 278.808125 25.257891)">Final: 67760</text>
    </g>
   </g>
  </g>
 </g>
 <defs>
  <clipPath id="p485cbf5ef2">
   <rect x="42.052813" y="15.298828" width="279" height="177.408"/>
  </clipPath>
 </defs>
</svg>
