<?xml version="1.0" encoding="utf-8" standalone="no"?>
<!DOCTYPE svg PUBLIC "-//W3C//DTD SVG 1.1//EN"
  "http://www.w3.org/Graphics/SVG/1.1/DTD/svg11.dtd">
<svg xmlns:xlink="http://www.w3.org/1999/xlink" width="321.842109pt" height="219.413937pt" viewBox="0 0 321.842109 219.413937" xmlns="http://www.w3.org/2000/svg" version="1.1">
 <metadata>
  <rdf:RDF xmlns:dc="http://purl.org/dc/elements/1.1/" xmlns:cc="http://creativecommons.org/ns#" xmlns:rdf="http://www.w3.org/1999/02/22-rdf-syntax-ns#">
   <cc:Work>
    <dc:type rdf:resource="http://purl.org/dc/dcmitype/StillImage"/>
    <dc:date>2026-05-21T18:59:46.337571</dc:date>
    <dc:format>image/svg+xml</dc:format>
    <dc:creator>
     <cc:Agent>
      <dc:title>Matplotlib v3.10.0, https://matplotlib.org/</dc:title>
     </cc:Agent>
    </dc:creator>
   </cc:Work>
  </rdf:RDF>
 </metadata>
 <defs>
  <style type="text/css">*{stroke-linejoin: round; stroke-linecap: butt}</style>
 </defs>
 <g id="figure_1">
  <g id="patch_1">
   <path d="M 0 219.413937 
L 321.842109 219.413937 
L 321.842109 0 
L 0 0 
z
" style="fill: #ffffff"/>
  </g>
  <g id="axes_1">
   <g id="patch_2">
    <path d="M 39.242109 192.467766 
L 318.242109 192.467766 
L 318.242109 15.059766 
L 39.242109 15.059766 
z
" style="fill: #ffffff"/>
   </g>
   <g id="matplotlib.axis_1">
    <g id="xtick_1">
     <g id="line2d_1">
      <path d="M 51.923928 192.467766 
L 51.923928 15.059766 
" clip-path="url(#p994d78a8dd)" style="fill: none; stroke-dasharray: 1.11,0.48; stroke-dashoffset: 0; stroke: #b0b0b0; stroke-opacity: 0.3; stroke-width: 0.3"/>
     </g>
     <g id="line2d_2">
      <defs>
       <path id="mea16af8335" d="M 0 0 
L 0 3.5 
" style="stroke: #000000; stroke-width: 0.8"/>
      </defs>
      <g>
       <use xlink:href="#mea16af8335" x="51.923928" y="192.467766" style="stroke: #000000; stroke-width: 0.8"/>
      </g>
     </g>
     <g id="text_1">
      <text style="font-size: 6.5px; font-family: 'Arial', 'Helvetica', 'DejaVu Sans', sans-serif; text-anchor: middle" x="51.923928" y="204.120344" transform="rotate(-0 51.923928 204.120344)">0</text>
     </g>
    </g>
    <g id="xtick_2">
     <g id="line2d_3">
      <path d="M 102.701978 192.467766 
L 102.701978 15.059766 
" clip-path="url(#p994d78a8dd)" style="fill: none; stroke-dasharray: 1.11,0.48; stroke-dashoffset: 0; stroke: #b0b0b0; stroke-opacity: 0.3; stroke-width: 0.3"/>
     </g>
     <g id="line2d_4">
      <g>
       <use xlink:href="#mea16af8335" x="102.701978" y="192.467766" style="stroke: #000000; stroke-width: 0.8"/>
      </g>
     </g>
     <g id="text_2">
      <text style="font-size: 6.5px; font-family: 'Arial', 'Helvetica', 'DejaVu Sans', sans-serif; text-anchor: middle" x="102.701978" y="204.120344" transform="rotate(-0 102.701978 204.120344)">200</text>
     </g>
    </g>
    <g id="xtick_3">
     <g id="line2d_5">
      <path d="M 153.480029 192.467766 
L 153.480029 15.059766 
" clip-path="url(#p994d78a8dd)" style="fill: none; stroke-dasharray: 1.11,0.48; stroke-dashoffset: 0; stroke: #b0b0b0; stroke-opacity: 0.3; stroke-width: 0.3"/>
     </g>
     <g id="line2d_6">
      <g>
       <use xlink:href="#mea16af8335" x="153.480029" y="192.467766" style="stroke: #000000; stroke-width: 0.8"/>
      </g>
     </g>
     <g id="text_3">
      <text style="font-size: 6.5px; font-family: 'Arial', 'Helvetica', 'DejaVu Sans', sans-serif; text-anchor: middle" x="153.480029" y="204.120344" transform="rotate(-0 153.480029 204.120344)">400</text>
     </g>
    </g>
    <g id="xtick_4">
     <g id="line2d_7">
      <path d="M 204.25808 192.467766 
L 204.25808 15.059766 
" clip-path="url(#p994d78a8dd)" style="fill: none; stroke-dasharray: 1.11,0.48; stroke-dashoffset: 0; stroke: #b0b0b0; stroke-opacity: 0.3; stroke-width: 0.3"/>
     </g>
     <g id="line2d_8">
      <g>
       <use xlink:href="#mea16af8335" x="204.25808" y="192.467766" style="stroke: #000000; stroke-width: 0.8"/>
      </g>
     </g>
     <g id="text_4">
      <text style="font-size: 6.5px; font-family: 'Arial', 'Helvetica', 'DejaVu Sans', sans-serif; text-anchor: middle" x="204.25808" y="204.120344" transform="rotate(-0 204.25808 204.120344)">600</text>
     </g>
    </g>
    <g id="xtick_5">
     <g id="line2d_9">
      <path d="M 255.036131 192.467766 
L 255.036131 15.059766 
" clip-path="url(#p994d78a8dd)" style="fill: none; stroke-dasharray: 1.11,0.48; stroke-dashoffset: 0; stroke: #b0b0b0; stroke-opacity: 0.3; stroke-width: 0.3"/>
     </g>
     <g id="line2d_10">
      <g>
       <use xlink:href="#mea16af8335" x="255.036131" y="192.467766" style="stroke: #000000; stroke-width: 0.8"/>
      </g>
     </g>
     <g id="text_5">
      <text style="font-size: 6.5px; font-family: 'Arial', 'Helvetica', 'DejaVu Sans', sans-serif; text-anchor: middle" x="255.036131" y="204.120344" transform="rotate(-0 255.036131 204.120344)">800</text>
     </g>
    </g>
    <g id="xtick_6">
     <g id="line2d_11">
      <path d="M 305.814181 192.467766 
L 305.814181 15.059766 
" clip-path="url(#p994d78a8dd)" style="fill: none; stroke-dasharray: 1.11,0.48; stroke-dashoffset: 0; stroke: #b0b0b0; stroke-opacity: 0.3; stroke-width: 0.3"/>
     </g>
     <g id="line2d_12">
      <g>
       <use xlink:href="#mea16af8335" x="305.814181" y="192.467766" style="stroke: #000000; stroke-width: 0.8"/>
      </g>
     </g>
     <g id="text_6">
      <text style="font-size: 6.5px; font-family: 'Arial', 'Helvetica', 'DejaVu Sans', sans-serif; text-anchor: middle" x="305.814181" y="204.120344" transform="rotate(-0 305.814181 204.120344)">1000</text>
     </g>
    </g>
    <g id="text_7">
     <text style="font-size: 7px; font-family: 'Arial', 'Helvetica', 'DejaVu Sans', sans-serif; text-anchor: middle" x="178.742109" y="214.422687" transform="rotate(-0 178.742109 214.422687)">Simulation Count</text>
    </g>
   </g>
   <g id="matplotlib.axis_2">
    <g id="ytick_1">
     <g id="line2d_13">
      <path d="M 39.242109 184.078804 
L 318.242109 184.078804 
" clip-path="url(#p994d78a8dd)" style="fill: none; stroke-dasharray: 1.11,0.48; stroke-dashoffset: 0; stroke: #b0b0b0; stroke-opacity: 0.3; stroke-width: 0.3"/>
     </g>
     <g id="line2d_14">
      <defs>
       <path id="ma3b1aeb978" d="M 0 0 
L -3.5 0 
" style="stroke: #000000; stroke-width: 0.8"/>
      </defs>
      <g>
       <use xlink:href="#ma3b1aeb978" x="39.242109" y="184.078804" style="stroke: #000000; stroke-width: 0.8"/>
      </g>
     </g>
     <g id="text_8">
      <text style="font-size: 6.5px; font-family: 'Arial', 'Helvetica', 'DejaVu Sans', sans-serif; text-anchor: end" x="32.242109" y="186.405093" transform="rotate(-0 32.242109 186.405093)">22250</text>
     </g>
    </g>
    <g id="ytick_2">
     <g id="line2d_15">
      <path d="M 39.242109 161.572139 
L 318.242109 161.572139 
" clip-path="url(#p994d78a8dd)" style="fill: none; stroke-dasharray: 1.11,0.48; stroke-dashoffset: 0; stroke: #b0b0b0; stroke-opacity: 0.3; stroke-width: 0.3"/>
     </g>
     <g id="line2d_16">
      <g>
       <use xlink:href="#ma3b1aeb978" x="39.242109" y="161.572139" style="stroke: #000000; stroke-width: 0.8"/>
      </g>
     </g>
     <g id="text_9">
      <text style="font-size: 6.5px; font-family: 'Arial', 'Helvetica', 'DejaVu Sans', sans-serif; text-anchor: end" x="32.242109" y="163.898428" transform="rotate(-0 32.242109 163.898428)">22500</text>
     </g>
    </g>
    <g id="ytick_3">
     <g id="line2d_17">
      <path d="M 39.242109 139.065474 
L 318.242109 139.065474 
" clip-path="url(#p994d78a8dd)" style="fill: none; stroke-dasharray: 1.11,0.48; stroke-dashoffset: 0; stroke: #b0b0b0; stroke-opacity: 0.3; stroke-width: 0.3"/>
     </g>
     <g id="line2d_18">
      <g>
       <use xlink:href="#ma3b1aeb978" x="39.242109" y="139.065474" style="stroke: #000000; stroke-width: 0.8"/>
      </g>
     </g>
     <g id="text_10">
      <text style="font-size: 6.5px; font-family: 'Arial', 'Helvetica', 'DejaVu Sans', sans-serif; text-anchor: end" x="32.242109" y="141.391763" transform="rotate(-0 32.242109 141.391763)">22750</text>
     </g>
    </g>
    <g id="ytick_4">
     <g id="line2d_19">
      <path d="M 39.242109 116.558809 
L 318.242109 116.558809 
" clip-path="url(#p994d78a8dd)" style="fill: none; stroke-dasharray: 1.11,0.48; stroke-dashoffset: 0; stroke: #b0b0b0; stroke-opacity: 0.3; stroke-width: 0.3"/>
     </g>
     <g id="line2d_20">
      <g>
       <use xlink:href="#ma3b1aeb978" x="39.242109" y="116.558809" style="stroke: #000000; stroke-width: 0.8"/>
      </g>
     </g>
     <g id="text_11">
      <text style="font-size: 6.5px; font-family: 'Arial', 'Helvetica', 'DejaVu Sans', sans-serif; text-anchor: end" x="32.242109" y="118.885098" transform="rotate(-0 32.242109 118.885098)">23000</text>
     </g>
    </g>
    <g id="ytick_5">
     <g id="line2d_21">
      <path d="M 39.242109 94.052144 
L 318.242109 94.052144 
" clip-path="url(#p994d78a8dd)" style="fill: none; stroke-dasharray: 1.11,0.48; stroke-dashoffset: 0; stroke: #b0b0b0; stroke-opacity: 0.3; stroke-width: 0.3"/>
     </g>
     <g id="line2d_22">
      <g>
       <use xlink:href="#ma3b1aeb978" x="39.242109" y="94.052144" style="stroke: #000000; stroke-width: 0.8"/>
      </g>
     </g>
     <g id="text_12">
      <text style="font-size: 6.5px; font-family: 'Arial', 'Helvetica', 'DejaVu Sans', sans-serif; text-anchor: end" x="32.242109" y="96.378433" transform="rotate(-0 32.242109 96.378433)">23250</text>
     </g>
    </g>
    <g id="ytick_6">
     <g id="line2d_23">
      <path d="M 39.242109 71.545479 
L 318.242109 71.545479 
" clip-path="url(#p994d78a8dd)" style="fill: none; stroke-dasharray: 1.11,0.48; stroke-dashoffset: 0; stroke: #b0b0b0; stroke-opacity: 0.3; stroke-width: 0.3"/>
     </g>
     <g id="line2d_24">
      <g>
       <use xlink:href="#ma3b1aeb978" x="39.242109" y="71.545479" style="stroke: #000000; stroke-width: 0.8"/>
      </g>
     </g>
     <g id="text_13">
      <text style="font-size: 6.5px; font-family: 'Arial', 'Helvetica', 'DejaVu Sans', sans-serif; text-anchor: end" x="32.242109" y="73.871768" transform="rotate(-0 32.242109 73.871768)">23500</text>
     </g>
    </g>
    <g id="ytick_7">
     <g id="line2d_25">
      <path d="M 39.242109 49.038814 
L 318.242109 49.038814 
" clip-path="url(#p994d78a8dd)" style="fill: none; stroke-dasharray: 1.11,0.48; stroke-dashoffset: 0; stroke: #b0b0b0; stroke-opacity: 0.3; stroke-width: 0.3"/>
     </g>
     <g id="line2d_26">
      <g>
       <use xlink:href="#ma3b1aeb978" x="39.242109" y="49.038814" style="stroke: #000000; stroke-width: 0.8"/>
      </g>
     </g>
     <g id="text_14">
      <text style="font-size: 6.5px; font-family: 'Arial', 'Helvetica', 'DejaVu Sans', sans-serif; text-anchor: end" x="32.242109" y="51.365103" transform="rotate(-0 32.242109 51.365103)">23750</text>
     </g>
    </g>
    <g id="ytick_8">
     <g id="line2d_27">
      <path d="M 39.242109 26.532149 
L 318.242109 26.532149 
" clip-path="url(#p994d78a8dd)" style="fill: none; stroke-dasharray: 1.11,0.48; stroke-dashoffset: 0; stroke: #b0b0b0; stroke-opacity: 0.3; stroke-width: 0.3"/>
     </g>
     <g id="line2d_28">
      <g>
       <use xlink:href="#ma3b1aeb978" x="39.242109" y="26.532149" style="stroke: #000000; stroke-width: 0.8"/>
      </g>
     </g>
     <g id="text_15">
      <text style="font-size: 6.5px; font-family: 'Arial', 'Helvetica', 'DejaVu Sans', sans-serif; text-anchor: end" x="32.242109" y="28.858438" transform="rotate(-0 32.242109 28.858438)">24000</text>
     </g>
    </g>
    <g id="text_16">
     <text style="font-size: 7px; font-family: 'Arial', 'Helvetica', 'DejaVu Sans', sans-serif; text-anchor: middle" x="8.695781" y="103.763766" transform="rotate(-90 8.695781 103.763766)">Cumulative Mean Revenue (CNY)</text>
    </g>
   </g>
   <g id="line2d_29">
    <path d="M 51.923928 23.123766 
L 52.177818 47.190679 
L 52.431708 27.725034 
L 52.685598 96.911953 
L 53.447269 139.985773 
L 53.701159 170.727705 
L 53.95505 155.263096 
L 54.20894 156.205715 
L 54.46283 149.065002 
L 54.970611 146.233911 
L 55.224501 140.182243 
L 55.478391 159.682164 
L 55.732281 158.933292 
L 55.986172 155.414245 
L 56.240062 153.791508 
L 56.493952 157.191545 
L 56.747842 153.150551 
L 57.001733 169.668051 
L 57.255623 166.43463 
L 58.017294 183.452133 
L 58.271184 165.903041 
L 58.525074 162.765436 
L 59.032855 175.566473 
L 59.286745 172.535112 
L 59.540635 171.266419 
L 59.794525 164.319486 
L 60.048416 165.314215 
L 60.810086 171.707086 
L 61.063977 177.836321 
L 61.317867 177.550993 
L 61.571757 172.049774 
L 61.825647 174.188385 
L 62.079538 169.590239 
L 62.333428 173.098802 
L 62.587318 174.575363 
L 63.095099 179.364546 
L 63.348989 176.45294 
L 63.602879 178.959414 
L 63.856769 180.045961 
L 64.11066 181.945026 
L 64.61844 179.897244 
L 65.126221 183.569839 
L 65.380111 174.678344 
L 65.887892 167.882929 
L 66.141782 171.559869 
L 66.395672 172.938106 
L 66.649562 167.556244 
L 66.903453 166.944838 
L 67.157343 169.723961 
L 67.411233 174.570594 
L 68.172904 179.754592 
L 68.680684 178.969524 
L 68.934575 183.410398 
L 69.188465 183.583385 
L 69.442355 182.407167 
L 69.696245 182.061955 
L 69.950136 182.656237 
L 70.457916 184.403766 
L 70.711806 179.980335 
L 70.965697 179.953245 
L 71.219587 181.775126 
L 71.473477 181.748084 
L 71.727367 181.964685 
L 71.981258 181.111621 
L 72.235148 181.302118 
L 72.742928 175.014225 
L 72.996819 176.542216 
L 73.504599 171.332733 
L 73.758489 169.573403 
L 74.01238 165.302911 
L 74.26627 162.957011 
L 74.77405 162.630728 
L 75.027941 162.046838 
L 75.281831 162.174998 
L 75.535721 162.002125 
L 75.789611 163.111823 
L 76.043502 164.79957 
L 76.297392 164.999399 
L 76.551282 166.35424 
L 76.805172 166.290778 
L 77.312953 164.783371 
L 77.566843 166.124041 
L 77.820733 164.369476 
L 78.328514 167.151551 
L 78.582404 167.781896 
L 79.090185 163.944825 
L 79.344075 162.458721 
L 79.597965 163.606989 
L 79.851855 162.274554 
L 80.105746 160.208545 
L 80.359636 159.920903 
L 80.613526 160.188591 
L 80.867417 160.68774 
L 81.121307 160.652312 
L 81.375197 159.277153 
L 81.629087 155.455324 
L 81.882978 156.088962 
L 82.136868 156.007377 
L 82.390758 157.005345 
L 82.644648 156.938875 
L 82.898539 159.492035 
L 83.152429 159.445375 
L 83.406319 158.71813 
L 83.660209 158.379602 
L 83.9141 156.84178 
L 84.16799 157.727829 
L 84.42188 159.786868 
L 84.67577 160.500636 
L 84.929661 162.119972 
L 85.183551 162.188033 
L 85.945222 165.016881 
L 86.706892 157.588607 
L 87.214673 160.503311 
L 87.468563 161.479664 
L 87.722453 161.960191 
L 87.976344 163.08259 
L 88.230234 162.453598 
L 88.484124 163.078848 
L 88.738014 163.367851 
L 89.245795 163.224631 
L 89.499685 162.558635 
L 89.753575 161.548731 
L 90.261356 164.747319 
L 90.515246 165.424142 
L 90.769136 165.749238 
L 91.023027 164.232919 
L 91.276917 165.289516 
L 91.530807 163.863742 
L 91.784697 163.338342 
L 92.292478 164.851208 
L 92.546368 164.891876 
L 92.800258 163.859162 
L 93.054149 163.699482 
L 93.308039 163.962108 
L 93.561929 164.732549 
L 93.815819 164.565184 
L 95.593051 158.65681 
L 95.846941 158.990555 
L 96.100832 157.591507 
L 96.354722 157.63418 
L 96.608612 158.246438 
L 96.862502 159.460272 
L 97.370283 160.251827 
L 97.624173 159.645772 
L 97.878064 160.929663 
L 98.131954 161.639855 
L 98.385844 163.270732 
L 98.639734 163.749801 
L 98.893625 163.768527 
L 99.147515 164.562617 
L 99.401405 163.765913 
L 99.909186 165.370886 
L 100.416966 165.909774 
L 100.670856 166.849375 
L 101.178637 165.470175 
L 101.432527 165.411148 
L 101.686417 166.222605 
L 102.194198 166.328528 
L 102.448088 164.886038 
L 102.701978 165.205322 
L 103.209759 164.374416 
L 103.717539 167.006454 
L 103.97143 167.947943 
L 104.22532 167.180676 
L 104.7331 167.682429 
L 105.240881 169.084603 
L 105.494771 169.684451 
L 106.002552 168.886516 
L 106.256442 169.205272 
L 106.510332 169.318826 
L 107.018113 168.591105 
L 107.272003 168.91596 
L 107.525893 168.183307 
L 107.779783 169.499687 
L 108.541454 170.157377 
L 108.795344 169.793811 
L 109.049235 170.644895 
L 109.557015 167.422404 
L 109.810905 166.476465 
L 110.064796 166.542296 
L 110.318686 167.32552 
L 111.080357 168.450364 
L 111.334247 167.646529 
L 111.588137 167.648544 
L 112.095918 167.195247 
L 112.603698 165.833088 
L 112.857588 165.136834 
L 113.365369 164.723516 
L 113.87315 163.221865 
L 114.12704 163.759298 
L 114.38093 162.783439 
L 114.63482 163.255112 
L 114.888711 164.248367 
L 115.142601 164.699113 
L 115.396491 165.492605 
L 115.650381 164.592088 
L 115.904272 164.333855 
L 116.412052 164.733274 
L 116.665942 165.12035 
L 116.919833 165.06128 
L 117.173723 165.448054 
L 117.681503 167.212119 
L 117.935394 166.948449 
L 118.443174 168.56739 
L 118.697064 168.210556 
L 118.950955 168.181879 
L 119.204845 169.05532 
L 119.458735 167.481161 
L 119.712625 167.071229 
L 119.966516 167.39986 
L 120.220406 168.137277 
L 120.474296 167.797127 
L 120.728186 167.92707 
L 120.982077 168.496636 
L 121.235967 167.65418 
L 121.489857 167.342115 
L 122.251528 167.157363 
L 122.505418 166.66544 
L 123.013199 167.898511 
L 123.267089 167.519252 
L 123.520979 167.494559 
L 123.774869 167.174869 
L 124.02876 167.507048 
L 124.28265 168.59448 
L 124.53654 168.479673 
L 124.79043 168.733959 
L 125.044321 168.731957 
L 125.552101 169.034442 
L 125.805991 168.173349 
L 126.059882 168.849575 
L 126.567662 169.251446 
L 126.821552 168.872615 
L 127.329333 170.304502 
L 127.583223 170.237543 
L 127.837113 168.586932 
L 128.091004 167.671666 
L 128.344894 167.816353 
L 128.598784 167.340554 
L 128.852674 167.106319 
L 129.106565 166.622159 
L 129.360455 166.753523 
L 129.614345 166.121635 
L 130.122126 166.508045 
L 130.629906 166.154747 
L 131.137687 167.563159 
L 131.391577 168.163062 
L 131.645467 167.912745 
L 131.899358 167.995675 
L 132.153248 167.715794 
L 132.407138 167.762621 
L 132.661028 167.925046 
L 132.914919 167.751261 
L 133.168809 167.305088 
L 133.422699 167.751295 
L 133.676589 167.845777 
L 133.93048 167.687878 
L 134.69215 169.433638 
L 134.946041 169.914224 
L 135.199931 169.535564 
L 135.453821 169.989219 
L 135.707711 169.35836 
L 135.961602 169.047265 
L 136.215492 169.295294 
L 136.469382 168.538035 
L 136.723272 168.46781 
L 136.977163 168.939841 
L 137.231053 168.822728 
L 137.484943 168.859827 
L 137.992724 168.004349 
L 138.246614 168.272264 
L 138.500504 168.163954 
L 138.754394 168.402799 
L 139.008285 167.356378 
L 139.262175 167.842439 
L 139.516065 168.871299 
L 139.769955 167.598275 
L 140.277736 167.689469 
L 140.531626 167.884336 
L 140.785516 167.834187 
L 141.293297 166.544672 
L 141.547187 166.491864 
L 141.801077 167.192644 
L 142.054968 166.771771 
L 142.308858 166.895248 
L 142.562748 166.68522 
L 142.816638 167.124627 
L 143.070529 167.324313 
L 143.324419 168.157131 
L 143.578309 168.232102 
L 143.832199 167.887318 
L 144.08609 167.894747 
L 144.33998 167.535894 
L 144.59387 167.851574 
L 144.84776 167.398371 
L 145.101651 167.83712 
L 145.609431 167.205179 
L 145.863321 166.7131 
L 146.117212 167.081435 
L 146.371102 167.051124 
L 146.878883 167.278353 
L 147.640553 167.172802 
L 147.894444 167.974563 
L 148.148334 168.220425 
L 148.656114 168.212961 
L 148.910005 168.938256 
L 149.163895 168.50941 
L 149.417785 168.658222 
L 149.671675 168.406068 
L 149.925566 168.614077 
L 150.179456 168.190207 
L 150.433346 168.710158 
L 150.687236 168.671791 
L 150.941127 168.911569 
L 151.195017 169.455548 
L 151.448907 169.03335 
L 151.956688 169.561823 
L 152.210578 168.73516 
L 152.464468 168.882896 
L 152.718358 169.406175 
L 152.972249 169.577133 
L 153.226139 169.092664 
L 153.480029 169.23442 
L 153.733919 168.649612 
L 153.98781 168.677672 
L 154.2417 168.303912 
L 154.49559 167.700813 
L 155.003371 167.534085 
L 155.257261 166.640838 
L 155.511151 167.390392 
L 155.765041 167.440792 
L 156.018932 166.9399 
L 156.526712 167.67626 
L 156.780602 167.316675 
L 157.034493 167.186422 
L 157.288383 166.887961 
L 157.796163 166.678634 
L 158.050054 167.005467 
L 158.303944 166.750136 
L 158.557834 167.013099 
L 158.811724 166.354262 
L 159.065615 166.936356 
L 159.319505 166.924858 
L 159.573395 166.636733 
L 159.827285 166.66393 
L 160.081176 167.232065 
L 160.335066 166.800106 
L 160.588956 167.248251 
L 160.842846 167.163079 
L 161.096737 167.266822 
L 161.350627 167.89019 
L 161.604517 167.618499 
L 161.858407 167.964187 
L 162.112298 167.673494 
L 162.366188 167.681392 
L 163.127859 168.16953 
L 163.381749 167.715889 
L 163.88953 167.978288 
L 164.14342 168.387862 
L 164.39731 168.422412 
L 164.6512 168.651098 
L 164.905091 168.550913 
L 165.158981 168.906637 
L 165.412871 169.06789 
L 165.666761 169.008689 
L 165.920652 168.754358 
L 166.174542 169.031863 
L 166.682322 168.146 
L 166.936213 168.015415 
L 167.190103 167.463137 
L 167.443993 167.987579 
L 167.697883 167.008167 
L 168.205664 166.210278 
L 168.459554 166.588671 
L 169.475115 165.995114 
L 169.729005 166.11789 
L 170.236786 165.406949 
L 170.998457 163.778023 
L 171.760127 164.606189 
L 172.014018 164.202347 
L 172.521798 163.790575 
L 172.775688 164.515223 
L 173.029579 164.593542 
L 173.537359 165.252818 
L 173.791249 165.217622 
L 174.29903 164.545632 
L 174.55292 164.693231 
L 174.80681 164.349157 
L 175.060701 164.445713 
L 175.314591 165.03534 
L 175.568481 164.981351 
L 176.837932 163.953018 
L 177.091823 164.097965 
L 177.345713 163.675124 
L 177.599603 163.623252 
L 177.853493 164.09997 
L 178.107384 163.992542 
L 178.361274 164.690438 
L 178.615164 164.546334 
L 178.869055 164.706789 
L 179.376835 163.775346 
L 180.646286 163.762416 
L 180.900177 164.34199 
L 181.154067 164.425651 
L 181.407957 164.631207 
L 181.661847 164.461567 
L 181.915738 164.517288 
L 182.169628 164.292781 
L 182.677408 164.17315 
L 182.931299 164.469503 
L 183.439079 163.763978 
L 183.692969 162.682142 
L 183.94686 162.805216 
L 184.20075 162.537097 
L 184.45464 162.582591 
L 184.70853 162.841588 
L 185.724091 162.268623 
L 186.231872 162.451528 
L 186.739652 161.177787 
L 186.993543 161.573824 
L 187.247433 161.718137 
L 187.501323 161.505209 
L 188.516884 161.471118 
L 188.770774 162.002613 
L 189.278555 161.692756 
L 189.532445 161.989882 
L 190.040226 161.677702 
L 190.294116 161.782968 
L 190.801896 161.089373 
L 191.055787 161.064078 
L 191.563567 161.591547 
L 191.817457 161.734826 
L 192.325238 161.525638 
L 193.086909 160.122966 
L 193.340799 160.649942 
L 193.594689 160.654513 
L 194.10247 161.017754 
L 194.35636 160.974721 
L 194.61025 161.193315 
L 194.86414 161.264068 
L 195.118031 160.940441 
L 195.371921 161.135329 
L 196.133592 160.792904 
L 196.387482 161.434704 
L 196.895263 161.472129 
L 197.149153 161.3137 
L 197.403043 160.636504 
L 197.656933 160.353678 
L 197.910824 160.264405 
L 198.164714 160.600656 
L 198.418604 160.08847 
L 199.180275 160.1646 
L 199.434165 159.843846 
L 199.688055 160.123528 
L 199.941946 159.973725 
L 200.195836 160.33003 
L 200.957507 160.295288 
L 201.465287 160.481061 
L 201.719177 160.495564 
L 202.226958 160.05853 
L 202.480848 160.172475 
L 202.734738 160.417077 
L 202.988629 160.122904 
L 203.242519 160.06397 
L 203.496409 160.361323 
L 204.00419 160.10784 
L 204.25808 160.623531 
L 204.51197 160.097738 
L 204.76586 160.201293 
L 205.019751 160.150566 
L 205.273641 160.245871 
L 205.527531 160.088135 
L 206.035312 160.13761 
L 206.289202 160.401478 
L 206.796982 159.767122 
L 207.050873 159.784373 
L 207.304763 160.105316 
L 207.558653 160.028051 
L 207.812543 159.702624 
L 208.066434 159.870179 
L 208.320324 160.32013 
L 208.828104 160.398317 
L 209.335885 159.842746 
L 210.097556 160.455695 
L 210.351446 160.281371 
L 210.859226 160.415895 
L 211.620897 159.532068 
L 211.874788 159.711096 
L 212.128678 159.677717 
L 212.890349 159.916129 
L 213.144239 160.211765 
L 213.398129 160.171468 
L 213.652019 160.529414 
L 213.90591 160.500199 
L 214.1598 160.589662 
L 214.66758 160.988273 
L 214.921471 160.661494 
L 215.175361 161.108624 
L 215.429251 160.516367 
L 215.683141 160.697031 
L 215.937032 160.27296 
L 216.444812 160.083346 
L 216.952593 160.53132 
L 217.206483 160.407917 
L 217.460373 160.731517 
L 217.968154 161.035085 
L 218.222044 161.19257 
L 218.475934 160.798088 
L 218.729824 160.969916 
L 218.983715 160.968792 
L 219.237605 161.235446 
L 219.491495 161.165078 
L 219.999276 160.57253 
L 220.253166 161.102609 
L 220.507056 161.362585 
L 220.760946 161.2911 
L 221.014837 161.50734 
L 221.268727 161.222297 
L 221.522617 161.628341 
L 221.776507 161.223959 
L 222.030398 161.611945 
L 222.284288 161.73648 
L 222.538178 161.580462 
L 222.792068 161.758225 
L 223.045959 161.716651 
L 223.299849 162.067594 
L 224.31541 162.35563 
L 224.5693 161.958358 
L 224.82319 161.981141 
L 225.077081 162.248919 
L 225.330971 162.298981 
L 225.838751 162.179617 
L 226.092642 161.835241 
L 226.600422 162.156342 
L 226.854312 162.229558 
L 227.108203 162.549939 
L 227.362093 162.236644 
L 227.615983 162.156116 
L 227.869874 161.596243 
L 228.885435 161.655461 
L 229.139325 161.146152 
L 229.393215 161.298001 
L 229.647105 160.985062 
L 229.900996 161.053575 
L 230.154886 161.47384 
L 230.662666 161.152104 
L 230.916557 161.161835 
L 231.170447 161.033171 
L 231.424337 161.378979 
L 231.678227 161.035216 
L 231.932118 161.001812 
L 232.439898 161.301567 
L 232.693788 160.939307 
L 232.947679 161.127217 
L 233.455459 160.863514 
L 234.21713 160.086862 
L 234.47102 160.088614 
L 235.232691 160.805683 
L 235.486581 160.870037 
L 235.994362 160.383539 
L 236.248252 160.473338 
L 237.517703 160.1932 
L 237.771593 159.935461 
L 238.787154 159.613472 
L 239.041045 159.818559 
L 239.294935 159.497396 
L 239.548825 159.640749 
L 240.056606 159.350231 
L 240.310496 159.544169 
L 240.564386 159.923777 
L 241.326057 160.015301 
L 241.579947 160.510705 
L 242.087728 160.612642 
L 242.341618 160.528506 
L 242.595508 160.612517 
L 242.849398 160.573623 
L 243.103289 160.865135 
L 243.357179 160.529178 
L 243.611069 160.792853 
L 243.864959 160.698268 
L 244.11885 160.725756 
L 244.37274 160.631318 
L 244.62663 160.290593 
L 244.880521 160.310644 
L 245.388301 160.597852 
L 245.642191 160.398898 
L 245.896082 160.460074 
L 246.403862 160.283678 
L 246.657752 159.850464 
L 246.911643 160.31756 
L 247.165533 160.13582 
L 247.673313 160.4166 
L 247.927204 159.984929 
L 248.434984 160.032887 
L 248.942765 159.723439 
L 249.196655 159.623599 
L 249.958326 160.337368 
L 250.973887 160.260333 
L 251.227777 159.981125 
L 251.735557 159.93098 
L 251.989448 160.013342 
L 252.243338 159.722432 
L 252.497228 160.295625 
L 253.258899 160.089913 
L 253.766679 160.247748 
L 254.02057 159.95332 
L 254.27446 160.273013 
L 254.52835 160.256183 
L 254.78224 160.110948 
L 255.543911 160.13941 
L 256.051692 160.43131 
L 256.559472 160.28323 
L 256.813362 160.175044 
L 257.067253 160.266683 
L 257.321143 160.146003 
L 257.575033 160.551489 
L 257.828923 160.663905 
L 258.336704 160.263649 
L 259.098375 160.479007 
L 259.352265 160.281374 
L 259.606155 160.229619 
L 260.113936 160.829354 
L 260.367826 160.931875 
L 260.621716 160.818443 
L 260.875607 161.014707 
L 261.129497 160.560475 
L 261.383387 160.567115 
L 261.637277 160.929801 
L 262.145058 160.818945 
L 262.652838 161.300898 
L 262.906729 161.129951 
L 263.160619 161.131461 
L 263.414509 161.333754 
L 263.668399 161.764056 
L 263.92229 161.651185 
L 264.17618 161.915031 
L 264.43007 161.557924 
L 264.937851 161.390984 
L 265.191741 161.446674 
L 266.207302 161.313729 
L 266.461192 160.841745 
L 266.715082 160.898807 
L 267.476753 160.164913 
L 267.984534 160.497985 
L 268.238424 160.47472 
L 268.492314 160.704186 
L 268.746204 160.487889 
L 269.000095 159.987086 
L 269.253985 160.165349 
L 269.507875 159.805418 
L 269.761765 159.83563 
L 270.015656 160.022836 
L 270.269546 159.696274 
L 270.777326 159.49407 
L 271.031217 159.590955 
L 271.285107 159.306603 
L 271.538997 159.377351 
L 272.300668 159.03465 
L 272.554558 159.284169 
L 273.062339 159.417372 
L 273.316229 159.605778 
L 273.570119 159.576732 
L 274.0779 159.871008 
L 274.33179 160.104686 
L 274.58568 159.987337 
L 274.83957 160.145864 
L 275.093461 160.113652 
L 275.347351 160.297308 
L 275.855131 159.873009 
L 276.109022 160.154189 
L 276.616802 160.257954 
L 277.378473 160.705071 
L 278.140144 160.330286 
L 278.647924 160.30021 
L 278.901815 160.493053 
L 279.917376 160.047176 
L 280.171266 160.169668 
L 280.425156 160.536597 
L 280.932937 160.306301 
L 281.186827 160.579382 
L 281.440717 160.40594 
L 282.202388 160.607083 
L 282.456278 160.32341 
L 282.964059 160.636264 
L 283.217949 160.455097 
L 283.471839 160.57986 
L 283.725729 160.390942 
L 283.97962 160.057292 
L 284.4874 160.205782 
L 284.74129 160.370179 
L 284.995181 160.382809 
L 285.249071 160.227278 
L 285.502961 160.401523 
L 285.756851 160.315305 
L 286.010742 160.389571 
L 286.772412 160.311837 
L 287.534083 160.627595 
L 287.787973 160.532553 
L 288.295754 160.599417 
L 288.549644 160.925519 
L 288.803534 160.943428 
L 289.057425 161.215451 
L 290.072986 161.171384 
L 290.326876 161.35178 
L 290.580766 160.991907 
L 291.088547 161.024753 
L 291.342437 161.274084 
L 292.104108 160.591408 
L 292.357998 160.786292 
L 292.865778 160.715009 
L 293.627449 160.481581 
L 294.13523 160.619611 
L 294.64301 160.371788 
L 294.896901 160.540055 
L 295.404681 160.40131 
L 295.658571 160.703401 
L 295.912462 160.573236 
L 296.420242 160.685436 
L 296.674132 161.029576 
L 296.928023 160.864992 
L 297.435803 161.133523 
L 297.689693 161.111342 
L 298.451364 161.58238 
L 298.705254 161.730604 
L 299.213035 161.590186 
L 299.466925 161.42538 
L 299.720815 161.590565 
L 299.974706 161.349955 
L 300.228596 161.653928 
L 300.990267 161.393708 
L 301.244157 161.533265 
L 301.751937 161.014174 
L 302.005828 160.932549 
L 303.021389 161.213522 
L 303.275279 161.452892 
L 303.783059 161.446669 
L 304.29084 161.546397 
L 304.79862 161.187229 
L 305.052511 161.098406 
L 305.560291 161.058368 
L 305.560291 161.058368 
" clip-path="url(#p994d78a8dd)" style="fill: none; stroke: #0f4d92; stroke-opacity: 0.9; stroke-width: 0.8; stroke-linecap: square"/>
   </g>
   <g id="line2d_30">
    <path d="M 39.242109 161.058368 
L 318.242109 161.058368 
" clip-path="url(#p994d78a8dd)" style="fill: none; stroke-dasharray: 2.22,0.96; stroke-dashoffset: 0; stroke: #767676; stroke-width: 0.6"/>
   </g>
   <g id="patch_3">
    <path d="M 39.242109 192.467766 
L 39.242109 15.059766 
" style="fill: none; stroke: #000000; stroke-width: 0.8; stroke-linejoin: miter; stroke-linecap: square"/>
   </g>
   <g id="patch_4">
    <path d="M 39.242109 192.467766 
L 318.242109 192.467766 
" style="fill: none; stroke: #000000; stroke-width: 0.8; stroke-linejoin: miter; stroke-linecap: square"/>
   </g>
   <g id="text_17">
    <text style="font-weight: 700; font-size: 7.5px; font-family: 'Arial', 'Helvetica', 'DejaVu Sans', sans-serif; text-anchor: middle" x="178.742109" y="9.059766" transform="rotate(-0 178.742109 9.059766)">Monte Carlo Convergence</text>
   </g>
   <g id="legend_1">
    <g id="line2d_31">
     <path d="M 263.021484 22.654453 
L 269.021484 22.654453 
L 275.021484 22.654453 
" style="fill: none; stroke-dasharray: 2.22,0.96; stroke-dashoffset: 0; stroke: #767676; stroke-width: 0.6"/>
    </g>
    <g id="text_18">
     <text style="font-size: 6px; font-family: 'Arial', 'Helvetica', 'DejaVu Sans', sans-serif; text-anchor: start" x="279.821484" y="24.754453" transform="rotate(-0 279.821484 24.754453)">Final: 22506</text>
    </g>
   </g>
  </g>
 </g>
 <defs>
  <clipPath id="p994d78a8dd">
   <rect x="39.242109" y="15.059766" width="279" height="177.408"/>
  </clipPath>
 </defs>
</svg>
