<?xml version="1.0" encoding="utf-8" standalone="no"?>
<!DOCTYPE svg PUBLIC "-//W3C//DTD SVG 1.1//EN"
  "http://www.w3.org/Graphics/SVG/1.1/DTD/svg11.dtd">
<svg xmlns:xlink="http://www.w3.org/1999/xlink" width="312.804062pt" height="252.845281pt" viewBox="0 0 312.804062 252.845281" xmlns="http://www.w3.org/2000/svg" version="1.1">
 <metadata>
  <rdf:RDF xmlns:dc="http://purl.org/dc/elements/1.1/" xmlns:cc="http://creativecommons.org/ns#" xmlns:rdf="http://www.w3.org/1999/02/22-rdf-syntax-ns#">
   <cc:Work>
    <dc:type rdf:resource="http://purl.org/dc/dcmitype/StillImage"/>
    <dc:date>2026-05-21T18:58:17.755658</dc:date>
    <dc:format>image/svg+xml</dc:format>
    <dc:creator>
     <cc:Agent>
      <dc:title>Matplotlib v3.10.0, https://matplotlib.org/</dc:title>
     </cc:Agent>
    </dc:creator>
   </cc:Work>
  </rdf:RDF>
 </metadata>
 <defs>
  <style type="text/css">*{stroke-linejoin: round; stroke-linecap: butt}</style>
 </defs>
 <g id="figure_1">
  <g id="patch_1">
   <path d="M -0 252.845281 
L 312.804062 252.845281 
L 312.804062 0 
L -0 0 
z
" style="fill: #ffffff"/>
  </g>
  <g id="axes_1">
   <g id="patch_2">
    <path d="M 30.204063 225.731766 
L 309.204063 225.731766 
L 309.204063 15.059766 
L 30.204063 15.059766 
z
" style="fill: #ffffff"/>
   </g>
   <g id="FillBetweenPolyCollection_1">
    <path d="M 30.204063 25.091766 
L 30.204063 25.091766 
L 34.49637 25.091766 
L 34.49637 145.121602 
L 38.788678 145.121602 
L 38.788678 161.786907 
L 43.080986 161.786907 
L 43.080986 168.393153 
L 47.373293 168.393153 
L 47.373293 173.7972 
L 51.665601 173.7972 
L 51.665601 178.30265 
L 55.957909 178.30265 
L 55.957909 181.038222 
L 60.250216 181.038222 
L 60.250216 183.281147 
L 64.542524 183.281147 
L 64.542524 184.741808 
L 68.834832 184.741808 
L 68.834832 187.657838 
L 73.127139 187.657838 
L 73.127139 189.40833 
L 77.419447 189.40833 
L 77.419447 191.35513 
L 81.711755 191.35513 
L 81.711755 193.206284 
L 86.004063 193.206284 
L 86.004063 195.053753 
L 90.29637 195.053753 
L 90.29637 196.31556 
L 94.588678 196.31556 
L 94.588678 197.67227 
L 98.880986 197.67227 
L 98.880986 200.387771 
L 103.173293 200.387771 
L 103.173293 201.548338 
L 107.465601 201.548338 
L 107.465601 203.29216 
L 111.757909 203.29216 
L 111.757909 204.94851 
L 116.050216 204.94851 
L 116.050216 205.632221 
L 120.342524 205.632221 
L 120.342524 207.385913 
L 124.634832 207.385913 
L 124.634832 208.066069 
L 128.927139 208.066069 
L 128.927139 208.84204 
L 133.219447 208.84204 
L 133.219447 209.620934 
L 137.511755 209.620934 
L 137.511755 209.912602 
L 141.804062 209.912602 
L 141.804062 211.083992 
L 146.09637 211.083992 
L 146.09637 211.769899 
L 150.388678 211.769899 
L 150.388678 212.463891 
L 154.680986 212.463891 
L 154.680986 212.760785 
L 158.973293 212.760785 
L 158.973293 212.760785 
L 163.265601 212.760785 
L 163.265601 212.760785 
L 167.557909 212.760785 
L 167.557909 212.760785 
L 171.850216 212.760785 
L 171.850216 212.760785 
L 176.142524 212.760785 
L 176.142524 212.760785 
L 180.434832 212.760785 
L 180.434832 212.760785 
L 184.727139 212.760785 
L 184.727139 212.760785 
L 193.311755 212.760785 
L 193.311755 212.760785 
L 197.604062 212.760785 
L 197.604062 212.760785 
L 201.89637 212.760785 
L 201.89637 212.760785 
L 206.188678 212.760785 
L 206.188678 212.760785 
L 210.480986 212.760785 
L 210.480986 212.760785 
L 214.773293 212.760785 
L 214.773293 212.760785 
L 219.065601 212.760785 
L 219.065601 212.760785 
L 223.357909 212.760785 
L 223.357909 212.760785 
L 227.650216 212.760785 
L 227.650216 212.760785 
L 231.942524 212.760785 
L 231.942524 212.760785 
L 236.234832 212.760785 
L 236.234832 212.760785 
L 240.527139 212.760785 
L 240.527139 212.760785 
L 244.819447 212.760785 
L 244.819447 212.760785 
L 253.404062 212.760785 
L 253.404062 212.760785 
L 257.69637 212.760785 
L 257.69637 212.760785 
L 261.988678 212.760785 
L 261.988678 212.760785 
L 266.280986 212.760785 
L 266.280986 212.760785 
L 270.573293 212.760785 
L 270.573293 212.760785 
L 274.865601 212.760785 
L 274.865601 212.760785 
L 279.157909 212.760785 
L 279.157909 212.760785 
L 283.450216 212.760785 
L 283.450216 212.760785 
L 287.742524 212.760785 
L 287.742524 212.760785 
L 292.034832 212.760785 
L 292.034832 212.760785 
L 296.327139 212.760785 
L 296.327139 212.760785 
L 300.619447 212.760785 
L 300.619447 212.760785 
L 304.911755 212.760785 
L 304.911755 212.760785 
L 309.204063 212.760785 
L 309.204063 212.760785 
L 313.49637 212.760785 
L 313.49637 212.760785 
L 317.788678 212.760785 
L 317.788678 212.760785 
L 322.080986 212.760785 
L 322.080986 212.760785 
L 330.665601 212.760785 
L 330.665601 212.760785 
L 339.250216 212.760785 
L 339.250216 212.760785 
L 352.127139 212.760785 
L 352.127139 212.760785 
L 360.711755 212.760785 
L 360.711755 212.760785 
L 369.29637 212.760785 
L 369.29637 212.760785 
L 373.588678 212.760785 
L 373.588678 212.760785 
L 377.880986 212.760785 
L 377.880986 212.760785 
L 382.173293 212.760785 
L 382.173293 212.760785 
L 386.465601 212.760785 
L 386.465601 212.760785 
L 407.927139 212.760785 
L 407.927139 212.760785 
L 412.219447 212.760785 
L 412.219447 212.760785 
L 416.511755 212.760785 
L 416.511755 212.760785 
L 416.511755 208.061828 
L 416.511755 208.061828 
L 416.511755 208.061828 
L 412.219447 208.061828 
L 412.219447 208.061828 
L 407.927139 208.061828 
L 407.927139 208.061828 
L 386.465601 208.061828 
L 386.465601 208.061828 
L 382.173293 208.061828 
L 382.173293 208.061828 
L 377.880986 208.061828 
L 377.880986 208.061828 
L 373.588678 208.061828 
L 373.588678 208.061828 
L 369.29637 208.061828 
L 369.29637 208.061828 
L 360.711755 208.061828 
L 360.711755 208.061828 
L 352.127139 208.061828 
L 352.127139 208.061828 
L 339.250216 208.061828 
L 339.250216 208.061828 
L 330.665601 208.061828 
L 330.665601 208.061828 
L 322.080986 208.061828 
L 322.080986 208.061828 
L 317.788678 208.061828 
L 317.788678 208.061828 
L 313.49637 208.061828 
L 313.49637 208.061828 
L 309.204063 208.061828 
L 309.204063 208.061828 
L 304.911755 208.061828 
L 304.911755 208.061828 
L 300.619447 208.061828 
L 300.619447 208.061828 
L 296.327139 208.061828 
L 296.327139 208.061828 
L 292.034832 208.061828 
L 292.034832 208.061828 
L 287.742524 208.061828 
L 287.742524 208.061828 
L 283.450216 208.061828 
L 283.450216 208.061828 
L 279.157909 208.061828 
L 279.157909 208.061828 
L 274.865601 208.061828 
L 274.865601 208.061828 
L 270.573293 208.061828 
L 270.573293 208.061828 
L 266.280986 208.061828 
L 266.280986 208.061828 
L 261.988678 208.061828 
L 261.988678 208.061828 
L 257.69637 208.061828 
L 257.69637 208.061828 
L 253.404062 208.061828 
L 253.404062 208.061828 
L 244.819447 208.061828 
L 244.819447 208.061828 
L 240.527139 208.061828 
L 240.527139 208.061828 
L 236.234832 208.061828 
L 236.234832 208.061828 
L 231.942524 208.061828 
L 231.942524 208.061828 
L 227.650216 208.061828 
L 227.650216 208.061828 
L 223.357909 208.061828 
L 223.357909 208.061828 
L 219.065601 208.061828 
L 219.065601 208.061828 
L 214.773293 208.061828 
L 214.773293 208.061828 
L 210.480986 208.061828 
L 210.480986 208.061828 
L 206.188678 208.061828 
L 206.188678 208.061828 
L 201.89637 208.061828 
L 201.89637 208.061828 
L 197.604062 208.061828 
L 197.604062 208.061828 
L 193.311755 208.061828 
L 193.311755 208.061828 
L 184.727139 208.061828 
L 184.727139 208.061828 
L 180.434832 208.061828 
L 180.434832 208.061828 
L 176.142524 208.061828 
L 176.142524 208.061828 
L 171.850216 208.061828 
L 171.850216 208.061828 
L 167.557909 208.061828 
L 167.557909 208.061828 
L 163.265601 208.061828 
L 163.265601 208.061828 
L 158.973293 208.061828 
L 158.973293 208.061828 
L 154.680986 208.061828 
L 154.680986 207.722284 
L 150.388678 207.722284 
L 150.388678 206.931212 
L 146.09637 206.931212 
L 146.09637 206.15102 
L 141.804062 206.15102 
L 141.804062 204.8243 
L 137.511755 204.8243 
L 137.511755 204.494946 
L 133.219447 204.494946 
L 133.219447 203.617749 
L 128.927139 203.617749 
L 128.927139 202.74634 
L 124.634832 202.74634 
L 124.634832 201.985003 
L 120.342524 201.985003 
L 120.342524 200.031856 
L 116.050216 200.031856 
L 116.050216 199.273969 
L 111.757909 199.273969 
L 111.757909 197.444405 
L 107.465601 197.444405 
L 107.465601 195.526762 
L 103.173293 195.526762 
L 103.173293 194.255391 
L 98.880986 194.255391 
L 98.880986 191.296172 
L 94.588678 191.296172 
L 94.588678 189.824614 
L 90.29637 189.824614 
L 90.29637 188.460123 
L 86.004063 188.460123 
L 86.004063 186.469074 
L 81.711755 186.469074 
L 81.711755 184.481622 
L 77.419447 184.481622 
L 77.419447 182.398477 
L 73.127139 182.398477 
L 73.127139 180.531115 
L 68.834832 180.531115 
L 68.834832 177.431798 
L 64.542524 177.431798 
L 64.542524 175.884729 
L 60.250216 175.884729 
L 60.250216 173.515735 
L 55.957909 173.515735 
L 55.957909 170.636695 
L 51.665601 170.636695 
L 51.665601 165.917923 
L 47.373293 165.917923 
L 47.373293 160.29269 
L 43.080986 160.29269 
L 43.080986 153.462866 
L 38.788678 153.462866 
L 38.788678 136.436163 
L 34.49637 136.436163 
L 34.49637 25.091766 
L 30.204063 25.091766 
z
" clip-path="url(#pcd9dcfd6b7)" style="fill: #0f4d92; fill-opacity: 0.25; stroke: #0f4d92; stroke-opacity: 0.25"/>
   </g>
   <g id="matplotlib.axis_1">
    <g id="xtick_1">
     <g id="line2d_1">
      <path d="M 30.204063 225.731766 
L 30.204063 15.059766 
" clip-path="url(#pcd9dcfd6b7)" style="fill: none; stroke-dasharray: 1.11,0.48; stroke-dashoffset: 0; stroke: #b0b0b0; stroke-opacity: 0.3; stroke-width: 0.3"/>
     </g>
     <g id="line2d_2">
      <defs>
       <path id="m8f3009e7ab" d="M 0 0 
L 0 3.5 
" style="stroke: #000000; stroke-width: 0.8"/>
      </defs>
      <g>
       <use xlink:href="#m8f3009e7ab" x="30.204063" y="225.731766" style="stroke: #000000; stroke-width: 0.8"/>
      </g>
     </g>
     <g id="text_1">
      <text style="font-size: 6.5px; font-family: 'Arial', 'Helvetica', 'DejaVu Sans', sans-serif; text-anchor: middle" x="30.204063" y="237.384344" transform="rotate(-0 30.204063 237.384344)">0</text>
     </g>
    </g>
    <g id="xtick_2">
     <g id="line2d_3">
      <path d="M 73.127139 225.731766 
L 73.127139 15.059766 
" clip-path="url(#pcd9dcfd6b7)" style="fill: none; stroke-dasharray: 1.11,0.48; stroke-dashoffset: 0; stroke: #b0b0b0; stroke-opacity: 0.3; stroke-width: 0.3"/>
     </g>
     <g id="line2d_4">
      <g>
       <use xlink:href="#m8f3009e7ab" x="73.127139" y="225.731766" style="stroke: #000000; stroke-width: 0.8"/>
      </g>
     </g>
     <g id="text_2">
      <text style="font-size: 6.5px; font-family: 'Arial', 'Helvetica', 'DejaVu Sans', sans-serif; text-anchor: middle" x="73.127139" y="237.384344" transform="rotate(-0 73.127139 237.384344)">10</text>
     </g>
    </g>
    <g id="xtick_3">
     <g id="line2d_5">
      <path d="M 116.050216 225.731766 
L 116.050216 15.059766 
" clip-path="url(#pcd9dcfd6b7)" style="fill: none; stroke-dasharray: 1.11,0.48; stroke-dashoffset: 0; stroke: #b0b0b0; stroke-opacity: 0.3; stroke-width: 0.3"/>
     </g>
     <g id="line2d_6">
      <g>
       <use xlink:href="#m8f3009e7ab" x="116.050216" y="225.731766" style="stroke: #000000; stroke-width: 0.8"/>
      </g>
     </g>
     <g id="text_3">
      <text style="font-size: 6.5px; font-family: 'Arial', 'Helvetica', 'DejaVu Sans', sans-serif; text-anchor: middle" x="116.050216" y="237.384344" transform="rotate(-0 116.050216 237.384344)">20</text>
     </g>
    </g>
    <g id="xtick_4">
     <g id="line2d_7">
      <path d="M 158.973293 225.731766 
L 158.973293 15.059766 
" clip-path="url(#pcd9dcfd6b7)" style="fill: none; stroke-dasharray: 1.11,0.48; stroke-dashoffset: 0; stroke: #b0b0b0; stroke-opacity: 0.3; stroke-width: 0.3"/>
     </g>
     <g id="line2d_8">
      <g>
       <use xlink:href="#m8f3009e7ab" x="158.973293" y="225.731766" style="stroke: #000000; stroke-width: 0.8"/>
      </g>
     </g>
     <g id="text_4">
      <text style="font-size: 6.5px; font-family: 'Arial', 'Helvetica', 'DejaVu Sans', sans-serif; text-anchor: middle" x="158.973293" y="237.384344" transform="rotate(-0 158.973293 237.384344)">30</text>
     </g>
    </g>
    <g id="xtick_5">
     <g id="line2d_9">
      <path d="M 201.89637 225.731766 
L 201.89637 15.059766 
" clip-path="url(#pcd9dcfd6b7)" style="fill: none; stroke-dasharray: 1.11,0.48; stroke-dashoffset: 0; stroke: #b0b0b0; stroke-opacity: 0.3; stroke-width: 0.3"/>
     </g>
     <g id="line2d_10">
      <g>
       <use xlink:href="#m8f3009e7ab" x="201.89637" y="225.731766" style="stroke: #000000; stroke-width: 0.8"/>
      </g>
     </g>
     <g id="text_5">
      <text style="font-size: 6.5px; font-family: 'Arial', 'Helvetica', 'DejaVu Sans', sans-serif; text-anchor: middle" x="201.89637" y="237.384344" transform="rotate(-0 201.89637 237.384344)">40</text>
     </g>
    </g>
    <g id="xtick_6">
     <g id="line2d_11">
      <path d="M 244.819447 225.731766 
L 244.819447 15.059766 
" clip-path="url(#pcd9dcfd6b7)" style="fill: none; stroke-dasharray: 1.11,0.48; stroke-dashoffset: 0; stroke: #b0b0b0; stroke-opacity: 0.3; stroke-width: 0.3"/>
     </g>
     <g id="line2d_12">
      <g>
       <use xlink:href="#m8f3009e7ab" x="244.819447" y="225.731766" style="stroke: #000000; stroke-width: 0.8"/>
      </g>
     </g>
     <g id="text_6">
      <text style="font-size: 6.5px; font-family: 'Arial', 'Helvetica', 'DejaVu Sans', sans-serif; text-anchor: middle" x="244.819447" y="237.384344" transform="rotate(-0 244.819447 237.384344)">50</text>
     </g>
    </g>
    <g id="xtick_7">
     <g id="line2d_13">
      <path d="M 287.742524 225.731766 
L 287.742524 15.059766 
" clip-path="url(#pcd9dcfd6b7)" style="fill: none; stroke-dasharray: 1.11,0.48; stroke-dashoffset: 0; stroke: #b0b0b0; stroke-opacity: 0.3; stroke-width: 0.3"/>
     </g>
     <g id="line2d_14">
      <g>
       <use xlink:href="#m8f3009e7ab" x="287.742524" y="225.731766" style="stroke: #000000; stroke-width: 0.8"/>
      </g>
     </g>
     <g id="text_7">
      <text style="font-size: 6.5px; font-family: 'Arial', 'Helvetica', 'DejaVu Sans', sans-serif; text-anchor: middle" x="287.742524" y="237.384344" transform="rotate(-0 287.742524 237.384344)">60</text>
     </g>
    </g>
    <g id="text_8">
     <text style="font-size: 7px; font-family: 'Arial', 'Helvetica', 'DejaVu Sans', sans-serif; text-anchor: middle" x="169.704062" y="247.772" transform="rotate(-0 169.704062 247.772)">Days Since Registration</text>
    </g>
   </g>
   <g id="matplotlib.axis_2">
    <g id="ytick_1">
     <g id="line2d_15">
      <path d="M 30.204063 225.731766 
L 309.204063 225.731766 
" clip-path="url(#pcd9dcfd6b7)" style="fill: none; stroke-dasharray: 1.11,0.48; stroke-dashoffset: 0; stroke: #b0b0b0; stroke-opacity: 0.3; stroke-width: 0.3"/>
     </g>
     <g id="line2d_16">
      <defs>
       <path id="mc31b9d938e" d="M 0 0 
L -3.5 0 
" style="stroke: #000000; stroke-width: 0.8"/>
      </defs>
      <g>
       <use xlink:href="#mc31b9d938e" x="30.204063" y="225.731766" style="stroke: #000000; stroke-width: 0.8"/>
      </g>
     </g>
     <g id="text_9">
      <text style="font-size: 6.5px; font-family: 'Arial', 'Helvetica', 'DejaVu Sans', sans-serif; text-anchor: end" x="23.204063" y="228.058055" transform="rotate(-0 23.204063 228.058055)">0.0</text>
     </g>
    </g>
    <g id="ytick_2">
     <g id="line2d_17">
      <path d="M 30.204063 185.603766 
L 309.204063 185.603766 
" clip-path="url(#pcd9dcfd6b7)" style="fill: none; stroke-dasharray: 1.11,0.48; stroke-dashoffset: 0; stroke: #b0b0b0; stroke-opacity: 0.3; stroke-width: 0.3"/>
     </g>
     <g id="line2d_18">
      <g>
       <use xlink:href="#mc31b9d938e" x="30.204063" y="185.603766" style="stroke: #000000; stroke-width: 0.8"/>
      </g>
     </g>
     <g id="text_10">
      <text style="font-size: 6.5px; font-family: 'Arial', 'Helvetica', 'DejaVu Sans', sans-serif; text-anchor: end" x="23.204063" y="187.930055" transform="rotate(-0 23.204063 187.930055)">0.2</text>
     </g>
    </g>
    <g id="ytick_3">
     <g id="line2d_19">
      <path d="M 30.204063 145.475766 
L 309.204063 145.475766 
" clip-path="url(#pcd9dcfd6b7)" style="fill: none; stroke-dasharray: 1.11,0.48; stroke-dashoffset: 0; stroke: #b0b0b0; stroke-opacity: 0.3; stroke-width: 0.3"/>
     </g>
     <g id="line2d_20">
      <g>
       <use xlink:href="#mc31b9d938e" x="30.204063" y="145.475766" style="stroke: #000000; stroke-width: 0.8"/>
      </g>
     </g>
     <g id="text_11">
      <text style="font-size: 6.5px; font-family: 'Arial', 'Helvetica', 'DejaVu Sans', sans-serif; text-anchor: end" x="23.204063" y="147.802055" transform="rotate(-0 23.204063 147.802055)">0.4</text>
     </g>
    </g>
    <g id="ytick_4">
     <g id="line2d_21">
      <path d="M 30.204063 105.347766 
L 309.204063 105.347766 
" clip-path="url(#pcd9dcfd6b7)" style="fill: none; stroke-dasharray: 1.11,0.48; stroke-dashoffset: 0; stroke: #b0b0b0; stroke-opacity: 0.3; stroke-width: 0.3"/>
     </g>
     <g id="line2d_22">
      <g>
       <use xlink:href="#mc31b9d938e" x="30.204063" y="105.347766" style="stroke: #000000; stroke-width: 0.8"/>
      </g>
     </g>
     <g id="text_12">
      <text style="font-size: 6.5px; font-family: 'Arial', 'Helvetica', 'DejaVu Sans', sans-serif; text-anchor: end" x="23.204063" y="107.674055" transform="rotate(-0 23.204063 107.674055)">0.6</text>
     </g>
    </g>
    <g id="ytick_5">
     <g id="line2d_23">
      <path d="M 30.204063 65.219766 
L 309.204063 65.219766 
" clip-path="url(#pcd9dcfd6b7)" style="fill: none; stroke-dasharray: 1.11,0.48; stroke-dashoffset: 0; stroke: #b0b0b0; stroke-opacity: 0.3; stroke-width: 0.3"/>
     </g>
     <g id="line2d_24">
      <g>
       <use xlink:href="#mc31b9d938e" x="30.204063" y="65.219766" style="stroke: #000000; stroke-width: 0.8"/>
      </g>
     </g>
     <g id="text_13">
      <text style="font-size: 6.5px; font-family: 'Arial', 'Helvetica', 'DejaVu Sans', sans-serif; text-anchor: end" x="23.204063" y="67.546055" transform="rotate(-0 23.204063 67.546055)">0.8</text>
     </g>
    </g>
    <g id="ytick_6">
     <g id="line2d_25">
      <path d="M 30.204063 25.091766 
L 309.204063 25.091766 
" clip-path="url(#pcd9dcfd6b7)" style="fill: none; stroke-dasharray: 1.11,0.48; stroke-dashoffset: 0; stroke: #b0b0b0; stroke-opacity: 0.3; stroke-width: 0.3"/>
     </g>
     <g id="line2d_26">
      <g>
       <use xlink:href="#mc31b9d938e" x="30.204063" y="25.091766" style="stroke: #000000; stroke-width: 0.8"/>
      </g>
     </g>
     <g id="text_14">
      <text style="font-size: 6.5px; font-family: 'Arial', 'Helvetica', 'DejaVu Sans', sans-serif; text-anchor: end" x="23.204063" y="27.418055" transform="rotate(-0 23.204063 27.418055)">1.0</text>
     </g>
    </g>
    <g id="text_15">
     <text style="font-size: 7px; font-family: 'Arial', 'Helvetica', 'DejaVu Sans', sans-serif; text-anchor: middle" x="8.695781" y="120.395766" transform="rotate(-90 8.695781 120.395766)">Survival Probability</text>
    </g>
   </g>
   <g id="line2d_27">
    <path d="M 30.204063 25.091766 
L 34.49637 25.091766 
L 34.49637 140.760726 
L 38.788678 140.760726 
L 38.788678 157.634407 
L 43.080986 157.634407 
L 43.080986 164.363792 
L 47.373293 164.363792 
L 47.373293 169.887914 
L 51.665601 169.887914 
L 51.665601 174.508089 
L 55.957909 174.508089 
L 55.957909 177.320369 
L 60.250216 177.320369 
L 60.250216 179.630457 
L 64.542524 179.630457 
L 64.542524 181.137035 
L 68.834832 181.137035 
L 68.834832 184.150193 
L 73.127139 184.150193 
L 73.127139 185.962465 
L 77.419447 185.962465 
L 77.419447 187.981211 
L 81.711755 187.981211 
L 81.711755 189.904162 
L 86.004063 189.904162 
L 86.004063 191.827112 
L 90.29637 191.827112 
L 90.29637 193.142815 
L 94.588678 193.142815 
L 94.588678 194.559726 
L 98.880986 194.559726 
L 98.880986 197.402778 
L 103.173293 197.402778 
L 103.173293 198.621229 
L 107.465601 198.621229 
L 107.465601 200.455777 
L 111.757909 200.455777 
L 111.757909 202.202492 
L 116.050216 202.202492 
L 116.050216 202.924882 
L 120.342524 202.924882 
L 120.342524 204.782456 
L 124.634832 204.782456 
L 124.634832 205.504846 
L 128.927139 205.504846 
L 128.927139 206.330434 
L 133.219447 206.330434 
L 133.219447 207.160438 
L 137.511755 207.160438 
L 137.511755 207.471689 
L 141.804062 207.471689 
L 141.804062 208.723809 
L 146.09637 208.723809 
L 146.09637 209.45872 
L 150.388678 209.45872 
L 150.388678 210.203239 
L 154.680986 210.203239 
L 154.680986 210.522318 
L 313.804062 210.522318 
L 313.804062 210.522318 
" clip-path="url(#pcd9dcfd6b7)" style="fill: none; stroke: #0f4d92; stroke-width: 1.5; stroke-linecap: square"/>
   </g>
   <g id="line2d_28">
    <path d="M 34.49637 225.731766 
L 34.49637 15.059766 
" clip-path="url(#pcd9dcfd6b7)" style="fill: none; stroke-dasharray: 0.6,0.99; stroke-dashoffset: 0; stroke: #767676; stroke-width: 0.6"/>
   </g>
   <g id="line2d_29">
    <path d="M 60.250216 225.731766 
L 60.250216 15.059766 
" clip-path="url(#pcd9dcfd6b7)" style="fill: none; stroke-dasharray: 0.6,0.99; stroke-dashoffset: 0; stroke: #767676; stroke-width: 0.6"/>
   </g>
   <g id="line2d_30">
    <path d="M 90.29637 225.731766 
L 90.29637 15.059766 
" clip-path="url(#pcd9dcfd6b7)" style="fill: none; stroke-dasharray: 0.6,0.99; stroke-dashoffset: 0; stroke: #767676; stroke-width: 0.6"/>
   </g>
   <g id="line2d_31">
    <path d="M 158.973293 225.731766 
L 158.973293 15.059766 
" clip-path="url(#pcd9dcfd6b7)" style="fill: none; stroke-dasharray: 0.6,0.99; stroke-dashoffset: 0; stroke: #767676; stroke-width: 0.6"/>
   </g>
   <g id="patch_3">
    <path d="M 30.204063 225.731766 
L 30.204063 15.059766 
" style="fill: none; stroke: #000000; stroke-width: 0.8; stroke-linejoin: miter; stroke-linecap: square"/>
   </g>
   <g id="patch_4">
    <path d="M 30.204063 225.731766 
L 309.204063 225.731766 
" style="fill: none; stroke: #000000; stroke-width: 0.8; stroke-linejoin: miter; stroke-linecap: square"/>
   </g>
   <g id="patch_5">
    <path d="M 40.888158 135.141045 
Q 38.442862 137.290957 36.417394 139.071755 
" style="fill: none; stroke: #767676; stroke-width: 0.5; stroke-linecap: round"/>
    <path d="M 38.795936 138.445227 
L 36.417394 139.071755 
L 37.343296 136.793005 
" style="fill: none; stroke: #767676; stroke-width: 0.5; stroke-linecap: round"/>
   </g>
   <g id="text_16">
    <text style="font-size: 5.5px; font-family: 'Arial', 'Helvetica', 'DejaVu Sans', sans-serif; fill: #4d4d4d" transform="translate(43.080986 124.846991)">Day 1</text>
    <text style="font-size: 5.5px; font-family: 'Arial', 'Helvetica', 'DejaVu Sans', sans-serif; fill: #4d4d4d" transform="translate(43.080986 130.728726)">42.4%</text>
   </g>
   <g id="patch_6">
    <path d="M 66.645243 174.011115 
Q 64.198708 176.160897 62.172104 177.941684 
" style="fill: none; stroke: #767676; stroke-width: 0.5; stroke-linecap: round"/>
    <path d="M 64.550823 177.315825 
L 62.172104 177.941684 
L 63.098648 175.663194 
" style="fill: none; stroke: #767676; stroke-width: 0.5; stroke-linecap: round"/>
   </g>
   <g id="text_17">
    <text style="font-size: 5.5px; font-family: 'Arial', 'Helvetica', 'DejaVu Sans', sans-serif; fill: #4d4d4d" transform="translate(68.834832 163.716722)">Day 7</text>
    <text style="font-size: 5.5px; font-family: 'Arial', 'Helvetica', 'DejaVu Sans', sans-serif; fill: #4d4d4d" transform="translate(68.834832 169.598457)">23.0%</text>
   </g>
   <g id="patch_7">
    <path d="M 97.094262 187.482473 
Q 94.46373 189.672815 92.262789 191.505454 
" style="fill: none; stroke: #767676; stroke-width: 0.5; stroke-linecap: round"/>
    <path d="M 94.657302 190.943042 
L 92.262789 191.505454 
L 93.249567 189.252396 
" style="fill: none; stroke: #767676; stroke-width: 0.5; stroke-linecap: round"/>
   </g>
   <g id="text_18">
    <text style="font-size: 5.5px; font-family: 'Arial', 'Helvetica', 'DejaVu Sans', sans-serif; fill: #4d4d4d" transform="translate(98.880986 177.229081)">Day 14</text>
    <text style="font-size: 5.5px; font-family: 'Arial', 'Helvetica', 'DejaVu Sans', sans-serif; fill: #4d4d4d" transform="translate(98.880986 183.110815)">16.2%</text>
   </g>
   <g id="patch_8">
    <path d="M 165.771185 204.861976 
Q 163.140653 207.052319 160.939712 208.884957 
" style="fill: none; stroke: #767676; stroke-width: 0.5; stroke-linecap: round"/>
    <path d="M 163.334225 208.322545 
L 160.939712 208.884957 
L 161.92649 206.631899 
" style="fill: none; stroke: #767676; stroke-width: 0.5; stroke-linecap: round"/>
   </g>
   <g id="text_19">
    <text style="font-size: 5.5px; font-family: 'Arial', 'Helvetica', 'DejaVu Sans', sans-serif; fill: #4d4d4d" transform="translate(167.557909 194.608584)">Day 30</text>
    <text style="font-size: 5.5px; font-family: 'Arial', 'Helvetica', 'DejaVu Sans', sans-serif; fill: #4d4d4d" transform="translate(167.557909 200.490318)">7.6%</text>
   </g>
   <g id="text_20">
    <text style="font-weight: 700; font-size: 7.5px; font-family: 'Arial', 'Helvetica', 'DejaVu Sans', sans-serif; text-anchor: middle" x="169.704062" y="9.059766" transform="rotate(-0 169.704062 9.059766)">Kaplan-Meier Player Retention Curve</text>
   </g>
  </g>
 </g>
 <defs>
  <clipPath id="pcd9dcfd6b7">
   <rect x="30.204063" y="15.059766" width="279" height="210.672"/>
  </clipPath>
 </defs>
</svg>
