<?xml version="1.0" encoding="utf-8" standalone="no"?>
<!DOCTYPE svg PUBLIC "-//W3C//DTD SVG 1.1//EN"
  "http://www.w3.org/Graphics/SVG/1.1/DTD/svg11.dtd">
<svg xmlns:xlink="http://www.w3.org/1999/xlink" width="324.652812pt" height="220.372297pt" viewBox="0 0 324.652812 220.372297" xmlns="http://www.w3.org/2000/svg" version="1.1">
 <metadata>
  <rdf:RDF xmlns:dc="http://purl.org/dc/elements/1.1/" xmlns:cc="http://creativecommons.org/ns#" xmlns:rdf="http://www.w3.org/1999/02/22-rdf-syntax-ns#">
   <cc:Work>
    <dc:type rdf:resource="http://purl.org/dc/dcmitype/StillImage"/>
    <dc:date>2026-05-24T15:48:52.988652</dc:date>
    <dc:format>image/svg+xml</dc:format>
    <dc:creator>
     <cc:Agent>
      <dc:title>Matplotlib v3.10.0, https://matplotlib.org/</dc:title>
     </cc:Agent>
    </dc:creator>
   </cc:Work>
  </rdf:RDF>
 </metadata>
 <defs>
  <style type="text/css">*{stroke-linejoin: round; stroke-linecap: butt}</style>
 </defs>
 <g id="figure_1">
  <g id="patch_1">
   <path d="M 0 220.372297 
L 324.652812 220.372297 
L 324.652812 0 
L 0 0 
z
" style="fill: #ffffff"/>
  </g>
  <g id="axes_1">
   <g id="patch_2">
    <path d="M 42.052813 192.706828 
L 321.052813 192.706828 
L 321.052813 15.298828 
L 42.052813 15.298828 
z
" style="fill: #ffffff"/>
   </g>
   <g id="matplotlib.axis_1">
    <g id="xtick_1">
     <g id="line2d_1">
      <path d="M 54.734631 192.706828 
L 54.734631 15.298828 
" clip-path="url(#p63c43b0428)" style="fill: none; stroke-dasharray: 1.11,0.48; stroke-dashoffset: 0; stroke: #b0b0b0; stroke-opacity: 0.3; stroke-width: 0.3"/>
     </g>
     <g id="line2d_2">
      <defs>
       <path id="m45e7fa2493" d="M 0 0 
L 0 3.5 
" style="stroke: #000000; stroke-width: 0.8"/>
      </defs>
      <g>
       <use xlink:href="#m45e7fa2493" x="54.734631" y="192.706828" style="stroke: #000000; stroke-width: 0.8"/>
      </g>
     </g>
     <g id="text_1">
      <text style="font-size: 6.5px; font-family: 'DejaVu Sans', 'Arial', 'Helvetica', sans-serif; text-anchor: middle" x="54.734631" y="204.645812" transform="rotate(-0 54.734631 204.645812)">0</text>
     </g>
    </g>
    <g id="xtick_2">
     <g id="line2d_3">
      <path d="M 105.512681 192.706828 
L 105.512681 15.298828 
" clip-path="url(#p63c43b0428)" style="fill: none; stroke-dasharray: 1.11,0.48; stroke-dashoffset: 0; stroke: #b0b0b0; stroke-opacity: 0.3; stroke-width: 0.3"/>
     </g>
     <g id="line2d_4">
      <g>
       <use xlink:href="#m45e7fa2493" x="105.512681" y="192.706828" style="stroke: #000000; stroke-width: 0.8"/>
      </g>
     </g>
     <g id="text_2">
      <text style="font-size: 6.5px; font-family: 'DejaVu Sans', 'Arial', 'Helvetica', sans-serif; text-anchor: middle" x="105.512681" y="204.645812" transform="rotate(-0 105.512681 204.645812)">200</text>
     </g>
    </g>
    <g id="xtick_3">
     <g id="line2d_5">
      <path d="M 156.290732 192.706828 
L 156.290732 15.298828 
" clip-path="url(#p63c43b0428)" style="fill: none; stroke-dasharray: 1.11,0.48; stroke-dashoffset: 0; stroke: #b0b0b0; stroke-opacity: 0.3; stroke-width: 0.3"/>
     </g>
     <g id="line2d_6">
      <g>
       <use xlink:href="#m45e7fa2493" x="156.290732" y="192.706828" style="stroke: #000000; stroke-width: 0.8"/>
      </g>
     </g>
     <g id="text_3">
      <text style="font-size: 6.5px; font-family: 'DejaVu Sans', 'Arial', 'Helvetica', sans-serif; text-anchor: middle" x="156.290732" y="204.645812" transform="rotate(-0 156.290732 204.645812)">400</text>
     </g>
    </g>
    <g id="xtick_4">
     <g id="line2d_7">
      <path d="M 207.068783 192.706828 
L 207.068783 15.298828 
" clip-path="url(#p63c43b0428)" style="fill: none; stroke-dasharray: 1.11,0.48; stroke-dashoffset: 0; stroke: #b0b0b0; stroke-opacity: 0.3; stroke-width: 0.3"/>
     </g>
     <g id="line2d_8">
      <g>
       <use xlink:href="#m45e7fa2493" x="207.068783" y="192.706828" style="stroke: #000000; stroke-width: 0.8"/>
      </g>
     </g>
     <g id="text_4">
      <text style="font-size: 6.5px; font-family: 'DejaVu Sans', 'Arial', 'Helvetica', sans-serif; text-anchor: middle" x="207.068783" y="204.645812" transform="rotate(-0 207.068783 204.645812)">600</text>
     </g>
    </g>
    <g id="xtick_5">
     <g id="line2d_9">
      <path d="M 257.846834 192.706828 
L 257.846834 15.298828 
" clip-path="url(#p63c43b0428)" style="fill: none; stroke-dasharray: 1.11,0.48; stroke-dashoffset: 0; stroke: #b0b0b0; stroke-opacity: 0.3; stroke-width: 0.3"/>
     </g>
     <g id="line2d_10">
      <g>
       <use xlink:href="#m45e7fa2493" x="257.846834" y="192.706828" style="stroke: #000000; stroke-width: 0.8"/>
      </g>
     </g>
     <g id="text_5">
      <text style="font-size: 6.5px; font-family: 'DejaVu Sans', 'Arial', 'Helvetica', sans-serif; text-anchor: middle" x="257.846834" y="204.645812" transform="rotate(-0 257.846834 204.645812)">800</text>
     </g>
    </g>
    <g id="xtick_6">
     <g id="line2d_11">
      <path d="M 308.624885 192.706828 
L 308.624885 15.298828 
" clip-path="url(#p63c43b0428)" style="fill: none; stroke-dasharray: 1.11,0.48; stroke-dashoffset: 0; stroke: #b0b0b0; stroke-opacity: 0.3; stroke-width: 0.3"/>
     </g>
     <g id="line2d_12">
      <g>
       <use xlink:href="#m45e7fa2493" x="308.624885" y="192.706828" style="stroke: #000000; stroke-width: 0.8"/>
      </g>
     </g>
     <g id="text_6">
      <text style="font-size: 6.5px; font-family: 'DejaVu Sans', 'Arial', 'Helvetica', sans-serif; text-anchor: middle" x="308.624885" y="204.645812" transform="rotate(-0 308.624885 204.645812)">1000</text>
     </g>
    </g>
    <g id="text_7">
     <text style="font-size: 7px; font-family: 'DejaVu Sans', 'Arial', 'Helvetica', sans-serif; text-anchor: middle" x="181.552813" y="215.316516" transform="rotate(-0 181.552813 215.316516)">Simulation Count</text>
    </g>
   </g>
   <g id="matplotlib.axis_2">
    <g id="ytick_1">
     <g id="line2d_13">
      <path d="M 42.052813 183.324181 
L 321.052813 183.324181 
" clip-path="url(#p63c43b0428)" style="fill: none; stroke-dasharray: 1.11,0.48; stroke-dashoffset: 0; stroke: #b0b0b0; stroke-opacity: 0.3; stroke-width: 0.3"/>
     </g>
     <g id="line2d_14">
      <defs>
       <path id="m69e28ea785" d="M 0 0 
L -3.5 0 
" style="stroke: #000000; stroke-width: 0.8"/>
      </defs>
      <g>
       <use xlink:href="#m69e28ea785" x="42.052813" y="183.324181" style="stroke: #000000; stroke-width: 0.8"/>
      </g>
     </g>
     <g id="text_8">
      <text style="font-size: 6.5px; font-family: 'DejaVu Sans', 'Arial', 'Helvetica', sans-serif; text-anchor: end" x="35.052813" y="185.793673" transform="rotate(-0 35.052813 185.793673)">20750</text>
     </g>
    </g>
    <g id="ytick_2">
     <g id="line2d_15">
      <path d="M 42.052813 160.700807 
L 321.052813 160.700807 
" clip-path="url(#p63c43b0428)" style="fill: none; stroke-dasharray: 1.11,0.48; stroke-dashoffset: 0; stroke: #b0b0b0; stroke-opacity: 0.3; stroke-width: 0.3"/>
     </g>
     <g id="line2d_16">
      <g>
       <use xlink:href="#m69e28ea785" x="42.052813" y="160.700807" style="stroke: #000000; stroke-width: 0.8"/>
      </g>
     </g>
     <g id="text_9">
      <text style="font-size: 6.5px; font-family: 'DejaVu Sans', 'Arial', 'Helvetica', sans-serif; text-anchor: end" x="35.052813" y="163.170299" transform="rotate(-0 35.052813 163.170299)">21000</text>
     </g>
    </g>
    <g id="ytick_3">
     <g id="line2d_17">
      <path d="M 42.052813 138.077433 
L 321.052813 138.077433 
" clip-path="url(#p63c43b0428)" style="fill: none; stroke-dasharray: 1.11,0.48; stroke-dashoffset: 0; stroke: #b0b0b0; stroke-opacity: 0.3; stroke-width: 0.3"/>
     </g>
     <g id="line2d_18">
      <g>
       <use xlink:href="#m69e28ea785" x="42.052813" y="138.077433" style="stroke: #000000; stroke-width: 0.8"/>
      </g>
     </g>
     <g id="text_10">
      <text style="font-size: 6.5px; font-family: 'DejaVu Sans', 'Arial', 'Helvetica', sans-serif; text-anchor: end" x="35.052813" y="140.546925" transform="rotate(-0 35.052813 140.546925)">21250</text>
     </g>
    </g>
    <g id="ytick_4">
     <g id="line2d_19">
      <path d="M 42.052813 115.454059 
L 321.052813 115.454059 
" clip-path="url(#p63c43b0428)" style="fill: none; stroke-dasharray: 1.11,0.48; stroke-dashoffset: 0; stroke: #b0b0b0; stroke-opacity: 0.3; stroke-width: 0.3"/>
     </g>
     <g id="line2d_20">
      <g>
       <use xlink:href="#m69e28ea785" x="42.052813" y="115.454059" style="stroke: #000000; stroke-width: 0.8"/>
      </g>
     </g>
     <g id="text_11">
      <text style="font-size: 6.5px; font-family: 'DejaVu Sans', 'Arial', 'Helvetica', sans-serif; text-anchor: end" x="35.052813" y="117.923551" transform="rotate(-0 35.052813 117.923551)">21500</text>
     </g>
    </g>
    <g id="ytick_5">
     <g id="line2d_21">
      <path d="M 42.052813 92.830685 
L 321.052813 92.830685 
" clip-path="url(#p63c43b0428)" style="fill: none; stroke-dasharray: 1.11,0.48; stroke-dashoffset: 0; stroke: #b0b0b0; stroke-opacity: 0.3; stroke-width: 0.3"/>
     </g>
     <g id="line2d_22">
      <g>
       <use xlink:href="#m69e28ea785" x="42.052813" y="92.830685" style="stroke: #000000; stroke-width: 0.8"/>
      </g>
     </g>
     <g id="text_12">
      <text style="font-size: 6.5px; font-family: 'DejaVu Sans', 'Arial', 'Helvetica', sans-serif; text-anchor: end" x="35.052813" y="95.300177" transform="rotate(-0 35.052813 95.300177)">21750</text>
     </g>
    </g>
    <g id="ytick_6">
     <g id="line2d_23">
      <path d="M 42.052813 70.207311 
L 321.052813 70.207311 
" clip-path="url(#p63c43b0428)" style="fill: none; stroke-dasharray: 1.11,0.48; stroke-dashoffset: 0; stroke: #b0b0b0; stroke-opacity: 0.3; stroke-width: 0.3"/>
     </g>
     <g id="line2d_24">
      <g>
       <use xlink:href="#m69e28ea785" x="42.052813" y="70.207311" style="stroke: #000000; stroke-width: 0.8"/>
      </g>
     </g>
     <g id="text_13">
      <text style="font-size: 6.5px; font-family: 'DejaVu Sans', 'Arial', 'Helvetica', sans-serif; text-anchor: end" x="35.052813" y="72.676803" transform="rotate(-0 35.052813 72.676803)">22000</text>
     </g>
    </g>
    <g id="ytick_7">
     <g id="line2d_25">
      <path d="M 42.052813 47.583937 
L 321.052813 47.583937 
" clip-path="url(#p63c43b0428)" style="fill: none; stroke-dasharray: 1.11,0.48; stroke-dashoffset: 0; stroke: #b0b0b0; stroke-opacity: 0.3; stroke-width: 0.3"/>
     </g>
     <g id="line2d_26">
      <g>
       <use xlink:href="#m69e28ea785" x="42.052813" y="47.583937" style="stroke: #000000; stroke-width: 0.8"/>
      </g>
     </g>
     <g id="text_14">
      <text style="font-size: 6.5px; font-family: 'DejaVu Sans', 'Arial', 'Helvetica', sans-serif; text-anchor: end" x="35.052813" y="50.053429" transform="rotate(-0 35.052813 50.053429)">22250</text>
     </g>
    </g>
    <g id="ytick_8">
     <g id="line2d_27">
      <path d="M 42.052813 24.960563 
L 321.052813 24.960563 
" clip-path="url(#p63c43b0428)" style="fill: none; stroke-dasharray: 1.11,0.48; stroke-dashoffset: 0; stroke: #b0b0b0; stroke-opacity: 0.3; stroke-width: 0.3"/>
     </g>
     <g id="line2d_28">
      <g>
       <use xlink:href="#m69e28ea785" x="42.052813" y="24.960563" style="stroke: #000000; stroke-width: 0.8"/>
      </g>
     </g>
     <g id="text_15">
      <text style="font-size: 6.5px; font-family: 'DejaVu Sans', 'Arial', 'Helvetica', sans-serif; text-anchor: end" x="35.052813" y="27.430055" transform="rotate(-0 35.052813 27.430055)">22500</text>
     </g>
    </g>
    <g id="text_16">
     <text style="font-size: 7px; font-family: 'DejaVu Sans', 'Arial', 'Helvetica', sans-serif; text-anchor: middle" x="8.918906" y="104.002828" transform="rotate(-90 8.918906 104.002828)">Cumulative Mean Revenue (CNY)</text>
    </g>
   </g>
   <g id="line2d_29">
    <path d="M 54.734631 147.87148 
L 54.988521 23.362828 
L 55.242411 64.678155 
L 55.496301 70.452833 
L 56.004082 109.039789 
L 56.511862 113.186899 
L 56.765753 118.55232 
L 57.019643 132.177835 
L 57.273533 152.041702 
L 57.527423 153.143207 
L 57.781314 156.855685 
L 58.035204 153.213949 
L 58.289094 160.113422 
L 58.796875 164.952907 
L 59.304655 178.096211 
L 59.558546 179.627884 
L 60.066326 171.648777 
L 60.320216 168.183139 
L 60.574107 167.794687 
L 60.827997 174.135801 
L 61.081887 175.978312 
L 61.335777 176.807536 
L 61.589668 179.037892 
L 61.843558 183.649804 
L 62.097448 182.464314 
L 62.351338 184.642828 
L 62.605229 183.04477 
L 62.859119 176.48612 
L 63.113009 178.826221 
L 63.366899 179.600438 
L 63.62079 178.917288 
L 63.87468 180.242871 
L 64.38246 169.40021 
L 64.636351 170.240277 
L 64.890241 169.71753 
L 65.144131 170.57083 
L 65.398021 166.296019 
L 65.651912 165.83413 
L 66.159692 160.816489 
L 66.413582 157.855553 
L 66.667473 160.460872 
L 66.921363 159.758759 
L 67.175253 156.680047 
L 67.683034 164.291185 
L 67.936924 164.796246 
L 68.190814 167.496179 
L 68.444704 172.252464 
L 68.698595 171.312319 
L 68.952485 174.298882 
L 69.460265 170.831316 
L 69.714156 171.677584 
L 69.968046 171.666399 
L 70.221936 173.326192 
L 70.475826 167.166574 
L 70.729717 170.926391 
L 70.983607 170.392695 
L 71.237497 170.75102 
L 71.491387 166.958149 
L 71.745278 164.856291 
L 71.999168 164.569542 
L 72.253058 165.839515 
L 72.506948 165.569304 
L 72.760839 162.286225 
L 73.014729 162.822416 
L 73.268619 162.907165 
L 73.522509 159.988805 
L 73.7764 159.712552 
L 74.03029 157.320809 
L 74.28418 157.201453 
L 74.53807 154.254049 
L 74.791961 154.195224 
L 75.045851 154.960168 
L 75.299741 154.720771 
L 75.553632 155.160255 
L 75.807522 156.030976 
L 76.315302 159.499634 
L 76.569193 159.741158 
L 76.823083 161.489619 
L 77.076973 160.360749 
L 77.330863 161.15854 
L 77.584754 162.674992 
L 77.838644 161.674469 
L 78.092534 162.514248 
L 78.346424 162.311563 
L 78.600315 163.550873 
L 78.854205 159.869532 
L 79.615876 164.075156 
L 79.869766 161.177502 
L 80.123656 160.639179 
L 80.377546 159.386847 
L 80.885327 160.811054 
L 81.139217 160.825623 
L 81.393107 161.55549 
L 81.646998 161.724571 
L 81.900888 163.131785 
L 82.154778 163.781214 
L 82.408668 164.807156 
L 82.916449 163.051152 
L 83.170339 163.128606 
L 83.424229 163.905529 
L 83.67812 163.452676 
L 83.93201 163.640603 
L 84.1859 161.585922 
L 84.43979 161.47317 
L 84.693681 162.744703 
L 84.947571 161.355146 
L 85.201461 161.017747 
L 85.455351 162.156234 
L 85.709242 161.196395 
L 85.963132 161.163025 
L 86.217022 160.491739 
L 86.470912 161.106711 
L 86.724803 160.154821 
L 87.232583 161.635449 
L 87.486473 160.765224 
L 87.994254 160.485564 
L 88.248144 160.846627 
L 88.502034 160.786087 
L 88.755925 160.871622 
L 89.009815 160.00654 
L 89.263705 160.044262 
L 89.517595 160.294482 
L 89.771486 161.474522 
L 90.025376 161.173464 
L 90.279266 162.7833 
L 90.533156 162.897615 
L 90.787047 164.472301 
L 91.040937 165.071497 
L 91.294827 163.914669 
L 91.548717 164.524689 
L 91.802608 165.55666 
L 92.056498 164.577958 
L 92.310388 164.336579 
L 92.564279 163.424228 
L 92.818169 163.317806 
L 93.072059 162.837919 
L 93.325949 163.301935 
L 93.57984 163.436293 
L 94.08762 164.390703 
L 94.34151 164.149241 
L 94.595401 163.295621 
L 94.849291 164.194604 
L 95.103181 163.25494 
L 95.610962 163.480709 
L 95.864852 164.119414 
L 96.118742 163.796502 
L 96.372632 164.556868 
L 96.626523 163.772906 
L 96.880413 164.214226 
L 97.134303 164.012527 
L 97.388193 164.493295 
L 97.642084 164.365893 
L 97.895974 165.018081 
L 98.149864 164.648389 
L 98.403754 164.784538 
L 98.657645 163.485217 
L 98.911535 163.029259 
L 99.165425 161.610979 
L 99.419315 161.209712 
L 99.673206 161.445888 
L 99.927096 161.514885 
L 100.434876 162.933075 
L 100.688767 163.076666 
L 100.942657 162.940593 
L 101.196547 163.308251 
L 101.450437 162.88577 
L 101.958218 161.399769 
L 102.212108 161.340378 
L 102.719889 162.494961 
L 102.973779 161.991298 
L 103.227669 162.132851 
L 103.481559 163.238701 
L 103.73545 163.252978 
L 103.98934 164.491398 
L 104.24323 164.271999 
L 104.49712 163.147414 
L 104.751011 162.985357 
L 105.004901 163.020457 
L 105.512681 163.74977 
L 105.766572 162.787643 
L 106.020462 163.182704 
L 106.274352 163.368938 
L 107.289913 165.053242 
L 107.543803 166.038342 
L 107.797694 165.410909 
L 108.051584 165.106992 
L 108.559365 166.16343 
L 108.813255 165.380583 
L 109.321035 165.706095 
L 109.828816 164.905506 
L 110.336596 165.622758 
L 110.590487 166.134355 
L 110.844377 166.93621 
L 111.098267 167.125613 
L 111.352157 167.577032 
L 111.606048 167.416031 
L 111.859938 168.163778 
L 112.113828 167.891065 
L 112.367718 167.806745 
L 112.875499 167.356223 
L 113.129389 167.555501 
L 113.383279 168.094281 
L 113.63717 168.173366 
L 113.89106 168.466511 
L 114.14495 168.285671 
L 114.39884 167.541518 
L 114.906621 167.292297 
L 115.160511 166.686913 
L 115.414401 166.589205 
L 115.668292 167.044363 
L 116.429962 165.667384 
L 116.683853 165.994831 
L 116.937743 165.909254 
L 117.191633 165.682318 
L 117.445523 165.16949 
L 117.699414 165.17216 
L 118.714975 166.136554 
L 119.222755 166.018563 
L 119.476645 165.57569 
L 119.730536 165.892017 
L 119.984426 164.555538 
L 120.238316 164.321382 
L 120.492206 164.715601 
L 120.746097 164.861716 
L 121.253877 164.181407 
L 121.761658 163.024397 
L 122.015548 163.20846 
L 122.523328 162.487634 
L 122.777219 162.573987 
L 123.031109 162.418278 
L 123.284999 161.838221 
L 123.79278 162.016302 
L 124.04667 162.639557 
L 124.30056 161.753117 
L 124.808341 161.614264 
L 125.062231 161.175266 
L 125.316121 160.974452 
L 125.570012 160.948846 
L 126.585573 162.368593 
L 127.347243 163.17431 
L 127.855024 163.13734 
L 128.362804 163.975993 
L 128.616695 163.587607 
L 128.870585 163.852324 
L 129.124475 163.680248 
L 129.378365 163.661606 
L 129.886146 164.416932 
L 130.393926 163.21592 
L 130.647817 162.755081 
L 130.901707 163.16222 
L 131.155597 163.13007 
L 131.409487 163.286415 
L 131.663378 163.286377 
L 131.917268 162.698353 
L 132.171158 162.779342 
L 132.425048 162.196952 
L 133.186719 163.402613 
L 133.440609 163.489692 
L 133.6945 163.869143 
L 133.94839 163.789668 
L 134.20228 164.239821 
L 134.45617 163.717542 
L 134.710061 164.443026 
L 134.963951 164.357997 
L 135.217841 164.568661 
L 135.471731 164.414566 
L 135.725622 164.762053 
L 135.979512 164.657663 
L 136.233402 164.307607 
L 136.487292 164.272483 
L 136.741183 164.118953 
L 136.995073 163.791055 
L 137.248963 163.854339 
L 137.502853 163.665271 
L 137.756744 163.6421 
L 138.264524 163.217188 
L 139.280085 163.24202 
L 139.533975 163.460112 
L 139.787866 163.422035 
L 140.041756 163.685421 
L 140.549536 164.745191 
L 140.803427 164.946912 
L 141.057317 164.554528 
L 141.565098 164.891275 
L 141.818988 164.57022 
L 142.326768 165.136289 
L 142.580659 164.570752 
L 142.834549 164.964267 
L 143.088439 164.085379 
L 143.59622 164.663976 
L 143.85011 164.575152 
L 144.104 164.31212 
L 144.611781 164.992428 
L 145.373451 164.853585 
L 145.627342 164.662441 
L 145.881232 164.676222 
L 146.135122 165.068892 
L 146.389012 165.11127 
L 146.642903 165.267257 
L 146.896793 165.226831 
L 147.150683 165.567904 
L 147.404573 165.45474 
L 147.658464 165.60174 
L 147.912354 165.892934 
L 148.674025 166.027082 
L 149.181805 166.832337 
L 149.435695 166.714729 
L 149.689586 167.164182 
L 149.943476 166.517996 
L 150.197366 166.447232 
L 150.451256 166.610967 
L 150.705147 166.388372 
L 151.212927 167.077599 
L 151.466817 166.704836 
L 151.720708 165.998836 
L 151.974598 166.420242 
L 152.228488 166.484474 
L 152.736269 167.668888 
L 152.990159 167.787082 
L 153.244049 168.130159 
L 153.497939 168.26409 
L 154.25961 167.242311 
L 154.5135 167.034416 
L 155.275171 167.499205 
L 155.529061 166.772543 
L 155.782952 167.018599 
L 156.036842 167.001795 
L 156.290732 167.333166 
L 156.544622 166.948994 
L 156.798513 166.973867 
L 157.052403 166.852279 
L 157.306293 166.315959 
L 158.067964 166.013971 
L 158.575745 166.080055 
L 158.829635 165.780611 
L 159.083525 164.774285 
L 159.337415 164.489843 
L 159.845196 164.430566 
L 160.606867 163.265848 
L 161.114647 163.243565 
L 161.368537 163.008771 
L 161.622428 163.027847 
L 161.876318 162.919626 
L 162.130208 162.276739 
L 162.384098 162.411694 
L 162.891879 162.383975 
L 163.65355 162.874963 
L 163.90744 162.686562 
L 164.16133 163.158758 
L 164.669111 163.582593 
L 164.923001 164.024843 
L 165.430781 163.283577 
L 165.684672 163.332456 
L 165.938562 162.864331 
L 166.192452 162.819244 
L 166.446342 162.986508 
L 166.700233 162.914461 
L 166.954123 163.315661 
L 167.208013 163.264081 
L 167.461903 163.509552 
L 167.715794 163.220643 
L 167.969684 163.195755 
L 168.477464 162.898123 
L 168.731355 162.455127 
L 168.985245 162.491092 
L 169.239135 162.263509 
L 169.493025 162.612937 
L 169.746916 162.718631 
L 170.000806 162.406736 
L 170.762477 163.160808 
L 171.016367 163.261303 
L 171.270257 162.98684 
L 171.524147 162.941442 
L 171.778038 162.432695 
L 172.031928 162.271482 
L 172.285818 162.683496 
L 172.793599 162.551386 
L 173.047489 162.094235 
L 173.55527 161.656697 
L 173.80916 161.948874 
L 174.06305 161.660946 
L 174.31694 162.102608 
L 174.570831 162.04726 
L 174.824721 162.419472 
L 175.078611 163.039681 
L 175.332501 162.77349 
L 175.586392 163.400423 
L 176.348062 163.870058 
L 176.601953 163.808947 
L 176.855843 163.418589 
L 177.363623 163.114096 
L 177.617514 162.378229 
L 177.871404 162.810857 
L 178.125294 162.81969 
L 178.379184 162.593694 
L 178.633075 163.119236 
L 178.886965 163.151113 
L 179.140855 162.773037 
L 179.394745 162.912206 
L 179.648636 162.785217 
L 179.902526 162.471236 
L 180.156416 162.627569 
L 180.410306 162.394813 
L 181.171977 162.216778 
L 182.187538 163.02311 
L 182.441428 162.970967 
L 182.695319 162.538426 
L 183.203099 162.550083 
L 183.456989 162.856458 
L 183.96477 163.069112 
L 184.21866 163.243901 
L 184.47255 163.257139 
L 184.726441 163.415084 
L 184.980331 163.100258 
L 185.234221 163.089332 
L 185.488111 162.918924 
L 185.742002 163.050932 
L 186.249782 163.762458 
L 187.011453 163.566768 
L 187.265343 163.334247 
L 187.519233 163.555715 
L 187.773124 163.262422 
L 188.788685 163.049851 
L 189.296465 162.736876 
L 189.550355 163.049068 
L 189.804246 162.814868 
L 190.058136 162.927482 
L 190.312026 162.761046 
L 190.565917 162.225965 
L 190.819807 162.562698 
L 191.073697 162.562469 
L 191.327587 162.363466 
L 191.581478 162.406423 
L 192.089258 162.154475 
L 192.343148 162.408402 
L 192.597039 162.002575 
L 193.104819 161.926213 
L 193.358709 161.600264 
L 193.6126 161.480452 
L 193.86649 161.847737 
L 194.12038 161.767558 
L 194.628161 162.362263 
L 194.882051 162.626008 
L 195.135941 162.022876 
L 195.389831 162.018477 
L 195.643722 162.537423 
L 195.897612 162.300714 
L 196.151502 162.277653 
L 196.405392 161.786174 
L 196.913173 162.11001 
L 197.167063 161.918679 
L 197.420953 162.039918 
L 197.674844 162.291101 
L 197.928734 162.320514 
L 198.182624 162.677402 
L 198.436514 162.783272 
L 198.944295 162.638985 
L 199.198185 162.319969 
L 199.452075 162.285443 
L 199.705966 161.918373 
L 199.959856 162.052932 
L 200.213746 161.641816 
L 200.467636 161.660039 
L 200.721527 161.509349 
L 200.975417 160.988808 
L 201.990978 161.272121 
L 202.244868 161.158772 
L 202.498758 161.553827 
L 202.752649 161.282743 
L 203.260429 161.200633 
L 203.76821 161.368246 
L 204.0221 161.297539 
L 204.52988 161.523595 
L 204.783771 161.289395 
L 205.037661 161.480009 
L 205.545441 161.378876 
L 205.799332 161.588419 
L 206.053222 161.567391 
L 206.307112 161.288283 
L 206.814893 161.164497 
L 207.322673 161.115594 
L 207.576564 161.190981 
L 208.084344 161.137824 
L 208.338234 161.266642 
L 208.592125 161.160454 
L 208.846015 160.910865 
L 209.099905 161.158142 
L 209.353795 161.006513 
L 209.607686 161.188775 
L 209.861576 160.986932 
L 210.115466 161.252054 
L 210.369356 161.334962 
L 210.623247 161.088672 
L 212.146588 161.322071 
L 212.400478 161.293449 
L 212.654369 161.104278 
L 213.162149 161.241555 
L 213.66993 161.926648 
L 214.17771 162.024799 
L 214.685491 162.245675 
L 214.939381 162.188177 
L 215.193271 161.880244 
L 215.447161 162.129717 
L 215.954942 162.363899 
L 216.208832 162.159628 
L 216.970503 162.307564 
L 217.224393 162.624782 
L 217.732174 162.519045 
L 218.239954 162.844048 
L 218.493844 162.554536 
L 218.747735 162.704635 
L 219.001625 162.419791 
L 219.509405 162.749742 
L 220.017186 162.51055 
L 220.271076 162.980507 
L 220.524966 162.801441 
L 221.286637 162.975006 
L 221.540527 162.95657 
L 221.794418 163.065443 
L 222.048308 162.645335 
L 222.556089 162.730199 
L 223.317759 162.154668 
L 223.57165 162.145247 
L 223.82554 162.30947 
L 224.07943 162.326787 
L 224.33332 162.128482 
L 224.587211 162.237125 
L 224.841101 162.503077 
L 225.094991 162.227917 
L 225.348881 162.326984 
L 225.602772 162.301688 
L 226.110552 162.510522 
L 226.872223 162.480833 
L 227.126113 162.753809 
L 227.887784 162.392086 
L 228.141674 161.873986 
L 228.903345 161.812315 
L 229.157235 161.558415 
L 229.411125 161.523355 
L 229.665016 161.765836 
L 229.918906 161.688649 
L 230.934467 162.207836 
L 231.442247 161.77437 
L 231.696138 161.879303 
L 232.203918 162.475235 
L 232.965589 163.02018 
L 233.473369 162.705455 
L 233.72726 162.279883 
L 234.742821 162.25259 
L 235.758382 162.619291 
L 236.012272 162.481028 
L 236.266162 162.774368 
L 236.773943 162.391725 
L 237.027833 162.473062 
L 238.043394 162.259963 
L 238.297284 162.454859 
L 238.551174 162.349181 
L 238.805065 162.674243 
L 239.058955 162.663741 
L 239.312845 162.527093 
L 239.566736 162.662794 
L 239.820626 162.638688 
L 240.074516 162.931339 
L 240.328406 162.768779 
L 240.836187 162.714538 
L 241.090077 162.946742 
L 241.343967 162.956198 
L 241.597858 162.845184 
L 241.851748 162.353417 
L 242.105638 162.46006 
L 243.121199 162.297679 
L 243.375089 162.431122 
L 243.62898 162.786896 
L 243.88287 162.649037 
L 244.13676 162.809483 
L 244.39065 162.808905 
L 244.898431 163.022648 
L 245.406211 162.892063 
L 245.660102 162.514865 
L 245.913992 162.629934 
L 246.167882 162.350006 
L 246.421772 162.609612 
L 246.675663 162.632418 
L 246.929553 162.526396 
L 247.183443 162.717565 
L 247.437333 162.214987 
L 247.691224 162.316808 
L 247.945114 162.169132 
L 248.199004 162.383609 
L 248.452894 162.7878 
L 248.706785 162.676304 
L 249.214565 162.791957 
L 249.468455 162.562919 
L 249.722346 162.587613 
L 249.976236 162.443932 
L 250.484016 162.552113 
L 250.737907 162.875007 
L 250.991797 162.89553 
L 251.245687 162.664959 
L 252.007358 162.464255 
L 252.261248 162.628316 
L 252.769029 162.522227 
L 253.022919 162.308089 
L 253.276809 162.574125 
L 253.530699 162.360397 
L 254.03848 162.581395 
L 254.29237 162.332935 
L 255.054041 162.326638 
L 255.307931 162.387755 
L 255.561822 162.265601 
L 256.069602 162.690825 
L 256.323492 162.544635 
L 256.831273 162.615273 
L 257.085163 162.384851 
L 257.339053 162.388145 
L 257.846834 162.094993 
L 258.100724 162.051582 
L 258.354614 161.819563 
L 258.608505 161.832644 
L 259.370175 162.216926 
L 259.624066 162.609206 
L 260.385736 163.083908 
L 260.639627 163.363666 
L 261.147407 163.367035 
L 261.401297 163.280863 
L 261.655188 163.059563 
L 262.416858 163.200497 
L 262.924639 162.926381 
L 263.432419 163.207497 
L 263.9402 163.604294 
L 264.44798 163.711584 
L 264.955761 163.640543 
L 265.209651 163.570714 
L 265.717432 163.766213 
L 265.971322 163.53271 
L 266.225212 163.548829 
L 266.479102 163.691046 
L 266.732993 163.440263 
L 266.986883 163.367668 
L 267.494663 163.08953 
L 267.748554 162.904562 
L 268.256334 162.982792 
L 268.510224 162.765704 
L 268.764115 162.835373 
L 269.018005 162.739632 
L 269.779676 162.887037 
L 270.033566 163.155231 
L 270.541346 162.853248 
L 271.810798 162.910704 
L 272.064688 162.784424 
L 273.334139 163.233558 
L 273.58803 163.15282 
L 273.84192 163.361797 
L 274.3497 163.367534 
L 275.619152 163.438772 
L 275.873042 163.386774 
L 276.380822 163.136455 
L 276.634713 163.283885 
L 277.142493 163.191148 
L 277.396383 163.092503 
L 277.650274 163.221254 
L 278.411944 163.053512 
L 278.665835 163.228492 
L 278.919725 163.209164 
L 279.681396 163.616286 
L 279.935286 163.834701 
L 280.443066 163.91155 
L 280.950847 163.793784 
L 281.204737 163.494791 
L 281.458627 163.377426 
L 282.220298 163.746746 
L 282.474188 163.619776 
L 282.728079 163.812244 
L 283.235859 163.612149 
L 283.489749 163.818235 
L 283.74364 163.769753 
L 284.25142 164.083794 
L 284.50531 164.278283 
L 285.266981 164.397399 
L 286.028652 164.754247 
L 286.282542 164.718654 
L 286.536432 164.430759 
L 286.790323 164.642403 
L 287.044213 164.484439 
L 287.551993 164.516101 
L 287.805884 164.756522 
L 288.313664 164.701046 
L 288.821445 164.839704 
L 289.075335 164.737321 
L 289.583116 164.3733 
L 290.344786 164.144472 
L 290.598677 164.213772 
L 290.852567 163.93476 
L 291.614238 163.685064 
L 292.122018 163.993904 
L 292.375908 164.092329 
L 292.629799 163.823135 
L 292.883689 163.988862 
L 293.391469 163.946649 
L 294.15314 164.228373 
L 294.40703 164.169372 
L 294.660921 164.40685 
L 294.914811 164.284139 
L 295.168701 164.550169 
L 295.676482 164.700083 
L 296.692043 163.933689 
L 296.945933 164.169314 
L 297.199823 164.037391 
L 297.961494 164.260702 
L 298.215384 164.19937 
L 298.723165 164.445132 
L 299.230945 164.513037 
L 299.484835 164.652942 
L 299.992616 164.66667 
L 300.246506 164.642015 
L 300.500396 164.95708 
L 300.754287 164.819303 
L 301.008177 164.847802 
L 301.262067 165.091946 
L 301.769848 165.10669 
L 302.023738 165.353934 
L 302.277628 165.074583 
L 302.785409 164.852125 
L 303.293189 164.950888 
L 303.547079 165.259802 
L 304.05486 165.262035 
L 304.30875 165.069469 
L 304.816531 165.087646 
L 306.339872 165.090293 
L 306.593763 165.269777 
L 306.847653 165.171565 
L 307.101543 165.370478 
L 308.370994 165.472706 
L 308.370994 165.472706 
" clip-path="url(#p63c43b0428)" style="fill: none; stroke: #0f4d92; stroke-opacity: 0.9; stroke-width: 0.8; stroke-linecap: square"/>
   </g>
   <g id="line2d_30">
    <path d="M 42.052813 165.472706 
L 321.052813 165.472706 
" clip-path="url(#p63c43b0428)" style="fill: none; stroke-dasharray: 2.22,0.96; stroke-dashoffset: 0; stroke: #767676; stroke-width: 0.6"/>
   </g>
   <g id="patch_3">
    <path d="M 42.052813 192.706828 
L 42.052813 15.298828 
" style="fill: none; stroke: #000000; stroke-width: 0.8; stroke-linejoin: miter; stroke-linecap: square"/>
   </g>
   <g id="patch_4">
    <path d="M 42.052813 192.706828 
L 321.052813 192.706828 
" style="fill: none; stroke: #000000; stroke-width: 0.8; stroke-linejoin: miter; stroke-linecap: square"/>
   </g>
   <g id="text_17">
    <text style="font-weight: 700; font-size: 7.5px; font-family: 'DejaVu Sans', 'Arial', 'Helvetica', sans-serif; text-anchor: middle" x="181.552813" y="9.298828" transform="rotate(-0 181.552813 9.298828)">Monte Carlo Convergence</text>
   </g>
   <g id="legend_1">
    <g id="line2d_31">
     <path d="M 262.008125 23.157891 
L 268.008125 23.157891 
L 274.008125 23.157891 
" style="fill: none; stroke-dasharray: 2.22,0.96; stroke-dashoffset: 0; stroke: #767676; stroke-width: 0.6"/>
    </g>
    <g id="text_18">
     <text style="font-size: 6px; font-family: 'DejaVu Sans', 'Arial', 'Helvetica', sans-serif; text-anchor: start" x="278.808125" y="25.257891" transform="rotate(-0 278.808125 25.257891)">Final: 20947</text>
    </g>
   </g>
  </g>
 </g>
 <defs>
  <clipPath id="p63c43b0428">
   <rect x="42.052813" y="15.298828" width="279" height="177.408"/>
  </clipPath>
 </defs>
</svg>
