<?xml version="1.0" encoding="utf-8" standalone="no"?>
<!DOCTYPE svg PUBLIC "-//W3C//DTD SVG 1.1//EN"
  "http://www.w3.org/Graphics/SVG/1.1/DTD/svg11.dtd">
<svg xmlns:xlink="http://www.w3.org/1999/xlink" width="324.652812pt" height="220.372297pt" viewBox="0 0 324.652812 220.372297" xmlns="http://www.w3.org/2000/svg" version="1.1">
 <metadata>
  <rdf:RDF xmlns:dc="http://purl.org/dc/elements/1.1/" xmlns:cc="http://creativecommons.org/ns#" xmlns:rdf="http://www.w3.org/1999/02/22-rdf-syntax-ns#">
   <cc:Work>
    <dc:type rdf:resource="http://purl.org/dc/dcmitype/StillImage"/>
    <dc:date>2026-05-21T19:12:55.585045</dc:date>
    <dc:format>image/svg+xml</dc:format>
    <dc:creator>
     <cc:Agent>
      <dc:title>Matplotlib v3.10.0, https://matplotlib.org/</dc:title>
     </cc:Agent>
    </dc:creator>
   </cc:Work>
  </rdf:RDF>
 </metadata>
 <defs>
  <style type="text/css">*{stroke-linejoin: round; stroke-linecap: butt}</style>
 </defs>
 <g id="figure_1">
  <g id="patch_1">
   <path d="M 0 220.372297 
L 324.652812 220.372297 
L 324.652812 0 
L 0 0 
z
" style="fill: #ffffff"/>
  </g>
  <g id="axes_1">
   <g id="patch_2">
    <path d="M 42.052813 192.706828 
L 321.052813 192.706828 
L 321.052813 15.298828 
L 42.052813 15.298828 
z
" style="fill: #ffffff"/>
   </g>
   <g id="matplotlib.axis_1">
    <g id="xtick_1">
     <g id="line2d_1">
      <path d="M 54.734631 192.706828 
L 54.734631 15.298828 
" clip-path="url(#p42a1232a2c)" style="fill: none; stroke-dasharray: 1.11,0.48; stroke-dashoffset: 0; stroke: #b0b0b0; stroke-opacity: 0.3; stroke-width: 0.3"/>
     </g>
     <g id="line2d_2">
      <defs>
       <path id="m0a4af597c4" d="M 0 0 
L 0 3.5 
" style="stroke: #000000; stroke-width: 0.8"/>
      </defs>
      <g>
       <use xlink:href="#m0a4af597c4" x="54.734631" y="192.706828" style="stroke: #000000; stroke-width: 0.8"/>
      </g>
     </g>
     <g id="text_1">
      <text style="font-size: 6.5px; font-family: 'DejaVu Sans', 'Arial', 'Helvetica', sans-serif; text-anchor: middle" x="54.734631" y="204.645812" transform="rotate(-0 54.734631 204.645812)">0</text>
     </g>
    </g>
    <g id="xtick_2">
     <g id="line2d_3">
      <path d="M 105.512681 192.706828 
L 105.512681 15.298828 
" clip-path="url(#p42a1232a2c)" style="fill: none; stroke-dasharray: 1.11,0.48; stroke-dashoffset: 0; stroke: #b0b0b0; stroke-opacity: 0.3; stroke-width: 0.3"/>
     </g>
     <g id="line2d_4">
      <g>
       <use xlink:href="#m0a4af597c4" x="105.512681" y="192.706828" style="stroke: #000000; stroke-width: 0.8"/>
      </g>
     </g>
     <g id="text_2">
      <text style="font-size: 6.5px; font-family: 'DejaVu Sans', 'Arial', 'Helvetica', sans-serif; text-anchor: middle" x="105.512681" y="204.645812" transform="rotate(-0 105.512681 204.645812)">200</text>
     </g>
    </g>
    <g id="xtick_3">
     <g id="line2d_5">
      <path d="M 156.290732 192.706828 
L 156.290732 15.298828 
" clip-path="url(#p42a1232a2c)" style="fill: none; stroke-dasharray: 1.11,0.48; stroke-dashoffset: 0; stroke: #b0b0b0; stroke-opacity: 0.3; stroke-width: 0.3"/>
     </g>
     <g id="line2d_6">
      <g>
       <use xlink:href="#m0a4af597c4" x="156.290732" y="192.706828" style="stroke: #000000; stroke-width: 0.8"/>
      </g>
     </g>
     <g id="text_3">
      <text style="font-size: 6.5px; font-family: 'DejaVu Sans', 'Arial', 'Helvetica', sans-serif; text-anchor: middle" x="156.290732" y="204.645812" transform="rotate(-0 156.290732 204.645812)">400</text>
     </g>
    </g>
    <g id="xtick_4">
     <g id="line2d_7">
      <path d="M 207.068783 192.706828 
L 207.068783 15.298828 
" clip-path="url(#p42a1232a2c)" style="fill: none; stroke-dasharray: 1.11,0.48; stroke-dashoffset: 0; stroke: #b0b0b0; stroke-opacity: 0.3; stroke-width: 0.3"/>
     </g>
     <g id="line2d_8">
      <g>
       <use xlink:href="#m0a4af597c4" x="207.068783" y="192.706828" style="stroke: #000000; stroke-width: 0.8"/>
      </g>
     </g>
     <g id="text_4">
      <text style="font-size: 6.5px; font-family: 'DejaVu Sans', 'Arial', 'Helvetica', sans-serif; text-anchor: middle" x="207.068783" y="204.645812" transform="rotate(-0 207.068783 204.645812)">600</text>
     </g>
    </g>
    <g id="xtick_5">
     <g id="line2d_9">
      <path d="M 257.846834 192.706828 
L 257.846834 15.298828 
" clip-path="url(#p42a1232a2c)" style="fill: none; stroke-dasharray: 1.11,0.48; stroke-dashoffset: 0; stroke: #b0b0b0; stroke-opacity: 0.3; stroke-width: 0.3"/>
     </g>
     <g id="line2d_10">
      <g>
       <use xlink:href="#m0a4af597c4" x="257.846834" y="192.706828" style="stroke: #000000; stroke-width: 0.8"/>
      </g>
     </g>
     <g id="text_5">
      <text style="font-size: 6.5px; font-family: 'DejaVu Sans', 'Arial', 'Helvetica', sans-serif; text-anchor: middle" x="257.846834" y="204.645812" transform="rotate(-0 257.846834 204.645812)">800</text>
     </g>
    </g>
    <g id="xtick_6">
     <g id="line2d_11">
      <path d="M 308.624885 192.706828 
L 308.624885 15.298828 
" clip-path="url(#p42a1232a2c)" style="fill: none; stroke-dasharray: 1.11,0.48; stroke-dashoffset: 0; stroke: #b0b0b0; stroke-opacity: 0.3; stroke-width: 0.3"/>
     </g>
     <g id="line2d_12">
      <g>
       <use xlink:href="#m0a4af597c4" x="308.624885" y="192.706828" style="stroke: #000000; stroke-width: 0.8"/>
      </g>
     </g>
     <g id="text_6">
      <text style="font-size: 6.5px; font-family: 'DejaVu Sans', 'Arial', 'Helvetica', sans-serif; text-anchor: middle" x="308.624885" y="204.645812" transform="rotate(-0 308.624885 204.645812)">1000</text>
     </g>
    </g>
    <g id="text_7">
     <text style="font-size: 7px; font-family: 'DejaVu Sans', 'Arial', 'Helvetica', sans-serif; text-anchor: middle" x="181.552813" y="215.316516" transform="rotate(-0 181.552813 215.316516)">Simulation Count</text>
    </g>
   </g>
   <g id="matplotlib.axis_2">
    <g id="ytick_1">
     <g id="line2d_13">
      <path d="M 42.052813 184.317866 
L 321.052813 184.317866 
" clip-path="url(#p42a1232a2c)" style="fill: none; stroke-dasharray: 1.11,0.48; stroke-dashoffset: 0; stroke: #b0b0b0; stroke-opacity: 0.3; stroke-width: 0.3"/>
     </g>
     <g id="line2d_14">
      <defs>
       <path id="m9a56fc9138" d="M 0 0 
L -3.5 0 
" style="stroke: #000000; stroke-width: 0.8"/>
      </defs>
      <g>
       <use xlink:href="#m9a56fc9138" x="42.052813" y="184.317866" style="stroke: #000000; stroke-width: 0.8"/>
      </g>
     </g>
     <g id="text_8">
      <text style="font-size: 6.5px; font-family: 'DejaVu Sans', 'Arial', 'Helvetica', sans-serif; text-anchor: end" x="35.052813" y="186.787358" transform="rotate(-0 35.052813 186.787358)">22250</text>
     </g>
    </g>
    <g id="ytick_2">
     <g id="line2d_15">
      <path d="M 42.052813 161.811201 
L 321.052813 161.811201 
" clip-path="url(#p42a1232a2c)" style="fill: none; stroke-dasharray: 1.11,0.48; stroke-dashoffset: 0; stroke: #b0b0b0; stroke-opacity: 0.3; stroke-width: 0.3"/>
     </g>
     <g id="line2d_16">
      <g>
       <use xlink:href="#m9a56fc9138" x="42.052813" y="161.811201" style="stroke: #000000; stroke-width: 0.8"/>
      </g>
     </g>
     <g id="text_9">
      <text style="font-size: 6.5px; font-family: 'DejaVu Sans', 'Arial', 'Helvetica', sans-serif; text-anchor: end" x="35.052813" y="164.280693" transform="rotate(-0 35.052813 164.280693)">22500</text>
     </g>
    </g>
    <g id="ytick_3">
     <g id="line2d_17">
      <path d="M 42.052813 139.304536 
L 321.052813 139.304536 
" clip-path="url(#p42a1232a2c)" style="fill: none; stroke-dasharray: 1.11,0.48; stroke-dashoffset: 0; stroke: #b0b0b0; stroke-opacity: 0.3; stroke-width: 0.3"/>
     </g>
     <g id="line2d_18">
      <g>
       <use xlink:href="#m9a56fc9138" x="42.052813" y="139.304536" style="stroke: #000000; stroke-width: 0.8"/>
      </g>
     </g>
     <g id="text_10">
      <text style="font-size: 6.5px; font-family: 'DejaVu Sans', 'Arial', 'Helvetica', sans-serif; text-anchor: end" x="35.052813" y="141.774028" transform="rotate(-0 35.052813 141.774028)">22750</text>
     </g>
    </g>
    <g id="ytick_4">
     <g id="line2d_19">
      <path d="M 42.052813 116.797871 
L 321.052813 116.797871 
" clip-path="url(#p42a1232a2c)" style="fill: none; stroke-dasharray: 1.11,0.48; stroke-dashoffset: 0; stroke: #b0b0b0; stroke-opacity: 0.3; stroke-width: 0.3"/>
     </g>
     <g id="line2d_20">
      <g>
       <use xlink:href="#m9a56fc9138" x="42.052813" y="116.797871" style="stroke: #000000; stroke-width: 0.8"/>
      </g>
     </g>
     <g id="text_11">
      <text style="font-size: 6.5px; font-family: 'DejaVu Sans', 'Arial', 'Helvetica', sans-serif; text-anchor: end" x="35.052813" y="119.267364" transform="rotate(-0 35.052813 119.267364)">23000</text>
     </g>
    </g>
    <g id="ytick_5">
     <g id="line2d_21">
      <path d="M 42.052813 94.291206 
L 321.052813 94.291206 
" clip-path="url(#p42a1232a2c)" style="fill: none; stroke-dasharray: 1.11,0.48; stroke-dashoffset: 0; stroke: #b0b0b0; stroke-opacity: 0.3; stroke-width: 0.3"/>
     </g>
     <g id="line2d_22">
      <g>
       <use xlink:href="#m9a56fc9138" x="42.052813" y="94.291206" style="stroke: #000000; stroke-width: 0.8"/>
      </g>
     </g>
     <g id="text_12">
      <text style="font-size: 6.5px; font-family: 'DejaVu Sans', 'Arial', 'Helvetica', sans-serif; text-anchor: end" x="35.052813" y="96.760699" transform="rotate(-0 35.052813 96.760699)">23250</text>
     </g>
    </g>
    <g id="ytick_6">
     <g id="line2d_23">
      <path d="M 42.052813 71.784542 
L 321.052813 71.784542 
" clip-path="url(#p42a1232a2c)" style="fill: none; stroke-dasharray: 1.11,0.48; stroke-dashoffset: 0; stroke: #b0b0b0; stroke-opacity: 0.3; stroke-width: 0.3"/>
     </g>
     <g id="line2d_24">
      <g>
       <use xlink:href="#m9a56fc9138" x="42.052813" y="71.784542" style="stroke: #000000; stroke-width: 0.8"/>
      </g>
     </g>
     <g id="text_13">
      <text style="font-size: 6.5px; font-family: 'DejaVu Sans', 'Arial', 'Helvetica', sans-serif; text-anchor: end" x="35.052813" y="74.254034" transform="rotate(-0 35.052813 74.254034)">23500</text>
     </g>
    </g>
    <g id="ytick_7">
     <g id="line2d_25">
      <path d="M 42.052813 49.277877 
L 321.052813 49.277877 
" clip-path="url(#p42a1232a2c)" style="fill: none; stroke-dasharray: 1.11,0.48; stroke-dashoffset: 0; stroke: #b0b0b0; stroke-opacity: 0.3; stroke-width: 0.3"/>
     </g>
     <g id="line2d_26">
      <g>
       <use xlink:href="#m9a56fc9138" x="42.052813" y="49.277877" style="stroke: #000000; stroke-width: 0.8"/>
      </g>
     </g>
     <g id="text_14">
      <text style="font-size: 6.5px; font-family: 'DejaVu Sans', 'Arial', 'Helvetica', sans-serif; text-anchor: end" x="35.052813" y="51.747369" transform="rotate(-0 35.052813 51.747369)">23750</text>
     </g>
    </g>
    <g id="ytick_8">
     <g id="line2d_27">
      <path d="M 42.052813 26.771212 
L 321.052813 26.771212 
" clip-path="url(#p42a1232a2c)" style="fill: none; stroke-dasharray: 1.11,0.48; stroke-dashoffset: 0; stroke: #b0b0b0; stroke-opacity: 0.3; stroke-width: 0.3"/>
     </g>
     <g id="line2d_28">
      <g>
       <use xlink:href="#m9a56fc9138" x="42.052813" y="26.771212" style="stroke: #000000; stroke-width: 0.8"/>
      </g>
     </g>
     <g id="text_15">
      <text style="font-size: 6.5px; font-family: 'DejaVu Sans', 'Arial', 'Helvetica', sans-serif; text-anchor: end" x="35.052813" y="29.240704" transform="rotate(-0 35.052813 29.240704)">24000</text>
     </g>
    </g>
    <g id="text_16">
     <text style="font-size: 7px; font-family: 'DejaVu Sans', 'Arial', 'Helvetica', sans-serif; text-anchor: middle" x="8.918906" y="104.002828" transform="rotate(-90 8.918906 104.002828)">Cumulative Mean Revenue (CNY)</text>
    </g>
   </g>
   <g id="line2d_29">
    <path d="M 54.734631 23.362828 
L 54.988521 47.429741 
L 55.242411 27.964097 
L 55.496301 97.151016 
L 56.257972 140.224836 
L 56.511862 170.966767 
L 56.765753 155.502159 
L 57.019643 156.444778 
L 57.273533 149.304064 
L 57.781314 146.472973 
L 58.035204 140.421305 
L 58.289094 159.921226 
L 58.542984 159.172355 
L 58.796875 155.653308 
L 59.050765 154.03057 
L 59.304655 157.430607 
L 59.558546 153.389613 
L 59.812436 169.907113 
L 60.066326 166.673692 
L 60.827997 183.691196 
L 61.081887 166.142104 
L 61.335777 163.004499 
L 61.843558 175.805536 
L 62.097448 172.774175 
L 62.351338 171.505481 
L 62.605229 164.558549 
L 62.859119 165.553277 
L 63.62079 171.946148 
L 63.87468 178.075384 
L 64.12857 177.790056 
L 64.38246 172.288837 
L 64.636351 174.427448 
L 64.890241 169.829302 
L 65.144131 173.337864 
L 65.398021 174.814426 
L 65.905802 179.603609 
L 66.159692 176.692002 
L 66.413582 179.198477 
L 66.667473 180.285023 
L 66.921363 182.184088 
L 67.429143 180.136306 
L 67.936924 183.808901 
L 68.190814 174.917407 
L 68.698595 168.121991 
L 68.952485 171.798932 
L 69.206375 173.177168 
L 69.460265 167.795307 
L 69.714156 167.183901 
L 69.968046 169.963024 
L 70.221936 174.809656 
L 70.983607 179.993654 
L 71.491387 179.208587 
L 71.745278 183.649461 
L 71.999168 183.822447 
L 72.253058 182.64623 
L 72.506948 182.301018 
L 72.760839 182.895299 
L 73.268619 184.642828 
L 73.522509 180.219398 
L 73.7764 180.192308 
L 74.03029 182.014189 
L 74.28418 181.987147 
L 74.53807 182.203748 
L 74.791961 181.350683 
L 75.045851 181.541181 
L 75.553632 175.253287 
L 75.807522 176.781278 
L 76.315302 171.571795 
L 76.569193 169.812466 
L 76.823083 165.541973 
L 77.076973 163.196073 
L 77.584754 162.869791 
L 77.838644 162.285901 
L 78.092534 162.414061 
L 78.346424 162.241187 
L 78.600315 163.350885 
L 78.854205 165.038633 
L 79.108095 165.238462 
L 79.361985 166.593303 
L 79.615876 166.529841 
L 80.123656 165.022433 
L 80.377546 166.363103 
L 80.631437 164.608539 
L 81.139217 167.390614 
L 81.393107 168.020958 
L 81.900888 164.183887 
L 82.154778 162.697784 
L 82.408668 163.846052 
L 82.662559 162.513616 
L 82.916449 160.447607 
L 83.170339 160.159965 
L 83.424229 160.427654 
L 83.67812 160.926803 
L 83.93201 160.891375 
L 84.1859 159.516215 
L 84.43979 155.694387 
L 84.693681 156.328024 
L 84.947571 156.246439 
L 85.201461 157.244408 
L 85.455351 157.177937 
L 85.709242 159.731097 
L 85.963132 159.684437 
L 86.217022 158.957192 
L 86.470912 158.618665 
L 86.724803 157.080843 
L 86.978693 157.966892 
L 87.232583 160.02593 
L 87.486473 160.739698 
L 87.740364 162.359035 
L 87.994254 162.427096 
L 88.755925 165.255943 
L 89.517595 157.82767 
L 90.025376 160.742374 
L 90.279266 161.718726 
L 90.533156 162.199254 
L 90.787047 163.321652 
L 91.040937 162.69266 
L 91.294827 163.31791 
L 91.548717 163.606914 
L 92.056498 163.463693 
L 92.310388 162.797697 
L 92.564279 161.787793 
L 93.072059 164.986382 
L 93.325949 165.663204 
L 93.57984 165.9883 
L 93.83373 164.471981 
L 94.08762 165.528578 
L 94.34151 164.102804 
L 94.595401 163.577404 
L 95.103181 165.09027 
L 95.357071 165.130938 
L 95.610962 164.098225 
L 95.864852 163.938545 
L 96.118742 164.201171 
L 96.372632 164.971612 
L 96.626523 164.804247 
L 98.403754 158.895873 
L 98.657645 159.229618 
L 98.911535 157.83057 
L 99.165425 157.873242 
L 99.419315 158.4855 
L 99.673206 159.699334 
L 100.180986 160.490889 
L 100.434876 159.884835 
L 100.688767 161.168725 
L 100.942657 161.878917 
L 101.196547 163.509795 
L 101.450437 163.988863 
L 101.704328 164.007589 
L 101.958218 164.801679 
L 102.212108 164.004975 
L 102.719889 165.609948 
L 103.227669 166.148837 
L 103.481559 167.088438 
L 103.98934 165.709238 
L 104.24323 165.650211 
L 104.49712 166.461667 
L 105.004901 166.567591 
L 105.258791 165.125101 
L 105.512681 165.444384 
L 106.020462 164.613479 
L 106.528242 167.245516 
L 106.782133 168.187006 
L 107.036023 167.419738 
L 107.543803 167.921491 
L 108.051584 169.323666 
L 108.305474 169.923514 
L 108.813255 169.125578 
L 109.067145 169.444335 
L 109.321035 169.557888 
L 109.828816 168.830168 
L 110.082706 169.155022 
L 110.336596 168.422369 
L 110.590487 169.738749 
L 111.352157 170.396439 
L 111.606048 170.032873 
L 111.859938 170.883958 
L 112.367718 167.661466 
L 112.621609 166.715528 
L 112.875499 166.781359 
L 113.129389 167.564582 
L 113.89106 168.689426 
L 114.14495 167.885592 
L 114.39884 167.887606 
L 114.906621 167.43431 
L 115.414401 166.07215 
L 115.668292 165.375897 
L 116.176072 164.962578 
L 116.683853 163.460927 
L 116.937743 163.99836 
L 117.191633 163.022501 
L 117.445523 163.494174 
L 117.699414 164.48743 
L 117.953304 164.938175 
L 118.207194 165.731668 
L 118.461084 164.83115 
L 118.714975 164.572917 
L 119.222755 164.972336 
L 119.476645 165.359412 
L 119.730536 165.300343 
L 119.984426 165.687117 
L 120.492206 167.451181 
L 120.746097 167.187511 
L 121.253877 168.806453 
L 121.507767 168.449619 
L 121.761658 168.420941 
L 122.015548 169.294382 
L 122.269438 167.720224 
L 122.523328 167.310292 
L 122.777219 167.638923 
L 123.031109 168.37634 
L 123.284999 168.03619 
L 123.538889 168.166133 
L 123.79278 168.735698 
L 124.04667 167.893243 
L 124.30056 167.581178 
L 125.062231 167.396425 
L 125.316121 166.904502 
L 125.823902 168.137573 
L 126.077792 167.758314 
L 126.331682 167.733622 
L 126.585573 167.413931 
L 126.839463 167.74611 
L 127.093353 168.833543 
L 127.347243 168.718735 
L 127.601134 168.973021 
L 127.855024 168.971019 
L 128.362804 169.273504 
L 128.616695 168.412411 
L 128.870585 169.088637 
L 129.378365 169.490509 
L 129.632256 169.111677 
L 130.140036 170.543565 
L 130.393926 170.476606 
L 130.647817 168.825995 
L 130.901707 167.910728 
L 131.155597 168.055416 
L 131.409487 167.579617 
L 131.663378 167.345381 
L 131.917268 166.861222 
L 132.171158 166.992586 
L 132.425048 166.360697 
L 132.932829 166.747108 
L 133.440609 166.393809 
L 133.94839 167.802221 
L 134.20228 168.402124 
L 134.45617 168.151808 
L 134.710061 168.234738 
L 134.963951 167.954857 
L 135.217841 168.001684 
L 135.471731 168.164108 
L 135.725622 167.990323 
L 135.979512 167.544151 
L 136.233402 167.990358 
L 136.487292 168.084839 
L 136.741183 167.926941 
L 137.502853 169.6727 
L 137.756744 170.153286 
L 138.010634 169.774627 
L 138.264524 170.228281 
L 138.518414 169.597423 
L 138.772305 169.286327 
L 139.026195 169.534356 
L 139.280085 168.777097 
L 139.533975 168.706872 
L 139.787866 169.178904 
L 140.041756 169.06179 
L 140.295646 169.09889 
L 140.803427 168.243411 
L 141.057317 168.511327 
L 141.311207 168.403016 
L 141.565098 168.641861 
L 141.818988 167.595441 
L 142.072878 168.081501 
L 142.326768 169.110361 
L 142.580659 167.837338 
L 143.088439 167.928531 
L 143.342329 168.123398 
L 143.59622 168.07325 
L 144.104 166.783735 
L 144.35789 166.730926 
L 144.611781 167.431707 
L 144.865671 167.010834 
L 145.119561 167.13431 
L 145.373451 166.924283 
L 145.627342 167.36369 
L 145.881232 167.563375 
L 146.135122 168.396194 
L 146.389012 168.471164 
L 146.642903 168.126381 
L 146.896793 168.13381 
L 147.150683 167.774957 
L 147.404573 168.090637 
L 147.658464 167.637434 
L 147.912354 168.076182 
L 148.420134 167.444242 
L 148.674025 166.952162 
L 148.927915 167.320497 
L 149.181805 167.290187 
L 149.689586 167.517416 
L 150.451256 167.411864 
L 150.705147 168.213626 
L 150.959037 168.459488 
L 151.466817 168.452024 
L 151.720708 169.177319 
L 151.974598 168.748473 
L 152.228488 168.897285 
L 152.482378 168.64513 
L 152.736269 168.85314 
L 152.990159 168.42927 
L 153.244049 168.949221 
L 153.497939 168.910854 
L 153.75183 169.150631 
L 154.00572 169.69461 
L 154.25961 169.272413 
L 154.767391 169.800886 
L 155.021281 168.974222 
L 155.275171 169.121958 
L 155.529061 169.645238 
L 155.782952 169.816195 
L 156.036842 169.331726 
L 156.290732 169.473483 
L 156.544622 168.888674 
L 156.798513 168.916734 
L 157.052403 168.542975 
L 157.306293 167.939875 
L 157.814074 167.773147 
L 158.067964 166.879901 
L 158.321854 167.629454 
L 158.575745 167.679855 
L 158.829635 167.178963 
L 159.337415 167.915322 
L 159.591306 167.555737 
L 159.845196 167.425485 
L 160.099086 167.127024 
L 160.606867 166.917696 
L 160.860757 167.244529 
L 161.114647 166.989198 
L 161.368537 167.252161 
L 161.622428 166.593325 
L 161.876318 167.175418 
L 162.130208 167.163921 
L 162.384098 166.875796 
L 162.637989 166.902992 
L 162.891879 167.471127 
L 163.145769 167.039168 
L 163.399659 167.487314 
L 163.65355 167.402142 
L 163.90744 167.505884 
L 164.16133 168.129253 
L 164.41522 167.857562 
L 164.669111 168.20325 
L 164.923001 167.912557 
L 165.176891 167.920454 
L 165.938562 168.408593 
L 166.192452 167.954952 
L 166.700233 168.217351 
L 166.954123 168.626924 
L 167.208013 168.661475 
L 167.461903 168.89016 
L 167.715794 168.789976 
L 167.969684 169.1457 
L 168.223574 169.306953 
L 168.477464 169.247752 
L 168.731355 168.99342 
L 168.985245 169.270925 
L 169.493025 168.385062 
L 169.746916 168.254478 
L 170.000806 167.702199 
L 170.254696 168.226641 
L 170.508586 167.247229 
L 171.016367 166.44934 
L 171.270257 166.827733 
L 172.285818 166.234176 
L 172.539708 166.356952 
L 173.047489 165.646012 
L 173.80916 164.017086 
L 174.570831 164.845252 
L 174.824721 164.441409 
L 175.332501 164.029637 
L 175.586392 164.754285 
L 175.840282 164.832604 
L 176.348062 165.491881 
L 176.601953 165.456685 
L 177.109733 164.784695 
L 177.363623 164.932293 
L 177.617514 164.58822 
L 177.871404 164.684776 
L 178.125294 165.274402 
L 178.379184 165.220414 
L 179.648636 164.192081 
L 179.902526 164.337028 
L 180.156416 163.914186 
L 180.410306 163.862315 
L 180.664197 164.339032 
L 180.918087 164.231604 
L 181.171977 164.9295 
L 181.425867 164.785396 
L 181.679758 164.945851 
L 182.187538 164.014408 
L 183.456989 164.001478 
L 183.71088 164.581053 
L 183.96477 164.664714 
L 184.21866 164.87027 
L 184.47255 164.70063 
L 184.726441 164.756351 
L 184.980331 164.531843 
L 185.488111 164.412213 
L 185.742002 164.708565 
L 186.249782 164.00304 
L 186.503672 162.921205 
L 186.757563 163.044278 
L 187.011453 162.77616 
L 187.265343 162.821654 
L 187.519233 163.08065 
L 188.534794 162.507685 
L 189.042575 162.690591 
L 189.550355 161.416849 
L 189.804246 161.812886 
L 190.058136 161.9572 
L 190.312026 161.744271 
L 191.327587 161.71018 
L 191.581478 162.241676 
L 192.089258 161.931818 
L 192.343148 162.228944 
L 192.850929 161.916765 
L 193.104819 162.02203 
L 193.6126 161.328436 
L 193.86649 161.30314 
L 194.37427 161.830609 
L 194.628161 161.973889 
L 195.135941 161.764701 
L 195.897612 160.362028 
L 196.151502 160.889005 
L 196.405392 160.893575 
L 196.913173 161.256817 
L 197.167063 161.213783 
L 197.420953 161.432377 
L 197.674844 161.50313 
L 197.928734 161.179504 
L 198.182624 161.374391 
L 198.944295 161.031966 
L 199.198185 161.673767 
L 199.705966 161.711191 
L 199.959856 161.552762 
L 200.213746 160.875567 
L 200.467636 160.592741 
L 200.721527 160.503468 
L 200.975417 160.839718 
L 201.229307 160.327532 
L 201.990978 160.403662 
L 202.244868 160.082908 
L 202.498758 160.36259 
L 202.752649 160.212787 
L 203.006539 160.569093 
L 203.76821 160.53435 
L 204.27599 160.720123 
L 204.52988 160.734627 
L 205.037661 160.297593 
L 205.291551 160.411538 
L 205.545441 160.65614 
L 205.799332 160.361966 
L 206.053222 160.303033 
L 206.307112 160.600386 
L 206.814893 160.346903 
L 207.068783 160.862594 
L 207.322673 160.336801 
L 207.576564 160.440355 
L 207.830454 160.389629 
L 208.084344 160.484934 
L 208.338234 160.327198 
L 208.846015 160.376673 
L 209.099905 160.64054 
L 209.607686 160.006185 
L 209.861576 160.023435 
L 210.115466 160.344379 
L 210.369356 160.267114 
L 210.623247 159.941687 
L 210.877137 160.109242 
L 211.131027 160.559193 
L 211.638808 160.63738 
L 212.146588 160.081809 
L 212.908259 160.694757 
L 213.162149 160.520433 
L 213.66993 160.654957 
L 214.4316 159.77113 
L 214.685491 159.950158 
L 214.939381 159.91678 
L 215.701052 160.155192 
L 215.954942 160.450827 
L 216.208832 160.410531 
L 216.462722 160.768477 
L 216.716613 160.739261 
L 216.970503 160.828724 
L 217.478283 161.227336 
L 217.732174 160.900556 
L 217.986064 161.347686 
L 218.239954 160.75543 
L 218.493844 160.936094 
L 218.747735 160.512022 
L 219.255515 160.322408 
L 219.763296 160.770382 
L 220.017186 160.646979 
L 220.271076 160.97058 
L 220.778857 161.274147 
L 221.032747 161.431633 
L 221.286637 161.037151 
L 221.540527 161.208978 
L 221.794418 161.207854 
L 222.048308 161.474508 
L 222.302198 161.40414 
L 222.809979 160.811592 
L 223.063869 161.341671 
L 223.317759 161.601648 
L 223.57165 161.530162 
L 223.82554 161.746403 
L 224.07943 161.461359 
L 224.33332 161.867404 
L 224.587211 161.463021 
L 224.841101 161.851008 
L 225.094991 161.975543 
L 225.348881 161.819525 
L 225.602772 161.997287 
L 225.856662 161.955714 
L 226.110552 162.306656 
L 227.126113 162.594693 
L 227.380003 162.19742 
L 227.633894 162.220203 
L 227.887784 162.487982 
L 228.141674 162.538043 
L 228.649455 162.41868 
L 228.903345 162.074304 
L 229.411125 162.395405 
L 229.665016 162.46862 
L 229.918906 162.789001 
L 230.172796 162.475706 
L 230.426686 162.395179 
L 230.680577 161.835306 
L 231.696138 161.894524 
L 231.950028 161.385215 
L 232.203918 161.537063 
L 232.457808 161.224125 
L 232.711699 161.292638 
L 232.965589 161.712902 
L 233.473369 161.391166 
L 233.72726 161.400898 
L 233.98115 161.272234 
L 234.23504 161.618041 
L 234.48893 161.274279 
L 234.742821 161.240874 
L 235.250601 161.54063 
L 235.504491 161.178369 
L 235.758382 161.366279 
L 236.266162 161.102577 
L 237.027833 160.325925 
L 237.281723 160.327677 
L 238.043394 161.044745 
L 238.297284 161.109099 
L 238.805065 160.622601 
L 239.058955 160.7124 
L 240.328406 160.432263 
L 240.582297 160.174523 
L 241.597858 159.852535 
L 241.851748 160.057621 
L 242.105638 159.736458 
L 242.359528 159.879812 
L 242.867309 159.589294 
L 243.121199 159.783231 
L 243.375089 160.16284 
L 244.13676 160.254363 
L 244.39065 160.749768 
L 244.898431 160.851705 
L 245.152321 160.767569 
L 245.406211 160.85158 
L 245.660102 160.812686 
L 245.913992 161.104198 
L 246.167882 160.768241 
L 246.421772 161.031915 
L 246.675663 160.93733 
L 246.929553 160.964819 
L 247.183443 160.87038 
L 247.437333 160.529656 
L 247.691224 160.549706 
L 248.199004 160.836915 
L 248.452894 160.637961 
L 248.706785 160.699137 
L 249.214565 160.52274 
L 249.468455 160.089527 
L 249.722346 160.556622 
L 249.976236 160.374883 
L 250.484016 160.655663 
L 250.737907 160.223991 
L 251.245687 160.271949 
L 251.753468 159.962501 
L 252.007358 159.862662 
L 252.769029 160.57643 
L 253.78459 160.499395 
L 254.03848 160.220188 
L 254.54626 160.170042 
L 254.800151 160.252404 
L 255.054041 159.961495 
L 255.307931 160.534688 
L 256.069602 160.328976 
L 256.577383 160.48681 
L 256.831273 160.192383 
L 257.085163 160.512076 
L 257.339053 160.495245 
L 257.592944 160.35001 
L 258.354614 160.378473 
L 258.862395 160.670373 
L 259.370175 160.522292 
L 259.624066 160.414106 
L 259.877956 160.505746 
L 260.131846 160.385066 
L 260.385736 160.790551 
L 260.639627 160.902967 
L 261.147407 160.502711 
L 261.909078 160.718069 
L 262.162968 160.520437 
L 262.416858 160.468681 
L 262.924639 161.068417 
L 263.178529 161.170938 
L 263.432419 161.057506 
L 263.68631 161.253769 
L 263.9402 160.799537 
L 264.19409 160.806178 
L 264.44798 161.168863 
L 264.955761 161.058008 
L 265.463541 161.53996 
L 265.717432 161.369013 
L 265.971322 161.370523 
L 266.225212 161.572816 
L 266.479102 162.003118 
L 266.732993 161.890247 
L 266.986883 162.154094 
L 267.240773 161.796987 
L 267.748554 161.630047 
L 268.002444 161.685737 
L 269.018005 161.552792 
L 269.271895 161.080808 
L 269.525785 161.13787 
L 270.287456 160.403975 
L 270.795237 160.737048 
L 271.049127 160.713783 
L 271.303017 160.943248 
L 271.556908 160.726952 
L 271.810798 160.226148 
L 272.064688 160.404412 
L 272.318578 160.04448 
L 272.572469 160.074693 
L 272.826359 160.261898 
L 273.080249 159.935337 
L 273.58803 159.733133 
L 273.84192 159.830017 
L 274.09581 159.545666 
L 274.3497 159.616413 
L 275.111371 159.273712 
L 275.365261 159.523232 
L 275.873042 159.656434 
L 276.126932 159.844841 
L 276.380822 159.815795 
L 276.888603 160.11007 
L 277.142493 160.343748 
L 277.396383 160.2264 
L 277.650274 160.384926 
L 277.904164 160.352715 
L 278.158054 160.536371 
L 278.665835 160.112071 
L 278.919725 160.393251 
L 279.427505 160.497017 
L 280.189176 160.944134 
L 280.950847 160.569348 
L 281.458627 160.539273 
L 281.712518 160.732116 
L 282.728079 160.286238 
L 282.981969 160.40873 
L 283.235859 160.77566 
L 283.74364 160.545364 
L 283.99753 160.818444 
L 284.25142 160.645003 
L 285.013091 160.846146 
L 285.266981 160.562472 
L 285.774762 160.875327 
L 286.028652 160.694159 
L 286.282542 160.818923 
L 286.536432 160.630005 
L 286.790323 160.296354 
L 287.298103 160.444844 
L 287.551993 160.609241 
L 287.805884 160.621872 
L 288.059774 160.466341 
L 288.313664 160.640586 
L 288.567555 160.554367 
L 288.821445 160.628633 
L 289.583116 160.5509 
L 290.344786 160.866658 
L 290.598677 160.771616 
L 291.106457 160.83848 
L 291.360347 161.164581 
L 291.614238 161.182491 
L 291.868128 161.454513 
L 292.883689 161.410447 
L 293.137579 161.590842 
L 293.391469 161.23097 
L 293.89925 161.263815 
L 294.15314 161.513146 
L 294.914811 160.830471 
L 295.168701 161.025354 
L 295.676482 160.954071 
L 296.438152 160.720644 
L 296.945933 160.858674 
L 297.453713 160.61085 
L 297.707604 160.779118 
L 298.215384 160.640373 
L 298.469274 160.942463 
L 298.723165 160.812298 
L 299.230945 160.924499 
L 299.484835 161.268639 
L 299.738726 161.104054 
L 300.246506 161.372585 
L 300.500396 161.350404 
L 301.262067 161.821442 
L 301.515957 161.969666 
L 302.023738 161.829248 
L 302.277628 161.664443 
L 302.531518 161.829627 
L 302.785409 161.589017 
L 303.039299 161.892991 
L 303.80097 161.632771 
L 304.05486 161.772328 
L 304.562641 161.253237 
L 304.816531 161.171611 
L 305.832092 161.452584 
L 306.085982 161.691954 
L 306.593763 161.685731 
L 307.101543 161.78546 
L 307.609324 161.426292 
L 307.863214 161.337469 
L 308.370994 161.297431 
L 308.370994 161.297431 
" clip-path="url(#p42a1232a2c)" style="fill: none; stroke: #0f4d92; stroke-opacity: 0.9; stroke-width: 0.8; stroke-linecap: square"/>
   </g>
   <g id="line2d_30">
    <path d="M 42.052813 161.297431 
L 321.052813 161.297431 
" clip-path="url(#p42a1232a2c)" style="fill: none; stroke-dasharray: 2.22,0.96; stroke-dashoffset: 0; stroke: #767676; stroke-width: 0.6"/>
   </g>
   <g id="patch_3">
    <path d="M 42.052813 192.706828 
L 42.052813 15.298828 
" style="fill: none; stroke: #000000; stroke-width: 0.8; stroke-linejoin: miter; stroke-linecap: square"/>
   </g>
   <g id="patch_4">
    <path d="M 42.052813 192.706828 
L 321.052813 192.706828 
" style="fill: none; stroke: #000000; stroke-width: 0.8; stroke-linejoin: miter; stroke-linecap: square"/>
   </g>
   <g id="text_17">
    <text style="font-weight: 700; font-size: 7.5px; font-family: 'DejaVu Sans', 'Arial', 'Helvetica', sans-serif; text-anchor: middle" x="181.552813" y="9.298828" transform="rotate(-0 181.552813 9.298828)">Monte Carlo Convergence</text>
   </g>
   <g id="legend_1">
    <g id="line2d_31">
     <path d="M 262.008125 23.157891 
L 268.008125 23.157891 
L 274.008125 23.157891 
" style="fill: none; stroke-dasharray: 2.22,0.96; stroke-dashoffset: 0; stroke: #767676; stroke-width: 0.6"/>
    </g>
    <g id="text_18">
     <text style="font-size: 6px; font-family: 'DejaVu Sans', 'Arial', 'Helvetica', sans-serif; text-anchor: start" x="278.808125" y="25.257891" transform="rotate(-0 278.808125 25.257891)">Final: 22506</text>
    </g>
   </g>
  </g>
 </g>
 <defs>
  <clipPath id="p42a1232a2c">
   <rect x="42.052813" y="15.298828" width="279" height="177.408"/>
  </clipPath>
 </defs>
</svg>
