<?xml version="1.0" encoding="utf-8" standalone="no"?>
<!DOCTYPE svg PUBLIC "-//W3C//DTD SVG 1.1//EN"
  "http://www.w3.org/Graphics/SVG/1.1/DTD/svg11.dtd">
<svg xmlns:xlink="http://www.w3.org/1999/xlink" width="425.911719pt" height="220.372297pt" viewBox="0 0 425.911719 220.372297" xmlns="http://www.w3.org/2000/svg" version="1.1">
 <metadata>
  <rdf:RDF xmlns:dc="http://purl.org/dc/elements/1.1/" xmlns:cc="http://creativecommons.org/ns#" xmlns:rdf="http://www.w3.org/1999/02/22-rdf-syntax-ns#">
   <cc:Work>
    <dc:type rdf:resource="http://purl.org/dc/dcmitype/StillImage"/>
    <dc:date>2026-05-24T15:59:00.572667</dc:date>
    <dc:format>image/svg+xml</dc:format>
    <dc:creator>
     <cc:Agent>
      <dc:title>Matplotlib v3.10.0, https://matplotlib.org/</dc:title>
     </cc:Agent>
    </dc:creator>
   </cc:Work>
  </rdf:RDF>
 </metadata>
 <defs>
  <style type="text/css">*{stroke-linejoin: round; stroke-linecap: butt}</style>
 </defs>
 <g id="figure_1">
  <g id="patch_1">
   <path d="M 0 220.372297 
L 425.911719 220.372297 
L 425.911719 0 
L 0 0 
z
" style="fill: #ffffff"/>
  </g>
  <g id="axes_1">
   <g id="patch_2">
    <path d="M 31.711719 192.706828 
L 209.257173 192.706828 
L 209.257173 15.298828 
L 31.711719 15.298828 
z
" style="fill: #ffffff"/>
   </g>
   <g id="matplotlib.axis_1">
    <g id="xtick_1">
     <g id="line2d_1">
      <path d="M 31.711719 192.706828 
L 31.711719 15.298828 
" clip-path="url(#p29d5576df2)" style="fill: none; stroke-dasharray: 1.11,0.48; stroke-dashoffset: 0; stroke: #b0b0b0; stroke-opacity: 0.3; stroke-width: 0.3"/>
     </g>
     <g id="line2d_2">
      <defs>
       <path id="mf7f0a5a5db" d="M 0 0 
L 0 3.5 
" style="stroke: #000000; stroke-width: 0.8"/>
      </defs>
      <g>
       <use xlink:href="#mf7f0a5a5db" x="31.711719" y="192.706828" style="stroke: #000000; stroke-width: 0.8"/>
      </g>
     </g>
     <g id="text_1">
      <text style="font-size: 6.5px; font-family: 'DejaVu Sans', 'Arial', 'Helvetica', sans-serif; text-anchor: middle" x="31.711719" y="204.645812" transform="rotate(-0 31.711719 204.645812)">0</text>
     </g>
    </g>
    <g id="xtick_2">
     <g id="line2d_3">
      <path d="M 59.026404 192.706828 
L 59.026404 15.298828 
" clip-path="url(#p29d5576df2)" style="fill: none; stroke-dasharray: 1.11,0.48; stroke-dashoffset: 0; stroke: #b0b0b0; stroke-opacity: 0.3; stroke-width: 0.3"/>
     </g>
     <g id="line2d_4">
      <g>
       <use xlink:href="#mf7f0a5a5db" x="59.026404" y="192.706828" style="stroke: #000000; stroke-width: 0.8"/>
      </g>
     </g>
     <g id="text_2">
      <text style="font-size: 6.5px; font-family: 'DejaVu Sans', 'Arial', 'Helvetica', sans-serif; text-anchor: middle" x="59.026404" y="204.645812" transform="rotate(-0 59.026404 204.645812)">10</text>
     </g>
    </g>
    <g id="xtick_3">
     <g id="line2d_5">
      <path d="M 86.341089 192.706828 
L 86.341089 15.298828 
" clip-path="url(#p29d5576df2)" style="fill: none; stroke-dasharray: 1.11,0.48; stroke-dashoffset: 0; stroke: #b0b0b0; stroke-opacity: 0.3; stroke-width: 0.3"/>
     </g>
     <g id="line2d_6">
      <g>
       <use xlink:href="#mf7f0a5a5db" x="86.341089" y="192.706828" style="stroke: #000000; stroke-width: 0.8"/>
      </g>
     </g>
     <g id="text_3">
      <text style="font-size: 6.5px; font-family: 'DejaVu Sans', 'Arial', 'Helvetica', sans-serif; text-anchor: middle" x="86.341089" y="204.645812" transform="rotate(-0 86.341089 204.645812)">20</text>
     </g>
    </g>
    <g id="xtick_4">
     <g id="line2d_7">
      <path d="M 113.655775 192.706828 
L 113.655775 15.298828 
" clip-path="url(#p29d5576df2)" style="fill: none; stroke-dasharray: 1.11,0.48; stroke-dashoffset: 0; stroke: #b0b0b0; stroke-opacity: 0.3; stroke-width: 0.3"/>
     </g>
     <g id="line2d_8">
      <g>
       <use xlink:href="#mf7f0a5a5db" x="113.655775" y="192.706828" style="stroke: #000000; stroke-width: 0.8"/>
      </g>
     </g>
     <g id="text_4">
      <text style="font-size: 6.5px; font-family: 'DejaVu Sans', 'Arial', 'Helvetica', sans-serif; text-anchor: middle" x="113.655775" y="204.645812" transform="rotate(-0 113.655775 204.645812)">30</text>
     </g>
    </g>
    <g id="xtick_5">
     <g id="line2d_9">
      <path d="M 140.97046 192.706828 
L 140.97046 15.298828 
" clip-path="url(#p29d5576df2)" style="fill: none; stroke-dasharray: 1.11,0.48; stroke-dashoffset: 0; stroke: #b0b0b0; stroke-opacity: 0.3; stroke-width: 0.3"/>
     </g>
     <g id="line2d_10">
      <g>
       <use xlink:href="#mf7f0a5a5db" x="140.97046" y="192.706828" style="stroke: #000000; stroke-width: 0.8"/>
      </g>
     </g>
     <g id="text_5">
      <text style="font-size: 6.5px; font-family: 'DejaVu Sans', 'Arial', 'Helvetica', sans-serif; text-anchor: middle" x="140.97046" y="204.645812" transform="rotate(-0 140.97046 204.645812)">40</text>
     </g>
    </g>
    <g id="xtick_6">
     <g id="line2d_11">
      <path d="M 168.285145 192.706828 
L 168.285145 15.298828 
" clip-path="url(#p29d5576df2)" style="fill: none; stroke-dasharray: 1.11,0.48; stroke-dashoffset: 0; stroke: #b0b0b0; stroke-opacity: 0.3; stroke-width: 0.3"/>
     </g>
     <g id="line2d_12">
      <g>
       <use xlink:href="#mf7f0a5a5db" x="168.285145" y="192.706828" style="stroke: #000000; stroke-width: 0.8"/>
      </g>
     </g>
     <g id="text_6">
      <text style="font-size: 6.5px; font-family: 'DejaVu Sans', 'Arial', 'Helvetica', sans-serif; text-anchor: middle" x="168.285145" y="204.645812" transform="rotate(-0 168.285145 204.645812)">50</text>
     </g>
    </g>
    <g id="xtick_7">
     <g id="line2d_13">
      <path d="M 195.599831 192.706828 
L 195.599831 15.298828 
" clip-path="url(#p29d5576df2)" style="fill: none; stroke-dasharray: 1.11,0.48; stroke-dashoffset: 0; stroke: #b0b0b0; stroke-opacity: 0.3; stroke-width: 0.3"/>
     </g>
     <g id="line2d_14">
      <g>
       <use xlink:href="#mf7f0a5a5db" x="195.599831" y="192.706828" style="stroke: #000000; stroke-width: 0.8"/>
      </g>
     </g>
     <g id="text_7">
      <text style="font-size: 6.5px; font-family: 'DejaVu Sans', 'Arial', 'Helvetica', sans-serif; text-anchor: middle" x="195.599831" y="204.645812" transform="rotate(-0 195.599831 204.645812)">60</text>
     </g>
    </g>
    <g id="text_8">
     <text style="font-size: 7px; font-family: 'DejaVu Sans', 'Arial', 'Helvetica', sans-serif; text-anchor: middle" x="120.484446" y="215.316516" transform="rotate(-0 120.484446 215.316516)">Days Since Registration</text>
    </g>
   </g>
   <g id="matplotlib.axis_2">
    <g id="ytick_1">
     <g id="line2d_15">
      <path d="M 31.711719 192.706828 
L 209.257173 192.706828 
" clip-path="url(#p29d5576df2)" style="fill: none; stroke-dasharray: 1.11,0.48; stroke-dashoffset: 0; stroke: #b0b0b0; stroke-opacity: 0.3; stroke-width: 0.3"/>
     </g>
     <g id="line2d_16">
      <defs>
       <path id="m87baef88f5" d="M 0 0 
L -3.5 0 
" style="stroke: #000000; stroke-width: 0.8"/>
      </defs>
      <g>
       <use xlink:href="#m87baef88f5" x="31.711719" y="192.706828" style="stroke: #000000; stroke-width: 0.8"/>
      </g>
     </g>
     <g id="text_9">
      <text style="font-size: 6.5px; font-family: 'DejaVu Sans', 'Arial', 'Helvetica', sans-serif; text-anchor: end" x="24.711719" y="195.17632" transform="rotate(-0 24.711719 195.17632)">0.0</text>
     </g>
    </g>
    <g id="ytick_2">
     <g id="line2d_17">
      <path d="M 31.711719 158.914828 
L 209.257173 158.914828 
" clip-path="url(#p29d5576df2)" style="fill: none; stroke-dasharray: 1.11,0.48; stroke-dashoffset: 0; stroke: #b0b0b0; stroke-opacity: 0.3; stroke-width: 0.3"/>
     </g>
     <g id="line2d_18">
      <g>
       <use xlink:href="#m87baef88f5" x="31.711719" y="158.914828" style="stroke: #000000; stroke-width: 0.8"/>
      </g>
     </g>
     <g id="text_10">
      <text style="font-size: 6.5px; font-family: 'DejaVu Sans', 'Arial', 'Helvetica', sans-serif; text-anchor: end" x="24.711719" y="161.38432" transform="rotate(-0 24.711719 161.38432)">0.2</text>
     </g>
    </g>
    <g id="ytick_3">
     <g id="line2d_19">
      <path d="M 31.711719 125.122828 
L 209.257173 125.122828 
" clip-path="url(#p29d5576df2)" style="fill: none; stroke-dasharray: 1.11,0.48; stroke-dashoffset: 0; stroke: #b0b0b0; stroke-opacity: 0.3; stroke-width: 0.3"/>
     </g>
     <g id="line2d_20">
      <g>
       <use xlink:href="#m87baef88f5" x="31.711719" y="125.122828" style="stroke: #000000; stroke-width: 0.8"/>
      </g>
     </g>
     <g id="text_11">
      <text style="font-size: 6.5px; font-family: 'DejaVu Sans', 'Arial', 'Helvetica', sans-serif; text-anchor: end" x="24.711719" y="127.59232" transform="rotate(-0 24.711719 127.59232)">0.4</text>
     </g>
    </g>
    <g id="ytick_4">
     <g id="line2d_21">
      <path d="M 31.711719 91.330828 
L 209.257173 91.330828 
" clip-path="url(#p29d5576df2)" style="fill: none; stroke-dasharray: 1.11,0.48; stroke-dashoffset: 0; stroke: #b0b0b0; stroke-opacity: 0.3; stroke-width: 0.3"/>
     </g>
     <g id="line2d_22">
      <g>
       <use xlink:href="#m87baef88f5" x="31.711719" y="91.330828" style="stroke: #000000; stroke-width: 0.8"/>
      </g>
     </g>
     <g id="text_12">
      <text style="font-size: 6.5px; font-family: 'DejaVu Sans', 'Arial', 'Helvetica', sans-serif; text-anchor: end" x="24.711719" y="93.80032" transform="rotate(-0 24.711719 93.80032)">0.6</text>
     </g>
    </g>
    <g id="ytick_5">
     <g id="line2d_23">
      <path d="M 31.711719 57.538828 
L 209.257173 57.538828 
" clip-path="url(#p29d5576df2)" style="fill: none; stroke-dasharray: 1.11,0.48; stroke-dashoffset: 0; stroke: #b0b0b0; stroke-opacity: 0.3; stroke-width: 0.3"/>
     </g>
     <g id="line2d_24">
      <g>
       <use xlink:href="#m87baef88f5" x="31.711719" y="57.538828" style="stroke: #000000; stroke-width: 0.8"/>
      </g>
     </g>
     <g id="text_13">
      <text style="font-size: 6.5px; font-family: 'DejaVu Sans', 'Arial', 'Helvetica', sans-serif; text-anchor: end" x="24.711719" y="60.00832" transform="rotate(-0 24.711719 60.00832)">0.8</text>
     </g>
    </g>
    <g id="ytick_6">
     <g id="line2d_25">
      <path d="M 31.711719 23.746828 
L 209.257173 23.746828 
" clip-path="url(#p29d5576df2)" style="fill: none; stroke-dasharray: 1.11,0.48; stroke-dashoffset: 0; stroke: #b0b0b0; stroke-opacity: 0.3; stroke-width: 0.3"/>
     </g>
     <g id="line2d_26">
      <g>
       <use xlink:href="#m87baef88f5" x="31.711719" y="23.746828" style="stroke: #000000; stroke-width: 0.8"/>
      </g>
     </g>
     <g id="text_14">
      <text style="font-size: 6.5px; font-family: 'DejaVu Sans', 'Arial', 'Helvetica', sans-serif; text-anchor: end" x="24.711719" y="26.21632" transform="rotate(-0 24.711719 26.21632)">1.0</text>
     </g>
    </g>
    <g id="text_15">
     <text style="font-size: 7px; font-family: 'DejaVu Sans', 'Arial', 'Helvetica', sans-serif; text-anchor: middle" x="8.918906" y="104.002828" transform="rotate(-90 8.918906 104.002828)">Survival Probability</text>
    </g>
   </g>
   <g id="line2d_27">
    <path d="M 31.711719 23.746828 
L 34.443187 23.746828 
L 34.443187 42.226828 
L 37.174656 42.226828 
L 37.174656 65.986828 
L 39.906124 65.986828 
L 39.906124 76.546828 
L 42.637593 76.546828 
L 42.637593 97.666828 
L 45.369061 97.666828 
L 45.369061 108.226828 
L 48.10053 108.226828 
L 48.10053 121.426828 
L 50.831998 121.426828 
L 50.831998 124.066828 
L 53.563467 124.066828 
L 53.563467 131.986828 
L 56.294936 131.986828 
L 56.294936 137.266828 
L 67.22081 137.266828 
L 67.22081 142.546828 
L 72.683747 142.546828 
L 72.683747 147.826828 
L 75.415215 147.826828 
L 75.415215 153.106828 
L 78.146684 153.106828 
L 78.146684 155.746828 
L 80.878152 155.746828 
L 80.878152 158.386828 
L 83.609621 158.386828 
L 83.609621 163.666828 
L 86.341089 163.666828 
L 86.341089 168.946828 
L 89.072558 168.946828 
L 89.072558 171.586828 
L 91.804026 171.586828 
L 91.804026 174.226828 
L 113.655775 174.226828 
L 113.655775 174.226828 
" clip-path="url(#p29d5576df2)" style="fill: none; stroke: #e28e2c; stroke-width: 1.2; stroke-linecap: square"/>
   </g>
   <g id="line2d_28">
    <path d="M 31.711719 23.746828 
L 34.443187 23.746828 
L 34.443187 139.121374 
L 37.174656 139.121374 
L 37.174656 157.448646 
L 39.906124 157.448646 
L 39.906124 169.143192 
L 42.637593 169.143192 
L 42.637593 175.426828 
L 45.369061 175.426828 
L 45.369061 178.917737 
L 48.10053 178.917737 
L 48.10053 181.797737 
L 50.831998 181.797737 
L 50.831998 183.979555 
L 53.563467 183.979555 
L 53.563467 185.637737 
L 56.294936 185.637737 
L 56.294936 187.034101 
L 59.026404 187.034101 
L 59.026404 187.906828 
L 61.757873 187.906828 
L 61.757873 188.255919 
L 64.489341 188.255919 
L 64.489341 188.779555 
L 67.22081 188.779555 
L 67.22081 189.303192 
L 69.952278 189.303192 
L 69.952278 189.739555 
L 72.683747 189.739555 
L 72.683747 190.175919 
L 75.415215 190.175919 
L 75.415215 190.437737 
L 78.146684 190.437737 
L 78.146684 190.612283 
L 83.609621 190.612283 
L 83.609621 190.874101 
L 86.341089 190.874101 
L 86.341089 191.048646 
L 91.804026 191.048646 
L 91.804026 191.223192 
L 94.535495 191.223192 
L 94.535495 191.48501 
L 99.998432 191.48501 
L 99.998432 191.572283 
L 105.461369 191.572283 
L 105.461369 191.834101 
L 113.655775 191.834101 
L 113.655775 191.834101 
" clip-path="url(#p29d5576df2)" style="fill: none; stroke: #0f4d92; stroke-width: 1.2; stroke-linecap: square"/>
   </g>
   <g id="patch_3">
    <path d="M 31.711719 192.706828 
L 31.711719 15.298828 
" style="fill: none; stroke: #000000; stroke-width: 0.8; stroke-linejoin: miter; stroke-linecap: square"/>
   </g>
   <g id="patch_4">
    <path d="M 31.711719 192.706828 
L 209.257173 192.706828 
" style="fill: none; stroke: #000000; stroke-width: 0.8; stroke-linejoin: miter; stroke-linecap: square"/>
   </g>
   <g id="text_16">
    <text style="font-weight: 700; font-size: 7.5px; font-family: 'DejaVu Sans', 'Arial', 'Helvetica', sans-serif; text-anchor: middle" x="120.484446" y="9.298828" transform="rotate(-0 120.484446 9.298828)">Retention: Paying vs Non-Paying</text>
   </g>
   <g id="legend_1">
    <g id="line2d_29">
     <path d="M 153.075611 23.157891 
L 159.075611 23.157891 
L 159.075611 23.157891 
L 165.075611 23.157891 
L 165.075611 23.157891 
" style="fill: none; stroke: #e28e2c; stroke-width: 1.2; stroke-linecap: square"/>
    </g>
    <g id="text_17">
     <text style="font-size: 6px; font-family: 'DejaVu Sans', 'Arial', 'Helvetica', sans-serif; text-anchor: start" x="169.875611" y="25.257891" transform="rotate(-0 169.875611 25.257891)">Paying</text>
    </g>
    <g id="line2d_30">
     <path d="M 153.075611 31.964766 
L 159.075611 31.964766 
L 159.075611 31.964766 
L 165.075611 31.964766 
L 165.075611 31.964766 
" style="fill: none; stroke: #0f4d92; stroke-width: 1.2; stroke-linecap: square"/>
    </g>
    <g id="text_18">
     <text style="font-size: 6px; font-family: 'DejaVu Sans', 'Arial', 'Helvetica', sans-serif; text-anchor: start" x="169.875611" y="34.064766" transform="rotate(-0 169.875611 34.064766)">Non-Paying</text>
    </g>
   </g>
  </g>
  <g id="axes_2">
   <g id="patch_5">
    <path d="M 244.766264 192.706828 
L 422.311719 192.706828 
L 422.311719 15.298828 
L 244.766264 15.298828 
z
" style="fill: #ffffff"/>
   </g>
   <g id="matplotlib.axis_3">
    <g id="xtick_8">
     <g id="line2d_31">
      <path d="M 244.766264 192.706828 
L 244.766264 15.298828 
" clip-path="url(#pa9e2f7a9ee)" style="fill: none; stroke-dasharray: 1.11,0.48; stroke-dashoffset: 0; stroke: #b0b0b0; stroke-opacity: 0.3; stroke-width: 0.3"/>
     </g>
     <g id="line2d_32">
      <g>
       <use xlink:href="#mf7f0a5a5db" x="244.766264" y="192.706828" style="stroke: #000000; stroke-width: 0.8"/>
      </g>
     </g>
     <g id="text_19">
      <text style="font-size: 6.5px; font-family: 'DejaVu Sans', 'Arial', 'Helvetica', sans-serif; text-anchor: middle" x="244.766264" y="204.645812" transform="rotate(-0 244.766264 204.645812)">0</text>
     </g>
    </g>
    <g id="xtick_9">
     <g id="line2d_33">
      <path d="M 272.08095 192.706828 
L 272.08095 15.298828 
" clip-path="url(#pa9e2f7a9ee)" style="fill: none; stroke-dasharray: 1.11,0.48; stroke-dashoffset: 0; stroke: #b0b0b0; stroke-opacity: 0.3; stroke-width: 0.3"/>
     </g>
     <g id="line2d_34">
      <g>
       <use xlink:href="#mf7f0a5a5db" x="272.08095" y="192.706828" style="stroke: #000000; stroke-width: 0.8"/>
      </g>
     </g>
     <g id="text_20">
      <text style="font-size: 6.5px; font-family: 'DejaVu Sans', 'Arial', 'Helvetica', sans-serif; text-anchor: middle" x="272.08095" y="204.645812" transform="rotate(-0 272.08095 204.645812)">10</text>
     </g>
    </g>
    <g id="xtick_10">
     <g id="line2d_35">
      <path d="M 299.395635 192.706828 
L 299.395635 15.298828 
" clip-path="url(#pa9e2f7a9ee)" style="fill: none; stroke-dasharray: 1.11,0.48; stroke-dashoffset: 0; stroke: #b0b0b0; stroke-opacity: 0.3; stroke-width: 0.3"/>
     </g>
     <g id="line2d_36">
      <g>
       <use xlink:href="#mf7f0a5a5db" x="299.395635" y="192.706828" style="stroke: #000000; stroke-width: 0.8"/>
      </g>
     </g>
     <g id="text_21">
      <text style="font-size: 6.5px; font-family: 'DejaVu Sans', 'Arial', 'Helvetica', sans-serif; text-anchor: middle" x="299.395635" y="204.645812" transform="rotate(-0 299.395635 204.645812)">20</text>
     </g>
    </g>
    <g id="xtick_11">
     <g id="line2d_37">
      <path d="M 326.71032 192.706828 
L 326.71032 15.298828 
" clip-path="url(#pa9e2f7a9ee)" style="fill: none; stroke-dasharray: 1.11,0.48; stroke-dashoffset: 0; stroke: #b0b0b0; stroke-opacity: 0.3; stroke-width: 0.3"/>
     </g>
     <g id="line2d_38">
      <g>
       <use xlink:href="#mf7f0a5a5db" x="326.71032" y="192.706828" style="stroke: #000000; stroke-width: 0.8"/>
      </g>
     </g>
     <g id="text_22">
      <text style="font-size: 6.5px; font-family: 'DejaVu Sans', 'Arial', 'Helvetica', sans-serif; text-anchor: middle" x="326.71032" y="204.645812" transform="rotate(-0 326.71032 204.645812)">30</text>
     </g>
    </g>
    <g id="xtick_12">
     <g id="line2d_39">
      <path d="M 354.025005 192.706828 
L 354.025005 15.298828 
" clip-path="url(#pa9e2f7a9ee)" style="fill: none; stroke-dasharray: 1.11,0.48; stroke-dashoffset: 0; stroke: #b0b0b0; stroke-opacity: 0.3; stroke-width: 0.3"/>
     </g>
     <g id="line2d_40">
      <g>
       <use xlink:href="#mf7f0a5a5db" x="354.025005" y="192.706828" style="stroke: #000000; stroke-width: 0.8"/>
      </g>
     </g>
     <g id="text_23">
      <text style="font-size: 6.5px; font-family: 'DejaVu Sans', 'Arial', 'Helvetica', sans-serif; text-anchor: middle" x="354.025005" y="204.645812" transform="rotate(-0 354.025005 204.645812)">40</text>
     </g>
    </g>
    <g id="xtick_13">
     <g id="line2d_41">
      <path d="M 381.339691 192.706828 
L 381.339691 15.298828 
" clip-path="url(#pa9e2f7a9ee)" style="fill: none; stroke-dasharray: 1.11,0.48; stroke-dashoffset: 0; stroke: #b0b0b0; stroke-opacity: 0.3; stroke-width: 0.3"/>
     </g>
     <g id="line2d_42">
      <g>
       <use xlink:href="#mf7f0a5a5db" x="381.339691" y="192.706828" style="stroke: #000000; stroke-width: 0.8"/>
      </g>
     </g>
     <g id="text_24">
      <text style="font-size: 6.5px; font-family: 'DejaVu Sans', 'Arial', 'Helvetica', sans-serif; text-anchor: middle" x="381.339691" y="204.645812" transform="rotate(-0 381.339691 204.645812)">50</text>
     </g>
    </g>
    <g id="xtick_14">
     <g id="line2d_43">
      <path d="M 408.654376 192.706828 
L 408.654376 15.298828 
" clip-path="url(#pa9e2f7a9ee)" style="fill: none; stroke-dasharray: 1.11,0.48; stroke-dashoffset: 0; stroke: #b0b0b0; stroke-opacity: 0.3; stroke-width: 0.3"/>
     </g>
     <g id="line2d_44">
      <g>
       <use xlink:href="#mf7f0a5a5db" x="408.654376" y="192.706828" style="stroke: #000000; stroke-width: 0.8"/>
      </g>
     </g>
     <g id="text_25">
      <text style="font-size: 6.5px; font-family: 'DejaVu Sans', 'Arial', 'Helvetica', sans-serif; text-anchor: middle" x="408.654376" y="204.645812" transform="rotate(-0 408.654376 204.645812)">60</text>
     </g>
    </g>
    <g id="text_26">
     <text style="font-size: 7px; font-family: 'DejaVu Sans', 'Arial', 'Helvetica', sans-serif; text-anchor: middle" x="333.538991" y="215.316516" transform="rotate(-0 333.538991 215.316516)">Days Since Registration</text>
    </g>
   </g>
   <g id="matplotlib.axis_4">
    <g id="ytick_7">
     <g id="line2d_45">
      <path d="M 244.766264 192.706828 
L 422.311719 192.706828 
" clip-path="url(#pa9e2f7a9ee)" style="fill: none; stroke-dasharray: 1.11,0.48; stroke-dashoffset: 0; stroke: #b0b0b0; stroke-opacity: 0.3; stroke-width: 0.3"/>
     </g>
     <g id="line2d_46">
      <g>
       <use xlink:href="#m87baef88f5" x="244.766264" y="192.706828" style="stroke: #000000; stroke-width: 0.8"/>
      </g>
     </g>
     <g id="text_27">
      <text style="font-size: 6.5px; font-family: 'DejaVu Sans', 'Arial', 'Helvetica', sans-serif; text-anchor: end" x="237.766264" y="195.17632" transform="rotate(-0 237.766264 195.17632)">0.0</text>
     </g>
    </g>
    <g id="ytick_8">
     <g id="line2d_47">
      <path d="M 244.766264 158.914828 
L 422.311719 158.914828 
" clip-path="url(#pa9e2f7a9ee)" style="fill: none; stroke-dasharray: 1.11,0.48; stroke-dashoffset: 0; stroke: #b0b0b0; stroke-opacity: 0.3; stroke-width: 0.3"/>
     </g>
     <g id="line2d_48">
      <g>
       <use xlink:href="#m87baef88f5" x="244.766264" y="158.914828" style="stroke: #000000; stroke-width: 0.8"/>
      </g>
     </g>
     <g id="text_28">
      <text style="font-size: 6.5px; font-family: 'DejaVu Sans', 'Arial', 'Helvetica', sans-serif; text-anchor: end" x="237.766264" y="161.38432" transform="rotate(-0 237.766264 161.38432)">0.2</text>
     </g>
    </g>
    <g id="ytick_9">
     <g id="line2d_49">
      <path d="M 244.766264 125.122828 
L 422.311719 125.122828 
" clip-path="url(#pa9e2f7a9ee)" style="fill: none; stroke-dasharray: 1.11,0.48; stroke-dashoffset: 0; stroke: #b0b0b0; stroke-opacity: 0.3; stroke-width: 0.3"/>
     </g>
     <g id="line2d_50">
      <g>
       <use xlink:href="#m87baef88f5" x="244.766264" y="125.122828" style="stroke: #000000; stroke-width: 0.8"/>
      </g>
     </g>
     <g id="text_29">
      <text style="font-size: 6.5px; font-family: 'DejaVu Sans', 'Arial', 'Helvetica', sans-serif; text-anchor: end" x="237.766264" y="127.59232" transform="rotate(-0 237.766264 127.59232)">0.4</text>
     </g>
    </g>
    <g id="ytick_10">
     <g id="line2d_51">
      <path d="M 244.766264 91.330828 
L 422.311719 91.330828 
" clip-path="url(#pa9e2f7a9ee)" style="fill: none; stroke-dasharray: 1.11,0.48; stroke-dashoffset: 0; stroke: #b0b0b0; stroke-opacity: 0.3; stroke-width: 0.3"/>
     </g>
     <g id="line2d_52">
      <g>
       <use xlink:href="#m87baef88f5" x="244.766264" y="91.330828" style="stroke: #000000; stroke-width: 0.8"/>
      </g>
     </g>
     <g id="text_30">
      <text style="font-size: 6.5px; font-family: 'DejaVu Sans', 'Arial', 'Helvetica', sans-serif; text-anchor: end" x="237.766264" y="93.80032" transform="rotate(-0 237.766264 93.80032)">0.6</text>
     </g>
    </g>
    <g id="ytick_11">
     <g id="line2d_53">
      <path d="M 244.766264 57.538828 
L 422.311719 57.538828 
" clip-path="url(#pa9e2f7a9ee)" style="fill: none; stroke-dasharray: 1.11,0.48; stroke-dashoffset: 0; stroke: #b0b0b0; stroke-opacity: 0.3; stroke-width: 0.3"/>
     </g>
     <g id="line2d_54">
      <g>
       <use xlink:href="#m87baef88f5" x="244.766264" y="57.538828" style="stroke: #000000; stroke-width: 0.8"/>
      </g>
     </g>
     <g id="text_31">
      <text style="font-size: 6.5px; font-family: 'DejaVu Sans', 'Arial', 'Helvetica', sans-serif; text-anchor: end" x="237.766264" y="60.00832" transform="rotate(-0 237.766264 60.00832)">0.8</text>
     </g>
    </g>
    <g id="ytick_12">
     <g id="line2d_55">
      <path d="M 244.766264 23.746828 
L 422.311719 23.746828 
" clip-path="url(#pa9e2f7a9ee)" style="fill: none; stroke-dasharray: 1.11,0.48; stroke-dashoffset: 0; stroke: #b0b0b0; stroke-opacity: 0.3; stroke-width: 0.3"/>
     </g>
     <g id="line2d_56">
      <g>
       <use xlink:href="#m87baef88f5" x="244.766264" y="23.746828" style="stroke: #000000; stroke-width: 0.8"/>
      </g>
     </g>
     <g id="text_32">
      <text style="font-size: 6.5px; font-family: 'DejaVu Sans', 'Arial', 'Helvetica', sans-serif; text-anchor: end" x="237.766264" y="26.21632" transform="rotate(-0 237.766264 26.21632)">1.0</text>
     </g>
    </g>
    <g id="text_33">
     <text style="font-size: 7px; font-family: 'DejaVu Sans', 'Arial', 'Helvetica', sans-serif; text-anchor: middle" x="221.973452" y="104.002828" transform="rotate(-90 221.973452 104.002828)">Survival Probability</text>
    </g>
   </g>
   <g id="line2d_57">
    <path d="M 244.766264 23.746828 
L 247.497733 23.746828 
L 247.497733 53.823477 
L 250.229201 53.823477 
L 250.229201 78.592483 
L 252.96067 78.592483 
L 252.96067 100.707666 
L 255.692138 100.707666 
L 255.692138 117.515205 
L 258.423607 117.515205 
L 258.423607 127.688189 
L 261.155075 127.688189 
L 261.155075 138.303477 
L 263.886544 138.303477 
L 263.886544 145.380336 
L 266.618012 145.380336 
L 266.618012 152.899498 
L 269.349481 152.899498 
L 269.349481 159.534053 
L 272.08095 159.534053 
L 272.08095 163.514786 
L 274.812418 163.514786 
L 274.812418 165.284001 
L 277.543887 165.284001 
L 277.543887 167.495519 
L 280.275355 167.495519 
L 280.275355 170.149341 
L 283.006824 170.149341 
L 283.006824 171.033949 
L 285.738292 171.033949 
L 285.738292 173.245467 
L 288.469761 173.245467 
L 288.469761 175.456985 
L 291.201229 175.456985 
L 291.201229 176.783896 
L 293.932698 176.783896 
L 293.932698 177.2262 
L 296.664166 177.2262 
L 296.664166 179.437718 
L 299.395635 179.437718 
L 299.395635 181.206933 
L 302.127103 181.206933 
L 302.127103 181.649237 
L 304.858572 181.649237 
L 304.858572 182.976147 
L 307.59004 182.976147 
L 307.59004 184.303058 
L 313.052977 184.303058 
L 313.052977 184.745362 
L 318.515915 184.745362 
L 318.515915 186.072273 
L 326.71032 186.072273 
L 326.71032 186.072273 
" clip-path="url(#pa9e2f7a9ee)" style="fill: none; stroke: #2e7d32; stroke-width: 1.2; stroke-linecap: square"/>
   </g>
   <g id="line2d_58">
    <path d="M 244.766264 23.746828 
L 247.497733 23.746828 
L 247.497733 155.427026 
L 250.229201 155.427026 
L 250.229201 172.448336 
L 252.96067 172.448336 
L 252.96067 181.637755 
L 255.692138 181.637755 
L 255.692138 186.023614 
L 258.423607 186.023614 
L 258.423607 188.216544 
L 261.155075 188.216544 
L 261.155075 189.678497 
L 263.886544 189.678497 
L 263.886544 190.722749 
L 266.618012 190.722749 
L 266.618012 191.244875 
L 269.349481 191.244875 
L 269.349481 191.558151 
L 272.08095 191.558151 
L 272.08095 191.662576 
L 277.543887 191.662576 
L 277.543887 191.767001 
L 280.275355 191.767001 
L 280.275355 191.975852 
L 283.006824 191.975852 
L 283.006824 192.289127 
L 285.738292 192.289127 
L 285.738292 192.497978 
L 326.71032 192.497978 
L 326.71032 192.497978 
" clip-path="url(#pa9e2f7a9ee)" style="fill: none; stroke: #767676; stroke-width: 1.2; stroke-linecap: square"/>
   </g>
   <g id="patch_6">
    <path d="M 244.766264 192.706828 
L 244.766264 15.298828 
" style="fill: none; stroke: #000000; stroke-width: 0.8; stroke-linejoin: miter; stroke-linecap: square"/>
   </g>
   <g id="patch_7">
    <path d="M 244.766264 192.706828 
L 422.311719 192.706828 
" style="fill: none; stroke: #000000; stroke-width: 0.8; stroke-linejoin: miter; stroke-linecap: square"/>
   </g>
   <g id="text_34">
    <text style="font-weight: 700; font-size: 7.5px; font-family: 'DejaVu Sans', 'Arial', 'Helvetica', sans-serif; text-anchor: middle" x="333.538991" y="9.298828" transform="rotate(-0 333.538991 9.298828)">Retention: League vs No League</text>
   </g>
   <g id="legend_2">
    <g id="line2d_59">
     <path d="M 368.134531 23.157891 
L 374.134531 23.157891 
L 374.134531 23.157891 
L 380.134531 23.157891 
L 380.134531 23.157891 
" style="fill: none; stroke: #2e7d32; stroke-width: 1.2; stroke-linecap: square"/>
    </g>
    <g id="text_35">
     <text style="font-size: 6px; font-family: 'DejaVu Sans', 'Arial', 'Helvetica', sans-serif; text-anchor: start" x="384.934531" y="25.257891" transform="rotate(-0 384.934531 25.257891)">In League</text>
    </g>
    <g id="line2d_60">
     <path d="M 368.134531 31.964766 
L 374.134531 31.964766 
L 374.134531 31.964766 
L 380.134531 31.964766 
L 380.134531 31.964766 
" style="fill: none; stroke: #767676; stroke-width: 1.2; stroke-linecap: square"/>
    </g>
    <g id="text_36">
     <text style="font-size: 6px; font-family: 'DejaVu Sans', 'Arial', 'Helvetica', sans-serif; text-anchor: start" x="384.934531" y="34.064766" transform="rotate(-0 384.934531 34.064766)">No League</text>
    </g>
   </g>
  </g>
 </g>
 <defs>
  <clipPath id="p29d5576df2">
   <rect x="31.711719" y="15.298828" width="177.545455" height="177.408"/>
  </clipPath>
  <clipPath id="pa9e2f7a9ee">
   <rect x="244.766264" y="15.298828" width="177.545455" height="177.408"/>
  </clipPath>
 </defs>
</svg>
