<?xml version="1.0" encoding="utf-8" standalone="no"?>
<!DOCTYPE svg PUBLIC "-//W3C//DTD SVG 1.1//EN"
  "http://www.w3.org/Graphics/SVG/1.1/DTD/svg11.dtd">
<svg xmlns:xlink="http://www.w3.org/1999/xlink" width="424.31875pt" height="219.581281pt" viewBox="0 0 424.31875 219.581281" xmlns="http://www.w3.org/2000/svg" version="1.1">
 <metadata>
  <rdf:RDF xmlns:dc="http://purl.org/dc/elements/1.1/" xmlns:cc="http://creativecommons.org/ns#" xmlns:rdf="http://www.w3.org/1999/02/22-rdf-syntax-ns#">
   <cc:Work>
    <dc:type rdf:resource="http://purl.org/dc/dcmitype/StillImage"/>
    <dc:date>2026-05-21T18:58:22.909528</dc:date>
    <dc:format>image/svg+xml</dc:format>
    <dc:creator>
     <cc:Agent>
      <dc:title>Matplotlib v3.10.0, https://matplotlib.org/</dc:title>
     </cc:Agent>
    </dc:creator>
   </cc:Work>
  </rdf:RDF>
 </metadata>
 <defs>
  <style type="text/css">*{stroke-linejoin: round; stroke-linecap: butt}</style>
 </defs>
 <g id="figure_1">
  <g id="patch_1">
   <path d="M 0 219.581281 
L 424.31875 219.581281 
L 424.31875 0 
L 0 0 
z
" style="fill: #ffffff"/>
  </g>
  <g id="axes_1">
   <g id="patch_2">
    <path d="M 30.11875 192.467766 
L 207.664205 192.467766 
L 207.664205 15.059766 
L 30.11875 15.059766 
z
" style="fill: #ffffff"/>
   </g>
   <g id="patch_3">
    <path d="M 96.341633 192.467766 
L 99.2917 192.467766 
L 99.2917 172.189665 
L 96.341633 172.189665 
z
" clip-path="url(#p3b33a60c1b)" style="fill: #8bcf8b; opacity: 0.5; stroke: #ffffff; stroke-width: 0.3; stroke-linejoin: miter"/>
   </g>
   <g id="patch_4">
    <path d="M 99.2917 192.467766 
L 102.241766 192.467766 
L 102.241766 191.453861 
L 99.2917 191.453861 
z
" clip-path="url(#p3b33a60c1b)" style="fill: #8bcf8b; opacity: 0.5; stroke: #ffffff; stroke-width: 0.3; stroke-linejoin: miter"/>
   </g>
   <g id="patch_5">
    <path d="M 102.241766 192.467766 
L 105.191833 192.467766 
L 105.191833 184.356526 
L 102.241766 184.356526 
z
" clip-path="url(#p3b33a60c1b)" style="fill: #8bcf8b; opacity: 0.5; stroke: #ffffff; stroke-width: 0.3; stroke-linejoin: miter"/>
   </g>
   <g id="patch_6">
    <path d="M 105.191833 192.467766 
L 108.141899 192.467766 
L 108.141899 187.398241 
L 105.191833 187.398241 
z
" clip-path="url(#p3b33a60c1b)" style="fill: #8bcf8b; opacity: 0.5; stroke: #ffffff; stroke-width: 0.3; stroke-linejoin: miter"/>
   </g>
   <g id="patch_7">
    <path d="M 108.141899 192.467766 
L 111.091965 192.467766 
L 111.091965 88.03555 
L 108.141899 88.03555 
z
" clip-path="url(#p3b33a60c1b)" style="fill: #8bcf8b; opacity: 0.5; stroke: #ffffff; stroke-width: 0.3; stroke-linejoin: miter"/>
   </g>
   <g id="patch_8">
    <path d="M 111.091965 192.467766 
L 114.042032 192.467766 
L 114.042032 181.314811 
L 111.091965 181.314811 
z
" clip-path="url(#p3b33a60c1b)" style="fill: #8bcf8b; opacity: 0.5; stroke: #ffffff; stroke-width: 0.3; stroke-linejoin: miter"/>
   </g>
   <g id="patch_9">
    <path d="M 114.042032 192.467766 
L 116.992098 192.467766 
L 116.992098 156.98109 
L 114.042032 156.98109 
z
" clip-path="url(#p3b33a60c1b)" style="fill: #8bcf8b; opacity: 0.5; stroke: #ffffff; stroke-width: 0.3; stroke-linejoin: miter"/>
   </g>
   <g id="patch_10">
    <path d="M 116.992098 192.467766 
L 119.942164 192.467766 
L 119.942164 137.716895 
L 116.992098 137.716895 
z
" clip-path="url(#p3b33a60c1b)" style="fill: #8bcf8b; opacity: 0.5; stroke: #ffffff; stroke-width: 0.3; stroke-linejoin: miter"/>
   </g>
   <g id="patch_11">
    <path d="M 119.942164 192.467766 
L 122.892231 192.467766 
L 122.892231 141.772515 
L 119.942164 141.772515 
z
" clip-path="url(#p3b33a60c1b)" style="fill: #8bcf8b; opacity: 0.5; stroke: #ffffff; stroke-width: 0.3; stroke-linejoin: miter"/>
   </g>
   <g id="patch_12">
    <path d="M 122.892231 192.467766 
L 125.842297 192.467766 
L 125.842297 139.744705 
L 122.892231 139.744705 
z
" clip-path="url(#p3b33a60c1b)" style="fill: #8bcf8b; opacity: 0.5; stroke: #ffffff; stroke-width: 0.3; stroke-linejoin: miter"/>
   </g>
   <g id="patch_13">
    <path d="M 125.842297 192.467766 
L 128.792364 192.467766 
L 128.792364 154.95328 
L 125.842297 154.95328 
z
" clip-path="url(#p3b33a60c1b)" style="fill: #8bcf8b; opacity: 0.5; stroke: #ffffff; stroke-width: 0.3; stroke-linejoin: miter"/>
   </g>
   <g id="patch_14">
    <path d="M 128.792364 192.467766 
L 131.74243 192.467766 
L 131.74243 161.03671 
L 128.792364 161.03671 
z
" clip-path="url(#p3b33a60c1b)" style="fill: #8bcf8b; opacity: 0.5; stroke: #ffffff; stroke-width: 0.3; stroke-linejoin: miter"/>
   </g>
   <g id="patch_15">
    <path d="M 131.74243 192.467766 
L 134.692496 192.467766 
L 134.692496 160.022805 
L 131.74243 160.022805 
z
" clip-path="url(#p3b33a60c1b)" style="fill: #8bcf8b; opacity: 0.5; stroke: #ffffff; stroke-width: 0.3; stroke-linejoin: miter"/>
   </g>
   <g id="patch_16">
    <path d="M 134.692496 192.467766 
L 137.642563 192.467766 
L 137.642563 179.287001 
L 134.692496 179.287001 
z
" clip-path="url(#p3b33a60c1b)" style="fill: #8bcf8b; opacity: 0.5; stroke: #ffffff; stroke-width: 0.3; stroke-linejoin: miter"/>
   </g>
   <g id="patch_17">
    <path d="M 137.642563 192.467766 
L 140.592629 192.467766 
L 140.592629 181.314811 
L 137.642563 181.314811 
z
" clip-path="url(#p3b33a60c1b)" style="fill: #8bcf8b; opacity: 0.5; stroke: #ffffff; stroke-width: 0.3; stroke-linejoin: miter"/>
   </g>
   <g id="patch_18">
    <path d="M 140.592629 192.467766 
L 143.542695 192.467766 
L 143.542695 185.370431 
L 140.592629 185.370431 
z
" clip-path="url(#p3b33a60c1b)" style="fill: #8bcf8b; opacity: 0.5; stroke: #ffffff; stroke-width: 0.3; stroke-linejoin: miter"/>
   </g>
   <g id="patch_19">
    <path d="M 143.542695 192.467766 
L 146.492762 192.467766 
L 146.492762 187.398241 
L 143.542695 187.398241 
z
" clip-path="url(#p3b33a60c1b)" style="fill: #8bcf8b; opacity: 0.5; stroke: #ffffff; stroke-width: 0.3; stroke-linejoin: miter"/>
   </g>
   <g id="patch_20">
    <path d="M 146.492762 192.467766 
L 149.442828 192.467766 
L 149.442828 191.453861 
L 146.492762 191.453861 
z
" clip-path="url(#p3b33a60c1b)" style="fill: #8bcf8b; opacity: 0.5; stroke: #ffffff; stroke-width: 0.3; stroke-linejoin: miter"/>
   </g>
   <g id="patch_21">
    <path d="M 149.442828 192.467766 
L 152.392895 192.467766 
L 152.392895 192.467766 
L 149.442828 192.467766 
z
" clip-path="url(#p3b33a60c1b)" style="fill: #8bcf8b; opacity: 0.5; stroke: #ffffff; stroke-width: 0.3; stroke-linejoin: miter"/>
   </g>
   <g id="patch_22">
    <path d="M 152.392895 192.467766 
L 155.342961 192.467766 
L 155.342961 192.467766 
L 152.392895 192.467766 
z
" clip-path="url(#p3b33a60c1b)" style="fill: #8bcf8b; opacity: 0.5; stroke: #ffffff; stroke-width: 0.3; stroke-linejoin: miter"/>
   </g>
   <g id="patch_23">
    <path d="M 155.342961 192.467766 
L 158.293027 192.467766 
L 158.293027 191.453861 
L 155.342961 191.453861 
z
" clip-path="url(#p3b33a60c1b)" style="fill: #8bcf8b; opacity: 0.5; stroke: #ffffff; stroke-width: 0.3; stroke-linejoin: miter"/>
   </g>
   <g id="patch_24">
    <path d="M 158.293027 192.467766 
L 161.243094 192.467766 
L 161.243094 191.453861 
L 158.293027 191.453861 
z
" clip-path="url(#p3b33a60c1b)" style="fill: #8bcf8b; opacity: 0.5; stroke: #ffffff; stroke-width: 0.3; stroke-linejoin: miter"/>
   </g>
   <g id="patch_25">
    <path d="M 161.243094 192.467766 
L 164.19316 192.467766 
L 164.19316 191.453861 
L 161.243094 191.453861 
z
" clip-path="url(#p3b33a60c1b)" style="fill: #8bcf8b; opacity: 0.5; stroke: #ffffff; stroke-width: 0.3; stroke-linejoin: miter"/>
   </g>
   <g id="patch_26">
    <path d="M 164.19316 192.467766 
L 167.143226 192.467766 
L 167.143226 191.453861 
L 164.19316 191.453861 
z
" clip-path="url(#p3b33a60c1b)" style="fill: #8bcf8b; opacity: 0.5; stroke: #ffffff; stroke-width: 0.3; stroke-linejoin: miter"/>
   </g>
   <g id="patch_27">
    <path d="M 167.143226 192.467766 
L 170.093293 192.467766 
L 170.093293 192.467766 
L 167.143226 192.467766 
z
" clip-path="url(#p3b33a60c1b)" style="fill: #8bcf8b; opacity: 0.5; stroke: #ffffff; stroke-width: 0.3; stroke-linejoin: miter"/>
   </g>
   <g id="patch_28">
    <path d="M 170.093293 192.467766 
L 173.043359 192.467766 
L 173.043359 192.467766 
L 170.093293 192.467766 
z
" clip-path="url(#p3b33a60c1b)" style="fill: #8bcf8b; opacity: 0.5; stroke: #ffffff; stroke-width: 0.3; stroke-linejoin: miter"/>
   </g>
   <g id="patch_29">
    <path d="M 173.043359 192.467766 
L 175.993426 192.467766 
L 175.993426 192.467766 
L 173.043359 192.467766 
z
" clip-path="url(#p3b33a60c1b)" style="fill: #8bcf8b; opacity: 0.5; stroke: #ffffff; stroke-width: 0.3; stroke-linejoin: miter"/>
   </g>
   <g id="patch_30">
    <path d="M 175.993426 192.467766 
L 178.943492 192.467766 
L 178.943492 191.453861 
L 175.993426 191.453861 
z
" clip-path="url(#p3b33a60c1b)" style="fill: #8bcf8b; opacity: 0.5; stroke: #ffffff; stroke-width: 0.3; stroke-linejoin: miter"/>
   </g>
   <g id="patch_31">
    <path d="M 178.943492 192.467766 
L 181.893558 192.467766 
L 181.893558 192.467766 
L 178.943492 192.467766 
z
" clip-path="url(#p3b33a60c1b)" style="fill: #8bcf8b; opacity: 0.5; stroke: #ffffff; stroke-width: 0.3; stroke-linejoin: miter"/>
   </g>
   <g id="patch_32">
    <path d="M 181.893558 192.467766 
L 184.843625 192.467766 
L 184.843625 192.467766 
L 181.893558 192.467766 
z
" clip-path="url(#p3b33a60c1b)" style="fill: #8bcf8b; opacity: 0.5; stroke: #ffffff; stroke-width: 0.3; stroke-linejoin: miter"/>
   </g>
   <g id="patch_33">
    <path d="M 184.843625 192.467766 
L 187.793691 192.467766 
L 187.793691 192.467766 
L 184.843625 192.467766 
z
" clip-path="url(#p3b33a60c1b)" style="fill: #8bcf8b; opacity: 0.5; stroke: #ffffff; stroke-width: 0.3; stroke-linejoin: miter"/>
   </g>
   <g id="patch_34">
    <path d="M 187.793691 192.467766 
L 190.743757 192.467766 
L 190.743757 192.467766 
L 187.793691 192.467766 
z
" clip-path="url(#p3b33a60c1b)" style="fill: #8bcf8b; opacity: 0.5; stroke: #ffffff; stroke-width: 0.3; stroke-linejoin: miter"/>
   </g>
   <g id="patch_35">
    <path d="M 190.743757 192.467766 
L 193.693824 192.467766 
L 193.693824 192.467766 
L 190.743757 192.467766 
z
" clip-path="url(#p3b33a60c1b)" style="fill: #8bcf8b; opacity: 0.5; stroke: #ffffff; stroke-width: 0.3; stroke-linejoin: miter"/>
   </g>
   <g id="patch_36">
    <path d="M 193.693824 192.467766 
L 196.64389 192.467766 
L 196.64389 192.467766 
L 193.693824 192.467766 
z
" clip-path="url(#p3b33a60c1b)" style="fill: #8bcf8b; opacity: 0.5; stroke: #ffffff; stroke-width: 0.3; stroke-linejoin: miter"/>
   </g>
   <g id="patch_37">
    <path d="M 196.64389 192.467766 
L 199.593957 192.467766 
L 199.593957 191.453861 
L 196.64389 191.453861 
z
" clip-path="url(#p3b33a60c1b)" style="fill: #8bcf8b; opacity: 0.5; stroke: #ffffff; stroke-width: 0.3; stroke-linejoin: miter"/>
   </g>
   <g id="patch_38">
    <path d="M 38.188998 192.467766 
L 41.03889 192.467766 
L 41.03889 110.487174 
L 38.188998 110.487174 
z
" clip-path="url(#p3b33a60c1b)" style="fill: #b64342; opacity: 0.5; stroke: #ffffff; stroke-width: 0.3; stroke-linejoin: miter"/>
   </g>
   <g id="patch_39">
    <path d="M 41.03889 192.467766 
L 43.888782 192.467766 
L 43.888782 192.467766 
L 41.03889 192.467766 
z
" clip-path="url(#p3b33a60c1b)" style="fill: #b64342; opacity: 0.5; stroke: #ffffff; stroke-width: 0.3; stroke-linejoin: miter"/>
   </g>
   <g id="patch_40">
    <path d="M 43.888782 192.467766 
L 46.738674 192.467766 
L 46.738674 192.467766 
L 43.888782 192.467766 
z
" clip-path="url(#p3b33a60c1b)" style="fill: #b64342; opacity: 0.5; stroke: #ffffff; stroke-width: 0.3; stroke-linejoin: miter"/>
   </g>
   <g id="patch_41">
    <path d="M 46.738674 192.467766 
L 49.588565 192.467766 
L 49.588565 192.467766 
L 46.738674 192.467766 
z
" clip-path="url(#p3b33a60c1b)" style="fill: #b64342; opacity: 0.5; stroke: #ffffff; stroke-width: 0.3; stroke-linejoin: miter"/>
   </g>
   <g id="patch_42">
    <path d="M 49.588565 192.467766 
L 52.438457 192.467766 
L 52.438457 192.467766 
L 49.588565 192.467766 
z
" clip-path="url(#p3b33a60c1b)" style="fill: #b64342; opacity: 0.5; stroke: #ffffff; stroke-width: 0.3; stroke-linejoin: miter"/>
   </g>
   <g id="patch_43">
    <path d="M 52.438457 192.467766 
L 55.288349 192.467766 
L 55.288349 192.467766 
L 52.438457 192.467766 
z
" clip-path="url(#p3b33a60c1b)" style="fill: #b64342; opacity: 0.5; stroke: #ffffff; stroke-width: 0.3; stroke-linejoin: miter"/>
   </g>
   <g id="patch_44">
    <path d="M 55.288349 192.467766 
L 58.138241 192.467766 
L 58.138241 192.467766 
L 55.288349 192.467766 
z
" clip-path="url(#p3b33a60c1b)" style="fill: #b64342; opacity: 0.5; stroke: #ffffff; stroke-width: 0.3; stroke-linejoin: miter"/>
   </g>
   <g id="patch_45">
    <path d="M 58.138241 192.467766 
L 60.988133 192.467766 
L 60.988133 192.467766 
L 58.138241 192.467766 
z
" clip-path="url(#p3b33a60c1b)" style="fill: #b64342; opacity: 0.5; stroke: #ffffff; stroke-width: 0.3; stroke-linejoin: miter"/>
   </g>
   <g id="patch_46">
    <path d="M 60.988133 192.467766 
L 63.838025 192.467766 
L 63.838025 192.467766 
L 60.988133 192.467766 
z
" clip-path="url(#p3b33a60c1b)" style="fill: #b64342; opacity: 0.5; stroke: #ffffff; stroke-width: 0.3; stroke-linejoin: miter"/>
   </g>
   <g id="patch_47">
    <path d="M 63.838025 192.467766 
L 66.687917 192.467766 
L 66.687917 192.467766 
L 63.838025 192.467766 
z
" clip-path="url(#p3b33a60c1b)" style="fill: #b64342; opacity: 0.5; stroke: #ffffff; stroke-width: 0.3; stroke-linejoin: miter"/>
   </g>
   <g id="patch_48">
    <path d="M 66.687917 192.467766 
L 69.537808 192.467766 
L 69.537808 192.467766 
L 66.687917 192.467766 
z
" clip-path="url(#p3b33a60c1b)" style="fill: #b64342; opacity: 0.5; stroke: #ffffff; stroke-width: 0.3; stroke-linejoin: miter"/>
   </g>
   <g id="patch_49">
    <path d="M 69.537808 192.467766 
L 72.3877 192.467766 
L 72.3877 192.467766 
L 69.537808 192.467766 
z
" clip-path="url(#p3b33a60c1b)" style="fill: #b64342; opacity: 0.5; stroke: #ffffff; stroke-width: 0.3; stroke-linejoin: miter"/>
   </g>
   <g id="patch_50">
    <path d="M 72.3877 192.467766 
L 75.237592 192.467766 
L 75.237592 192.467766 
L 72.3877 192.467766 
z
" clip-path="url(#p3b33a60c1b)" style="fill: #b64342; opacity: 0.5; stroke: #ffffff; stroke-width: 0.3; stroke-linejoin: miter"/>
   </g>
   <g id="patch_51">
    <path d="M 75.237592 192.467766 
L 78.087484 192.467766 
L 78.087484 192.467766 
L 75.237592 192.467766 
z
" clip-path="url(#p3b33a60c1b)" style="fill: #b64342; opacity: 0.5; stroke: #ffffff; stroke-width: 0.3; stroke-linejoin: miter"/>
   </g>
   <g id="patch_52">
    <path d="M 78.087484 192.467766 
L 80.937376 192.467766 
L 80.937376 188.135458 
L 78.087484 188.135458 
z
" clip-path="url(#p3b33a60c1b)" style="fill: #b64342; opacity: 0.5; stroke: #ffffff; stroke-width: 0.3; stroke-linejoin: miter"/>
   </g>
   <g id="patch_53">
    <path d="M 80.937376 192.467766 
L 83.787268 192.467766 
L 83.787268 192.467766 
L 80.937376 192.467766 
z
" clip-path="url(#p3b33a60c1b)" style="fill: #b64342; opacity: 0.5; stroke: #ffffff; stroke-width: 0.3; stroke-linejoin: miter"/>
   </g>
   <g id="patch_54">
    <path d="M 83.787268 192.467766 
L 86.63716 192.467766 
L 86.63716 192.467766 
L 83.787268 192.467766 
z
" clip-path="url(#p3b33a60c1b)" style="fill: #b64342; opacity: 0.5; stroke: #ffffff; stroke-width: 0.3; stroke-linejoin: miter"/>
   </g>
   <g id="patch_55">
    <path d="M 86.63716 192.467766 
L 89.487051 192.467766 
L 89.487051 172.805754 
L 86.63716 172.805754 
z
" clip-path="url(#p3b33a60c1b)" style="fill: #b64342; opacity: 0.5; stroke: #ffffff; stroke-width: 0.3; stroke-linejoin: miter"/>
   </g>
   <g id="patch_56">
    <path d="M 89.487051 192.467766 
L 92.336943 192.467766 
L 92.336943 192.467766 
L 89.487051 192.467766 
z
" clip-path="url(#p3b33a60c1b)" style="fill: #b64342; opacity: 0.5; stroke: #ffffff; stroke-width: 0.3; stroke-linejoin: miter"/>
   </g>
   <g id="patch_57">
    <path d="M 92.336943 192.467766 
L 95.186835 192.467766 
L 95.186835 188.135458 
L 92.336943 188.135458 
z
" clip-path="url(#p3b33a60c1b)" style="fill: #b64342; opacity: 0.5; stroke: #ffffff; stroke-width: 0.3; stroke-linejoin: miter"/>
   </g>
   <g id="patch_58">
    <path d="M 95.186835 192.467766 
L 98.036727 192.467766 
L 98.036727 23.507766 
L 95.186835 23.507766 
z
" clip-path="url(#p3b33a60c1b)" style="fill: #b64342; opacity: 0.5; stroke: #ffffff; stroke-width: 0.3; stroke-linejoin: miter"/>
   </g>
   <g id="patch_59">
    <path d="M 98.036727 192.467766 
L 100.886619 192.467766 
L 100.886619 185.802677 
L 98.036727 185.802677 
z
" clip-path="url(#p3b33a60c1b)" style="fill: #b64342; opacity: 0.5; stroke: #ffffff; stroke-width: 0.3; stroke-linejoin: miter"/>
   </g>
   <g id="patch_60">
    <path d="M 100.886619 192.467766 
L 103.736511 192.467766 
L 103.736511 172.139245 
L 100.886619 172.139245 
z
" clip-path="url(#p3b33a60c1b)" style="fill: #b64342; opacity: 0.5; stroke: #ffffff; stroke-width: 0.3; stroke-linejoin: miter"/>
   </g>
   <g id="patch_61">
    <path d="M 103.736511 192.467766 
L 106.586403 192.467766 
L 106.586403 150.477706 
L 103.736511 150.477706 
z
" clip-path="url(#p3b33a60c1b)" style="fill: #b64342; opacity: 0.5; stroke: #ffffff; stroke-width: 0.3; stroke-linejoin: miter"/>
   </g>
   <g id="patch_62">
    <path d="M 106.586403 192.467766 
L 109.436295 192.467766 
L 109.436295 182.470132 
L 106.586403 182.470132 
z
" clip-path="url(#p3b33a60c1b)" style="fill: #b64342; opacity: 0.5; stroke: #ffffff; stroke-width: 0.3; stroke-linejoin: miter"/>
   </g>
   <g id="patch_63">
    <path d="M 109.436295 192.467766 
L 112.286186 192.467766 
L 112.286186 97.490251 
L 109.436295 97.490251 
z
" clip-path="url(#p3b33a60c1b)" style="fill: #b64342; opacity: 0.5; stroke: #ffffff; stroke-width: 0.3; stroke-linejoin: miter"/>
   </g>
   <g id="patch_64">
    <path d="M 112.286186 192.467766 
L 115.136078 192.467766 
L 115.136078 186.80244 
L 112.286186 186.80244 
z
" clip-path="url(#p3b33a60c1b)" style="fill: #b64342; opacity: 0.5; stroke: #ffffff; stroke-width: 0.3; stroke-linejoin: miter"/>
   </g>
   <g id="patch_65">
    <path d="M 115.136078 192.467766 
L 117.98597 192.467766 
L 117.98597 181.137115 
L 115.136078 181.137115 
z
" clip-path="url(#p3b33a60c1b)" style="fill: #b64342; opacity: 0.5; stroke: #ffffff; stroke-width: 0.3; stroke-linejoin: miter"/>
   </g>
   <g id="patch_66">
    <path d="M 117.98597 192.467766 
L 120.835862 192.467766 
L 120.835862 179.804097 
L 117.98597 179.804097 
z
" clip-path="url(#p3b33a60c1b)" style="fill: #b64342; opacity: 0.5; stroke: #ffffff; stroke-width: 0.3; stroke-linejoin: miter"/>
   </g>
   <g id="patch_67">
    <path d="M 120.835862 192.467766 
L 123.685754 192.467766 
L 123.685754 185.469422 
L 120.835862 185.469422 
z
" clip-path="url(#p3b33a60c1b)" style="fill: #b64342; opacity: 0.5; stroke: #ffffff; stroke-width: 0.3; stroke-linejoin: miter"/>
   </g>
   <g id="patch_68">
    <path d="M 123.685754 192.467766 
L 126.535646 192.467766 
L 126.535646 185.469422 
L 123.685754 185.469422 
z
" clip-path="url(#p3b33a60c1b)" style="fill: #b64342; opacity: 0.5; stroke: #ffffff; stroke-width: 0.3; stroke-linejoin: miter"/>
   </g>
   <g id="patch_69">
    <path d="M 126.535646 192.467766 
L 129.385538 192.467766 
L 129.385538 188.468712 
L 126.535646 188.468712 
z
" clip-path="url(#p3b33a60c1b)" style="fill: #b64342; opacity: 0.5; stroke: #ffffff; stroke-width: 0.3; stroke-linejoin: miter"/>
   </g>
   <g id="patch_70">
    <path d="M 129.385538 192.467766 
L 132.235429 192.467766 
L 132.235429 190.468239 
L 129.385538 190.468239 
z
" clip-path="url(#p3b33a60c1b)" style="fill: #b64342; opacity: 0.5; stroke: #ffffff; stroke-width: 0.3; stroke-linejoin: miter"/>
   </g>
   <g id="patch_71">
    <path d="M 132.235429 192.467766 
L 135.085321 192.467766 
L 135.085321 191.134748 
L 132.235429 191.134748 
z
" clip-path="url(#p3b33a60c1b)" style="fill: #b64342; opacity: 0.5; stroke: #ffffff; stroke-width: 0.3; stroke-linejoin: miter"/>
   </g>
   <g id="patch_72">
    <path d="M 135.085321 192.467766 
L 137.935213 192.467766 
L 137.935213 190.801493 
L 135.085321 190.801493 
z
" clip-path="url(#p3b33a60c1b)" style="fill: #b64342; opacity: 0.5; stroke: #ffffff; stroke-width: 0.3; stroke-linejoin: miter"/>
   </g>
   <g id="matplotlib.axis_1">
    <g id="xtick_1">
     <g id="line2d_1">
      <path d="M 38.188998 192.467766 
L 38.188998 15.059766 
" clip-path="url(#p3b33a60c1b)" style="fill: none; stroke-dasharray: 1.11,0.48; stroke-dashoffset: 0; stroke: #b0b0b0; stroke-opacity: 0.3; stroke-width: 0.3"/>
     </g>
     <g id="line2d_2">
      <defs>
       <path id="m34678440ef" d="M 0 0 
L 0 3.5 
" style="stroke: #000000; stroke-width: 0.8"/>
      </defs>
      <g>
       <use xlink:href="#m34678440ef" x="38.188998" y="192.467766" style="stroke: #000000; stroke-width: 0.8"/>
      </g>
     </g>
     <g id="text_1">
      <text style="font-size: 6.5px; font-family: 'Arial', 'Helvetica', 'DejaVu Sans', sans-serif; text-anchor: middle" x="38.188998" y="204.120344" transform="rotate(-0 38.188998 204.120344)">0</text>
     </g>
    </g>
    <g id="xtick_2">
     <g id="line2d_3">
      <path d="M 63.389915 192.467766 
L 63.389915 15.059766 
" clip-path="url(#p3b33a60c1b)" style="fill: none; stroke-dasharray: 1.11,0.48; stroke-dashoffset: 0; stroke: #b0b0b0; stroke-opacity: 0.3; stroke-width: 0.3"/>
     </g>
     <g id="line2d_4">
      <g>
       <use xlink:href="#m34678440ef" x="63.389915" y="192.467766" style="stroke: #000000; stroke-width: 0.8"/>
      </g>
     </g>
     <g id="text_2">
      <text style="font-size: 6.5px; font-family: 'Arial', 'Helvetica', 'DejaVu Sans', sans-serif; text-anchor: middle" x="63.389915" y="204.120344" transform="rotate(-0 63.389915 204.120344)">2</text>
     </g>
    </g>
    <g id="xtick_3">
     <g id="line2d_5">
      <path d="M 88.590833 192.467766 
L 88.590833 15.059766 
" clip-path="url(#p3b33a60c1b)" style="fill: none; stroke-dasharray: 1.11,0.48; stroke-dashoffset: 0; stroke: #b0b0b0; stroke-opacity: 0.3; stroke-width: 0.3"/>
     </g>
     <g id="line2d_6">
      <g>
       <use xlink:href="#m34678440ef" x="88.590833" y="192.467766" style="stroke: #000000; stroke-width: 0.8"/>
      </g>
     </g>
     <g id="text_3">
      <text style="font-size: 6.5px; font-family: 'Arial', 'Helvetica', 'DejaVu Sans', sans-serif; text-anchor: middle" x="88.590833" y="204.120344" transform="rotate(-0 88.590833 204.120344)">4</text>
     </g>
    </g>
    <g id="xtick_4">
     <g id="line2d_7">
      <path d="M 113.79175 192.467766 
L 113.79175 15.059766 
" clip-path="url(#p3b33a60c1b)" style="fill: none; stroke-dasharray: 1.11,0.48; stroke-dashoffset: 0; stroke: #b0b0b0; stroke-opacity: 0.3; stroke-width: 0.3"/>
     </g>
     <g id="line2d_8">
      <g>
       <use xlink:href="#m34678440ef" x="113.79175" y="192.467766" style="stroke: #000000; stroke-width: 0.8"/>
      </g>
     </g>
     <g id="text_4">
      <text style="font-size: 6.5px; font-family: 'Arial', 'Helvetica', 'DejaVu Sans', sans-serif; text-anchor: middle" x="113.79175" y="204.120344" transform="rotate(-0 113.79175 204.120344)">6</text>
     </g>
    </g>
    <g id="xtick_5">
     <g id="line2d_9">
      <path d="M 138.992668 192.467766 
L 138.992668 15.059766 
" clip-path="url(#p3b33a60c1b)" style="fill: none; stroke-dasharray: 1.11,0.48; stroke-dashoffset: 0; stroke: #b0b0b0; stroke-opacity: 0.3; stroke-width: 0.3"/>
     </g>
     <g id="line2d_10">
      <g>
       <use xlink:href="#m34678440ef" x="138.992668" y="192.467766" style="stroke: #000000; stroke-width: 0.8"/>
      </g>
     </g>
     <g id="text_5">
      <text style="font-size: 6.5px; font-family: 'Arial', 'Helvetica', 'DejaVu Sans', sans-serif; text-anchor: middle" x="138.992668" y="204.120344" transform="rotate(-0 138.992668 204.120344)">8</text>
     </g>
    </g>
    <g id="xtick_6">
     <g id="line2d_11">
      <path d="M 164.193585 192.467766 
L 164.193585 15.059766 
" clip-path="url(#p3b33a60c1b)" style="fill: none; stroke-dasharray: 1.11,0.48; stroke-dashoffset: 0; stroke: #b0b0b0; stroke-opacity: 0.3; stroke-width: 0.3"/>
     </g>
     <g id="line2d_12">
      <g>
       <use xlink:href="#m34678440ef" x="164.193585" y="192.467766" style="stroke: #000000; stroke-width: 0.8"/>
      </g>
     </g>
     <g id="text_6">
      <text style="font-size: 6.5px; font-family: 'Arial', 'Helvetica', 'DejaVu Sans', sans-serif; text-anchor: middle" x="164.193585" y="204.120344" transform="rotate(-0 164.193585 204.120344)">10</text>
     </g>
    </g>
    <g id="xtick_7">
     <g id="line2d_13">
      <path d="M 189.394503 192.467766 
L 189.394503 15.059766 
" clip-path="url(#p3b33a60c1b)" style="fill: none; stroke-dasharray: 1.11,0.48; stroke-dashoffset: 0; stroke: #b0b0b0; stroke-opacity: 0.3; stroke-width: 0.3"/>
     </g>
     <g id="line2d_14">
      <g>
       <use xlink:href="#m34678440ef" x="189.394503" y="192.467766" style="stroke: #000000; stroke-width: 0.8"/>
      </g>
     </g>
     <g id="text_7">
      <text style="font-size: 6.5px; font-family: 'Arial', 'Helvetica', 'DejaVu Sans', sans-serif; text-anchor: middle" x="189.394503" y="204.120344" transform="rotate(-0 189.394503 204.120344)">12</text>
     </g>
    </g>
    <g id="text_8">
     <text style="font-size: 7px; font-family: 'Arial', 'Helvetica', 'DejaVu Sans', sans-serif; text-anchor: middle" x="118.891477" y="214.508" transform="rotate(-0 118.891477 214.508)">log(1+Diamond)</text>
    </g>
   </g>
   <g id="matplotlib.axis_2">
    <g id="ytick_1">
     <g id="line2d_15">
      <path d="M 30.11875 192.467766 
L 207.664205 192.467766 
" clip-path="url(#p3b33a60c1b)" style="fill: none; stroke-dasharray: 1.11,0.48; stroke-dashoffset: 0; stroke: #b0b0b0; stroke-opacity: 0.3; stroke-width: 0.3"/>
     </g>
     <g id="line2d_16">
      <defs>
       <path id="m2ad3e86bd3" d="M 0 0 
L -3.5 0 
" style="stroke: #000000; stroke-width: 0.8"/>
      </defs>
      <g>
       <use xlink:href="#m2ad3e86bd3" x="30.11875" y="192.467766" style="stroke: #000000; stroke-width: 0.8"/>
      </g>
     </g>
     <g id="text_9">
      <text style="font-size: 6.5px; font-family: 'Arial', 'Helvetica', 'DejaVu Sans', sans-serif; text-anchor: end" x="23.11875" y="194.794055" transform="rotate(-0 23.11875 194.794055)">0.0</text>
     </g>
    </g>
    <g id="ytick_2">
     <g id="line2d_17">
      <path d="M 30.11875 169.584409 
L 207.664205 169.584409 
" clip-path="url(#p3b33a60c1b)" style="fill: none; stroke-dasharray: 1.11,0.48; stroke-dashoffset: 0; stroke: #b0b0b0; stroke-opacity: 0.3; stroke-width: 0.3"/>
     </g>
     <g id="line2d_18">
      <g>
       <use xlink:href="#m2ad3e86bd3" x="30.11875" y="169.584409" style="stroke: #000000; stroke-width: 0.8"/>
      </g>
     </g>
     <g id="text_10">
      <text style="font-size: 6.5px; font-family: 'Arial', 'Helvetica', 'DejaVu Sans', sans-serif; text-anchor: end" x="23.11875" y="171.910698" transform="rotate(-0 23.11875 171.910698)">0.2</text>
     </g>
    </g>
    <g id="ytick_3">
     <g id="line2d_19">
      <path d="M 30.11875 146.701052 
L 207.664205 146.701052 
" clip-path="url(#p3b33a60c1b)" style="fill: none; stroke-dasharray: 1.11,0.48; stroke-dashoffset: 0; stroke: #b0b0b0; stroke-opacity: 0.3; stroke-width: 0.3"/>
     </g>
     <g id="line2d_20">
      <g>
       <use xlink:href="#m2ad3e86bd3" x="30.11875" y="146.701052" style="stroke: #000000; stroke-width: 0.8"/>
      </g>
     </g>
     <g id="text_11">
      <text style="font-size: 6.5px; font-family: 'Arial', 'Helvetica', 'DejaVu Sans', sans-serif; text-anchor: end" x="23.11875" y="149.027341" transform="rotate(-0 23.11875 149.027341)">0.4</text>
     </g>
    </g>
    <g id="ytick_4">
     <g id="line2d_21">
      <path d="M 30.11875 123.817695 
L 207.664205 123.817695 
" clip-path="url(#p3b33a60c1b)" style="fill: none; stroke-dasharray: 1.11,0.48; stroke-dashoffset: 0; stroke: #b0b0b0; stroke-opacity: 0.3; stroke-width: 0.3"/>
     </g>
     <g id="line2d_22">
      <g>
       <use xlink:href="#m2ad3e86bd3" x="30.11875" y="123.817695" style="stroke: #000000; stroke-width: 0.8"/>
      </g>
     </g>
     <g id="text_12">
      <text style="font-size: 6.5px; font-family: 'Arial', 'Helvetica', 'DejaVu Sans', sans-serif; text-anchor: end" x="23.11875" y="126.143984" transform="rotate(-0 23.11875 126.143984)">0.6</text>
     </g>
    </g>
    <g id="ytick_5">
     <g id="line2d_23">
      <path d="M 30.11875 100.934338 
L 207.664205 100.934338 
" clip-path="url(#p3b33a60c1b)" style="fill: none; stroke-dasharray: 1.11,0.48; stroke-dashoffset: 0; stroke: #b0b0b0; stroke-opacity: 0.3; stroke-width: 0.3"/>
     </g>
     <g id="line2d_24">
      <g>
       <use xlink:href="#m2ad3e86bd3" x="30.11875" y="100.934338" style="stroke: #000000; stroke-width: 0.8"/>
      </g>
     </g>
     <g id="text_13">
      <text style="font-size: 6.5px; font-family: 'Arial', 'Helvetica', 'DejaVu Sans', sans-serif; text-anchor: end" x="23.11875" y="103.260627" transform="rotate(-0 23.11875 103.260627)">0.8</text>
     </g>
    </g>
    <g id="ytick_6">
     <g id="line2d_25">
      <path d="M 30.11875 78.050981 
L 207.664205 78.050981 
" clip-path="url(#p3b33a60c1b)" style="fill: none; stroke-dasharray: 1.11,0.48; stroke-dashoffset: 0; stroke: #b0b0b0; stroke-opacity: 0.3; stroke-width: 0.3"/>
     </g>
     <g id="line2d_26">
      <g>
       <use xlink:href="#m2ad3e86bd3" x="30.11875" y="78.050981" style="stroke: #000000; stroke-width: 0.8"/>
      </g>
     </g>
     <g id="text_14">
      <text style="font-size: 6.5px; font-family: 'Arial', 'Helvetica', 'DejaVu Sans', sans-serif; text-anchor: end" x="23.11875" y="80.37727" transform="rotate(-0 23.11875 80.37727)">1.0</text>
     </g>
    </g>
    <g id="ytick_7">
     <g id="line2d_27">
      <path d="M 30.11875 55.167624 
L 207.664205 55.167624 
" clip-path="url(#p3b33a60c1b)" style="fill: none; stroke-dasharray: 1.11,0.48; stroke-dashoffset: 0; stroke: #b0b0b0; stroke-opacity: 0.3; stroke-width: 0.3"/>
     </g>
     <g id="line2d_28">
      <g>
       <use xlink:href="#m2ad3e86bd3" x="30.11875" y="55.167624" style="stroke: #000000; stroke-width: 0.8"/>
      </g>
     </g>
     <g id="text_15">
      <text style="font-size: 6.5px; font-family: 'Arial', 'Helvetica', 'DejaVu Sans', sans-serif; text-anchor: end" x="23.11875" y="57.493913" transform="rotate(-0 23.11875 57.493913)">1.2</text>
     </g>
    </g>
    <g id="ytick_8">
     <g id="line2d_29">
      <path d="M 30.11875 32.284267 
L 207.664205 32.284267 
" clip-path="url(#p3b33a60c1b)" style="fill: none; stroke-dasharray: 1.11,0.48; stroke-dashoffset: 0; stroke: #b0b0b0; stroke-opacity: 0.3; stroke-width: 0.3"/>
     </g>
     <g id="line2d_30">
      <g>
       <use xlink:href="#m2ad3e86bd3" x="30.11875" y="32.284267" style="stroke: #000000; stroke-width: 0.8"/>
      </g>
     </g>
     <g id="text_16">
      <text style="font-size: 6.5px; font-family: 'Arial', 'Helvetica', 'DejaVu Sans', sans-serif; text-anchor: end" x="23.11875" y="34.610556" transform="rotate(-0 23.11875 34.610556)">1.4</text>
     </g>
    </g>
    <g id="text_17">
     <text style="font-size: 7px; font-family: 'Arial', 'Helvetica', 'DejaVu Sans', sans-serif; text-anchor: middle" x="8.610469" y="103.763766" transform="rotate(-90 8.610469 103.763766)">Density</text>
    </g>
   </g>
   <g id="patch_73">
    <path d="M 30.11875 192.467766 
L 30.11875 15.059766 
" style="fill: none; stroke: #000000; stroke-width: 0.8; stroke-linejoin: miter; stroke-linecap: square"/>
   </g>
   <g id="patch_74">
    <path d="M 30.11875 192.467766 
L 207.664205 192.467766 
" style="fill: none; stroke: #000000; stroke-width: 0.8; stroke-linejoin: miter; stroke-linecap: square"/>
   </g>
   <g id="text_18">
    <text style="font-weight: 700; font-size: 7.5px; font-family: 'Arial', 'Helvetica', 'DejaVu Sans', sans-serif; text-anchor: middle" x="118.891477" y="9.059766" transform="rotate(-0 118.891477 9.059766)">Diamond: Survive vs Churn</text>
   </g>
   <g id="legend_1">
    <g id="patch_75">
     <path d="M 151.846939 23.946562 
L 162.846939 23.946562 
L 162.846939 20.096562 
L 151.846939 20.096562 
z
" style="fill: #8bcf8b; opacity: 0.5; stroke: #ffffff; stroke-width: 0.3; stroke-linejoin: miter"/>
    </g>
    <g id="text_19">
     <text style="font-size: 5.5px; font-family: 'Arial', 'Helvetica', 'DejaVu Sans', sans-serif; text-anchor: start" x="167.246939" y="23.946562" transform="rotate(-0 167.246939 23.946562)">Survived &gt;=7d</text>
    </g>
    <g id="patch_76">
     <path d="M 151.846939 31.726484 
L 162.846939 31.726484 
L 162.846939 27.876484 
L 151.846939 27.876484 
z
" style="fill: #b64342; opacity: 0.5; stroke: #ffffff; stroke-width: 0.3; stroke-linejoin: miter"/>
    </g>
    <g id="text_20">
     <text style="font-size: 5.5px; font-family: 'Arial', 'Helvetica', 'DejaVu Sans', sans-serif; text-anchor: start" x="167.246939" y="31.726484" transform="rotate(-0 167.246939 31.726484)">Churned &lt;7d</text>
    </g>
   </g>
  </g>
  <g id="axes_2">
   <g id="patch_77">
    <path d="M 243.173295 192.467766 
L 420.71875 192.467766 
L 420.71875 15.059766 
L 243.173295 15.059766 
z
" style="fill: #ffffff"/>
   </g>
   <g id="matplotlib.axis_3">
    <g id="xtick_8">
     <g id="line2d_31">
      <path d="M 251.243543 192.467766 
L 251.243543 15.059766 
" clip-path="url(#pd69ce6d612)" style="fill: none; stroke-dasharray: 1.11,0.48; stroke-dashoffset: 0; stroke: #b0b0b0; stroke-opacity: 0.3; stroke-width: 0.3"/>
     </g>
     <g id="line2d_32">
      <g>
       <use xlink:href="#m34678440ef" x="251.243543" y="192.467766" style="stroke: #000000; stroke-width: 0.8"/>
      </g>
     </g>
     <g id="text_21">
      <text style="font-size: 6.5px; font-family: 'Arial', 'Helvetica', 'DejaVu Sans', sans-serif; text-anchor: middle" x="251.243543" y="204.120344" transform="rotate(-0 251.243543 204.120344)">0</text>
     </g>
    </g>
    <g id="xtick_9">
     <g id="line2d_33">
      <path d="M 273.314145 192.467766 
L 273.314145 15.059766 
" clip-path="url(#pd69ce6d612)" style="fill: none; stroke-dasharray: 1.11,0.48; stroke-dashoffset: 0; stroke: #b0b0b0; stroke-opacity: 0.3; stroke-width: 0.3"/>
     </g>
     <g id="line2d_34">
      <g>
       <use xlink:href="#m34678440ef" x="273.314145" y="192.467766" style="stroke: #000000; stroke-width: 0.8"/>
      </g>
     </g>
     <g id="text_22">
      <text style="font-size: 6.5px; font-family: 'Arial', 'Helvetica', 'DejaVu Sans', sans-serif; text-anchor: middle" x="273.314145" y="204.120344" transform="rotate(-0 273.314145 204.120344)">50000</text>
     </g>
    </g>
    <g id="xtick_10">
     <g id="line2d_35">
      <path d="M 295.384747 192.467766 
L 295.384747 15.059766 
" clip-path="url(#pd69ce6d612)" style="fill: none; stroke-dasharray: 1.11,0.48; stroke-dashoffset: 0; stroke: #b0b0b0; stroke-opacity: 0.3; stroke-width: 0.3"/>
     </g>
     <g id="line2d_36">
      <g>
       <use xlink:href="#m34678440ef" x="295.384747" y="192.467766" style="stroke: #000000; stroke-width: 0.8"/>
      </g>
     </g>
     <g id="text_23">
      <text style="font-size: 6.5px; font-family: 'Arial', 'Helvetica', 'DejaVu Sans', sans-serif; text-anchor: middle" x="295.384747" y="204.120344" transform="rotate(-0 295.384747 204.120344)">100000</text>
     </g>
    </g>
    <g id="xtick_11">
     <g id="line2d_37">
      <path d="M 317.455348 192.467766 
L 317.455348 15.059766 
" clip-path="url(#pd69ce6d612)" style="fill: none; stroke-dasharray: 1.11,0.48; stroke-dashoffset: 0; stroke: #b0b0b0; stroke-opacity: 0.3; stroke-width: 0.3"/>
     </g>
     <g id="line2d_38">
      <g>
       <use xlink:href="#m34678440ef" x="317.455348" y="192.467766" style="stroke: #000000; stroke-width: 0.8"/>
      </g>
     </g>
     <g id="text_24">
      <text style="font-size: 6.5px; font-family: 'Arial', 'Helvetica', 'DejaVu Sans', sans-serif; text-anchor: middle" x="317.455348" y="204.120344" transform="rotate(-0 317.455348 204.120344)">150000</text>
     </g>
    </g>
    <g id="xtick_12">
     <g id="line2d_39">
      <path d="M 339.52595 192.467766 
L 339.52595 15.059766 
" clip-path="url(#pd69ce6d612)" style="fill: none; stroke-dasharray: 1.11,0.48; stroke-dashoffset: 0; stroke: #b0b0b0; stroke-opacity: 0.3; stroke-width: 0.3"/>
     </g>
     <g id="line2d_40">
      <g>
       <use xlink:href="#m34678440ef" x="339.52595" y="192.467766" style="stroke: #000000; stroke-width: 0.8"/>
      </g>
     </g>
     <g id="text_25">
      <text style="font-size: 6.5px; font-family: 'Arial', 'Helvetica', 'DejaVu Sans', sans-serif; text-anchor: middle" x="339.52595" y="204.120344" transform="rotate(-0 339.52595 204.120344)">200000</text>
     </g>
    </g>
    <g id="xtick_13">
     <g id="line2d_41">
      <path d="M 361.596552 192.467766 
L 361.596552 15.059766 
" clip-path="url(#pd69ce6d612)" style="fill: none; stroke-dasharray: 1.11,0.48; stroke-dashoffset: 0; stroke: #b0b0b0; stroke-opacity: 0.3; stroke-width: 0.3"/>
     </g>
     <g id="line2d_42">
      <g>
       <use xlink:href="#m34678440ef" x="361.596552" y="192.467766" style="stroke: #000000; stroke-width: 0.8"/>
      </g>
     </g>
     <g id="text_26">
      <text style="font-size: 6.5px; font-family: 'Arial', 'Helvetica', 'DejaVu Sans', sans-serif; text-anchor: middle" x="361.596552" y="204.120344" transform="rotate(-0 361.596552 204.120344)">250000</text>
     </g>
    </g>
    <g id="xtick_14">
     <g id="line2d_43">
      <path d="M 383.667154 192.467766 
L 383.667154 15.059766 
" clip-path="url(#pd69ce6d612)" style="fill: none; stroke-dasharray: 1.11,0.48; stroke-dashoffset: 0; stroke: #b0b0b0; stroke-opacity: 0.3; stroke-width: 0.3"/>
     </g>
     <g id="line2d_44">
      <g>
       <use xlink:href="#m34678440ef" x="383.667154" y="192.467766" style="stroke: #000000; stroke-width: 0.8"/>
      </g>
     </g>
     <g id="text_27">
      <text style="font-size: 6.5px; font-family: 'Arial', 'Helvetica', 'DejaVu Sans', sans-serif; text-anchor: middle" x="383.667154" y="204.120344" transform="rotate(-0 383.667154 204.120344)">300000</text>
     </g>
    </g>
    <g id="xtick_15">
     <g id="line2d_45">
      <path d="M 405.737755 192.467766 
L 405.737755 15.059766 
" clip-path="url(#pd69ce6d612)" style="fill: none; stroke-dasharray: 1.11,0.48; stroke-dashoffset: 0; stroke: #b0b0b0; stroke-opacity: 0.3; stroke-width: 0.3"/>
     </g>
     <g id="line2d_46">
      <g>
       <use xlink:href="#m34678440ef" x="405.737755" y="192.467766" style="stroke: #000000; stroke-width: 0.8"/>
      </g>
     </g>
     <g id="text_28">
      <text style="font-size: 6.5px; font-family: 'Arial', 'Helvetica', 'DejaVu Sans', sans-serif; text-anchor: middle" x="405.737755" y="204.120344" transform="rotate(-0 405.737755 204.120344)">350000</text>
     </g>
    </g>
    <g id="text_29">
     <text style="font-size: 7px; font-family: 'Arial', 'Helvetica', 'DejaVu Sans', sans-serif; text-anchor: middle" x="331.946023" y="214.422687" transform="rotate(-0 331.946023 214.422687)">Median Diamond</text>
    </g>
   </g>
   <g id="matplotlib.axis_4">
    <g id="ytick_9">
     <g id="line2d_47">
      <path d="M 243.173295 184.404681 
L 420.71875 184.404681 
" clip-path="url(#pd69ce6d612)" style="fill: none; stroke-dasharray: 1.11,0.48; stroke-dashoffset: 0; stroke: #b0b0b0; stroke-opacity: 0.3; stroke-width: 0.3"/>
     </g>
     <g id="line2d_48">
      <g>
       <use xlink:href="#m2ad3e86bd3" x="243.173295" y="184.404681" style="stroke: #000000; stroke-width: 0.8"/>
      </g>
     </g>
     <g id="text_30">
      <text style="font-size: 6.5px; font-family: 'Arial', 'Helvetica', 'DejaVu Sans', sans-serif; text-anchor: end" x="236.173295" y="186.73097" transform="rotate(-0 236.173295 186.73097)">0.0</text>
     </g>
    </g>
    <g id="ytick_10">
     <g id="line2d_49">
      <path d="M 243.173295 152.148256 
L 420.71875 152.148256 
" clip-path="url(#pd69ce6d612)" style="fill: none; stroke-dasharray: 1.11,0.48; stroke-dashoffset: 0; stroke: #b0b0b0; stroke-opacity: 0.3; stroke-width: 0.3"/>
     </g>
     <g id="line2d_50">
      <g>
       <use xlink:href="#m2ad3e86bd3" x="243.173295" y="152.148256" style="stroke: #000000; stroke-width: 0.8"/>
      </g>
     </g>
     <g id="text_31">
      <text style="font-size: 6.5px; font-family: 'Arial', 'Helvetica', 'DejaVu Sans', sans-serif; text-anchor: end" x="236.173295" y="154.474545" transform="rotate(-0 236.173295 154.474545)">0.2</text>
     </g>
    </g>
    <g id="ytick_11">
     <g id="line2d_51">
      <path d="M 243.173295 119.891831 
L 420.71875 119.891831 
" clip-path="url(#pd69ce6d612)" style="fill: none; stroke-dasharray: 1.11,0.48; stroke-dashoffset: 0; stroke: #b0b0b0; stroke-opacity: 0.3; stroke-width: 0.3"/>
     </g>
     <g id="line2d_52">
      <g>
       <use xlink:href="#m2ad3e86bd3" x="243.173295" y="119.891831" style="stroke: #000000; stroke-width: 0.8"/>
      </g>
     </g>
     <g id="text_32">
      <text style="font-size: 6.5px; font-family: 'Arial', 'Helvetica', 'DejaVu Sans', sans-serif; text-anchor: end" x="236.173295" y="122.21812" transform="rotate(-0 236.173295 122.21812)">0.4</text>
     </g>
    </g>
    <g id="ytick_12">
     <g id="line2d_53">
      <path d="M 243.173295 87.635405 
L 420.71875 87.635405 
" clip-path="url(#pd69ce6d612)" style="fill: none; stroke-dasharray: 1.11,0.48; stroke-dashoffset: 0; stroke: #b0b0b0; stroke-opacity: 0.3; stroke-width: 0.3"/>
     </g>
     <g id="line2d_54">
      <g>
       <use xlink:href="#m2ad3e86bd3" x="243.173295" y="87.635405" style="stroke: #000000; stroke-width: 0.8"/>
      </g>
     </g>
     <g id="text_33">
      <text style="font-size: 6.5px; font-family: 'Arial', 'Helvetica', 'DejaVu Sans', sans-serif; text-anchor: end" x="236.173295" y="89.961694" transform="rotate(-0 236.173295 89.961694)">0.6</text>
     </g>
    </g>
    <g id="ytick_13">
     <g id="line2d_55">
      <path d="M 243.173295 55.37898 
L 420.71875 55.37898 
" clip-path="url(#pd69ce6d612)" style="fill: none; stroke-dasharray: 1.11,0.48; stroke-dashoffset: 0; stroke: #b0b0b0; stroke-opacity: 0.3; stroke-width: 0.3"/>
     </g>
     <g id="line2d_56">
      <g>
       <use xlink:href="#m2ad3e86bd3" x="243.173295" y="55.37898" style="stroke: #000000; stroke-width: 0.8"/>
      </g>
     </g>
     <g id="text_34">
      <text style="font-size: 6.5px; font-family: 'Arial', 'Helvetica', 'DejaVu Sans', sans-serif; text-anchor: end" x="236.173295" y="57.705269" transform="rotate(-0 236.173295 57.705269)">0.8</text>
     </g>
    </g>
    <g id="ytick_14">
     <g id="line2d_57">
      <path d="M 243.173295 23.122555 
L 420.71875 23.122555 
" clip-path="url(#pd69ce6d612)" style="fill: none; stroke-dasharray: 1.11,0.48; stroke-dashoffset: 0; stroke: #b0b0b0; stroke-opacity: 0.3; stroke-width: 0.3"/>
     </g>
     <g id="line2d_58">
      <g>
       <use xlink:href="#m2ad3e86bd3" x="243.173295" y="23.122555" style="stroke: #000000; stroke-width: 0.8"/>
      </g>
     </g>
     <g id="text_35">
      <text style="font-size: 6.5px; font-family: 'Arial', 'Helvetica', 'DejaVu Sans', sans-serif; text-anchor: end" x="236.173295" y="25.448844" transform="rotate(-0 236.173295 25.448844)">1.0</text>
     </g>
    </g>
    <g id="text_36">
     <text style="font-size: 7px; font-family: 'Arial', 'Helvetica', 'DejaVu Sans', sans-serif; text-anchor: middle" x="221.665014" y="103.763766" transform="rotate(-90 221.665014 103.763766)">P(Churn in 7d)</text>
    </g>
   </g>
   <g id="line2d_59">
    <path d="M 251.243543 23.123766 
L 251.243604 23.124096 
L 251.243674 23.124516 
L 251.243753 23.125052 
L 251.243843 23.125733 
L 251.243945 23.126599 
L 251.244061 23.127703 
L 251.244194 23.129107 
L 251.244345 23.130894 
L 251.244516 23.133169 
L 251.244712 23.136064 
L 251.244934 23.139748 
L 251.245187 23.144438 
L 251.245475 23.150406 
L 251.245803 23.158001 
L 251.246176 23.167667 
L 251.246601 23.179968 
L 251.247084 23.195622 
L 251.247634 23.215541 
L 251.24826 23.240886 
L 251.248973 23.273133 
L 251.249784 23.314158 
L 251.250707 23.366342 
L 251.251757 23.432712 
L 251.252953 23.517106 
L 251.254313 23.624393 
L 251.255862 23.760738 
L 251.257625 23.933939 
L 251.259631 24.153844 
L 251.261914 24.432863 
L 251.264512 24.786588 
L 251.26747 25.234542 
L 251.270836 25.80106 
L 251.274667 26.516301 
L 251.279027 27.41736 
L 251.283989 28.549433 
L 251.289637 29.966901 
L 251.296065 31.734145 
L 251.303381 33.925781 
L 251.311707 36.625853 
L 251.321184 39.925404 
L 251.33197 43.917752 
L 251.344245 48.69081 
L 251.358216 54.316161 
L 251.374117 60.835239 
L 251.392214 68.244168 
L 251.412812 76.480131 
L 251.436254 85.413251 
L 251.462935 94.848006 
L 251.493301 104.536506 
L 251.527861 114.202743 
L 251.567195 123.573219 
L 251.611963 132.406994 
L 251.662915 140.518408 
L 251.720904 147.788435 
L 251.786904 154.164364 
L 251.86202 159.650514 
L 251.947513 164.294119 
L 252.044815 168.170217 
L 252.155557 171.368226 
L 252.281596 173.981533 
L 252.425046 176.100319 
L 252.58831 177.807239 
L 252.774126 179.175305 
L 252.98561 180.267271 
L 253.226306 181.135996 
L 253.50025 181.825311 
L 253.812035 182.37113 
L 254.166887 182.802615 
L 254.570755 183.143271 
L 255.030411 183.411942 
L 255.55356 183.623668 
L 256.148973 183.790411 
L 256.826631 183.921662 
L 257.597895 184.024935 
L 258.475696 184.106168 
L 259.474749 184.17005 
L 260.611804 184.220277 
L 261.905922 184.259761 
L 263.3788 184.290798 
L 265.055129 184.315191 
L 266.963013 184.334361 
L 269.134437 184.349426 
L 271.605804 184.361265 
L 274.418547 184.370568 
L 277.619819 184.377877 
L 281.26329 184.383621 
L 285.410041 184.388134 
L 290.129592 184.39168 
L 295.501063 184.394466 
L 301.614508 184.396655 
L 308.572415 184.398375 
L 316.491432 184.399727 
L 325.50432 184.400789 
L 335.762176 184.401623 
L 347.436972 184.402278 
L 360.724432 184.402793 
L 375.847316 184.403198 
L 393.059155 184.403516 
L 412.648502 184.403766 
" clip-path="url(#pd69ce6d612)" style="fill: none; stroke: #0f4d92; stroke-width: 1.2; stroke-linecap: square"/>
   </g>
   <g id="line2d_60">
    <path d="M 243.173295 103.763618 
L 420.71875 103.763618 
" clip-path="url(#pd69ce6d612)" style="fill: none; stroke-dasharray: 0.6,0.99; stroke-dashoffset: 0; stroke: #767676; stroke-width: 0.6"/>
   </g>
   <g id="line2d_61">
    <path d="M 251.493301 192.467766 
L 251.493301 15.059766 
" clip-path="url(#pd69ce6d612)" style="fill: none; stroke-dasharray: 0.6,0.99; stroke-dashoffset: 0; stroke: #b64342; stroke-width: 0.6"/>
   </g>
   <g id="patch_78">
    <path d="M 243.173295 192.467766 
L 243.173295 15.059766 
" style="fill: none; stroke: #000000; stroke-width: 0.8; stroke-linejoin: miter; stroke-linecap: square"/>
   </g>
   <g id="patch_79">
    <path d="M 243.173295 192.467766 
L 420.71875 192.467766 
" style="fill: none; stroke: #000000; stroke-width: 0.8; stroke-linejoin: miter; stroke-linecap: square"/>
   </g>
   <g id="text_37">
    <text style="font-weight: 700; font-size: 7.5px; font-family: 'Arial', 'Helvetica', 'DejaVu Sans', sans-serif; text-anchor: middle" x="331.946023" y="9.059766" transform="rotate(-0 331.946023 9.059766)">Churn Risk vs Diamond (Thresh≈566)</text>
   </g>
  </g>
 </g>
 <defs>
  <clipPath id="p3b33a60c1b">
   <rect x="30.11875" y="15.059766" width="177.545455" height="177.408"/>
  </clipPath>
  <clipPath id="pd69ce6d612">
   <rect x="243.173295" y="15.059766" width="177.545455" height="177.408"/>
  </clipPath>
 </defs>
</svg>
