<?xml version="1.0" encoding="utf-8" standalone="no"?>
<!DOCTYPE svg PUBLIC "-//W3C//DTD SVG 1.1//EN"
  "http://www.w3.org/Graphics/SVG/1.1/DTD/svg11.dtd">
<svg xmlns:xlink="http://www.w3.org/1999/xlink" width="425.911719pt" height="220.372297pt" viewBox="0 0 425.911719 220.372297" xmlns="http://www.w3.org/2000/svg" version="1.1">
 <metadata>
  <rdf:RDF xmlns:dc="http://purl.org/dc/elements/1.1/" xmlns:cc="http://creativecommons.org/ns#" xmlns:rdf="http://www.w3.org/1999/02/22-rdf-syntax-ns#">
   <cc:Work>
    <dc:type rdf:resource="http://purl.org/dc/dcmitype/StillImage"/>
    <dc:date>2026-05-21T19:41:57.869875</dc:date>
    <dc:format>image/svg+xml</dc:format>
    <dc:creator>
     <cc:Agent>
      <dc:title>Matplotlib v3.10.0, https://matplotlib.org/</dc:title>
     </cc:Agent>
    </dc:creator>
   </cc:Work>
  </rdf:RDF>
 </metadata>
 <defs>
  <style type="text/css">*{stroke-linejoin: round; stroke-linecap: butt}</style>
 </defs>
 <g id="figure_1">
  <g id="patch_1">
   <path d="M 0 220.372297 
L 425.911719 220.372297 
L 425.911719 0 
L 0 0 
z
" style="fill: #ffffff"/>
  </g>
  <g id="axes_1">
   <g id="patch_2">
    <path d="M 31.711719 192.706828 
L 209.257173 192.706828 
L 209.257173 15.298828 
L 31.711719 15.298828 
z
" style="fill: #ffffff"/>
   </g>
   <g id="patch_3">
    <path d="M 97.934602 192.706828 
L 100.884669 192.706828 
L 100.884669 172.428728 
L 97.934602 172.428728 
z
" clip-path="url(#p8b5a1eab73)" style="fill: #8bcf8b; opacity: 0.5; stroke: #ffffff; stroke-width: 0.3; stroke-linejoin: miter"/>
   </g>
   <g id="patch_4">
    <path d="M 100.884669 192.706828 
L 103.834735 192.706828 
L 103.834735 191.692923 
L 100.884669 191.692923 
z
" clip-path="url(#p8b5a1eab73)" style="fill: #8bcf8b; opacity: 0.5; stroke: #ffffff; stroke-width: 0.3; stroke-linejoin: miter"/>
   </g>
   <g id="patch_5">
    <path d="M 103.834735 192.706828 
L 106.784801 192.706828 
L 106.784801 184.595588 
L 103.834735 184.595588 
z
" clip-path="url(#p8b5a1eab73)" style="fill: #8bcf8b; opacity: 0.5; stroke: #ffffff; stroke-width: 0.3; stroke-linejoin: miter"/>
   </g>
   <g id="patch_6">
    <path d="M 106.784801 192.706828 
L 109.734868 192.706828 
L 109.734868 187.637303 
L 106.784801 187.637303 
z
" clip-path="url(#p8b5a1eab73)" style="fill: #8bcf8b; opacity: 0.5; stroke: #ffffff; stroke-width: 0.3; stroke-linejoin: miter"/>
   </g>
   <g id="patch_7">
    <path d="M 109.734868 192.706828 
L 112.684934 192.706828 
L 112.684934 88.274612 
L 109.734868 88.274612 
z
" clip-path="url(#p8b5a1eab73)" style="fill: #8bcf8b; opacity: 0.5; stroke: #ffffff; stroke-width: 0.3; stroke-linejoin: miter"/>
   </g>
   <g id="patch_8">
    <path d="M 112.684934 192.706828 
L 115.635 192.706828 
L 115.635 181.553873 
L 112.684934 181.553873 
z
" clip-path="url(#p8b5a1eab73)" style="fill: #8bcf8b; opacity: 0.5; stroke: #ffffff; stroke-width: 0.3; stroke-linejoin: miter"/>
   </g>
   <g id="patch_9">
    <path d="M 115.635 192.706828 
L 118.585067 192.706828 
L 118.585067 157.220153 
L 115.635 157.220153 
z
" clip-path="url(#p8b5a1eab73)" style="fill: #8bcf8b; opacity: 0.5; stroke: #ffffff; stroke-width: 0.3; stroke-linejoin: miter"/>
   </g>
   <g id="patch_10">
    <path d="M 118.585067 192.706828 
L 121.535133 192.706828 
L 121.535133 137.955958 
L 118.585067 137.955958 
z
" clip-path="url(#p8b5a1eab73)" style="fill: #8bcf8b; opacity: 0.5; stroke: #ffffff; stroke-width: 0.3; stroke-linejoin: miter"/>
   </g>
   <g id="patch_11">
    <path d="M 121.535133 192.706828 
L 124.4852 192.706828 
L 124.4852 142.011578 
L 121.535133 142.011578 
z
" clip-path="url(#p8b5a1eab73)" style="fill: #8bcf8b; opacity: 0.5; stroke: #ffffff; stroke-width: 0.3; stroke-linejoin: miter"/>
   </g>
   <g id="patch_12">
    <path d="M 124.4852 192.706828 
L 127.435266 192.706828 
L 127.435266 139.983768 
L 124.4852 139.983768 
z
" clip-path="url(#p8b5a1eab73)" style="fill: #8bcf8b; opacity: 0.5; stroke: #ffffff; stroke-width: 0.3; stroke-linejoin: miter"/>
   </g>
   <g id="patch_13">
    <path d="M 127.435266 192.706828 
L 130.385332 192.706828 
L 130.385332 155.192343 
L 127.435266 155.192343 
z
" clip-path="url(#p8b5a1eab73)" style="fill: #8bcf8b; opacity: 0.5; stroke: #ffffff; stroke-width: 0.3; stroke-linejoin: miter"/>
   </g>
   <g id="patch_14">
    <path d="M 130.385332 192.706828 
L 133.335399 192.706828 
L 133.335399 161.275773 
L 130.385332 161.275773 
z
" clip-path="url(#p8b5a1eab73)" style="fill: #8bcf8b; opacity: 0.5; stroke: #ffffff; stroke-width: 0.3; stroke-linejoin: miter"/>
   </g>
   <g id="patch_15">
    <path d="M 133.335399 192.706828 
L 136.285465 192.706828 
L 136.285465 160.261868 
L 133.335399 160.261868 
z
" clip-path="url(#p8b5a1eab73)" style="fill: #8bcf8b; opacity: 0.5; stroke: #ffffff; stroke-width: 0.3; stroke-linejoin: miter"/>
   </g>
   <g id="patch_16">
    <path d="M 136.285465 192.706828 
L 139.235531 192.706828 
L 139.235531 179.526063 
L 136.285465 179.526063 
z
" clip-path="url(#p8b5a1eab73)" style="fill: #8bcf8b; opacity: 0.5; stroke: #ffffff; stroke-width: 0.3; stroke-linejoin: miter"/>
   </g>
   <g id="patch_17">
    <path d="M 139.235531 192.706828 
L 142.185598 192.706828 
L 142.185598 181.553873 
L 139.235531 181.553873 
z
" clip-path="url(#p8b5a1eab73)" style="fill: #8bcf8b; opacity: 0.5; stroke: #ffffff; stroke-width: 0.3; stroke-linejoin: miter"/>
   </g>
   <g id="patch_18">
    <path d="M 142.185598 192.706828 
L 145.135664 192.706828 
L 145.135664 185.609493 
L 142.185598 185.609493 
z
" clip-path="url(#p8b5a1eab73)" style="fill: #8bcf8b; opacity: 0.5; stroke: #ffffff; stroke-width: 0.3; stroke-linejoin: miter"/>
   </g>
   <g id="patch_19">
    <path d="M 145.135664 192.706828 
L 148.085731 192.706828 
L 148.085731 187.637303 
L 145.135664 187.637303 
z
" clip-path="url(#p8b5a1eab73)" style="fill: #8bcf8b; opacity: 0.5; stroke: #ffffff; stroke-width: 0.3; stroke-linejoin: miter"/>
   </g>
   <g id="patch_20">
    <path d="M 148.085731 192.706828 
L 151.035797 192.706828 
L 151.035797 191.692923 
L 148.085731 191.692923 
z
" clip-path="url(#p8b5a1eab73)" style="fill: #8bcf8b; opacity: 0.5; stroke: #ffffff; stroke-width: 0.3; stroke-linejoin: miter"/>
   </g>
   <g id="patch_21">
    <path d="M 151.035797 192.706828 
L 153.985863 192.706828 
L 153.985863 192.706828 
L 151.035797 192.706828 
z
" clip-path="url(#p8b5a1eab73)" style="fill: #8bcf8b; opacity: 0.5; stroke: #ffffff; stroke-width: 0.3; stroke-linejoin: miter"/>
   </g>
   <g id="patch_22">
    <path d="M 153.985863 192.706828 
L 156.93593 192.706828 
L 156.93593 192.706828 
L 153.985863 192.706828 
z
" clip-path="url(#p8b5a1eab73)" style="fill: #8bcf8b; opacity: 0.5; stroke: #ffffff; stroke-width: 0.3; stroke-linejoin: miter"/>
   </g>
   <g id="patch_23">
    <path d="M 156.93593 192.706828 
L 159.885996 192.706828 
L 159.885996 191.692923 
L 156.93593 191.692923 
z
" clip-path="url(#p8b5a1eab73)" style="fill: #8bcf8b; opacity: 0.5; stroke: #ffffff; stroke-width: 0.3; stroke-linejoin: miter"/>
   </g>
   <g id="patch_24">
    <path d="M 159.885996 192.706828 
L 162.836062 192.706828 
L 162.836062 191.692923 
L 159.885996 191.692923 
z
" clip-path="url(#p8b5a1eab73)" style="fill: #8bcf8b; opacity: 0.5; stroke: #ffffff; stroke-width: 0.3; stroke-linejoin: miter"/>
   </g>
   <g id="patch_25">
    <path d="M 162.836062 192.706828 
L 165.786129 192.706828 
L 165.786129 191.692923 
L 162.836062 191.692923 
z
" clip-path="url(#p8b5a1eab73)" style="fill: #8bcf8b; opacity: 0.5; stroke: #ffffff; stroke-width: 0.3; stroke-linejoin: miter"/>
   </g>
   <g id="patch_26">
    <path d="M 165.786129 192.706828 
L 168.736195 192.706828 
L 168.736195 191.692923 
L 165.786129 191.692923 
z
" clip-path="url(#p8b5a1eab73)" style="fill: #8bcf8b; opacity: 0.5; stroke: #ffffff; stroke-width: 0.3; stroke-linejoin: miter"/>
   </g>
   <g id="patch_27">
    <path d="M 168.736195 192.706828 
L 171.686262 192.706828 
L 171.686262 192.706828 
L 168.736195 192.706828 
z
" clip-path="url(#p8b5a1eab73)" style="fill: #8bcf8b; opacity: 0.5; stroke: #ffffff; stroke-width: 0.3; stroke-linejoin: miter"/>
   </g>
   <g id="patch_28">
    <path d="M 171.686262 192.706828 
L 174.636328 192.706828 
L 174.636328 192.706828 
L 171.686262 192.706828 
z
" clip-path="url(#p8b5a1eab73)" style="fill: #8bcf8b; opacity: 0.5; stroke: #ffffff; stroke-width: 0.3; stroke-linejoin: miter"/>
   </g>
   <g id="patch_29">
    <path d="M 174.636328 192.706828 
L 177.586394 192.706828 
L 177.586394 192.706828 
L 174.636328 192.706828 
z
" clip-path="url(#p8b5a1eab73)" style="fill: #8bcf8b; opacity: 0.5; stroke: #ffffff; stroke-width: 0.3; stroke-linejoin: miter"/>
   </g>
   <g id="patch_30">
    <path d="M 177.586394 192.706828 
L 180.536461 192.706828 
L 180.536461 191.692923 
L 177.586394 191.692923 
z
" clip-path="url(#p8b5a1eab73)" style="fill: #8bcf8b; opacity: 0.5; stroke: #ffffff; stroke-width: 0.3; stroke-linejoin: miter"/>
   </g>
   <g id="patch_31">
    <path d="M 180.536461 192.706828 
L 183.486527 192.706828 
L 183.486527 192.706828 
L 180.536461 192.706828 
z
" clip-path="url(#p8b5a1eab73)" style="fill: #8bcf8b; opacity: 0.5; stroke: #ffffff; stroke-width: 0.3; stroke-linejoin: miter"/>
   </g>
   <g id="patch_32">
    <path d="M 183.486527 192.706828 
L 186.436593 192.706828 
L 186.436593 192.706828 
L 183.486527 192.706828 
z
" clip-path="url(#p8b5a1eab73)" style="fill: #8bcf8b; opacity: 0.5; stroke: #ffffff; stroke-width: 0.3; stroke-linejoin: miter"/>
   </g>
   <g id="patch_33">
    <path d="M 186.436593 192.706828 
L 189.38666 192.706828 
L 189.38666 192.706828 
L 186.436593 192.706828 
z
" clip-path="url(#p8b5a1eab73)" style="fill: #8bcf8b; opacity: 0.5; stroke: #ffffff; stroke-width: 0.3; stroke-linejoin: miter"/>
   </g>
   <g id="patch_34">
    <path d="M 189.38666 192.706828 
L 192.336726 192.706828 
L 192.336726 192.706828 
L 189.38666 192.706828 
z
" clip-path="url(#p8b5a1eab73)" style="fill: #8bcf8b; opacity: 0.5; stroke: #ffffff; stroke-width: 0.3; stroke-linejoin: miter"/>
   </g>
   <g id="patch_35">
    <path d="M 192.336726 192.706828 
L 195.286793 192.706828 
L 195.286793 192.706828 
L 192.336726 192.706828 
z
" clip-path="url(#p8b5a1eab73)" style="fill: #8bcf8b; opacity: 0.5; stroke: #ffffff; stroke-width: 0.3; stroke-linejoin: miter"/>
   </g>
   <g id="patch_36">
    <path d="M 195.286793 192.706828 
L 198.236859 192.706828 
L 198.236859 192.706828 
L 195.286793 192.706828 
z
" clip-path="url(#p8b5a1eab73)" style="fill: #8bcf8b; opacity: 0.5; stroke: #ffffff; stroke-width: 0.3; stroke-linejoin: miter"/>
   </g>
   <g id="patch_37">
    <path d="M 198.236859 192.706828 
L 201.186925 192.706828 
L 201.186925 191.692923 
L 198.236859 191.692923 
z
" clip-path="url(#p8b5a1eab73)" style="fill: #8bcf8b; opacity: 0.5; stroke: #ffffff; stroke-width: 0.3; stroke-linejoin: miter"/>
   </g>
   <g id="patch_38">
    <path d="M 39.781967 192.706828 
L 42.631859 192.706828 
L 42.631859 110.726236 
L 39.781967 110.726236 
z
" clip-path="url(#p8b5a1eab73)" style="fill: #b64342; opacity: 0.5; stroke: #ffffff; stroke-width: 0.3; stroke-linejoin: miter"/>
   </g>
   <g id="patch_39">
    <path d="M 42.631859 192.706828 
L 45.48175 192.706828 
L 45.48175 192.706828 
L 42.631859 192.706828 
z
" clip-path="url(#p8b5a1eab73)" style="fill: #b64342; opacity: 0.5; stroke: #ffffff; stroke-width: 0.3; stroke-linejoin: miter"/>
   </g>
   <g id="patch_40">
    <path d="M 45.48175 192.706828 
L 48.331642 192.706828 
L 48.331642 192.706828 
L 45.48175 192.706828 
z
" clip-path="url(#p8b5a1eab73)" style="fill: #b64342; opacity: 0.5; stroke: #ffffff; stroke-width: 0.3; stroke-linejoin: miter"/>
   </g>
   <g id="patch_41">
    <path d="M 48.331642 192.706828 
L 51.181534 192.706828 
L 51.181534 192.706828 
L 48.331642 192.706828 
z
" clip-path="url(#p8b5a1eab73)" style="fill: #b64342; opacity: 0.5; stroke: #ffffff; stroke-width: 0.3; stroke-linejoin: miter"/>
   </g>
   <g id="patch_42">
    <path d="M 51.181534 192.706828 
L 54.031426 192.706828 
L 54.031426 192.706828 
L 51.181534 192.706828 
z
" clip-path="url(#p8b5a1eab73)" style="fill: #b64342; opacity: 0.5; stroke: #ffffff; stroke-width: 0.3; stroke-linejoin: miter"/>
   </g>
   <g id="patch_43">
    <path d="M 54.031426 192.706828 
L 56.881318 192.706828 
L 56.881318 192.706828 
L 54.031426 192.706828 
z
" clip-path="url(#p8b5a1eab73)" style="fill: #b64342; opacity: 0.5; stroke: #ffffff; stroke-width: 0.3; stroke-linejoin: miter"/>
   </g>
   <g id="patch_44">
    <path d="M 56.881318 192.706828 
L 59.73121 192.706828 
L 59.73121 192.706828 
L 56.881318 192.706828 
z
" clip-path="url(#p8b5a1eab73)" style="fill: #b64342; opacity: 0.5; stroke: #ffffff; stroke-width: 0.3; stroke-linejoin: miter"/>
   </g>
   <g id="patch_45">
    <path d="M 59.73121 192.706828 
L 62.581102 192.706828 
L 62.581102 192.706828 
L 59.73121 192.706828 
z
" clip-path="url(#p8b5a1eab73)" style="fill: #b64342; opacity: 0.5; stroke: #ffffff; stroke-width: 0.3; stroke-linejoin: miter"/>
   </g>
   <g id="patch_46">
    <path d="M 62.581102 192.706828 
L 65.430993 192.706828 
L 65.430993 192.706828 
L 62.581102 192.706828 
z
" clip-path="url(#p8b5a1eab73)" style="fill: #b64342; opacity: 0.5; stroke: #ffffff; stroke-width: 0.3; stroke-linejoin: miter"/>
   </g>
   <g id="patch_47">
    <path d="M 65.430993 192.706828 
L 68.280885 192.706828 
L 68.280885 192.706828 
L 65.430993 192.706828 
z
" clip-path="url(#p8b5a1eab73)" style="fill: #b64342; opacity: 0.5; stroke: #ffffff; stroke-width: 0.3; stroke-linejoin: miter"/>
   </g>
   <g id="patch_48">
    <path d="M 68.280885 192.706828 
L 71.130777 192.706828 
L 71.130777 192.706828 
L 68.280885 192.706828 
z
" clip-path="url(#p8b5a1eab73)" style="fill: #b64342; opacity: 0.5; stroke: #ffffff; stroke-width: 0.3; stroke-linejoin: miter"/>
   </g>
   <g id="patch_49">
    <path d="M 71.130777 192.706828 
L 73.980669 192.706828 
L 73.980669 192.706828 
L 71.130777 192.706828 
z
" clip-path="url(#p8b5a1eab73)" style="fill: #b64342; opacity: 0.5; stroke: #ffffff; stroke-width: 0.3; stroke-linejoin: miter"/>
   </g>
   <g id="patch_50">
    <path d="M 73.980669 192.706828 
L 76.830561 192.706828 
L 76.830561 192.706828 
L 73.980669 192.706828 
z
" clip-path="url(#p8b5a1eab73)" style="fill: #b64342; opacity: 0.5; stroke: #ffffff; stroke-width: 0.3; stroke-linejoin: miter"/>
   </g>
   <g id="patch_51">
    <path d="M 76.830561 192.706828 
L 79.680453 192.706828 
L 79.680453 192.706828 
L 76.830561 192.706828 
z
" clip-path="url(#p8b5a1eab73)" style="fill: #b64342; opacity: 0.5; stroke: #ffffff; stroke-width: 0.3; stroke-linejoin: miter"/>
   </g>
   <g id="patch_52">
    <path d="M 79.680453 192.706828 
L 82.530345 192.706828 
L 82.530345 188.37452 
L 79.680453 188.37452 
z
" clip-path="url(#p8b5a1eab73)" style="fill: #b64342; opacity: 0.5; stroke: #ffffff; stroke-width: 0.3; stroke-linejoin: miter"/>
   </g>
   <g id="patch_53">
    <path d="M 82.530345 192.706828 
L 85.380237 192.706828 
L 85.380237 192.706828 
L 82.530345 192.706828 
z
" clip-path="url(#p8b5a1eab73)" style="fill: #b64342; opacity: 0.5; stroke: #ffffff; stroke-width: 0.3; stroke-linejoin: miter"/>
   </g>
   <g id="patch_54">
    <path d="M 85.380237 192.706828 
L 88.230128 192.706828 
L 88.230128 192.706828 
L 85.380237 192.706828 
z
" clip-path="url(#p8b5a1eab73)" style="fill: #b64342; opacity: 0.5; stroke: #ffffff; stroke-width: 0.3; stroke-linejoin: miter"/>
   </g>
   <g id="patch_55">
    <path d="M 88.230128 192.706828 
L 91.08002 192.706828 
L 91.08002 173.044816 
L 88.230128 173.044816 
z
" clip-path="url(#p8b5a1eab73)" style="fill: #b64342; opacity: 0.5; stroke: #ffffff; stroke-width: 0.3; stroke-linejoin: miter"/>
   </g>
   <g id="patch_56">
    <path d="M 91.08002 192.706828 
L 93.929912 192.706828 
L 93.929912 192.706828 
L 91.08002 192.706828 
z
" clip-path="url(#p8b5a1eab73)" style="fill: #b64342; opacity: 0.5; stroke: #ffffff; stroke-width: 0.3; stroke-linejoin: miter"/>
   </g>
   <g id="patch_57">
    <path d="M 93.929912 192.706828 
L 96.779804 192.706828 
L 96.779804 188.37452 
L 93.929912 188.37452 
z
" clip-path="url(#p8b5a1eab73)" style="fill: #b64342; opacity: 0.5; stroke: #ffffff; stroke-width: 0.3; stroke-linejoin: miter"/>
   </g>
   <g id="patch_58">
    <path d="M 96.779804 192.706828 
L 99.629696 192.706828 
L 99.629696 23.746828 
L 96.779804 23.746828 
z
" clip-path="url(#p8b5a1eab73)" style="fill: #b64342; opacity: 0.5; stroke: #ffffff; stroke-width: 0.3; stroke-linejoin: miter"/>
   </g>
   <g id="patch_59">
    <path d="M 99.629696 192.706828 
L 102.479588 192.706828 
L 102.479588 186.041739 
L 99.629696 186.041739 
z
" clip-path="url(#p8b5a1eab73)" style="fill: #b64342; opacity: 0.5; stroke: #ffffff; stroke-width: 0.3; stroke-linejoin: miter"/>
   </g>
   <g id="patch_60">
    <path d="M 102.479588 192.706828 
L 105.32948 192.706828 
L 105.32948 172.378307 
L 102.479588 172.378307 
z
" clip-path="url(#p8b5a1eab73)" style="fill: #b64342; opacity: 0.5; stroke: #ffffff; stroke-width: 0.3; stroke-linejoin: miter"/>
   </g>
   <g id="patch_61">
    <path d="M 105.32948 192.706828 
L 108.179371 192.706828 
L 108.179371 150.716769 
L 105.32948 150.716769 
z
" clip-path="url(#p8b5a1eab73)" style="fill: #b64342; opacity: 0.5; stroke: #ffffff; stroke-width: 0.3; stroke-linejoin: miter"/>
   </g>
   <g id="patch_62">
    <path d="M 108.179371 192.706828 
L 111.029263 192.706828 
L 111.029263 182.709195 
L 108.179371 182.709195 
z
" clip-path="url(#p8b5a1eab73)" style="fill: #b64342; opacity: 0.5; stroke: #ffffff; stroke-width: 0.3; stroke-linejoin: miter"/>
   </g>
   <g id="patch_63">
    <path d="M 111.029263 192.706828 
L 113.879155 192.706828 
L 113.879155 97.729313 
L 111.029263 97.729313 
z
" clip-path="url(#p8b5a1eab73)" style="fill: #b64342; opacity: 0.5; stroke: #ffffff; stroke-width: 0.3; stroke-linejoin: miter"/>
   </g>
   <g id="patch_64">
    <path d="M 113.879155 192.706828 
L 116.729047 192.706828 
L 116.729047 187.041503 
L 113.879155 187.041503 
z
" clip-path="url(#p8b5a1eab73)" style="fill: #b64342; opacity: 0.5; stroke: #ffffff; stroke-width: 0.3; stroke-linejoin: miter"/>
   </g>
   <g id="patch_65">
    <path d="M 116.729047 192.706828 
L 119.578939 192.706828 
L 119.578939 181.376177 
L 116.729047 181.376177 
z
" clip-path="url(#p8b5a1eab73)" style="fill: #b64342; opacity: 0.5; stroke: #ffffff; stroke-width: 0.3; stroke-linejoin: miter"/>
   </g>
   <g id="patch_66">
    <path d="M 119.578939 192.706828 
L 122.428831 192.706828 
L 122.428831 180.043159 
L 119.578939 180.043159 
z
" clip-path="url(#p8b5a1eab73)" style="fill: #b64342; opacity: 0.5; stroke: #ffffff; stroke-width: 0.3; stroke-linejoin: miter"/>
   </g>
   <g id="patch_67">
    <path d="M 122.428831 192.706828 
L 125.278723 192.706828 
L 125.278723 185.708485 
L 122.428831 185.708485 
z
" clip-path="url(#p8b5a1eab73)" style="fill: #b64342; opacity: 0.5; stroke: #ffffff; stroke-width: 0.3; stroke-linejoin: miter"/>
   </g>
   <g id="patch_68">
    <path d="M 125.278723 192.706828 
L 128.128614 192.706828 
L 128.128614 185.708485 
L 125.278723 185.708485 
z
" clip-path="url(#p8b5a1eab73)" style="fill: #b64342; opacity: 0.5; stroke: #ffffff; stroke-width: 0.3; stroke-linejoin: miter"/>
   </g>
   <g id="patch_69">
    <path d="M 128.128614 192.706828 
L 130.978506 192.706828 
L 130.978506 188.707775 
L 128.128614 188.707775 
z
" clip-path="url(#p8b5a1eab73)" style="fill: #b64342; opacity: 0.5; stroke: #ffffff; stroke-width: 0.3; stroke-linejoin: miter"/>
   </g>
   <g id="patch_70">
    <path d="M 130.978506 192.706828 
L 133.828398 192.706828 
L 133.828398 190.707301 
L 130.978506 190.707301 
z
" clip-path="url(#p8b5a1eab73)" style="fill: #b64342; opacity: 0.5; stroke: #ffffff; stroke-width: 0.3; stroke-linejoin: miter"/>
   </g>
   <g id="patch_71">
    <path d="M 133.828398 192.706828 
L 136.67829 192.706828 
L 136.67829 191.37381 
L 133.828398 191.37381 
z
" clip-path="url(#p8b5a1eab73)" style="fill: #b64342; opacity: 0.5; stroke: #ffffff; stroke-width: 0.3; stroke-linejoin: miter"/>
   </g>
   <g id="patch_72">
    <path d="M 136.67829 192.706828 
L 139.528182 192.706828 
L 139.528182 191.040556 
L 136.67829 191.040556 
z
" clip-path="url(#p8b5a1eab73)" style="fill: #b64342; opacity: 0.5; stroke: #ffffff; stroke-width: 0.3; stroke-linejoin: miter"/>
   </g>
   <g id="matplotlib.axis_1">
    <g id="xtick_1">
     <g id="line2d_1">
      <path d="M 39.781967 192.706828 
L 39.781967 15.298828 
" clip-path="url(#p8b5a1eab73)" style="fill: none; stroke-dasharray: 1.11,0.48; stroke-dashoffset: 0; stroke: #b0b0b0; stroke-opacity: 0.3; stroke-width: 0.3"/>
     </g>
     <g id="line2d_2">
      <defs>
       <path id="m08e60d5c97" d="M 0 0 
L 0 3.5 
" style="stroke: #000000; stroke-width: 0.8"/>
      </defs>
      <g>
       <use xlink:href="#m08e60d5c97" x="39.781967" y="192.706828" style="stroke: #000000; stroke-width: 0.8"/>
      </g>
     </g>
     <g id="text_1">
      <text style="font-size: 6.5px; font-family: 'DejaVu Sans', 'Arial', 'Helvetica', sans-serif; text-anchor: middle" x="39.781967" y="204.645812" transform="rotate(-0 39.781967 204.645812)">0</text>
     </g>
    </g>
    <g id="xtick_2">
     <g id="line2d_3">
      <path d="M 64.982884 192.706828 
L 64.982884 15.298828 
" clip-path="url(#p8b5a1eab73)" style="fill: none; stroke-dasharray: 1.11,0.48; stroke-dashoffset: 0; stroke: #b0b0b0; stroke-opacity: 0.3; stroke-width: 0.3"/>
     </g>
     <g id="line2d_4">
      <g>
       <use xlink:href="#m08e60d5c97" x="64.982884" y="192.706828" style="stroke: #000000; stroke-width: 0.8"/>
      </g>
     </g>
     <g id="text_2">
      <text style="font-size: 6.5px; font-family: 'DejaVu Sans', 'Arial', 'Helvetica', sans-serif; text-anchor: middle" x="64.982884" y="204.645812" transform="rotate(-0 64.982884 204.645812)">2</text>
     </g>
    </g>
    <g id="xtick_3">
     <g id="line2d_5">
      <path d="M 90.183802 192.706828 
L 90.183802 15.298828 
" clip-path="url(#p8b5a1eab73)" style="fill: none; stroke-dasharray: 1.11,0.48; stroke-dashoffset: 0; stroke: #b0b0b0; stroke-opacity: 0.3; stroke-width: 0.3"/>
     </g>
     <g id="line2d_6">
      <g>
       <use xlink:href="#m08e60d5c97" x="90.183802" y="192.706828" style="stroke: #000000; stroke-width: 0.8"/>
      </g>
     </g>
     <g id="text_3">
      <text style="font-size: 6.5px; font-family: 'DejaVu Sans', 'Arial', 'Helvetica', sans-serif; text-anchor: middle" x="90.183802" y="204.645812" transform="rotate(-0 90.183802 204.645812)">4</text>
     </g>
    </g>
    <g id="xtick_4">
     <g id="line2d_7">
      <path d="M 115.384719 192.706828 
L 115.384719 15.298828 
" clip-path="url(#p8b5a1eab73)" style="fill: none; stroke-dasharray: 1.11,0.48; stroke-dashoffset: 0; stroke: #b0b0b0; stroke-opacity: 0.3; stroke-width: 0.3"/>
     </g>
     <g id="line2d_8">
      <g>
       <use xlink:href="#m08e60d5c97" x="115.384719" y="192.706828" style="stroke: #000000; stroke-width: 0.8"/>
      </g>
     </g>
     <g id="text_4">
      <text style="font-size: 6.5px; font-family: 'DejaVu Sans', 'Arial', 'Helvetica', sans-serif; text-anchor: middle" x="115.384719" y="204.645812" transform="rotate(-0 115.384719 204.645812)">6</text>
     </g>
    </g>
    <g id="xtick_5">
     <g id="line2d_9">
      <path d="M 140.585636 192.706828 
L 140.585636 15.298828 
" clip-path="url(#p8b5a1eab73)" style="fill: none; stroke-dasharray: 1.11,0.48; stroke-dashoffset: 0; stroke: #b0b0b0; stroke-opacity: 0.3; stroke-width: 0.3"/>
     </g>
     <g id="line2d_10">
      <g>
       <use xlink:href="#m08e60d5c97" x="140.585636" y="192.706828" style="stroke: #000000; stroke-width: 0.8"/>
      </g>
     </g>
     <g id="text_5">
      <text style="font-size: 6.5px; font-family: 'DejaVu Sans', 'Arial', 'Helvetica', sans-serif; text-anchor: middle" x="140.585636" y="204.645812" transform="rotate(-0 140.585636 204.645812)">8</text>
     </g>
    </g>
    <g id="xtick_6">
     <g id="line2d_11">
      <path d="M 165.786554 192.706828 
L 165.786554 15.298828 
" clip-path="url(#p8b5a1eab73)" style="fill: none; stroke-dasharray: 1.11,0.48; stroke-dashoffset: 0; stroke: #b0b0b0; stroke-opacity: 0.3; stroke-width: 0.3"/>
     </g>
     <g id="line2d_12">
      <g>
       <use xlink:href="#m08e60d5c97" x="165.786554" y="192.706828" style="stroke: #000000; stroke-width: 0.8"/>
      </g>
     </g>
     <g id="text_6">
      <text style="font-size: 6.5px; font-family: 'DejaVu Sans', 'Arial', 'Helvetica', sans-serif; text-anchor: middle" x="165.786554" y="204.645812" transform="rotate(-0 165.786554 204.645812)">10</text>
     </g>
    </g>
    <g id="xtick_7">
     <g id="line2d_13">
      <path d="M 190.987471 192.706828 
L 190.987471 15.298828 
" clip-path="url(#p8b5a1eab73)" style="fill: none; stroke-dasharray: 1.11,0.48; stroke-dashoffset: 0; stroke: #b0b0b0; stroke-opacity: 0.3; stroke-width: 0.3"/>
     </g>
     <g id="line2d_14">
      <g>
       <use xlink:href="#m08e60d5c97" x="190.987471" y="192.706828" style="stroke: #000000; stroke-width: 0.8"/>
      </g>
     </g>
     <g id="text_7">
      <text style="font-size: 6.5px; font-family: 'DejaVu Sans', 'Arial', 'Helvetica', sans-serif; text-anchor: middle" x="190.987471" y="204.645812" transform="rotate(-0 190.987471 204.645812)">12</text>
     </g>
    </g>
    <g id="text_8">
     <text style="font-size: 7px; font-family: 'DejaVu Sans', 'Arial', 'Helvetica', sans-serif; text-anchor: middle" x="120.484446" y="215.316516" transform="rotate(-0 120.484446 215.316516)">log(1+Diamond)</text>
    </g>
   </g>
   <g id="matplotlib.axis_2">
    <g id="ytick_1">
     <g id="line2d_15">
      <path d="M 31.711719 192.706828 
L 209.257173 192.706828 
" clip-path="url(#p8b5a1eab73)" style="fill: none; stroke-dasharray: 1.11,0.48; stroke-dashoffset: 0; stroke: #b0b0b0; stroke-opacity: 0.3; stroke-width: 0.3"/>
     </g>
     <g id="line2d_16">
      <defs>
       <path id="mdbbcbf0e1e" d="M 0 0 
L -3.5 0 
" style="stroke: #000000; stroke-width: 0.8"/>
      </defs>
      <g>
       <use xlink:href="#mdbbcbf0e1e" x="31.711719" y="192.706828" style="stroke: #000000; stroke-width: 0.8"/>
      </g>
     </g>
     <g id="text_9">
      <text style="font-size: 6.5px; font-family: 'DejaVu Sans', 'Arial', 'Helvetica', sans-serif; text-anchor: end" x="24.711719" y="195.17632" transform="rotate(-0 24.711719 195.17632)">0.0</text>
     </g>
    </g>
    <g id="ytick_2">
     <g id="line2d_17">
      <path d="M 31.711719 169.823471 
L 209.257173 169.823471 
" clip-path="url(#p8b5a1eab73)" style="fill: none; stroke-dasharray: 1.11,0.48; stroke-dashoffset: 0; stroke: #b0b0b0; stroke-opacity: 0.3; stroke-width: 0.3"/>
     </g>
     <g id="line2d_18">
      <g>
       <use xlink:href="#mdbbcbf0e1e" x="31.711719" y="169.823471" style="stroke: #000000; stroke-width: 0.8"/>
      </g>
     </g>
     <g id="text_10">
      <text style="font-size: 6.5px; font-family: 'DejaVu Sans', 'Arial', 'Helvetica', sans-serif; text-anchor: end" x="24.711719" y="172.292963" transform="rotate(-0 24.711719 172.292963)">0.2</text>
     </g>
    </g>
    <g id="ytick_3">
     <g id="line2d_19">
      <path d="M 31.711719 146.940114 
L 209.257173 146.940114 
" clip-path="url(#p8b5a1eab73)" style="fill: none; stroke-dasharray: 1.11,0.48; stroke-dashoffset: 0; stroke: #b0b0b0; stroke-opacity: 0.3; stroke-width: 0.3"/>
     </g>
     <g id="line2d_20">
      <g>
       <use xlink:href="#mdbbcbf0e1e" x="31.711719" y="146.940114" style="stroke: #000000; stroke-width: 0.8"/>
      </g>
     </g>
     <g id="text_11">
      <text style="font-size: 6.5px; font-family: 'DejaVu Sans', 'Arial', 'Helvetica', sans-serif; text-anchor: end" x="24.711719" y="149.409606" transform="rotate(-0 24.711719 149.409606)">0.4</text>
     </g>
    </g>
    <g id="ytick_4">
     <g id="line2d_21">
      <path d="M 31.711719 124.056757 
L 209.257173 124.056757 
" clip-path="url(#p8b5a1eab73)" style="fill: none; stroke-dasharray: 1.11,0.48; stroke-dashoffset: 0; stroke: #b0b0b0; stroke-opacity: 0.3; stroke-width: 0.3"/>
     </g>
     <g id="line2d_22">
      <g>
       <use xlink:href="#mdbbcbf0e1e" x="31.711719" y="124.056757" style="stroke: #000000; stroke-width: 0.8"/>
      </g>
     </g>
     <g id="text_12">
      <text style="font-size: 6.5px; font-family: 'DejaVu Sans', 'Arial', 'Helvetica', sans-serif; text-anchor: end" x="24.711719" y="126.52625" transform="rotate(-0 24.711719 126.52625)">0.6</text>
     </g>
    </g>
    <g id="ytick_5">
     <g id="line2d_23">
      <path d="M 31.711719 101.1734 
L 209.257173 101.1734 
" clip-path="url(#p8b5a1eab73)" style="fill: none; stroke-dasharray: 1.11,0.48; stroke-dashoffset: 0; stroke: #b0b0b0; stroke-opacity: 0.3; stroke-width: 0.3"/>
     </g>
     <g id="line2d_24">
      <g>
       <use xlink:href="#mdbbcbf0e1e" x="31.711719" y="101.1734" style="stroke: #000000; stroke-width: 0.8"/>
      </g>
     </g>
     <g id="text_13">
      <text style="font-size: 6.5px; font-family: 'DejaVu Sans', 'Arial', 'Helvetica', sans-serif; text-anchor: end" x="24.711719" y="103.642893" transform="rotate(-0 24.711719 103.642893)">0.8</text>
     </g>
    </g>
    <g id="ytick_6">
     <g id="line2d_25">
      <path d="M 31.711719 78.290044 
L 209.257173 78.290044 
" clip-path="url(#p8b5a1eab73)" style="fill: none; stroke-dasharray: 1.11,0.48; stroke-dashoffset: 0; stroke: #b0b0b0; stroke-opacity: 0.3; stroke-width: 0.3"/>
     </g>
     <g id="line2d_26">
      <g>
       <use xlink:href="#mdbbcbf0e1e" x="31.711719" y="78.290044" style="stroke: #000000; stroke-width: 0.8"/>
      </g>
     </g>
     <g id="text_14">
      <text style="font-size: 6.5px; font-family: 'DejaVu Sans', 'Arial', 'Helvetica', sans-serif; text-anchor: end" x="24.711719" y="80.759536" transform="rotate(-0 24.711719 80.759536)">1.0</text>
     </g>
    </g>
    <g id="ytick_7">
     <g id="line2d_27">
      <path d="M 31.711719 55.406687 
L 209.257173 55.406687 
" clip-path="url(#p8b5a1eab73)" style="fill: none; stroke-dasharray: 1.11,0.48; stroke-dashoffset: 0; stroke: #b0b0b0; stroke-opacity: 0.3; stroke-width: 0.3"/>
     </g>
     <g id="line2d_28">
      <g>
       <use xlink:href="#mdbbcbf0e1e" x="31.711719" y="55.406687" style="stroke: #000000; stroke-width: 0.8"/>
      </g>
     </g>
     <g id="text_15">
      <text style="font-size: 6.5px; font-family: 'DejaVu Sans', 'Arial', 'Helvetica', sans-serif; text-anchor: end" x="24.711719" y="57.876179" transform="rotate(-0 24.711719 57.876179)">1.2</text>
     </g>
    </g>
    <g id="ytick_8">
     <g id="line2d_29">
      <path d="M 31.711719 32.52333 
L 209.257173 32.52333 
" clip-path="url(#p8b5a1eab73)" style="fill: none; stroke-dasharray: 1.11,0.48; stroke-dashoffset: 0; stroke: #b0b0b0; stroke-opacity: 0.3; stroke-width: 0.3"/>
     </g>
     <g id="line2d_30">
      <g>
       <use xlink:href="#mdbbcbf0e1e" x="31.711719" y="32.52333" style="stroke: #000000; stroke-width: 0.8"/>
      </g>
     </g>
     <g id="text_16">
      <text style="font-size: 6.5px; font-family: 'DejaVu Sans', 'Arial', 'Helvetica', sans-serif; text-anchor: end" x="24.711719" y="34.992822" transform="rotate(-0 24.711719 34.992822)">1.4</text>
     </g>
    </g>
    <g id="text_17">
     <text style="font-size: 7px; font-family: 'DejaVu Sans', 'Arial', 'Helvetica', sans-serif; text-anchor: middle" x="8.918906" y="104.002828" transform="rotate(-90 8.918906 104.002828)">Density</text>
    </g>
   </g>
   <g id="patch_73">
    <path d="M 31.711719 192.706828 
L 31.711719 15.298828 
" style="fill: none; stroke: #000000; stroke-width: 0.8; stroke-linejoin: miter; stroke-linecap: square"/>
   </g>
   <g id="patch_74">
    <path d="M 31.711719 192.706828 
L 209.257173 192.706828 
" style="fill: none; stroke: #000000; stroke-width: 0.8; stroke-linejoin: miter; stroke-linecap: square"/>
   </g>
   <g id="text_18">
    <text style="font-weight: 700; font-size: 7.5px; font-family: 'DejaVu Sans', 'Arial', 'Helvetica', sans-serif; text-anchor: middle" x="120.484446" y="9.298828" transform="rotate(-0 120.484446 9.298828)">Diamond: Survive vs Churn</text>
   </g>
   <g id="legend_1">
    <g id="patch_75">
     <path d="M 146.797798 24.427969 
L 157.797798 24.427969 
L 157.797798 20.577969 
L 146.797798 20.577969 
z
" style="fill: #8bcf8b; opacity: 0.5; stroke: #ffffff; stroke-width: 0.3; stroke-linejoin: miter"/>
    </g>
    <g id="text_19">
     <text style="font-size: 5.5px; font-family: 'DejaVu Sans', 'Arial', 'Helvetica', sans-serif; text-anchor: start" x="162.197798" y="24.427969" transform="rotate(-0 162.197798 24.427969)">Survived &gt;=7d</text>
    </g>
    <g id="patch_76">
     <path d="M 146.797798 32.500937 
L 157.797798 32.500937 
L 157.797798 28.650937 
L 146.797798 28.650937 
z
" style="fill: #b64342; opacity: 0.5; stroke: #ffffff; stroke-width: 0.3; stroke-linejoin: miter"/>
    </g>
    <g id="text_20">
     <text style="font-size: 5.5px; font-family: 'DejaVu Sans', 'Arial', 'Helvetica', sans-serif; text-anchor: start" x="162.197798" y="32.500937" transform="rotate(-0 162.197798 32.500937)">Churned &lt;7d</text>
    </g>
   </g>
  </g>
  <g id="axes_2">
   <g id="patch_77">
    <path d="M 244.766264 192.706828 
L 422.311719 192.706828 
L 422.311719 15.298828 
L 244.766264 15.298828 
z
" style="fill: #ffffff"/>
   </g>
   <g id="matplotlib.axis_3">
    <g id="xtick_8">
     <g id="line2d_31">
      <path d="M 252.836512 192.706828 
L 252.836512 15.298828 
" clip-path="url(#p63eb931276)" style="fill: none; stroke-dasharray: 1.11,0.48; stroke-dashoffset: 0; stroke: #b0b0b0; stroke-opacity: 0.3; stroke-width: 0.3"/>
     </g>
     <g id="line2d_32">
      <g>
       <use xlink:href="#m08e60d5c97" x="252.836512" y="192.706828" style="stroke: #000000; stroke-width: 0.8"/>
      </g>
     </g>
     <g id="text_21">
      <text style="font-size: 6.5px; font-family: 'DejaVu Sans', 'Arial', 'Helvetica', sans-serif; text-anchor: middle" x="252.836512" y="204.645812" transform="rotate(-0 252.836512 204.645812)">0</text>
     </g>
    </g>
    <g id="xtick_9">
     <g id="line2d_33">
      <path d="M 274.907114 192.706828 
L 274.907114 15.298828 
" clip-path="url(#p63eb931276)" style="fill: none; stroke-dasharray: 1.11,0.48; stroke-dashoffset: 0; stroke: #b0b0b0; stroke-opacity: 0.3; stroke-width: 0.3"/>
     </g>
     <g id="line2d_34">
      <g>
       <use xlink:href="#m08e60d5c97" x="274.907114" y="192.706828" style="stroke: #000000; stroke-width: 0.8"/>
      </g>
     </g>
     <g id="text_22">
      <text style="font-size: 6.5px; font-family: 'DejaVu Sans', 'Arial', 'Helvetica', sans-serif; text-anchor: middle" x="274.907114" y="204.645812" transform="rotate(-0 274.907114 204.645812)">50000</text>
     </g>
    </g>
    <g id="xtick_10">
     <g id="line2d_35">
      <path d="M 296.977716 192.706828 
L 296.977716 15.298828 
" clip-path="url(#p63eb931276)" style="fill: none; stroke-dasharray: 1.11,0.48; stroke-dashoffset: 0; stroke: #b0b0b0; stroke-opacity: 0.3; stroke-width: 0.3"/>
     </g>
     <g id="line2d_36">
      <g>
       <use xlink:href="#m08e60d5c97" x="296.977716" y="192.706828" style="stroke: #000000; stroke-width: 0.8"/>
      </g>
     </g>
     <g id="text_23">
      <text style="font-size: 6.5px; font-family: 'DejaVu Sans', 'Arial', 'Helvetica', sans-serif; text-anchor: middle" x="296.977716" y="204.645812" transform="rotate(-0 296.977716 204.645812)">100000</text>
     </g>
    </g>
    <g id="xtick_11">
     <g id="line2d_37">
      <path d="M 319.048317 192.706828 
L 319.048317 15.298828 
" clip-path="url(#p63eb931276)" style="fill: none; stroke-dasharray: 1.11,0.48; stroke-dashoffset: 0; stroke: #b0b0b0; stroke-opacity: 0.3; stroke-width: 0.3"/>
     </g>
     <g id="line2d_38">
      <g>
       <use xlink:href="#m08e60d5c97" x="319.048317" y="192.706828" style="stroke: #000000; stroke-width: 0.8"/>
      </g>
     </g>
     <g id="text_24">
      <text style="font-size: 6.5px; font-family: 'DejaVu Sans', 'Arial', 'Helvetica', sans-serif; text-anchor: middle" x="319.048317" y="204.645812" transform="rotate(-0 319.048317 204.645812)">150000</text>
     </g>
    </g>
    <g id="xtick_12">
     <g id="line2d_39">
      <path d="M 341.118919 192.706828 
L 341.118919 15.298828 
" clip-path="url(#p63eb931276)" style="fill: none; stroke-dasharray: 1.11,0.48; stroke-dashoffset: 0; stroke: #b0b0b0; stroke-opacity: 0.3; stroke-width: 0.3"/>
     </g>
     <g id="line2d_40">
      <g>
       <use xlink:href="#m08e60d5c97" x="341.118919" y="192.706828" style="stroke: #000000; stroke-width: 0.8"/>
      </g>
     </g>
     <g id="text_25">
      <text style="font-size: 6.5px; font-family: 'DejaVu Sans', 'Arial', 'Helvetica', sans-serif; text-anchor: middle" x="341.118919" y="204.645812" transform="rotate(-0 341.118919 204.645812)">200000</text>
     </g>
    </g>
    <g id="xtick_13">
     <g id="line2d_41">
      <path d="M 363.189521 192.706828 
L 363.189521 15.298828 
" clip-path="url(#p63eb931276)" style="fill: none; stroke-dasharray: 1.11,0.48; stroke-dashoffset: 0; stroke: #b0b0b0; stroke-opacity: 0.3; stroke-width: 0.3"/>
     </g>
     <g id="line2d_42">
      <g>
       <use xlink:href="#m08e60d5c97" x="363.189521" y="192.706828" style="stroke: #000000; stroke-width: 0.8"/>
      </g>
     </g>
     <g id="text_26">
      <text style="font-size: 6.5px; font-family: 'DejaVu Sans', 'Arial', 'Helvetica', sans-serif; text-anchor: middle" x="363.189521" y="204.645812" transform="rotate(-0 363.189521 204.645812)">250000</text>
     </g>
    </g>
    <g id="xtick_14">
     <g id="line2d_43">
      <path d="M 385.260122 192.706828 
L 385.260122 15.298828 
" clip-path="url(#p63eb931276)" style="fill: none; stroke-dasharray: 1.11,0.48; stroke-dashoffset: 0; stroke: #b0b0b0; stroke-opacity: 0.3; stroke-width: 0.3"/>
     </g>
     <g id="line2d_44">
      <g>
       <use xlink:href="#m08e60d5c97" x="385.260122" y="192.706828" style="stroke: #000000; stroke-width: 0.8"/>
      </g>
     </g>
     <g id="text_27">
      <text style="font-size: 6.5px; font-family: 'DejaVu Sans', 'Arial', 'Helvetica', sans-serif; text-anchor: middle" x="385.260122" y="204.645812" transform="rotate(-0 385.260122 204.645812)">300000</text>
     </g>
    </g>
    <g id="xtick_15">
     <g id="line2d_45">
      <path d="M 407.330724 192.706828 
L 407.330724 15.298828 
" clip-path="url(#p63eb931276)" style="fill: none; stroke-dasharray: 1.11,0.48; stroke-dashoffset: 0; stroke: #b0b0b0; stroke-opacity: 0.3; stroke-width: 0.3"/>
     </g>
     <g id="line2d_46">
      <g>
       <use xlink:href="#m08e60d5c97" x="407.330724" y="192.706828" style="stroke: #000000; stroke-width: 0.8"/>
      </g>
     </g>
     <g id="text_28">
      <text style="font-size: 6.5px; font-family: 'DejaVu Sans', 'Arial', 'Helvetica', sans-serif; text-anchor: middle" x="407.330724" y="204.645812" transform="rotate(-0 407.330724 204.645812)">350000</text>
     </g>
    </g>
    <g id="text_29">
     <text style="font-size: 7px; font-family: 'DejaVu Sans', 'Arial', 'Helvetica', sans-serif; text-anchor: middle" x="333.538991" y="215.316516" transform="rotate(-0 333.538991 215.316516)">Median Diamond</text>
    </g>
   </g>
   <g id="matplotlib.axis_4">
    <g id="ytick_9">
     <g id="line2d_47">
      <path d="M 244.766264 184.643744 
L 422.311719 184.643744 
" clip-path="url(#p63eb931276)" style="fill: none; stroke-dasharray: 1.11,0.48; stroke-dashoffset: 0; stroke: #b0b0b0; stroke-opacity: 0.3; stroke-width: 0.3"/>
     </g>
     <g id="line2d_48">
      <g>
       <use xlink:href="#mdbbcbf0e1e" x="244.766264" y="184.643744" style="stroke: #000000; stroke-width: 0.8"/>
      </g>
     </g>
     <g id="text_30">
      <text style="font-size: 6.5px; font-family: 'DejaVu Sans', 'Arial', 'Helvetica', sans-serif; text-anchor: end" x="237.766264" y="187.113236" transform="rotate(-0 237.766264 187.113236)">0.0</text>
     </g>
    </g>
    <g id="ytick_10">
     <g id="line2d_49">
      <path d="M 244.766264 152.387319 
L 422.311719 152.387319 
" clip-path="url(#p63eb931276)" style="fill: none; stroke-dasharray: 1.11,0.48; stroke-dashoffset: 0; stroke: #b0b0b0; stroke-opacity: 0.3; stroke-width: 0.3"/>
     </g>
     <g id="line2d_50">
      <g>
       <use xlink:href="#mdbbcbf0e1e" x="244.766264" y="152.387319" style="stroke: #000000; stroke-width: 0.8"/>
      </g>
     </g>
     <g id="text_31">
      <text style="font-size: 6.5px; font-family: 'DejaVu Sans', 'Arial', 'Helvetica', sans-serif; text-anchor: end" x="237.766264" y="154.856811" transform="rotate(-0 237.766264 154.856811)">0.2</text>
     </g>
    </g>
    <g id="ytick_11">
     <g id="line2d_51">
      <path d="M 244.766264 120.130893 
L 422.311719 120.130893 
" clip-path="url(#p63eb931276)" style="fill: none; stroke-dasharray: 1.11,0.48; stroke-dashoffset: 0; stroke: #b0b0b0; stroke-opacity: 0.3; stroke-width: 0.3"/>
     </g>
     <g id="line2d_52">
      <g>
       <use xlink:href="#mdbbcbf0e1e" x="244.766264" y="120.130893" style="stroke: #000000; stroke-width: 0.8"/>
      </g>
     </g>
     <g id="text_32">
      <text style="font-size: 6.5px; font-family: 'DejaVu Sans', 'Arial', 'Helvetica', sans-serif; text-anchor: end" x="237.766264" y="122.600385" transform="rotate(-0 237.766264 122.600385)">0.4</text>
     </g>
    </g>
    <g id="ytick_12">
     <g id="line2d_53">
      <path d="M 244.766264 87.874468 
L 422.311719 87.874468 
" clip-path="url(#p63eb931276)" style="fill: none; stroke-dasharray: 1.11,0.48; stroke-dashoffset: 0; stroke: #b0b0b0; stroke-opacity: 0.3; stroke-width: 0.3"/>
     </g>
     <g id="line2d_54">
      <g>
       <use xlink:href="#mdbbcbf0e1e" x="244.766264" y="87.874468" style="stroke: #000000; stroke-width: 0.8"/>
      </g>
     </g>
     <g id="text_33">
      <text style="font-size: 6.5px; font-family: 'DejaVu Sans', 'Arial', 'Helvetica', sans-serif; text-anchor: end" x="237.766264" y="90.34396" transform="rotate(-0 237.766264 90.34396)">0.6</text>
     </g>
    </g>
    <g id="ytick_13">
     <g id="line2d_55">
      <path d="M 244.766264 55.618042 
L 422.311719 55.618042 
" clip-path="url(#p63eb931276)" style="fill: none; stroke-dasharray: 1.11,0.48; stroke-dashoffset: 0; stroke: #b0b0b0; stroke-opacity: 0.3; stroke-width: 0.3"/>
     </g>
     <g id="line2d_56">
      <g>
       <use xlink:href="#mdbbcbf0e1e" x="244.766264" y="55.618042" style="stroke: #000000; stroke-width: 0.8"/>
      </g>
     </g>
     <g id="text_34">
      <text style="font-size: 6.5px; font-family: 'DejaVu Sans', 'Arial', 'Helvetica', sans-serif; text-anchor: end" x="237.766264" y="58.087535" transform="rotate(-0 237.766264 58.087535)">0.8</text>
     </g>
    </g>
    <g id="ytick_14">
     <g id="line2d_57">
      <path d="M 244.766264 23.361617 
L 422.311719 23.361617 
" clip-path="url(#p63eb931276)" style="fill: none; stroke-dasharray: 1.11,0.48; stroke-dashoffset: 0; stroke: #b0b0b0; stroke-opacity: 0.3; stroke-width: 0.3"/>
     </g>
     <g id="line2d_58">
      <g>
       <use xlink:href="#mdbbcbf0e1e" x="244.766264" y="23.361617" style="stroke: #000000; stroke-width: 0.8"/>
      </g>
     </g>
     <g id="text_35">
      <text style="font-size: 6.5px; font-family: 'DejaVu Sans', 'Arial', 'Helvetica', sans-serif; text-anchor: end" x="237.766264" y="25.831109" transform="rotate(-0 237.766264 25.831109)">1.0</text>
     </g>
    </g>
    <g id="text_36">
     <text style="font-size: 7px; font-family: 'DejaVu Sans', 'Arial', 'Helvetica', sans-serif; text-anchor: middle" x="221.973452" y="104.002828" transform="rotate(-90 221.973452 104.002828)">P(Churn in 7d)</text>
    </g>
   </g>
   <g id="line2d_59">
    <path d="M 252.836512 23.362828 
L 252.836573 23.363158 
L 252.836643 23.363579 
L 252.836721 23.364114 
L 252.836811 23.364795 
L 252.836914 23.365662 
L 252.83703 23.366765 
L 252.837163 23.36817 
L 252.837313 23.369957 
L 252.837485 23.372231 
L 252.837681 23.375126 
L 252.837903 23.378811 
L 252.838156 23.3835 
L 252.838444 23.389468 
L 252.838772 23.397064 
L 252.839145 23.40673 
L 252.83957 23.419031 
L 252.840053 23.434684 
L 252.840603 23.454603 
L 252.841229 23.479949 
L 252.841942 23.512196 
L 252.842752 23.55322 
L 252.843675 23.605404 
L 252.844726 23.671774 
L 252.845921 23.756169 
L 252.847282 23.863456 
L 252.848831 23.9998 
L 252.850593 24.173001 
L 252.852599 24.392907 
L 252.854883 24.671926 
L 252.857481 25.025651 
L 252.860439 25.473604 
L 252.863805 26.040122 
L 252.867635 26.755363 
L 252.871996 27.656423 
L 252.876958 28.788495 
L 252.882606 30.205963 
L 252.889034 31.973208 
L 252.89635 34.164844 
L 252.904676 36.864915 
L 252.914153 40.164467 
L 252.924938 44.156814 
L 252.937214 48.929873 
L 252.951185 54.555223 
L 252.967086 61.074301 
L 252.985183 68.48323 
L 253.00578 76.719193 
L 253.029223 85.652313 
L 253.055903 95.087069 
L 253.086269 104.775569 
L 253.12083 114.441805 
L 253.160164 123.812282 
L 253.204932 132.646057 
L 253.255883 140.75747 
L 253.313873 148.027498 
L 253.379873 154.403426 
L 253.454989 159.889577 
L 253.540482 164.533182 
L 253.637783 168.409279 
L 253.748526 171.607289 
L 253.874565 174.220596 
L 254.018014 176.339381 
L 254.181279 178.046302 
L 254.367095 179.414367 
L 254.578579 180.506334 
L 254.819275 181.375059 
L 255.093219 182.064373 
L 255.405004 182.610193 
L 255.759856 183.041678 
L 256.163724 183.382334 
L 256.62338 183.651005 
L 257.146529 183.86273 
L 257.741941 184.029473 
L 258.419599 184.160724 
L 259.190864 184.263997 
L 260.068665 184.345231 
L 261.067718 184.409113 
L 262.204773 184.459339 
L 263.498891 184.498824 
L 264.971768 184.52986 
L 266.648098 184.554253 
L 268.555982 184.573424 
L 270.727406 184.588489 
L 273.198773 184.600328 
L 276.011515 184.60963 
L 279.212788 184.61694 
L 282.856259 184.622684 
L 287.00301 184.627197 
L 291.72256 184.630743 
L 297.094032 184.633529 
L 303.207476 184.635718 
L 310.165384 184.637438 
L 318.084401 184.638789 
L 327.097289 184.639851 
L 337.355145 184.640685 
L 349.029941 184.641341 
L 362.317401 184.641856 
L 377.440285 184.64226 
L 394.652124 184.642578 
L 414.241471 184.642828 
" clip-path="url(#p63eb931276)" style="fill: none; stroke: #0f4d92; stroke-width: 1.2; stroke-linecap: square"/>
   </g>
   <g id="line2d_60">
    <path d="M 244.766264 104.00268 
L 422.311719 104.00268 
" clip-path="url(#p63eb931276)" style="fill: none; stroke-dasharray: 0.6,0.99; stroke-dashoffset: 0; stroke: #767676; stroke-width: 0.6"/>
   </g>
   <g id="line2d_61">
    <path d="M 253.086269 192.706828 
L 253.086269 15.298828 
" clip-path="url(#p63eb931276)" style="fill: none; stroke-dasharray: 0.6,0.99; stroke-dashoffset: 0; stroke: #b64342; stroke-width: 0.6"/>
   </g>
   <g id="patch_78">
    <path d="M 244.766264 192.706828 
L 244.766264 15.298828 
" style="fill: none; stroke: #000000; stroke-width: 0.8; stroke-linejoin: miter; stroke-linecap: square"/>
   </g>
   <g id="patch_79">
    <path d="M 244.766264 192.706828 
L 422.311719 192.706828 
" style="fill: none; stroke: #000000; stroke-width: 0.8; stroke-linejoin: miter; stroke-linecap: square"/>
   </g>
   <g id="text_37">
    <text style="font-weight: 700; font-size: 7.5px; font-family: 'DejaVu Sans', 'Arial', 'Helvetica', sans-serif; text-anchor: middle" x="333.538991" y="9.298828" transform="rotate(-0 333.538991 9.298828)">Churn Risk vs Diamond (Thresh≈566)</text>
   </g>
  </g>
 </g>
 <defs>
  <clipPath id="p8b5a1eab73">
   <rect x="31.711719" y="15.298828" width="177.545455" height="177.408"/>
  </clipPath>
  <clipPath id="p63eb931276">
   <rect x="244.766264" y="15.298828" width="177.545455" height="177.408"/>
  </clipPath>
 </defs>
</svg>
