<?xml version="1.0" encoding="utf-8" standalone="no"?>
<!DOCTYPE svg PUBLIC "-//W3C//DTD SVG 1.1//EN"
  "http://www.w3.org/Graphics/SVG/1.1/DTD/svg11.dtd">
<svg xmlns:xlink="http://www.w3.org/1999/xlink" width="319.875781pt" height="219.467375pt" viewBox="0 0 319.875781 219.467375" xmlns="http://www.w3.org/2000/svg" version="1.1">
 <metadata>
  <rdf:RDF xmlns:dc="http://purl.org/dc/elements/1.1/" xmlns:cc="http://creativecommons.org/ns#" xmlns:rdf="http://www.w3.org/1999/02/22-rdf-syntax-ns#">
   <cc:Work>
    <dc:type rdf:resource="http://purl.org/dc/dcmitype/StillImage"/>
    <dc:date>2026-05-24T15:59:43.425796</dc:date>
    <dc:format>image/svg+xml</dc:format>
    <dc:creator>
     <cc:Agent>
      <dc:title>Matplotlib v3.10.0, https://matplotlib.org/</dc:title>
     </cc:Agent>
    </dc:creator>
   </cc:Work>
  </rdf:RDF>
 </metadata>
 <defs>
  <style type="text/css">*{stroke-linejoin: round; stroke-linecap: butt}</style>
 </defs>
 <g id="figure_1">
  <g id="patch_1">
   <path d="M 0 219.467375 
L 319.875781 219.467375 
L 319.875781 0 
L 0 0 
z
" style="fill: #ffffff"/>
  </g>
  <g id="axes_1">
   <g id="patch_2">
    <path d="M 37.275781 193.160344 
L 316.275781 193.160344 
L 316.275781 15.752344 
L 37.275781 15.752344 
z
" style="fill: #ffffff"/>
   </g>
   <g id="matplotlib.axis_1">
    <g id="xtick_1">
     <g id="line2d_1">
      <path d="M 49.957599 193.160344 
L 49.957599 15.752344 
" clip-path="url(#pefe055910a)" style="fill: none; stroke-dasharray: 1.11,0.48; stroke-dashoffset: 0; stroke: #b0b0b0; stroke-opacity: 0.3; stroke-width: 0.3"/>
     </g>
     <g id="line2d_2">
      <defs>
       <path id="md346fff7be" d="M 0 0 
L 0 3.5 
" style="stroke: #000000; stroke-width: 0.8"/>
      </defs>
      <g>
       <use xlink:href="#md346fff7be" x="49.957599" y="193.160344" style="stroke: #000000; stroke-width: 0.8"/>
      </g>
     </g>
     <g id="text_1">
      <text style="font-size: 6.5px; font-family: 'SimHei', 'Microsoft YaHei', sans-serif; text-anchor: middle" x="49.957599" y="204.629094" transform="rotate(-0 49.957599 204.629094)">0</text>
     </g>
    </g>
    <g id="xtick_2">
     <g id="line2d_3">
      <path d="M 100.73565 193.160344 
L 100.73565 15.752344 
" clip-path="url(#pefe055910a)" style="fill: none; stroke-dasharray: 1.11,0.48; stroke-dashoffset: 0; stroke: #b0b0b0; stroke-opacity: 0.3; stroke-width: 0.3"/>
     </g>
     <g id="line2d_4">
      <g>
       <use xlink:href="#md346fff7be" x="100.73565" y="193.160344" style="stroke: #000000; stroke-width: 0.8"/>
      </g>
     </g>
     <g id="text_2">
      <text style="font-size: 6.5px; font-family: 'SimHei', 'Microsoft YaHei', sans-serif; text-anchor: middle" x="100.73565" y="204.629094" transform="rotate(-0 100.73565 204.629094)">200</text>
     </g>
    </g>
    <g id="xtick_3">
     <g id="line2d_5">
      <path d="M 151.513701 193.160344 
L 151.513701 15.752344 
" clip-path="url(#pefe055910a)" style="fill: none; stroke-dasharray: 1.11,0.48; stroke-dashoffset: 0; stroke: #b0b0b0; stroke-opacity: 0.3; stroke-width: 0.3"/>
     </g>
     <g id="line2d_6">
      <g>
       <use xlink:href="#md346fff7be" x="151.513701" y="193.160344" style="stroke: #000000; stroke-width: 0.8"/>
      </g>
     </g>
     <g id="text_3">
      <text style="font-size: 6.5px; font-family: 'SimHei', 'Microsoft YaHei', sans-serif; text-anchor: middle" x="151.513701" y="204.629094" transform="rotate(-0 151.513701 204.629094)">400</text>
     </g>
    </g>
    <g id="xtick_4">
     <g id="line2d_7">
      <path d="M 202.291752 193.160344 
L 202.291752 15.752344 
" clip-path="url(#pefe055910a)" style="fill: none; stroke-dasharray: 1.11,0.48; stroke-dashoffset: 0; stroke: #b0b0b0; stroke-opacity: 0.3; stroke-width: 0.3"/>
     </g>
     <g id="line2d_8">
      <g>
       <use xlink:href="#md346fff7be" x="202.291752" y="193.160344" style="stroke: #000000; stroke-width: 0.8"/>
      </g>
     </g>
     <g id="text_4">
      <text style="font-size: 6.5px; font-family: 'SimHei', 'Microsoft YaHei', sans-serif; text-anchor: middle" x="202.291752" y="204.629094" transform="rotate(-0 202.291752 204.629094)">600</text>
     </g>
    </g>
    <g id="xtick_5">
     <g id="line2d_9">
      <path d="M 253.069803 193.160344 
L 253.069803 15.752344 
" clip-path="url(#pefe055910a)" style="fill: none; stroke-dasharray: 1.11,0.48; stroke-dashoffset: 0; stroke: #b0b0b0; stroke-opacity: 0.3; stroke-width: 0.3"/>
     </g>
     <g id="line2d_10">
      <g>
       <use xlink:href="#md346fff7be" x="253.069803" y="193.160344" style="stroke: #000000; stroke-width: 0.8"/>
      </g>
     </g>
     <g id="text_5">
      <text style="font-size: 6.5px; font-family: 'SimHei', 'Microsoft YaHei', sans-serif; text-anchor: middle" x="253.069803" y="204.629094" transform="rotate(-0 253.069803 204.629094)">800</text>
     </g>
    </g>
    <g id="xtick_6">
     <g id="line2d_11">
      <path d="M 303.847853 193.160344 
L 303.847853 15.752344 
" clip-path="url(#pefe055910a)" style="fill: none; stroke-dasharray: 1.11,0.48; stroke-dashoffset: 0; stroke: #b0b0b0; stroke-opacity: 0.3; stroke-width: 0.3"/>
     </g>
     <g id="line2d_12">
      <g>
       <use xlink:href="#md346fff7be" x="303.847853" y="193.160344" style="stroke: #000000; stroke-width: 0.8"/>
      </g>
     </g>
     <g id="text_6">
      <text style="font-size: 6.5px; font-family: 'SimHei', 'Microsoft YaHei', sans-serif; text-anchor: middle" x="303.847853" y="204.629094" transform="rotate(-0 303.847853 204.629094)">1000</text>
     </g>
    </g>
    <g id="text_7">
     <text style="font-size: 7px; font-family: 'SimHei', 'Microsoft YaHei', sans-serif; text-anchor: middle" x="176.775781" y="214.992375" transform="rotate(-0 176.775781 214.992375)">模拟次数</text>
    </g>
   </g>
   <g id="matplotlib.axis_2">
    <g id="ytick_1">
     <g id="line2d_13">
      <path d="M 37.275781 179.351964 
L 316.275781 179.351964 
" clip-path="url(#pefe055910a)" style="fill: none; stroke-dasharray: 1.11,0.48; stroke-dashoffset: 0; stroke: #b0b0b0; stroke-opacity: 0.3; stroke-width: 0.3"/>
     </g>
     <g id="line2d_14">
      <defs>
       <path id="m31d612a29d" d="M 0 0 
L -3.5 0 
" style="stroke: #000000; stroke-width: 0.8"/>
      </defs>
      <g>
       <use xlink:href="#m31d612a29d" x="37.275781" y="179.351964" style="stroke: #000000; stroke-width: 0.8"/>
      </g>
     </g>
     <g id="text_8">
      <text style="font-size: 6.5px; font-family: 'SimHei', 'Microsoft YaHei', sans-serif; text-anchor: end" x="30.275781" y="181.586339" transform="rotate(-0 30.275781 181.586339)">67500</text>
     </g>
    </g>
    <g id="ytick_2">
     <g id="line2d_15">
      <path d="M 37.275781 154.011316 
L 316.275781 154.011316 
" clip-path="url(#pefe055910a)" style="fill: none; stroke-dasharray: 1.11,0.48; stroke-dashoffset: 0; stroke: #b0b0b0; stroke-opacity: 0.3; stroke-width: 0.3"/>
     </g>
     <g id="line2d_16">
      <g>
       <use xlink:href="#m31d612a29d" x="37.275781" y="154.011316" style="stroke: #000000; stroke-width: 0.8"/>
      </g>
     </g>
     <g id="text_9">
      <text style="font-size: 6.5px; font-family: 'SimHei', 'Microsoft YaHei', sans-serif; text-anchor: end" x="30.275781" y="156.245691" transform="rotate(-0 30.275781 156.245691)">68000</text>
     </g>
    </g>
    <g id="ytick_3">
     <g id="line2d_17">
      <path d="M 37.275781 128.670669 
L 316.275781 128.670669 
" clip-path="url(#pefe055910a)" style="fill: none; stroke-dasharray: 1.11,0.48; stroke-dashoffset: 0; stroke: #b0b0b0; stroke-opacity: 0.3; stroke-width: 0.3"/>
     </g>
     <g id="line2d_18">
      <g>
       <use xlink:href="#m31d612a29d" x="37.275781" y="128.670669" style="stroke: #000000; stroke-width: 0.8"/>
      </g>
     </g>
     <g id="text_10">
      <text style="font-size: 6.5px; font-family: 'SimHei', 'Microsoft YaHei', sans-serif; text-anchor: end" x="30.275781" y="130.905044" transform="rotate(-0 30.275781 130.905044)">68500</text>
     </g>
    </g>
    <g id="ytick_4">
     <g id="line2d_19">
      <path d="M 37.275781 103.330022 
L 316.275781 103.330022 
" clip-path="url(#pefe055910a)" style="fill: none; stroke-dasharray: 1.11,0.48; stroke-dashoffset: 0; stroke: #b0b0b0; stroke-opacity: 0.3; stroke-width: 0.3"/>
     </g>
     <g id="line2d_20">
      <g>
       <use xlink:href="#m31d612a29d" x="37.275781" y="103.330022" style="stroke: #000000; stroke-width: 0.8"/>
      </g>
     </g>
     <g id="text_11">
      <text style="font-size: 6.5px; font-family: 'SimHei', 'Microsoft YaHei', sans-serif; text-anchor: end" x="30.275781" y="105.564397" transform="rotate(-0 30.275781 105.564397)">69000</text>
     </g>
    </g>
    <g id="ytick_5">
     <g id="line2d_21">
      <path d="M 37.275781 77.989375 
L 316.275781 77.989375 
" clip-path="url(#pefe055910a)" style="fill: none; stroke-dasharray: 1.11,0.48; stroke-dashoffset: 0; stroke: #b0b0b0; stroke-opacity: 0.3; stroke-width: 0.3"/>
     </g>
     <g id="line2d_22">
      <g>
       <use xlink:href="#m31d612a29d" x="37.275781" y="77.989375" style="stroke: #000000; stroke-width: 0.8"/>
      </g>
     </g>
     <g id="text_12">
      <text style="font-size: 6.5px; font-family: 'SimHei', 'Microsoft YaHei', sans-serif; text-anchor: end" x="30.275781" y="80.22375" transform="rotate(-0 30.275781 80.22375)">69500</text>
     </g>
    </g>
    <g id="ytick_6">
     <g id="line2d_23">
      <path d="M 37.275781 52.648728 
L 316.275781 52.648728 
" clip-path="url(#pefe055910a)" style="fill: none; stroke-dasharray: 1.11,0.48; stroke-dashoffset: 0; stroke: #b0b0b0; stroke-opacity: 0.3; stroke-width: 0.3"/>
     </g>
     <g id="line2d_24">
      <g>
       <use xlink:href="#m31d612a29d" x="37.275781" y="52.648728" style="stroke: #000000; stroke-width: 0.8"/>
      </g>
     </g>
     <g id="text_13">
      <text style="font-size: 6.5px; font-family: 'SimHei', 'Microsoft YaHei', sans-serif; text-anchor: end" x="30.275781" y="54.883103" transform="rotate(-0 30.275781 54.883103)">70000</text>
     </g>
    </g>
    <g id="ytick_7">
     <g id="line2d_25">
      <path d="M 37.275781 27.308081 
L 316.275781 27.308081 
" clip-path="url(#pefe055910a)" style="fill: none; stroke-dasharray: 1.11,0.48; stroke-dashoffset: 0; stroke: #b0b0b0; stroke-opacity: 0.3; stroke-width: 0.3"/>
     </g>
     <g id="line2d_26">
      <g>
       <use xlink:href="#m31d612a29d" x="37.275781" y="27.308081" style="stroke: #000000; stroke-width: 0.8"/>
      </g>
     </g>
     <g id="text_14">
      <text style="font-size: 6.5px; font-family: 'SimHei', 'Microsoft YaHei', sans-serif; text-anchor: end" x="30.275781" y="29.542456" transform="rotate(-0 30.275781 29.542456)">70500</text>
     </g>
    </g>
    <g id="text_15">
     <text style="font-size: 7px; font-family: 'SimHei', 'Microsoft YaHei', sans-serif; text-anchor: middle" x="9.150781" y="104.456344" transform="rotate(-90 9.150781 104.456344)">累计平均营收(元)</text>
    </g>
   </g>
   <g id="line2d_27">
    <path d="M 49.957599 109.406045 
L 50.46538 47.550878 
L 50.71927 48.574737 
L 50.97316 23.816344 
L 51.227051 62.940602 
L 51.480941 79.98588 
L 51.734831 57.678472 
L 51.988721 66.329713 
L 52.242612 57.229442 
L 52.496502 107.644579 
L 52.750392 113.642712 
L 53.004282 111.521698 
L 53.258173 112.643525 
L 53.512063 130.855174 
L 53.765953 122.907676 
L 54.019843 131.917777 
L 54.273734 136.110244 
L 54.527624 135.701892 
L 54.781514 140.404071 
L 55.035405 159.687485 
L 55.289295 166.173292 
L 55.543185 168.455708 
L 55.797075 158.842387 
L 56.304856 149.18798 
L 56.558746 152.046411 
L 56.812636 162.612296 
L 57.066527 162.49912 
L 57.320417 160.674944 
L 57.574307 162.400985 
L 57.828197 161.05247 
L 58.082088 161.602276 
L 58.335978 155.917157 
L 58.843758 173.508386 
L 59.097649 172.717516 
L 59.351539 169.979174 
L 59.605429 174.51375 
L 59.859319 175.35191 
L 60.11321 177.696816 
L 60.3671 167.724782 
L 60.87488 179.506467 
L 61.128771 179.778566 
L 61.382661 176.341723 
L 61.636551 178.844722 
L 61.890441 179.58343 
L 62.144332 183.897867 
L 62.398222 183.303359 
L 62.652112 182.177095 
L 63.159893 175.036267 
L 63.413783 175.485918 
L 63.667673 178.296864 
L 63.921563 177.69515 
L 64.175454 173.788835 
L 64.429344 173.846308 
L 64.683234 169.643405 
L 64.937124 173.993575 
L 65.444905 177.181405 
L 65.698795 181.140433 
L 66.206576 179.239582 
L 66.460466 180.835497 
L 66.714356 177.53788 
L 66.968246 176.641134 
L 67.476027 183.062761 
L 67.729917 181.450732 
L 67.983807 180.64058 
L 68.237698 180.64369 
L 68.491588 178.733854 
L 68.745478 178.385826 
L 68.999368 180.582938 
L 69.507149 174.864688 
L 69.761039 173.037971 
L 70.014929 177.973022 
L 70.26882 178.249899 
L 70.52271 177.538092 
L 70.7766 177.285235 
L 71.030491 175.485291 
L 71.284381 176.152986 
L 71.792161 180.779508 
L 72.046052 181.228177 
L 72.299942 182.533903 
L 72.553832 183.090022 
L 72.807722 181.702245 
L 73.061613 183.299593 
L 73.315503 182.212695 
L 73.569393 182.582044 
L 73.823283 185.096344 
L 74.077174 182.319286 
L 74.331064 181.326735 
L 74.584954 178.870487 
L 74.838844 178.021074 
L 75.092735 179.50354 
L 75.346625 179.457667 
L 75.600515 181.89369 
L 75.854405 180.968465 
L 76.108296 183.166018 
L 76.362186 182.543893 
L 76.616076 182.28598 
L 76.869966 183.341338 
L 77.123857 183.465525 
L 77.377747 183.088851 
L 77.631637 182.930165 
L 78.139418 184.440201 
L 78.393308 181.620736 
L 78.647198 180.411255 
L 78.901088 181.498385 
L 79.408869 181.861788 
L 79.662759 180.566643 
L 79.916649 182.481663 
L 80.17054 182.48048 
L 80.42443 180.337726 
L 80.67832 182.996667 
L 80.93221 183.973436 
L 81.186101 182.890762 
L 81.439991 183.199524 
L 81.693881 182.184455 
L 81.947771 179.986269 
L 82.201662 181.001412 
L 82.455552 181.287609 
L 82.709442 183.091335 
L 82.963332 180.92329 
L 83.217223 182.527733 
L 83.471113 179.823712 
L 83.978893 177.878007 
L 84.232784 179.413329 
L 84.486674 180.143568 
L 84.740564 179.441611 
L 84.994454 180.149546 
L 85.248345 179.901502 
L 85.502235 178.346692 
L 86.010015 180.467096 
L 86.263906 178.066782 
L 86.517796 178.623841 
L 87.025576 176.911628 
L 87.279467 174.460283 
L 87.787247 175.039659 
L 88.041138 174.678556 
L 88.295028 175.986499 
L 89.056699 173.305427 
L 89.310589 173.864498 
L 89.564479 174.02352 
L 89.818369 173.766133 
L 90.07226 172.258899 
L 90.32615 171.930896 
L 90.58004 172.644041 
L 90.83393 172.763914 
L 91.087821 173.424835 
L 91.849491 171.359223 
L 92.103382 171.433817 
L 92.611162 173.588153 
L 92.865052 173.540112 
L 93.118943 173.878577 
L 93.372833 175.528293 
L 93.626723 175.727698 
L 94.134504 178.057772 
L 94.388394 178.099606 
L 94.642284 178.524142 
L 94.896174 179.968664 
L 95.150065 179.571789 
L 95.403955 180.267842 
L 95.657845 182.349267 
L 95.911735 182.510135 
L 96.165626 182.274679 
L 96.419516 182.918837 
L 97.181187 180.164089 
L 97.435077 180.160888 
L 97.942857 181.602673 
L 98.196748 180.670243 
L 98.450638 180.464444 
L 98.704528 180.568189 
L 98.958418 180.438628 
L 99.466199 177.539214 
L 99.973979 174.55461 
L 100.22787 175.905996 
L 100.73565 174.710829 
L 100.98954 175.086242 
L 101.243431 173.683663 
L 101.497321 174.95048 
L 102.005101 174.928661 
L 102.258992 175.19758 
L 102.512882 175.217563 
L 103.020662 177.647235 
L 103.274553 177.518467 
L 103.528443 175.609977 
L 103.782333 172.69569 
L 104.544004 170.377119 
L 104.797894 169.977559 
L 105.305675 170.344418 
L 105.813455 170.487338 
L 106.067346 169.845468 
L 106.321236 169.943164 
L 106.575126 170.638543 
L 106.829016 170.858334 
L 107.336797 168.978303 
L 107.590687 168.969142 
L 107.844577 169.526653 
L 108.098468 171.063225 
L 108.352358 171.054331 
L 108.606248 171.288679 
L 108.860138 170.764866 
L 109.114029 171.257946 
L 109.367919 171.047545 
L 109.621809 172.030279 
L 109.875699 171.038599 
L 110.12959 170.821637 
L 110.38348 171.109946 
L 110.63737 172.485957 
L 110.89126 172.124621 
L 111.145151 172.052933 
L 111.652931 171.385962 
L 111.906821 172.136632 
L 112.160712 171.488486 
L 112.414602 171.183271 
L 112.668492 172.221544 
L 112.922382 171.358813 
L 113.176273 171.13352 
L 113.430163 170.039995 
L 113.684053 169.448832 
L 113.937943 168.381577 
L 114.191834 167.928463 
L 114.445724 168.718807 
L 114.699614 170.121646 
L 114.953504 169.813237 
L 115.207395 170.137086 
L 115.461285 169.529739 
L 115.715175 169.485249 
L 115.969065 169.113958 
L 116.222956 170.609241 
L 116.476846 169.643891 
L 116.730736 170.343228 
L 116.984626 170.411936 
L 117.238517 170.657135 
L 117.492407 171.378692 
L 117.746297 172.588762 
L 118.254078 171.872428 
L 119.015748 173.979545 
L 119.269639 174.078789 
L 120.03131 173.305008 
L 120.2852 174.232571 
L 120.53909 173.871303 
L 120.79298 174.225441 
L 121.046871 174.986589 
L 121.300761 174.734846 
L 121.554651 175.339488 
L 121.808541 175.088119 
L 122.570212 173.464863 
L 122.824102 173.814431 
L 123.077993 172.564312 
L 124.093554 173.965749 
L 124.347444 173.465398 
L 124.601334 173.970366 
L 124.855224 173.550361 
L 125.109115 174.288311 
L 125.616895 173.295025 
L 125.870785 173.283119 
L 126.124676 172.655848 
L 126.378566 172.714167 
L 126.632456 172.498504 
L 127.140237 172.79558 
L 127.394127 171.953854 
L 127.648017 172.249317 
L 127.901907 171.80385 
L 128.155798 172.481786 
L 128.917468 172.176836 
L 129.425249 171.361361 
L 129.933029 171.993768 
L 130.18692 173.006062 
L 130.44081 173.0061 
L 130.94859 170.908963 
L 131.202481 171.120011 
L 131.456371 172.009096 
L 131.964151 172.012197 
L 132.218042 172.418918 
L 132.725822 172.481356 
L 132.979712 172.239609 
L 133.233603 173.128976 
L 133.487493 173.37494 
L 133.741383 172.846193 
L 133.995273 173.307719 
L 134.249164 174.298161 
L 134.503054 174.289725 
L 134.756944 174.566952 
L 135.010834 174.152833 
L 135.264725 174.35218 
L 135.518615 174.379612 
L 135.772505 173.489162 
L 136.026396 173.402013 
L 136.280286 172.870046 
L 136.788066 173.432189 
L 137.041957 172.497343 
L 137.295847 172.650077 
L 137.549737 172.445992 
L 137.803627 171.428757 
L 138.057518 171.609587 
L 139.073079 173.154369 
L 139.326969 173.126735 
L 139.580859 172.77184 
L 139.834749 173.275364 
L 140.08864 173.171471 
L 140.34253 173.938126 
L 140.59642 174.186516 
L 140.85031 174.045671 
L 141.104201 173.104253 
L 141.611981 172.39143 
L 143.389213 175.03443 
L 143.643103 173.770965 
L 143.896993 173.435955 
L 144.150884 173.999858 
L 144.404774 174.049162 
L 144.658664 173.627785 
L 144.912554 173.810102 
L 145.420335 175.166678 
L 145.928115 175.880143 
L 146.182006 175.789164 
L 146.435896 176.285763 
L 146.689786 175.459553 
L 146.943676 175.992815 
L 147.197567 175.983028 
L 147.705347 175.282967 
L 147.959237 175.203836 
L 148.213128 174.952557 
L 148.720908 175.792745 
L 149.228689 175.550331 
L 149.482579 174.561775 
L 149.736469 174.313652 
L 149.990359 173.441601 
L 150.24425 173.894662 
L 150.49814 173.842954 
L 150.75203 174.006099 
L 151.00592 173.358039 
L 151.767591 173.969417 
L 152.021481 173.478736 
L 152.529262 174.074725 
L 153.037043 173.714086 
L 153.290933 173.36489 
L 153.798713 174.3114 
L 154.052604 173.519221 
L 154.306494 173.561161 
L 154.560384 173.375494 
L 155.068165 173.382044 
L 155.322055 173.157058 
L 155.829835 173.329618 
L 156.083726 173.096768 
L 156.337616 173.951317 
L 156.591506 174.106807 
L 156.845396 174.060505 
L 157.099287 174.216195 
L 157.353177 174.152361 
L 157.607067 173.750998 
L 158.114848 174.896653 
L 158.622628 174.207615 
L 158.876518 174.356665 
L 159.130409 174.31804 
L 159.384299 174.159778 
L 159.638189 174.266351 
L 159.892079 175.126005 
L 160.14597 175.130579 
L 160.65375 176.488288 
L 161.161531 176.335987 
L 161.669311 175.671514 
L 162.430982 175.889882 
L 162.938762 175.394291 
L 163.192653 175.482836 
L 163.446543 175.361468 
L 163.700433 175.434231 
L 163.954323 175.176955 
L 164.208214 174.754046 
L 164.462104 175.266352 
L 164.715994 174.949455 
L 164.969884 174.386345 
L 165.223775 174.753052 
L 165.477665 174.271778 
L 166.239336 175.084495 
L 166.493226 175.54562 
L 166.747116 175.03746 
L 167.254897 175.180466 
L 167.762677 174.740867 
L 168.270458 173.854548 
L 168.524348 174.018119 
L 169.032129 173.86324 
L 169.286019 174.207654 
L 169.539909 174.773146 
L 170.04769 175.001557 
L 170.30158 174.711826 
L 170.55547 173.955596 
L 170.80936 173.793226 
L 171.063251 173.325168 
L 171.317141 173.249134 
L 171.571031 172.797137 
L 172.078812 173.74888 
L 172.332702 173.88947 
L 172.586592 174.270898 
L 172.840482 173.858241 
L 173.094373 173.685957 
L 173.602153 172.873528 
L 173.856043 173.182621 
L 174.109934 173.137884 
L 174.617714 172.299328 
L 174.871604 172.376768 
L 175.379385 172.993696 
L 175.887165 172.672512 
L 176.394946 173.52259 
L 176.902726 174.001466 
L 177.410507 174.050271 
L 177.918287 173.467174 
L 178.172178 172.948895 
L 178.426068 173.021134 
L 178.679958 173.704656 
L 178.933848 174.030142 
L 179.187739 173.839775 
L 179.441629 174.30837 
L 179.695519 174.093078 
L 179.949409 174.086568 
L 180.45719 173.703343 
L 180.71108 173.83351 
L 180.96497 173.415628 
L 181.472751 173.346937 
L 181.726641 173.095755 
L 181.980531 173.109434 
L 182.234422 172.850951 
L 182.488312 172.874178 
L 182.996092 173.761901 
L 183.249983 173.469655 
L 183.503873 173.537283 
L 183.757763 173.762151 
L 184.011653 172.785436 
L 184.265544 172.377142 
L 185.281105 174.376915 
L 185.534995 174.523609 
L 185.788885 175.038459 
L 186.042776 175.142465 
L 186.296666 174.457169 
L 186.550556 174.384097 
L 186.804446 173.90827 
L 187.312227 173.929873 
L 187.566117 173.694832 
L 187.820007 173.749921 
L 188.327788 174.552371 
L 188.835568 175.182945 
L 189.089459 175.198639 
L 189.343349 175.49328 
L 189.851129 175.41802 
L 190.10502 175.558191 
L 190.35891 175.528242 
L 190.86669 176.817828 
L 191.120581 177.018608 
L 191.374471 176.549896 
L 191.882251 176.43506 
L 192.390032 176.969911 
L 192.643922 176.602521 
L 192.897812 176.731668 
L 193.151703 176.35862 
L 193.405593 176.580272 
L 193.659483 176.617147 
L 193.913373 176.815515 
L 194.421154 176.164748 
L 194.675044 176.129674 
L 194.928934 175.933547 
L 195.182825 176.060985 
L 195.436715 175.910941 
L 195.690605 175.613797 
L 195.944495 175.724436 
L 196.198386 176.054839 
L 196.452276 175.809584 
L 196.960056 174.855036 
L 197.213947 175.396948 
L 197.467837 175.223223 
L 197.721727 175.331167 
L 198.229508 175.310427 
L 198.483398 175.508503 
L 198.737288 175.261562 
L 198.991178 175.238644 
L 199.245069 174.962665 
L 199.752849 176.095055 
L 200.26063 176.234589 
L 200.51452 176.084452 
L 201.0223 176.136449 
L 201.530081 175.278007 
L 201.783971 175.188779 
L 202.037862 174.836178 
L 202.799532 174.944421 
L 203.053423 174.455381 
L 203.815093 174.07769 
L 204.068984 174.306493 
L 204.322874 173.773254 
L 204.576764 174.082969 
L 204.830654 173.93505 
L 205.084545 174.278383 
L 205.592325 173.315304 
L 205.846215 173.186097 
L 206.100106 173.359593 
L 206.353996 173.106787 
L 206.607886 173.496036 
L 206.861776 173.492488 
L 207.369557 173.134328 
L 207.623447 172.501583 
L 207.877337 172.936527 
L 208.131228 172.775371 
L 208.385118 172.761415 
L 208.639008 171.917764 
L 208.892898 171.666335 
L 209.146789 171.647808 
L 209.400679 171.840849 
L 210.41624 171.773746 
L 210.67013 171.89345 
L 211.177911 171.344348 
L 211.431801 171.482629 
L 211.939581 170.892654 
L 212.193472 170.766693 
L 212.447362 170.172116 
L 212.701252 169.901389 
L 212.955142 170.314146 
L 213.209033 170.218041 
L 213.462923 170.354033 
L 213.716813 170.061637 
L 213.970703 170.242636 
L 214.224594 169.96783 
L 214.986264 170.573604 
L 215.240155 170.437087 
L 215.494045 170.56991 
L 215.747935 170.376529 
L 216.001825 170.397844 
L 216.255716 170.237967 
L 216.509606 170.382856 
L 217.017386 170.127155 
L 217.271277 170.717151 
L 217.779057 169.624935 
L 218.032948 169.757489 
L 218.286838 170.140224 
L 218.794618 170.27699 
L 219.048509 170.320704 
L 219.302399 170.228862 
L 219.556289 169.776442 
L 219.810179 169.613646 
L 220.06407 169.830324 
L 220.57185 169.588275 
L 220.82574 169.27549 
L 221.079631 169.465607 
L 221.587411 169.458992 
L 221.841301 169.253641 
L 222.095192 168.872033 
L 222.349082 169.354722 
L 222.856862 169.078131 
L 223.110753 169.415816 
L 223.364643 168.944627 
L 223.872423 168.675081 
L 224.380204 169.357994 
L 224.634094 169.670458 
L 225.395765 169.076692 
L 225.649655 168.845707 
L 225.903545 168.96546 
L 226.157436 169.32169 
L 226.665216 169.190726 
L 226.919106 168.992913 
L 227.172997 169.19659 
L 227.680777 169.08391 
L 227.934667 169.195812 
L 228.696338 168.74288 
L 228.950228 169.154591 
L 229.204119 169.184622 
L 229.458009 169.382411 
L 229.711899 169.137427 
L 229.965789 169.141907 
L 230.21968 169.434502 
L 230.47357 169.553134 
L 230.72746 169.858422 
L 230.98135 169.183052 
L 231.235241 169.081534 
L 231.489131 169.21181 
L 231.996911 169.058755 
L 232.504692 169.339065 
L 232.758582 169.218769 
L 233.012472 168.809421 
L 233.266363 168.660832 
L 233.520253 168.251333 
L 233.774143 168.365941 
L 234.028034 168.285744 
L 234.281924 168.716111 
L 234.535814 168.623907 
L 234.789704 168.849549 
L 235.043595 168.737465 
L 235.297485 168.914646 
L 235.551375 168.929098 
L 235.805265 169.183293 
L 236.059156 168.899734 
L 236.820826 169.408959 
L 237.074717 169.796837 
L 237.328607 169.651033 
L 237.582497 169.707193 
L 238.851948 169.238008 
L 239.105839 169.466421 
L 239.359729 169.392511 
L 239.613619 169.714596 
L 239.867509 168.967176 
L 240.1214 168.836013 
L 240.88307 168.950514 
L 241.390851 168.643091 
L 241.898631 169.154049 
L 242.152522 169.213189 
L 242.660302 168.79659 
L 242.914192 168.971553 
L 243.168083 168.838635 
L 243.421973 168.468621 
L 243.675863 168.302267 
L 244.437534 168.677617 
L 244.691424 168.956281 
L 244.945314 168.977959 
L 245.199205 168.826587 
L 245.453095 168.910556 
L 246.214766 168.482454 
L 246.722546 168.819611 
L 246.976436 168.420226 
L 247.230327 168.468065 
L 247.484217 168.2129 
L 247.991997 168.145479 
L 248.245888 168.161366 
L 248.753668 167.944301 
L 249.515339 168.50948 
L 249.769229 168.448362 
L 250.023119 168.787101 
L 250.27701 168.76903 
L 250.78479 168.877089 
L 251.292571 168.545909 
L 251.800351 168.250958 
L 252.054242 168.305295 
L 252.308132 168.650614 
L 252.562022 168.409874 
L 252.815912 167.954396 
L 253.069803 167.757238 
L 253.577583 168.062936 
L 253.831473 168.2403 
L 254.085364 168.681742 
L 254.339254 168.780227 
L 254.847034 168.51478 
L 255.100925 168.556579 
L 255.354815 168.216757 
L 255.608705 168.228168 
L 255.862595 168.395369 
L 256.370376 168.057342 
L 256.624266 168.159023 
L 256.878156 168.020114 
L 257.132047 167.743109 
L 257.385937 167.705461 
L 257.639827 168.042853 
L 257.893717 168.010661 
L 258.147608 168.192953 
L 258.401498 168.045802 
L 258.655388 168.286418 
L 258.909278 168.221145 
L 259.163169 167.960951 
L 259.670949 167.882829 
L 259.924839 167.790453 
L 260.43262 167.1679 
L 260.68651 167.187742 
L 260.9404 167.492421 
L 261.194291 167.312346 
L 261.702071 167.653733 
L 262.209852 167.863391 
L 262.463742 167.647868 
L 262.971522 167.910811 
L 263.225413 167.422694 
L 263.479303 167.336877 
L 263.733193 167.594404 
L 263.987083 167.244736 
L 264.240974 167.442262 
L 265.002644 167.031822 
L 265.256535 167.436433 
L 265.510425 167.510974 
L 265.764315 167.0117 
L 266.018205 167.118723 
L 266.525986 166.929288 
L 266.779876 167.200026 
L 267.033767 167.229834 
L 267.795437 167.061364 
L 269.064889 167.130799 
L 269.318779 166.93539 
L 269.572669 166.944334 
L 270.08045 167.393173 
L 270.33434 167.914093 
L 271.349901 167.663749 
L 271.857681 167.758775 
L 272.111572 167.754318 
L 272.619352 167.457687 
L 273.127133 167.68813 
L 273.888803 167.463485 
L 274.396584 167.820716 
L 274.650474 167.552396 
L 274.904364 167.793471 
L 275.158255 167.660065 
L 276.173816 168.375644 
L 276.681596 168.343312 
L 276.935486 168.234488 
L 277.443267 167.78879 
L 277.697157 167.687773 
L 278.204938 167.133727 
L 278.458828 167.210044 
L 279.474389 166.693633 
L 279.982169 166.954267 
L 280.48995 166.546088 
L 280.99773 166.39863 
L 281.759401 166.872968 
L 282.013291 166.446991 
L 282.267182 166.43695 
L 282.521072 166.267073 
L 283.282743 166.271054 
L 283.790523 166.834052 
L 284.044414 166.656854 
L 284.552194 166.82058 
L 284.806084 166.671226 
L 285.567755 166.739268 
L 286.075536 167.172776 
L 286.583316 167.278917 
L 287.091097 167.595437 
L 287.598877 167.52142 
L 287.852767 167.669774 
L 288.106658 168.062707 
L 288.360548 168.17057 
L 288.614438 168.152182 
L 289.122219 167.962225 
L 289.629999 168.086368 
L 289.883889 168.193405 
L 290.13778 168.023883 
L 290.39167 167.61623 
L 290.64556 167.599241 
L 290.89945 167.742773 
L 291.153341 167.657314 
L 291.407231 167.691647 
L 291.661121 167.578143 
L 292.168902 167.515302 
L 292.422792 167.794774 
L 292.676682 167.386638 
L 292.930572 167.268294 
L 293.184463 167.308067 
L 293.946133 168.204029 
L 294.200024 168.024752 
L 294.453914 168.315335 
L 295.215585 167.99375 
L 295.723365 167.614648 
L 295.977255 167.636499 
L 296.231146 167.854596 
L 296.992816 167.590355 
L 297.246707 167.33619 
L 297.500597 166.920386 
L 297.754487 166.891117 
L 298.008377 167.129869 
L 298.770048 167.374234 
L 299.023938 167.482829 
L 299.785609 167.402711 
L 300.0395 167.079789 
L 300.29339 167.120499 
L 300.80117 166.774635 
L 301.308951 166.683657 
L 301.562841 166.627797 
L 301.816731 166.765131 
L 302.324512 166.541602 
L 302.578402 166.033184 
L 302.832292 166.40454 
L 303.086183 166.475997 
L 303.340073 166.405317 
L 303.593963 166.19013 
L 303.593963 166.19013 
" clip-path="url(#pefe055910a)" style="fill: none; stroke: #0f4d92; stroke-opacity: 0.9; stroke-width: 0.8; stroke-linecap: square"/>
   </g>
   <g id="line2d_28">
    <path d="M 37.275781 166.19013 
L 316.275781 166.19013 
" clip-path="url(#pefe055910a)" style="fill: none; stroke-dasharray: 2.22,0.96; stroke-dashoffset: 0; stroke: #767676; stroke-width: 0.6"/>
   </g>
   <g id="patch_3">
    <path d="M 37.275781 193.160344 
L 37.275781 15.752344 
" style="fill: none; stroke: #000000; stroke-width: 0.8; stroke-linejoin: miter; stroke-linecap: square"/>
   </g>
   <g id="patch_4">
    <path d="M 37.275781 193.160344 
L 316.275781 193.160344 
" style="fill: none; stroke: #000000; stroke-width: 0.8; stroke-linejoin: miter; stroke-linecap: square"/>
   </g>
   <g id="text_16">
    <text style="font-weight: 700; font-size: 7.5px; font-family: 'SimHei', 'Microsoft YaHei', sans-serif; text-anchor: middle" x="176.775781" y="9.752344" transform="rotate(-0 176.775781 9.752344)">蒙特卡洛收敛曲线</text>
   </g>
   <g id="legend_1">
    <g id="line2d_29">
     <path d="M 255.075781 23.763281 
L 261.075781 23.763281 
L 267.075781 23.763281 
" style="fill: none; stroke-dasharray: 2.22,0.96; stroke-dashoffset: 0; stroke: #767676; stroke-width: 0.6"/>
    </g>
    <g id="text_17">
     <text style="font-size: 6px; font-family: 'SimHei', 'Microsoft YaHei', sans-serif; text-anchor: start" x="271.875781" y="25.863281" transform="rotate(-0 271.875781 25.863281)">最终: 67760元</text>
    </g>
   </g>
  </g>
 </g>
 <defs>
  <clipPath id="pefe055910a">
   <rect x="37.275781" y="15.752344" width="279" height="177.408"/>
  </clipPath>
 </defs>
</svg>
