<?xml version="1.0" encoding="utf-8" standalone="no"?>
<!DOCTYPE svg PUBLIC "-//W3C//DTD SVG 1.1//EN"
  "http://www.w3.org/Graphics/SVG/1.1/DTD/svg11.dtd">
<svg xmlns:xlink="http://www.w3.org/1999/xlink" width="312.636719pt" height="241.218172pt" viewBox="0 0 312.636719 241.218172" xmlns="http://www.w3.org/2000/svg" version="1.1">
 <metadata>
  <rdf:RDF xmlns:dc="http://purl.org/dc/elements/1.1/" xmlns:cc="http://creativecommons.org/ns#" xmlns:rdf="http://www.w3.org/1999/02/22-rdf-syntax-ns#">
   <cc:Work>
    <dc:type rdf:resource="http://purl.org/dc/dcmitype/StillImage"/>
    <dc:date>2026-05-21T16:40:14.782640</dc:date>
    <dc:format>image/svg+xml</dc:format>
    <dc:creator>
     <cc:Agent>
      <dc:title>Matplotlib v3.10.0, https://matplotlib.org/</dc:title>
     </cc:Agent>
    </dc:creator>
   </cc:Work>
  </rdf:RDF>
 </metadata>
 <defs>
  <style type="text/css">*{stroke-linejoin: round; stroke-linecap: butt}</style>
 </defs>
 <g id="figure_1">
  <g id="patch_1">
   <path d="M 0 241.218172 
L 312.636719 241.218172 
L 312.636719 0 
L 0 0 
z
" style="fill: #ffffff"/>
  </g>
  <g id="axes_1">
   <g id="patch_2">
    <path d="M 30.036719 214.272 
L 309.036719 214.272 
L 309.036719 3.6 
L 30.036719 3.6 
z
" style="fill: #ffffff"/>
   </g>
   <g id="FillBetweenPolyCollection_1">
    <path d="M 30.036719 13.632 
L 30.036719 13.632 
L 34.329026 13.632 
L 34.329026 133.661836 
L 38.621334 133.661836 
L 38.621334 150.327142 
L 42.913642 150.327142 
L 42.913642 156.933388 
L 47.20595 156.933388 
L 47.20595 162.337434 
L 51.498257 162.337434 
L 51.498257 166.842885 
L 55.790565 166.842885 
L 55.790565 169.578456 
L 60.082873 169.578456 
L 60.082873 171.821382 
L 64.37518 171.821382 
L 64.37518 173.282042 
L 68.667488 173.282042 
L 68.667488 176.198072 
L 72.959796 176.198072 
L 72.959796 177.948564 
L 77.252103 177.948564 
L 77.252103 179.895364 
L 81.544411 179.895364 
L 81.544411 181.746519 
L 85.836719 181.746519 
L 85.836719 183.593987 
L 90.129026 183.593987 
L 90.129026 184.855795 
L 94.421334 184.855795 
L 94.421334 186.212505 
L 98.713642 186.212505 
L 98.713642 188.928006 
L 103.00595 188.928006 
L 103.00595 190.088573 
L 107.298257 190.088573 
L 107.298257 191.832394 
L 111.590565 191.832394 
L 111.590565 193.488744 
L 115.882873 193.488744 
L 115.882873 194.172456 
L 120.17518 194.172456 
L 120.17518 195.926147 
L 124.467488 195.926147 
L 124.467488 196.606303 
L 128.759796 196.606303 
L 128.759796 197.382275 
L 133.052103 197.382275 
L 133.052103 198.161169 
L 137.344411 198.161169 
L 137.344411 198.452836 
L 141.636719 198.452836 
L 141.636719 199.624226 
L 145.929026 199.624226 
L 145.929026 200.310133 
L 150.221334 200.310133 
L 150.221334 201.004125 
L 154.513642 201.004125 
L 154.513642 201.301019 
L 158.80595 201.301019 
L 158.80595 201.301019 
L 163.098257 201.301019 
L 163.098257 201.301019 
L 167.390565 201.301019 
L 167.390565 201.301019 
L 171.682873 201.301019 
L 171.682873 201.301019 
L 175.97518 201.301019 
L 175.97518 201.301019 
L 180.267488 201.301019 
L 180.267488 201.301019 
L 184.559796 201.301019 
L 184.559796 201.301019 
L 193.144411 201.301019 
L 193.144411 201.301019 
L 197.436719 201.301019 
L 197.436719 201.301019 
L 201.729026 201.301019 
L 201.729026 201.301019 
L 206.021334 201.301019 
L 206.021334 201.301019 
L 210.313642 201.301019 
L 210.313642 201.301019 
L 214.60595 201.301019 
L 214.60595 201.301019 
L 218.898257 201.301019 
L 218.898257 201.301019 
L 223.190565 201.301019 
L 223.190565 201.301019 
L 227.482873 201.301019 
L 227.482873 201.301019 
L 231.77518 201.301019 
L 231.77518 201.301019 
L 236.067488 201.301019 
L 236.067488 201.301019 
L 240.359796 201.301019 
L 240.359796 201.301019 
L 244.652103 201.301019 
L 244.652103 201.301019 
L 253.236719 201.301019 
L 253.236719 201.301019 
L 257.529026 201.301019 
L 257.529026 201.301019 
L 261.821334 201.301019 
L 261.821334 201.301019 
L 266.113642 201.301019 
L 266.113642 201.301019 
L 270.40595 201.301019 
L 270.40595 201.301019 
L 274.698257 201.301019 
L 274.698257 201.301019 
L 278.990565 201.301019 
L 278.990565 201.301019 
L 283.282873 201.301019 
L 283.282873 201.301019 
L 287.57518 201.301019 
L 287.57518 201.301019 
L 291.867488 201.301019 
L 291.867488 201.301019 
L 296.159796 201.301019 
L 296.159796 201.301019 
L 300.452103 201.301019 
L 300.452103 201.301019 
L 304.744411 201.301019 
L 304.744411 201.301019 
L 309.036719 201.301019 
L 309.036719 201.301019 
L 313.329026 201.301019 
L 313.329026 201.301019 
L 317.621334 201.301019 
L 317.621334 201.301019 
L 321.913642 201.301019 
L 321.913642 201.301019 
L 330.498257 201.301019 
L 330.498257 201.301019 
L 339.082873 201.301019 
L 339.082873 201.301019 
L 351.959796 201.301019 
L 351.959796 201.301019 
L 360.544411 201.301019 
L 360.544411 201.301019 
L 369.129026 201.301019 
L 369.129026 201.301019 
L 373.421334 201.301019 
L 373.421334 201.301019 
L 377.713642 201.301019 
L 377.713642 201.301019 
L 382.00595 201.301019 
L 382.00595 201.301019 
L 386.298257 201.301019 
L 386.298257 201.301019 
L 407.759796 201.301019 
L 407.759796 201.301019 
L 412.052103 201.301019 
L 412.052103 201.301019 
L 416.344411 201.301019 
L 416.344411 201.301019 
L 416.344411 196.602062 
L 416.344411 196.602062 
L 416.344411 196.602062 
L 412.052103 196.602062 
L 412.052103 196.602062 
L 407.759796 196.602062 
L 407.759796 196.602062 
L 386.298257 196.602062 
L 386.298257 196.602062 
L 382.00595 196.602062 
L 382.00595 196.602062 
L 377.713642 196.602062 
L 377.713642 196.602062 
L 373.421334 196.602062 
L 373.421334 196.602062 
L 369.129026 196.602062 
L 369.129026 196.602062 
L 360.544411 196.602062 
L 360.544411 196.602062 
L 351.959796 196.602062 
L 351.959796 196.602062 
L 339.082873 196.602062 
L 339.082873 196.602062 
L 330.498257 196.602062 
L 330.498257 196.602062 
L 321.913642 196.602062 
L 321.913642 196.602062 
L 317.621334 196.602062 
L 317.621334 196.602062 
L 313.329026 196.602062 
L 313.329026 196.602062 
L 309.036719 196.602062 
L 309.036719 196.602062 
L 304.744411 196.602062 
L 304.744411 196.602062 
L 300.452103 196.602062 
L 300.452103 196.602062 
L 296.159796 196.602062 
L 296.159796 196.602062 
L 291.867488 196.602062 
L 291.867488 196.602062 
L 287.57518 196.602062 
L 287.57518 196.602062 
L 283.282873 196.602062 
L 283.282873 196.602062 
L 278.990565 196.602062 
L 278.990565 196.602062 
L 274.698257 196.602062 
L 274.698257 196.602062 
L 270.40595 196.602062 
L 270.40595 196.602062 
L 266.113642 196.602062 
L 266.113642 196.602062 
L 261.821334 196.602062 
L 261.821334 196.602062 
L 257.529026 196.602062 
L 257.529026 196.602062 
L 253.236719 196.602062 
L 253.236719 196.602062 
L 244.652103 196.602062 
L 244.652103 196.602062 
L 240.359796 196.602062 
L 240.359796 196.602062 
L 236.067488 196.602062 
L 236.067488 196.602062 
L 231.77518 196.602062 
L 231.77518 196.602062 
L 227.482873 196.602062 
L 227.482873 196.602062 
L 223.190565 196.602062 
L 223.190565 196.602062 
L 218.898257 196.602062 
L 218.898257 196.602062 
L 214.60595 196.602062 
L 214.60595 196.602062 
L 210.313642 196.602062 
L 210.313642 196.602062 
L 206.021334 196.602062 
L 206.021334 196.602062 
L 201.729026 196.602062 
L 201.729026 196.602062 
L 197.436719 196.602062 
L 197.436719 196.602062 
L 193.144411 196.602062 
L 193.144411 196.602062 
L 184.559796 196.602062 
L 184.559796 196.602062 
L 180.267488 196.602062 
L 180.267488 196.602062 
L 175.97518 196.602062 
L 175.97518 196.602062 
L 171.682873 196.602062 
L 171.682873 196.602062 
L 167.390565 196.602062 
L 167.390565 196.602062 
L 163.098257 196.602062 
L 163.098257 196.602062 
L 158.80595 196.602062 
L 158.80595 196.602062 
L 154.513642 196.602062 
L 154.513642 196.262519 
L 150.221334 196.262519 
L 150.221334 195.471446 
L 145.929026 195.471446 
L 145.929026 194.691254 
L 141.636719 194.691254 
L 141.636719 193.364534 
L 137.344411 193.364534 
L 137.344411 193.03518 
L 133.052103 193.03518 
L 133.052103 192.157984 
L 128.759796 192.157984 
L 128.759796 191.286575 
L 124.467488 191.286575 
L 124.467488 190.525237 
L 120.17518 190.525237 
L 120.17518 188.572091 
L 115.882873 188.572091 
L 115.882873 187.814203 
L 111.590565 187.814203 
L 111.590565 185.984639 
L 107.298257 185.984639 
L 107.298257 184.066997 
L 103.00595 184.066997 
L 103.00595 182.795625 
L 98.713642 182.795625 
L 98.713642 179.836406 
L 94.421334 179.836406 
L 94.421334 178.364848 
L 90.129026 178.364848 
L 90.129026 177.000357 
L 85.836719 177.000357 
L 85.836719 175.009308 
L 81.544411 175.009308 
L 81.544411 173.021856 
L 77.252103 173.021856 
L 77.252103 170.938712 
L 72.959796 170.938712 
L 72.959796 169.071349 
L 68.667488 169.071349 
L 68.667488 165.972032 
L 64.37518 165.972032 
L 64.37518 164.424963 
L 60.082873 164.424963 
L 60.082873 162.055969 
L 55.790565 162.055969 
L 55.790565 159.17693 
L 51.498257 159.17693 
L 51.498257 154.458157 
L 47.20595 154.458157 
L 47.20595 148.832924 
L 42.913642 148.832924 
L 42.913642 142.003101 
L 38.621334 142.003101 
L 38.621334 124.976398 
L 34.329026 124.976398 
L 34.329026 13.632 
L 30.036719 13.632 
z
" clip-path="url(#p4c670bc896)" style="fill: #0f4d92; fill-opacity: 0.25; stroke: #0f4d92; stroke-opacity: 0.25"/>
   </g>
   <g id="matplotlib.axis_1">
    <g id="xtick_1">
     <g id="line2d_1">
      <path d="M 30.036719 214.272 
L 30.036719 3.6 
" clip-path="url(#p4c670bc896)" style="fill: none; stroke-dasharray: 1.11,0.48; stroke-dashoffset: 0; stroke: #b0b0b0; stroke-opacity: 0.3; stroke-width: 0.3"/>
     </g>
     <g id="line2d_2">
      <defs>
       <path id="m91f36305a7" d="M 0 0 
L 0 3.5 
" style="stroke: #000000; stroke-width: 0.8"/>
      </defs>
      <g>
       <use xlink:href="#m91f36305a7" x="30.036719" y="214.272" style="stroke: #000000; stroke-width: 0.8"/>
      </g>
     </g>
     <g id="text_1">
      <text style="font-size: 6.5px; font-family: 'Arial', 'Helvetica', 'DejaVu Sans', sans-serif; text-anchor: middle" x="30.036719" y="225.924578" transform="rotate(-0 30.036719 225.924578)">0</text>
     </g>
    </g>
    <g id="xtick_2">
     <g id="line2d_3">
      <path d="M 72.959796 214.272 
L 72.959796 3.6 
" clip-path="url(#p4c670bc896)" style="fill: none; stroke-dasharray: 1.11,0.48; stroke-dashoffset: 0; stroke: #b0b0b0; stroke-opacity: 0.3; stroke-width: 0.3"/>
     </g>
     <g id="line2d_4">
      <g>
       <use xlink:href="#m91f36305a7" x="72.959796" y="214.272" style="stroke: #000000; stroke-width: 0.8"/>
      </g>
     </g>
     <g id="text_2">
      <text style="font-size: 6.5px; font-family: 'Arial', 'Helvetica', 'DejaVu Sans', sans-serif; text-anchor: middle" x="72.959796" y="225.924578" transform="rotate(-0 72.959796 225.924578)">10</text>
     </g>
    </g>
    <g id="xtick_3">
     <g id="line2d_5">
      <path d="M 115.882873 214.272 
L 115.882873 3.6 
" clip-path="url(#p4c670bc896)" style="fill: none; stroke-dasharray: 1.11,0.48; stroke-dashoffset: 0; stroke: #b0b0b0; stroke-opacity: 0.3; stroke-width: 0.3"/>
     </g>
     <g id="line2d_6">
      <g>
       <use xlink:href="#m91f36305a7" x="115.882873" y="214.272" style="stroke: #000000; stroke-width: 0.8"/>
      </g>
     </g>
     <g id="text_3">
      <text style="font-size: 6.5px; font-family: 'Arial', 'Helvetica', 'DejaVu Sans', sans-serif; text-anchor: middle" x="115.882873" y="225.924578" transform="rotate(-0 115.882873 225.924578)">20</text>
     </g>
    </g>
    <g id="xtick_4">
     <g id="line2d_7">
      <path d="M 158.80595 214.272 
L 158.80595 3.6 
" clip-path="url(#p4c670bc896)" style="fill: none; stroke-dasharray: 1.11,0.48; stroke-dashoffset: 0; stroke: #b0b0b0; stroke-opacity: 0.3; stroke-width: 0.3"/>
     </g>
     <g id="line2d_8">
      <g>
       <use xlink:href="#m91f36305a7" x="158.80595" y="214.272" style="stroke: #000000; stroke-width: 0.8"/>
      </g>
     </g>
     <g id="text_4">
      <text style="font-size: 6.5px; font-family: 'Arial', 'Helvetica', 'DejaVu Sans', sans-serif; text-anchor: middle" x="158.80595" y="225.924578" transform="rotate(-0 158.80595 225.924578)">30</text>
     </g>
    </g>
    <g id="xtick_5">
     <g id="line2d_9">
      <path d="M 201.729026 214.272 
L 201.729026 3.6 
" clip-path="url(#p4c670bc896)" style="fill: none; stroke-dasharray: 1.11,0.48; stroke-dashoffset: 0; stroke: #b0b0b0; stroke-opacity: 0.3; stroke-width: 0.3"/>
     </g>
     <g id="line2d_10">
      <g>
       <use xlink:href="#m91f36305a7" x="201.729026" y="214.272" style="stroke: #000000; stroke-width: 0.8"/>
      </g>
     </g>
     <g id="text_5">
      <text style="font-size: 6.5px; font-family: 'Arial', 'Helvetica', 'DejaVu Sans', sans-serif; text-anchor: middle" x="201.729026" y="225.924578" transform="rotate(-0 201.729026 225.924578)">40</text>
     </g>
    </g>
    <g id="xtick_6">
     <g id="line2d_11">
      <path d="M 244.652103 214.272 
L 244.652103 3.6 
" clip-path="url(#p4c670bc896)" style="fill: none; stroke-dasharray: 1.11,0.48; stroke-dashoffset: 0; stroke: #b0b0b0; stroke-opacity: 0.3; stroke-width: 0.3"/>
     </g>
     <g id="line2d_12">
      <g>
       <use xlink:href="#m91f36305a7" x="244.652103" y="214.272" style="stroke: #000000; stroke-width: 0.8"/>
      </g>
     </g>
     <g id="text_6">
      <text style="font-size: 6.5px; font-family: 'Arial', 'Helvetica', 'DejaVu Sans', sans-serif; text-anchor: middle" x="244.652103" y="225.924578" transform="rotate(-0 244.652103 225.924578)">50</text>
     </g>
    </g>
    <g id="xtick_7">
     <g id="line2d_13">
      <path d="M 287.57518 214.272 
L 287.57518 3.6 
" clip-path="url(#p4c670bc896)" style="fill: none; stroke-dasharray: 1.11,0.48; stroke-dashoffset: 0; stroke: #b0b0b0; stroke-opacity: 0.3; stroke-width: 0.3"/>
     </g>
     <g id="line2d_14">
      <g>
       <use xlink:href="#m91f36305a7" x="287.57518" y="214.272" style="stroke: #000000; stroke-width: 0.8"/>
      </g>
     </g>
     <g id="text_7">
      <text style="font-size: 6.5px; font-family: 'Arial', 'Helvetica', 'DejaVu Sans', sans-serif; text-anchor: middle" x="287.57518" y="225.924578" transform="rotate(-0 287.57518 225.924578)">60</text>
     </g>
    </g>
    <g id="text_8">
     <text style="font-size: 7px; font-family: 'Arial', 'Helvetica', 'DejaVu Sans', sans-serif; text-anchor: middle" x="169.536719" y="236.226922" transform="rotate(-0 169.536719 236.226922)">注册后天数</text>
    </g>
   </g>
   <g id="matplotlib.axis_2">
    <g id="ytick_1">
     <g id="line2d_15">
      <path d="M 30.036719 214.272 
L 309.036719 214.272 
" clip-path="url(#p4c670bc896)" style="fill: none; stroke-dasharray: 1.11,0.48; stroke-dashoffset: 0; stroke: #b0b0b0; stroke-opacity: 0.3; stroke-width: 0.3"/>
     </g>
     <g id="line2d_16">
      <defs>
       <path id="m727e7f83dc" d="M 0 0 
L -3.5 0 
" style="stroke: #000000; stroke-width: 0.8"/>
      </defs>
      <g>
       <use xlink:href="#m727e7f83dc" x="30.036719" y="214.272" style="stroke: #000000; stroke-width: 0.8"/>
      </g>
     </g>
     <g id="text_9">
      <text style="font-size: 6.5px; font-family: 'Arial', 'Helvetica', 'DejaVu Sans', sans-serif; text-anchor: end" x="23.036719" y="216.598289" transform="rotate(-0 23.036719 216.598289)">0.0</text>
     </g>
    </g>
    <g id="ytick_2">
     <g id="line2d_17">
      <path d="M 30.036719 174.144 
L 309.036719 174.144 
" clip-path="url(#p4c670bc896)" style="fill: none; stroke-dasharray: 1.11,0.48; stroke-dashoffset: 0; stroke: #b0b0b0; stroke-opacity: 0.3; stroke-width: 0.3"/>
     </g>
     <g id="line2d_18">
      <g>
       <use xlink:href="#m727e7f83dc" x="30.036719" y="174.144" style="stroke: #000000; stroke-width: 0.8"/>
      </g>
     </g>
     <g id="text_10">
      <text style="font-size: 6.5px; font-family: 'Arial', 'Helvetica', 'DejaVu Sans', sans-serif; text-anchor: end" x="23.036719" y="176.470289" transform="rotate(-0 23.036719 176.470289)">0.2</text>
     </g>
    </g>
    <g id="ytick_3">
     <g id="line2d_19">
      <path d="M 30.036719 134.016 
L 309.036719 134.016 
" clip-path="url(#p4c670bc896)" style="fill: none; stroke-dasharray: 1.11,0.48; stroke-dashoffset: 0; stroke: #b0b0b0; stroke-opacity: 0.3; stroke-width: 0.3"/>
     </g>
     <g id="line2d_20">
      <g>
       <use xlink:href="#m727e7f83dc" x="30.036719" y="134.016" style="stroke: #000000; stroke-width: 0.8"/>
      </g>
     </g>
     <g id="text_11">
      <text style="font-size: 6.5px; font-family: 'Arial', 'Helvetica', 'DejaVu Sans', sans-serif; text-anchor: end" x="23.036719" y="136.342289" transform="rotate(-0 23.036719 136.342289)">0.4</text>
     </g>
    </g>
    <g id="ytick_4">
     <g id="line2d_21">
      <path d="M 30.036719 93.888 
L 309.036719 93.888 
" clip-path="url(#p4c670bc896)" style="fill: none; stroke-dasharray: 1.11,0.48; stroke-dashoffset: 0; stroke: #b0b0b0; stroke-opacity: 0.3; stroke-width: 0.3"/>
     </g>
     <g id="line2d_22">
      <g>
       <use xlink:href="#m727e7f83dc" x="30.036719" y="93.888" style="stroke: #000000; stroke-width: 0.8"/>
      </g>
     </g>
     <g id="text_12">
      <text style="font-size: 6.5px; font-family: 'Arial', 'Helvetica', 'DejaVu Sans', sans-serif; text-anchor: end" x="23.036719" y="96.214289" transform="rotate(-0 23.036719 96.214289)">0.6</text>
     </g>
    </g>
    <g id="ytick_5">
     <g id="line2d_23">
      <path d="M 30.036719 53.76 
L 309.036719 53.76 
" clip-path="url(#p4c670bc896)" style="fill: none; stroke-dasharray: 1.11,0.48; stroke-dashoffset: 0; stroke: #b0b0b0; stroke-opacity: 0.3; stroke-width: 0.3"/>
     </g>
     <g id="line2d_24">
      <g>
       <use xlink:href="#m727e7f83dc" x="30.036719" y="53.76" style="stroke: #000000; stroke-width: 0.8"/>
      </g>
     </g>
     <g id="text_13">
      <text style="font-size: 6.5px; font-family: 'Arial', 'Helvetica', 'DejaVu Sans', sans-serif; text-anchor: end" x="23.036719" y="56.086289" transform="rotate(-0 23.036719 56.086289)">0.8</text>
     </g>
    </g>
    <g id="ytick_6">
     <g id="line2d_25">
      <path d="M 30.036719 13.632 
L 309.036719 13.632 
" clip-path="url(#p4c670bc896)" style="fill: none; stroke-dasharray: 1.11,0.48; stroke-dashoffset: 0; stroke: #b0b0b0; stroke-opacity: 0.3; stroke-width: 0.3"/>
     </g>
     <g id="line2d_26">
      <g>
       <use xlink:href="#m727e7f83dc" x="30.036719" y="13.632" style="stroke: #000000; stroke-width: 0.8"/>
      </g>
     </g>
     <g id="text_14">
      <text style="font-size: 6.5px; font-family: 'Arial', 'Helvetica', 'DejaVu Sans', sans-serif; text-anchor: end" x="23.036719" y="15.958289" transform="rotate(-0 23.036719 15.958289)">1.0</text>
     </g>
    </g>
    <g id="text_15">
     <text style="font-size: 7px; font-family: 'Arial', 'Helvetica', 'DejaVu Sans', sans-serif; text-anchor: middle" x="8.610469" y="108.936" transform="rotate(-90 8.610469 108.936)">留存概率</text>
    </g>
   </g>
   <g id="line2d_27">
    <path d="M 30.036719 13.632 
L 34.329026 13.632 
L 34.329026 129.30096 
L 38.621334 129.30096 
L 38.621334 146.174642 
L 42.913642 146.174642 
L 42.913642 152.904027 
L 47.20595 152.904027 
L 47.20595 158.428149 
L 51.498257 158.428149 
L 51.498257 163.048323 
L 55.790565 163.048323 
L 55.790565 165.860604 
L 60.082873 165.860604 
L 60.082873 168.170691 
L 64.37518 168.170691 
L 64.37518 169.67727 
L 68.667488 169.67727 
L 68.667488 172.690427 
L 72.959796 172.690427 
L 72.959796 174.502699 
L 77.252103 174.502699 
L 77.252103 176.521445 
L 81.544411 176.521445 
L 81.544411 178.444396 
L 85.836719 178.444396 
L 85.836719 180.367346 
L 90.129026 180.367346 
L 90.129026 181.683049 
L 94.421334 181.683049 
L 94.421334 183.09996 
L 98.713642 183.09996 
L 98.713642 185.943013 
L 103.00595 185.943013 
L 103.00595 187.161464 
L 107.298257 187.161464 
L 107.298257 188.996011 
L 111.590565 188.996011 
L 111.590565 190.742726 
L 115.882873 190.742726 
L 115.882873 191.465116 
L 120.17518 191.465116 
L 120.17518 193.32269 
L 124.467488 193.32269 
L 124.467488 194.04508 
L 128.759796 194.04508 
L 128.759796 194.870669 
L 133.052103 194.870669 
L 133.052103 195.700672 
L 137.344411 195.700672 
L 137.344411 196.011924 
L 141.636719 196.011924 
L 141.636719 197.264043 
L 145.929026 197.264043 
L 145.929026 197.998955 
L 150.221334 197.998955 
L 150.221334 198.743473 
L 154.513642 198.743473 
L 154.513642 199.062553 
L 313.636719 199.062553 
L 313.636719 199.062553 
" clip-path="url(#p4c670bc896)" style="fill: none; stroke: #0f4d92; stroke-width: 1.5; stroke-linecap: square"/>
   </g>
   <g id="line2d_28">
    <path d="M 34.329026 214.272 
L 34.329026 3.6 
" clip-path="url(#p4c670bc896)" style="fill: none; stroke-dasharray: 0.6,0.99; stroke-dashoffset: 0; stroke: #767676; stroke-width: 0.6"/>
   </g>
   <g id="line2d_29">
    <path d="M 60.082873 214.272 
L 60.082873 3.6 
" clip-path="url(#p4c670bc896)" style="fill: none; stroke-dasharray: 0.6,0.99; stroke-dashoffset: 0; stroke: #767676; stroke-width: 0.6"/>
   </g>
   <g id="line2d_30">
    <path d="M 90.129026 214.272 
L 90.129026 3.6 
" clip-path="url(#p4c670bc896)" style="fill: none; stroke-dasharray: 0.6,0.99; stroke-dashoffset: 0; stroke: #767676; stroke-width: 0.6"/>
   </g>
   <g id="line2d_31">
    <path d="M 158.80595 214.272 
L 158.80595 3.6 
" clip-path="url(#p4c670bc896)" style="fill: none; stroke-dasharray: 0.6,0.99; stroke-dashoffset: 0; stroke: #767676; stroke-width: 0.6"/>
   </g>
   <g id="patch_3">
    <path d="M 30.036719 214.272 
L 30.036719 3.6 
" style="fill: none; stroke: #000000; stroke-width: 0.8; stroke-linejoin: miter; stroke-linecap: square"/>
   </g>
   <g id="patch_4">
    <path d="M 30.036719 214.272 
L 309.036719 214.272 
" style="fill: none; stroke: #000000; stroke-width: 0.8; stroke-linejoin: miter; stroke-linecap: square"/>
   </g>
   <g id="patch_5">
    <path d="M 40.737008 123.682841 
Q 38.285517 125.832155 36.254367 127.612941 
" style="fill: none; stroke: #767676; stroke-width: 0.5; stroke-linecap: round"/>
    <path d="M 38.633779 126.989725 
L 36.254367 127.612941 
L 37.183442 125.335482 
" style="fill: none; stroke: #767676; stroke-width: 0.5; stroke-linecap: round"/>
   </g>
   <g id="text_16">
    <text style="font-size: 5.5px; font-family: 'Arial', 'Helvetica', 'DejaVu Sans', sans-serif; fill: #4d4d4d" transform="translate(42.913642 113.451679)">第1天</text>
    <text style="font-size: 5.5px; font-family: 'Arial', 'Helvetica', 'DejaVu Sans', sans-serif; fill: #4d4d4d" transform="translate(42.913642 119.26896)">42.4%</text>
   </g>
   <g id="patch_6">
    <path d="M 66.490854 162.552572 
Q 64.039363 164.701886 62.008213 166.482672 
" style="fill: none; stroke: #767676; stroke-width: 0.5; stroke-linecap: round"/>
    <path d="M 64.387625 165.859456 
L 62.008213 166.482672 
L 62.937288 164.205213 
" style="fill: none; stroke: #767676; stroke-width: 0.5; stroke-linecap: round"/>
   </g>
   <g id="text_17">
    <text style="font-size: 5.5px; font-family: 'Arial', 'Helvetica', 'DejaVu Sans', sans-serif; fill: #4d4d4d" transform="translate(68.667488 152.32141)">第7天</text>
    <text style="font-size: 5.5px; font-family: 'Arial', 'Helvetica', 'DejaVu Sans', sans-serif; fill: #4d4d4d" transform="translate(68.667488 158.138691)">23.0%</text>
   </g>
   <g id="patch_7">
    <path d="M 96.537008 176.06493 
Q 94.085517 178.214245 92.054367 179.995031 
" style="fill: none; stroke: #767676; stroke-width: 0.5; stroke-linecap: round"/>
    <path d="M 94.433779 179.371815 
L 92.054367 179.995031 
L 92.983442 177.717571 
" style="fill: none; stroke: #767676; stroke-width: 0.5; stroke-linecap: round"/>
   </g>
   <g id="text_18">
    <text style="font-size: 5.5px; font-family: 'Arial', 'Helvetica', 'DejaVu Sans', sans-serif; fill: #4d4d4d" transform="translate(98.713642 165.833768)">第14天</text>
    <text style="font-size: 5.5px; font-family: 'Arial', 'Helvetica', 'DejaVu Sans', sans-serif; fill: #4d4d4d" transform="translate(98.713642 171.651049)">16.2%</text>
   </g>
   <g id="patch_8">
    <path d="M 164.944162 193.471533 
Q 162.613859 195.5941 160.696832 197.340233 
" style="fill: none; stroke: #767676; stroke-width: 0.5; stroke-linecap: round"/>
    <path d="M 163.063997 196.672003 
L 160.696832 197.340233 
L 161.582547 195.045563 
" style="fill: none; stroke: #767676; stroke-width: 0.5; stroke-linecap: round"/>
   </g>
   <g id="text_19">
    <text style="font-size: 5.5px; font-family: 'Arial', 'Helvetica', 'DejaVu Sans', sans-serif; fill: #4d4d4d" transform="translate(167.390565 183.213271)">第30天</text>
    <text style="font-size: 5.5px; font-family: 'Arial', 'Helvetica', 'DejaVu Sans', sans-serif; fill: #4d4d4d" transform="translate(167.390565 189.030553)">7.6%</text>
   </g>
   <g id="legend_1">
    <g id="line2d_32">
     <path d="M 247.058203 11.827578 
L 253.558203 11.827578 
L 253.558203 11.827578 
L 260.058203 11.827578 
L 260.058203 11.827578 
" style="fill: none; stroke: #0f4d92; stroke-width: 1.5; stroke-linecap: square"/>
    </g>
    <g id="text_20">
     <text style="font-size: 6.5px; font-family: 'Arial', 'Helvetica', 'DejaVu Sans', sans-serif; text-anchor: start" x="265.258203" y="14.102578" transform="rotate(-0 265.258203 14.102578)">KM_estimate</text>
    </g>
   </g>
  </g>
 </g>
 <defs>
  <clipPath id="p4c670bc896">
   <rect x="30.036719" y="3.6" width="279" height="210.672"/>
  </clipPath>
 </defs>
</svg>
