<?xml version="1.0" encoding="utf-8" standalone="no"?>
<!DOCTYPE svg PUBLIC "-//W3C//DTD SVG 1.1//EN"
  "http://www.w3.org/Graphics/SVG/1.1/DTD/svg11.dtd">
<svg xmlns:xlink="http://www.w3.org/1999/xlink" width="313.485156pt" height="252.815359pt" viewBox="0 0 313.485156 252.815359" xmlns="http://www.w3.org/2000/svg" version="1.1">
 <metadata>
  <rdf:RDF xmlns:dc="http://purl.org/dc/elements/1.1/" xmlns:cc="http://creativecommons.org/ns#" xmlns:rdf="http://www.w3.org/1999/02/22-rdf-syntax-ns#">
   <cc:Work>
    <dc:type rdf:resource="http://purl.org/dc/dcmitype/StillImage"/>
    <dc:date>2026-05-24T15:40:33.540285</dc:date>
    <dc:format>image/svg+xml</dc:format>
    <dc:creator>
     <cc:Agent>
      <dc:title>Matplotlib v3.10.0, https://matplotlib.org/</dc:title>
     </cc:Agent>
    </dc:creator>
   </cc:Work>
  </rdf:RDF>
 </metadata>
 <defs>
  <style type="text/css">*{stroke-linejoin: round; stroke-linecap: butt}</style>
 </defs>
 <g id="figure_1">
  <g id="patch_1">
   <path d="M 0 252.815359 
L 313.485156 252.815359 
L 313.485156 0 
L 0 0 
z
" style="fill: #ffffff"/>
  </g>
  <g id="axes_1">
   <g id="patch_2">
    <path d="M 30.885156 226.453641 
L 309.885156 226.453641 
L 309.885156 15.781641 
L 30.885156 15.781641 
z
" style="fill: #ffffff"/>
   </g>
   <g id="FillBetweenPolyCollection_1">
    <defs>
     <path id="m405775132b" d="M 30.885156 -227.001719 
L 30.885156 -227.001719 
L 35.177464 -227.001719 
L 35.177464 -89.53778 
L 39.469772 -89.53778 
L 39.469772 -68.079789 
L 43.762079 -68.079789 
L 43.762079 -54.739658 
L 48.054387 -54.739658 
L 48.054387 -47.102263 
L 52.346695 -47.102263 
L 52.346695 -42.945141 
L 56.639002 -42.945141 
L 56.639002 -39.38912 
L 60.93131 -39.38912 
L 60.93131 -36.980247 
L 65.223618 -36.980247 
L 65.223618 -34.962261 
L 69.515925 -34.962261 
L 69.515925 -33.329234 
L 73.808233 -33.329234 
L 73.808233 -32.430928 
L 78.100541 -32.430928 
L 78.100541 -32.073739 
L 82.392849 -32.073739 
L 82.392849 -31.54055 
L 86.685156 -31.54055 
L 86.685156 -30.835137 
L 90.977464 -30.835137 
L 90.977464 -30.397954 
L 95.269772 -30.397954 
L 95.269772 -29.791582 
L 99.562079 -29.791582 
L 99.562079 -29.363254 
L 103.854387 -29.363254 
L 103.854387 -29.108511 
L 108.146695 -29.108511 
L 108.146695 -29.024014 
L 112.439002 -29.024014 
L 112.439002 -28.605058 
L 116.73131 -28.605058 
L 116.73131 -28.274786 
L 121.023618 -28.274786 
L 121.023618 -28.193011 
L 125.315925 -28.193011 
L 125.315925 -27.949869 
L 129.608233 -27.949869 
L 129.608233 -27.710483 
L 138.192849 -27.710483 
L 138.192849 -27.631653 
L 146.777464 -27.631653 
L 146.777464 -27.398575 
L 159.654387 -27.398575 
L 159.654387 -27.398575 
L 159.654387 -29.037983 
L 159.654387 -29.037983 
L 159.654387 -29.037983 
L 146.777464 -29.037983 
L 146.777464 -29.403361 
L 138.192849 -29.403361 
L 138.192849 -29.524087 
L 129.608233 -29.524087 
L 129.608233 -29.88354 
L 125.315925 -29.88354 
L 125.315925 -30.239444 
L 121.023618 -30.239444 
L 121.023618 -30.357389 
L 116.73131 -30.357389 
L 116.73131 -30.826157 
L 112.439002 -30.826157 
L 112.439002 -31.406294 
L 108.146695 -31.406294 
L 108.146695 -31.521649 
L 103.854387 -31.521649 
L 103.854387 -31.866515 
L 99.562079 -31.866515 
L 99.562079 -32.437697 
L 95.269772 -32.437697 
L 95.269772 -33.230919 
L 90.977464 -33.230919 
L 90.977464 -33.793609 
L 86.685156 -33.793609 
L 86.685156 -34.688222 
L 82.392849 -34.688222 
L 82.392849 -35.355209 
L 78.100541 -35.355209 
L 78.100541 -35.7982 
L 73.808233 -35.7982 
L 73.808233 -36.900534 
L 69.515925 -36.900534 
L 69.515925 -38.869218 
L 65.223618 -38.869218 
L 65.223618 -41.254055 
L 60.93131 -41.254055 
L 60.93131 -44.049277 
L 56.639002 -44.049277 
L 56.639002 -48.100303 
L 52.346695 -48.100303 
L 52.346695 -52.752467 
L 48.054387 -52.752467 
L 48.054387 -61.134048 
L 43.762079 -61.134048 
L 43.762079 -75.430618 
L 39.469772 -75.430618 
L 39.469772 -97.83675 
L 35.177464 -97.83675 
L 35.177464 -227.001719 
L 30.885156 -227.001719 
z
" style="stroke: #0f4d92; stroke-opacity: 0.25"/>
    </defs>
    <g clip-path="url(#p2b6387cd3f)">
     <use xlink:href="#m405775132b" x="0" y="252.815359" style="fill: #0f4d92; fill-opacity: 0.25; stroke: #0f4d92; stroke-opacity: 0.25"/>
    </g>
   </g>
   <g id="matplotlib.axis_1">
    <g id="xtick_1">
     <g id="line2d_1">
      <path d="M 30.885156 226.453641 
L 30.885156 15.781641 
" clip-path="url(#p2b6387cd3f)" style="fill: none; stroke-dasharray: 1.11,0.48; stroke-dashoffset: 0; stroke: #b0b0b0; stroke-opacity: 0.3; stroke-width: 0.3"/>
     </g>
     <g id="line2d_2">
      <defs>
       <path id="m8a10cd9b21" d="M 0 0 
L 0 3.5 
" style="stroke: #000000; stroke-width: 0.8"/>
      </defs>
      <g>
       <use xlink:href="#m8a10cd9b21" x="30.885156" y="226.453641" style="stroke: #000000; stroke-width: 0.8"/>
      </g>
     </g>
     <g id="text_1">
      <text style="font-size: 6.5px; font-family: 'SimHei', 'Microsoft YaHei', sans-serif; text-anchor: middle" x="30.885156" y="237.922391" transform="rotate(-0 30.885156 237.922391)">0</text>
     </g>
    </g>
    <g id="xtick_2">
     <g id="line2d_3">
      <path d="M 73.808233 226.453641 
L 73.808233 15.781641 
" clip-path="url(#p2b6387cd3f)" style="fill: none; stroke-dasharray: 1.11,0.48; stroke-dashoffset: 0; stroke: #b0b0b0; stroke-opacity: 0.3; stroke-width: 0.3"/>
     </g>
     <g id="line2d_4">
      <g>
       <use xlink:href="#m8a10cd9b21" x="73.808233" y="226.453641" style="stroke: #000000; stroke-width: 0.8"/>
      </g>
     </g>
     <g id="text_2">
      <text style="font-size: 6.5px; font-family: 'SimHei', 'Microsoft YaHei', sans-serif; text-anchor: middle" x="73.808233" y="237.922391" transform="rotate(-0 73.808233 237.922391)">10</text>
     </g>
    </g>
    <g id="xtick_3">
     <g id="line2d_5">
      <path d="M 116.73131 226.453641 
L 116.73131 15.781641 
" clip-path="url(#p2b6387cd3f)" style="fill: none; stroke-dasharray: 1.11,0.48; stroke-dashoffset: 0; stroke: #b0b0b0; stroke-opacity: 0.3; stroke-width: 0.3"/>
     </g>
     <g id="line2d_6">
      <g>
       <use xlink:href="#m8a10cd9b21" x="116.73131" y="226.453641" style="stroke: #000000; stroke-width: 0.8"/>
      </g>
     </g>
     <g id="text_3">
      <text style="font-size: 6.5px; font-family: 'SimHei', 'Microsoft YaHei', sans-serif; text-anchor: middle" x="116.73131" y="237.922391" transform="rotate(-0 116.73131 237.922391)">20</text>
     </g>
    </g>
    <g id="xtick_4">
     <g id="line2d_7">
      <path d="M 159.654387 226.453641 
L 159.654387 15.781641 
" clip-path="url(#p2b6387cd3f)" style="fill: none; stroke-dasharray: 1.11,0.48; stroke-dashoffset: 0; stroke: #b0b0b0; stroke-opacity: 0.3; stroke-width: 0.3"/>
     </g>
     <g id="line2d_8">
      <g>
       <use xlink:href="#m8a10cd9b21" x="159.654387" y="226.453641" style="stroke: #000000; stroke-width: 0.8"/>
      </g>
     </g>
     <g id="text_4">
      <text style="font-size: 6.5px; font-family: 'SimHei', 'Microsoft YaHei', sans-serif; text-anchor: middle" x="159.654387" y="237.922391" transform="rotate(-0 159.654387 237.922391)">30</text>
     </g>
    </g>
    <g id="xtick_5">
     <g id="line2d_9">
      <path d="M 202.577464 226.453641 
L 202.577464 15.781641 
" clip-path="url(#p2b6387cd3f)" style="fill: none; stroke-dasharray: 1.11,0.48; stroke-dashoffset: 0; stroke: #b0b0b0; stroke-opacity: 0.3; stroke-width: 0.3"/>
     </g>
     <g id="line2d_10">
      <g>
       <use xlink:href="#m8a10cd9b21" x="202.577464" y="226.453641" style="stroke: #000000; stroke-width: 0.8"/>
      </g>
     </g>
     <g id="text_5">
      <text style="font-size: 6.5px; font-family: 'SimHei', 'Microsoft YaHei', sans-serif; text-anchor: middle" x="202.577464" y="237.922391" transform="rotate(-0 202.577464 237.922391)">40</text>
     </g>
    </g>
    <g id="xtick_6">
     <g id="line2d_11">
      <path d="M 245.500541 226.453641 
L 245.500541 15.781641 
" clip-path="url(#p2b6387cd3f)" style="fill: none; stroke-dasharray: 1.11,0.48; stroke-dashoffset: 0; stroke: #b0b0b0; stroke-opacity: 0.3; stroke-width: 0.3"/>
     </g>
     <g id="line2d_12">
      <g>
       <use xlink:href="#m8a10cd9b21" x="245.500541" y="226.453641" style="stroke: #000000; stroke-width: 0.8"/>
      </g>
     </g>
     <g id="text_6">
      <text style="font-size: 6.5px; font-family: 'SimHei', 'Microsoft YaHei', sans-serif; text-anchor: middle" x="245.500541" y="237.922391" transform="rotate(-0 245.500541 237.922391)">50</text>
     </g>
    </g>
    <g id="xtick_7">
     <g id="line2d_13">
      <path d="M 288.423618 226.453641 
L 288.423618 15.781641 
" clip-path="url(#p2b6387cd3f)" style="fill: none; stroke-dasharray: 1.11,0.48; stroke-dashoffset: 0; stroke: #b0b0b0; stroke-opacity: 0.3; stroke-width: 0.3"/>
     </g>
     <g id="line2d_14">
      <g>
       <use xlink:href="#m8a10cd9b21" x="288.423618" y="226.453641" style="stroke: #000000; stroke-width: 0.8"/>
      </g>
     </g>
     <g id="text_7">
      <text style="font-size: 6.5px; font-family: 'SimHei', 'Microsoft YaHei', sans-serif; text-anchor: middle" x="288.423618" y="237.922391" transform="rotate(-0 288.423618 237.922391)">60</text>
     </g>
    </g>
    <g id="text_8">
     <text style="font-size: 7px; font-family: 'SimHei', 'Microsoft YaHei', sans-serif; text-anchor: middle" x="170.385156" y="248.340359" transform="rotate(-0 170.385156 248.340359)">注册后天数</text>
    </g>
   </g>
   <g id="matplotlib.axis_2">
    <g id="ytick_1">
     <g id="line2d_15">
      <path d="M 30.885156 226.453641 
L 309.885156 226.453641 
" clip-path="url(#p2b6387cd3f)" style="fill: none; stroke-dasharray: 1.11,0.48; stroke-dashoffset: 0; stroke: #b0b0b0; stroke-opacity: 0.3; stroke-width: 0.3"/>
     </g>
     <g id="line2d_16">
      <defs>
       <path id="m060c166da1" d="M 0 0 
L -3.5 0 
" style="stroke: #000000; stroke-width: 0.8"/>
      </defs>
      <g>
       <use xlink:href="#m060c166da1" x="30.885156" y="226.453641" style="stroke: #000000; stroke-width: 0.8"/>
      </g>
     </g>
     <g id="text_9">
      <text style="font-size: 6.5px; font-family: 'SimHei', 'Microsoft YaHei', sans-serif; text-anchor: end" x="23.885156" y="228.688016" transform="rotate(-0 23.885156 228.688016)">0.0</text>
     </g>
    </g>
    <g id="ytick_2">
     <g id="line2d_17">
      <path d="M 30.885156 186.325641 
L 309.885156 186.325641 
" clip-path="url(#p2b6387cd3f)" style="fill: none; stroke-dasharray: 1.11,0.48; stroke-dashoffset: 0; stroke: #b0b0b0; stroke-opacity: 0.3; stroke-width: 0.3"/>
     </g>
     <g id="line2d_18">
      <g>
       <use xlink:href="#m060c166da1" x="30.885156" y="186.325641" style="stroke: #000000; stroke-width: 0.8"/>
      </g>
     </g>
     <g id="text_10">
      <text style="font-size: 6.5px; font-family: 'SimHei', 'Microsoft YaHei', sans-serif; text-anchor: end" x="23.885156" y="188.560016" transform="rotate(-0 23.885156 188.560016)">0.2</text>
     </g>
    </g>
    <g id="ytick_3">
     <g id="line2d_19">
      <path d="M 30.885156 146.197641 
L 309.885156 146.197641 
" clip-path="url(#p2b6387cd3f)" style="fill: none; stroke-dasharray: 1.11,0.48; stroke-dashoffset: 0; stroke: #b0b0b0; stroke-opacity: 0.3; stroke-width: 0.3"/>
     </g>
     <g id="line2d_20">
      <g>
       <use xlink:href="#m060c166da1" x="30.885156" y="146.197641" style="stroke: #000000; stroke-width: 0.8"/>
      </g>
     </g>
     <g id="text_11">
      <text style="font-size: 6.5px; font-family: 'SimHei', 'Microsoft YaHei', sans-serif; text-anchor: end" x="23.885156" y="148.432016" transform="rotate(-0 23.885156 148.432016)">0.4</text>
     </g>
    </g>
    <g id="ytick_4">
     <g id="line2d_21">
      <path d="M 30.885156 106.069641 
L 309.885156 106.069641 
" clip-path="url(#p2b6387cd3f)" style="fill: none; stroke-dasharray: 1.11,0.48; stroke-dashoffset: 0; stroke: #b0b0b0; stroke-opacity: 0.3; stroke-width: 0.3"/>
     </g>
     <g id="line2d_22">
      <g>
       <use xlink:href="#m060c166da1" x="30.885156" y="106.069641" style="stroke: #000000; stroke-width: 0.8"/>
      </g>
     </g>
     <g id="text_12">
      <text style="font-size: 6.5px; font-family: 'SimHei', 'Microsoft YaHei', sans-serif; text-anchor: end" x="23.885156" y="108.304016" transform="rotate(-0 23.885156 108.304016)">0.6</text>
     </g>
    </g>
    <g id="ytick_5">
     <g id="line2d_23">
      <path d="M 30.885156 65.941641 
L 309.885156 65.941641 
" clip-path="url(#p2b6387cd3f)" style="fill: none; stroke-dasharray: 1.11,0.48; stroke-dashoffset: 0; stroke: #b0b0b0; stroke-opacity: 0.3; stroke-width: 0.3"/>
     </g>
     <g id="line2d_24">
      <g>
       <use xlink:href="#m060c166da1" x="30.885156" y="65.941641" style="stroke: #000000; stroke-width: 0.8"/>
      </g>
     </g>
     <g id="text_13">
      <text style="font-size: 6.5px; font-family: 'SimHei', 'Microsoft YaHei', sans-serif; text-anchor: end" x="23.885156" y="68.176016" transform="rotate(-0 23.885156 68.176016)">0.8</text>
     </g>
    </g>
    <g id="ytick_6">
     <g id="line2d_25">
      <path d="M 30.885156 25.813641 
L 309.885156 25.813641 
" clip-path="url(#p2b6387cd3f)" style="fill: none; stroke-dasharray: 1.11,0.48; stroke-dashoffset: 0; stroke: #b0b0b0; stroke-opacity: 0.3; stroke-width: 0.3"/>
     </g>
     <g id="line2d_26">
      <g>
       <use xlink:href="#m060c166da1" x="30.885156" y="25.813641" style="stroke: #000000; stroke-width: 0.8"/>
      </g>
     </g>
     <g id="text_14">
      <text style="font-size: 6.5px; font-family: 'SimHei', 'Microsoft YaHei', sans-serif; text-anchor: end" x="23.885156" y="28.048016" transform="rotate(-0 23.885156 28.048016)">1.0</text>
     </g>
    </g>
    <g id="text_15">
     <text style="font-size: 7px; font-family: 'SimHei', 'Microsoft YaHei', sans-serif; text-anchor: middle" x="9.260156" y="121.117641" transform="rotate(-90 9.260156 121.117641)">留存概率</text>
    </g>
   </g>
   <g id="line2d_27">
    <path d="M 30.885156 25.813641 
L 35.177464 25.813641 
L 35.177464 159.138921 
L 39.469772 159.138921 
L 39.469772 181.109001 
L 43.762079 181.109001 
L 43.762079 194.953161 
L 48.054387 194.953161 
L 48.054387 202.978761 
L 52.346695 202.978761 
L 52.346695 207.392841 
L 56.639002 207.392841 
L 56.639002 211.205001 
L 60.93131 211.205001 
L 60.93131 213.813321 
L 65.223618 213.813321 
L 65.223618 216.020361 
L 69.515925 216.020361 
L 69.515925 217.826121 
L 73.808233 217.826121 
L 73.808233 218.829321 
L 78.100541 218.829321 
L 78.100541 219.230601 
L 82.392849 219.230601 
L 82.392849 219.832521 
L 86.685156 219.832521 
L 86.685156 220.635081 
L 90.977464 220.635081 
L 90.977464 221.136681 
L 95.269772 221.136681 
L 95.269772 221.838921 
L 99.562079 221.838921 
L 99.562079 222.340521 
L 103.854387 222.340521 
L 103.854387 222.641481 
L 108.146695 222.641481 
L 108.146695 222.741801 
L 112.439002 222.741801 
L 112.439002 223.243401 
L 116.73131 223.243401 
L 116.73131 223.644681 
L 121.023618 223.644681 
L 121.023618 223.745001 
L 125.315925 223.745001 
L 125.315925 224.045961 
L 129.608233 224.045961 
L 129.608233 224.346921 
L 138.192849 224.346921 
L 138.192849 224.447241 
L 146.777464 224.447241 
L 146.777464 224.748201 
L 159.654387 224.748201 
L 159.654387 224.748201 
" clip-path="url(#p2b6387cd3f)" style="fill: none; stroke: #0f4d92; stroke-width: 1.5; stroke-linecap: square"/>
   </g>
   <g id="line2d_28">
    <path d="M 35.177464 226.453641 
L 35.177464 15.781641 
" clip-path="url(#p2b6387cd3f)" style="fill: none; stroke-dasharray: 0.6,0.99; stroke-dashoffset: 0; stroke: #767676; stroke-width: 0.6"/>
   </g>
   <g id="line2d_29">
    <path d="M 60.93131 226.453641 
L 60.93131 15.781641 
" clip-path="url(#p2b6387cd3f)" style="fill: none; stroke-dasharray: 0.6,0.99; stroke-dashoffset: 0; stroke: #767676; stroke-width: 0.6"/>
   </g>
   <g id="line2d_30">
    <path d="M 90.977464 226.453641 
L 90.977464 15.781641 
" clip-path="url(#p2b6387cd3f)" style="fill: none; stroke-dasharray: 0.6,0.99; stroke-dashoffset: 0; stroke: #767676; stroke-width: 0.6"/>
   </g>
   <g id="line2d_31">
    <path d="M 159.654387 226.453641 
L 159.654387 15.781641 
" clip-path="url(#p2b6387cd3f)" style="fill: none; stroke-dasharray: 0.6,0.99; stroke-dashoffset: 0; stroke: #767676; stroke-width: 0.6"/>
   </g>
   <g id="patch_3">
    <path d="M 30.885156 226.453641 
L 30.885156 15.781641 
" style="fill: none; stroke: #000000; stroke-width: 0.8; stroke-linejoin: miter; stroke-linecap: square"/>
   </g>
   <g id="patch_4">
    <path d="M 30.885156 226.453641 
L 309.885156 226.453641 
" style="fill: none; stroke: #000000; stroke-width: 0.8; stroke-linejoin: miter; stroke-linecap: square"/>
   </g>
   <g id="patch_5">
    <path d="M 41.542614 153.163255 
Q 39.088861 155.466862 37.042665 157.387851 
" style="fill: none; stroke: #767676; stroke-width: 0.5; stroke-linecap: round"/>
    <path d="M 39.399493 156.684029 
L 37.042665 157.387851 
L 37.893704 155.080096 
" style="fill: none; stroke: #767676; stroke-width: 0.5; stroke-linecap: round"/>
   </g>
   <g id="text_16">
    <text style="font-size: 5.5px; font-family: 'SimHei', 'Microsoft YaHei', sans-serif; fill: #4d4d4d" transform="translate(43.762079 143.881921)">第1天</text>
    <text style="font-size: 5.5px; font-family: 'SimHei', 'Microsoft YaHei', sans-serif; fill: #4d4d4d" transform="translate(43.762079 149.106921)">33.6%</text>
   </g>
   <g id="patch_6">
    <path d="M 67.29646 207.837655 
Q 64.842707 210.141262 62.796512 212.062251 
" style="fill: none; stroke: #767676; stroke-width: 0.5; stroke-linecap: round"/>
    <path d="M 65.153339 211.358429 
L 62.796512 212.062251 
L 63.64755 209.754496 
" style="fill: none; stroke: #767676; stroke-width: 0.5; stroke-linecap: round"/>
   </g>
   <g id="text_17">
    <text style="font-size: 5.5px; font-family: 'SimHei', 'Microsoft YaHei', sans-serif; fill: #4d4d4d" transform="translate(69.515925 198.556321)">第7天</text>
    <text style="font-size: 5.5px; font-family: 'SimHei', 'Microsoft YaHei', sans-serif; fill: #4d4d4d" transform="translate(69.515925 203.781321)">6.3%</text>
   </g>
   <g id="patch_7">
    <path d="M 97.979445 215.100057 
Q 95.235749 217.465482 92.915445 219.465888 
" style="fill: none; stroke: #767676; stroke-width: 0.5; stroke-linecap: round"/>
    <path d="M 95.299959 218.862487 
L 92.915445 219.465888 
L 93.863433 217.196236 
" style="fill: none; stroke: #767676; stroke-width: 0.5; stroke-linecap: round"/>
   </g>
   <g id="text_18">
    <text style="font-size: 5.5px; font-family: 'SimHei', 'Microsoft YaHei', sans-serif; fill: #4d4d4d" transform="translate(99.562079 205.879681)">第14天</text>
    <text style="font-size: 5.5px; font-family: 'SimHei', 'Microsoft YaHei', sans-serif; fill: #4d4d4d" transform="translate(99.562079 211.104681)">2.7%</text>
   </g>
   <g id="patch_8">
    <path d="M 166.656369 218.711577 
Q 163.912672 221.077002 161.592368 223.077408 
" style="fill: none; stroke: #767676; stroke-width: 0.5; stroke-linecap: round"/>
    <path d="M 163.976882 222.474007 
L 161.592368 223.077408 
L 162.540356 220.807756 
" style="fill: none; stroke: #767676; stroke-width: 0.5; stroke-linecap: round"/>
   </g>
   <g id="text_19">
    <text style="font-size: 5.5px; font-family: 'SimHei', 'Microsoft YaHei', sans-serif; fill: #4d4d4d" transform="translate(168.239002 209.491201)">第30天</text>
    <text style="font-size: 5.5px; font-family: 'SimHei', 'Microsoft YaHei', sans-serif; fill: #4d4d4d" transform="translate(168.239002 214.716201)">0.8%</text>
   </g>
   <g id="text_20">
    <text style="font-weight: 700; font-size: 7.5px; font-family: 'SimHei', 'Microsoft YaHei', sans-serif; text-anchor: middle" x="170.385156" y="9.781641" transform="rotate(-0 170.385156 9.781641)">Kaplan-Meier 玩家留存曲线</text>
   </g>
  </g>
 </g>
 <defs>
  <clipPath id="p2b6387cd3f">
   <rect x="30.885156" y="15.781641" width="279" height="210.672"/>
  </clipPath>
 </defs>
</svg>
