<?xml version="1.0" encoding="utf-8" standalone="no"?>
<!DOCTYPE svg PUBLIC "-//W3C//DTD SVG 1.1//EN"
  "http://www.w3.org/Graphics/SVG/1.1/DTD/svg11.dtd">
<svg xmlns:xlink="http://www.w3.org/1999/xlink" width="312.636719pt" height="252.586531pt" viewBox="0 0 312.636719 252.586531" xmlns="http://www.w3.org/2000/svg" version="1.1">
 <metadata>
  <rdf:RDF xmlns:dc="http://purl.org/dc/elements/1.1/" xmlns:cc="http://creativecommons.org/ns#" xmlns:rdf="http://www.w3.org/1999/02/22-rdf-syntax-ns#">
   <cc:Work>
    <dc:type rdf:resource="http://purl.org/dc/dcmitype/StillImage"/>
    <dc:date>2026-05-21T18:58:17.135125</dc:date>
    <dc:format>image/svg+xml</dc:format>
    <dc:creator>
     <cc:Agent>
      <dc:title>Matplotlib v3.10.0, https://matplotlib.org/</dc:title>
     </cc:Agent>
    </dc:creator>
   </cc:Work>
  </rdf:RDF>
 </metadata>
 <defs>
  <style type="text/css">*{stroke-linejoin: round; stroke-linecap: butt}</style>
 </defs>
 <g id="figure_1">
  <g id="patch_1">
   <path d="M 0 252.586531 
L 312.636719 252.586531 
L 312.636719 0 
L 0 0 
z
" style="fill: #ffffff"/>
  </g>
  <g id="axes_1">
   <g id="patch_2">
    <path d="M 30.036719 225.640359 
L 309.036719 225.640359 
L 309.036719 14.968359 
L 30.036719 14.968359 
z
" style="fill: #ffffff"/>
   </g>
   <g id="FillBetweenPolyCollection_1">
    <path d="M 30.036719 25.000359 
L 30.036719 25.000359 
L 34.329026 25.000359 
L 34.329026 145.030196 
L 38.621334 145.030196 
L 38.621334 161.695501 
L 42.913642 161.695501 
L 42.913642 168.301747 
L 47.20595 168.301747 
L 47.20595 173.705793 
L 51.498257 173.705793 
L 51.498257 178.211244 
L 55.790565 178.211244 
L 55.790565 180.946816 
L 60.082873 180.946816 
L 60.082873 183.189741 
L 64.37518 183.189741 
L 64.37518 184.650402 
L 68.667488 184.650402 
L 68.667488 187.566432 
L 72.959796 187.566432 
L 72.959796 189.316924 
L 77.252103 189.316924 
L 77.252103 191.263724 
L 81.544411 191.263724 
L 81.544411 193.114878 
L 85.836719 193.114878 
L 85.836719 194.962346 
L 90.129026 194.962346 
L 90.129026 196.224154 
L 94.421334 196.224154 
L 94.421334 197.580864 
L 98.713642 197.580864 
L 98.713642 200.296365 
L 103.00595 200.296365 
L 103.00595 201.456932 
L 107.298257 201.456932 
L 107.298257 203.200754 
L 111.590565 203.200754 
L 111.590565 204.857103 
L 115.882873 204.857103 
L 115.882873 205.540815 
L 120.17518 205.540815 
L 120.17518 207.294507 
L 124.467488 207.294507 
L 124.467488 207.974663 
L 128.759796 207.974663 
L 128.759796 208.750634 
L 133.052103 208.750634 
L 133.052103 209.529528 
L 137.344411 209.529528 
L 137.344411 209.821195 
L 141.636719 209.821195 
L 141.636719 210.992585 
L 145.929026 210.992585 
L 145.929026 211.678492 
L 150.221334 211.678492 
L 150.221334 212.372484 
L 154.513642 212.372484 
L 154.513642 212.669379 
L 158.80595 212.669379 
L 158.80595 212.669379 
L 163.098257 212.669379 
L 163.098257 212.669379 
L 167.390565 212.669379 
L 167.390565 212.669379 
L 171.682873 212.669379 
L 171.682873 212.669379 
L 175.97518 212.669379 
L 175.97518 212.669379 
L 180.267488 212.669379 
L 180.267488 212.669379 
L 184.559796 212.669379 
L 184.559796 212.669379 
L 193.144411 212.669379 
L 193.144411 212.669379 
L 197.436719 212.669379 
L 197.436719 212.669379 
L 201.729026 212.669379 
L 201.729026 212.669379 
L 206.021334 212.669379 
L 206.021334 212.669379 
L 210.313642 212.669379 
L 210.313642 212.669379 
L 214.60595 212.669379 
L 214.60595 212.669379 
L 218.898257 212.669379 
L 218.898257 212.669379 
L 223.190565 212.669379 
L 223.190565 212.669379 
L 227.482873 212.669379 
L 227.482873 212.669379 
L 231.77518 212.669379 
L 231.77518 212.669379 
L 236.067488 212.669379 
L 236.067488 212.669379 
L 240.359796 212.669379 
L 240.359796 212.669379 
L 244.652103 212.669379 
L 244.652103 212.669379 
L 253.236719 212.669379 
L 253.236719 212.669379 
L 257.529026 212.669379 
L 257.529026 212.669379 
L 261.821334 212.669379 
L 261.821334 212.669379 
L 266.113642 212.669379 
L 266.113642 212.669379 
L 270.40595 212.669379 
L 270.40595 212.669379 
L 274.698257 212.669379 
L 274.698257 212.669379 
L 278.990565 212.669379 
L 278.990565 212.669379 
L 283.282873 212.669379 
L 283.282873 212.669379 
L 287.57518 212.669379 
L 287.57518 212.669379 
L 291.867488 212.669379 
L 291.867488 212.669379 
L 296.159796 212.669379 
L 296.159796 212.669379 
L 300.452103 212.669379 
L 300.452103 212.669379 
L 304.744411 212.669379 
L 304.744411 212.669379 
L 309.036719 212.669379 
L 309.036719 212.669379 
L 313.329026 212.669379 
L 313.329026 212.669379 
L 317.621334 212.669379 
L 317.621334 212.669379 
L 321.913642 212.669379 
L 321.913642 212.669379 
L 330.498257 212.669379 
L 330.498257 212.669379 
L 339.082873 212.669379 
L 339.082873 212.669379 
L 351.959796 212.669379 
L 351.959796 212.669379 
L 360.544411 212.669379 
L 360.544411 212.669379 
L 369.129026 212.669379 
L 369.129026 212.669379 
L 373.421334 212.669379 
L 373.421334 212.669379 
L 377.713642 212.669379 
L 377.713642 212.669379 
L 382.00595 212.669379 
L 382.00595 212.669379 
L 386.298257 212.669379 
L 386.298257 212.669379 
L 407.759796 212.669379 
L 407.759796 212.669379 
L 412.052103 212.669379 
L 412.052103 212.669379 
L 416.344411 212.669379 
L 416.344411 212.669379 
L 416.344411 207.970422 
L 416.344411 207.970422 
L 416.344411 207.970422 
L 412.052103 207.970422 
L 412.052103 207.970422 
L 407.759796 207.970422 
L 407.759796 207.970422 
L 386.298257 207.970422 
L 386.298257 207.970422 
L 382.00595 207.970422 
L 382.00595 207.970422 
L 377.713642 207.970422 
L 377.713642 207.970422 
L 373.421334 207.970422 
L 373.421334 207.970422 
L 369.129026 207.970422 
L 369.129026 207.970422 
L 360.544411 207.970422 
L 360.544411 207.970422 
L 351.959796 207.970422 
L 351.959796 207.970422 
L 339.082873 207.970422 
L 339.082873 207.970422 
L 330.498257 207.970422 
L 330.498257 207.970422 
L 321.913642 207.970422 
L 321.913642 207.970422 
L 317.621334 207.970422 
L 317.621334 207.970422 
L 313.329026 207.970422 
L 313.329026 207.970422 
L 309.036719 207.970422 
L 309.036719 207.970422 
L 304.744411 207.970422 
L 304.744411 207.970422 
L 300.452103 207.970422 
L 300.452103 207.970422 
L 296.159796 207.970422 
L 296.159796 207.970422 
L 291.867488 207.970422 
L 291.867488 207.970422 
L 287.57518 207.970422 
L 287.57518 207.970422 
L 283.282873 207.970422 
L 283.282873 207.970422 
L 278.990565 207.970422 
L 278.990565 207.970422 
L 274.698257 207.970422 
L 274.698257 207.970422 
L 270.40595 207.970422 
L 270.40595 207.970422 
L 266.113642 207.970422 
L 266.113642 207.970422 
L 261.821334 207.970422 
L 261.821334 207.970422 
L 257.529026 207.970422 
L 257.529026 207.970422 
L 253.236719 207.970422 
L 253.236719 207.970422 
L 244.652103 207.970422 
L 244.652103 207.970422 
L 240.359796 207.970422 
L 240.359796 207.970422 
L 236.067488 207.970422 
L 236.067488 207.970422 
L 231.77518 207.970422 
L 231.77518 207.970422 
L 227.482873 207.970422 
L 227.482873 207.970422 
L 223.190565 207.970422 
L 223.190565 207.970422 
L 218.898257 207.970422 
L 218.898257 207.970422 
L 214.60595 207.970422 
L 214.60595 207.970422 
L 210.313642 207.970422 
L 210.313642 207.970422 
L 206.021334 207.970422 
L 206.021334 207.970422 
L 201.729026 207.970422 
L 201.729026 207.970422 
L 197.436719 207.970422 
L 197.436719 207.970422 
L 193.144411 207.970422 
L 193.144411 207.970422 
L 184.559796 207.970422 
L 184.559796 207.970422 
L 180.267488 207.970422 
L 180.267488 207.970422 
L 175.97518 207.970422 
L 175.97518 207.970422 
L 171.682873 207.970422 
L 171.682873 207.970422 
L 167.390565 207.970422 
L 167.390565 207.970422 
L 163.098257 207.970422 
L 163.098257 207.970422 
L 158.80595 207.970422 
L 158.80595 207.970422 
L 154.513642 207.970422 
L 154.513642 207.630878 
L 150.221334 207.630878 
L 150.221334 206.839805 
L 145.929026 206.839805 
L 145.929026 206.059613 
L 141.636719 206.059613 
L 141.636719 204.732893 
L 137.344411 204.732893 
L 137.344411 204.40354 
L 133.052103 204.40354 
L 133.052103 203.526343 
L 128.759796 203.526343 
L 128.759796 202.654934 
L 124.467488 202.654934 
L 124.467488 201.893597 
L 120.17518 201.893597 
L 120.17518 199.94045 
L 115.882873 199.94045 
L 115.882873 199.182562 
L 111.590565 199.182562 
L 111.590565 197.352999 
L 107.298257 197.352999 
L 107.298257 195.435356 
L 103.00595 195.435356 
L 103.00595 194.163984 
L 98.713642 194.163984 
L 98.713642 191.204765 
L 94.421334 191.204765 
L 94.421334 189.733207 
L 90.129026 189.733207 
L 90.129026 188.368716 
L 85.836719 188.368716 
L 85.836719 186.377668 
L 81.544411 186.377668 
L 81.544411 184.390216 
L 77.252103 184.390216 
L 77.252103 182.307071 
L 72.959796 182.307071 
L 72.959796 180.439709 
L 68.667488 180.439709 
L 68.667488 177.340391 
L 64.37518 177.340391 
L 64.37518 175.793322 
L 60.082873 175.793322 
L 60.082873 173.424329 
L 55.790565 173.424329 
L 55.790565 170.545289 
L 51.498257 170.545289 
L 51.498257 165.826516 
L 47.20595 165.826516 
L 47.20595 160.201284 
L 42.913642 160.201284 
L 42.913642 153.37146 
L 38.621334 153.37146 
L 38.621334 136.344757 
L 34.329026 136.344757 
L 34.329026 25.000359 
L 30.036719 25.000359 
z
" clip-path="url(#p512946636b)" style="fill: #0f4d92; fill-opacity: 0.25; stroke: #0f4d92; stroke-opacity: 0.25"/>
   </g>
   <g id="matplotlib.axis_1">
    <g id="xtick_1">
     <g id="line2d_1">
      <path d="M 30.036719 225.640359 
L 30.036719 14.968359 
" clip-path="url(#p512946636b)" style="fill: none; stroke-dasharray: 1.11,0.48; stroke-dashoffset: 0; stroke: #b0b0b0; stroke-opacity: 0.3; stroke-width: 0.3"/>
     </g>
     <g id="line2d_2">
      <defs>
       <path id="m7ab86c1aa7" d="M 0 0 
L 0 3.5 
" style="stroke: #000000; stroke-width: 0.8"/>
      </defs>
      <g>
       <use xlink:href="#m7ab86c1aa7" x="30.036719" y="225.640359" style="stroke: #000000; stroke-width: 0.8"/>
      </g>
     </g>
     <g id="text_1">
      <text style="font-size: 6.5px; font-family: 'Arial', 'Helvetica', 'DejaVu Sans', sans-serif; text-anchor: middle" x="30.036719" y="237.292937" transform="rotate(-0 30.036719 237.292937)">0</text>
     </g>
    </g>
    <g id="xtick_2">
     <g id="line2d_3">
      <path d="M 72.959796 225.640359 
L 72.959796 14.968359 
" clip-path="url(#p512946636b)" style="fill: none; stroke-dasharray: 1.11,0.48; stroke-dashoffset: 0; stroke: #b0b0b0; stroke-opacity: 0.3; stroke-width: 0.3"/>
     </g>
     <g id="line2d_4">
      <g>
       <use xlink:href="#m7ab86c1aa7" x="72.959796" y="225.640359" style="stroke: #000000; stroke-width: 0.8"/>
      </g>
     </g>
     <g id="text_2">
      <text style="font-size: 6.5px; font-family: 'Arial', 'Helvetica', 'DejaVu Sans', sans-serif; text-anchor: middle" x="72.959796" y="237.292937" transform="rotate(-0 72.959796 237.292937)">10</text>
     </g>
    </g>
    <g id="xtick_3">
     <g id="line2d_5">
      <path d="M 115.882873 225.640359 
L 115.882873 14.968359 
" clip-path="url(#p512946636b)" style="fill: none; stroke-dasharray: 1.11,0.48; stroke-dashoffset: 0; stroke: #b0b0b0; stroke-opacity: 0.3; stroke-width: 0.3"/>
     </g>
     <g id="line2d_6">
      <g>
       <use xlink:href="#m7ab86c1aa7" x="115.882873" y="225.640359" style="stroke: #000000; stroke-width: 0.8"/>
      </g>
     </g>
     <g id="text_3">
      <text style="font-size: 6.5px; font-family: 'Arial', 'Helvetica', 'DejaVu Sans', sans-serif; text-anchor: middle" x="115.882873" y="237.292937" transform="rotate(-0 115.882873 237.292937)">20</text>
     </g>
    </g>
    <g id="xtick_4">
     <g id="line2d_7">
      <path d="M 158.80595 225.640359 
L 158.80595 14.968359 
" clip-path="url(#p512946636b)" style="fill: none; stroke-dasharray: 1.11,0.48; stroke-dashoffset: 0; stroke: #b0b0b0; stroke-opacity: 0.3; stroke-width: 0.3"/>
     </g>
     <g id="line2d_8">
      <g>
       <use xlink:href="#m7ab86c1aa7" x="158.80595" y="225.640359" style="stroke: #000000; stroke-width: 0.8"/>
      </g>
     </g>
     <g id="text_4">
      <text style="font-size: 6.5px; font-family: 'Arial', 'Helvetica', 'DejaVu Sans', sans-serif; text-anchor: middle" x="158.80595" y="237.292937" transform="rotate(-0 158.80595 237.292937)">30</text>
     </g>
    </g>
    <g id="xtick_5">
     <g id="line2d_9">
      <path d="M 201.729026 225.640359 
L 201.729026 14.968359 
" clip-path="url(#p512946636b)" style="fill: none; stroke-dasharray: 1.11,0.48; stroke-dashoffset: 0; stroke: #b0b0b0; stroke-opacity: 0.3; stroke-width: 0.3"/>
     </g>
     <g id="line2d_10">
      <g>
       <use xlink:href="#m7ab86c1aa7" x="201.729026" y="225.640359" style="stroke: #000000; stroke-width: 0.8"/>
      </g>
     </g>
     <g id="text_5">
      <text style="font-size: 6.5px; font-family: 'Arial', 'Helvetica', 'DejaVu Sans', sans-serif; text-anchor: middle" x="201.729026" y="237.292937" transform="rotate(-0 201.729026 237.292937)">40</text>
     </g>
    </g>
    <g id="xtick_6">
     <g id="line2d_11">
      <path d="M 244.652103 225.640359 
L 244.652103 14.968359 
" clip-path="url(#p512946636b)" style="fill: none; stroke-dasharray: 1.11,0.48; stroke-dashoffset: 0; stroke: #b0b0b0; stroke-opacity: 0.3; stroke-width: 0.3"/>
     </g>
     <g id="line2d_12">
      <g>
       <use xlink:href="#m7ab86c1aa7" x="244.652103" y="225.640359" style="stroke: #000000; stroke-width: 0.8"/>
      </g>
     </g>
     <g id="text_6">
      <text style="font-size: 6.5px; font-family: 'Arial', 'Helvetica', 'DejaVu Sans', sans-serif; text-anchor: middle" x="244.652103" y="237.292937" transform="rotate(-0 244.652103 237.292937)">50</text>
     </g>
    </g>
    <g id="xtick_7">
     <g id="line2d_13">
      <path d="M 287.57518 225.640359 
L 287.57518 14.968359 
" clip-path="url(#p512946636b)" style="fill: none; stroke-dasharray: 1.11,0.48; stroke-dashoffset: 0; stroke: #b0b0b0; stroke-opacity: 0.3; stroke-width: 0.3"/>
     </g>
     <g id="line2d_14">
      <g>
       <use xlink:href="#m7ab86c1aa7" x="287.57518" y="225.640359" style="stroke: #000000; stroke-width: 0.8"/>
      </g>
     </g>
     <g id="text_7">
      <text style="font-size: 6.5px; font-family: 'Arial', 'Helvetica', 'DejaVu Sans', sans-serif; text-anchor: middle" x="287.57518" y="237.292937" transform="rotate(-0 287.57518 237.292937)">60</text>
     </g>
    </g>
    <g id="text_8">
     <text style="font-size: 7px; font-family: 'Arial', 'Helvetica', 'DejaVu Sans', sans-serif; text-anchor: middle" x="169.536719" y="247.595281" transform="rotate(-0 169.536719 247.595281)">注册后天数</text>
    </g>
   </g>
   <g id="matplotlib.axis_2">
    <g id="ytick_1">
     <g id="line2d_15">
      <path d="M 30.036719 225.640359 
L 309.036719 225.640359 
" clip-path="url(#p512946636b)" style="fill: none; stroke-dasharray: 1.11,0.48; stroke-dashoffset: 0; stroke: #b0b0b0; stroke-opacity: 0.3; stroke-width: 0.3"/>
     </g>
     <g id="line2d_16">
      <defs>
       <path id="me477e51898" d="M 0 0 
L -3.5 0 
" style="stroke: #000000; stroke-width: 0.8"/>
      </defs>
      <g>
       <use xlink:href="#me477e51898" x="30.036719" y="225.640359" style="stroke: #000000; stroke-width: 0.8"/>
      </g>
     </g>
     <g id="text_9">
      <text style="font-size: 6.5px; font-family: 'Arial', 'Helvetica', 'DejaVu Sans', sans-serif; text-anchor: end" x="23.036719" y="227.966648" transform="rotate(-0 23.036719 227.966648)">0.0</text>
     </g>
    </g>
    <g id="ytick_2">
     <g id="line2d_17">
      <path d="M 30.036719 185.512359 
L 309.036719 185.512359 
" clip-path="url(#p512946636b)" style="fill: none; stroke-dasharray: 1.11,0.48; stroke-dashoffset: 0; stroke: #b0b0b0; stroke-opacity: 0.3; stroke-width: 0.3"/>
     </g>
     <g id="line2d_18">
      <g>
       <use xlink:href="#me477e51898" x="30.036719" y="185.512359" style="stroke: #000000; stroke-width: 0.8"/>
      </g>
     </g>
     <g id="text_10">
      <text style="font-size: 6.5px; font-family: 'Arial', 'Helvetica', 'DejaVu Sans', sans-serif; text-anchor: end" x="23.036719" y="187.838648" transform="rotate(-0 23.036719 187.838648)">0.2</text>
     </g>
    </g>
    <g id="ytick_3">
     <g id="line2d_19">
      <path d="M 30.036719 145.384359 
L 309.036719 145.384359 
" clip-path="url(#p512946636b)" style="fill: none; stroke-dasharray: 1.11,0.48; stroke-dashoffset: 0; stroke: #b0b0b0; stroke-opacity: 0.3; stroke-width: 0.3"/>
     </g>
     <g id="line2d_20">
      <g>
       <use xlink:href="#me477e51898" x="30.036719" y="145.384359" style="stroke: #000000; stroke-width: 0.8"/>
      </g>
     </g>
     <g id="text_11">
      <text style="font-size: 6.5px; font-family: 'Arial', 'Helvetica', 'DejaVu Sans', sans-serif; text-anchor: end" x="23.036719" y="147.710648" transform="rotate(-0 23.036719 147.710648)">0.4</text>
     </g>
    </g>
    <g id="ytick_4">
     <g id="line2d_21">
      <path d="M 30.036719 105.256359 
L 309.036719 105.256359 
" clip-path="url(#p512946636b)" style="fill: none; stroke-dasharray: 1.11,0.48; stroke-dashoffset: 0; stroke: #b0b0b0; stroke-opacity: 0.3; stroke-width: 0.3"/>
     </g>
     <g id="line2d_22">
      <g>
       <use xlink:href="#me477e51898" x="30.036719" y="105.256359" style="stroke: #000000; stroke-width: 0.8"/>
      </g>
     </g>
     <g id="text_12">
      <text style="font-size: 6.5px; font-family: 'Arial', 'Helvetica', 'DejaVu Sans', sans-serif; text-anchor: end" x="23.036719" y="107.582648" transform="rotate(-0 23.036719 107.582648)">0.6</text>
     </g>
    </g>
    <g id="ytick_5">
     <g id="line2d_23">
      <path d="M 30.036719 65.128359 
L 309.036719 65.128359 
" clip-path="url(#p512946636b)" style="fill: none; stroke-dasharray: 1.11,0.48; stroke-dashoffset: 0; stroke: #b0b0b0; stroke-opacity: 0.3; stroke-width: 0.3"/>
     </g>
     <g id="line2d_24">
      <g>
       <use xlink:href="#me477e51898" x="30.036719" y="65.128359" style="stroke: #000000; stroke-width: 0.8"/>
      </g>
     </g>
     <g id="text_13">
      <text style="font-size: 6.5px; font-family: 'Arial', 'Helvetica', 'DejaVu Sans', sans-serif; text-anchor: end" x="23.036719" y="67.454648" transform="rotate(-0 23.036719 67.454648)">0.8</text>
     </g>
    </g>
    <g id="ytick_6">
     <g id="line2d_25">
      <path d="M 30.036719 25.000359 
L 309.036719 25.000359 
" clip-path="url(#p512946636b)" style="fill: none; stroke-dasharray: 1.11,0.48; stroke-dashoffset: 0; stroke: #b0b0b0; stroke-opacity: 0.3; stroke-width: 0.3"/>
     </g>
     <g id="line2d_26">
      <g>
       <use xlink:href="#me477e51898" x="30.036719" y="25.000359" style="stroke: #000000; stroke-width: 0.8"/>
      </g>
     </g>
     <g id="text_14">
      <text style="font-size: 6.5px; font-family: 'Arial', 'Helvetica', 'DejaVu Sans', sans-serif; text-anchor: end" x="23.036719" y="27.326648" transform="rotate(-0 23.036719 27.326648)">1.0</text>
     </g>
    </g>
    <g id="text_15">
     <text style="font-size: 7px; font-family: 'Arial', 'Helvetica', 'DejaVu Sans', sans-serif; text-anchor: middle" x="8.610469" y="120.304359" transform="rotate(-90 8.610469 120.304359)">留存概率</text>
    </g>
   </g>
   <g id="line2d_27">
    <path d="M 30.036719 25.000359 
L 34.329026 25.000359 
L 34.329026 140.669319 
L 38.621334 140.669319 
L 38.621334 157.543001 
L 42.913642 157.543001 
L 42.913642 164.272386 
L 47.20595 164.272386 
L 47.20595 169.796508 
L 51.498257 169.796508 
L 51.498257 174.416683 
L 55.790565 174.416683 
L 55.790565 177.228963 
L 60.082873 177.228963 
L 60.082873 179.53905 
L 64.37518 179.53905 
L 64.37518 181.045629 
L 68.667488 181.045629 
L 68.667488 184.058787 
L 72.959796 184.058787 
L 72.959796 185.871059 
L 77.252103 185.871059 
L 77.252103 187.889805 
L 81.544411 187.889805 
L 81.544411 189.812755 
L 85.836719 189.812755 
L 85.836719 191.735706 
L 90.129026 191.735706 
L 90.129026 193.051409 
L 94.421334 193.051409 
L 94.421334 194.46832 
L 98.713642 194.46832 
L 98.713642 197.311372 
L 103.00595 197.311372 
L 103.00595 198.529823 
L 107.298257 198.529823 
L 107.298257 200.364371 
L 111.590565 200.364371 
L 111.590565 202.111085 
L 115.882873 202.111085 
L 115.882873 202.833475 
L 120.17518 202.833475 
L 120.17518 204.69105 
L 124.467488 204.69105 
L 124.467488 205.41344 
L 128.759796 205.41344 
L 128.759796 206.239028 
L 133.052103 206.239028 
L 133.052103 207.069032 
L 137.344411 207.069032 
L 137.344411 207.380283 
L 141.636719 207.380283 
L 141.636719 208.632403 
L 145.929026 208.632403 
L 145.929026 209.367314 
L 150.221334 209.367314 
L 150.221334 210.111833 
L 154.513642 210.111833 
L 154.513642 210.430912 
L 313.636719 210.430912 
L 313.636719 210.430912 
" clip-path="url(#p512946636b)" style="fill: none; stroke: #0f4d92; stroke-width: 1.5; stroke-linecap: square"/>
   </g>
   <g id="line2d_28">
    <path d="M 34.329026 225.640359 
L 34.329026 14.968359 
" clip-path="url(#p512946636b)" style="fill: none; stroke-dasharray: 0.6,0.99; stroke-dashoffset: 0; stroke: #767676; stroke-width: 0.6"/>
   </g>
   <g id="line2d_29">
    <path d="M 60.082873 225.640359 
L 60.082873 14.968359 
" clip-path="url(#p512946636b)" style="fill: none; stroke-dasharray: 0.6,0.99; stroke-dashoffset: 0; stroke: #767676; stroke-width: 0.6"/>
   </g>
   <g id="line2d_30">
    <path d="M 90.129026 225.640359 
L 90.129026 14.968359 
" clip-path="url(#p512946636b)" style="fill: none; stroke-dasharray: 0.6,0.99; stroke-dashoffset: 0; stroke: #767676; stroke-width: 0.6"/>
   </g>
   <g id="line2d_31">
    <path d="M 158.80595 225.640359 
L 158.80595 14.968359 
" clip-path="url(#p512946636b)" style="fill: none; stroke-dasharray: 0.6,0.99; stroke-dashoffset: 0; stroke: #767676; stroke-width: 0.6"/>
   </g>
   <g id="patch_3">
    <path d="M 30.036719 225.640359 
L 30.036719 14.968359 
" style="fill: none; stroke: #000000; stroke-width: 0.8; stroke-linejoin: miter; stroke-linecap: square"/>
   </g>
   <g id="patch_4">
    <path d="M 30.036719 225.640359 
L 309.036719 225.640359 
" style="fill: none; stroke: #000000; stroke-width: 0.8; stroke-linejoin: miter; stroke-linecap: square"/>
   </g>
   <g id="patch_5">
    <path d="M 40.737008 135.0512 
Q 38.285517 137.200515 36.254367 138.981301 
" style="fill: none; stroke: #767676; stroke-width: 0.5; stroke-linecap: round"/>
    <path d="M 38.633779 138.358085 
L 36.254367 138.981301 
L 37.183442 136.703841 
" style="fill: none; stroke: #767676; stroke-width: 0.5; stroke-linecap: round"/>
   </g>
   <g id="text_16">
    <text style="font-size: 5.5px; font-family: 'Arial', 'Helvetica', 'DejaVu Sans', sans-serif; fill: #4d4d4d" transform="translate(42.913642 124.820038)">第1天</text>
    <text style="font-size: 5.5px; font-family: 'Arial', 'Helvetica', 'DejaVu Sans', sans-serif; fill: #4d4d4d" transform="translate(42.913642 130.637319)">42.4%</text>
   </g>
   <g id="patch_6">
    <path d="M 66.490854 173.920931 
Q 64.039363 176.070246 62.008213 177.851032 
" style="fill: none; stroke: #767676; stroke-width: 0.5; stroke-linecap: round"/>
    <path d="M 64.387625 177.227816 
L 62.008213 177.851032 
L 62.937288 175.573572 
" style="fill: none; stroke: #767676; stroke-width: 0.5; stroke-linecap: round"/>
   </g>
   <g id="text_17">
    <text style="font-size: 5.5px; font-family: 'Arial', 'Helvetica', 'DejaVu Sans', sans-serif; fill: #4d4d4d" transform="translate(68.667488 163.689769)">第7天</text>
    <text style="font-size: 5.5px; font-family: 'Arial', 'Helvetica', 'DejaVu Sans', sans-serif; fill: #4d4d4d" transform="translate(68.667488 169.50705)">23.0%</text>
   </g>
   <g id="patch_7">
    <path d="M 96.537008 187.433289 
Q 94.085517 189.582604 92.054367 191.36339 
" style="fill: none; stroke: #767676; stroke-width: 0.5; stroke-linecap: round"/>
    <path d="M 94.433779 190.740174 
L 92.054367 191.36339 
L 92.983442 189.085931 
" style="fill: none; stroke: #767676; stroke-width: 0.5; stroke-linecap: round"/>
   </g>
   <g id="text_18">
    <text style="font-size: 5.5px; font-family: 'Arial', 'Helvetica', 'DejaVu Sans', sans-serif; fill: #4d4d4d" transform="translate(98.713642 177.202128)">第14天</text>
    <text style="font-size: 5.5px; font-family: 'Arial', 'Helvetica', 'DejaVu Sans', sans-serif; fill: #4d4d4d" transform="translate(98.713642 183.019409)">16.2%</text>
   </g>
   <g id="patch_8">
    <path d="M 164.944162 204.839892 
Q 162.613859 206.96246 160.696832 208.708592 
" style="fill: none; stroke: #767676; stroke-width: 0.5; stroke-linecap: round"/>
    <path d="M 163.063997 208.040362 
L 160.696832 208.708592 
L 161.582547 206.413923 
" style="fill: none; stroke: #767676; stroke-width: 0.5; stroke-linecap: round"/>
   </g>
   <g id="text_19">
    <text style="font-size: 5.5px; font-family: 'Arial', 'Helvetica', 'DejaVu Sans', sans-serif; fill: #4d4d4d" transform="translate(167.390565 194.581631)">第30天</text>
    <text style="font-size: 5.5px; font-family: 'Arial', 'Helvetica', 'DejaVu Sans', sans-serif; fill: #4d4d4d" transform="translate(167.390565 200.398912)">7.6%</text>
   </g>
   <g id="text_20">
    <text style="font-weight: 700; font-size: 7.5px; font-family: 'Arial', 'Helvetica', 'DejaVu Sans', sans-serif; text-anchor: middle" x="169.536719" y="8.968359" transform="rotate(-0 169.536719 8.968359)">Kaplan-Meier 玩家留存曲线</text>
   </g>
  </g>
 </g>
 <defs>
  <clipPath id="p512946636b">
   <rect x="30.036719" y="14.968359" width="279" height="210.672"/>
  </clipPath>
 </defs>
</svg>
