<?xml version="1.0" encoding="utf-8" standalone="no"?>
<!DOCTYPE svg PUBLIC "-//W3C//DTD SVG 1.1//EN"
  "http://www.w3.org/Graphics/SVG/1.1/DTD/svg11.dtd">
<svg xmlns:xlink="http://www.w3.org/1999/xlink" width="319.875781pt" height="219.467375pt" viewBox="0 0 319.875781 219.467375" xmlns="http://www.w3.org/2000/svg" version="1.1">
 <metadata>
  <rdf:RDF xmlns:dc="http://purl.org/dc/elements/1.1/" xmlns:cc="http://creativecommons.org/ns#" xmlns:rdf="http://www.w3.org/1999/02/22-rdf-syntax-ns#">
   <cc:Work>
    <dc:type rdf:resource="http://purl.org/dc/dcmitype/StillImage"/>
    <dc:date>2026-05-24T15:48:52.683638</dc:date>
    <dc:format>image/svg+xml</dc:format>
    <dc:creator>
     <cc:Agent>
      <dc:title>Matplotlib v3.10.0, https://matplotlib.org/</dc:title>
     </cc:Agent>
    </dc:creator>
   </cc:Work>
  </rdf:RDF>
 </metadata>
 <defs>
  <style type="text/css">*{stroke-linejoin: round; stroke-linecap: butt}</style>
 </defs>
 <g id="figure_1">
  <g id="patch_1">
   <path d="M 0 219.467375 
L 319.875781 219.467375 
L 319.875781 0 
L 0 0 
z
" style="fill: #ffffff"/>
  </g>
  <g id="axes_1">
   <g id="patch_2">
    <path d="M 37.275781 193.160344 
L 316.275781 193.160344 
L 316.275781 15.752344 
L 37.275781 15.752344 
z
" style="fill: #ffffff"/>
   </g>
   <g id="matplotlib.axis_1">
    <g id="xtick_1">
     <g id="line2d_1">
      <path d="M 49.957599 193.160344 
L 49.957599 15.752344 
" clip-path="url(#p0fe0be82ce)" style="fill: none; stroke-dasharray: 1.11,0.48; stroke-dashoffset: 0; stroke: #b0b0b0; stroke-opacity: 0.3; stroke-width: 0.3"/>
     </g>
     <g id="line2d_2">
      <defs>
       <path id="m75ad61fa98" d="M 0 0 
L 0 3.5 
" style="stroke: #000000; stroke-width: 0.8"/>
      </defs>
      <g>
       <use xlink:href="#m75ad61fa98" x="49.957599" y="193.160344" style="stroke: #000000; stroke-width: 0.8"/>
      </g>
     </g>
     <g id="text_1">
      <text style="font-size: 6.5px; font-family: 'SimHei', 'Microsoft YaHei', sans-serif; text-anchor: middle" x="49.957599" y="204.629094" transform="rotate(-0 49.957599 204.629094)">0</text>
     </g>
    </g>
    <g id="xtick_2">
     <g id="line2d_3">
      <path d="M 100.73565 193.160344 
L 100.73565 15.752344 
" clip-path="url(#p0fe0be82ce)" style="fill: none; stroke-dasharray: 1.11,0.48; stroke-dashoffset: 0; stroke: #b0b0b0; stroke-opacity: 0.3; stroke-width: 0.3"/>
     </g>
     <g id="line2d_4">
      <g>
       <use xlink:href="#m75ad61fa98" x="100.73565" y="193.160344" style="stroke: #000000; stroke-width: 0.8"/>
      </g>
     </g>
     <g id="text_2">
      <text style="font-size: 6.5px; font-family: 'SimHei', 'Microsoft YaHei', sans-serif; text-anchor: middle" x="100.73565" y="204.629094" transform="rotate(-0 100.73565 204.629094)">200</text>
     </g>
    </g>
    <g id="xtick_3">
     <g id="line2d_5">
      <path d="M 151.513701 193.160344 
L 151.513701 15.752344 
" clip-path="url(#p0fe0be82ce)" style="fill: none; stroke-dasharray: 1.11,0.48; stroke-dashoffset: 0; stroke: #b0b0b0; stroke-opacity: 0.3; stroke-width: 0.3"/>
     </g>
     <g id="line2d_6">
      <g>
       <use xlink:href="#m75ad61fa98" x="151.513701" y="193.160344" style="stroke: #000000; stroke-width: 0.8"/>
      </g>
     </g>
     <g id="text_3">
      <text style="font-size: 6.5px; font-family: 'SimHei', 'Microsoft YaHei', sans-serif; text-anchor: middle" x="151.513701" y="204.629094" transform="rotate(-0 151.513701 204.629094)">400</text>
     </g>
    </g>
    <g id="xtick_4">
     <g id="line2d_7">
      <path d="M 202.291752 193.160344 
L 202.291752 15.752344 
" clip-path="url(#p0fe0be82ce)" style="fill: none; stroke-dasharray: 1.11,0.48; stroke-dashoffset: 0; stroke: #b0b0b0; stroke-opacity: 0.3; stroke-width: 0.3"/>
     </g>
     <g id="line2d_8">
      <g>
       <use xlink:href="#m75ad61fa98" x="202.291752" y="193.160344" style="stroke: #000000; stroke-width: 0.8"/>
      </g>
     </g>
     <g id="text_4">
      <text style="font-size: 6.5px; font-family: 'SimHei', 'Microsoft YaHei', sans-serif; text-anchor: middle" x="202.291752" y="204.629094" transform="rotate(-0 202.291752 204.629094)">600</text>
     </g>
    </g>
    <g id="xtick_5">
     <g id="line2d_9">
      <path d="M 253.069803 193.160344 
L 253.069803 15.752344 
" clip-path="url(#p0fe0be82ce)" style="fill: none; stroke-dasharray: 1.11,0.48; stroke-dashoffset: 0; stroke: #b0b0b0; stroke-opacity: 0.3; stroke-width: 0.3"/>
     </g>
     <g id="line2d_10">
      <g>
       <use xlink:href="#m75ad61fa98" x="253.069803" y="193.160344" style="stroke: #000000; stroke-width: 0.8"/>
      </g>
     </g>
     <g id="text_5">
      <text style="font-size: 6.5px; font-family: 'SimHei', 'Microsoft YaHei', sans-serif; text-anchor: middle" x="253.069803" y="204.629094" transform="rotate(-0 253.069803 204.629094)">800</text>
     </g>
    </g>
    <g id="xtick_6">
     <g id="line2d_11">
      <path d="M 303.847853 193.160344 
L 303.847853 15.752344 
" clip-path="url(#p0fe0be82ce)" style="fill: none; stroke-dasharray: 1.11,0.48; stroke-dashoffset: 0; stroke: #b0b0b0; stroke-opacity: 0.3; stroke-width: 0.3"/>
     </g>
     <g id="line2d_12">
      <g>
       <use xlink:href="#m75ad61fa98" x="303.847853" y="193.160344" style="stroke: #000000; stroke-width: 0.8"/>
      </g>
     </g>
     <g id="text_6">
      <text style="font-size: 6.5px; font-family: 'SimHei', 'Microsoft YaHei', sans-serif; text-anchor: middle" x="303.847853" y="204.629094" transform="rotate(-0 303.847853 204.629094)">1000</text>
     </g>
    </g>
    <g id="text_7">
     <text style="font-size: 7px; font-family: 'SimHei', 'Microsoft YaHei', sans-serif; text-anchor: middle" x="176.775781" y="214.992375" transform="rotate(-0 176.775781 214.992375)">模拟次数</text>
    </g>
   </g>
   <g id="matplotlib.axis_2">
    <g id="ytick_1">
     <g id="line2d_13">
      <path d="M 37.275781 183.777697 
L 316.275781 183.777697 
" clip-path="url(#p0fe0be82ce)" style="fill: none; stroke-dasharray: 1.11,0.48; stroke-dashoffset: 0; stroke: #b0b0b0; stroke-opacity: 0.3; stroke-width: 0.3"/>
     </g>
     <g id="line2d_14">
      <defs>
       <path id="mdc8852148f" d="M 0 0 
L -3.5 0 
" style="stroke: #000000; stroke-width: 0.8"/>
      </defs>
      <g>
       <use xlink:href="#mdc8852148f" x="37.275781" y="183.777697" style="stroke: #000000; stroke-width: 0.8"/>
      </g>
     </g>
     <g id="text_8">
      <text style="font-size: 6.5px; font-family: 'SimHei', 'Microsoft YaHei', sans-serif; text-anchor: end" x="30.275781" y="186.012072" transform="rotate(-0 30.275781 186.012072)">20750</text>
     </g>
    </g>
    <g id="ytick_2">
     <g id="line2d_15">
      <path d="M 37.275781 161.154323 
L 316.275781 161.154323 
" clip-path="url(#p0fe0be82ce)" style="fill: none; stroke-dasharray: 1.11,0.48; stroke-dashoffset: 0; stroke: #b0b0b0; stroke-opacity: 0.3; stroke-width: 0.3"/>
     </g>
     <g id="line2d_16">
      <g>
       <use xlink:href="#mdc8852148f" x="37.275781" y="161.154323" style="stroke: #000000; stroke-width: 0.8"/>
      </g>
     </g>
     <g id="text_9">
      <text style="font-size: 6.5px; font-family: 'SimHei', 'Microsoft YaHei', sans-serif; text-anchor: end" x="30.275781" y="163.388698" transform="rotate(-0 30.275781 163.388698)">21000</text>
     </g>
    </g>
    <g id="ytick_3">
     <g id="line2d_17">
      <path d="M 37.275781 138.530949 
L 316.275781 138.530949 
" clip-path="url(#p0fe0be82ce)" style="fill: none; stroke-dasharray: 1.11,0.48; stroke-dashoffset: 0; stroke: #b0b0b0; stroke-opacity: 0.3; stroke-width: 0.3"/>
     </g>
     <g id="line2d_18">
      <g>
       <use xlink:href="#mdc8852148f" x="37.275781" y="138.530949" style="stroke: #000000; stroke-width: 0.8"/>
      </g>
     </g>
     <g id="text_10">
      <text style="font-size: 6.5px; font-family: 'SimHei', 'Microsoft YaHei', sans-serif; text-anchor: end" x="30.275781" y="140.765324" transform="rotate(-0 30.275781 140.765324)">21250</text>
     </g>
    </g>
    <g id="ytick_4">
     <g id="line2d_19">
      <path d="M 37.275781 115.907575 
L 316.275781 115.907575 
" clip-path="url(#p0fe0be82ce)" style="fill: none; stroke-dasharray: 1.11,0.48; stroke-dashoffset: 0; stroke: #b0b0b0; stroke-opacity: 0.3; stroke-width: 0.3"/>
     </g>
     <g id="line2d_20">
      <g>
       <use xlink:href="#mdc8852148f" x="37.275781" y="115.907575" style="stroke: #000000; stroke-width: 0.8"/>
      </g>
     </g>
     <g id="text_11">
      <text style="font-size: 6.5px; font-family: 'SimHei', 'Microsoft YaHei', sans-serif; text-anchor: end" x="30.275781" y="118.14195" transform="rotate(-0 30.275781 118.14195)">21500</text>
     </g>
    </g>
    <g id="ytick_5">
     <g id="line2d_21">
      <path d="M 37.275781 93.284201 
L 316.275781 93.284201 
" clip-path="url(#p0fe0be82ce)" style="fill: none; stroke-dasharray: 1.11,0.48; stroke-dashoffset: 0; stroke: #b0b0b0; stroke-opacity: 0.3; stroke-width: 0.3"/>
     </g>
     <g id="line2d_22">
      <g>
       <use xlink:href="#mdc8852148f" x="37.275781" y="93.284201" style="stroke: #000000; stroke-width: 0.8"/>
      </g>
     </g>
     <g id="text_12">
      <text style="font-size: 6.5px; font-family: 'SimHei', 'Microsoft YaHei', sans-serif; text-anchor: end" x="30.275781" y="95.518576" transform="rotate(-0 30.275781 95.518576)">21750</text>
     </g>
    </g>
    <g id="ytick_6">
     <g id="line2d_23">
      <path d="M 37.275781 70.660827 
L 316.275781 70.660827 
" clip-path="url(#p0fe0be82ce)" style="fill: none; stroke-dasharray: 1.11,0.48; stroke-dashoffset: 0; stroke: #b0b0b0; stroke-opacity: 0.3; stroke-width: 0.3"/>
     </g>
     <g id="line2d_24">
      <g>
       <use xlink:href="#mdc8852148f" x="37.275781" y="70.660827" style="stroke: #000000; stroke-width: 0.8"/>
      </g>
     </g>
     <g id="text_13">
      <text style="font-size: 6.5px; font-family: 'SimHei', 'Microsoft YaHei', sans-serif; text-anchor: end" x="30.275781" y="72.895202" transform="rotate(-0 30.275781 72.895202)">22000</text>
     </g>
    </g>
    <g id="ytick_7">
     <g id="line2d_25">
      <path d="M 37.275781 48.037453 
L 316.275781 48.037453 
" clip-path="url(#p0fe0be82ce)" style="fill: none; stroke-dasharray: 1.11,0.48; stroke-dashoffset: 0; stroke: #b0b0b0; stroke-opacity: 0.3; stroke-width: 0.3"/>
     </g>
     <g id="line2d_26">
      <g>
       <use xlink:href="#mdc8852148f" x="37.275781" y="48.037453" style="stroke: #000000; stroke-width: 0.8"/>
      </g>
     </g>
     <g id="text_14">
      <text style="font-size: 6.5px; font-family: 'SimHei', 'Microsoft YaHei', sans-serif; text-anchor: end" x="30.275781" y="50.271828" transform="rotate(-0 30.275781 50.271828)">22250</text>
     </g>
    </g>
    <g id="ytick_8">
     <g id="line2d_27">
      <path d="M 37.275781 25.414079 
L 316.275781 25.414079 
" clip-path="url(#p0fe0be82ce)" style="fill: none; stroke-dasharray: 1.11,0.48; stroke-dashoffset: 0; stroke: #b0b0b0; stroke-opacity: 0.3; stroke-width: 0.3"/>
     </g>
     <g id="line2d_28">
      <g>
       <use xlink:href="#mdc8852148f" x="37.275781" y="25.414079" style="stroke: #000000; stroke-width: 0.8"/>
      </g>
     </g>
     <g id="text_15">
      <text style="font-size: 6.5px; font-family: 'SimHei', 'Microsoft YaHei', sans-serif; text-anchor: end" x="30.275781" y="27.648454" transform="rotate(-0 30.275781 27.648454)">22500</text>
     </g>
    </g>
    <g id="text_16">
     <text style="font-size: 7px; font-family: 'SimHei', 'Microsoft YaHei', sans-serif; text-anchor: middle" x="9.150781" y="104.456344" transform="rotate(-90 9.150781 104.456344)">累计平均营收(元)</text>
    </g>
   </g>
   <g id="line2d_29">
    <path d="M 49.957599 148.324996 
L 50.21149 23.816344 
L 50.46538 65.131671 
L 50.71927 70.906348 
L 51.227051 109.493305 
L 51.734831 113.640414 
L 51.988721 119.005835 
L 52.242612 132.63135 
L 52.496502 152.495218 
L 52.750392 153.596723 
L 53.004282 157.3092 
L 53.258173 153.667465 
L 53.512063 160.566937 
L 54.019843 165.406423 
L 54.527624 178.549726 
L 54.781514 180.0814 
L 55.289295 172.102292 
L 55.543185 168.636654 
L 55.797075 168.248202 
L 56.050966 174.589317 
L 56.304856 176.431828 
L 56.558746 177.261052 
L 56.812636 179.491407 
L 57.066527 184.10332 
L 57.320417 182.91783 
L 57.574307 185.096344 
L 57.828197 183.498285 
L 58.082088 176.939636 
L 58.335978 179.279737 
L 58.589868 180.053954 
L 58.843758 179.370803 
L 59.097649 180.696387 
L 59.605429 169.853726 
L 59.859319 170.693793 
L 60.11321 170.171046 
L 60.3671 171.024346 
L 60.62099 166.749535 
L 60.87488 166.287646 
L 61.382661 161.270004 
L 61.636551 158.309068 
L 61.890441 160.914387 
L 62.144332 160.212275 
L 62.398222 157.133563 
L 62.906002 164.744701 
L 63.159893 165.249761 
L 63.413783 167.949694 
L 63.667673 172.70598 
L 63.921563 171.765835 
L 64.175454 174.752398 
L 64.683234 171.284831 
L 64.937124 172.131099 
L 65.191015 172.119915 
L 65.444905 173.779707 
L 65.698795 167.62009 
L 65.952685 171.379907 
L 66.206576 170.846211 
L 66.460466 171.204535 
L 66.714356 167.411665 
L 66.968246 165.309806 
L 67.222137 165.023058 
L 67.476027 166.293031 
L 67.729917 166.02282 
L 67.983807 162.739741 
L 68.237698 163.275931 
L 68.491588 163.360681 
L 68.745478 160.442321 
L 68.999368 160.166068 
L 69.253259 157.774324 
L 69.507149 157.654968 
L 69.761039 154.707564 
L 70.014929 154.648739 
L 70.26882 155.413683 
L 70.52271 155.174287 
L 70.7766 155.613771 
L 71.030491 156.484492 
L 71.538271 159.95315 
L 71.792161 160.194674 
L 72.046052 161.943134 
L 72.299942 160.814265 
L 72.553832 161.612055 
L 72.807722 163.128508 
L 73.061613 162.127985 
L 73.315503 162.967764 
L 73.569393 162.765078 
L 73.823283 164.004389 
L 74.077174 160.323048 
L 74.838844 164.528672 
L 75.092735 161.631017 
L 75.346625 161.092695 
L 75.600515 159.840363 
L 76.108296 161.26457 
L 76.362186 161.279138 
L 76.616076 162.009006 
L 76.869966 162.178086 
L 77.123857 163.585301 
L 77.377747 164.23473 
L 77.631637 165.260672 
L 78.139418 163.504667 
L 78.393308 163.582121 
L 78.647198 164.359044 
L 78.901088 163.906192 
L 79.154979 164.094119 
L 79.408869 162.039438 
L 79.662759 161.926685 
L 79.916649 163.198219 
L 80.17054 161.808662 
L 80.42443 161.471262 
L 80.67832 162.609749 
L 80.93221 161.649911 
L 81.186101 161.616541 
L 81.439991 160.945254 
L 81.693881 161.560226 
L 81.947771 160.608336 
L 82.455552 162.088965 
L 82.709442 161.21874 
L 83.217223 160.93908 
L 83.471113 161.300142 
L 83.725003 161.239602 
L 83.978893 161.325137 
L 84.232784 160.460056 
L 84.486674 160.497777 
L 84.740564 160.747997 
L 84.994454 161.928038 
L 85.248345 161.626979 
L 85.502235 163.236815 
L 85.756125 163.351131 
L 86.010015 164.925816 
L 86.263906 165.525013 
L 86.517796 164.368185 
L 86.771686 164.978205 
L 87.025576 166.010176 
L 87.279467 165.031474 
L 87.533357 164.790095 
L 87.787247 163.877744 
L 88.041138 163.771321 
L 88.295028 163.291435 
L 88.548918 163.75545 
L 88.802808 163.889809 
L 89.310589 164.844219 
L 89.564479 164.602757 
L 89.818369 163.749136 
L 90.07226 164.648119 
L 90.32615 163.708456 
L 90.83393 163.934225 
L 91.087821 164.57293 
L 91.341711 164.250017 
L 91.595601 165.010384 
L 91.849491 164.226421 
L 92.103382 164.667741 
L 92.357272 164.466043 
L 92.611162 164.94681 
L 92.865052 164.819409 
L 93.118943 165.471597 
L 93.372833 165.101904 
L 93.626723 165.238053 
L 93.880613 163.938733 
L 94.134504 163.482775 
L 94.388394 162.064494 
L 94.642284 161.663228 
L 94.896174 161.899404 
L 95.150065 161.9684 
L 95.657845 163.38659 
L 95.911735 163.530182 
L 96.165626 163.394109 
L 96.419516 163.761766 
L 96.673406 163.339286 
L 97.181187 161.853284 
L 97.435077 161.793893 
L 97.942857 162.948476 
L 98.196748 162.444814 
L 98.450638 162.586366 
L 98.704528 163.692217 
L 98.958418 163.706494 
L 99.212309 164.944913 
L 99.466199 164.725514 
L 99.720089 163.60093 
L 99.973979 163.438872 
L 100.22787 163.473973 
L 100.73565 164.203286 
L 100.98954 163.241159 
L 101.243431 163.63622 
L 101.497321 163.822454 
L 102.512882 165.506758 
L 102.766772 166.491857 
L 103.020662 165.864424 
L 103.274553 165.560507 
L 103.782333 166.616946 
L 104.036224 165.834099 
L 104.544004 166.15961 
L 105.051785 165.359022 
L 105.559565 166.076274 
L 105.813455 166.587871 
L 106.067346 167.389726 
L 106.321236 167.579128 
L 106.575126 168.030548 
L 106.829016 167.869547 
L 107.082907 168.617293 
L 107.336797 168.34458 
L 107.590687 168.260261 
L 108.098468 167.809739 
L 108.352358 168.009017 
L 108.606248 168.547797 
L 108.860138 168.626881 
L 109.114029 168.920026 
L 109.367919 168.739187 
L 109.621809 167.995034 
L 110.12959 167.745813 
L 110.38348 167.140429 
L 110.63737 167.042721 
L 110.89126 167.497878 
L 111.652931 166.120899 
L 111.906821 166.448347 
L 112.160712 166.36277 
L 112.414602 166.135834 
L 112.668492 165.623005 
L 112.922382 165.625675 
L 113.937943 166.590069 
L 114.445724 166.472078 
L 114.699614 166.029206 
L 114.953504 166.345532 
L 115.207395 165.009054 
L 115.461285 164.774898 
L 115.715175 165.169116 
L 115.969065 165.315231 
L 116.476846 164.634923 
L 116.984626 163.477913 
L 117.238517 163.661976 
L 117.746297 162.94115 
L 118.000187 163.027503 
L 118.254078 162.871794 
L 118.507968 162.291737 
L 119.015748 162.469817 
L 119.269639 163.093073 
L 119.523529 162.206632 
L 120.03131 162.06778 
L 120.2852 161.628782 
L 120.53909 161.427968 
L 120.79298 161.402362 
L 121.808541 162.822108 
L 122.570212 163.627826 
L 123.077993 163.590855 
L 123.585773 164.429508 
L 123.839663 164.041122 
L 124.093554 164.30584 
L 124.347444 164.133763 
L 124.601334 164.115122 
L 125.109115 164.870448 
L 125.616895 163.669436 
L 125.870785 163.208596 
L 126.124676 163.615736 
L 126.378566 163.583586 
L 126.632456 163.73993 
L 126.886346 163.739892 
L 127.140237 163.151868 
L 127.394127 163.232858 
L 127.648017 162.650467 
L 128.409688 163.856128 
L 128.663578 163.943207 
L 128.917468 164.322659 
L 129.171359 164.243184 
L 129.425249 164.693337 
L 129.679139 164.171058 
L 129.933029 164.896541 
L 130.18692 164.811513 
L 130.44081 165.022177 
L 130.6947 164.868082 
L 130.94859 165.215569 
L 131.202481 165.111179 
L 131.456371 164.761123 
L 131.710261 164.725999 
L 131.964151 164.572469 
L 132.218042 164.244571 
L 132.471932 164.307855 
L 132.725822 164.118787 
L 132.979712 164.095616 
L 133.487493 163.670704 
L 134.503054 163.695536 
L 134.756944 163.913628 
L 135.010834 163.875551 
L 135.264725 164.138936 
L 135.772505 165.198707 
L 136.026396 165.400428 
L 136.280286 165.008044 
L 136.788066 165.344791 
L 137.041957 165.023735 
L 137.549737 165.589805 
L 137.803627 165.024268 
L 138.057518 165.417782 
L 138.311408 164.538895 
L 138.819188 165.117492 
L 139.073079 165.028668 
L 139.326969 164.765636 
L 139.834749 165.445943 
L 140.59642 165.307101 
L 140.85031 165.115957 
L 141.104201 165.129738 
L 141.358091 165.522407 
L 141.611981 165.564786 
L 141.865871 165.720772 
L 142.119762 165.680346 
L 142.373652 166.02142 
L 142.627542 165.908255 
L 142.881432 166.055256 
L 143.135323 166.34645 
L 143.896993 166.480597 
L 144.404774 167.285853 
L 144.658664 167.168245 
L 144.912554 167.617698 
L 145.166445 166.971511 
L 145.420335 166.900748 
L 145.674225 167.064483 
L 145.928115 166.841887 
L 146.435896 167.531114 
L 146.689786 167.158352 
L 146.943676 166.452352 
L 147.197567 166.873757 
L 147.451457 166.937989 
L 147.959237 168.122404 
L 148.213128 168.240598 
L 148.467018 168.583675 
L 148.720908 168.717605 
L 149.482579 167.695827 
L 149.736469 167.487932 
L 150.49814 167.95272 
L 150.75203 167.226059 
L 151.00592 167.472114 
L 151.259811 167.45531 
L 151.513701 167.786681 
L 151.767591 167.40251 
L 152.021481 167.427383 
L 152.275372 167.305795 
L 152.529262 166.769474 
L 153.290933 166.467487 
L 153.798713 166.533571 
L 154.052604 166.234126 
L 154.306494 165.227801 
L 154.560384 164.943359 
L 155.068165 164.884082 
L 155.829835 163.719363 
L 156.337616 163.69708 
L 156.591506 163.462286 
L 156.845396 163.481363 
L 157.099287 163.373141 
L 157.353177 162.730255 
L 157.607067 162.865209 
L 158.114848 162.83749 
L 158.876518 163.328479 
L 159.130409 163.140077 
L 159.384299 163.612274 
L 159.892079 164.036108 
L 160.14597 164.478359 
L 160.65375 163.737092 
L 160.90764 163.785972 
L 161.161531 163.317847 
L 161.415421 163.272759 
L 161.669311 163.440023 
L 161.923201 163.367977 
L 162.177092 163.769177 
L 162.430982 163.717596 
L 162.684872 163.963068 
L 162.938762 163.674159 
L 163.192653 163.649271 
L 163.700433 163.351638 
L 163.954323 162.908643 
L 164.208214 162.944607 
L 164.462104 162.717024 
L 164.715994 163.066453 
L 164.969884 163.172147 
L 165.223775 162.860252 
L 165.985445 163.614323 
L 166.239336 163.714819 
L 166.493226 163.440356 
L 166.747116 163.394958 
L 167.001006 162.886211 
L 167.254897 162.724998 
L 167.508787 163.137012 
L 168.016567 163.004902 
L 168.270458 162.54775 
L 168.778238 162.110213 
L 169.032129 162.402389 
L 169.286019 162.114461 
L 169.539909 162.556124 
L 169.793799 162.500775 
L 170.04769 162.872988 
L 170.30158 163.493196 
L 170.55547 163.227006 
L 170.80936 163.853938 
L 171.571031 164.323573 
L 171.824921 164.262462 
L 172.078812 163.872104 
L 172.586592 163.567612 
L 172.840482 162.831745 
L 173.094373 163.264373 
L 173.348263 163.273206 
L 173.602153 163.04721 
L 173.856043 163.572751 
L 174.109934 163.604628 
L 174.363824 163.226552 
L 174.617714 163.365722 
L 174.871604 163.238733 
L 175.125495 162.924751 
L 175.379385 163.081085 
L 175.633275 162.848328 
L 176.394946 162.670294 
L 177.410507 163.476625 
L 177.664397 163.424483 
L 177.918287 162.991941 
L 178.426068 163.003599 
L 178.679958 163.309974 
L 179.187739 163.522628 
L 179.441629 163.697416 
L 179.695519 163.710655 
L 179.949409 163.8686 
L 180.2033 163.553773 
L 180.45719 163.542848 
L 180.71108 163.372439 
L 180.96497 163.504448 
L 181.472751 164.215974 
L 182.234422 164.020284 
L 182.488312 163.787762 
L 182.742202 164.00923 
L 182.996092 163.715937 
L 184.011653 163.503366 
L 184.519434 163.190392 
L 184.773324 163.502584 
L 185.027215 163.268384 
L 185.281105 163.380997 
L 185.534995 163.214561 
L 185.788885 162.679481 
L 186.042776 163.016214 
L 186.296666 163.015984 
L 186.550556 162.816981 
L 186.804446 162.859938 
L 187.312227 162.60799 
L 187.566117 162.861918 
L 187.820007 162.45609 
L 188.327788 162.379728 
L 188.581678 162.05378 
L 188.835568 161.933968 
L 189.089459 162.301252 
L 189.343349 162.221073 
L 189.851129 162.815779 
L 190.10502 163.079524 
L 190.35891 162.476392 
L 190.6128 162.471993 
L 190.86669 162.990939 
L 191.120581 162.75423 
L 191.374471 162.731169 
L 191.628361 162.239689 
L 192.136142 162.563525 
L 192.390032 162.372195 
L 192.643922 162.493434 
L 192.897812 162.744617 
L 193.151703 162.77403 
L 193.405593 163.130917 
L 193.659483 163.236787 
L 194.167264 163.092501 
L 194.421154 162.773485 
L 194.675044 162.738958 
L 194.928934 162.371889 
L 195.182825 162.506448 
L 195.436715 162.095332 
L 195.690605 162.113555 
L 195.944495 161.962864 
L 196.198386 161.442324 
L 197.213947 161.725637 
L 197.467837 161.612288 
L 197.721727 162.007342 
L 197.975617 161.736258 
L 198.483398 161.654149 
L 198.991178 161.821762 
L 199.245069 161.751055 
L 199.752849 161.977111 
L 200.006739 161.742911 
L 200.26063 161.933525 
L 200.76841 161.832391 
L 201.0223 162.041935 
L 201.276191 162.020907 
L 201.530081 161.741799 
L 202.037862 161.618013 
L 202.545642 161.56911 
L 202.799532 161.644497 
L 203.307313 161.591339 
L 203.561203 161.720157 
L 203.815093 161.61397 
L 204.068984 161.36438 
L 204.322874 161.611657 
L 204.576764 161.460028 
L 204.830654 161.64229 
L 205.084545 161.440448 
L 205.338435 161.705569 
L 205.592325 161.788477 
L 205.846215 161.542188 
L 207.369557 161.775587 
L 207.623447 161.746965 
L 207.877337 161.557793 
L 208.385118 161.69507 
L 208.892898 162.380164 
L 209.400679 162.478315 
L 209.908459 162.69919 
L 210.16235 162.641693 
L 210.41624 162.333759 
L 210.67013 162.583233 
L 211.177911 162.817415 
L 211.431801 162.613143 
L 212.193472 162.76108 
L 212.447362 163.078298 
L 212.955142 162.972561 
L 213.462923 163.297564 
L 213.716813 163.008051 
L 213.970703 163.158151 
L 214.224594 162.873306 
L 214.732374 163.203258 
L 215.240155 162.964066 
L 215.494045 163.434022 
L 215.747935 163.254956 
L 216.509606 163.428522 
L 216.763496 163.410086 
L 217.017386 163.518959 
L 217.271277 163.09885 
L 217.779057 163.183714 
L 218.540728 162.608184 
L 218.794618 162.598762 
L 219.048509 162.762986 
L 219.302399 162.780302 
L 219.556289 162.581997 
L 219.810179 162.690641 
L 220.06407 162.956593 
L 220.31796 162.681432 
L 220.57185 162.780499 
L 220.82574 162.755204 
L 221.333521 162.964038 
L 222.095192 162.934349 
L 222.349082 163.207324 
L 223.110753 162.845602 
L 223.364643 162.327501 
L 224.126314 162.265831 
L 224.380204 162.011931 
L 224.634094 161.97687 
L 224.887984 162.219352 
L 225.141875 162.142164 
L 226.157436 162.661352 
L 226.665216 162.227885 
L 226.919106 162.332819 
L 227.426887 162.92875 
L 228.188558 163.473695 
L 228.696338 163.158971 
L 228.950228 162.733399 
L 229.965789 162.706106 
L 230.98135 163.072806 
L 231.235241 162.934544 
L 231.489131 163.227884 
L 231.996911 162.84524 
L 232.250802 162.926578 
L 233.266363 162.713479 
L 233.520253 162.908375 
L 233.774143 162.802697 
L 234.028034 163.127758 
L 234.281924 163.117256 
L 234.535814 162.980609 
L 234.789704 163.11631 
L 235.043595 163.092204 
L 235.297485 163.384855 
L 235.551375 163.222295 
L 236.059156 163.168054 
L 236.313046 163.400258 
L 236.566936 163.409713 
L 236.820826 163.2987 
L 237.074717 162.806932 
L 237.328607 162.913576 
L 238.344168 162.751194 
L 238.598058 162.884637 
L 238.851948 163.240411 
L 239.105839 163.102552 
L 239.359729 163.262999 
L 239.613619 163.26242 
L 240.1214 163.476163 
L 240.62918 163.345579 
L 240.88307 162.968381 
L 241.136961 163.083449 
L 241.390851 162.803522 
L 241.644741 163.063128 
L 241.898631 163.085934 
L 242.152522 162.979912 
L 242.406412 163.17108 
L 242.660302 162.668503 
L 242.914192 162.770324 
L 243.168083 162.622648 
L 243.421973 162.837124 
L 243.675863 163.241316 
L 243.929753 163.129819 
L 244.437534 163.245472 
L 244.691424 163.016435 
L 244.945314 163.041129 
L 245.199205 162.897447 
L 245.706985 163.005628 
L 245.960875 163.328523 
L 246.214766 163.349046 
L 246.468656 163.118475 
L 247.230327 162.917771 
L 247.484217 163.081832 
L 247.991997 162.975743 
L 248.245888 162.761605 
L 248.499778 163.02764 
L 248.753668 162.813912 
L 249.261449 163.034911 
L 249.515339 162.786451 
L 250.27701 162.780154 
L 250.5309 162.84127 
L 250.78479 162.719117 
L 251.292571 163.14434 
L 251.546461 162.998151 
L 252.054242 163.068789 
L 252.308132 162.838367 
L 252.562022 162.84166 
L 253.069803 162.548509 
L 253.323693 162.505097 
L 253.577583 162.273078 
L 253.831473 162.28616 
L 254.593144 162.670442 
L 254.847034 163.062722 
L 255.608705 163.537423 
L 255.862595 163.817182 
L 256.370376 163.820551 
L 256.624266 163.734379 
L 256.878156 163.513079 
L 257.639827 163.654013 
L 258.147608 163.379896 
L 258.655388 163.661013 
L 259.163169 164.05781 
L 259.670949 164.1651 
L 260.17873 164.094059 
L 260.43262 164.024229 
L 260.9404 164.219729 
L 261.194291 163.986225 
L 261.448181 164.002345 
L 261.702071 164.144561 
L 261.955961 163.893778 
L 262.209852 163.821183 
L 262.717632 163.543045 
L 262.971522 163.358078 
L 263.479303 163.436308 
L 263.733193 163.219219 
L 263.987083 163.288889 
L 264.240974 163.193148 
L 265.002644 163.340553 
L 265.256535 163.608746 
L 265.764315 163.306763 
L 267.033767 163.364219 
L 267.287657 163.237939 
L 268.557108 163.687073 
L 268.810998 163.606336 
L 269.064889 163.815312 
L 269.572669 163.82105 
L 270.84212 163.892288 
L 271.096011 163.84029 
L 271.603791 163.58997 
L 271.857681 163.7374 
L 272.365462 163.644664 
L 272.619352 163.546019 
L 272.873242 163.674769 
L 273.634913 163.507027 
L 273.888803 163.682008 
L 274.142694 163.66268 
L 274.904364 164.069801 
L 275.158255 164.288217 
L 275.666035 164.365066 
L 276.173816 164.2473 
L 276.427706 163.948307 
L 276.681596 163.830942 
L 277.443267 164.200261 
L 277.697157 164.073291 
L 277.951047 164.26576 
L 278.458828 164.065665 
L 278.712718 164.271751 
L 278.966608 164.223268 
L 279.474389 164.537309 
L 279.728279 164.731799 
L 280.48995 164.850915 
L 281.251621 165.207762 
L 281.505511 165.172169 
L 281.759401 164.884275 
L 282.013291 165.095919 
L 282.267182 164.937954 
L 282.774962 164.969616 
L 283.028853 165.210038 
L 283.536633 165.154562 
L 284.044414 165.29322 
L 284.298304 165.190836 
L 284.806084 164.826816 
L 285.567755 164.597987 
L 285.821645 164.667288 
L 286.075536 164.388276 
L 286.837206 164.138579 
L 287.344987 164.44742 
L 287.598877 164.545844 
L 287.852767 164.276651 
L 288.106658 164.442378 
L 288.614438 164.400164 
L 289.376109 164.681888 
L 289.629999 164.622888 
L 289.883889 164.860366 
L 290.13778 164.737654 
L 290.39167 165.003685 
L 290.89945 165.153599 
L 291.915011 164.387205 
L 292.168902 164.622829 
L 292.422792 164.490907 
L 293.184463 164.714218 
L 293.438353 164.652886 
L 293.946133 164.898647 
L 294.453914 164.966553 
L 294.707804 165.106457 
L 295.215585 165.120186 
L 295.469475 165.09553 
L 295.723365 165.410596 
L 295.977255 165.272819 
L 296.231146 165.301318 
L 296.485036 165.545461 
L 296.992816 165.560205 
L 297.246707 165.80745 
L 297.500597 165.528099 
L 298.008377 165.30564 
L 298.516158 165.404403 
L 298.770048 165.713318 
L 299.277829 165.715551 
L 299.531719 165.522985 
L 300.0395 165.541162 
L 301.562841 165.543809 
L 301.816731 165.723293 
L 302.070622 165.62508 
L 302.324512 165.823993 
L 303.593963 165.926221 
L 303.593963 165.926221 
" clip-path="url(#p0fe0be82ce)" style="fill: none; stroke: #0f4d92; stroke-opacity: 0.9; stroke-width: 0.8; stroke-linecap: square"/>
   </g>
   <g id="line2d_30">
    <path d="M 37.275781 165.926221 
L 316.275781 165.926221 
" clip-path="url(#p0fe0be82ce)" style="fill: none; stroke-dasharray: 2.22,0.96; stroke-dashoffset: 0; stroke: #767676; stroke-width: 0.6"/>
   </g>
   <g id="patch_3">
    <path d="M 37.275781 193.160344 
L 37.275781 15.752344 
" style="fill: none; stroke: #000000; stroke-width: 0.8; stroke-linejoin: miter; stroke-linecap: square"/>
   </g>
   <g id="patch_4">
    <path d="M 37.275781 193.160344 
L 316.275781 193.160344 
" style="fill: none; stroke: #000000; stroke-width: 0.8; stroke-linejoin: miter; stroke-linecap: square"/>
   </g>
   <g id="text_17">
    <text style="font-weight: 700; font-size: 7.5px; font-family: 'SimHei', 'Microsoft YaHei', sans-serif; text-anchor: middle" x="176.775781" y="9.752344" transform="rotate(-0 176.775781 9.752344)">蒙特卡洛收敛曲线</text>
   </g>
   <g id="legend_1">
    <g id="line2d_31">
     <path d="M 255.075781 23.763281 
L 261.075781 23.763281 
L 267.075781 23.763281 
" style="fill: none; stroke-dasharray: 2.22,0.96; stroke-dashoffset: 0; stroke: #767676; stroke-width: 0.6"/>
    </g>
    <g id="text_18">
     <text style="font-size: 6px; font-family: 'SimHei', 'Microsoft YaHei', sans-serif; text-anchor: start" x="271.875781" y="25.863281" transform="rotate(-0 271.875781 25.863281)">最终: 20947元</text>
    </g>
   </g>
  </g>
 </g>
 <defs>
  <clipPath id="p0fe0be82ce">
   <rect x="37.275781" y="15.752344" width="279" height="177.408"/>
  </clipPath>
 </defs>
</svg>
