<?xml version="1.0" encoding="utf-8" standalone="no"?>
<!DOCTYPE svg PUBLIC "-//W3C//DTD SVG 1.1//EN"
  "http://www.w3.org/Graphics/SVG/1.1/DTD/svg11.dtd">
<svg xmlns:xlink="http://www.w3.org/1999/xlink" width="319.875781pt" height="219.467375pt" viewBox="0 0 319.875781 219.467375" xmlns="http://www.w3.org/2000/svg" version="1.1">
 <metadata>
  <rdf:RDF xmlns:dc="http://purl.org/dc/elements/1.1/" xmlns:cc="http://creativecommons.org/ns#" xmlns:rdf="http://www.w3.org/1999/02/22-rdf-syntax-ns#">
   <cc:Work>
    <dc:type rdf:resource="http://purl.org/dc/dcmitype/StillImage"/>
    <dc:date>2026-05-22T17:09:27.598640</dc:date>
    <dc:format>image/svg+xml</dc:format>
    <dc:creator>
     <cc:Agent>
      <dc:title>Matplotlib v3.10.0, https://matplotlib.org/</dc:title>
     </cc:Agent>
    </dc:creator>
   </cc:Work>
  </rdf:RDF>
 </metadata>
 <defs>
  <style type="text/css">*{stroke-linejoin: round; stroke-linecap: butt}</style>
 </defs>
 <g id="figure_1">
  <g id="patch_1">
   <path d="M 0 219.467375 
L 319.875781 219.467375 
L 319.875781 0 
L 0 0 
z
" style="fill: #ffffff"/>
  </g>
  <g id="axes_1">
   <g id="patch_2">
    <path d="M 37.275781 193.160344 
L 316.275781 193.160344 
L 316.275781 15.752344 
L 37.275781 15.752344 
z
" style="fill: #ffffff"/>
   </g>
   <g id="matplotlib.axis_1">
    <g id="xtick_1">
     <g id="line2d_1">
      <path d="M 49.957599 193.160344 
L 49.957599 15.752344 
" clip-path="url(#pfb9a7db2d4)" style="fill: none; stroke-dasharray: 1.11,0.48; stroke-dashoffset: 0; stroke: #b0b0b0; stroke-opacity: 0.3; stroke-width: 0.3"/>
     </g>
     <g id="line2d_2">
      <defs>
       <path id="m5c8ab98b2d" d="M 0 0 
L 0 3.5 
" style="stroke: #000000; stroke-width: 0.8"/>
      </defs>
      <g>
       <use xlink:href="#m5c8ab98b2d" x="49.957599" y="193.160344" style="stroke: #000000; stroke-width: 0.8"/>
      </g>
     </g>
     <g id="text_1">
      <text style="font-size: 6.5px; font-family: 'SimHei', 'Microsoft YaHei', sans-serif; text-anchor: middle" x="49.957599" y="204.629094" transform="rotate(-0 49.957599 204.629094)">0</text>
     </g>
    </g>
    <g id="xtick_2">
     <g id="line2d_3">
      <path d="M 100.73565 193.160344 
L 100.73565 15.752344 
" clip-path="url(#pfb9a7db2d4)" style="fill: none; stroke-dasharray: 1.11,0.48; stroke-dashoffset: 0; stroke: #b0b0b0; stroke-opacity: 0.3; stroke-width: 0.3"/>
     </g>
     <g id="line2d_4">
      <g>
       <use xlink:href="#m5c8ab98b2d" x="100.73565" y="193.160344" style="stroke: #000000; stroke-width: 0.8"/>
      </g>
     </g>
     <g id="text_2">
      <text style="font-size: 6.5px; font-family: 'SimHei', 'Microsoft YaHei', sans-serif; text-anchor: middle" x="100.73565" y="204.629094" transform="rotate(-0 100.73565 204.629094)">200</text>
     </g>
    </g>
    <g id="xtick_3">
     <g id="line2d_5">
      <path d="M 151.513701 193.160344 
L 151.513701 15.752344 
" clip-path="url(#pfb9a7db2d4)" style="fill: none; stroke-dasharray: 1.11,0.48; stroke-dashoffset: 0; stroke: #b0b0b0; stroke-opacity: 0.3; stroke-width: 0.3"/>
     </g>
     <g id="line2d_6">
      <g>
       <use xlink:href="#m5c8ab98b2d" x="151.513701" y="193.160344" style="stroke: #000000; stroke-width: 0.8"/>
      </g>
     </g>
     <g id="text_3">
      <text style="font-size: 6.5px; font-family: 'SimHei', 'Microsoft YaHei', sans-serif; text-anchor: middle" x="151.513701" y="204.629094" transform="rotate(-0 151.513701 204.629094)">400</text>
     </g>
    </g>
    <g id="xtick_4">
     <g id="line2d_7">
      <path d="M 202.291752 193.160344 
L 202.291752 15.752344 
" clip-path="url(#pfb9a7db2d4)" style="fill: none; stroke-dasharray: 1.11,0.48; stroke-dashoffset: 0; stroke: #b0b0b0; stroke-opacity: 0.3; stroke-width: 0.3"/>
     </g>
     <g id="line2d_8">
      <g>
       <use xlink:href="#m5c8ab98b2d" x="202.291752" y="193.160344" style="stroke: #000000; stroke-width: 0.8"/>
      </g>
     </g>
     <g id="text_4">
      <text style="font-size: 6.5px; font-family: 'SimHei', 'Microsoft YaHei', sans-serif; text-anchor: middle" x="202.291752" y="204.629094" transform="rotate(-0 202.291752 204.629094)">600</text>
     </g>
    </g>
    <g id="xtick_5">
     <g id="line2d_9">
      <path d="M 253.069803 193.160344 
L 253.069803 15.752344 
" clip-path="url(#pfb9a7db2d4)" style="fill: none; stroke-dasharray: 1.11,0.48; stroke-dashoffset: 0; stroke: #b0b0b0; stroke-opacity: 0.3; stroke-width: 0.3"/>
     </g>
     <g id="line2d_10">
      <g>
       <use xlink:href="#m5c8ab98b2d" x="253.069803" y="193.160344" style="stroke: #000000; stroke-width: 0.8"/>
      </g>
     </g>
     <g id="text_5">
      <text style="font-size: 6.5px; font-family: 'SimHei', 'Microsoft YaHei', sans-serif; text-anchor: middle" x="253.069803" y="204.629094" transform="rotate(-0 253.069803 204.629094)">800</text>
     </g>
    </g>
    <g id="xtick_6">
     <g id="line2d_11">
      <path d="M 303.847853 193.160344 
L 303.847853 15.752344 
" clip-path="url(#pfb9a7db2d4)" style="fill: none; stroke-dasharray: 1.11,0.48; stroke-dashoffset: 0; stroke: #b0b0b0; stroke-opacity: 0.3; stroke-width: 0.3"/>
     </g>
     <g id="line2d_12">
      <g>
       <use xlink:href="#m5c8ab98b2d" x="303.847853" y="193.160344" style="stroke: #000000; stroke-width: 0.8"/>
      </g>
     </g>
     <g id="text_6">
      <text style="font-size: 6.5px; font-family: 'SimHei', 'Microsoft YaHei', sans-serif; text-anchor: middle" x="303.847853" y="204.629094" transform="rotate(-0 303.847853 204.629094)">1000</text>
     </g>
    </g>
    <g id="text_7">
     <text style="font-size: 7px; font-family: 'SimHei', 'Microsoft YaHei', sans-serif; text-anchor: middle" x="176.775781" y="214.992375" transform="rotate(-0 176.775781 214.992375)">模拟次数</text>
    </g>
   </g>
   <g id="matplotlib.axis_2">
    <g id="ytick_1">
     <g id="line2d_13">
      <path d="M 37.275781 184.771382 
L 316.275781 184.771382 
" clip-path="url(#pfb9a7db2d4)" style="fill: none; stroke-dasharray: 1.11,0.48; stroke-dashoffset: 0; stroke: #b0b0b0; stroke-opacity: 0.3; stroke-width: 0.3"/>
     </g>
     <g id="line2d_14">
      <defs>
       <path id="mca3c512966" d="M 0 0 
L -3.5 0 
" style="stroke: #000000; stroke-width: 0.8"/>
      </defs>
      <g>
       <use xlink:href="#mca3c512966" x="37.275781" y="184.771382" style="stroke: #000000; stroke-width: 0.8"/>
      </g>
     </g>
     <g id="text_8">
      <text style="font-size: 6.5px; font-family: 'SimHei', 'Microsoft YaHei', sans-serif; text-anchor: end" x="30.275781" y="187.005757" transform="rotate(-0 30.275781 187.005757)">22250</text>
     </g>
    </g>
    <g id="ytick_2">
     <g id="line2d_15">
      <path d="M 37.275781 162.264717 
L 316.275781 162.264717 
" clip-path="url(#pfb9a7db2d4)" style="fill: none; stroke-dasharray: 1.11,0.48; stroke-dashoffset: 0; stroke: #b0b0b0; stroke-opacity: 0.3; stroke-width: 0.3"/>
     </g>
     <g id="line2d_16">
      <g>
       <use xlink:href="#mca3c512966" x="37.275781" y="162.264717" style="stroke: #000000; stroke-width: 0.8"/>
      </g>
     </g>
     <g id="text_9">
      <text style="font-size: 6.5px; font-family: 'SimHei', 'Microsoft YaHei', sans-serif; text-anchor: end" x="30.275781" y="164.499092" transform="rotate(-0 30.275781 164.499092)">22500</text>
     </g>
    </g>
    <g id="ytick_3">
     <g id="line2d_17">
      <path d="M 37.275781 139.758052 
L 316.275781 139.758052 
" clip-path="url(#pfb9a7db2d4)" style="fill: none; stroke-dasharray: 1.11,0.48; stroke-dashoffset: 0; stroke: #b0b0b0; stroke-opacity: 0.3; stroke-width: 0.3"/>
     </g>
     <g id="line2d_18">
      <g>
       <use xlink:href="#mca3c512966" x="37.275781" y="139.758052" style="stroke: #000000; stroke-width: 0.8"/>
      </g>
     </g>
     <g id="text_10">
      <text style="font-size: 6.5px; font-family: 'SimHei', 'Microsoft YaHei', sans-serif; text-anchor: end" x="30.275781" y="141.992427" transform="rotate(-0 30.275781 141.992427)">22750</text>
     </g>
    </g>
    <g id="ytick_4">
     <g id="line2d_19">
      <path d="M 37.275781 117.251387 
L 316.275781 117.251387 
" clip-path="url(#pfb9a7db2d4)" style="fill: none; stroke-dasharray: 1.11,0.48; stroke-dashoffset: 0; stroke: #b0b0b0; stroke-opacity: 0.3; stroke-width: 0.3"/>
     </g>
     <g id="line2d_20">
      <g>
       <use xlink:href="#mca3c512966" x="37.275781" y="117.251387" style="stroke: #000000; stroke-width: 0.8"/>
      </g>
     </g>
     <g id="text_11">
      <text style="font-size: 6.5px; font-family: 'SimHei', 'Microsoft YaHei', sans-serif; text-anchor: end" x="30.275781" y="119.485762" transform="rotate(-0 30.275781 119.485762)">23000</text>
     </g>
    </g>
    <g id="ytick_5">
     <g id="line2d_21">
      <path d="M 37.275781 94.744722 
L 316.275781 94.744722 
" clip-path="url(#pfb9a7db2d4)" style="fill: none; stroke-dasharray: 1.11,0.48; stroke-dashoffset: 0; stroke: #b0b0b0; stroke-opacity: 0.3; stroke-width: 0.3"/>
     </g>
     <g id="line2d_22">
      <g>
       <use xlink:href="#mca3c512966" x="37.275781" y="94.744722" style="stroke: #000000; stroke-width: 0.8"/>
      </g>
     </g>
     <g id="text_12">
      <text style="font-size: 6.5px; font-family: 'SimHei', 'Microsoft YaHei', sans-serif; text-anchor: end" x="30.275781" y="96.979097" transform="rotate(-0 30.275781 96.979097)">23250</text>
     </g>
    </g>
    <g id="ytick_6">
     <g id="line2d_23">
      <path d="M 37.275781 72.238057 
L 316.275781 72.238057 
" clip-path="url(#pfb9a7db2d4)" style="fill: none; stroke-dasharray: 1.11,0.48; stroke-dashoffset: 0; stroke: #b0b0b0; stroke-opacity: 0.3; stroke-width: 0.3"/>
     </g>
     <g id="line2d_24">
      <g>
       <use xlink:href="#mca3c512966" x="37.275781" y="72.238057" style="stroke: #000000; stroke-width: 0.8"/>
      </g>
     </g>
     <g id="text_13">
      <text style="font-size: 6.5px; font-family: 'SimHei', 'Microsoft YaHei', sans-serif; text-anchor: end" x="30.275781" y="74.472432" transform="rotate(-0 30.275781 74.472432)">23500</text>
     </g>
    </g>
    <g id="ytick_7">
     <g id="line2d_25">
      <path d="M 37.275781 49.731392 
L 316.275781 49.731392 
" clip-path="url(#pfb9a7db2d4)" style="fill: none; stroke-dasharray: 1.11,0.48; stroke-dashoffset: 0; stroke: #b0b0b0; stroke-opacity: 0.3; stroke-width: 0.3"/>
     </g>
     <g id="line2d_26">
      <g>
       <use xlink:href="#mca3c512966" x="37.275781" y="49.731392" style="stroke: #000000; stroke-width: 0.8"/>
      </g>
     </g>
     <g id="text_14">
      <text style="font-size: 6.5px; font-family: 'SimHei', 'Microsoft YaHei', sans-serif; text-anchor: end" x="30.275781" y="51.965767" transform="rotate(-0 30.275781 51.965767)">23750</text>
     </g>
    </g>
    <g id="ytick_8">
     <g id="line2d_27">
      <path d="M 37.275781 27.224727 
L 316.275781 27.224727 
" clip-path="url(#pfb9a7db2d4)" style="fill: none; stroke-dasharray: 1.11,0.48; stroke-dashoffset: 0; stroke: #b0b0b0; stroke-opacity: 0.3; stroke-width: 0.3"/>
     </g>
     <g id="line2d_28">
      <g>
       <use xlink:href="#mca3c512966" x="37.275781" y="27.224727" style="stroke: #000000; stroke-width: 0.8"/>
      </g>
     </g>
     <g id="text_15">
      <text style="font-size: 6.5px; font-family: 'SimHei', 'Microsoft YaHei', sans-serif; text-anchor: end" x="30.275781" y="29.459102" transform="rotate(-0 30.275781 29.459102)">24000</text>
     </g>
    </g>
    <g id="text_16">
     <text style="font-size: 7px; font-family: 'SimHei', 'Microsoft YaHei', sans-serif; text-anchor: middle" x="9.150781" y="104.456344" transform="rotate(-90 9.150781 104.456344)">累计平均营收(元)</text>
    </g>
   </g>
   <g id="line2d_29">
    <path d="M 49.957599 23.816344 
L 50.21149 47.883257 
L 50.46538 28.417612 
L 50.71927 97.604531 
L 51.480941 140.678351 
L 51.734831 171.420283 
L 51.988721 155.955674 
L 52.242612 156.898293 
L 52.496502 149.75758 
L 53.004282 146.926489 
L 53.258173 140.874821 
L 53.512063 160.374742 
L 53.765953 159.62587 
L 54.019843 156.106823 
L 54.273734 154.484086 
L 54.527624 157.884123 
L 54.781514 153.843129 
L 55.035405 170.360629 
L 55.289295 167.127208 
L 56.050966 184.144711 
L 56.304856 166.595619 
L 56.558746 163.458014 
L 57.066527 176.259052 
L 57.320417 173.22769 
L 57.574307 171.958997 
L 57.828197 165.012064 
L 58.082088 166.006793 
L 58.843758 172.399664 
L 59.097649 178.528899 
L 59.351539 178.243571 
L 59.605429 172.742352 
L 59.859319 174.880963 
L 60.11321 170.282817 
L 60.3671 173.79138 
L 60.62099 175.267942 
L 61.128771 180.057124 
L 61.382661 177.145518 
L 61.636551 179.651992 
L 61.890441 180.738539 
L 62.144332 182.637604 
L 62.652112 180.589822 
L 63.159893 184.262417 
L 63.413783 175.370923 
L 63.921563 168.575507 
L 64.175454 172.252447 
L 64.429344 173.630684 
L 64.683234 168.248822 
L 64.937124 167.637416 
L 65.191015 170.416539 
L 65.444905 175.263172 
L 66.206576 180.44717 
L 66.714356 179.662102 
L 66.968246 184.102976 
L 67.222137 184.275963 
L 67.476027 183.099745 
L 67.729917 182.754533 
L 67.983807 183.348815 
L 68.491588 185.096344 
L 68.745478 180.672914 
L 68.999368 180.645824 
L 69.253259 182.467704 
L 69.507149 182.440662 
L 69.761039 182.657263 
L 70.014929 181.804199 
L 70.26882 181.994697 
L 70.7766 175.706803 
L 71.030491 177.234794 
L 71.538271 172.025311 
L 71.792161 170.265982 
L 72.046052 165.995489 
L 72.299942 163.649589 
L 72.807722 163.323306 
L 73.061613 162.739417 
L 73.315503 162.867577 
L 73.569393 162.694703 
L 73.823283 163.804401 
L 74.077174 165.492148 
L 74.331064 165.691977 
L 74.584954 167.046818 
L 74.838844 166.983356 
L 75.346625 165.475949 
L 75.600515 166.816619 
L 75.854405 165.062054 
L 76.362186 167.844129 
L 76.616076 168.474474 
L 77.123857 164.637403 
L 77.377747 163.151299 
L 77.631637 164.299567 
L 77.885527 162.967132 
L 78.139418 160.901123 
L 78.393308 160.613481 
L 78.647198 160.88117 
L 78.901088 161.380319 
L 79.154979 161.34489 
L 79.408869 159.969731 
L 79.662759 156.147902 
L 79.916649 156.78154 
L 80.17054 156.699955 
L 80.42443 157.697924 
L 80.67832 157.631453 
L 80.93221 160.184613 
L 81.186101 160.137953 
L 81.439991 159.410708 
L 81.693881 159.07218 
L 81.947771 157.534358 
L 82.201662 158.420407 
L 82.455552 160.479446 
L 82.709442 161.193214 
L 82.963332 162.81255 
L 83.217223 162.880611 
L 83.978893 165.709459 
L 84.740564 158.281186 
L 85.248345 161.19589 
L 85.502235 162.172242 
L 85.756125 162.652769 
L 86.010015 163.775168 
L 86.263906 163.146176 
L 86.517796 163.771426 
L 86.771686 164.06043 
L 87.279467 163.917209 
L 87.533357 163.251213 
L 87.787247 162.241309 
L 88.295028 165.439897 
L 88.548918 166.11672 
L 88.802808 166.441816 
L 89.056699 164.925497 
L 89.310589 165.982094 
L 89.564479 164.55632 
L 89.818369 164.03092 
L 90.32615 165.543786 
L 90.58004 165.584454 
L 90.83393 164.55174 
L 91.087821 164.392061 
L 91.341711 164.654686 
L 91.595601 165.425127 
L 91.849491 165.257762 
L 93.626723 159.349389 
L 93.880613 159.683133 
L 94.134504 158.284085 
L 94.388394 158.326758 
L 94.642284 158.939016 
L 94.896174 160.15285 
L 95.403955 160.944405 
L 95.657845 160.338351 
L 95.911735 161.622241 
L 96.165626 162.332433 
L 96.419516 163.96331 
L 96.673406 164.442379 
L 96.927296 164.461105 
L 97.181187 165.255195 
L 97.435077 164.458491 
L 97.942857 166.063464 
L 98.450638 166.602352 
L 98.704528 167.541953 
L 99.212309 166.162754 
L 99.466199 166.103726 
L 99.720089 166.915183 
L 100.22787 167.021107 
L 100.48176 165.578616 
L 100.73565 165.8979 
L 101.243431 165.066994 
L 101.751211 167.699032 
L 102.005101 168.640521 
L 102.258992 167.873254 
L 102.766772 168.375007 
L 103.274553 169.777181 
L 103.528443 170.377029 
L 104.036224 169.579094 
L 104.290114 169.89785 
L 104.544004 170.011404 
L 105.051785 169.283683 
L 105.305675 169.608538 
L 105.559565 168.875885 
L 105.813455 170.192265 
L 106.575126 170.849955 
L 106.829016 170.486389 
L 107.082907 171.337473 
L 107.590687 168.114982 
L 107.844577 167.169043 
L 108.098468 167.234874 
L 108.352358 168.018098 
L 109.114029 169.142942 
L 109.367919 168.339108 
L 109.621809 168.341122 
L 110.12959 167.887825 
L 110.63737 166.525666 
L 110.89126 165.829412 
L 111.399041 165.416094 
L 111.906821 163.914443 
L 112.160712 164.451876 
L 112.414602 163.476017 
L 112.668492 163.94769 
L 112.922382 164.940945 
L 113.176273 165.391691 
L 113.430163 166.185183 
L 113.684053 165.284666 
L 113.937943 165.026433 
L 114.445724 165.425852 
L 114.699614 165.812928 
L 114.953504 165.753859 
L 115.207395 166.140632 
L 115.715175 167.904697 
L 115.969065 167.641027 
L 116.476846 169.259968 
L 116.730736 168.903134 
L 116.984626 168.874457 
L 117.238517 169.747898 
L 117.492407 168.173739 
L 117.746297 167.763807 
L 118.000187 168.092438 
L 118.254078 168.829855 
L 118.507968 168.489705 
L 118.761858 168.619648 
L 119.015748 169.189214 
L 119.269639 168.346759 
L 119.523529 168.034693 
L 120.2852 167.849941 
L 120.53909 167.358018 
L 121.046871 168.591089 
L 121.300761 168.21183 
L 121.554651 168.187137 
L 121.808541 167.867447 
L 122.062432 168.199626 
L 122.316322 169.287058 
L 122.570212 169.172251 
L 122.824102 169.426537 
L 123.077993 169.424535 
L 123.585773 169.72702 
L 123.839663 168.865927 
L 124.093554 169.542153 
L 124.601334 169.944025 
L 124.855224 169.565193 
L 125.363005 170.99708 
L 125.616895 170.930121 
L 125.870785 169.27951 
L 126.124676 168.364244 
L 126.378566 168.508931 
L 126.632456 168.033133 
L 126.886346 167.798897 
L 127.140237 167.314737 
L 127.394127 167.446101 
L 127.648017 166.814213 
L 128.155798 167.200623 
L 128.663578 166.847325 
L 129.171359 168.255737 
L 129.425249 168.85564 
L 129.679139 168.605323 
L 129.933029 168.688253 
L 130.18692 168.408373 
L 130.44081 168.455199 
L 130.6947 168.617624 
L 130.94859 168.443839 
L 131.202481 167.997667 
L 131.456371 168.443873 
L 131.710261 168.538355 
L 131.964151 168.380456 
L 132.725822 170.126216 
L 132.979712 170.606802 
L 133.233603 170.228142 
L 133.487493 170.681797 
L 133.741383 170.050938 
L 133.995273 169.739843 
L 134.249164 169.987872 
L 134.503054 169.230613 
L 134.756944 169.160388 
L 135.010834 169.632419 
L 135.264725 169.515306 
L 135.518615 169.552405 
L 136.026396 168.696927 
L 136.280286 168.964843 
L 136.534176 168.856532 
L 136.788066 169.095377 
L 137.041957 168.048956 
L 137.295847 168.535017 
L 137.549737 169.563877 
L 137.803627 168.290853 
L 138.311408 168.382047 
L 138.565298 168.576914 
L 138.819188 168.526765 
L 139.326969 167.23725 
L 139.580859 167.184442 
L 139.834749 167.885223 
L 140.08864 167.46435 
L 140.34253 167.587826 
L 140.59642 167.377798 
L 140.85031 167.817205 
L 141.104201 168.016891 
L 141.358091 168.849709 
L 141.611981 168.92468 
L 141.865871 168.579896 
L 142.119762 168.587325 
L 142.373652 168.228472 
L 142.627542 168.544152 
L 142.881432 168.090949 
L 143.135323 168.529698 
L 143.643103 167.897757 
L 143.896993 167.405678 
L 144.150884 167.774013 
L 144.404774 167.743703 
L 144.912554 167.970932 
L 145.674225 167.86538 
L 145.928115 168.667141 
L 146.182006 168.913004 
L 146.689786 168.905539 
L 146.943676 169.630835 
L 147.197567 169.201989 
L 147.451457 169.3508 
L 147.705347 169.098646 
L 147.959237 169.306655 
L 148.213128 168.882785 
L 148.467018 169.402736 
L 148.720908 169.364369 
L 148.974798 169.604147 
L 149.228689 170.148126 
L 149.482579 169.725929 
L 149.990359 170.254401 
L 150.24425 169.427738 
L 150.49814 169.575474 
L 150.75203 170.098753 
L 151.00592 170.269711 
L 151.259811 169.785242 
L 151.513701 169.926999 
L 151.767591 169.34219 
L 152.021481 169.37025 
L 152.275372 168.99649 
L 152.529262 168.393391 
L 153.037043 168.226663 
L 153.290933 167.333416 
L 153.544823 168.08297 
L 153.798713 168.13337 
L 154.052604 167.632479 
L 154.560384 168.368838 
L 154.814274 168.009253 
L 155.068165 167.879 
L 155.322055 167.580539 
L 155.829835 167.371212 
L 156.083726 167.698045 
L 156.337616 167.442714 
L 156.591506 167.705677 
L 156.845396 167.046841 
L 157.099287 167.628934 
L 157.353177 167.617436 
L 157.607067 167.329311 
L 157.860957 167.356508 
L 158.114848 167.924643 
L 158.368738 167.492684 
L 158.622628 167.940829 
L 158.876518 167.855657 
L 159.130409 167.9594 
L 159.384299 168.582769 
L 159.638189 168.311077 
L 159.892079 168.656765 
L 160.14597 168.366072 
L 160.39986 168.37397 
L 161.161531 168.862108 
L 161.415421 168.408467 
L 161.923201 168.670866 
L 162.177092 169.08044 
L 162.430982 169.11499 
L 162.684872 169.343676 
L 162.938762 169.243491 
L 163.192653 169.599215 
L 163.446543 169.760468 
L 163.700433 169.701267 
L 163.954323 169.446936 
L 164.208214 169.724441 
L 164.715994 168.838578 
L 164.969884 168.707993 
L 165.223775 168.155715 
L 165.477665 168.680157 
L 165.731555 167.700745 
L 166.239336 166.902856 
L 166.493226 167.281249 
L 167.508787 166.687692 
L 167.762677 166.810468 
L 168.270458 166.099527 
L 169.032129 164.470601 
L 169.793799 165.298767 
L 170.04769 164.894925 
L 170.55547 164.483153 
L 170.80936 165.207801 
L 171.063251 165.28612 
L 171.571031 165.945397 
L 171.824921 165.9102 
L 172.332702 165.23821 
L 172.586592 165.385809 
L 172.840482 165.041736 
L 173.094373 165.138291 
L 173.348263 165.727918 
L 173.602153 165.673929 
L 174.871604 164.645596 
L 175.125495 164.790543 
L 175.379385 164.367702 
L 175.633275 164.31583 
L 175.887165 164.792548 
L 176.141056 164.68512 
L 176.394946 165.383016 
L 176.648836 165.238912 
L 176.902726 165.399367 
L 177.410507 164.467924 
L 178.679958 164.454994 
L 178.933848 165.034569 
L 179.187739 165.118229 
L 179.441629 165.323785 
L 179.695519 165.154145 
L 179.949409 165.209866 
L 180.2033 164.985359 
L 180.71108 164.865728 
L 180.96497 165.162081 
L 181.472751 164.456556 
L 181.726641 163.37472 
L 181.980531 163.497794 
L 182.234422 163.229675 
L 182.488312 163.275169 
L 182.742202 163.534166 
L 183.757763 162.961201 
L 184.265544 163.144106 
L 184.773324 161.870365 
L 185.027215 162.266402 
L 185.281105 162.410715 
L 185.534995 162.197787 
L 186.550556 162.163696 
L 186.804446 162.695191 
L 187.312227 162.385334 
L 187.566117 162.68246 
L 188.073898 162.370281 
L 188.327788 162.475546 
L 188.835568 161.781952 
L 189.089459 161.756656 
L 189.597239 162.284125 
L 189.851129 162.427404 
L 190.35891 162.218216 
L 191.120581 160.815544 
L 191.374471 161.34252 
L 191.628361 161.347091 
L 192.136142 161.710332 
L 192.390032 161.667299 
L 192.643922 161.885893 
L 192.897812 161.956646 
L 193.151703 161.63302 
L 193.405593 161.827907 
L 194.167264 161.485482 
L 194.421154 162.127282 
L 194.928934 162.164707 
L 195.182825 162.006278 
L 195.436715 161.329082 
L 195.690605 161.046257 
L 195.944495 160.956983 
L 196.198386 161.293234 
L 196.452276 160.781048 
L 197.213947 160.857178 
L 197.467837 160.536424 
L 197.721727 160.816106 
L 197.975617 160.666303 
L 198.229508 161.022608 
L 198.991178 160.987866 
L 199.498959 161.173639 
L 199.752849 161.188142 
L 200.26063 160.751108 
L 200.51452 160.865053 
L 200.76841 161.109655 
L 201.0223 160.815482 
L 201.276191 160.756548 
L 201.530081 161.053901 
L 202.037862 160.800419 
L 202.291752 161.316109 
L 202.545642 160.790317 
L 202.799532 160.893871 
L 203.053423 160.843145 
L 203.307313 160.93845 
L 203.561203 160.780713 
L 204.068984 160.830188 
L 204.322874 161.094056 
L 204.830654 160.4597 
L 205.084545 160.476951 
L 205.338435 160.797895 
L 205.592325 160.720629 
L 205.846215 160.395202 
L 206.100106 160.562757 
L 206.353996 161.012708 
L 206.861776 161.090895 
L 207.369557 160.535324 
L 208.131228 161.148273 
L 208.385118 160.973949 
L 208.892898 161.108473 
L 209.654569 160.224646 
L 209.908459 160.403674 
L 210.16235 160.370295 
L 210.92402 160.608708 
L 211.177911 160.904343 
L 211.431801 160.864046 
L 211.685691 161.221993 
L 211.939581 161.192777 
L 212.193472 161.28224 
L 212.701252 161.680851 
L 212.955142 161.354072 
L 213.209033 161.801202 
L 213.462923 161.208945 
L 213.716813 161.389609 
L 213.970703 160.965538 
L 214.478484 160.775924 
L 214.986264 161.223898 
L 215.240155 161.100495 
L 215.494045 161.424095 
L 216.001825 161.727663 
L 216.255716 161.885149 
L 216.509606 161.490667 
L 216.763496 161.662494 
L 217.017386 161.66137 
L 217.271277 161.928024 
L 217.525167 161.857656 
L 218.032948 161.265108 
L 218.286838 161.795187 
L 218.540728 162.055164 
L 218.794618 161.983678 
L 219.048509 162.199918 
L 219.302399 161.914875 
L 219.556289 162.320919 
L 219.810179 161.916537 
L 220.06407 162.304523 
L 220.31796 162.429058 
L 220.57185 162.27304 
L 220.82574 162.450803 
L 221.079631 162.409229 
L 221.333521 162.760172 
L 222.349082 163.048209 
L 222.602972 162.650936 
L 222.856862 162.673719 
L 223.110753 162.941497 
L 223.364643 162.991559 
L 223.872423 162.872195 
L 224.126314 162.527819 
L 224.634094 162.84892 
L 224.887984 162.922136 
L 225.141875 163.242517 
L 225.395765 162.929222 
L 225.649655 162.848694 
L 225.903545 162.288821 
L 226.919106 162.348039 
L 227.172997 161.83873 
L 227.426887 161.990579 
L 227.680777 161.677641 
L 227.934667 161.746153 
L 228.188558 162.166418 
L 228.696338 161.844682 
L 228.950228 161.854414 
L 229.204119 161.725749 
L 229.458009 162.071557 
L 229.711899 161.727795 
L 229.965789 161.69439 
L 230.47357 161.994145 
L 230.72746 161.631885 
L 230.98135 161.819795 
L 231.489131 161.556092 
L 232.250802 160.77944 
L 232.504692 160.781192 
L 233.266363 161.498261 
L 233.520253 161.562615 
L 234.028034 161.076117 
L 234.281924 161.165916 
L 235.551375 160.885779 
L 235.805265 160.628039 
L 236.820826 160.30605 
L 237.074717 160.511137 
L 237.328607 160.189974 
L 237.582497 160.333327 
L 238.090278 160.042809 
L 238.344168 160.236747 
L 238.598058 160.616355 
L 239.359729 160.707879 
L 239.613619 161.203283 
L 240.1214 161.305221 
L 240.37529 161.221084 
L 240.62918 161.305095 
L 240.88307 161.266201 
L 241.136961 161.557713 
L 241.390851 161.221756 
L 241.644741 161.485431 
L 241.898631 161.390846 
L 242.152522 161.418334 
L 242.406412 161.323896 
L 242.660302 160.983171 
L 242.914192 161.003222 
L 243.421973 161.29043 
L 243.675863 161.091476 
L 243.929753 161.152652 
L 244.437534 160.976256 
L 244.691424 160.543043 
L 244.945314 161.010138 
L 245.199205 160.828398 
L 245.706985 161.109179 
L 245.960875 160.677507 
L 246.468656 160.725465 
L 246.976436 160.416017 
L 247.230327 160.316178 
L 247.991997 161.029946 
L 249.007558 160.952911 
L 249.261449 160.673703 
L 249.769229 160.623558 
L 250.023119 160.70592 
L 250.27701 160.41501 
L 250.5309 160.988203 
L 251.292571 160.782491 
L 251.800351 160.940326 
L 252.054242 160.645898 
L 252.308132 160.965591 
L 252.562022 160.948761 
L 252.815912 160.803526 
L 253.577583 160.831988 
L 254.085364 161.123888 
L 254.593144 160.975808 
L 254.847034 160.867622 
L 255.100925 160.959261 
L 255.354815 160.838581 
L 255.608705 161.244067 
L 255.862595 161.356483 
L 256.370376 160.956227 
L 257.132047 161.171585 
L 257.385937 160.973952 
L 257.639827 160.922197 
L 258.147608 161.521932 
L 258.401498 161.624454 
L 258.655388 161.511021 
L 258.909278 161.707285 
L 259.163169 161.253053 
L 259.417059 161.259693 
L 259.670949 161.622379 
L 260.17873 161.511523 
L 260.68651 161.993476 
L 260.9404 161.822529 
L 261.194291 161.824039 
L 261.448181 162.026332 
L 261.702071 162.456634 
L 261.955961 162.343763 
L 262.209852 162.607609 
L 262.463742 162.250502 
L 262.971522 162.083562 
L 263.225413 162.139253 
L 264.240974 162.006307 
L 264.494864 161.534323 
L 264.748754 161.591385 
L 265.510425 160.857491 
L 266.018205 161.190564 
L 266.272096 161.167298 
L 266.525986 161.396764 
L 266.779876 161.180467 
L 267.033767 160.679664 
L 267.287657 160.857927 
L 267.541547 160.497996 
L 267.795437 160.528208 
L 268.049328 160.715414 
L 268.303218 160.388852 
L 268.810998 160.186648 
L 269.064889 160.283533 
L 269.318779 159.999181 
L 269.572669 160.069929 
L 270.33434 159.727228 
L 270.58823 159.976747 
L 271.096011 160.10995 
L 271.349901 160.298356 
L 271.603791 160.26931 
L 272.111572 160.563586 
L 272.365462 160.797264 
L 272.619352 160.679915 
L 272.873242 160.838442 
L 273.127133 160.80623 
L 273.381023 160.989886 
L 273.888803 160.565587 
L 274.142694 160.846767 
L 274.650474 160.950532 
L 275.412145 161.397649 
L 276.173816 161.022864 
L 276.681596 160.992788 
L 276.935486 161.185631 
L 277.951047 160.739754 
L 278.204938 160.862246 
L 278.458828 161.229175 
L 278.966608 160.99888 
L 279.220499 161.27196 
L 279.474389 161.098518 
L 280.23606 161.299661 
L 280.48995 161.015988 
L 280.99773 161.328843 
L 281.251621 161.147675 
L 281.505511 161.272438 
L 281.759401 161.08352 
L 282.013291 160.74987 
L 282.521072 160.89836 
L 282.774962 161.062757 
L 283.028853 161.075388 
L 283.282743 160.919857 
L 283.536633 161.094101 
L 283.790523 161.007883 
L 284.044414 161.082149 
L 284.806084 161.004416 
L 285.567755 161.320173 
L 285.821645 161.225131 
L 286.329426 161.291995 
L 286.583316 161.618097 
L 286.837206 161.636006 
L 287.091097 161.908029 
L 288.106658 161.863962 
L 288.360548 162.044358 
L 288.614438 161.684485 
L 289.122219 161.717331 
L 289.376109 161.966662 
L 290.13778 161.283986 
L 290.39167 161.47887 
L 290.89945 161.407587 
L 291.661121 161.174159 
L 292.168902 161.31219 
L 292.676682 161.064366 
L 292.930572 161.232633 
L 293.438353 161.093888 
L 293.692243 161.395979 
L 293.946133 161.265814 
L 294.453914 161.378014 
L 294.707804 161.722155 
L 294.961694 161.55757 
L 295.469475 161.826101 
L 295.723365 161.80392 
L 296.485036 162.274958 
L 296.738926 162.423182 
L 297.246707 162.282764 
L 297.500597 162.117958 
L 297.754487 162.283143 
L 298.008377 162.042533 
L 298.262268 162.346506 
L 299.023938 162.086286 
L 299.277829 162.225844 
L 299.785609 161.706752 
L 300.0395 161.625127 
L 301.055061 161.9061 
L 301.308951 162.14547 
L 301.816731 162.139247 
L 302.324512 162.238975 
L 302.832292 161.879808 
L 303.086183 161.790984 
L 303.593963 161.750946 
L 303.593963 161.750946 
" clip-path="url(#pfb9a7db2d4)" style="fill: none; stroke: #0f4d92; stroke-opacity: 0.9; stroke-width: 0.8; stroke-linecap: square"/>
   </g>
   <g id="line2d_30">
    <path d="M 37.275781 161.750946 
L 316.275781 161.750946 
" clip-path="url(#pfb9a7db2d4)" style="fill: none; stroke-dasharray: 2.22,0.96; stroke-dashoffset: 0; stroke: #767676; stroke-width: 0.6"/>
   </g>
   <g id="patch_3">
    <path d="M 37.275781 193.160344 
L 37.275781 15.752344 
" style="fill: none; stroke: #000000; stroke-width: 0.8; stroke-linejoin: miter; stroke-linecap: square"/>
   </g>
   <g id="patch_4">
    <path d="M 37.275781 193.160344 
L 316.275781 193.160344 
" style="fill: none; stroke: #000000; stroke-width: 0.8; stroke-linejoin: miter; stroke-linecap: square"/>
   </g>
   <g id="text_17">
    <text style="font-weight: 700; font-size: 7.5px; font-family: 'SimHei', 'Microsoft YaHei', sans-serif; text-anchor: middle" x="176.775781" y="9.752344" transform="rotate(-0 176.775781 9.752344)">蒙特卡洛收敛曲线</text>
   </g>
   <g id="legend_1">
    <g id="line2d_31">
     <path d="M 255.075781 23.763281 
L 261.075781 23.763281 
L 267.075781 23.763281 
" style="fill: none; stroke-dasharray: 2.22,0.96; stroke-dashoffset: 0; stroke: #767676; stroke-width: 0.6"/>
    </g>
    <g id="text_18">
     <text style="font-size: 6px; font-family: 'SimHei', 'Microsoft YaHei', sans-serif; text-anchor: start" x="271.875781" y="25.863281" transform="rotate(-0 271.875781 25.863281)">最终: 22506元</text>
    </g>
   </g>
  </g>
 </g>
 <defs>
  <clipPath id="pfb9a7db2d4">
   <rect x="37.275781" y="15.752344" width="279" height="177.408"/>
  </clipPath>
 </defs>
</svg>
