<?xml version="1.0" encoding="utf-8" standalone="no"?>
<!DOCTYPE svg PUBLIC "-//W3C//DTD SVG 1.1//EN"
  "http://www.w3.org/Graphics/SVG/1.1/DTD/svg11.dtd">
<svg xmlns:xlink="http://www.w3.org/1999/xlink" width="313.485156pt" height="252.815359pt" viewBox="0 0 313.485156 252.815359" xmlns="http://www.w3.org/2000/svg" version="1.1">
 <metadata>
  <rdf:RDF xmlns:dc="http://purl.org/dc/elements/1.1/" xmlns:cc="http://creativecommons.org/ns#" xmlns:rdf="http://www.w3.org/1999/02/22-rdf-syntax-ns#">
   <cc:Work>
    <dc:type rdf:resource="http://purl.org/dc/dcmitype/StillImage"/>
    <dc:date>2026-05-21T19:11:30.700750</dc:date>
    <dc:format>image/svg+xml</dc:format>
    <dc:creator>
     <cc:Agent>
      <dc:title>Matplotlib v3.10.0, https://matplotlib.org/</dc:title>
     </cc:Agent>
    </dc:creator>
   </cc:Work>
  </rdf:RDF>
 </metadata>
 <defs>
  <style type="text/css">*{stroke-linejoin: round; stroke-linecap: butt}</style>
 </defs>
 <g id="figure_1">
  <g id="patch_1">
   <path d="M 0 252.815359 
L 313.485156 252.815359 
L 313.485156 0 
L 0 0 
z
" style="fill: #ffffff"/>
  </g>
  <g id="axes_1">
   <g id="patch_2">
    <path d="M 30.885156 226.453641 
L 309.885156 226.453641 
L 309.885156 15.781641 
L 30.885156 15.781641 
z
" style="fill: #ffffff"/>
   </g>
   <g id="FillBetweenPolyCollection_1">
    <path d="M 30.885156 25.813641 
L 30.885156 25.813641 
L 35.177464 25.813641 
L 35.177464 145.843477 
L 39.469772 145.843477 
L 39.469772 162.508782 
L 43.762079 162.508782 
L 43.762079 169.115028 
L 48.054387 169.115028 
L 48.054387 174.519075 
L 52.346695 174.519075 
L 52.346695 179.024525 
L 56.639002 179.024525 
L 56.639002 181.760097 
L 60.93131 181.760097 
L 60.93131 184.003022 
L 65.223618 184.003022 
L 65.223618 185.463683 
L 69.515925 185.463683 
L 69.515925 188.379713 
L 73.808233 188.379713 
L 73.808233 190.130205 
L 78.100541 190.130205 
L 78.100541 192.077005 
L 82.392849 192.077005 
L 82.392849 193.928159 
L 86.685156 193.928159 
L 86.685156 195.775628 
L 90.977464 195.775628 
L 90.977464 197.037435 
L 95.269772 197.037435 
L 95.269772 198.394145 
L 99.562079 198.394145 
L 99.562079 201.109646 
L 103.854387 201.109646 
L 103.854387 202.270213 
L 108.146695 202.270213 
L 108.146695 204.014035 
L 112.439002 204.014035 
L 112.439002 205.670385 
L 116.73131 205.670385 
L 116.73131 206.354096 
L 121.023618 206.354096 
L 121.023618 208.107788 
L 125.315925 208.107788 
L 125.315925 208.787944 
L 129.608233 208.787944 
L 129.608233 209.563915 
L 133.900541 209.563915 
L 133.900541 210.342809 
L 138.192849 210.342809 
L 138.192849 210.634477 
L 142.485156 210.634477 
L 142.485156 211.805867 
L 146.777464 211.805867 
L 146.777464 212.491774 
L 151.069772 212.491774 
L 151.069772 213.185766 
L 155.362079 213.185766 
L 155.362079 213.48266 
L 159.654387 213.48266 
L 159.654387 213.48266 
L 163.946695 213.48266 
L 163.946695 213.48266 
L 168.239002 213.48266 
L 168.239002 213.48266 
L 172.53131 213.48266 
L 172.53131 213.48266 
L 176.823618 213.48266 
L 176.823618 213.48266 
L 181.115925 213.48266 
L 181.115925 213.48266 
L 185.408233 213.48266 
L 185.408233 213.48266 
L 193.992849 213.48266 
L 193.992849 213.48266 
L 198.285156 213.48266 
L 198.285156 213.48266 
L 202.577464 213.48266 
L 202.577464 213.48266 
L 206.869772 213.48266 
L 206.869772 213.48266 
L 211.162079 213.48266 
L 211.162079 213.48266 
L 215.454387 213.48266 
L 215.454387 213.48266 
L 219.746695 213.48266 
L 219.746695 213.48266 
L 224.039002 213.48266 
L 224.039002 213.48266 
L 228.33131 213.48266 
L 228.33131 213.48266 
L 232.623618 213.48266 
L 232.623618 213.48266 
L 236.915925 213.48266 
L 236.915925 213.48266 
L 241.208233 213.48266 
L 241.208233 213.48266 
L 245.500541 213.48266 
L 245.500541 213.48266 
L 254.085156 213.48266 
L 254.085156 213.48266 
L 258.377464 213.48266 
L 258.377464 213.48266 
L 262.669772 213.48266 
L 262.669772 213.48266 
L 266.962079 213.48266 
L 266.962079 213.48266 
L 271.254387 213.48266 
L 271.254387 213.48266 
L 275.546695 213.48266 
L 275.546695 213.48266 
L 279.839002 213.48266 
L 279.839002 213.48266 
L 284.13131 213.48266 
L 284.13131 213.48266 
L 288.423618 213.48266 
L 288.423618 213.48266 
L 292.715925 213.48266 
L 292.715925 213.48266 
L 297.008233 213.48266 
L 297.008233 213.48266 
L 301.300541 213.48266 
L 301.300541 213.48266 
L 305.592849 213.48266 
L 305.592849 213.48266 
L 309.885156 213.48266 
L 309.885156 213.48266 
L 314.177464 213.48266 
L 314.177464 213.48266 
L 318.469772 213.48266 
L 318.469772 213.48266 
L 322.762079 213.48266 
L 322.762079 213.48266 
L 331.346695 213.48266 
L 331.346695 213.48266 
L 339.93131 213.48266 
L 339.93131 213.48266 
L 352.808233 213.48266 
L 352.808233 213.48266 
L 361.392849 213.48266 
L 361.392849 213.48266 
L 369.977464 213.48266 
L 369.977464 213.48266 
L 374.269772 213.48266 
L 374.269772 213.48266 
L 378.562079 213.48266 
L 378.562079 213.48266 
L 382.854387 213.48266 
L 382.854387 213.48266 
L 387.146695 213.48266 
L 387.146695 213.48266 
L 408.608233 213.48266 
L 408.608233 213.48266 
L 412.900541 213.48266 
L 412.900541 213.48266 
L 417.192849 213.48266 
L 417.192849 213.48266 
L 417.192849 208.783703 
L 417.192849 208.783703 
L 417.192849 208.783703 
L 412.900541 208.783703 
L 412.900541 208.783703 
L 408.608233 208.783703 
L 408.608233 208.783703 
L 387.146695 208.783703 
L 387.146695 208.783703 
L 382.854387 208.783703 
L 382.854387 208.783703 
L 378.562079 208.783703 
L 378.562079 208.783703 
L 374.269772 208.783703 
L 374.269772 208.783703 
L 369.977464 208.783703 
L 369.977464 208.783703 
L 361.392849 208.783703 
L 361.392849 208.783703 
L 352.808233 208.783703 
L 352.808233 208.783703 
L 339.93131 208.783703 
L 339.93131 208.783703 
L 331.346695 208.783703 
L 331.346695 208.783703 
L 322.762079 208.783703 
L 322.762079 208.783703 
L 318.469772 208.783703 
L 318.469772 208.783703 
L 314.177464 208.783703 
L 314.177464 208.783703 
L 309.885156 208.783703 
L 309.885156 208.783703 
L 305.592849 208.783703 
L 305.592849 208.783703 
L 301.300541 208.783703 
L 301.300541 208.783703 
L 297.008233 208.783703 
L 297.008233 208.783703 
L 292.715925 208.783703 
L 292.715925 208.783703 
L 288.423618 208.783703 
L 288.423618 208.783703 
L 284.13131 208.783703 
L 284.13131 208.783703 
L 279.839002 208.783703 
L 279.839002 208.783703 
L 275.546695 208.783703 
L 275.546695 208.783703 
L 271.254387 208.783703 
L 271.254387 208.783703 
L 266.962079 208.783703 
L 266.962079 208.783703 
L 262.669772 208.783703 
L 262.669772 208.783703 
L 258.377464 208.783703 
L 258.377464 208.783703 
L 254.085156 208.783703 
L 254.085156 208.783703 
L 245.500541 208.783703 
L 245.500541 208.783703 
L 241.208233 208.783703 
L 241.208233 208.783703 
L 236.915925 208.783703 
L 236.915925 208.783703 
L 232.623618 208.783703 
L 232.623618 208.783703 
L 228.33131 208.783703 
L 228.33131 208.783703 
L 224.039002 208.783703 
L 224.039002 208.783703 
L 219.746695 208.783703 
L 219.746695 208.783703 
L 215.454387 208.783703 
L 215.454387 208.783703 
L 211.162079 208.783703 
L 211.162079 208.783703 
L 206.869772 208.783703 
L 206.869772 208.783703 
L 202.577464 208.783703 
L 202.577464 208.783703 
L 198.285156 208.783703 
L 198.285156 208.783703 
L 193.992849 208.783703 
L 193.992849 208.783703 
L 185.408233 208.783703 
L 185.408233 208.783703 
L 181.115925 208.783703 
L 181.115925 208.783703 
L 176.823618 208.783703 
L 176.823618 208.783703 
L 172.53131 208.783703 
L 172.53131 208.783703 
L 168.239002 208.783703 
L 168.239002 208.783703 
L 163.946695 208.783703 
L 163.946695 208.783703 
L 159.654387 208.783703 
L 159.654387 208.783703 
L 155.362079 208.783703 
L 155.362079 208.444159 
L 151.069772 208.444159 
L 151.069772 207.653087 
L 146.777464 207.653087 
L 146.777464 206.872895 
L 142.485156 206.872895 
L 142.485156 205.546175 
L 138.192849 205.546175 
L 138.192849 205.216821 
L 133.900541 205.216821 
L 133.900541 204.339624 
L 129.608233 204.339624 
L 129.608233 203.468215 
L 125.315925 203.468215 
L 125.315925 202.706878 
L 121.023618 202.706878 
L 121.023618 200.753731 
L 116.73131 200.753731 
L 116.73131 199.995844 
L 112.439002 199.995844 
L 112.439002 198.16628 
L 108.146695 198.16628 
L 108.146695 196.248637 
L 103.854387 196.248637 
L 103.854387 194.977266 
L 99.562079 194.977266 
L 99.562079 192.018047 
L 95.269772 192.018047 
L 95.269772 190.546489 
L 90.977464 190.546489 
L 90.977464 189.181998 
L 86.685156 189.181998 
L 86.685156 187.190949 
L 82.392849 187.190949 
L 82.392849 185.203497 
L 78.100541 185.203497 
L 78.100541 183.120352 
L 73.808233 183.120352 
L 73.808233 181.25299 
L 69.515925 181.25299 
L 69.515925 178.153673 
L 65.223618 178.153673 
L 65.223618 176.606604 
L 60.93131 176.606604 
L 60.93131 174.23761 
L 56.639002 174.23761 
L 56.639002 171.35857 
L 52.346695 171.35857 
L 52.346695 166.639798 
L 48.054387 166.639798 
L 48.054387 161.014565 
L 43.762079 161.014565 
L 43.762079 154.184741 
L 39.469772 154.184741 
L 39.469772 137.158038 
L 35.177464 137.158038 
L 35.177464 25.813641 
L 30.885156 25.813641 
z
" clip-path="url(#p91081bff92)" style="fill: #0f4d92; fill-opacity: 0.25; stroke: #0f4d92; stroke-opacity: 0.25"/>
   </g>
   <g id="matplotlib.axis_1">
    <g id="xtick_1">
     <g id="line2d_1">
      <path d="M 30.885156 226.453641 
L 30.885156 15.781641 
" clip-path="url(#p91081bff92)" style="fill: none; stroke-dasharray: 1.11,0.48; stroke-dashoffset: 0; stroke: #b0b0b0; stroke-opacity: 0.3; stroke-width: 0.3"/>
     </g>
     <g id="line2d_2">
      <defs>
       <path id="me81ec37919" d="M 0 0 
L 0 3.5 
" style="stroke: #000000; stroke-width: 0.8"/>
      </defs>
      <g>
       <use xlink:href="#me81ec37919" x="30.885156" y="226.453641" style="stroke: #000000; stroke-width: 0.8"/>
      </g>
     </g>
     <g id="text_1">
      <text style="font-size: 6.5px; font-family: 'SimHei', 'Microsoft YaHei', sans-serif; text-anchor: middle" x="30.885156" y="237.922391" transform="rotate(-0 30.885156 237.922391)">0</text>
     </g>
    </g>
    <g id="xtick_2">
     <g id="line2d_3">
      <path d="M 73.808233 226.453641 
L 73.808233 15.781641 
" clip-path="url(#p91081bff92)" style="fill: none; stroke-dasharray: 1.11,0.48; stroke-dashoffset: 0; stroke: #b0b0b0; stroke-opacity: 0.3; stroke-width: 0.3"/>
     </g>
     <g id="line2d_4">
      <g>
       <use xlink:href="#me81ec37919" x="73.808233" y="226.453641" style="stroke: #000000; stroke-width: 0.8"/>
      </g>
     </g>
     <g id="text_2">
      <text style="font-size: 6.5px; font-family: 'SimHei', 'Microsoft YaHei', sans-serif; text-anchor: middle" x="73.808233" y="237.922391" transform="rotate(-0 73.808233 237.922391)">10</text>
     </g>
    </g>
    <g id="xtick_3">
     <g id="line2d_5">
      <path d="M 116.73131 226.453641 
L 116.73131 15.781641 
" clip-path="url(#p91081bff92)" style="fill: none; stroke-dasharray: 1.11,0.48; stroke-dashoffset: 0; stroke: #b0b0b0; stroke-opacity: 0.3; stroke-width: 0.3"/>
     </g>
     <g id="line2d_6">
      <g>
       <use xlink:href="#me81ec37919" x="116.73131" y="226.453641" style="stroke: #000000; stroke-width: 0.8"/>
      </g>
     </g>
     <g id="text_3">
      <text style="font-size: 6.5px; font-family: 'SimHei', 'Microsoft YaHei', sans-serif; text-anchor: middle" x="116.73131" y="237.922391" transform="rotate(-0 116.73131 237.922391)">20</text>
     </g>
    </g>
    <g id="xtick_4">
     <g id="line2d_7">
      <path d="M 159.654387 226.453641 
L 159.654387 15.781641 
" clip-path="url(#p91081bff92)" style="fill: none; stroke-dasharray: 1.11,0.48; stroke-dashoffset: 0; stroke: #b0b0b0; stroke-opacity: 0.3; stroke-width: 0.3"/>
     </g>
     <g id="line2d_8">
      <g>
       <use xlink:href="#me81ec37919" x="159.654387" y="226.453641" style="stroke: #000000; stroke-width: 0.8"/>
      </g>
     </g>
     <g id="text_4">
      <text style="font-size: 6.5px; font-family: 'SimHei', 'Microsoft YaHei', sans-serif; text-anchor: middle" x="159.654387" y="237.922391" transform="rotate(-0 159.654387 237.922391)">30</text>
     </g>
    </g>
    <g id="xtick_5">
     <g id="line2d_9">
      <path d="M 202.577464 226.453641 
L 202.577464 15.781641 
" clip-path="url(#p91081bff92)" style="fill: none; stroke-dasharray: 1.11,0.48; stroke-dashoffset: 0; stroke: #b0b0b0; stroke-opacity: 0.3; stroke-width: 0.3"/>
     </g>
     <g id="line2d_10">
      <g>
       <use xlink:href="#me81ec37919" x="202.577464" y="226.453641" style="stroke: #000000; stroke-width: 0.8"/>
      </g>
     </g>
     <g id="text_5">
      <text style="font-size: 6.5px; font-family: 'SimHei', 'Microsoft YaHei', sans-serif; text-anchor: middle" x="202.577464" y="237.922391" transform="rotate(-0 202.577464 237.922391)">40</text>
     </g>
    </g>
    <g id="xtick_6">
     <g id="line2d_11">
      <path d="M 245.500541 226.453641 
L 245.500541 15.781641 
" clip-path="url(#p91081bff92)" style="fill: none; stroke-dasharray: 1.11,0.48; stroke-dashoffset: 0; stroke: #b0b0b0; stroke-opacity: 0.3; stroke-width: 0.3"/>
     </g>
     <g id="line2d_12">
      <g>
       <use xlink:href="#me81ec37919" x="245.500541" y="226.453641" style="stroke: #000000; stroke-width: 0.8"/>
      </g>
     </g>
     <g id="text_6">
      <text style="font-size: 6.5px; font-family: 'SimHei', 'Microsoft YaHei', sans-serif; text-anchor: middle" x="245.500541" y="237.922391" transform="rotate(-0 245.500541 237.922391)">50</text>
     </g>
    </g>
    <g id="xtick_7">
     <g id="line2d_13">
      <path d="M 288.423618 226.453641 
L 288.423618 15.781641 
" clip-path="url(#p91081bff92)" style="fill: none; stroke-dasharray: 1.11,0.48; stroke-dashoffset: 0; stroke: #b0b0b0; stroke-opacity: 0.3; stroke-width: 0.3"/>
     </g>
     <g id="line2d_14">
      <g>
       <use xlink:href="#me81ec37919" x="288.423618" y="226.453641" style="stroke: #000000; stroke-width: 0.8"/>
      </g>
     </g>
     <g id="text_7">
      <text style="font-size: 6.5px; font-family: 'SimHei', 'Microsoft YaHei', sans-serif; text-anchor: middle" x="288.423618" y="237.922391" transform="rotate(-0 288.423618 237.922391)">60</text>
     </g>
    </g>
    <g id="text_8">
     <text style="font-size: 7px; font-family: 'SimHei', 'Microsoft YaHei', sans-serif; text-anchor: middle" x="170.385156" y="248.340359" transform="rotate(-0 170.385156 248.340359)">注册后天数</text>
    </g>
   </g>
   <g id="matplotlib.axis_2">
    <g id="ytick_1">
     <g id="line2d_15">
      <path d="M 30.885156 226.453641 
L 309.885156 226.453641 
" clip-path="url(#p91081bff92)" style="fill: none; stroke-dasharray: 1.11,0.48; stroke-dashoffset: 0; stroke: #b0b0b0; stroke-opacity: 0.3; stroke-width: 0.3"/>
     </g>
     <g id="line2d_16">
      <defs>
       <path id="mbf3c1ed834" d="M 0 0 
L -3.5 0 
" style="stroke: #000000; stroke-width: 0.8"/>
      </defs>
      <g>
       <use xlink:href="#mbf3c1ed834" x="30.885156" y="226.453641" style="stroke: #000000; stroke-width: 0.8"/>
      </g>
     </g>
     <g id="text_9">
      <text style="font-size: 6.5px; font-family: 'SimHei', 'Microsoft YaHei', sans-serif; text-anchor: end" x="23.885156" y="228.688016" transform="rotate(-0 23.885156 228.688016)">0.0</text>
     </g>
    </g>
    <g id="ytick_2">
     <g id="line2d_17">
      <path d="M 30.885156 186.325641 
L 309.885156 186.325641 
" clip-path="url(#p91081bff92)" style="fill: none; stroke-dasharray: 1.11,0.48; stroke-dashoffset: 0; stroke: #b0b0b0; stroke-opacity: 0.3; stroke-width: 0.3"/>
     </g>
     <g id="line2d_18">
      <g>
       <use xlink:href="#mbf3c1ed834" x="30.885156" y="186.325641" style="stroke: #000000; stroke-width: 0.8"/>
      </g>
     </g>
     <g id="text_10">
      <text style="font-size: 6.5px; font-family: 'SimHei', 'Microsoft YaHei', sans-serif; text-anchor: end" x="23.885156" y="188.560016" transform="rotate(-0 23.885156 188.560016)">0.2</text>
     </g>
    </g>
    <g id="ytick_3">
     <g id="line2d_19">
      <path d="M 30.885156 146.197641 
L 309.885156 146.197641 
" clip-path="url(#p91081bff92)" style="fill: none; stroke-dasharray: 1.11,0.48; stroke-dashoffset: 0; stroke: #b0b0b0; stroke-opacity: 0.3; stroke-width: 0.3"/>
     </g>
     <g id="line2d_20">
      <g>
       <use xlink:href="#mbf3c1ed834" x="30.885156" y="146.197641" style="stroke: #000000; stroke-width: 0.8"/>
      </g>
     </g>
     <g id="text_11">
      <text style="font-size: 6.5px; font-family: 'SimHei', 'Microsoft YaHei', sans-serif; text-anchor: end" x="23.885156" y="148.432016" transform="rotate(-0 23.885156 148.432016)">0.4</text>
     </g>
    </g>
    <g id="ytick_4">
     <g id="line2d_21">
      <path d="M 30.885156 106.069641 
L 309.885156 106.069641 
" clip-path="url(#p91081bff92)" style="fill: none; stroke-dasharray: 1.11,0.48; stroke-dashoffset: 0; stroke: #b0b0b0; stroke-opacity: 0.3; stroke-width: 0.3"/>
     </g>
     <g id="line2d_22">
      <g>
       <use xlink:href="#mbf3c1ed834" x="30.885156" y="106.069641" style="stroke: #000000; stroke-width: 0.8"/>
      </g>
     </g>
     <g id="text_12">
      <text style="font-size: 6.5px; font-family: 'SimHei', 'Microsoft YaHei', sans-serif; text-anchor: end" x="23.885156" y="108.304016" transform="rotate(-0 23.885156 108.304016)">0.6</text>
     </g>
    </g>
    <g id="ytick_5">
     <g id="line2d_23">
      <path d="M 30.885156 65.941641 
L 309.885156 65.941641 
" clip-path="url(#p91081bff92)" style="fill: none; stroke-dasharray: 1.11,0.48; stroke-dashoffset: 0; stroke: #b0b0b0; stroke-opacity: 0.3; stroke-width: 0.3"/>
     </g>
     <g id="line2d_24">
      <g>
       <use xlink:href="#mbf3c1ed834" x="30.885156" y="65.941641" style="stroke: #000000; stroke-width: 0.8"/>
      </g>
     </g>
     <g id="text_13">
      <text style="font-size: 6.5px; font-family: 'SimHei', 'Microsoft YaHei', sans-serif; text-anchor: end" x="23.885156" y="68.176016" transform="rotate(-0 23.885156 68.176016)">0.8</text>
     </g>
    </g>
    <g id="ytick_6">
     <g id="line2d_25">
      <path d="M 30.885156 25.813641 
L 309.885156 25.813641 
" clip-path="url(#p91081bff92)" style="fill: none; stroke-dasharray: 1.11,0.48; stroke-dashoffset: 0; stroke: #b0b0b0; stroke-opacity: 0.3; stroke-width: 0.3"/>
     </g>
     <g id="line2d_26">
      <g>
       <use xlink:href="#mbf3c1ed834" x="30.885156" y="25.813641" style="stroke: #000000; stroke-width: 0.8"/>
      </g>
     </g>
     <g id="text_14">
      <text style="font-size: 6.5px; font-family: 'SimHei', 'Microsoft YaHei', sans-serif; text-anchor: end" x="23.885156" y="28.048016" transform="rotate(-0 23.885156 28.048016)">1.0</text>
     </g>
    </g>
    <g id="text_15">
     <text style="font-size: 7px; font-family: 'SimHei', 'Microsoft YaHei', sans-serif; text-anchor: middle" x="9.260156" y="121.117641" transform="rotate(-90 9.260156 121.117641)">留存概率</text>
    </g>
   </g>
   <g id="line2d_27">
    <path d="M 30.885156 25.813641 
L 35.177464 25.813641 
L 35.177464 141.482601 
L 39.469772 141.482601 
L 39.469772 158.356282 
L 43.762079 158.356282 
L 43.762079 165.085667 
L 48.054387 165.085667 
L 48.054387 170.609789 
L 52.346695 170.609789 
L 52.346695 175.229964 
L 56.639002 175.229964 
L 56.639002 178.042244 
L 60.93131 178.042244 
L 60.93131 180.352332 
L 65.223618 180.352332 
L 65.223618 181.85891 
L 69.515925 181.85891 
L 69.515925 184.872068 
L 73.808233 184.872068 
L 73.808233 186.68434 
L 78.100541 186.68434 
L 78.100541 188.703086 
L 82.392849 188.703086 
L 82.392849 190.626037 
L 86.685156 190.626037 
L 86.685156 192.548987 
L 90.977464 192.548987 
L 90.977464 193.86469 
L 95.269772 193.86469 
L 95.269772 195.281601 
L 99.562079 195.281601 
L 99.562079 198.124653 
L 103.854387 198.124653 
L 103.854387 199.343104 
L 108.146695 199.343104 
L 108.146695 201.177652 
L 112.439002 201.177652 
L 112.439002 202.924367 
L 116.73131 202.924367 
L 116.73131 203.646757 
L 121.023618 203.646757 
L 121.023618 205.504331 
L 125.315925 205.504331 
L 125.315925 206.226721 
L 129.608233 206.226721 
L 129.608233 207.052309 
L 133.900541 207.052309 
L 133.900541 207.882313 
L 138.192849 207.882313 
L 138.192849 208.193564 
L 142.485156 208.193564 
L 142.485156 209.445684 
L 146.777464 209.445684 
L 146.777464 210.180595 
L 151.069772 210.180595 
L 151.069772 210.925114 
L 155.362079 210.925114 
L 155.362079 211.244193 
L 314.485156 211.244193 
L 314.485156 211.244193 
" clip-path="url(#p91081bff92)" style="fill: none; stroke: #0f4d92; stroke-width: 1.5; stroke-linecap: square"/>
   </g>
   <g id="line2d_28">
    <path d="M 35.177464 226.453641 
L 35.177464 15.781641 
" clip-path="url(#p91081bff92)" style="fill: none; stroke-dasharray: 0.6,0.99; stroke-dashoffset: 0; stroke: #767676; stroke-width: 0.6"/>
   </g>
   <g id="line2d_29">
    <path d="M 60.93131 226.453641 
L 60.93131 15.781641 
" clip-path="url(#p91081bff92)" style="fill: none; stroke-dasharray: 0.6,0.99; stroke-dashoffset: 0; stroke: #767676; stroke-width: 0.6"/>
   </g>
   <g id="line2d_30">
    <path d="M 90.977464 226.453641 
L 90.977464 15.781641 
" clip-path="url(#p91081bff92)" style="fill: none; stroke-dasharray: 0.6,0.99; stroke-dashoffset: 0; stroke: #767676; stroke-width: 0.6"/>
   </g>
   <g id="line2d_31">
    <path d="M 159.654387 226.453641 
L 159.654387 15.781641 
" clip-path="url(#p91081bff92)" style="fill: none; stroke-dasharray: 0.6,0.99; stroke-dashoffset: 0; stroke: #767676; stroke-width: 0.6"/>
   </g>
   <g id="patch_3">
    <path d="M 30.885156 226.453641 
L 30.885156 15.781641 
" style="fill: none; stroke: #000000; stroke-width: 0.8; stroke-linejoin: miter; stroke-linecap: square"/>
   </g>
   <g id="patch_4">
    <path d="M 30.885156 226.453641 
L 309.885156 226.453641 
" style="fill: none; stroke: #000000; stroke-width: 0.8; stroke-linejoin: miter; stroke-linecap: square"/>
   </g>
   <g id="patch_5">
    <path d="M 41.542614 135.506935 
Q 39.088861 137.810542 37.042665 139.731531 
" style="fill: none; stroke: #767676; stroke-width: 0.5; stroke-linecap: round"/>
    <path d="M 39.399493 139.027709 
L 37.042665 139.731531 
L 37.893704 137.423776 
" style="fill: none; stroke: #767676; stroke-width: 0.5; stroke-linecap: round"/>
   </g>
   <g id="text_16">
    <text style="font-size: 5.5px; font-family: 'SimHei', 'Microsoft YaHei', sans-serif; fill: #4d4d4d" transform="translate(43.762079 126.225601)">第1天</text>
    <text style="font-size: 5.5px; font-family: 'SimHei', 'Microsoft YaHei', sans-serif; fill: #4d4d4d" transform="translate(43.762079 131.450601)">42.4%</text>
   </g>
   <g id="patch_6">
    <path d="M 67.29646 174.376666 
Q 64.842707 176.680273 62.796512 178.601262 
" style="fill: none; stroke: #767676; stroke-width: 0.5; stroke-linecap: round"/>
    <path d="M 65.153339 177.89744 
L 62.796512 178.601262 
L 63.64755 176.293507 
" style="fill: none; stroke: #767676; stroke-width: 0.5; stroke-linecap: round"/>
   </g>
   <g id="text_17">
    <text style="font-size: 5.5px; font-family: 'SimHei', 'Microsoft YaHei', sans-serif; fill: #4d4d4d" transform="translate(69.515925 165.095332)">第7天</text>
    <text style="font-size: 5.5px; font-family: 'SimHei', 'Microsoft YaHei', sans-serif; fill: #4d4d4d" transform="translate(69.515925 170.320332)">23.0%</text>
   </g>
   <g id="patch_7">
    <path d="M 97.979445 187.828066 
Q 95.235749 190.193491 92.915445 192.193897 
" style="fill: none; stroke: #767676; stroke-width: 0.5; stroke-linecap: round"/>
    <path d="M 95.299959 191.590496 
L 92.915445 192.193897 
L 93.863433 189.924245 
" style="fill: none; stroke: #767676; stroke-width: 0.5; stroke-linecap: round"/>
   </g>
   <g id="text_18">
    <text style="font-size: 5.5px; font-family: 'SimHei', 'Microsoft YaHei', sans-serif; fill: #4d4d4d" transform="translate(99.562079 178.60769)">第14天</text>
    <text style="font-size: 5.5px; font-family: 'SimHei', 'Microsoft YaHei', sans-serif; fill: #4d4d4d" transform="translate(99.562079 183.83269)">16.2%</text>
   </g>
   <g id="patch_8">
    <path d="M 166.656369 205.207569 
Q 163.912672 207.572994 161.592368 209.5734 
" style="fill: none; stroke: #767676; stroke-width: 0.5; stroke-linecap: round"/>
    <path d="M 163.976882 208.969999 
L 161.592368 209.5734 
L 162.540356 207.303748 
" style="fill: none; stroke: #767676; stroke-width: 0.5; stroke-linecap: round"/>
   </g>
   <g id="text_19">
    <text style="font-size: 5.5px; font-family: 'SimHei', 'Microsoft YaHei', sans-serif; fill: #4d4d4d" transform="translate(168.239002 195.987193)">第30天</text>
    <text style="font-size: 5.5px; font-family: 'SimHei', 'Microsoft YaHei', sans-serif; fill: #4d4d4d" transform="translate(168.239002 201.212193)">7.6%</text>
   </g>
   <g id="text_20">
    <text style="font-weight: 700; font-size: 7.5px; font-family: 'SimHei', 'Microsoft YaHei', sans-serif; text-anchor: middle" x="170.385156" y="9.781641" transform="rotate(-0 170.385156 9.781641)">Kaplan-Meier 玩家留存曲线</text>
   </g>
  </g>
 </g>
 <defs>
  <clipPath id="p91081bff92">
   <rect x="30.885156" y="15.781641" width="279" height="210.672"/>
  </clipPath>
 </defs>
</svg>
