<?xml version="1.0" encoding="utf-8" standalone="no"?>
<!DOCTYPE svg PUBLIC "-//W3C//DTD SVG 1.1//EN"
  "http://www.w3.org/Graphics/SVG/1.1/DTD/svg11.dtd">
<svg xmlns:xlink="http://www.w3.org/1999/xlink" width="321.842109pt" height="219.322531pt" viewBox="0 0 321.842109 219.322531" xmlns="http://www.w3.org/2000/svg" version="1.1">
 <metadata>
  <rdf:RDF xmlns:dc="http://purl.org/dc/elements/1.1/" xmlns:cc="http://creativecommons.org/ns#" xmlns:rdf="http://www.w3.org/1999/02/22-rdf-syntax-ns#">
   <cc:Work>
    <dc:type rdf:resource="http://purl.org/dc/dcmitype/StillImage"/>
    <dc:date>2026-05-21T16:42:16.467806</dc:date>
    <dc:format>image/svg+xml</dc:format>
    <dc:creator>
     <cc:Agent>
      <dc:title>Matplotlib v3.10.0, https://matplotlib.org/</dc:title>
     </cc:Agent>
    </dc:creator>
   </cc:Work>
  </rdf:RDF>
 </metadata>
 <defs>
  <style type="text/css">*{stroke-linejoin: round; stroke-linecap: butt}</style>
 </defs>
 <g id="figure_1">
  <g id="patch_1">
   <path d="M -0 219.322531 
L 321.842109 219.322531 
L 321.842109 0 
L -0 0 
z
" style="fill: #ffffff"/>
  </g>
  <g id="axes_1">
   <g id="patch_2">
    <path d="M 39.242109 192.376359 
L 318.242109 192.376359 
L 318.242109 14.968359 
L 39.242109 14.968359 
z
" style="fill: #ffffff"/>
   </g>
   <g id="matplotlib.axis_1">
    <g id="xtick_1">
     <g id="line2d_1">
      <path d="M 51.923928 192.376359 
L 51.923928 14.968359 
" clip-path="url(#p7454b6a4d9)" style="fill: none; stroke-dasharray: 1.11,0.48; stroke-dashoffset: 0; stroke: #b0b0b0; stroke-opacity: 0.3; stroke-width: 0.3"/>
     </g>
     <g id="line2d_2">
      <defs>
       <path id="m9914bb078d" d="M 0 0 
L 0 3.5 
" style="stroke: #000000; stroke-width: 0.8"/>
      </defs>
      <g>
       <use xlink:href="#m9914bb078d" x="51.923928" y="192.376359" style="stroke: #000000; stroke-width: 0.8"/>
      </g>
     </g>
     <g id="text_1">
      <text style="font-size: 6.5px; font-family: 'Arial', 'Helvetica', 'DejaVu Sans', sans-serif; text-anchor: middle" x="51.923928" y="204.028937" transform="rotate(-0 51.923928 204.028937)">0</text>
     </g>
    </g>
    <g id="xtick_2">
     <g id="line2d_3">
      <path d="M 102.701978 192.376359 
L 102.701978 14.968359 
" clip-path="url(#p7454b6a4d9)" style="fill: none; stroke-dasharray: 1.11,0.48; stroke-dashoffset: 0; stroke: #b0b0b0; stroke-opacity: 0.3; stroke-width: 0.3"/>
     </g>
     <g id="line2d_4">
      <g>
       <use xlink:href="#m9914bb078d" x="102.701978" y="192.376359" style="stroke: #000000; stroke-width: 0.8"/>
      </g>
     </g>
     <g id="text_2">
      <text style="font-size: 6.5px; font-family: 'Arial', 'Helvetica', 'DejaVu Sans', sans-serif; text-anchor: middle" x="102.701978" y="204.028937" transform="rotate(-0 102.701978 204.028937)">200</text>
     </g>
    </g>
    <g id="xtick_3">
     <g id="line2d_5">
      <path d="M 153.480029 192.376359 
L 153.480029 14.968359 
" clip-path="url(#p7454b6a4d9)" style="fill: none; stroke-dasharray: 1.11,0.48; stroke-dashoffset: 0; stroke: #b0b0b0; stroke-opacity: 0.3; stroke-width: 0.3"/>
     </g>
     <g id="line2d_6">
      <g>
       <use xlink:href="#m9914bb078d" x="153.480029" y="192.376359" style="stroke: #000000; stroke-width: 0.8"/>
      </g>
     </g>
     <g id="text_3">
      <text style="font-size: 6.5px; font-family: 'Arial', 'Helvetica', 'DejaVu Sans', sans-serif; text-anchor: middle" x="153.480029" y="204.028937" transform="rotate(-0 153.480029 204.028937)">400</text>
     </g>
    </g>
    <g id="xtick_4">
     <g id="line2d_7">
      <path d="M 204.25808 192.376359 
L 204.25808 14.968359 
" clip-path="url(#p7454b6a4d9)" style="fill: none; stroke-dasharray: 1.11,0.48; stroke-dashoffset: 0; stroke: #b0b0b0; stroke-opacity: 0.3; stroke-width: 0.3"/>
     </g>
     <g id="line2d_8">
      <g>
       <use xlink:href="#m9914bb078d" x="204.25808" y="192.376359" style="stroke: #000000; stroke-width: 0.8"/>
      </g>
     </g>
     <g id="text_4">
      <text style="font-size: 6.5px; font-family: 'Arial', 'Helvetica', 'DejaVu Sans', sans-serif; text-anchor: middle" x="204.25808" y="204.028937" transform="rotate(-0 204.25808 204.028937)">600</text>
     </g>
    </g>
    <g id="xtick_5">
     <g id="line2d_9">
      <path d="M 255.036131 192.376359 
L 255.036131 14.968359 
" clip-path="url(#p7454b6a4d9)" style="fill: none; stroke-dasharray: 1.11,0.48; stroke-dashoffset: 0; stroke: #b0b0b0; stroke-opacity: 0.3; stroke-width: 0.3"/>
     </g>
     <g id="line2d_10">
      <g>
       <use xlink:href="#m9914bb078d" x="255.036131" y="192.376359" style="stroke: #000000; stroke-width: 0.8"/>
      </g>
     </g>
     <g id="text_5">
      <text style="font-size: 6.5px; font-family: 'Arial', 'Helvetica', 'DejaVu Sans', sans-serif; text-anchor: middle" x="255.036131" y="204.028937" transform="rotate(-0 255.036131 204.028937)">800</text>
     </g>
    </g>
    <g id="xtick_6">
     <g id="line2d_11">
      <path d="M 305.814181 192.376359 
L 305.814181 14.968359 
" clip-path="url(#p7454b6a4d9)" style="fill: none; stroke-dasharray: 1.11,0.48; stroke-dashoffset: 0; stroke: #b0b0b0; stroke-opacity: 0.3; stroke-width: 0.3"/>
     </g>
     <g id="line2d_12">
      <g>
       <use xlink:href="#m9914bb078d" x="305.814181" y="192.376359" style="stroke: #000000; stroke-width: 0.8"/>
      </g>
     </g>
     <g id="text_6">
      <text style="font-size: 6.5px; font-family: 'Arial', 'Helvetica', 'DejaVu Sans', sans-serif; text-anchor: middle" x="305.814181" y="204.028937" transform="rotate(-0 305.814181 204.028937)">1000</text>
     </g>
    </g>
    <g id="text_7">
     <text style="font-size: 7px; font-family: 'Arial', 'Helvetica', 'DejaVu Sans', sans-serif; text-anchor: middle" x="178.742109" y="214.331281" transform="rotate(-0 178.742109 214.331281)">模拟次数</text>
    </g>
   </g>
   <g id="matplotlib.axis_2">
    <g id="ytick_1">
     <g id="line2d_13">
      <path d="M 39.242109 183.987397 
L 318.242109 183.987397 
" clip-path="url(#p7454b6a4d9)" style="fill: none; stroke-dasharray: 1.11,0.48; stroke-dashoffset: 0; stroke: #b0b0b0; stroke-opacity: 0.3; stroke-width: 0.3"/>
     </g>
     <g id="line2d_14">
      <defs>
       <path id="mdb786414d8" d="M 0 0 
L -3.5 0 
" style="stroke: #000000; stroke-width: 0.8"/>
      </defs>
      <g>
       <use xlink:href="#mdb786414d8" x="39.242109" y="183.987397" style="stroke: #000000; stroke-width: 0.8"/>
      </g>
     </g>
     <g id="text_8">
      <text style="font-size: 6.5px; font-family: 'Arial', 'Helvetica', 'DejaVu Sans', sans-serif; text-anchor: end" x="32.242109" y="186.313686" transform="rotate(-0 32.242109 186.313686)">22250</text>
     </g>
    </g>
    <g id="ytick_2">
     <g id="line2d_15">
      <path d="M 39.242109 161.480732 
L 318.242109 161.480732 
" clip-path="url(#p7454b6a4d9)" style="fill: none; stroke-dasharray: 1.11,0.48; stroke-dashoffset: 0; stroke: #b0b0b0; stroke-opacity: 0.3; stroke-width: 0.3"/>
     </g>
     <g id="line2d_16">
      <g>
       <use xlink:href="#mdb786414d8" x="39.242109" y="161.480732" style="stroke: #000000; stroke-width: 0.8"/>
      </g>
     </g>
     <g id="text_9">
      <text style="font-size: 6.5px; font-family: 'Arial', 'Helvetica', 'DejaVu Sans', sans-serif; text-anchor: end" x="32.242109" y="163.807021" transform="rotate(-0 32.242109 163.807021)">22500</text>
     </g>
    </g>
    <g id="ytick_3">
     <g id="line2d_17">
      <path d="M 39.242109 138.974067 
L 318.242109 138.974067 
" clip-path="url(#p7454b6a4d9)" style="fill: none; stroke-dasharray: 1.11,0.48; stroke-dashoffset: 0; stroke: #b0b0b0; stroke-opacity: 0.3; stroke-width: 0.3"/>
     </g>
     <g id="line2d_18">
      <g>
       <use xlink:href="#mdb786414d8" x="39.242109" y="138.974067" style="stroke: #000000; stroke-width: 0.8"/>
      </g>
     </g>
     <g id="text_10">
      <text style="font-size: 6.5px; font-family: 'Arial', 'Helvetica', 'DejaVu Sans', sans-serif; text-anchor: end" x="32.242109" y="141.300357" transform="rotate(-0 32.242109 141.300357)">22750</text>
     </g>
    </g>
    <g id="ytick_4">
     <g id="line2d_19">
      <path d="M 39.242109 116.467403 
L 318.242109 116.467403 
" clip-path="url(#p7454b6a4d9)" style="fill: none; stroke-dasharray: 1.11,0.48; stroke-dashoffset: 0; stroke: #b0b0b0; stroke-opacity: 0.3; stroke-width: 0.3"/>
     </g>
     <g id="line2d_20">
      <g>
       <use xlink:href="#mdb786414d8" x="39.242109" y="116.467403" style="stroke: #000000; stroke-width: 0.8"/>
      </g>
     </g>
     <g id="text_11">
      <text style="font-size: 6.5px; font-family: 'Arial', 'Helvetica', 'DejaVu Sans', sans-serif; text-anchor: end" x="32.242109" y="118.793692" transform="rotate(-0 32.242109 118.793692)">23000</text>
     </g>
    </g>
    <g id="ytick_5">
     <g id="line2d_21">
      <path d="M 39.242109 93.960738 
L 318.242109 93.960738 
" clip-path="url(#p7454b6a4d9)" style="fill: none; stroke-dasharray: 1.11,0.48; stroke-dashoffset: 0; stroke: #b0b0b0; stroke-opacity: 0.3; stroke-width: 0.3"/>
     </g>
     <g id="line2d_22">
      <g>
       <use xlink:href="#mdb786414d8" x="39.242109" y="93.960738" style="stroke: #000000; stroke-width: 0.8"/>
      </g>
     </g>
     <g id="text_12">
      <text style="font-size: 6.5px; font-family: 'Arial', 'Helvetica', 'DejaVu Sans', sans-serif; text-anchor: end" x="32.242109" y="96.287027" transform="rotate(-0 32.242109 96.287027)">23250</text>
     </g>
    </g>
    <g id="ytick_6">
     <g id="line2d_23">
      <path d="M 39.242109 71.454073 
L 318.242109 71.454073 
" clip-path="url(#p7454b6a4d9)" style="fill: none; stroke-dasharray: 1.11,0.48; stroke-dashoffset: 0; stroke: #b0b0b0; stroke-opacity: 0.3; stroke-width: 0.3"/>
     </g>
     <g id="line2d_24">
      <g>
       <use xlink:href="#mdb786414d8" x="39.242109" y="71.454073" style="stroke: #000000; stroke-width: 0.8"/>
      </g>
     </g>
     <g id="text_13">
      <text style="font-size: 6.5px; font-family: 'Arial', 'Helvetica', 'DejaVu Sans', sans-serif; text-anchor: end" x="32.242109" y="73.780362" transform="rotate(-0 32.242109 73.780362)">23500</text>
     </g>
    </g>
    <g id="ytick_7">
     <g id="line2d_25">
      <path d="M 39.242109 48.947408 
L 318.242109 48.947408 
" clip-path="url(#p7454b6a4d9)" style="fill: none; stroke-dasharray: 1.11,0.48; stroke-dashoffset: 0; stroke: #b0b0b0; stroke-opacity: 0.3; stroke-width: 0.3"/>
     </g>
     <g id="line2d_26">
      <g>
       <use xlink:href="#mdb786414d8" x="39.242109" y="48.947408" style="stroke: #000000; stroke-width: 0.8"/>
      </g>
     </g>
     <g id="text_14">
      <text style="font-size: 6.5px; font-family: 'Arial', 'Helvetica', 'DejaVu Sans', sans-serif; text-anchor: end" x="32.242109" y="51.273697" transform="rotate(-0 32.242109 51.273697)">23750</text>
     </g>
    </g>
    <g id="ytick_8">
     <g id="line2d_27">
      <path d="M 39.242109 26.440743 
L 318.242109 26.440743 
" clip-path="url(#p7454b6a4d9)" style="fill: none; stroke-dasharray: 1.11,0.48; stroke-dashoffset: 0; stroke: #b0b0b0; stroke-opacity: 0.3; stroke-width: 0.3"/>
     </g>
     <g id="line2d_28">
      <g>
       <use xlink:href="#mdb786414d8" x="39.242109" y="26.440743" style="stroke: #000000; stroke-width: 0.8"/>
      </g>
     </g>
     <g id="text_15">
      <text style="font-size: 6.5px; font-family: 'Arial', 'Helvetica', 'DejaVu Sans', sans-serif; text-anchor: end" x="32.242109" y="28.767032" transform="rotate(-0 32.242109 28.767032)">24000</text>
     </g>
    </g>
    <g id="text_16">
     <text style="font-size: 7px; font-family: 'Arial', 'Helvetica', 'DejaVu Sans', sans-serif; text-anchor: middle" x="8.695781" y="103.672359" transform="rotate(-90 8.695781 103.672359)">累计平均营收(元)</text>
    </g>
   </g>
   <g id="line2d_29">
    <path d="M 51.923928 23.032359 
L 52.177818 47.099272 
L 52.431708 27.633628 
L 52.685598 96.820547 
L 53.447269 139.894367 
L 53.701159 170.636298 
L 53.95505 155.17169 
L 54.20894 156.114309 
L 54.46283 148.973595 
L 54.970611 146.142505 
L 55.224501 140.090837 
L 55.478391 159.590758 
L 55.732281 158.841886 
L 55.986172 155.322839 
L 56.240062 153.700101 
L 56.493952 157.100138 
L 56.747842 153.059145 
L 57.001733 169.576644 
L 57.255623 166.343223 
L 58.017294 183.360727 
L 58.271184 165.811635 
L 58.525074 162.67403 
L 59.032855 175.475067 
L 59.286745 172.443706 
L 59.540635 171.175013 
L 59.794525 164.22808 
L 60.048416 165.222809 
L 60.810086 171.61568 
L 61.063977 177.744915 
L 61.317867 177.459587 
L 61.571757 171.958368 
L 61.825647 174.096979 
L 62.079538 169.498833 
L 62.333428 173.007395 
L 62.587318 174.483957 
L 63.095099 179.27314 
L 63.348989 176.361533 
L 63.602879 178.868008 
L 63.856769 179.954554 
L 64.11066 181.853619 
L 64.61844 179.805837 
L 65.126221 183.478433 
L 65.380111 174.586938 
L 65.887892 167.791522 
L 66.141782 171.468463 
L 66.395672 172.846699 
L 66.649562 167.464838 
L 66.903453 166.853432 
L 67.157343 169.632555 
L 67.411233 174.479188 
L 68.172904 179.663186 
L 68.680684 178.878118 
L 68.934575 183.318992 
L 69.188465 183.491978 
L 69.442355 182.315761 
L 69.696245 181.970549 
L 69.950136 182.56483 
L 70.457916 184.312359 
L 70.711806 179.888929 
L 70.965697 179.861839 
L 71.219587 181.68372 
L 71.473477 181.656678 
L 71.727367 181.873279 
L 71.981258 181.020214 
L 72.235148 181.210712 
L 72.742928 174.922819 
L 72.996819 176.450809 
L 73.504599 171.241326 
L 73.758489 169.481997 
L 74.01238 165.211504 
L 74.26627 162.865604 
L 74.77405 162.539322 
L 75.027941 161.955432 
L 75.281831 162.083592 
L 75.535721 161.910718 
L 75.789611 163.020417 
L 76.043502 164.708164 
L 76.297392 164.907993 
L 76.551282 166.262834 
L 76.805172 166.199372 
L 77.312953 164.691965 
L 77.566843 166.032635 
L 77.820733 164.27807 
L 78.328514 167.060145 
L 78.582404 167.69049 
L 79.090185 163.853419 
L 79.344075 162.367315 
L 79.597965 163.515583 
L 79.851855 162.183148 
L 80.105746 160.117138 
L 80.359636 159.829497 
L 80.613526 160.097185 
L 80.867417 160.596334 
L 81.121307 160.560906 
L 81.375197 159.185747 
L 81.629087 155.363918 
L 81.882978 155.997555 
L 82.136868 155.915971 
L 82.390758 156.913939 
L 82.644648 156.847469 
L 82.898539 159.400628 
L 83.152429 159.353968 
L 83.406319 158.626724 
L 83.660209 158.288196 
L 83.9141 156.750374 
L 84.16799 157.636423 
L 84.42188 159.695462 
L 84.67577 160.40923 
L 84.929661 162.028566 
L 85.183551 162.096627 
L 85.945222 164.925475 
L 86.706892 157.497201 
L 87.214673 160.411905 
L 87.468563 161.388257 
L 87.722453 161.868785 
L 87.976344 162.991184 
L 88.230234 162.362191 
L 88.484124 162.987442 
L 88.738014 163.276445 
L 89.245795 163.133225 
L 89.499685 162.467229 
L 89.753575 161.457324 
L 90.261356 164.655913 
L 90.515246 165.332735 
L 90.769136 165.657831 
L 91.023027 164.141512 
L 91.276917 165.198109 
L 91.530807 163.772336 
L 91.784697 163.246935 
L 92.292478 164.759802 
L 92.546368 164.80047 
L 92.800258 163.767756 
L 93.054149 163.608076 
L 93.308039 163.870702 
L 93.561929 164.641143 
L 93.815819 164.473778 
L 95.593051 158.565404 
L 95.846941 158.899149 
L 96.100832 157.500101 
L 96.354722 157.542773 
L 96.608612 158.155031 
L 96.862502 159.368865 
L 97.370283 160.16042 
L 97.624173 159.554366 
L 97.878064 160.838257 
L 98.131954 161.548448 
L 98.385844 163.179326 
L 98.639734 163.658395 
L 98.893625 163.67712 
L 99.147515 164.47121 
L 99.401405 163.674507 
L 99.909186 165.279479 
L 100.416966 165.818368 
L 100.670856 166.757969 
L 101.178637 165.378769 
L 101.432527 165.319742 
L 101.686417 166.131199 
L 102.194198 166.237122 
L 102.448088 164.794632 
L 102.701978 165.113915 
L 103.209759 164.28301 
L 103.717539 166.915048 
L 103.97143 167.856537 
L 104.22532 167.089269 
L 104.7331 167.591022 
L 105.240881 168.993197 
L 105.494771 169.593045 
L 106.002552 168.795109 
L 106.256442 169.113866 
L 106.510332 169.227419 
L 107.018113 168.499699 
L 107.272003 168.824553 
L 107.525893 168.0919 
L 107.779783 169.408281 
L 108.541454 170.065971 
L 108.795344 169.702405 
L 109.049235 170.553489 
L 109.557015 167.330998 
L 109.810905 166.385059 
L 110.064796 166.45089 
L 110.318686 167.234114 
L 111.080357 168.358957 
L 111.334247 167.555123 
L 111.588137 167.557138 
L 112.095918 167.103841 
L 112.603698 165.741681 
L 112.857588 165.045428 
L 113.365369 164.632109 
L 113.87315 163.130459 
L 114.12704 163.667891 
L 114.38093 162.692032 
L 114.63482 163.163705 
L 114.888711 164.156961 
L 115.142601 164.607707 
L 115.396491 165.401199 
L 115.650381 164.500681 
L 115.904272 164.242449 
L 116.412052 164.641867 
L 116.665942 165.028944 
L 116.919833 164.969874 
L 117.173723 165.356648 
L 117.681503 167.120712 
L 117.935394 166.857042 
L 118.443174 168.475984 
L 118.697064 168.11915 
L 118.950955 168.090472 
L 119.204845 168.963913 
L 119.458735 167.389755 
L 119.712625 166.979823 
L 119.966516 167.308454 
L 120.220406 168.045871 
L 120.474296 167.705721 
L 120.728186 167.835664 
L 120.982077 168.405229 
L 121.235967 167.562774 
L 121.489857 167.250709 
L 122.251528 167.065957 
L 122.505418 166.574033 
L 123.013199 167.807104 
L 123.267089 167.427846 
L 123.520979 167.403153 
L 123.774869 167.083462 
L 124.02876 167.415642 
L 124.28265 168.503074 
L 124.53654 168.388266 
L 124.79043 168.642553 
L 125.044321 168.640551 
L 125.552101 168.943035 
L 125.805991 168.081943 
L 126.059882 168.758169 
L 126.567662 169.16004 
L 126.821552 168.781209 
L 127.329333 170.213096 
L 127.583223 170.146137 
L 127.837113 168.495526 
L 128.091004 167.580259 
L 128.344894 167.724947 
L 128.598784 167.249148 
L 128.852674 167.014912 
L 129.106565 166.530753 
L 129.360455 166.662117 
L 129.614345 166.030229 
L 130.122126 166.416639 
L 130.629906 166.06334 
L 131.137687 167.471753 
L 131.391577 168.071656 
L 131.645467 167.821339 
L 131.899358 167.904269 
L 132.153248 167.624388 
L 132.407138 167.671215 
L 132.661028 167.833639 
L 132.914919 167.659855 
L 133.168809 167.213682 
L 133.422699 167.659889 
L 133.676589 167.75437 
L 133.93048 167.596472 
L 134.69215 169.342231 
L 134.946041 169.822817 
L 135.199931 169.444158 
L 135.453821 169.897813 
L 135.707711 169.266954 
L 135.961602 168.955859 
L 136.215492 169.203888 
L 136.469382 168.446629 
L 136.723272 168.376404 
L 136.977163 168.848435 
L 137.231053 168.731322 
L 137.484943 168.768421 
L 137.992724 167.912942 
L 138.246614 168.180858 
L 138.500504 168.072547 
L 138.754394 168.311392 
L 139.008285 167.264972 
L 139.262175 167.751032 
L 139.516065 168.779893 
L 139.769955 167.506869 
L 140.277736 167.598063 
L 140.531626 167.79293 
L 140.785516 167.742781 
L 141.293297 166.453266 
L 141.547187 166.400457 
L 141.801077 167.101238 
L 142.054968 166.680365 
L 142.308858 166.803842 
L 142.562748 166.593814 
L 142.816638 167.033221 
L 143.070529 167.232906 
L 143.324419 168.065725 
L 143.578309 168.140696 
L 143.832199 167.795912 
L 144.08609 167.803341 
L 144.33998 167.444488 
L 144.59387 167.760168 
L 144.84776 167.306965 
L 145.101651 167.745714 
L 145.609431 167.113773 
L 145.863321 166.621693 
L 146.117212 166.990029 
L 146.371102 166.959718 
L 146.878883 167.186947 
L 147.640553 167.081395 
L 147.894444 167.883157 
L 148.148334 168.129019 
L 148.656114 168.121555 
L 148.910005 168.84685 
L 149.163895 168.418004 
L 149.417785 168.566816 
L 149.671675 168.314661 
L 149.925566 168.522671 
L 150.179456 168.098801 
L 150.433346 168.618752 
L 150.687236 168.580385 
L 150.941127 168.820162 
L 151.195017 169.364142 
L 151.448907 168.941944 
L 151.956688 169.470417 
L 152.210578 168.643754 
L 152.464468 168.79149 
L 152.718358 169.314769 
L 152.972249 169.485726 
L 153.226139 169.001258 
L 153.480029 169.143014 
L 153.733919 168.558205 
L 153.98781 168.586266 
L 154.2417 168.212506 
L 154.49559 167.609406 
L 155.003371 167.442679 
L 155.257261 166.549432 
L 155.511151 167.298986 
L 155.765041 167.349386 
L 156.018932 166.848494 
L 156.526712 167.584854 
L 156.780602 167.225269 
L 157.034493 167.095016 
L 157.288383 166.796555 
L 157.796163 166.587228 
L 158.050054 166.914061 
L 158.303944 166.65873 
L 158.557834 166.921693 
L 158.811724 166.262856 
L 159.065615 166.844949 
L 159.319505 166.833452 
L 159.573395 166.545327 
L 159.827285 166.572524 
L 160.081176 167.140658 
L 160.335066 166.708699 
L 160.588956 167.156845 
L 160.842846 167.071673 
L 161.096737 167.175415 
L 161.350627 167.798784 
L 161.604517 167.527093 
L 161.858407 167.872781 
L 162.112298 167.582088 
L 162.366188 167.589986 
L 163.127859 168.078124 
L 163.381749 167.624483 
L 163.88953 167.886882 
L 164.14342 168.296455 
L 164.39731 168.331006 
L 164.6512 168.559692 
L 164.905091 168.459507 
L 165.158981 168.815231 
L 165.412871 168.976484 
L 165.666761 168.917283 
L 165.920652 168.662951 
L 166.174542 168.940456 
L 166.682322 168.054593 
L 166.936213 167.924009 
L 167.190103 167.37173 
L 167.443993 167.896173 
L 167.697883 166.916761 
L 168.205664 166.118872 
L 168.459554 166.497264 
L 169.475115 165.903707 
L 169.729005 166.026483 
L 170.236786 165.315543 
L 170.998457 163.686617 
L 171.760127 164.514783 
L 172.014018 164.11094 
L 172.521798 163.699168 
L 172.775688 164.423817 
L 173.029579 164.502135 
L 173.537359 165.161412 
L 173.791249 165.126216 
L 174.29903 164.454226 
L 174.55292 164.601825 
L 174.80681 164.257751 
L 175.060701 164.354307 
L 175.314591 164.943934 
L 175.568481 164.889945 
L 176.837932 163.861612 
L 177.091823 164.006559 
L 177.345713 163.583717 
L 177.599603 163.531846 
L 177.853493 164.008563 
L 178.107384 163.901135 
L 178.361274 164.599031 
L 178.615164 164.454928 
L 178.869055 164.615382 
L 179.376835 163.68394 
L 180.646286 163.67101 
L 180.900177 164.250584 
L 181.154067 164.334245 
L 181.407957 164.539801 
L 181.661847 164.370161 
L 181.915738 164.425882 
L 182.169628 164.201374 
L 182.677408 164.081744 
L 182.931299 164.378096 
L 183.439079 163.672572 
L 183.692969 162.590736 
L 183.94686 162.713809 
L 184.20075 162.445691 
L 184.45464 162.491185 
L 184.70853 162.750181 
L 185.724091 162.177216 
L 186.231872 162.360122 
L 186.739652 161.08638 
L 186.993543 161.482417 
L 187.247433 161.626731 
L 187.501323 161.413802 
L 188.516884 161.379711 
L 188.770774 161.911207 
L 189.278555 161.601349 
L 189.532445 161.898475 
L 190.040226 161.586296 
L 190.294116 161.691561 
L 190.801896 160.997967 
L 191.055787 160.972671 
L 191.563567 161.500141 
L 191.817457 161.64342 
L 192.325238 161.434232 
L 193.086909 160.031559 
L 193.340799 160.558536 
L 193.594689 160.563107 
L 194.10247 160.926348 
L 194.35636 160.883315 
L 194.61025 161.101909 
L 194.86414 161.172661 
L 195.118031 160.849035 
L 195.371921 161.043923 
L 196.133592 160.701498 
L 196.387482 161.343298 
L 196.895263 161.380722 
L 197.149153 161.222293 
L 197.403043 160.545098 
L 197.656933 160.262272 
L 197.910824 160.172999 
L 198.164714 160.509249 
L 198.418604 159.997064 
L 199.180275 160.073193 
L 199.434165 159.75244 
L 199.688055 160.032121 
L 199.941946 159.882318 
L 200.195836 160.238624 
L 200.957507 160.203881 
L 201.465287 160.389654 
L 201.719177 160.404158 
L 202.226958 159.967124 
L 202.480848 160.081069 
L 202.734738 160.325671 
L 202.988629 160.031498 
L 203.242519 159.972564 
L 203.496409 160.269917 
L 204.00419 160.016434 
L 204.25808 160.532125 
L 204.51197 160.006332 
L 204.76586 160.109887 
L 205.019751 160.05916 
L 205.273641 160.154465 
L 205.527531 159.996729 
L 206.035312 160.046204 
L 206.289202 160.310071 
L 206.796982 159.675716 
L 207.050873 159.692967 
L 207.304763 160.01391 
L 207.558653 159.936645 
L 207.812543 159.611218 
L 208.066434 159.778773 
L 208.320324 160.228724 
L 208.828104 160.306911 
L 209.335885 159.75134 
L 210.097556 160.364288 
L 210.351446 160.189965 
L 210.859226 160.324489 
L 211.620897 159.440661 
L 211.874788 159.61969 
L 212.128678 159.586311 
L 212.890349 159.824723 
L 213.144239 160.120358 
L 213.398129 160.080062 
L 213.652019 160.438008 
L 213.90591 160.408792 
L 214.1598 160.498255 
L 214.66758 160.896867 
L 214.921471 160.570087 
L 215.175361 161.017217 
L 215.429251 160.424961 
L 215.683141 160.605625 
L 215.937032 160.181554 
L 216.444812 159.991939 
L 216.952593 160.439914 
L 217.206483 160.31651 
L 217.460373 160.640111 
L 217.968154 160.943679 
L 218.222044 161.101164 
L 218.475934 160.706682 
L 218.729824 160.878509 
L 218.983715 160.877386 
L 219.237605 161.144039 
L 219.491495 161.073671 
L 219.999276 160.481123 
L 220.253166 161.011203 
L 220.507056 161.271179 
L 220.760946 161.199694 
L 221.014837 161.415934 
L 221.268727 161.130891 
L 221.522617 161.536935 
L 221.776507 161.132553 
L 222.030398 161.520539 
L 222.284288 161.645074 
L 222.538178 161.489056 
L 222.792068 161.666818 
L 223.045959 161.625245 
L 223.299849 161.976188 
L 224.31541 162.264224 
L 224.5693 161.866951 
L 224.82319 161.889734 
L 225.077081 162.157513 
L 225.330971 162.207574 
L 225.838751 162.088211 
L 226.092642 161.743835 
L 226.600422 162.064936 
L 226.854312 162.138152 
L 227.108203 162.458533 
L 227.362093 162.145238 
L 227.615983 162.06471 
L 227.869874 161.504837 
L 228.885435 161.564055 
L 229.139325 161.054746 
L 229.393215 161.206595 
L 229.647105 160.893656 
L 229.900996 160.962169 
L 230.154886 161.382434 
L 230.662666 161.060698 
L 230.916557 161.070429 
L 231.170447 160.941765 
L 231.424337 161.287572 
L 231.678227 160.94381 
L 231.932118 160.910406 
L 232.439898 161.210161 
L 232.693788 160.8479 
L 232.947679 161.03581 
L 233.455459 160.772108 
L 234.21713 159.995456 
L 234.47102 159.997208 
L 235.232691 160.714276 
L 235.486581 160.778631 
L 235.994362 160.292133 
L 236.248252 160.381931 
L 237.517703 160.101794 
L 237.771593 159.844054 
L 238.787154 159.522066 
L 239.041045 159.727152 
L 239.294935 159.405989 
L 239.548825 159.549343 
L 240.056606 159.258825 
L 240.310496 159.452763 
L 240.564386 159.832371 
L 241.326057 159.923895 
L 241.579947 160.419299 
L 242.087728 160.521236 
L 242.341618 160.4371 
L 242.595508 160.521111 
L 242.849398 160.482217 
L 243.103289 160.773729 
L 243.357179 160.437772 
L 243.611069 160.701446 
L 243.864959 160.606861 
L 244.11885 160.63435 
L 244.37274 160.539911 
L 244.62663 160.199187 
L 244.880521 160.219237 
L 245.388301 160.506446 
L 245.642191 160.307492 
L 245.896082 160.368668 
L 246.403862 160.192271 
L 246.657752 159.759058 
L 246.911643 160.226154 
L 247.165533 160.044414 
L 247.673313 160.325194 
L 247.927204 159.893523 
L 248.434984 159.94148 
L 248.942765 159.632033 
L 249.196655 159.532193 
L 249.958326 160.245962 
L 250.973887 160.168926 
L 251.227777 159.889719 
L 251.735557 159.839574 
L 251.989448 159.921935 
L 252.243338 159.631026 
L 252.497228 160.204219 
L 253.258899 159.998507 
L 253.766679 160.156342 
L 254.02057 159.861914 
L 254.27446 160.181607 
L 254.52835 160.164776 
L 254.78224 160.019541 
L 255.543911 160.048004 
L 256.051692 160.339904 
L 256.559472 160.191823 
L 256.813362 160.083637 
L 257.067253 160.175277 
L 257.321143 160.054597 
L 257.575033 160.460083 
L 257.828923 160.572499 
L 258.336704 160.172242 
L 259.098375 160.387601 
L 259.352265 160.189968 
L 259.606155 160.138213 
L 260.113936 160.737948 
L 260.367826 160.840469 
L 260.621716 160.727037 
L 260.875607 160.9233 
L 261.129497 160.469068 
L 261.383387 160.475709 
L 261.637277 160.838395 
L 262.145058 160.727539 
L 262.652838 161.209492 
L 262.906729 161.038544 
L 263.160619 161.040054 
L 263.414509 161.242347 
L 263.668399 161.67265 
L 263.92229 161.559779 
L 264.17618 161.823625 
L 264.43007 161.466518 
L 264.937851 161.299578 
L 265.191741 161.355268 
L 266.207302 161.222323 
L 266.461192 160.750339 
L 266.715082 160.807401 
L 267.476753 160.073506 
L 267.984534 160.406579 
L 268.238424 160.383314 
L 268.492314 160.612779 
L 268.746204 160.396483 
L 269.000095 159.89568 
L 269.253985 160.073943 
L 269.507875 159.714012 
L 269.761765 159.744224 
L 270.015656 159.93143 
L 270.269546 159.604868 
L 270.777326 159.402664 
L 271.031217 159.499549 
L 271.285107 159.215197 
L 271.538997 159.285944 
L 272.300668 158.943244 
L 272.554558 159.192763 
L 273.062339 159.325966 
L 273.316229 159.514372 
L 273.570119 159.485326 
L 274.0779 159.779601 
L 274.33179 160.013279 
L 274.58568 159.895931 
L 274.83957 160.054458 
L 275.093461 160.022246 
L 275.347351 160.205902 
L 275.855131 159.781602 
L 276.109022 160.062782 
L 276.616802 160.166548 
L 277.378473 160.613665 
L 278.140144 160.238879 
L 278.647924 160.208804 
L 278.901815 160.401647 
L 279.917376 159.955769 
L 280.171266 160.078262 
L 280.425156 160.445191 
L 280.932937 160.214895 
L 281.186827 160.487976 
L 281.440717 160.314534 
L 282.202388 160.515677 
L 282.456278 160.232003 
L 282.964059 160.544858 
L 283.217949 160.36369 
L 283.471839 160.488454 
L 283.725729 160.299536 
L 283.97962 159.965885 
L 284.4874 160.114375 
L 284.74129 160.278772 
L 284.995181 160.291403 
L 285.249071 160.135872 
L 285.502961 160.310117 
L 285.756851 160.223899 
L 286.010742 160.298164 
L 286.772412 160.220431 
L 287.534083 160.536189 
L 287.787973 160.441147 
L 288.295754 160.508011 
L 288.549644 160.834113 
L 288.803534 160.852022 
L 289.057425 161.124045 
L 290.072986 161.079978 
L 290.326876 161.260374 
L 290.580766 160.900501 
L 291.088547 160.933347 
L 291.342437 161.182678 
L 292.104108 160.500002 
L 292.357998 160.694885 
L 292.865778 160.623603 
L 293.627449 160.390175 
L 294.13523 160.528205 
L 294.64301 160.280382 
L 294.896901 160.448649 
L 295.404681 160.309904 
L 295.658571 160.611995 
L 295.912462 160.481829 
L 296.420242 160.59403 
L 296.674132 160.93817 
L 296.928023 160.773586 
L 297.435803 161.042116 
L 297.689693 161.019935 
L 298.451364 161.490973 
L 298.705254 161.639197 
L 299.213035 161.498779 
L 299.466925 161.333974 
L 299.720815 161.499159 
L 299.974706 161.258549 
L 300.228596 161.562522 
L 300.990267 161.302302 
L 301.244157 161.441859 
L 301.751937 160.922768 
L 302.005828 160.841143 
L 303.021389 161.122116 
L 303.275279 161.361486 
L 303.783059 161.355263 
L 304.29084 161.454991 
L 304.79862 161.095823 
L 305.052511 161.007 
L 305.560291 160.966962 
L 305.560291 160.966962 
" clip-path="url(#p7454b6a4d9)" style="fill: none; stroke: #0f4d92; stroke-opacity: 0.9; stroke-width: 0.8; stroke-linecap: square"/>
   </g>
   <g id="line2d_30">
    <path d="M 39.242109 160.966962 
L 318.242109 160.966962 
" clip-path="url(#p7454b6a4d9)" style="fill: none; stroke-dasharray: 2.22,0.96; stroke-dashoffset: 0; stroke: #767676; stroke-width: 0.6"/>
   </g>
   <g id="patch_3">
    <path d="M 39.242109 192.376359 
L 39.242109 14.968359 
" style="fill: none; stroke: #000000; stroke-width: 0.8; stroke-linejoin: miter; stroke-linecap: square"/>
   </g>
   <g id="patch_4">
    <path d="M 39.242109 192.376359 
L 318.242109 192.376359 
" style="fill: none; stroke: #000000; stroke-width: 0.8; stroke-linejoin: miter; stroke-linecap: square"/>
   </g>
   <g id="text_17">
    <text style="font-weight: 700; font-size: 7.5px; font-family: 'Arial', 'Helvetica', 'DejaVu Sans', sans-serif; text-anchor: middle" x="178.742109" y="8.968359" transform="rotate(-0 178.742109 8.968359)">蒙特卡洛收敛曲线</text>
   </g>
   <g id="legend_1">
    <g id="line2d_31">
     <path d="M 262.525547 22.563047 
L 268.525547 22.563047 
L 274.525547 22.563047 
" style="fill: none; stroke-dasharray: 2.22,0.96; stroke-dashoffset: 0; stroke: #767676; stroke-width: 0.6"/>
    </g>
    <g id="text_18">
     <text style="font-size: 6px; font-family: 'Arial', 'Helvetica', 'DejaVu Sans', sans-serif; text-anchor: start" x="279.325547" y="24.663047" transform="rotate(-0 279.325547 24.663047)">最终: 22506元</text>
    </g>
   </g>
  </g>
 </g>
 <defs>
  <clipPath id="p7454b6a4d9">
   <rect x="39.242109" y="14.968359" width="279" height="177.408"/>
  </clipPath>
 </defs>
</svg>
