<?xml version="1.0" encoding="utf-8" standalone="no"?>
<!DOCTYPE svg PUBLIC "-//W3C//DTD SVG 1.1//EN"
  "http://www.w3.org/Graphics/SVG/1.1/DTD/svg11.dtd">
<svg xmlns:xlink="http://www.w3.org/1999/xlink" width="489.334531pt" height="215.233844pt" viewBox="0 0 489.334531 215.233844" xmlns="http://www.w3.org/2000/svg" version="1.1">
 <metadata>
  <rdf:RDF xmlns:dc="http://purl.org/dc/elements/1.1/" xmlns:cc="http://creativecommons.org/ns#" xmlns:rdf="http://www.w3.org/1999/02/22-rdf-syntax-ns#">
   <cc:Work>
    <dc:type rdf:resource="http://purl.org/dc/dcmitype/StillImage"/>
    <dc:date>2026-05-23T18:40:41.427917</dc:date>
    <dc:format>image/svg+xml</dc:format>
    <dc:creator>
     <cc:Agent>
      <dc:title>Matplotlib v3.10.0, https://matplotlib.org/</dc:title>
     </cc:Agent>
    </dc:creator>
   </cc:Work>
  </rdf:RDF>
 </metadata>
 <defs>
  <style type="text/css">*{stroke-linejoin: round; stroke-linecap: butt}</style>
 </defs>
 <g id="figure_1">
  <g id="patch_1">
   <path d="M 0 215.233844 
L 489.334531 215.233844 
L 489.334531 0 
L 0 0 
z
" style="fill: #ffffff"/>
  </g>
  <g id="axes_1">
   <g id="patch_2">
    <path d="M 46.025781 184.579156 
L 246.531406 184.579156 
L 246.531406 15.635156 
L 46.025781 15.635156 
z
" style="fill: #ffffff"/>
   </g>
   <g id="patch_3">
    <path d="M 55.139673 184.579156 
L 94.454502 184.579156 
L 94.454502 108.411139 
L 55.139673 108.411139 
z
" clip-path="url(#pe59af6c820)" style="fill: #555555; opacity: 0.85"/>
   </g>
   <g id="patch_4">
    <path d="M 126.62118 184.579156 
L 165.936008 184.579156 
L 165.936008 61.453847 
L 126.62118 61.453847 
z
" clip-path="url(#pe59af6c820)" style="fill: #0f4d92; opacity: 0.85"/>
   </g>
   <g id="patch_5">
    <path d="M 198.102686 184.579156 
L 237.417514 184.579156 
L 237.417514 23.680109 
L 198.102686 23.680109 
z
" clip-path="url(#pe59af6c820)" style="fill: #2e7d32; opacity: 0.85"/>
   </g>
   <g id="matplotlib.axis_1">
    <g id="xtick_1">
     <g id="line2d_1">
      <defs>
       <path id="me8b92f793e" d="M 0 0 
L 0 3.5 
" style="stroke: #000000; stroke-width: 0.8"/>
      </defs>
      <g>
       <use xlink:href="#me8b92f793e" x="74.797088" y="184.579156" style="stroke: #000000; stroke-width: 0.8"/>
      </g>
     </g>
     <g id="text_1">
      <!-- 基线 -->
      <g transform="translate(64.797088 199.626031) scale(0.1 -0.1)">
       <defs>
        <path id="SimHei-57fa" d="M 1800 4550 
Q 1800 4900 1775 5200 
L 2300 5200 
Q 2275 4875 2275 4550 
L 4075 4550 
Q 4075 4900 4050 5200 
L 4575 5200 
Q 4550 4875 4550 4550 
L 4925 4550 
Q 5200 4550 5625 4575 
L 5625 4175 
Q 5200 4200 4925 4200 
L 4550 4200 
L 4550 2225 
L 5100 2225 
Q 5600 2225 6025 2250 
L 6025 1800 
Q 5625 1850 5125 1850 
L 4500 1850 
Q 4875 1450 5225 1237 
Q 5575 1025 6125 900 
Q 5900 625 5850 350 
Q 5200 650 4737 1037 
Q 4275 1425 4000 1850 
L 2500 1850 
Q 2200 1375 1712 1000 
Q 1225 625 550 350 
Q 475 575 275 825 
Q 700 925 1212 1212 
Q 1725 1500 1950 1850 
L 1300 1850 
Q 850 1850 400 1800 
L 400 2250 
Q 850 2225 1300 2225 
L 1800 2225 
L 1800 4200 
Q 1200 4200 775 4175 
L 775 4575 
Q 1200 4550 1625 4550 
L 1800 4550 
z
M 2950 950 
Q 2950 1200 2925 1575 
L 3475 1575 
Q 3425 1300 3425 950 
L 3900 950 
Q 4250 950 4575 975 
L 4575 500 
Q 4250 550 3875 550 
L 3425 550 
L 3425 -100 
L 4500 -100 
Q 5075 -100 5550 -75 
L 5550 -525 
Q 5075 -500 4500 -500 
L 1800 -500 
Q 1300 -500 850 -525 
L 850 -75 
Q 1275 -100 1800 -100 
L 2950 -100 
L 2950 550 
L 2550 550 
Q 2125 550 1775 525 
L 1775 975 
Q 2125 950 2500 950 
L 2950 950 
z
M 4075 2225 
L 4075 2650 
L 2275 2650 
L 2275 2225 
L 4075 2225 
z
M 4075 3775 
L 4075 4200 
L 2275 4200 
L 2275 3775 
L 4075 3775 
z
M 4075 3025 
L 4075 3375 
L 2275 3375 
L 2275 3025 
L 4075 3025 
z
" transform="scale(0.015625)"/>
        <path id="SimHei-7ebf" d="M 3450 4300 
Q 3450 4675 3375 5125 
Q 3700 5100 4050 5050 
Q 3975 4900 3950 4562 
Q 3925 4225 3950 3600 
L 4800 3750 
Q 5225 3850 5650 3975 
L 5750 3500 
Q 5325 3450 4875 3375 
L 3975 3200 
Q 3975 2800 4025 2500 
L 5000 2675 
Q 5500 2775 5950 2925 
L 6025 2450 
Q 5575 2375 5075 2275 
L 4100 2100 
Q 4150 1600 4350 1175 
Q 4575 1350 4787 1575 
Q 5000 1800 5175 2075 
Q 5550 1775 5750 1675 
Q 5425 1525 5237 1337 
Q 5050 1150 4625 750 
Q 4925 250 5162 112 
Q 5400 -25 5500 100 
Q 5600 225 5675 625 
Q 5900 450 6200 350 
Q 5775 -750 5275 -537 
Q 4775 -325 4225 450 
Q 3875 175 3537 -62 
Q 3200 -300 2700 -550 
Q 2575 -300 2325 -100 
Q 2825 75 3175 275 
Q 3525 475 3975 850 
Q 3750 1350 3650 2025 
Q 2900 1900 2600 1800 
L 2525 2275 
Q 2825 2275 3550 2425 
Q 3500 2825 3500 3100 
Q 2825 2950 2575 2875 
L 2475 3350 
Q 2725 3350 3450 3500 
L 3450 4300 
z
M 1950 4875 
Q 1700 4650 1462 4237 
Q 1225 3825 825 3225 
Q 1425 3250 1650 3250 
Q 1875 3625 2050 4075 
Q 2300 3900 2600 3800 
Q 2350 3550 2087 3125 
Q 1825 2700 1175 1675 
Q 1850 1725 2375 1775 
Q 2300 1525 2300 1350 
Q 2125 1350 1525 1287 
Q 925 1225 550 1125 
Q 525 1375 400 1650 
Q 700 1725 950 2050 
Q 1200 2375 1475 2875 
Q 650 2825 425 2675 
Q 350 2950 200 3225 
Q 525 3450 825 3962 
Q 1125 4475 1375 5150 
Q 1625 4975 1950 4875 
z
M 2575 875 
Q 2550 600 2575 450 
Q 1950 325 1450 200 
Q 950 75 525 -75 
Q 450 200 250 475 
Q 950 550 1325 612 
Q 1700 675 2575 875 
z
M 4850 4025 
Q 4675 4300 4375 4675 
L 4775 4875 
Q 4875 4750 5275 4275 
Q 5025 4175 4850 4025 
z
" transform="scale(0.015625)"/>
       </defs>
       <use xlink:href="#SimHei-57fa"/>
       <use xlink:href="#SimHei-7ebf" transform="translate(100 0)"/>
      </g>
      <!-- (无干预) -->
      <g transform="translate(54.797088 210.016656) scale(0.1 -0.1)">
       <defs>
        <path id="SimHei-28" d="M 2975 -200 
L 2700 -475 
Q 2075 125 1762 775 
Q 1450 1425 1450 2250 
Q 1450 3075 1762 3725 
Q 2075 4375 2700 5000 
L 2975 4725 
Q 2400 4175 2112 3587 
Q 1825 3000 1825 2250 
Q 1825 1500 2112 912 
Q 2400 325 2975 -200 
z
" transform="scale(0.015625)"/>
        <path id="SimHei-65e0" d="M 4350 4725 
Q 4875 4725 5300 4750 
L 5300 4275 
Q 4925 4300 4350 4300 
L 3175 4300 
Q 3175 3475 3125 2800 
L 5050 2800 
Q 5500 2800 5875 2825 
L 5875 2350 
Q 5500 2375 5075 2375 
L 3950 2375 
L 3950 425 
Q 3950 100 4325 100 
L 5175 100 
Q 5450 100 5475 850 
Q 5725 700 6025 625 
Q 5900 -350 5450 -350 
L 4075 -350 
Q 3500 -325 3500 300 
L 3500 2375 
L 3075 2375 
Q 2875 1425 2587 937 
Q 2300 450 1925 112 
Q 1550 -225 800 -650 
Q 675 -375 375 -225 
Q 975 50 1350 337 
Q 1725 625 2062 1050 
Q 2400 1475 2600 2375 
L 1500 2375 
Q 875 2375 600 2350 
L 600 2825 
Q 875 2800 1500 2800 
L 2650 2800 
Q 2675 3550 2675 4300 
L 2000 4300 
Q 1500 4300 1075 4275 
L 1075 4750 
Q 1500 4725 2000 4725 
L 4350 4725 
z
" transform="scale(0.015625)"/>
        <path id="SimHei-5e72" d="M 4625 4775 
Q 5050 4775 5500 4800 
L 5500 4300 
Q 5050 4325 4625 4325 
L 3475 4325 
L 3475 2525 
L 5225 2525 
Q 5700 2525 6000 2550 
L 6000 2050 
Q 5700 2075 5225 2075 
L 3475 2075 
L 3475 325 
Q 3475 -75 3500 -625 
L 2925 -625 
Q 2950 -100 2950 325 
L 2950 2075 
L 1225 2075 
Q 775 2075 400 2050 
L 400 2550 
Q 775 2525 1225 2525 
L 2950 2525 
L 2950 4325 
L 1925 4325 
Q 1450 4325 925 4300 
L 925 4800 
Q 1450 4775 1800 4775 
L 4625 4775 
z
" transform="scale(0.015625)"/>
        <path id="SimHei-9884" d="M 5200 4800 
Q 5575 4800 5950 4825 
L 5950 4400 
Q 5575 4425 5200 4425 
L 4500 4425 
Q 4425 4050 4350 3600 
L 5725 3600 
Q 5700 3225 5700 2800 
L 5700 1725 
Q 5700 1300 5725 850 
L 5250 850 
L 5250 3225 
L 3550 3225 
L 3550 800 
L 3075 800 
Q 3100 1375 3100 1725 
L 3100 2775 
Q 3100 3175 3075 3600 
L 3900 3600 
Q 4000 4150 4000 4425 
L 3725 4425 
Q 3300 4425 2850 4400 
L 2850 4825 
Q 3325 4800 3725 4800 
L 5200 4800 
z
M 2600 1775 
Q 2350 1825 2150 1825 
Q 2250 2250 2300 2450 
L 1750 2450 
L 1750 125 
Q 1725 -300 1425 -400 
Q 1125 -500 750 -500 
Q 700 -225 575 25 
Q 1125 -25 1212 37 
Q 1300 100 1300 350 
L 1300 2450 
L 1025 2450 
Q 700 2450 350 2425 
L 350 2850 
Q 700 2825 1000 2825 
L 2850 2825 
Q 2725 2325 2600 1775 
z
M 4725 2875 
Q 4625 2575 4600 2100 
Q 4575 1625 4462 1037 
Q 4350 450 3962 62 
Q 3575 -325 2925 -675 
Q 2700 -500 2475 -350 
Q 3075 -125 3437 200 
Q 3800 525 3950 937 
Q 4100 1350 4137 1850 
Q 4175 2350 4175 2925 
L 4725 2875 
z
M 1625 2900 
Q 1275 3275 800 3650 
Q 925 3775 1075 3950 
Q 1250 3825 1425 3675 
Q 1750 4150 1950 4375 
L 1400 4375 
Q 900 4375 450 4350 
L 450 4775 
Q 900 4750 1375 4750 
L 2575 4750 
L 2575 4375 
Q 2200 4100 1725 3400 
L 1950 3200 
Q 1750 3025 1625 2900 
z
M 4775 725 
Q 5725 0 6075 -325 
Q 5850 -500 5725 -650 
Q 5400 -325 5137 -87 
Q 4875 150 4525 350 
Q 4650 525 4775 725 
z
" transform="scale(0.015625)"/>
        <path id="SimHei-29" d="M 1675 2250 
Q 1675 1425 1362 775 
Q 1050 125 425 -475 
L 150 -200 
Q 725 325 1012 912 
Q 1300 1500 1300 2250 
Q 1300 3000 1012 3587 
Q 725 4175 150 4725 
L 425 5000 
Q 1050 4375 1362 3725 
Q 1675 3075 1675 2250 
z
" transform="scale(0.015625)"/>
       </defs>
       <use xlink:href="#SimHei-28"/>
       <use xlink:href="#SimHei-65e0" transform="translate(50 0)"/>
       <use xlink:href="#SimHei-5e72" transform="translate(150 0)"/>
       <use xlink:href="#SimHei-9884" transform="translate(250 0)"/>
       <use xlink:href="#SimHei-29" transform="translate(350 0)"/>
      </g>
     </g>
    </g>
    <g id="xtick_2">
     <g id="line2d_2">
      <g>
       <use xlink:href="#me8b92f793e" x="146.278594" y="184.579156" style="stroke: #000000; stroke-width: 0.8"/>
      </g>
     </g>
     <g id="text_2">
      <!-- 基准 -->
      <g transform="translate(136.278594 199.430719) scale(0.1 -0.1)">
       <defs>
        <path id="SimHei-51c6" d="M 1600 2775 
Q 1900 3050 2275 3787 
Q 2650 4525 2800 5175 
Q 3075 5050 3400 4950 
Q 3250 4775 3000 4100 
L 4825 4100 
Q 5400 4100 5875 4125 
L 5875 3675 
Q 5375 3700 4825 3700 
L 4525 3700 
L 4525 2850 
Q 5250 2850 5700 2875 
L 5700 2425 
Q 5250 2450 4525 2450 
L 4525 1600 
Q 5275 1600 5700 1625 
L 5700 1200 
Q 5275 1225 4525 1225 
L 4525 375 
Q 5575 375 6050 400 
L 6050 -100 
Q 5575 -75 4975 -75 
L 2950 -75 
L 2950 -600 
L 2425 -600 
Q 2450 -150 2450 675 
L 2450 3050 
Q 2300 2775 2075 2400 
Q 1875 2650 1600 2775 
z
M 1675 2050 
Q 1425 1425 1200 850 
Q 975 275 775 -125 
Q 550 50 275 200 
Q 550 650 775 1112 
Q 1000 1575 1225 2300 
Q 1400 2125 1675 2050 
z
M 4025 1600 
L 4025 2450 
L 2950 2450 
L 2950 1600 
L 4025 1600 
z
M 4025 2850 
L 4025 3700 
L 2950 3700 
L 2950 2850 
L 4025 2850 
z
M 4025 375 
L 4025 1225 
L 2950 1225 
L 2950 375 
L 4025 375 
z
M 725 4775 
Q 850 4625 1162 4312 
Q 1475 4000 1750 3700 
Q 1525 3475 1375 3300 
Q 1100 3700 350 4450 
Q 550 4600 725 4775 
z
M 4150 5225 
Q 4600 4800 4800 4500 
Q 4625 4400 4400 4200 
Q 4225 4500 3775 4925 
Q 3925 5000 4150 5225 
z
" transform="scale(0.015625)"/>
       </defs>
       <use xlink:href="#SimHei-57fa"/>
       <use xlink:href="#SimHei-51c6" transform="translate(100 0)"/>
      </g>
      <!-- (主方案) -->
      <g transform="translate(126.278594 210.383844) scale(0.1 -0.1)">
       <defs>
        <path id="SimHei-4e3b" d="M 4750 3850 
Q 5150 3850 5750 3875 
L 5750 3400 
Q 5150 3425 4750 3425 
L 3425 3425 
L 3425 2175 
L 4425 2175 
Q 4825 2175 5375 2200 
L 5375 1725 
Q 4825 1750 4425 1750 
L 3425 1750 
L 3425 150 
L 5000 150 
Q 5450 150 6050 175 
L 6050 -300 
Q 5450 -275 5000 -275 
L 350 -275 
L 350 200 
Q 950 150 1425 150 
L 2900 150 
L 2900 1750 
L 1925 1750 
Q 1525 1750 975 1725 
L 975 2200 
Q 1575 2175 1925 2175 
L 2900 2175 
L 2900 3425 
L 1650 3425 
Q 1125 3425 625 3400 
L 625 3875 
Q 1175 3850 1675 3850 
L 4750 3850 
z
M 3175 3900 
Q 2875 4350 2400 4875 
Q 2650 5050 2800 5200 
Q 3325 4600 3625 4175 
Q 3475 4100 3175 3900 
z
" transform="scale(0.015625)"/>
        <path id="SimHei-65b9" d="M 425 3975 
Q 825 3950 1300 3950 
L 5025 3950 
Q 5625 3950 6000 3975 
L 6000 3475 
Q 5675 3500 5100 3500 
L 2525 3500 
Q 2525 3225 2500 2500 
L 5300 2500 
Q 5250 2175 5200 1550 
L 5050 175 
Q 5000 -275 4625 -412 
Q 4250 -550 3525 -625 
Q 3500 -300 3325 -50 
Q 3900 -75 4200 0 
Q 4500 75 4575 425 
L 4725 2050 
L 2475 2050 
Q 2375 1350 2162 875 
Q 1950 400 1575 0 
Q 1200 -400 825 -700 
Q 725 -550 375 -350 
Q 700 -175 1062 200 
Q 1425 575 1662 1050 
Q 1900 1525 1962 2100 
Q 2025 2675 2025 3500 
L 1325 3500 
Q 775 3500 425 3475 
L 425 3975 
z
M 3075 4075 
Q 2850 4575 2575 5000 
Q 2800 5125 3025 5275 
Q 3300 4850 3575 4350 
Q 3325 4250 3075 4075 
z
" transform="scale(0.015625)"/>
        <path id="SimHei-6848" d="M 3075 3950 
Q 3025 3975 2700 3600 
L 4925 3600 
Q 5250 3600 5675 3625 
L 5675 3225 
Q 5200 3250 4700 3250 
Q 4400 2850 4000 2525 
Q 4750 2325 5675 2050 
Q 5600 1900 5500 1600 
Q 4650 1950 3650 2250 
Q 3150 1975 2487 1837 
Q 1825 1700 1050 1675 
Q 1025 1875 825 2125 
Q 1450 2075 2025 2137 
Q 2600 2200 3050 2375 
Q 2425 2500 1400 2675 
Q 1775 3050 1925 3250 
L 1450 3250 
Q 1250 3250 725 3225 
L 725 3625 
Q 1175 3600 1450 3600 
L 2200 3600 
Q 2475 3925 2650 4250 
L 3075 3950 
z
M 3000 1400 
Q 3000 1550 2975 1775 
L 3450 1775 
Q 3425 1575 3425 1400 
L 4925 1400 
Q 5375 1400 5825 1425 
L 5825 1025 
Q 5375 1050 4925 1050 
L 3850 1050 
Q 4275 625 4862 350 
Q 5450 75 6125 -50 
Q 5950 -175 5800 -500 
Q 4950 -250 4350 150 
Q 3750 550 3425 1000 
L 3425 150 
Q 3425 -150 3450 -625 
L 2975 -625 
Q 3000 -150 3000 200 
L 3000 925 
Q 2625 525 2100 175 
Q 1575 -175 650 -550 
Q 500 -300 325 -125 
Q 975 0 1550 300 
Q 2125 600 2550 1050 
L 1425 1050 
Q 1125 1050 650 1025 
L 650 1425 
Q 1125 1400 1425 1400 
L 3000 1400 
z
M 3125 5275 
Q 3400 4850 3500 4600 
L 5600 4600 
Q 5575 4450 5575 4250 
Q 5575 4075 5600 3850 
L 5125 3850 
L 5125 4275 
L 1300 4275 
L 1300 3825 
L 825 3825 
Q 850 4025 850 4225 
Q 850 4450 825 4600 
L 3000 4600 
Q 2850 4875 2700 5050 
Q 3025 5175 3125 5275 
z
M 2100 2875 
Q 2875 2750 3525 2650 
Q 3850 2825 4175 3250 
L 2425 3250 
Q 2275 3075 2100 2875 
z
" transform="scale(0.015625)"/>
       </defs>
       <use xlink:href="#SimHei-28"/>
       <use xlink:href="#SimHei-4e3b" transform="translate(50 0)"/>
       <use xlink:href="#SimHei-65b9" transform="translate(150 0)"/>
       <use xlink:href="#SimHei-6848" transform="translate(250 0)"/>
       <use xlink:href="#SimHei-29" transform="translate(350 0)"/>
      </g>
     </g>
    </g>
    <g id="xtick_3">
     <g id="line2d_3">
      <g>
       <use xlink:href="#me8b92f793e" x="217.7601" y="184.579156" style="stroke: #000000; stroke-width: 0.8"/>
      </g>
     </g>
     <g id="text_3">
      <!-- 优化 -->
      <g transform="translate(207.7601 199.313531) scale(0.1 -0.1)">
       <defs>
        <path id="SimHei-4f18" d="M 4650 350 
Q 4625 100 4825 50 
Q 5025 0 5200 12 
Q 5375 25 5462 125 
Q 5550 225 5650 800 
Q 5825 625 6200 525 
Q 6050 -25 5912 -200 
Q 5775 -375 5475 -400 
L 4700 -400 
Q 4175 -400 4175 200 
L 4175 3050 
L 3850 3050 
Q 3725 600 2375 -550 
Q 2200 -325 1875 -225 
Q 3175 675 3350 3050 
L 2900 3050 
Q 2350 3050 1975 3025 
L 1975 3475 
Q 2350 3450 2900 3450 
L 3375 3450 
Q 3375 4700 3350 5150 
Q 3525 5100 3925 5075 
Q 3850 4700 3850 3450 
L 5200 3450 
Q 5475 3450 5925 3475 
L 5925 3025 
Q 5500 3050 5225 3050 
L 4650 3050 
L 4650 350 
z
M 200 2375 
Q 525 2700 1000 3612 
Q 1475 4525 1600 5200 
Q 1850 5050 2225 4925 
Q 2000 4700 1700 3825 
L 1700 600 
Q 1700 -150 1725 -525 
L 1200 -525 
Q 1225 -175 1225 575 
L 1225 2975 
Q 900 2425 550 1975 
Q 425 2200 200 2375 
z
M 4850 5025 
Q 5000 4800 5150 4587 
Q 5300 4375 5450 4200 
Q 5250 4075 5025 3875 
Q 4875 4175 4450 4725 
Q 4625 4850 4850 5025 
z
" transform="scale(0.015625)"/>
        <path id="SimHei-5316" d="M 3925 5025 
Q 3900 4900 3900 4400 
L 3900 2625 
Q 4375 3025 4775 3450 
Q 5175 3875 5400 4300 
Q 5600 4100 5900 3925 
Q 5700 3700 5225 3212 
Q 4750 2725 4487 2512 
Q 4225 2300 3900 2025 
L 3900 450 
Q 3900 50 4225 50 
L 5200 50 
Q 5400 75 5462 262 
Q 5525 450 5575 850 
Q 5800 650 6150 600 
Q 6000 -100 5825 -250 
Q 5650 -400 5350 -400 
L 3950 -400 
Q 3425 -400 3400 200 
L 3400 1675 
Q 3225 1525 2962 1350 
Q 2700 1175 2375 975 
Q 2225 1225 2025 1400 
Q 2350 1550 2737 1787 
Q 3125 2025 3400 2250 
L 3400 4500 
Q 3400 4800 3375 5025 
L 3925 5025 
z
M 2400 4850 
Q 2175 4550 2075 4337 
Q 1975 4125 1825 3775 
L 1825 675 
Q 1825 -75 1850 -550 
L 1325 -550 
Q 1350 -125 1350 650 
L 1350 3050 
Q 1125 2725 962 2525 
Q 800 2325 675 2175 
Q 500 2375 275 2525 
Q 625 2850 875 3212 
Q 1125 3575 1312 3912 
Q 1500 4250 1625 4575 
Q 1750 4900 1825 5100 
Q 1975 4975 2400 4850 
z
" transform="scale(0.015625)"/>
       </defs>
       <use xlink:href="#SimHei-4f18"/>
       <use xlink:href="#SimHei-5316" transform="translate(100 0)"/>
      </g>
      <!-- (混合) -->
      <g transform="translate(202.7601 209.985406) scale(0.1 -0.1)">
       <defs>
        <path id="SimHei-6df7" d="M 5350 5025 
Q 5325 4525 5325 4050 
L 5325 3425 
Q 5325 3000 5350 2525 
L 2150 2525 
Q 2175 3000 2175 3400 
L 2175 4050 
Q 2175 4500 2150 5025 
L 5350 5025 
z
M 4475 2250 
Q 4425 1750 4425 1600 
L 4425 1350 
Q 4575 1425 4850 1575 
Q 5125 1725 5375 2025 
Q 5575 1750 5775 1575 
Q 5525 1475 5212 1325 
Q 4900 1175 4425 925 
L 4425 150 
Q 4425 -100 4750 -100 
L 5150 -100 
Q 5375 -100 5450 75 
Q 5525 250 5575 650 
Q 5800 525 6050 475 
Q 5925 -125 5800 -287 
Q 5675 -450 5450 -450 
L 4400 -450 
Q 3975 -450 3975 -25 
L 3975 1600 
Q 3975 1850 3950 2250 
L 4475 2250 
z
M 1875 -75 
Q 2100 100 2150 450 
L 2150 1650 
Q 2150 1825 2125 2250 
L 2625 2250 
Q 2575 1850 2575 1600 
L 2975 1600 
Q 3250 1600 3625 1625 
L 3625 1225 
L 2575 1225 
L 2575 200 
Q 2775 275 3000 362 
Q 3225 450 3525 600 
Q 3550 400 3625 125 
Q 3300 25 2875 -150 
Q 2450 -325 2125 -550 
Q 2025 -325 1875 -75 
z
M 4875 2925 
L 4875 3575 
L 2625 3575 
L 2625 2925 
L 4875 2925 
z
M 4875 4000 
L 4875 4650 
L 2625 4650 
L 2625 4000 
L 4875 4000 
z
M 1700 1525 
Q 1550 1300 1237 700 
Q 925 100 650 -425 
Q 500 -300 200 -75 
Q 475 250 800 825 
Q 1125 1400 1300 1825 
Q 1475 1675 1700 1525 
z
M 550 3625 
Q 725 3500 1025 3300 
Q 1325 3100 1625 2875 
Q 1425 2650 1275 2425 
Q 975 2700 750 2875 
Q 525 3050 250 3225 
Q 400 3375 550 3625 
z
M 850 5200 
Q 1025 5050 1312 4837 
Q 1600 4625 1875 4350 
Q 1675 4175 1550 3925 
Q 1350 4150 1075 4400 
Q 800 4650 525 4800 
Q 650 4975 850 5200 
z
" transform="scale(0.015625)"/>
        <path id="SimHei-5408" d="M 5050 1800 
Q 5025 1550 5025 650 
Q 5025 -250 5050 -525 
L 4525 -525 
L 4525 -50 
L 1750 -50 
L 1750 -600 
L 1250 -600 
Q 1275 -300 1275 550 
Q 1275 1425 1250 1800 
L 5050 1800 
z
M 3375 4800 
Q 4100 3925 4550 3600 
Q 5000 3275 5375 3100 
Q 5750 2925 6100 2825 
Q 5850 2550 5775 2300 
Q 5275 2525 4875 2775 
Q 4475 3025 4062 3412 
Q 3650 3800 3125 4475 
Q 2650 3800 2187 3362 
Q 1725 2925 1400 2675 
Q 1075 2425 675 2175 
Q 625 2275 275 2575 
Q 800 2825 1275 3175 
Q 1750 3525 2225 4062 
Q 2700 4600 3000 5225 
Q 3275 5050 3500 4950 
L 3375 4800 
z
M 4525 350 
L 4525 1400 
L 1750 1400 
L 1750 350 
L 4525 350 
z
M 3925 2825 
Q 4325 2825 4625 2850 
L 4625 2375 
Q 4300 2400 3950 2400 
L 2550 2400 
Q 2025 2400 1700 2375 
L 1700 2850 
Q 2175 2825 2550 2825 
L 3925 2825 
z
" transform="scale(0.015625)"/>
       </defs>
       <use xlink:href="#SimHei-28"/>
       <use xlink:href="#SimHei-6df7" transform="translate(50 0)"/>
       <use xlink:href="#SimHei-5408" transform="translate(150 0)"/>
       <use xlink:href="#SimHei-29" transform="translate(250 0)"/>
      </g>
     </g>
    </g>
   </g>
   <g id="matplotlib.axis_2">
    <g id="ytick_1">
     <g id="line2d_4">
      <path d="M 46.025781 184.579156 
L 246.531406 184.579156 
" clip-path="url(#pe59af6c820)" style="fill: none; stroke-dasharray: 1.11,0.48; stroke-dashoffset: 0; stroke: #b0b0b0; stroke-opacity: 0.25; stroke-width: 0.3"/>
     </g>
     <g id="line2d_5">
      <defs>
       <path id="m0808ee7aa4" d="M 0 0 
L -3.5 0 
" style="stroke: #000000; stroke-width: 0.8"/>
      </defs>
      <g>
       <use xlink:href="#m0808ee7aa4" x="46.025781" y="184.579156" style="stroke: #000000; stroke-width: 0.8"/>
      </g>
     </g>
     <g id="text_4">
      <!-- 0 -->
      <g transform="translate(34.025781 188.016656) scale(0.1 -0.1)">
       <defs>
        <path id="SimHei-30" d="M 225 2537 
Q 250 3200 412 3587 
Q 575 3975 875 4225 
Q 1175 4475 1612 4475 
Q 2050 4475 2375 4112 
Q 2700 3750 2800 3200 
Q 2900 2650 2862 1937 
Q 2825 1225 2612 775 
Q 2400 325 1975 150 
Q 1550 -25 1125 187 
Q 700 400 525 750 
Q 350 1100 275 1487 
Q 200 1875 225 2537 
z
M 750 2687 
Q 675 2000 800 1462 
Q 925 925 1212 700 
Q 1500 475 1800 612 
Q 2100 750 2237 1162 
Q 2375 1575 2375 2062 
Q 2375 2550 2337 2950 
Q 2300 3350 2112 3675 
Q 1925 4000 1612 4012 
Q 1300 4025 1062 3700 
Q 825 3375 750 2687 
z
" transform="scale(0.015625)"/>
       </defs>
       <use xlink:href="#SimHei-30"/>
      </g>
     </g>
    </g>
    <g id="ytick_2">
     <g id="line2d_6">
      <path d="M 46.025781 161.931673 
L 246.531406 161.931673 
" clip-path="url(#pe59af6c820)" style="fill: none; stroke-dasharray: 1.11,0.48; stroke-dashoffset: 0; stroke: #b0b0b0; stroke-opacity: 0.25; stroke-width: 0.3"/>
     </g>
     <g id="line2d_7">
      <g>
       <use xlink:href="#m0808ee7aa4" x="46.025781" y="161.931673" style="stroke: #000000; stroke-width: 0.8"/>
      </g>
     </g>
     <g id="text_5">
      <!-- 10000 -->
      <g transform="translate(14.025781 165.369173) scale(0.1 -0.1)">
       <defs>
        <path id="SimHei-31" d="M 1400 3600 
Q 1075 3275 575 2975 
L 575 3450 
Q 1200 3875 1600 4450 
L 1900 4450 
L 1900 150 
L 1400 150 
L 1400 3600 
z
" transform="scale(0.015625)"/>
       </defs>
       <use xlink:href="#SimHei-31"/>
       <use xlink:href="#SimHei-30" transform="translate(50 0)"/>
       <use xlink:href="#SimHei-30" transform="translate(100 0)"/>
       <use xlink:href="#SimHei-30" transform="translate(150 0)"/>
       <use xlink:href="#SimHei-30" transform="translate(200 0)"/>
      </g>
     </g>
    </g>
    <g id="ytick_3">
     <g id="line2d_8">
      <path d="M 46.025781 139.284189 
L 246.531406 139.284189 
" clip-path="url(#pe59af6c820)" style="fill: none; stroke-dasharray: 1.11,0.48; stroke-dashoffset: 0; stroke: #b0b0b0; stroke-opacity: 0.25; stroke-width: 0.3"/>
     </g>
     <g id="line2d_9">
      <g>
       <use xlink:href="#m0808ee7aa4" x="46.025781" y="139.284189" style="stroke: #000000; stroke-width: 0.8"/>
      </g>
     </g>
     <g id="text_6">
      <!-- 20000 -->
      <g transform="translate(14.025781 142.721689) scale(0.1 -0.1)">
       <defs>
        <path id="SimHei-32" d="M 300 250 
Q 325 625 650 925 
Q 975 1225 1475 1862 
Q 1975 2500 2125 2850 
Q 2275 3200 2237 3450 
Q 2200 3700 2000 3862 
Q 1800 4025 1537 4000 
Q 1275 3975 1037 3800 
Q 800 3625 675 3275 
L 200 3350 
Q 400 3925 712 4187 
Q 1025 4450 1450 4475 
Q 1700 4500 1900 4462 
Q 2100 4425 2312 4287 
Q 2525 4150 2662 3875 
Q 2800 3600 2762 3212 
Q 2725 2825 2375 2287 
Q 2025 1750 1025 600 
L 2825 600 
L 2825 150 
L 300 150 
L 300 250 
z
" transform="scale(0.015625)"/>
       </defs>
       <use xlink:href="#SimHei-32"/>
       <use xlink:href="#SimHei-30" transform="translate(50 0)"/>
       <use xlink:href="#SimHei-30" transform="translate(100 0)"/>
       <use xlink:href="#SimHei-30" transform="translate(150 0)"/>
       <use xlink:href="#SimHei-30" transform="translate(200 0)"/>
      </g>
     </g>
    </g>
    <g id="ytick_4">
     <g id="line2d_10">
      <path d="M 46.025781 116.636705 
L 246.531406 116.636705 
" clip-path="url(#pe59af6c820)" style="fill: none; stroke-dasharray: 1.11,0.48; stroke-dashoffset: 0; stroke: #b0b0b0; stroke-opacity: 0.25; stroke-width: 0.3"/>
     </g>
     <g id="line2d_11">
      <g>
       <use xlink:href="#m0808ee7aa4" x="46.025781" y="116.636705" style="stroke: #000000; stroke-width: 0.8"/>
      </g>
     </g>
     <g id="text_7">
      <!-- 30000 -->
      <g transform="translate(14.025781 120.074205) scale(0.1 -0.1)">
       <defs>
        <path id="SimHei-33" d="M 250 1225 
L 700 1300 
Q 800 975 1025 762 
Q 1250 550 1587 562 
Q 1925 575 2125 837 
Q 2325 1100 2300 1437 
Q 2275 1775 2037 1962 
Q 1800 2150 1275 2225 
L 1275 2550 
Q 1800 2600 2037 2825 
Q 2275 3050 2250 3412 
Q 2225 3775 1925 3937 
Q 1625 4100 1287 3975 
Q 950 3850 750 3275 
L 300 3350 
Q 450 3800 712 4100 
Q 975 4400 1425 4450 
Q 1875 4500 2212 4337 
Q 2550 4175 2687 3837 
Q 2825 3500 2725 3100 
Q 2625 2700 2150 2400 
Q 2500 2250 2687 1950 
Q 2875 1650 2812 1162 
Q 2750 675 2375 375 
Q 2000 75 1525 87 
Q 1050 100 700 387 
Q 350 675 250 1225 
z
" transform="scale(0.015625)"/>
       </defs>
       <use xlink:href="#SimHei-33"/>
       <use xlink:href="#SimHei-30" transform="translate(50 0)"/>
       <use xlink:href="#SimHei-30" transform="translate(100 0)"/>
       <use xlink:href="#SimHei-30" transform="translate(150 0)"/>
       <use xlink:href="#SimHei-30" transform="translate(200 0)"/>
      </g>
     </g>
    </g>
    <g id="ytick_5">
     <g id="line2d_12">
      <path d="M 46.025781 93.989222 
L 246.531406 93.989222 
" clip-path="url(#pe59af6c820)" style="fill: none; stroke-dasharray: 1.11,0.48; stroke-dashoffset: 0; stroke: #b0b0b0; stroke-opacity: 0.25; stroke-width: 0.3"/>
     </g>
     <g id="line2d_13">
      <g>
       <use xlink:href="#m0808ee7aa4" x="46.025781" y="93.989222" style="stroke: #000000; stroke-width: 0.8"/>
      </g>
     </g>
     <g id="text_8">
      <!-- 40000 -->
      <g transform="translate(14.025781 97.426722) scale(0.1 -0.1)">
       <defs>
        <path id="SimHei-34" d="M 2000 1100 
L 75 1100 
L 75 1525 
L 2100 4450 
L 2475 4450 
L 2475 1525 
L 3075 1525 
L 3075 1100 
L 2475 1100 
L 2475 150 
L 2000 150 
L 2000 1100 
z
M 2000 1525 
L 2000 3500 
L 600 1525 
L 2000 1525 
z
" transform="scale(0.015625)"/>
       </defs>
       <use xlink:href="#SimHei-34"/>
       <use xlink:href="#SimHei-30" transform="translate(50 0)"/>
       <use xlink:href="#SimHei-30" transform="translate(100 0)"/>
       <use xlink:href="#SimHei-30" transform="translate(150 0)"/>
       <use xlink:href="#SimHei-30" transform="translate(200 0)"/>
      </g>
     </g>
    </g>
    <g id="ytick_6">
     <g id="line2d_14">
      <path d="M 46.025781 71.341738 
L 246.531406 71.341738 
" clip-path="url(#pe59af6c820)" style="fill: none; stroke-dasharray: 1.11,0.48; stroke-dashoffset: 0; stroke: #b0b0b0; stroke-opacity: 0.25; stroke-width: 0.3"/>
     </g>
     <g id="line2d_15">
      <g>
       <use xlink:href="#m0808ee7aa4" x="46.025781" y="71.341738" style="stroke: #000000; stroke-width: 0.8"/>
      </g>
     </g>
     <g id="text_9">
      <!-- 50000 -->
      <g transform="translate(14.025781 74.779238) scale(0.1 -0.1)">
       <defs>
        <path id="SimHei-35" d="M 550 1325 
Q 725 650 1150 575 
Q 1575 500 1837 662 
Q 2100 825 2212 1087 
Q 2325 1350 2312 1675 
Q 2300 2000 2137 2225 
Q 1975 2450 1725 2525 
Q 1475 2600 1162 2525 
Q 850 2450 650 2175 
L 225 2225 
Q 275 2375 700 4375 
L 2675 4375 
L 2675 3925 
L 1075 3925 
Q 950 3250 825 2850 
Q 1200 3025 1525 3012 
Q 1850 3000 2150 2862 
Q 2450 2725 2587 2487 
Q 2725 2250 2787 2012 
Q 2850 1775 2837 1500 
Q 2825 1225 2725 937 
Q 2625 650 2425 462 
Q 2225 275 1937 162 
Q 1650 50 1275 75 
Q 900 100 562 350 
Q 225 600 100 1200 
L 550 1325 
z
" transform="scale(0.015625)"/>
       </defs>
       <use xlink:href="#SimHei-35"/>
       <use xlink:href="#SimHei-30" transform="translate(50 0)"/>
       <use xlink:href="#SimHei-30" transform="translate(100 0)"/>
       <use xlink:href="#SimHei-30" transform="translate(150 0)"/>
       <use xlink:href="#SimHei-30" transform="translate(200 0)"/>
      </g>
     </g>
    </g>
    <g id="ytick_7">
     <g id="line2d_16">
      <path d="M 46.025781 48.694254 
L 246.531406 48.694254 
" clip-path="url(#pe59af6c820)" style="fill: none; stroke-dasharray: 1.11,0.48; stroke-dashoffset: 0; stroke: #b0b0b0; stroke-opacity: 0.25; stroke-width: 0.3"/>
     </g>
     <g id="line2d_17">
      <g>
       <use xlink:href="#m0808ee7aa4" x="46.025781" y="48.694254" style="stroke: #000000; stroke-width: 0.8"/>
      </g>
     </g>
     <g id="text_10">
      <!-- 60000 -->
      <g transform="translate(14.025781 52.131754) scale(0.1 -0.1)">
       <defs>
        <path id="SimHei-36" d="M 250 1612 
Q 275 1975 387 2225 
Q 500 2475 725 2850 
L 1750 4450 
L 2325 4450 
L 1275 2800 
Q 1950 2975 2350 2750 
Q 2750 2525 2887 2237 
Q 3025 1950 3037 1612 
Q 3050 1275 2937 950 
Q 2825 625 2537 362 
Q 2250 100 1737 75 
Q 1225 50 862 262 
Q 500 475 362 862 
Q 225 1250 250 1612 
z
M 1025 787 
Q 1250 550 1625 525 
Q 2000 500 2250 775 
Q 2500 1050 2500 1575 
Q 2500 2100 2187 2300 
Q 1875 2500 1487 2450 
Q 1100 2400 925 2075 
Q 750 1750 775 1387 
Q 800 1025 1025 787 
z
" transform="scale(0.015625)"/>
       </defs>
       <use xlink:href="#SimHei-36"/>
       <use xlink:href="#SimHei-30" transform="translate(50 0)"/>
       <use xlink:href="#SimHei-30" transform="translate(100 0)"/>
       <use xlink:href="#SimHei-30" transform="translate(150 0)"/>
       <use xlink:href="#SimHei-30" transform="translate(200 0)"/>
      </g>
     </g>
    </g>
    <g id="ytick_8">
     <g id="line2d_18">
      <path d="M 46.025781 26.046771 
L 246.531406 26.046771 
" clip-path="url(#pe59af6c820)" style="fill: none; stroke-dasharray: 1.11,0.48; stroke-dashoffset: 0; stroke: #b0b0b0; stroke-opacity: 0.25; stroke-width: 0.3"/>
     </g>
     <g id="line2d_19">
      <g>
       <use xlink:href="#m0808ee7aa4" x="46.025781" y="26.046771" style="stroke: #000000; stroke-width: 0.8"/>
      </g>
     </g>
     <g id="text_11">
      <!-- 70000 -->
      <g transform="translate(14.025781 29.484271) scale(0.1 -0.1)">
       <defs>
        <path id="SimHei-37" d="M 850 150 
Q 1300 2050 2425 3925 
L 275 3925 
L 275 4375 
L 2950 4375 
L 2950 3950 
Q 1775 2050 1400 150 
L 850 150 
z
" transform="scale(0.015625)"/>
       </defs>
       <use xlink:href="#SimHei-37"/>
       <use xlink:href="#SimHei-30" transform="translate(50 0)"/>
       <use xlink:href="#SimHei-30" transform="translate(100 0)"/>
       <use xlink:href="#SimHei-30" transform="translate(150 0)"/>
       <use xlink:href="#SimHei-30" transform="translate(200 0)"/>
      </g>
     </g>
    </g>
    <g id="text_12">
     <!-- 营收 (元) -->
     <g transform="translate(9.150781 115.857156) rotate(-90) scale(0.07 -0.07)">
      <defs>
       <path id="SimHei-8425" d="M 5375 1050 
Q 5325 650 5325 275 
Q 5325 -100 5375 -550 
L 4825 -550 
L 4825 -275 
L 1650 -275 
L 1650 -625 
L 1150 -625 
Q 1175 -250 1175 200 
Q 1175 675 1150 1050 
L 5375 1050 
z
M 4850 2700 
Q 4825 2400 4825 2050 
Q 4825 1725 4850 1400 
L 1575 1400 
Q 1600 1725 1600 2050 
Q 1600 2400 1575 2700 
L 4850 2700 
z
M 2550 5100 
Q 2525 4800 2525 4550 
L 3900 4550 
Q 3900 4775 3875 5125 
L 4425 5125 
Q 4400 4825 4400 4550 
L 5075 4550 
Q 5550 4550 6025 4575 
L 6025 4150 
Q 5625 4175 5075 4175 
L 4400 4175 
Q 4400 4025 4425 3675 
L 3900 3675 
L 3900 4175 
L 2525 4175 
L 2525 3675 
L 2000 3675 
Q 2025 4000 2025 4175 
L 1425 4175 
Q 925 4175 375 4150 
L 375 4575 
Q 925 4550 1425 4550 
L 2025 4550 
Q 2025 4775 2000 5100 
L 2550 5100 
z
M 5450 2400 
L 5450 3075 
L 975 3075 
L 975 2300 
L 475 2300 
Q 500 2525 500 2800 
Q 500 3100 475 3450 
L 5950 3450 
Q 5925 3200 5925 2925 
Q 5925 2675 5950 2400 
L 5450 2400 
z
M 4825 100 
L 4825 675 
L 1650 675 
L 1650 100 
L 4825 100 
z
M 4375 1775 
L 4375 2325 
L 2025 2325 
L 2025 1775 
L 4375 1775 
z
" transform="scale(0.015625)"/>
       <path id="SimHei-6536" d="M 4250 5050 
Q 4125 4850 3750 4050 
L 5150 4050 
Q 5675 4050 6125 4075 
L 6125 3600 
Q 5675 3625 5300 3625 
Q 5225 2625 5025 1975 
Q 4825 1325 4575 900 
Q 4900 500 5287 275 
Q 5675 50 6200 -75 
Q 5900 -275 5800 -550 
Q 5300 -350 4950 -100 
Q 4600 150 4275 525 
Q 3800 0 2775 -625 
Q 2650 -425 2300 -225 
Q 3275 150 3950 925 
Q 3775 1325 3612 1787 
Q 3450 2250 3250 3000 
Q 2975 2450 2825 2275 
Q 2650 2400 2425 2525 
Q 2775 3025 3137 3837 
Q 3500 4650 3625 5250 
Q 3925 5125 4250 5050 
z
M 975 4275 
Q 925 3950 925 3450 
L 925 1575 
L 1775 1725 
L 1775 4425 
Q 1775 4775 1750 5150 
L 2250 5150 
Q 2225 4850 2225 4450 
L 2225 300 
Q 2225 -50 2250 -550 
L 1750 -550 
Q 1775 -25 1775 350 
L 1775 1350 
Q 625 1050 500 925 
Q 375 1125 225 1350 
Q 450 1475 450 1800 
L 450 3575 
Q 450 3925 425 4275 
L 975 4275 
z
M 3725 3150 
Q 3800 2700 3962 2212 
Q 4125 1725 4300 1375 
Q 4725 2150 4825 3625 
L 3575 3625 
Q 3400 3275 3300 3100 
L 3725 3150 
z
" transform="scale(0.015625)"/>
       <path id="SimHei-20" transform="scale(0.015625)"/>
       <path id="SimHei-5143" d="M 4900 3175 
Q 5200 3175 5650 3200 
L 5650 2675 
Q 5200 2700 4900 2700 
L 4075 2700 
L 4075 425 
Q 4075 75 4450 75 
L 5175 75 
Q 5425 75 5525 775 
Q 5800 600 6075 550 
Q 5950 -325 5300 -375 
L 4150 -375 
Q 3575 -375 3575 225 
L 3575 2700 
L 2675 2700 
Q 2775 400 900 -600 
Q 725 -375 400 -175 
Q 2250 500 2150 2700 
L 1500 2700 
Q 1125 2700 650 2675 
L 650 3200 
Q 1125 3175 1500 3175 
L 4900 3175 
z
M 4450 4775 
Q 4675 4775 5150 4800 
L 5150 4325 
Q 4700 4350 4450 4350 
L 1875 4350 
Q 1575 4350 1200 4325 
L 1200 4800 
Q 1575 4775 1850 4775 
L 4450 4775 
z
" transform="scale(0.015625)"/>
      </defs>
      <use xlink:href="#SimHei-8425"/>
      <use xlink:href="#SimHei-6536" transform="translate(100 0)"/>
      <use xlink:href="#SimHei-20" transform="translate(200 0)"/>
      <use xlink:href="#SimHei-28" transform="translate(250 0)"/>
      <use xlink:href="#SimHei-5143" transform="translate(300 0)"/>
      <use xlink:href="#SimHei-29" transform="translate(400 0)"/>
     </g>
    </g>
   </g>
   <g id="line2d_20">
    <path d="M 46.025781 26.046771 
L 246.531406 26.046771 
" clip-path="url(#pe59af6c820)" style="fill: none; stroke-dasharray: 2.96,1.28; stroke-dashoffset: 0; stroke: #b64342; stroke-opacity: 0.6; stroke-width: 0.8"/>
   </g>
   <g id="patch_6">
    <path d="M 46.025781 184.579156 
L 46.025781 15.635156 
" style="fill: none; stroke: #000000; stroke-width: 0.8; stroke-linejoin: miter; stroke-linecap: square"/>
   </g>
   <g id="patch_7">
    <path d="M 246.531406 184.579156 
L 246.531406 15.635156 
" style="fill: none; stroke: #000000; stroke-width: 0.8; stroke-linejoin: miter; stroke-linecap: square"/>
   </g>
   <g id="patch_8">
    <path d="M 46.025781 184.579156 
L 246.531406 184.579156 
" style="fill: none; stroke: #000000; stroke-width: 0.8; stroke-linejoin: miter; stroke-linecap: square"/>
   </g>
   <g id="patch_9">
    <path d="M 46.025781 15.635156 
L 246.531406 15.635156 
" style="fill: none; stroke: #000000; stroke-width: 0.8; stroke-linejoin: miter; stroke-linecap: square"/>
   </g>
   <g id="text_13">
    <!-- 33,632 -->
    <g transform="translate(65.797088 106.599341) scale(0.06 -0.06)">
     <defs>
      <path id="SimHei-2c" d="M 1100 125 
L 775 -550 
L 525 -550 
L 775 125 
L 525 125 
L 525 675 
L 1100 675 
L 1100 125 
z
" transform="scale(0.015625)"/>
     </defs>
     <use xlink:href="#SimHei-33"/>
     <use xlink:href="#SimHei-33" transform="translate(50 0)"/>
     <use xlink:href="#SimHei-2c" transform="translate(100 0)"/>
     <use xlink:href="#SimHei-36" transform="translate(150 0)"/>
     <use xlink:href="#SimHei-33" transform="translate(200 0)"/>
     <use xlink:href="#SimHei-32" transform="translate(250 0)"/>
    </g>
   </g>
   <g id="text_14">
    <!-- 54,366 -->
    <g transform="translate(137.278594 59.642048) scale(0.06 -0.06)">
     <use xlink:href="#SimHei-35"/>
     <use xlink:href="#SimHei-34" transform="translate(50 0)"/>
     <use xlink:href="#SimHei-2c" transform="translate(100 0)"/>
     <use xlink:href="#SimHei-33" transform="translate(150 0)"/>
     <use xlink:href="#SimHei-36" transform="translate(200 0)"/>
     <use xlink:href="#SimHei-36" transform="translate(250 0)"/>
    </g>
   </g>
   <g id="text_15">
    <!-- 71,045 -->
    <g transform="translate(208.7601 21.86831) scale(0.06 -0.06)">
     <use xlink:href="#SimHei-37"/>
     <use xlink:href="#SimHei-31" transform="translate(50 0)"/>
     <use xlink:href="#SimHei-2c" transform="translate(100 0)"/>
     <use xlink:href="#SimHei-30" transform="translate(150 0)"/>
     <use xlink:href="#SimHei-34" transform="translate(200 0)"/>
     <use xlink:href="#SimHei-35" transform="translate(250 0)"/>
    </g>
   </g>
   <g id="text_16">
    <!-- 30天期望总营收 -->
    <g transform="translate(120.028594 9.635156) scale(0.075 -0.075)">
     <defs>
      <path id="SimHei-5929" d="M 4475 4900 
Q 4925 4900 5375 4925 
L 5375 4400 
Q 4925 4425 4475 4425 
L 3450 4425 
L 3450 3075 
L 5050 3075 
Q 5525 3075 5900 3100 
L 5900 2575 
Q 5550 2600 5075 2600 
L 3525 2600 
Q 3875 1650 4525 975 
Q 5175 300 6200 50 
Q 5850 -225 5775 -450 
Q 5000 -175 4350 412 
Q 3700 1000 3225 2100 
Q 2925 1075 2275 462 
Q 1625 -150 650 -575 
Q 550 -325 225 -100 
Q 950 100 1750 737 
Q 2550 1375 2875 2600 
L 1500 2600 
Q 950 2600 575 2575 
L 575 3100 
Q 975 3075 1500 3075 
L 2950 3075 
L 2950 4425 
L 1900 4425 
Q 1375 4425 1000 4400 
L 1000 4925 
Q 1400 4900 1900 4900 
L 4475 4900 
z
" transform="scale(0.015625)"/>
      <path id="SimHei-671f" d="M 4900 -25 
Q 5475 -100 5425 175 
L 5425 1575 
L 4325 1575 
Q 4275 975 4050 425 
Q 3825 -125 3400 -600 
Q 3225 -375 2925 -275 
Q 3350 150 3562 625 
Q 3775 1100 3812 1575 
Q 3850 2050 3850 3125 
Q 3850 4225 3825 4875 
L 5950 4875 
Q 5925 4400 5925 3725 
L 5925 50 
Q 5925 -300 5700 -425 
Q 5475 -550 5100 -600 
Q 5100 -325 4900 -25 
z
M 950 4300 
Q 950 4675 925 5125 
L 1450 5125 
Q 1425 4625 1425 4300 
L 2550 4300 
Q 2550 4775 2525 5125 
L 3075 5125 
Q 3050 4700 3050 4300 
Q 3225 4300 3500 4325 
L 3500 3900 
Q 3250 3925 3050 3925 
L 3050 1550 
Q 3250 1550 3500 1575 
L 3500 1150 
Q 3025 1175 2575 1175 
L 1225 1175 
Q 675 1175 275 1150 
L 275 1575 
Q 650 1550 950 1550 
L 950 3925 
Q 725 3925 425 3900 
L 425 4325 
Q 700 4300 950 4300 
z
M 5425 3375 
L 5425 4500 
L 4350 4500 
L 4350 3375 
L 5425 3375 
z
M 5425 1950 
L 5425 3000 
L 4350 3000 
L 4350 1950 
L 5425 1950 
z
M 1600 725 
Q 1425 650 1162 287 
Q 900 -75 650 -350 
Q 400 -175 225 -75 
Q 450 100 700 412 
Q 950 725 1100 1025 
L 1600 725 
z
M 2550 3375 
L 2550 3925 
L 1425 3925 
L 1425 3375 
L 2550 3375 
z
M 2550 1550 
L 2550 2100 
L 1425 2100 
L 1425 1550 
L 2550 1550 
z
M 2550 2475 
L 2550 3000 
L 1425 3000 
L 1425 2475 
L 2550 2475 
z
M 2850 -75 
Q 2450 525 2225 725 
Q 2375 825 2550 1025 
Q 2850 725 3250 275 
Q 3050 125 2850 -75 
z
" transform="scale(0.015625)"/>
      <path id="SimHei-671b" d="M 4875 1925 
Q 5275 1925 5700 1950 
L 5700 1500 
Q 5275 1525 4875 1525 
L 3450 1525 
L 3450 950 
L 4525 950 
Q 4975 950 5500 975 
L 5500 525 
Q 4975 550 4525 550 
L 3450 550 
L 3450 -50 
L 5200 -50 
Q 5575 -50 6025 -25 
L 6025 -475 
Q 5600 -450 5200 -450 
L 1325 -450 
Q 875 -450 425 -475 
L 425 -25 
Q 875 -50 1325 -50 
L 2975 -50 
L 2975 550 
L 1950 550 
Q 1475 550 950 525 
L 950 975 
Q 1475 950 1950 950 
L 2975 950 
L 2975 1525 
L 1700 1525 
Q 1225 1525 725 1500 
L 725 1950 
Q 1225 1925 1700 1925 
L 4875 1925 
z
M 5625 5000 
Q 5600 4475 5600 3975 
L 5600 2500 
Q 5625 2050 4725 2000 
Q 4700 2225 4525 2525 
Q 4975 2500 5062 2525 
Q 5150 2550 5150 2725 
L 5150 2975 
L 3725 2975 
Q 3575 2475 3100 1975 
Q 2925 2150 2675 2300 
Q 3025 2600 3175 2887 
Q 3325 3175 3362 3500 
Q 3400 3825 3400 4200 
Q 3400 4575 3375 5000 
L 5625 5000 
z
M 975 2475 
Q 1000 3050 1000 3400 
L 1000 4075 
Q 750 4075 400 4050 
L 400 4500 
Q 850 4475 1250 4475 
L 1650 4475 
Q 1575 4725 1450 5125 
Q 1700 5150 1950 5225 
Q 2025 4925 2150 4475 
Q 2475 4475 3025 4500 
L 3025 4050 
Q 2475 4075 2125 4075 
L 1450 4075 
L 1450 3025 
L 2825 3275 
L 2825 2850 
L 975 2475 
z
M 5150 3375 
L 5150 3825 
L 3825 3825 
L 3800 3375 
L 5150 3375 
z
M 5150 4225 
L 5150 4625 
L 3850 4625 
L 3850 4225 
L 5150 4225 
z
" transform="scale(0.015625)"/>
      <path id="SimHei-603b" d="M 4550 4850 
Q 4375 4650 4025 3900 
L 5100 3900 
Q 5075 3425 5075 2950 
Q 5075 2500 5100 2025 
L 1175 2025 
Q 1200 2550 1200 3000 
Q 1200 3475 1175 3900 
L 2175 3900 
Q 1900 4350 1525 4750 
Q 1700 4850 1875 5050 
Q 2350 4550 2575 4200 
Q 2400 4075 2250 3900 
L 3550 3900 
Q 3875 4700 3950 5100 
Q 4300 4925 4550 4850 
z
M 4600 2450 
L 4600 3525 
L 1650 3525 
L 1650 2450 
L 4600 2450 
z
M 2275 1450 
Q 2250 1050 2250 675 
Q 2250 300 2262 112 
Q 2275 -75 2675 -75 
L 4000 -75 
Q 4325 -75 4400 550 
Q 4650 400 4925 325 
Q 4775 -200 4562 -337 
Q 4350 -475 4000 -450 
L 2325 -450 
Q 1850 -450 1825 -175 
Q 1800 100 1800 525 
Q 1800 975 1775 1450 
L 2275 1450 
z
M 1350 1325 
Q 1050 300 825 -250 
Q 625 -150 375 -50 
Q 675 525 900 1500 
Q 1100 1425 1350 1325 
z
M 4950 1575 
Q 5700 825 6000 450 
Q 5825 275 5625 100 
Q 5375 450 4600 1275 
Q 4750 1375 4950 1575 
z
M 3350 575 
Q 2975 1175 2675 1500 
Q 2825 1650 3000 1800 
Q 3225 1575 3750 875 
Q 3525 775 3350 575 
z
" transform="scale(0.015625)"/>
     </defs>
     <use xlink:href="#SimHei-33"/>
     <use xlink:href="#SimHei-30" transform="translate(50 0)"/>
     <use xlink:href="#SimHei-5929" transform="translate(100 0)"/>
     <use xlink:href="#SimHei-671f" transform="translate(200 0)"/>
     <use xlink:href="#SimHei-671b" transform="translate(300 0)"/>
     <use xlink:href="#SimHei-603b" transform="translate(400 0)"/>
     <use xlink:href="#SimHei-8425" transform="translate(500 0)"/>
     <use xlink:href="#SimHei-6536" transform="translate(600 0)"/>
    </g>
   </g>
  </g>
  <g id="axes_2">
   <g id="patch_10">
    <path d="M 285.228906 184.579156 
L 485.734531 184.579156 
L 485.734531 15.635156 
L 285.228906 15.635156 
z
" style="fill: #ffffff"/>
   </g>
   <g id="patch_11">
    <path d="M 294.342798 184.579156 
L 333.657627 184.579156 
L 333.657627 83.483294 
L 294.342798 83.483294 
z
" clip-path="url(#p374bfc4e05)" style="fill: #555555; opacity: 0.85"/>
   </g>
   <g id="patch_12">
    <path d="M 365.824305 184.579156 
L 405.139133 184.579156 
L 405.139133 82.059409 
L 365.824305 82.059409 
z
" clip-path="url(#p374bfc4e05)" style="fill: #0f4d92; opacity: 0.85"/>
   </g>
   <g id="patch_13">
    <path d="M 437.305811 184.579156 
L 476.620639 184.579156 
L 476.620639 23.680109 
L 437.305811 23.680109 
z
" clip-path="url(#p374bfc4e05)" style="fill: #2e7d32; opacity: 0.85"/>
   </g>
   <g id="matplotlib.axis_3">
    <g id="xtick_4">
     <g id="line2d_21">
      <g>
       <use xlink:href="#me8b92f793e" x="314.000213" y="184.579156" style="stroke: #000000; stroke-width: 0.8"/>
      </g>
     </g>
     <g id="text_17">
      <!-- 基线 -->
      <g transform="translate(304.000213 199.626031) scale(0.1 -0.1)">
       <use xlink:href="#SimHei-57fa"/>
       <use xlink:href="#SimHei-7ebf" transform="translate(100 0)"/>
      </g>
      <!-- (无干预) -->
      <g transform="translate(294.000213 210.016656) scale(0.1 -0.1)">
       <use xlink:href="#SimHei-28"/>
       <use xlink:href="#SimHei-65e0" transform="translate(50 0)"/>
       <use xlink:href="#SimHei-5e72" transform="translate(150 0)"/>
       <use xlink:href="#SimHei-9884" transform="translate(250 0)"/>
       <use xlink:href="#SimHei-29" transform="translate(350 0)"/>
      </g>
     </g>
    </g>
    <g id="xtick_5">
     <g id="line2d_22">
      <g>
       <use xlink:href="#me8b92f793e" x="385.481719" y="184.579156" style="stroke: #000000; stroke-width: 0.8"/>
      </g>
     </g>
     <g id="text_18">
      <!-- 基准 -->
      <g transform="translate(375.481719 199.430719) scale(0.1 -0.1)">
       <use xlink:href="#SimHei-57fa"/>
       <use xlink:href="#SimHei-51c6" transform="translate(100 0)"/>
      </g>
      <!-- (主方案) -->
      <g transform="translate(365.481719 210.383844) scale(0.1 -0.1)">
       <use xlink:href="#SimHei-28"/>
       <use xlink:href="#SimHei-4e3b" transform="translate(50 0)"/>
       <use xlink:href="#SimHei-65b9" transform="translate(150 0)"/>
       <use xlink:href="#SimHei-6848" transform="translate(250 0)"/>
       <use xlink:href="#SimHei-29" transform="translate(350 0)"/>
      </g>
     </g>
    </g>
    <g id="xtick_6">
     <g id="line2d_23">
      <g>
       <use xlink:href="#me8b92f793e" x="456.963225" y="184.579156" style="stroke: #000000; stroke-width: 0.8"/>
      </g>
     </g>
     <g id="text_19">
      <!-- 优化 -->
      <g transform="translate(446.963225 199.313531) scale(0.1 -0.1)">
       <use xlink:href="#SimHei-4f18"/>
       <use xlink:href="#SimHei-5316" transform="translate(100 0)"/>
      </g>
      <!-- (混合) -->
      <g transform="translate(441.963225 209.985406) scale(0.1 -0.1)">
       <use xlink:href="#SimHei-28"/>
       <use xlink:href="#SimHei-6df7" transform="translate(50 0)"/>
       <use xlink:href="#SimHei-5408" transform="translate(150 0)"/>
       <use xlink:href="#SimHei-29" transform="translate(250 0)"/>
      </g>
     </g>
    </g>
   </g>
   <g id="matplotlib.axis_4">
    <g id="ytick_9">
     <g id="line2d_24">
      <path d="M 285.228906 184.579156 
L 485.734531 184.579156 
" clip-path="url(#p374bfc4e05)" style="fill: none; stroke-dasharray: 1.11,0.48; stroke-dashoffset: 0; stroke: #b0b0b0; stroke-opacity: 0.25; stroke-width: 0.3"/>
     </g>
     <g id="line2d_25">
      <g>
       <use xlink:href="#m0808ee7aa4" x="285.228906" y="184.579156" style="stroke: #000000; stroke-width: 0.8"/>
      </g>
     </g>
     <g id="text_20">
      <!-- 0 -->
      <g transform="translate(273.228906 188.016656) scale(0.1 -0.1)">
       <use xlink:href="#SimHei-30"/>
      </g>
     </g>
    </g>
    <g id="ytick_10">
     <g id="line2d_26">
      <path d="M 285.228906 156.101449 
L 485.734531 156.101449 
" clip-path="url(#p374bfc4e05)" style="fill: none; stroke-dasharray: 1.11,0.48; stroke-dashoffset: 0; stroke: #b0b0b0; stroke-opacity: 0.25; stroke-width: 0.3"/>
     </g>
     <g id="line2d_27">
      <g>
       <use xlink:href="#m0808ee7aa4" x="285.228906" y="156.101449" style="stroke: #000000; stroke-width: 0.8"/>
      </g>
     </g>
     <g id="text_21">
      <!-- 2 -->
      <g transform="translate(273.228906 159.538949) scale(0.1 -0.1)">
       <use xlink:href="#SimHei-32"/>
      </g>
     </g>
    </g>
    <g id="ytick_11">
     <g id="line2d_28">
      <path d="M 285.228906 127.623741 
L 485.734531 127.623741 
" clip-path="url(#p374bfc4e05)" style="fill: none; stroke-dasharray: 1.11,0.48; stroke-dashoffset: 0; stroke: #b0b0b0; stroke-opacity: 0.25; stroke-width: 0.3"/>
     </g>
     <g id="line2d_29">
      <g>
       <use xlink:href="#m0808ee7aa4" x="285.228906" y="127.623741" style="stroke: #000000; stroke-width: 0.8"/>
      </g>
     </g>
     <g id="text_22">
      <!-- 4 -->
      <g transform="translate(273.228906 131.061241) scale(0.1 -0.1)">
       <use xlink:href="#SimHei-34"/>
      </g>
     </g>
    </g>
    <g id="ytick_12">
     <g id="line2d_30">
      <path d="M 285.228906 99.146034 
L 485.734531 99.146034 
" clip-path="url(#p374bfc4e05)" style="fill: none; stroke-dasharray: 1.11,0.48; stroke-dashoffset: 0; stroke: #b0b0b0; stroke-opacity: 0.25; stroke-width: 0.3"/>
     </g>
     <g id="line2d_31">
      <g>
       <use xlink:href="#m0808ee7aa4" x="285.228906" y="99.146034" style="stroke: #000000; stroke-width: 0.8"/>
      </g>
     </g>
     <g id="text_23">
      <!-- 6 -->
      <g transform="translate(273.228906 102.583534) scale(0.1 -0.1)">
       <use xlink:href="#SimHei-36"/>
      </g>
     </g>
    </g>
    <g id="ytick_13">
     <g id="line2d_32">
      <path d="M 285.228906 70.668326 
L 485.734531 70.668326 
" clip-path="url(#p374bfc4e05)" style="fill: none; stroke-dasharray: 1.11,0.48; stroke-dashoffset: 0; stroke: #b0b0b0; stroke-opacity: 0.25; stroke-width: 0.3"/>
     </g>
     <g id="line2d_33">
      <g>
       <use xlink:href="#m0808ee7aa4" x="285.228906" y="70.668326" style="stroke: #000000; stroke-width: 0.8"/>
      </g>
     </g>
     <g id="text_24">
      <!-- 8 -->
      <g transform="translate(273.228906 74.105826) scale(0.1 -0.1)">
       <defs>
        <path id="SimHei-38" d="M 175 1375 
Q 175 1675 325 1962 
Q 475 2250 825 2425 
Q 525 2600 425 2812 
Q 325 3025 312 3300 
Q 300 3575 387 3775 
Q 475 3975 650 4150 
Q 825 4325 1037 4387 
Q 1250 4450 1500 4450 
Q 1750 4450 1950 4400 
Q 2150 4350 2375 4187 
Q 2600 4025 2700 3725 
Q 2800 3425 2687 3025 
Q 2575 2625 2100 2400 
Q 2525 2275 2700 2012 
Q 2875 1750 2875 1375 
Q 2875 1000 2762 775 
Q 2650 550 2512 400 
Q 2375 250 2137 162 
Q 1900 75 1537 75 
Q 1175 75 912 162 
Q 650 250 475 425 
Q 300 600 237 837 
Q 175 1075 175 1375 
z
M 687 1400 
Q 675 1100 787 875 
Q 900 650 1200 587 
Q 1500 525 1825 600 
Q 2150 675 2275 950 
Q 2400 1225 2362 1500 
Q 2325 1775 2050 1962 
Q 1775 2150 1450 2125 
Q 1125 2100 912 1900 
Q 700 1700 687 1400 
z
M 775 3350 
Q 775 3100 950 2875 
Q 1125 2650 1500 2650 
Q 1875 2650 2062 2875 
Q 2250 3100 2237 3412 
Q 2225 3725 2012 3875 
Q 1800 4025 1437 4000 
Q 1075 3975 925 3787 
Q 775 3600 775 3350 
z
" transform="scale(0.015625)"/>
       </defs>
       <use xlink:href="#SimHei-38"/>
      </g>
     </g>
    </g>
    <g id="ytick_14">
     <g id="line2d_34">
      <path d="M 285.228906 42.190619 
L 485.734531 42.190619 
" clip-path="url(#p374bfc4e05)" style="fill: none; stroke-dasharray: 1.11,0.48; stroke-dashoffset: 0; stroke: #b0b0b0; stroke-opacity: 0.25; stroke-width: 0.3"/>
     </g>
     <g id="line2d_35">
      <g>
       <use xlink:href="#m0808ee7aa4" x="285.228906" y="42.190619" style="stroke: #000000; stroke-width: 0.8"/>
      </g>
     </g>
     <g id="text_25">
      <!-- 10 -->
      <g transform="translate(268.228906 45.628119) scale(0.1 -0.1)">
       <use xlink:href="#SimHei-31"/>
       <use xlink:href="#SimHei-30" transform="translate(50 0)"/>
      </g>
     </g>
    </g>
    <g id="text_26">
     <!-- 留存率 (%) -->
     <g transform="translate(263.353906 117.607156) rotate(-90) scale(0.07 -0.07)">
      <defs>
       <path id="SimHei-7559" d="M 5575 2300 
Q 5550 1900 5550 1275 
L 5550 375 
Q 5550 -50 5575 -650 
L 5050 -650 
L 5050 -150 
L 1500 -150 
L 1500 -650 
L 975 -650 
Q 1000 100 1000 450 
L 1000 1275 
Q 1000 1925 975 2300 
L 5575 2300 
z
M 3350 2475 
Q 3250 2650 2900 2850 
Q 3325 3050 3625 3400 
Q 3925 3750 4025 4450 
Q 3675 4450 3225 4400 
L 3225 4875 
Q 3675 4850 4050 4850 
L 5950 4850 
Q 5875 4425 5825 3912 
Q 5775 3400 5725 3125 
Q 5675 2850 5462 2775 
Q 5250 2700 4775 2600 
Q 4675 2950 4525 3200 
Q 4900 3200 5075 3225 
Q 5250 3250 5287 3400 
Q 5325 3550 5375 4450 
L 4525 4450 
Q 4425 3675 4112 3250 
Q 3800 2825 3350 2475 
z
M 2200 3575 
Q 2050 3800 1875 3975 
Q 2125 4100 2275 4250 
Q 2650 3750 3000 3250 
Q 2800 3100 2575 2950 
Q 2500 3100 2400 3250 
Q 2000 3075 1587 2862 
Q 1175 2650 800 2425 
Q 675 2650 500 2850 
Q 675 3000 675 3425 
L 675 4125 
Q 675 4550 650 4850 
Q 1075 4850 1575 4925 
Q 2075 5000 2550 5225 
Q 2650 4975 2950 4700 
Q 2775 4700 2287 4600 
Q 1800 4500 1175 4450 
L 1175 3125 
Q 1600 3300 2200 3575 
z
M 3075 250 
L 3075 875 
L 1500 875 
L 1500 250 
L 3075 250 
z
M 3075 1275 
L 3075 1900 
L 1500 1900 
L 1500 1275 
L 3075 1275 
z
M 5050 1275 
L 5050 1900 
L 3550 1900 
L 3550 1275 
L 5050 1275 
z
M 5050 250 
L 5050 875 
L 3550 875 
L 3550 250 
L 5050 250 
z
" transform="scale(0.015625)"/>
       <path id="SimHei-5b58" d="M 1700 3100 
Q 2000 3475 2250 3950 
L 1650 3950 
Q 1200 3950 675 3925 
L 675 4400 
Q 1200 4375 1650 4375 
L 2400 4375 
Q 2600 4825 2700 5275 
Q 3050 5125 3350 5075 
Q 3125 4850 2925 4375 
L 4875 4375 
Q 5275 4375 5800 4400 
L 5800 3925 
Q 5275 3950 4850 3950 
L 2750 3950 
Q 2400 3275 1875 2550 
L 1875 250 
Q 1875 -175 1900 -575 
L 1400 -575 
Q 1425 -100 1425 250 
L 1425 2050 
Q 1025 1625 725 1350 
Q 525 1575 300 1675 
Q 600 1925 887 2175 
Q 1175 2425 1425 2750 
L 1375 3100 
L 1700 3100 
z
M 5625 3150 
L 5625 2675 
L 5000 2300 
Q 4750 2150 4475 1950 
L 4475 1650 
L 5175 1650 
Q 5600 1650 6050 1675 
L 6050 1200 
Q 5600 1225 5175 1225 
L 4475 1225 
L 4475 75 
Q 4500 -425 4187 -537 
Q 3875 -650 3475 -675 
Q 3425 -400 3300 -125 
Q 3675 -150 3837 -112 
Q 4000 -75 4000 100 
L 4000 1225 
L 3125 1225 
Q 2700 1225 2250 1200 
L 2250 1675 
Q 2700 1650 3125 1650 
L 4000 1650 
Q 4000 1900 3950 2125 
Q 4175 2225 4400 2375 
Q 4625 2525 4825 2725 
L 3375 2725 
Q 3050 2725 2675 2700 
L 2675 3175 
Q 3075 3150 3350 3150 
L 5625 3150 
z
" transform="scale(0.015625)"/>
       <path id="SimHei-7387" d="M 3325 5150 
Q 3425 4900 3550 4525 
L 4800 4525 
Q 5250 4525 5800 4550 
L 5800 4125 
Q 5250 4175 4775 4175 
L 2800 4175 
Q 2975 4050 3300 3900 
Q 3075 3750 2875 3537 
Q 2675 3325 2475 3125 
L 3275 3125 
Q 3575 3425 3775 3775 
Q 4000 3600 4275 3425 
Q 3950 3250 3600 2875 
Q 3250 2500 2625 2000 
L 3850 2100 
Q 3725 2250 3600 2425 
Q 3750 2475 4000 2650 
Q 4250 2350 4700 1700 
Q 4475 1625 4225 1450 
Q 4175 1600 4025 1775 
Q 3700 1750 3425 1750 
L 3425 1050 
L 5150 1050 
Q 5675 1050 6100 1075 
L 6100 650 
Q 5700 675 5125 675 
L 3425 675 
L 3425 175 
Q 3425 -300 3450 -625 
L 2900 -625 
Q 2925 -300 2925 175 
L 2925 675 
L 1325 675 
Q 825 675 325 650 
L 325 1075 
Q 825 1050 1350 1050 
L 2925 1050 
L 2925 1700 
Q 2700 1675 2475 1637 
Q 2250 1600 2025 1525 
Q 1950 1775 1850 2000 
Q 2075 2025 2325 2200 
Q 2575 2375 2975 2800 
Q 2300 2725 2025 2625 
Q 1975 2875 1850 3175 
Q 2075 3175 2325 3487 
Q 2575 3800 2750 4175 
L 1700 4175 
Q 1150 4175 650 4125 
L 650 4550 
Q 1150 4525 1550 4525 
L 2975 4525 
Q 2900 4825 2800 5025 
Q 3025 5075 3325 5150 
z
M 1625 2575 
Q 1725 2400 1825 2200 
Q 1575 2050 1325 1862 
Q 1075 1675 800 1425 
Q 625 1675 475 1875 
Q 800 2025 1100 2212 
Q 1400 2400 1625 2575 
z
M 4850 2650 
Q 5125 2475 5337 2337 
Q 5550 2200 5875 1950 
Q 5675 1800 5500 1600 
Q 5300 1775 5062 1975 
Q 4825 2175 4575 2325 
Q 4725 2475 4850 2650 
z
M 5725 3525 
Q 5550 3450 5300 3262 
Q 5050 3075 4800 2825 
Q 4625 3050 4475 3175 
Q 4700 3325 4875 3487 
Q 5050 3650 5300 3925 
Q 5525 3700 5725 3525 
z
M 1050 3850 
Q 1425 3600 1775 3275 
Q 1575 3100 1425 2925 
Q 1075 3300 675 3525 
Q 875 3700 1050 3850 
z
" transform="scale(0.015625)"/>
       <path id="SimHei-25" d="M 1400 3325 
Q 1400 2600 1187 2400 
Q 975 2200 775 2200 
Q 575 2200 362 2400 
Q 150 2600 150 3325 
Q 150 4050 362 4250 
Q 575 4450 775 4450 
Q 975 4450 1187 4250 
Q 1400 4050 1400 3325 
z
M 2625 4375 
L 700 75 
L 500 150 
L 2425 4450 
L 2625 4375 
z
M 2975 1200 
Q 2975 475 2762 275 
Q 2550 75 2350 75 
Q 2150 75 1937 275 
Q 1725 475 1725 1200 
Q 1725 1925 1937 2125 
Q 2150 2325 2350 2325 
Q 2550 2325 2762 2125 
Q 2975 1925 2975 1200 
z
M 1000 3325 
Q 1000 3775 950 3925 
Q 900 4075 775 4075 
Q 650 4075 600 3925 
Q 550 3775 550 3325 
Q 550 2875 600 2725 
Q 650 2575 775 2575 
Q 900 2575 950 2725 
Q 1000 2875 1000 3325 
z
M 2575 1200 
Q 2575 1650 2525 1800 
Q 2475 1950 2350 1950 
Q 2225 1950 2175 1800 
Q 2125 1650 2125 1200 
Q 2125 750 2175 600 
Q 2225 450 2350 450 
Q 2475 450 2525 600 
Q 2575 750 2575 1200 
z
" transform="scale(0.015625)"/>
      </defs>
      <use xlink:href="#SimHei-7559"/>
      <use xlink:href="#SimHei-5b58" transform="translate(100 0)"/>
      <use xlink:href="#SimHei-7387" transform="translate(200 0)"/>
      <use xlink:href="#SimHei-20" transform="translate(300 0)"/>
      <use xlink:href="#SimHei-28" transform="translate(350 0)"/>
      <use xlink:href="#SimHei-25" transform="translate(400 0)"/>
      <use xlink:href="#SimHei-29" transform="translate(450 0)"/>
     </g>
    </g>
   </g>
   <g id="line2d_36">
    <path d="M 285.228906 42.190619 
L 485.734531 42.190619 
" clip-path="url(#p374bfc4e05)" style="fill: none; stroke-dasharray: 2.96,1.28; stroke-dashoffset: 0; stroke: #b64342; stroke-opacity: 0.6; stroke-width: 0.8"/>
   </g>
   <g id="patch_14">
    <path d="M 285.228906 184.579156 
L 285.228906 15.635156 
" style="fill: none; stroke: #000000; stroke-width: 0.8; stroke-linejoin: miter; stroke-linecap: square"/>
   </g>
   <g id="patch_15">
    <path d="M 485.734531 184.579156 
L 485.734531 15.635156 
" style="fill: none; stroke: #000000; stroke-width: 0.8; stroke-linejoin: miter; stroke-linecap: square"/>
   </g>
   <g id="patch_16">
    <path d="M 285.228906 184.579156 
L 485.734531 184.579156 
" style="fill: none; stroke: #000000; stroke-width: 0.8; stroke-linejoin: miter; stroke-linecap: square"/>
   </g>
   <g id="patch_17">
    <path d="M 285.228906 15.635156 
L 485.734531 15.635156 
" style="fill: none; stroke: #000000; stroke-width: 0.8; stroke-linejoin: miter; stroke-linecap: square"/>
   </g>
   <g id="text_27">
    <!-- 7.1% -->
    <g transform="translate(308.000213 80.635524) scale(0.06 -0.06)">
     <defs>
      <path id="SimHei-2e" d="M 1075 125 
L 500 125 
L 500 675 
L 1075 675 
L 1075 125 
z
" transform="scale(0.015625)"/>
     </defs>
     <use xlink:href="#SimHei-37"/>
     <use xlink:href="#SimHei-2e" transform="translate(50 0)"/>
     <use xlink:href="#SimHei-31" transform="translate(100 0)"/>
     <use xlink:href="#SimHei-25" transform="translate(150 0)"/>
    </g>
   </g>
   <g id="text_28">
    <!-- 7.2% -->
    <g transform="translate(379.481719 79.211638) scale(0.06 -0.06)">
     <use xlink:href="#SimHei-37"/>
     <use xlink:href="#SimHei-2e" transform="translate(50 0)"/>
     <use xlink:href="#SimHei-32" transform="translate(100 0)"/>
     <use xlink:href="#SimHei-25" transform="translate(150 0)"/>
    </g>
   </g>
   <g id="text_29">
    <!-- 11.3% -->
    <g transform="translate(449.463225 20.832338) scale(0.06 -0.06)">
     <use xlink:href="#SimHei-31"/>
     <use xlink:href="#SimHei-31" transform="translate(50 0)"/>
     <use xlink:href="#SimHei-2e" transform="translate(100 0)"/>
     <use xlink:href="#SimHei-33" transform="translate(150 0)"/>
     <use xlink:href="#SimHei-25" transform="translate(200 0)"/>
    </g>
   </g>
   <g id="text_30">
    <!-- 30日期望留存率 -->
    <g transform="translate(359.231719 9.635156) scale(0.075 -0.075)">
     <defs>
      <path id="SimHei-65e5" d="M 5375 5000 
Q 5350 3775 5350 2275 
Q 5350 775 5375 -450 
L 4800 -450 
L 4800 175 
L 1800 175 
L 1800 -575 
L 1250 -575 
Q 1275 575 1275 2125 
Q 1275 3675 1250 5000 
L 5375 5000 
z
M 4800 600 
L 4800 2375 
L 1800 2375 
L 1800 600 
L 4800 600 
z
M 4800 2800 
L 4800 4550 
L 1800 4550 
L 1800 2800 
L 4800 2800 
z
" transform="scale(0.015625)"/>
     </defs>
     <use xlink:href="#SimHei-33"/>
     <use xlink:href="#SimHei-30" transform="translate(50 0)"/>
     <use xlink:href="#SimHei-65e5" transform="translate(100 0)"/>
     <use xlink:href="#SimHei-671f" transform="translate(200 0)"/>
     <use xlink:href="#SimHei-671b" transform="translate(300 0)"/>
     <use xlink:href="#SimHei-7559" transform="translate(400 0)"/>
     <use xlink:href="#SimHei-5b58" transform="translate(500 0)"/>
     <use xlink:href="#SimHei-7387" transform="translate(600 0)"/>
    </g>
   </g>
  </g>
 </g>
 <defs>
  <clipPath id="pe59af6c820">
   <rect x="46.025781" y="15.635156" width="200.505625" height="168.944"/>
  </clipPath>
  <clipPath id="p374bfc4e05">
   <rect x="285.228906" y="15.635156" width="200.505625" height="168.944"/>
  </clipPath>
 </defs>
</svg>
