<?xml version="1.0" encoding="utf-8" standalone="no"?>
<!DOCTYPE svg PUBLIC "-//W3C//DTD SVG 1.1//EN"
  "http://www.w3.org/Graphics/SVG/1.1/DTD/svg11.dtd">
<svg xmlns:xlink="http://www.w3.org/1999/xlink" width="319.865937pt" height="219.322531pt" viewBox="0 0 319.865937 219.322531" xmlns="http://www.w3.org/2000/svg" version="1.1">
 <metadata>
  <rdf:RDF xmlns:dc="http://purl.org/dc/elements/1.1/" xmlns:cc="http://creativecommons.org/ns#" xmlns:rdf="http://www.w3.org/1999/02/22-rdf-syntax-ns#">
   <cc:Work>
    <dc:type rdf:resource="http://purl.org/dc/dcmitype/StillImage"/>
    <dc:date>2026-05-21T16:40:15.964056</dc:date>
    <dc:format>image/svg+xml</dc:format>
    <dc:creator>
     <cc:Agent>
      <dc:title>Matplotlib v3.10.0, https://matplotlib.org/</dc:title>
     </cc:Agent>
    </dc:creator>
   </cc:Work>
  </rdf:RDF>
 </metadata>
 <defs>
  <style type="text/css">*{stroke-linejoin: round; stroke-linecap: butt}</style>
 </defs>
 <g id="figure_1">
  <g id="patch_1">
   <path d="M 0 219.322531 
L 319.865937 219.322531 
L 319.865937 0 
L 0 0 
z
" style="fill: #ffffff"/>
  </g>
  <g id="axes_1">
   <g id="patch_2">
    <path d="M 33.651328 192.376359 
L 312.651328 192.376359 
L 312.651328 14.968359 
L 33.651328 14.968359 
z
" style="fill: #ffffff"/>
   </g>
   <g id="FillBetweenPolyCollection_1">
    <defs>
     <path id="m17270e6e30" d="M 38.301328 -35.010172 
L 38.301328 -182.128518 
L 42.951328 -196.290172 
L 47.601328 -92.142366 
L 52.251328 -73.76098 
L 56.901328 -67.282874 
L 61.551328 -61.098164 
L 66.201328 -53.867114 
L 70.851328 -55.701497 
L 75.501328 -55.110994 
L 80.151328 -57.676971 
L 84.801328 -55.270497 
L 89.451328 -56.711547 
L 94.101328 -55.007766 
L 98.751328 -53.941466 
L 103.401328 -59.442478 
L 108.051328 -60.036882 
L 112.701328 -63.517047 
L 117.351328 -60.246129 
L 122.001328 -58.506852 
L 126.651328 -60.526177 
L 131.301328 -55.560604 
L 135.951328 -56.984099 
L 140.601328 -51.378676 
L 145.251328 -48.906577 
L 149.901328 -52.892279 
L 154.551328 -52.950658 
L 159.201328 -57.012523 
L 163.851328 -50.183577 
L 168.501328 -44.185975 
L 173.151328 -37.828393 
L 177.801328 -35.010172 
L 182.451328 -35.010172 
L 187.101328 -35.010172 
L 191.751328 -35.010172 
L 196.401328 -35.010172 
L 201.051328 -35.010172 
L 210.351328 -35.010172 
L 215.001328 -35.010172 
L 219.651328 -35.010172 
L 224.301328 -35.010172 
L 228.951328 -35.010172 
L 233.601328 -35.010172 
L 238.251328 -35.010172 
L 242.901328 -35.010172 
L 247.551328 -35.010172 
L 252.201328 -35.010172 
L 256.851328 -35.010172 
L 261.501328 -35.010172 
L 266.151328 -35.010172 
L 275.451328 -35.010172 
L 280.101328 -35.010172 
L 284.751328 -35.010172 
L 289.401328 -35.010172 
L 294.051328 -35.010172 
L 298.701328 -35.010172 
L 303.351328 -35.010172 
L 308.001328 -35.010172 
L 312.651328 -35.010172 
L 317.301328 -35.010172 
L 317.301328 -35.010172 
L 317.301328 -35.010172 
L 312.651328 -35.010172 
L 308.001328 -35.010172 
L 303.351328 -35.010172 
L 298.701328 -35.010172 
L 294.051328 -35.010172 
L 289.401328 -35.010172 
L 284.751328 -35.010172 
L 280.101328 -35.010172 
L 275.451328 -35.010172 
L 266.151328 -35.010172 
L 261.501328 -35.010172 
L 256.851328 -35.010172 
L 252.201328 -35.010172 
L 247.551328 -35.010172 
L 242.901328 -35.010172 
L 238.251328 -35.010172 
L 233.601328 -35.010172 
L 228.951328 -35.010172 
L 224.301328 -35.010172 
L 219.651328 -35.010172 
L 215.001328 -35.010172 
L 210.351328 -35.010172 
L 201.051328 -35.010172 
L 196.401328 -35.010172 
L 191.751328 -35.010172 
L 187.101328 -35.010172 
L 182.451328 -35.010172 
L 177.801328 -35.010172 
L 173.151328 -35.010172 
L 168.501328 -35.010172 
L 163.851328 -35.010172 
L 159.201328 -35.010172 
L 154.551328 -35.010172 
L 149.901328 -35.010172 
L 145.251328 -35.010172 
L 140.601328 -35.010172 
L 135.951328 -35.010172 
L 131.301328 -35.010172 
L 126.651328 -35.010172 
L 122.001328 -35.010172 
L 117.351328 -35.010172 
L 112.701328 -35.010172 
L 108.051328 -35.010172 
L 103.401328 -35.010172 
L 98.751328 -35.010172 
L 94.101328 -35.010172 
L 89.451328 -35.010172 
L 84.801328 -35.010172 
L 80.151328 -35.010172 
L 75.501328 -35.010172 
L 70.851328 -35.010172 
L 66.201328 -35.010172 
L 61.551328 -35.010172 
L 56.901328 -35.010172 
L 52.251328 -35.010172 
L 47.601328 -35.010172 
L 42.951328 -35.010172 
L 38.301328 -35.010172 
z
" style="stroke: #b64342; stroke-opacity: 0.15"/>
    </defs>
    <g clip-path="url(#p07ea5a8d42)">
     <use xlink:href="#m17270e6e30" x="0" y="219.322531" style="fill: #b64342; fill-opacity: 0.15; stroke: #b64342; stroke-opacity: 0.15"/>
    </g>
   </g>
   <g id="matplotlib.axis_1">
    <g id="xtick_1">
     <g id="line2d_1">
      <path d="M 33.651328 192.376359 
L 33.651328 14.968359 
" clip-path="url(#p07ea5a8d42)" style="fill: none; stroke-dasharray: 1.11,0.48; stroke-dashoffset: 0; stroke: #b0b0b0; stroke-opacity: 0.3; stroke-width: 0.3"/>
     </g>
     <g id="line2d_2">
      <defs>
       <path id="md0411248b6" d="M 0 0 
L 0 3.5 
" style="stroke: #000000; stroke-width: 0.8"/>
      </defs>
      <g>
       <use xlink:href="#md0411248b6" x="33.651328" y="192.376359" style="stroke: #000000; stroke-width: 0.8"/>
      </g>
     </g>
     <g id="text_1">
      <text style="font-size: 6.5px; font-family: 'Arial', 'Helvetica', 'DejaVu Sans', sans-serif; text-anchor: middle" x="33.651328" y="204.028937" transform="rotate(-0 33.651328 204.028937)">0</text>
     </g>
    </g>
    <g id="xtick_2">
     <g id="line2d_3">
      <path d="M 80.151328 192.376359 
L 80.151328 14.968359 
" clip-path="url(#p07ea5a8d42)" style="fill: none; stroke-dasharray: 1.11,0.48; stroke-dashoffset: 0; stroke: #b0b0b0; stroke-opacity: 0.3; stroke-width: 0.3"/>
     </g>
     <g id="line2d_4">
      <g>
       <use xlink:href="#md0411248b6" x="80.151328" y="192.376359" style="stroke: #000000; stroke-width: 0.8"/>
      </g>
     </g>
     <g id="text_2">
      <text style="font-size: 6.5px; font-family: 'Arial', 'Helvetica', 'DejaVu Sans', sans-serif; text-anchor: middle" x="80.151328" y="204.028937" transform="rotate(-0 80.151328 204.028937)">10</text>
     </g>
    </g>
    <g id="xtick_3">
     <g id="line2d_5">
      <path d="M 126.651328 192.376359 
L 126.651328 14.968359 
" clip-path="url(#p07ea5a8d42)" style="fill: none; stroke-dasharray: 1.11,0.48; stroke-dashoffset: 0; stroke: #b0b0b0; stroke-opacity: 0.3; stroke-width: 0.3"/>
     </g>
     <g id="line2d_6">
      <g>
       <use xlink:href="#md0411248b6" x="126.651328" y="192.376359" style="stroke: #000000; stroke-width: 0.8"/>
      </g>
     </g>
     <g id="text_3">
      <text style="font-size: 6.5px; font-family: 'Arial', 'Helvetica', 'DejaVu Sans', sans-serif; text-anchor: middle" x="126.651328" y="204.028937" transform="rotate(-0 126.651328 204.028937)">20</text>
     </g>
    </g>
    <g id="xtick_4">
     <g id="line2d_7">
      <path d="M 173.151328 192.376359 
L 173.151328 14.968359 
" clip-path="url(#p07ea5a8d42)" style="fill: none; stroke-dasharray: 1.11,0.48; stroke-dashoffset: 0; stroke: #b0b0b0; stroke-opacity: 0.3; stroke-width: 0.3"/>
     </g>
     <g id="line2d_8">
      <g>
       <use xlink:href="#md0411248b6" x="173.151328" y="192.376359" style="stroke: #000000; stroke-width: 0.8"/>
      </g>
     </g>
     <g id="text_4">
      <text style="font-size: 6.5px; font-family: 'Arial', 'Helvetica', 'DejaVu Sans', sans-serif; text-anchor: middle" x="173.151328" y="204.028937" transform="rotate(-0 173.151328 204.028937)">30</text>
     </g>
    </g>
    <g id="xtick_5">
     <g id="line2d_9">
      <path d="M 219.651328 192.376359 
L 219.651328 14.968359 
" clip-path="url(#p07ea5a8d42)" style="fill: none; stroke-dasharray: 1.11,0.48; stroke-dashoffset: 0; stroke: #b0b0b0; stroke-opacity: 0.3; stroke-width: 0.3"/>
     </g>
     <g id="line2d_10">
      <g>
       <use xlink:href="#md0411248b6" x="219.651328" y="192.376359" style="stroke: #000000; stroke-width: 0.8"/>
      </g>
     </g>
     <g id="text_5">
      <text style="font-size: 6.5px; font-family: 'Arial', 'Helvetica', 'DejaVu Sans', sans-serif; text-anchor: middle" x="219.651328" y="204.028937" transform="rotate(-0 219.651328 204.028937)">40</text>
     </g>
    </g>
    <g id="xtick_6">
     <g id="line2d_11">
      <path d="M 266.151328 192.376359 
L 266.151328 14.968359 
" clip-path="url(#p07ea5a8d42)" style="fill: none; stroke-dasharray: 1.11,0.48; stroke-dashoffset: 0; stroke: #b0b0b0; stroke-opacity: 0.3; stroke-width: 0.3"/>
     </g>
     <g id="line2d_12">
      <g>
       <use xlink:href="#md0411248b6" x="266.151328" y="192.376359" style="stroke: #000000; stroke-width: 0.8"/>
      </g>
     </g>
     <g id="text_6">
      <text style="font-size: 6.5px; font-family: 'Arial', 'Helvetica', 'DejaVu Sans', sans-serif; text-anchor: middle" x="266.151328" y="204.028937" transform="rotate(-0 266.151328 204.028937)">50</text>
     </g>
    </g>
    <g id="xtick_7">
     <g id="line2d_13">
      <path d="M 312.651328 192.376359 
L 312.651328 14.968359 
" clip-path="url(#p07ea5a8d42)" style="fill: none; stroke-dasharray: 1.11,0.48; stroke-dashoffset: 0; stroke: #b0b0b0; stroke-opacity: 0.3; stroke-width: 0.3"/>
     </g>
     <g id="line2d_14">
      <g>
       <use xlink:href="#md0411248b6" x="312.651328" y="192.376359" style="stroke: #000000; stroke-width: 0.8"/>
      </g>
     </g>
     <g id="text_7">
      <text style="font-size: 6.5px; font-family: 'Arial', 'Helvetica', 'DejaVu Sans', sans-serif; text-anchor: middle" x="312.651328" y="204.028937" transform="rotate(-0 312.651328 204.028937)">60</text>
     </g>
    </g>
    <g id="text_8">
     <text style="font-size: 7px; font-family: 'Arial', 'Helvetica', 'DejaVu Sans', sans-serif; text-anchor: middle" x="173.151328" y="214.331281" transform="rotate(-0 173.151328 214.331281)">注册后天数</text>
    </g>
   </g>
   <g id="matplotlib.axis_2">
    <g id="ytick_1">
     <g id="line2d_15">
      <path d="M 33.651328 184.312359 
L 312.651328 184.312359 
" clip-path="url(#p07ea5a8d42)" style="fill: none; stroke-dasharray: 1.11,0.48; stroke-dashoffset: 0; stroke: #b0b0b0; stroke-opacity: 0.3; stroke-width: 0.3"/>
     </g>
     <g id="line2d_16">
      <defs>
       <path id="m185e46a166" d="M 0 0 
L -3.5 0 
" style="stroke: #000000; stroke-width: 0.8"/>
      </defs>
      <g>
       <use xlink:href="#m185e46a166" x="33.651328" y="184.312359" style="stroke: #000000; stroke-width: 0.8"/>
      </g>
     </g>
     <g id="text_9">
      <text style="font-size: 6.5px; font-family: 'Arial', 'Helvetica', 'DejaVu Sans', sans-serif; text-anchor: end" x="26.651328" y="186.638648" transform="rotate(-0 26.651328 186.638648)">0.00</text>
     </g>
    </g>
    <g id="ytick_2">
     <g id="line2d_17">
      <path d="M 33.651328 163.880906 
L 312.651328 163.880906 
" clip-path="url(#p07ea5a8d42)" style="fill: none; stroke-dasharray: 1.11,0.48; stroke-dashoffset: 0; stroke: #b0b0b0; stroke-opacity: 0.3; stroke-width: 0.3"/>
     </g>
     <g id="line2d_18">
      <g>
       <use xlink:href="#m185e46a166" x="33.651328" y="163.880906" style="stroke: #000000; stroke-width: 0.8"/>
      </g>
     </g>
     <g id="text_10">
      <text style="font-size: 6.5px; font-family: 'Arial', 'Helvetica', 'DejaVu Sans', sans-serif; text-anchor: end" x="26.651328" y="166.207195" transform="rotate(-0 26.651328 166.207195)">0.05</text>
     </g>
    </g>
    <g id="ytick_3">
     <g id="line2d_19">
      <path d="M 33.651328 143.449453 
L 312.651328 143.449453 
" clip-path="url(#p07ea5a8d42)" style="fill: none; stroke-dasharray: 1.11,0.48; stroke-dashoffset: 0; stroke: #b0b0b0; stroke-opacity: 0.3; stroke-width: 0.3"/>
     </g>
     <g id="line2d_20">
      <g>
       <use xlink:href="#m185e46a166" x="33.651328" y="143.449453" style="stroke: #000000; stroke-width: 0.8"/>
      </g>
     </g>
     <g id="text_11">
      <text style="font-size: 6.5px; font-family: 'Arial', 'Helvetica', 'DejaVu Sans', sans-serif; text-anchor: end" x="26.651328" y="145.775742" transform="rotate(-0 26.651328 145.775742)">0.10</text>
     </g>
    </g>
    <g id="ytick_4">
     <g id="line2d_21">
      <path d="M 33.651328 123.017999 
L 312.651328 123.017999 
" clip-path="url(#p07ea5a8d42)" style="fill: none; stroke-dasharray: 1.11,0.48; stroke-dashoffset: 0; stroke: #b0b0b0; stroke-opacity: 0.3; stroke-width: 0.3"/>
     </g>
     <g id="line2d_22">
      <g>
       <use xlink:href="#m185e46a166" x="33.651328" y="123.017999" style="stroke: #000000; stroke-width: 0.8"/>
      </g>
     </g>
     <g id="text_12">
      <text style="font-size: 6.5px; font-family: 'Arial', 'Helvetica', 'DejaVu Sans', sans-serif; text-anchor: end" x="26.651328" y="125.344288" transform="rotate(-0 26.651328 125.344288)">0.15</text>
     </g>
    </g>
    <g id="ytick_5">
     <g id="line2d_23">
      <path d="M 33.651328 102.586546 
L 312.651328 102.586546 
" clip-path="url(#p07ea5a8d42)" style="fill: none; stroke-dasharray: 1.11,0.48; stroke-dashoffset: 0; stroke: #b0b0b0; stroke-opacity: 0.3; stroke-width: 0.3"/>
     </g>
     <g id="line2d_24">
      <g>
       <use xlink:href="#m185e46a166" x="33.651328" y="102.586546" style="stroke: #000000; stroke-width: 0.8"/>
      </g>
     </g>
     <g id="text_13">
      <text style="font-size: 6.5px; font-family: 'Arial', 'Helvetica', 'DejaVu Sans', sans-serif; text-anchor: end" x="26.651328" y="104.912835" transform="rotate(-0 26.651328 104.912835)">0.20</text>
     </g>
    </g>
    <g id="ytick_6">
     <g id="line2d_25">
      <path d="M 33.651328 82.155092 
L 312.651328 82.155092 
" clip-path="url(#p07ea5a8d42)" style="fill: none; stroke-dasharray: 1.11,0.48; stroke-dashoffset: 0; stroke: #b0b0b0; stroke-opacity: 0.3; stroke-width: 0.3"/>
     </g>
     <g id="line2d_26">
      <g>
       <use xlink:href="#m185e46a166" x="33.651328" y="82.155092" style="stroke: #000000; stroke-width: 0.8"/>
      </g>
     </g>
     <g id="text_14">
      <text style="font-size: 6.5px; font-family: 'Arial', 'Helvetica', 'DejaVu Sans', sans-serif; text-anchor: end" x="26.651328" y="84.481381" transform="rotate(-0 26.651328 84.481381)">0.25</text>
     </g>
    </g>
    <g id="ytick_7">
     <g id="line2d_27">
      <path d="M 33.651328 61.723639 
L 312.651328 61.723639 
" clip-path="url(#p07ea5a8d42)" style="fill: none; stroke-dasharray: 1.11,0.48; stroke-dashoffset: 0; stroke: #b0b0b0; stroke-opacity: 0.3; stroke-width: 0.3"/>
     </g>
     <g id="line2d_28">
      <g>
       <use xlink:href="#m185e46a166" x="33.651328" y="61.723639" style="stroke: #000000; stroke-width: 0.8"/>
      </g>
     </g>
     <g id="text_15">
      <text style="font-size: 6.5px; font-family: 'Arial', 'Helvetica', 'DejaVu Sans', sans-serif; text-anchor: end" x="26.651328" y="64.049928" transform="rotate(-0 26.651328 64.049928)">0.30</text>
     </g>
    </g>
    <g id="ytick_8">
     <g id="line2d_29">
      <path d="M 33.651328 41.292186 
L 312.651328 41.292186 
" clip-path="url(#p07ea5a8d42)" style="fill: none; stroke-dasharray: 1.11,0.48; stroke-dashoffset: 0; stroke: #b0b0b0; stroke-opacity: 0.3; stroke-width: 0.3"/>
     </g>
     <g id="line2d_30">
      <g>
       <use xlink:href="#m185e46a166" x="33.651328" y="41.292186" style="stroke: #000000; stroke-width: 0.8"/>
      </g>
     </g>
     <g id="text_16">
      <text style="font-size: 6.5px; font-family: 'Arial', 'Helvetica', 'DejaVu Sans', sans-serif; text-anchor: end" x="26.651328" y="43.618475" transform="rotate(-0 26.651328 43.618475)">0.35</text>
     </g>
    </g>
    <g id="ytick_9">
     <g id="line2d_31">
      <path d="M 33.651328 20.860732 
L 312.651328 20.860732 
" clip-path="url(#p07ea5a8d42)" style="fill: none; stroke-dasharray: 1.11,0.48; stroke-dashoffset: 0; stroke: #b0b0b0; stroke-opacity: 0.3; stroke-width: 0.3"/>
     </g>
     <g id="line2d_32">
      <g>
       <use xlink:href="#m185e46a166" x="33.651328" y="20.860732" style="stroke: #000000; stroke-width: 0.8"/>
      </g>
     </g>
     <g id="text_17">
      <text style="font-size: 6.5px; font-family: 'Arial', 'Helvetica', 'DejaVu Sans', sans-serif; text-anchor: end" x="26.651328" y="23.187021" transform="rotate(-0 26.651328 23.187021)">0.40</text>
     </g>
    </g>
    <g id="text_18">
     <text style="font-size: 7px; font-family: 'Arial', 'Helvetica', 'DejaVu Sans', sans-serif; text-anchor: middle" x="8.610469" y="103.672359" transform="rotate(-90 8.610469 103.672359)">风险率</text>
    </g>
   </g>
   <g id="line2d_33">
    <path d="M 38.301328 37.194013 
L 42.951328 23.032359 
L 47.601328 127.180165 
L 52.251328 145.561551 
L 56.901328 152.039657 
L 61.551328 158.224367 
L 66.201328 165.455418 
L 70.851328 163.621034 
L 75.501328 164.211538 
L 80.151328 161.64556 
L 84.801328 164.052035 
L 89.451328 162.610984 
L 94.101328 164.314766 
L 98.751328 165.381065 
L 103.401328 159.880053 
L 108.051328 159.285649 
L 112.701328 155.805484 
L 117.351328 159.076403 
L 122.001328 160.815679 
L 126.651328 158.796354 
L 131.301328 163.761927 
L 135.951328 162.338432 
L 140.601328 167.943856 
L 145.251328 170.415954 
L 149.901328 166.430252 
L 154.551328 166.371874 
L 159.201328 162.310008 
L 163.851328 169.138954 
L 168.501328 175.136556 
L 173.151328 181.494139 
L 177.801328 184.312359 
L 182.451328 184.312359 
L 187.101328 184.312359 
L 191.751328 184.312359 
L 196.401328 184.312359 
L 201.051328 184.312359 
L 210.351328 184.312359 
L 215.001328 184.312359 
L 219.651328 184.312359 
L 224.301328 184.312359 
L 228.951328 184.312359 
L 233.601328 184.312359 
L 238.251328 184.312359 
L 242.901328 184.312359 
L 247.551328 184.312359 
L 252.201328 184.312359 
L 256.851328 184.312359 
L 261.501328 184.312359 
L 266.151328 184.312359 
L 275.451328 184.312359 
L 280.101328 184.312359 
L 284.751328 184.312359 
L 289.401328 184.312359 
L 294.051328 184.312359 
L 298.701328 184.312359 
L 303.351328 184.312359 
L 308.001328 184.312359 
L 312.651328 184.312359 
L 317.301328 184.312359 
" clip-path="url(#p07ea5a8d42)" style="fill: none; stroke: #b64342; stroke-width: 1.2; stroke-linecap: square"/>
   </g>
   <g id="line2d_34">
    <path d="M 56.901328 192.376359 
L 56.901328 14.968359 
" clip-path="url(#p07ea5a8d42)" style="fill: none; stroke-dasharray: 0.5,0.825; stroke-dashoffset: 0; stroke: #b64342; stroke-opacity: 0.6; stroke-width: 0.5"/>
   </g>
   <g id="line2d_35">
    <path d="M 52.251328 192.376359 
L 52.251328 14.968359 
" clip-path="url(#p07ea5a8d42)" style="fill: none; stroke-dasharray: 0.5,0.825; stroke-dashoffset: 0; stroke: #b64342; stroke-opacity: 0.6; stroke-width: 0.5"/>
   </g>
   <g id="line2d_36">
    <path d="M 47.601328 192.376359 
L 47.601328 14.968359 
" clip-path="url(#p07ea5a8d42)" style="fill: none; stroke-dasharray: 0.5,0.825; stroke-dashoffset: 0; stroke: #b64342; stroke-opacity: 0.6; stroke-width: 0.5"/>
   </g>
   <g id="line2d_37">
    <path d="M 38.301328 192.376359 
L 38.301328 14.968359 
" clip-path="url(#p07ea5a8d42)" style="fill: none; stroke-dasharray: 0.5,0.825; stroke-dashoffset: 0; stroke: #b64342; stroke-opacity: 0.6; stroke-width: 0.5"/>
   </g>
   <g id="line2d_38">
    <path d="M 42.951328 192.376359 
L 42.951328 14.968359 
" clip-path="url(#p07ea5a8d42)" style="fill: none; stroke-dasharray: 0.5,0.825; stroke-dashoffset: 0; stroke: #b64342; stroke-opacity: 0.6; stroke-width: 0.5"/>
   </g>
   <g id="patch_3">
    <path d="M 33.651328 192.376359 
L 33.651328 14.968359 
" style="fill: none; stroke: #000000; stroke-width: 0.8; stroke-linejoin: miter; stroke-linecap: square"/>
   </g>
   <g id="patch_4">
    <path d="M 33.651328 192.376359 
L 312.651328 192.376359 
" style="fill: none; stroke: #000000; stroke-width: 0.8; stroke-linejoin: miter; stroke-linecap: square"/>
   </g>
   <g id="text_19">
    <text style="font-weight: 700; font-size: 7.5px; font-family: 'Arial', 'Helvetica', 'DejaVu Sans', sans-serif; text-anchor: middle" x="173.151328" y="8.968359" transform="rotate(-0 173.151328 8.968359)">玩家流失风险率随时间变化</text>
   </g>
  </g>
 </g>
 <defs>
  <clipPath id="p07ea5a8d42">
   <rect x="33.651328" y="14.968359" width="279" height="177.408"/>
  </clipPath>
 </defs>
</svg>
