<?xml version="1.0" encoding="utf-8" standalone="no"?>
<!DOCTYPE svg PUBLIC "-//W3C//DTD SVG 1.1//EN"
  "http://www.w3.org/Graphics/SVG/1.1/DTD/svg11.dtd">
<svg xmlns:xlink="http://www.w3.org/1999/xlink" width="425.085156pt" height="219.434172pt" viewBox="0 0 425.085156 219.434172" xmlns="http://www.w3.org/2000/svg" version="1.1">
 <metadata>
  <rdf:RDF xmlns:dc="http://purl.org/dc/elements/1.1/" xmlns:cc="http://creativecommons.org/ns#" xmlns:rdf="http://www.w3.org/1999/02/22-rdf-syntax-ns#">
   <cc:Work>
    <dc:type rdf:resource="http://purl.org/dc/dcmitype/StillImage"/>
    <dc:date>2026-05-22T17:08:50.133096</dc:date>
    <dc:format>image/svg+xml</dc:format>
    <dc:creator>
     <cc:Agent>
      <dc:title>Matplotlib v3.10.0, https://matplotlib.org/</dc:title>
     </cc:Agent>
    </dc:creator>
   </cc:Work>
  </rdf:RDF>
 </metadata>
 <defs>
  <style type="text/css">*{stroke-linejoin: round; stroke-linecap: butt}</style>
 </defs>
 <g id="figure_1">
  <g id="patch_1">
   <path d="M 0 219.434172 
L 425.085156 219.434172 
L 425.085156 0 
L 0 0 
z
" style="fill: #ffffff"/>
  </g>
  <g id="axes_1">
   <g id="patch_2">
    <path d="M 30.885156 193.072453 
L 208.430611 193.072453 
L 208.430611 15.664453 
L 30.885156 15.664453 
z
" style="fill: #ffffff"/>
   </g>
   <g id="matplotlib.axis_1">
    <g id="xtick_1">
     <g id="line2d_1">
      <path d="M 30.885156 193.072453 
L 30.885156 15.664453 
" clip-path="url(#pf6514ef292)" style="fill: none; stroke-dasharray: 1.11,0.48; stroke-dashoffset: 0; stroke: #b0b0b0; stroke-opacity: 0.3; stroke-width: 0.3"/>
     </g>
     <g id="line2d_2">
      <defs>
       <path id="m45477f755f" d="M 0 0 
L 0 3.5 
" style="stroke: #000000; stroke-width: 0.8"/>
      </defs>
      <g>
       <use xlink:href="#m45477f755f" x="30.885156" y="193.072453" style="stroke: #000000; stroke-width: 0.8"/>
      </g>
     </g>
     <g id="text_1">
      <text style="font-size: 6.5px; font-family: 'SimHei', 'Microsoft YaHei', sans-serif; text-anchor: middle" x="30.885156" y="204.541203" transform="rotate(-0 30.885156 204.541203)">0</text>
     </g>
    </g>
    <g id="xtick_2">
     <g id="line2d_3">
      <path d="M 58.199842 193.072453 
L 58.199842 15.664453 
" clip-path="url(#pf6514ef292)" style="fill: none; stroke-dasharray: 1.11,0.48; stroke-dashoffset: 0; stroke: #b0b0b0; stroke-opacity: 0.3; stroke-width: 0.3"/>
     </g>
     <g id="line2d_4">
      <g>
       <use xlink:href="#m45477f755f" x="58.199842" y="193.072453" style="stroke: #000000; stroke-width: 0.8"/>
      </g>
     </g>
     <g id="text_2">
      <text style="font-size: 6.5px; font-family: 'SimHei', 'Microsoft YaHei', sans-serif; text-anchor: middle" x="58.199842" y="204.541203" transform="rotate(-0 58.199842 204.541203)">10</text>
     </g>
    </g>
    <g id="xtick_3">
     <g id="line2d_5">
      <path d="M 85.514527 193.072453 
L 85.514527 15.664453 
" clip-path="url(#pf6514ef292)" style="fill: none; stroke-dasharray: 1.11,0.48; stroke-dashoffset: 0; stroke: #b0b0b0; stroke-opacity: 0.3; stroke-width: 0.3"/>
     </g>
     <g id="line2d_6">
      <g>
       <use xlink:href="#m45477f755f" x="85.514527" y="193.072453" style="stroke: #000000; stroke-width: 0.8"/>
      </g>
     </g>
     <g id="text_3">
      <text style="font-size: 6.5px; font-family: 'SimHei', 'Microsoft YaHei', sans-serif; text-anchor: middle" x="85.514527" y="204.541203" transform="rotate(-0 85.514527 204.541203)">20</text>
     </g>
    </g>
    <g id="xtick_4">
     <g id="line2d_7">
      <path d="M 112.829212 193.072453 
L 112.829212 15.664453 
" clip-path="url(#pf6514ef292)" style="fill: none; stroke-dasharray: 1.11,0.48; stroke-dashoffset: 0; stroke: #b0b0b0; stroke-opacity: 0.3; stroke-width: 0.3"/>
     </g>
     <g id="line2d_8">
      <g>
       <use xlink:href="#m45477f755f" x="112.829212" y="193.072453" style="stroke: #000000; stroke-width: 0.8"/>
      </g>
     </g>
     <g id="text_4">
      <text style="font-size: 6.5px; font-family: 'SimHei', 'Microsoft YaHei', sans-serif; text-anchor: middle" x="112.829212" y="204.541203" transform="rotate(-0 112.829212 204.541203)">30</text>
     </g>
    </g>
    <g id="xtick_5">
     <g id="line2d_9">
      <path d="M 140.143898 193.072453 
L 140.143898 15.664453 
" clip-path="url(#pf6514ef292)" style="fill: none; stroke-dasharray: 1.11,0.48; stroke-dashoffset: 0; stroke: #b0b0b0; stroke-opacity: 0.3; stroke-width: 0.3"/>
     </g>
     <g id="line2d_10">
      <g>
       <use xlink:href="#m45477f755f" x="140.143898" y="193.072453" style="stroke: #000000; stroke-width: 0.8"/>
      </g>
     </g>
     <g id="text_5">
      <text style="font-size: 6.5px; font-family: 'SimHei', 'Microsoft YaHei', sans-serif; text-anchor: middle" x="140.143898" y="204.541203" transform="rotate(-0 140.143898 204.541203)">40</text>
     </g>
    </g>
    <g id="xtick_6">
     <g id="line2d_11">
      <path d="M 167.458583 193.072453 
L 167.458583 15.664453 
" clip-path="url(#pf6514ef292)" style="fill: none; stroke-dasharray: 1.11,0.48; stroke-dashoffset: 0; stroke: #b0b0b0; stroke-opacity: 0.3; stroke-width: 0.3"/>
     </g>
     <g id="line2d_12">
      <g>
       <use xlink:href="#m45477f755f" x="167.458583" y="193.072453" style="stroke: #000000; stroke-width: 0.8"/>
      </g>
     </g>
     <g id="text_6">
      <text style="font-size: 6.5px; font-family: 'SimHei', 'Microsoft YaHei', sans-serif; text-anchor: middle" x="167.458583" y="204.541203" transform="rotate(-0 167.458583 204.541203)">50</text>
     </g>
    </g>
    <g id="xtick_7">
     <g id="line2d_13">
      <path d="M 194.773268 193.072453 
L 194.773268 15.664453 
" clip-path="url(#pf6514ef292)" style="fill: none; stroke-dasharray: 1.11,0.48; stroke-dashoffset: 0; stroke: #b0b0b0; stroke-opacity: 0.3; stroke-width: 0.3"/>
     </g>
     <g id="line2d_14">
      <g>
       <use xlink:href="#m45477f755f" x="194.773268" y="193.072453" style="stroke: #000000; stroke-width: 0.8"/>
      </g>
     </g>
     <g id="text_7">
      <text style="font-size: 6.5px; font-family: 'SimHei', 'Microsoft YaHei', sans-serif; text-anchor: middle" x="194.773268" y="204.541203" transform="rotate(-0 194.773268 204.541203)">60</text>
     </g>
    </g>
    <g id="text_8">
     <text style="font-size: 7px; font-family: 'SimHei', 'Microsoft YaHei', sans-serif; text-anchor: middle" x="119.657884" y="214.959172" transform="rotate(-0 119.657884 214.959172)">注册后天数</text>
    </g>
   </g>
   <g id="matplotlib.axis_2">
    <g id="ytick_1">
     <g id="line2d_15">
      <path d="M 30.885156 193.072453 
L 208.430611 193.072453 
" clip-path="url(#pf6514ef292)" style="fill: none; stroke-dasharray: 1.11,0.48; stroke-dashoffset: 0; stroke: #b0b0b0; stroke-opacity: 0.3; stroke-width: 0.3"/>
     </g>
     <g id="line2d_16">
      <defs>
       <path id="m9dcc4f09b5" d="M 0 0 
L -3.5 0 
" style="stroke: #000000; stroke-width: 0.8"/>
      </defs>
      <g>
       <use xlink:href="#m9dcc4f09b5" x="30.885156" y="193.072453" style="stroke: #000000; stroke-width: 0.8"/>
      </g>
     </g>
     <g id="text_9">
      <text style="font-size: 6.5px; font-family: 'SimHei', 'Microsoft YaHei', sans-serif; text-anchor: end" x="23.885156" y="195.306828" transform="rotate(-0 23.885156 195.306828)">0.0</text>
     </g>
    </g>
    <g id="ytick_2">
     <g id="line2d_17">
      <path d="M 30.885156 159.280453 
L 208.430611 159.280453 
" clip-path="url(#pf6514ef292)" style="fill: none; stroke-dasharray: 1.11,0.48; stroke-dashoffset: 0; stroke: #b0b0b0; stroke-opacity: 0.3; stroke-width: 0.3"/>
     </g>
     <g id="line2d_18">
      <g>
       <use xlink:href="#m9dcc4f09b5" x="30.885156" y="159.280453" style="stroke: #000000; stroke-width: 0.8"/>
      </g>
     </g>
     <g id="text_10">
      <text style="font-size: 6.5px; font-family: 'SimHei', 'Microsoft YaHei', sans-serif; text-anchor: end" x="23.885156" y="161.514828" transform="rotate(-0 23.885156 161.514828)">0.2</text>
     </g>
    </g>
    <g id="ytick_3">
     <g id="line2d_19">
      <path d="M 30.885156 125.488453 
L 208.430611 125.488453 
" clip-path="url(#pf6514ef292)" style="fill: none; stroke-dasharray: 1.11,0.48; stroke-dashoffset: 0; stroke: #b0b0b0; stroke-opacity: 0.3; stroke-width: 0.3"/>
     </g>
     <g id="line2d_20">
      <g>
       <use xlink:href="#m9dcc4f09b5" x="30.885156" y="125.488453" style="stroke: #000000; stroke-width: 0.8"/>
      </g>
     </g>
     <g id="text_11">
      <text style="font-size: 6.5px; font-family: 'SimHei', 'Microsoft YaHei', sans-serif; text-anchor: end" x="23.885156" y="127.722828" transform="rotate(-0 23.885156 127.722828)">0.4</text>
     </g>
    </g>
    <g id="ytick_4">
     <g id="line2d_21">
      <path d="M 30.885156 91.696453 
L 208.430611 91.696453 
" clip-path="url(#pf6514ef292)" style="fill: none; stroke-dasharray: 1.11,0.48; stroke-dashoffset: 0; stroke: #b0b0b0; stroke-opacity: 0.3; stroke-width: 0.3"/>
     </g>
     <g id="line2d_22">
      <g>
       <use xlink:href="#m9dcc4f09b5" x="30.885156" y="91.696453" style="stroke: #000000; stroke-width: 0.8"/>
      </g>
     </g>
     <g id="text_12">
      <text style="font-size: 6.5px; font-family: 'SimHei', 'Microsoft YaHei', sans-serif; text-anchor: end" x="23.885156" y="93.930828" transform="rotate(-0 23.885156 93.930828)">0.6</text>
     </g>
    </g>
    <g id="ytick_5">
     <g id="line2d_23">
      <path d="M 30.885156 57.904453 
L 208.430611 57.904453 
" clip-path="url(#pf6514ef292)" style="fill: none; stroke-dasharray: 1.11,0.48; stroke-dashoffset: 0; stroke: #b0b0b0; stroke-opacity: 0.3; stroke-width: 0.3"/>
     </g>
     <g id="line2d_24">
      <g>
       <use xlink:href="#m9dcc4f09b5" x="30.885156" y="57.904453" style="stroke: #000000; stroke-width: 0.8"/>
      </g>
     </g>
     <g id="text_13">
      <text style="font-size: 6.5px; font-family: 'SimHei', 'Microsoft YaHei', sans-serif; text-anchor: end" x="23.885156" y="60.138828" transform="rotate(-0 23.885156 60.138828)">0.8</text>
     </g>
    </g>
    <g id="ytick_6">
     <g id="line2d_25">
      <path d="M 30.885156 24.112453 
L 208.430611 24.112453 
" clip-path="url(#pf6514ef292)" style="fill: none; stroke-dasharray: 1.11,0.48; stroke-dashoffset: 0; stroke: #b0b0b0; stroke-opacity: 0.3; stroke-width: 0.3"/>
     </g>
     <g id="line2d_26">
      <g>
       <use xlink:href="#m9dcc4f09b5" x="30.885156" y="24.112453" style="stroke: #000000; stroke-width: 0.8"/>
      </g>
     </g>
     <g id="text_14">
      <text style="font-size: 6.5px; font-family: 'SimHei', 'Microsoft YaHei', sans-serif; text-anchor: end" x="23.885156" y="26.346828" transform="rotate(-0 23.885156 26.346828)">1.0</text>
     </g>
    </g>
    <g id="text_15">
     <text style="font-size: 7px; font-family: 'SimHei', 'Microsoft YaHei', sans-serif; text-anchor: middle" x="9.260156" y="104.368453" transform="rotate(-90 9.260156 104.368453)">留存概率</text>
    </g>
   </g>
   <g id="line2d_27">
    <path d="M 30.885156 24.112453 
L 33.616625 24.112453 
L 33.616625 42.592453 
L 36.348093 42.592453 
L 36.348093 66.352453 
L 39.079562 66.352453 
L 39.079562 76.912453 
L 41.81103 76.912453 
L 41.81103 98.032453 
L 44.542499 98.032453 
L 44.542499 108.592453 
L 47.273967 108.592453 
L 47.273967 121.792453 
L 50.005436 121.792453 
L 50.005436 124.432453 
L 52.736905 124.432453 
L 52.736905 132.352453 
L 55.468373 132.352453 
L 55.468373 137.632453 
L 66.394247 137.632453 
L 66.394247 142.912453 
L 71.857184 142.912453 
L 71.857184 148.192453 
L 74.588653 148.192453 
L 74.588653 153.472453 
L 77.320121 153.472453 
L 77.320121 156.112453 
L 80.05159 156.112453 
L 80.05159 158.752453 
L 82.783058 158.752453 
L 82.783058 164.032453 
L 85.514527 164.032453 
L 85.514527 169.312453 
L 88.245995 169.312453 
L 88.245995 171.952453 
L 90.977464 171.952453 
L 90.977464 174.592453 
L 112.829212 174.592453 
L 112.829212 174.592453 
" clip-path="url(#pf6514ef292)" style="fill: none; stroke: #e28e2c; stroke-width: 1.2; stroke-linecap: square"/>
   </g>
   <g id="line2d_28">
    <path d="M 30.885156 24.112453 
L 33.616625 24.112453 
L 33.616625 139.486999 
L 36.348093 139.486999 
L 36.348093 157.814271 
L 39.079562 157.814271 
L 39.079562 169.508817 
L 41.81103 169.508817 
L 41.81103 175.792453 
L 44.542499 175.792453 
L 44.542499 179.283362 
L 47.273967 179.283362 
L 47.273967 182.163362 
L 50.005436 182.163362 
L 50.005436 184.34518 
L 52.736905 184.34518 
L 52.736905 186.003362 
L 55.468373 186.003362 
L 55.468373 187.399726 
L 58.199842 187.399726 
L 58.199842 188.272453 
L 60.93131 188.272453 
L 60.93131 188.621544 
L 63.662779 188.621544 
L 63.662779 189.14518 
L 66.394247 189.14518 
L 66.394247 189.668817 
L 69.125716 189.668817 
L 69.125716 190.10518 
L 71.857184 190.10518 
L 71.857184 190.541544 
L 74.588653 190.541544 
L 74.588653 190.803362 
L 77.320121 190.803362 
L 77.320121 190.977908 
L 82.783058 190.977908 
L 82.783058 191.239726 
L 85.514527 191.239726 
L 85.514527 191.414271 
L 90.977464 191.414271 
L 90.977464 191.588817 
L 93.708932 191.588817 
L 93.708932 191.850635 
L 99.17187 191.850635 
L 99.17187 191.937908 
L 104.634807 191.937908 
L 104.634807 192.199726 
L 112.829212 192.199726 
L 112.829212 192.199726 
" clip-path="url(#pf6514ef292)" style="fill: none; stroke: #0f4d92; stroke-width: 1.2; stroke-linecap: square"/>
   </g>
   <g id="patch_3">
    <path d="M 30.885156 193.072453 
L 30.885156 15.664453 
" style="fill: none; stroke: #000000; stroke-width: 0.8; stroke-linejoin: miter; stroke-linecap: square"/>
   </g>
   <g id="patch_4">
    <path d="M 30.885156 193.072453 
L 208.430611 193.072453 
" style="fill: none; stroke: #000000; stroke-width: 0.8; stroke-linejoin: miter; stroke-linecap: square"/>
   </g>
   <g id="text_16">
    <text style="font-weight: 700; font-size: 7.5px; font-family: 'SimHei', 'Microsoft YaHei', sans-serif; text-anchor: middle" x="119.657884" y="9.664453" transform="rotate(-0 119.657884 9.664453)">留存率：付费 vs 非付费玩家</text>
   </g>
   <g id="legend_1">
    <g id="line2d_29">
     <path d="M 156.230611 23.816016 
L 162.230611 23.816016 
L 162.230611 23.816016 
L 168.230611 23.816016 
L 168.230611 23.816016 
" style="fill: none; stroke: #e28e2c; stroke-width: 1.2; stroke-linecap: square"/>
    </g>
    <g id="text_17">
     <text style="font-size: 6px; font-family: 'SimHei', 'Microsoft YaHei', sans-serif; text-anchor: start" x="173.030611" y="25.916016" transform="rotate(-0 173.030611 25.916016)">付费玩家</text>
    </g>
    <g id="line2d_30">
     <path d="M 156.230611 32.417578 
L 162.230611 32.417578 
L 162.230611 32.417578 
L 168.230611 32.417578 
L 168.230611 32.417578 
" style="fill: none; stroke: #0f4d92; stroke-width: 1.2; stroke-linecap: square"/>
    </g>
    <g id="text_18">
     <text style="font-size: 6px; font-family: 'SimHei', 'Microsoft YaHei', sans-serif; text-anchor: start" x="173.030611" y="34.517578" transform="rotate(-0 173.030611 34.517578)">非付费玩家</text>
    </g>
   </g>
  </g>
  <g id="axes_2">
   <g id="patch_5">
    <path d="M 243.939702 193.072453 
L 421.485156 193.072453 
L 421.485156 15.664453 
L 243.939702 15.664453 
z
" style="fill: #ffffff"/>
   </g>
   <g id="matplotlib.axis_3">
    <g id="xtick_8">
     <g id="line2d_31">
      <path d="M 243.939702 193.072453 
L 243.939702 15.664453 
" clip-path="url(#p1e081aabc6)" style="fill: none; stroke-dasharray: 1.11,0.48; stroke-dashoffset: 0; stroke: #b0b0b0; stroke-opacity: 0.3; stroke-width: 0.3"/>
     </g>
     <g id="line2d_32">
      <g>
       <use xlink:href="#m45477f755f" x="243.939702" y="193.072453" style="stroke: #000000; stroke-width: 0.8"/>
      </g>
     </g>
     <g id="text_19">
      <text style="font-size: 6.5px; font-family: 'SimHei', 'Microsoft YaHei', sans-serif; text-anchor: middle" x="243.939702" y="204.541203" transform="rotate(-0 243.939702 204.541203)">0</text>
     </g>
    </g>
    <g id="xtick_9">
     <g id="line2d_33">
      <path d="M 271.254387 193.072453 
L 271.254387 15.664453 
" clip-path="url(#p1e081aabc6)" style="fill: none; stroke-dasharray: 1.11,0.48; stroke-dashoffset: 0; stroke: #b0b0b0; stroke-opacity: 0.3; stroke-width: 0.3"/>
     </g>
     <g id="line2d_34">
      <g>
       <use xlink:href="#m45477f755f" x="271.254387" y="193.072453" style="stroke: #000000; stroke-width: 0.8"/>
      </g>
     </g>
     <g id="text_20">
      <text style="font-size: 6.5px; font-family: 'SimHei', 'Microsoft YaHei', sans-serif; text-anchor: middle" x="271.254387" y="204.541203" transform="rotate(-0 271.254387 204.541203)">10</text>
     </g>
    </g>
    <g id="xtick_10">
     <g id="line2d_35">
      <path d="M 298.569072 193.072453 
L 298.569072 15.664453 
" clip-path="url(#p1e081aabc6)" style="fill: none; stroke-dasharray: 1.11,0.48; stroke-dashoffset: 0; stroke: #b0b0b0; stroke-opacity: 0.3; stroke-width: 0.3"/>
     </g>
     <g id="line2d_36">
      <g>
       <use xlink:href="#m45477f755f" x="298.569072" y="193.072453" style="stroke: #000000; stroke-width: 0.8"/>
      </g>
     </g>
     <g id="text_21">
      <text style="font-size: 6.5px; font-family: 'SimHei', 'Microsoft YaHei', sans-serif; text-anchor: middle" x="298.569072" y="204.541203" transform="rotate(-0 298.569072 204.541203)">20</text>
     </g>
    </g>
    <g id="xtick_11">
     <g id="line2d_37">
      <path d="M 325.883758 193.072453 
L 325.883758 15.664453 
" clip-path="url(#p1e081aabc6)" style="fill: none; stroke-dasharray: 1.11,0.48; stroke-dashoffset: 0; stroke: #b0b0b0; stroke-opacity: 0.3; stroke-width: 0.3"/>
     </g>
     <g id="line2d_38">
      <g>
       <use xlink:href="#m45477f755f" x="325.883758" y="193.072453" style="stroke: #000000; stroke-width: 0.8"/>
      </g>
     </g>
     <g id="text_22">
      <text style="font-size: 6.5px; font-family: 'SimHei', 'Microsoft YaHei', sans-serif; text-anchor: middle" x="325.883758" y="204.541203" transform="rotate(-0 325.883758 204.541203)">30</text>
     </g>
    </g>
    <g id="xtick_12">
     <g id="line2d_39">
      <path d="M 353.198443 193.072453 
L 353.198443 15.664453 
" clip-path="url(#p1e081aabc6)" style="fill: none; stroke-dasharray: 1.11,0.48; stroke-dashoffset: 0; stroke: #b0b0b0; stroke-opacity: 0.3; stroke-width: 0.3"/>
     </g>
     <g id="line2d_40">
      <g>
       <use xlink:href="#m45477f755f" x="353.198443" y="193.072453" style="stroke: #000000; stroke-width: 0.8"/>
      </g>
     </g>
     <g id="text_23">
      <text style="font-size: 6.5px; font-family: 'SimHei', 'Microsoft YaHei', sans-serif; text-anchor: middle" x="353.198443" y="204.541203" transform="rotate(-0 353.198443 204.541203)">40</text>
     </g>
    </g>
    <g id="xtick_13">
     <g id="line2d_41">
      <path d="M 380.513128 193.072453 
L 380.513128 15.664453 
" clip-path="url(#p1e081aabc6)" style="fill: none; stroke-dasharray: 1.11,0.48; stroke-dashoffset: 0; stroke: #b0b0b0; stroke-opacity: 0.3; stroke-width: 0.3"/>
     </g>
     <g id="line2d_42">
      <g>
       <use xlink:href="#m45477f755f" x="380.513128" y="193.072453" style="stroke: #000000; stroke-width: 0.8"/>
      </g>
     </g>
     <g id="text_24">
      <text style="font-size: 6.5px; font-family: 'SimHei', 'Microsoft YaHei', sans-serif; text-anchor: middle" x="380.513128" y="204.541203" transform="rotate(-0 380.513128 204.541203)">50</text>
     </g>
    </g>
    <g id="xtick_14">
     <g id="line2d_43">
      <path d="M 407.827814 193.072453 
L 407.827814 15.664453 
" clip-path="url(#p1e081aabc6)" style="fill: none; stroke-dasharray: 1.11,0.48; stroke-dashoffset: 0; stroke: #b0b0b0; stroke-opacity: 0.3; stroke-width: 0.3"/>
     </g>
     <g id="line2d_44">
      <g>
       <use xlink:href="#m45477f755f" x="407.827814" y="193.072453" style="stroke: #000000; stroke-width: 0.8"/>
      </g>
     </g>
     <g id="text_25">
      <text style="font-size: 6.5px; font-family: 'SimHei', 'Microsoft YaHei', sans-serif; text-anchor: middle" x="407.827814" y="204.541203" transform="rotate(-0 407.827814 204.541203)">60</text>
     </g>
    </g>
    <g id="text_26">
     <text style="font-size: 7px; font-family: 'SimHei', 'Microsoft YaHei', sans-serif; text-anchor: middle" x="332.712429" y="214.959172" transform="rotate(-0 332.712429 214.959172)">注册后天数</text>
    </g>
   </g>
   <g id="matplotlib.axis_4">
    <g id="ytick_7">
     <g id="line2d_45">
      <path d="M 243.939702 193.072453 
L 421.485156 193.072453 
" clip-path="url(#p1e081aabc6)" style="fill: none; stroke-dasharray: 1.11,0.48; stroke-dashoffset: 0; stroke: #b0b0b0; stroke-opacity: 0.3; stroke-width: 0.3"/>
     </g>
     <g id="line2d_46">
      <g>
       <use xlink:href="#m9dcc4f09b5" x="243.939702" y="193.072453" style="stroke: #000000; stroke-width: 0.8"/>
      </g>
     </g>
     <g id="text_27">
      <text style="font-size: 6.5px; font-family: 'SimHei', 'Microsoft YaHei', sans-serif; text-anchor: end" x="236.939702" y="195.306828" transform="rotate(-0 236.939702 195.306828)">0.0</text>
     </g>
    </g>
    <g id="ytick_8">
     <g id="line2d_47">
      <path d="M 243.939702 159.280453 
L 421.485156 159.280453 
" clip-path="url(#p1e081aabc6)" style="fill: none; stroke-dasharray: 1.11,0.48; stroke-dashoffset: 0; stroke: #b0b0b0; stroke-opacity: 0.3; stroke-width: 0.3"/>
     </g>
     <g id="line2d_48">
      <g>
       <use xlink:href="#m9dcc4f09b5" x="243.939702" y="159.280453" style="stroke: #000000; stroke-width: 0.8"/>
      </g>
     </g>
     <g id="text_28">
      <text style="font-size: 6.5px; font-family: 'SimHei', 'Microsoft YaHei', sans-serif; text-anchor: end" x="236.939702" y="161.514828" transform="rotate(-0 236.939702 161.514828)">0.2</text>
     </g>
    </g>
    <g id="ytick_9">
     <g id="line2d_49">
      <path d="M 243.939702 125.488453 
L 421.485156 125.488453 
" clip-path="url(#p1e081aabc6)" style="fill: none; stroke-dasharray: 1.11,0.48; stroke-dashoffset: 0; stroke: #b0b0b0; stroke-opacity: 0.3; stroke-width: 0.3"/>
     </g>
     <g id="line2d_50">
      <g>
       <use xlink:href="#m9dcc4f09b5" x="243.939702" y="125.488453" style="stroke: #000000; stroke-width: 0.8"/>
      </g>
     </g>
     <g id="text_29">
      <text style="font-size: 6.5px; font-family: 'SimHei', 'Microsoft YaHei', sans-serif; text-anchor: end" x="236.939702" y="127.722828" transform="rotate(-0 236.939702 127.722828)">0.4</text>
     </g>
    </g>
    <g id="ytick_10">
     <g id="line2d_51">
      <path d="M 243.939702 91.696453 
L 421.485156 91.696453 
" clip-path="url(#p1e081aabc6)" style="fill: none; stroke-dasharray: 1.11,0.48; stroke-dashoffset: 0; stroke: #b0b0b0; stroke-opacity: 0.3; stroke-width: 0.3"/>
     </g>
     <g id="line2d_52">
      <g>
       <use xlink:href="#m9dcc4f09b5" x="243.939702" y="91.696453" style="stroke: #000000; stroke-width: 0.8"/>
      </g>
     </g>
     <g id="text_30">
      <text style="font-size: 6.5px; font-family: 'SimHei', 'Microsoft YaHei', sans-serif; text-anchor: end" x="236.939702" y="93.930828" transform="rotate(-0 236.939702 93.930828)">0.6</text>
     </g>
    </g>
    <g id="ytick_11">
     <g id="line2d_53">
      <path d="M 243.939702 57.904453 
L 421.485156 57.904453 
" clip-path="url(#p1e081aabc6)" style="fill: none; stroke-dasharray: 1.11,0.48; stroke-dashoffset: 0; stroke: #b0b0b0; stroke-opacity: 0.3; stroke-width: 0.3"/>
     </g>
     <g id="line2d_54">
      <g>
       <use xlink:href="#m9dcc4f09b5" x="243.939702" y="57.904453" style="stroke: #000000; stroke-width: 0.8"/>
      </g>
     </g>
     <g id="text_31">
      <text style="font-size: 6.5px; font-family: 'SimHei', 'Microsoft YaHei', sans-serif; text-anchor: end" x="236.939702" y="60.138828" transform="rotate(-0 236.939702 60.138828)">0.8</text>
     </g>
    </g>
    <g id="ytick_12">
     <g id="line2d_55">
      <path d="M 243.939702 24.112453 
L 421.485156 24.112453 
" clip-path="url(#p1e081aabc6)" style="fill: none; stroke-dasharray: 1.11,0.48; stroke-dashoffset: 0; stroke: #b0b0b0; stroke-opacity: 0.3; stroke-width: 0.3"/>
     </g>
     <g id="line2d_56">
      <g>
       <use xlink:href="#m9dcc4f09b5" x="243.939702" y="24.112453" style="stroke: #000000; stroke-width: 0.8"/>
      </g>
     </g>
     <g id="text_32">
      <text style="font-size: 6.5px; font-family: 'SimHei', 'Microsoft YaHei', sans-serif; text-anchor: end" x="236.939702" y="26.346828" transform="rotate(-0 236.939702 26.346828)">1.0</text>
     </g>
    </g>
    <g id="text_33">
     <text style="font-size: 7px; font-family: 'SimHei', 'Microsoft YaHei', sans-serif; text-anchor: middle" x="222.314702" y="104.368453" transform="rotate(-90 222.314702 104.368453)">留存概率</text>
    </g>
   </g>
   <g id="line2d_57">
    <path d="M 243.939702 24.112453 
L 246.67117 24.112453 
L 246.67117 54.189102 
L 249.402639 54.189102 
L 249.402639 78.958108 
L 252.134107 78.958108 
L 252.134107 101.073291 
L 254.865576 101.073291 
L 254.865576 117.88083 
L 257.597044 117.88083 
L 257.597044 128.053814 
L 260.328513 128.053814 
L 260.328513 138.669102 
L 263.059981 138.669102 
L 263.059981 145.745961 
L 265.79145 145.745961 
L 265.79145 153.265123 
L 268.522918 153.265123 
L 268.522918 159.899678 
L 271.254387 159.899678 
L 271.254387 163.880411 
L 273.985856 163.880411 
L 273.985856 165.649626 
L 276.717324 165.649626 
L 276.717324 167.861144 
L 279.448793 167.861144 
L 279.448793 170.514966 
L 282.180261 170.514966 
L 282.180261 171.399574 
L 284.91173 171.399574 
L 284.91173 173.611092 
L 287.643198 173.611092 
L 287.643198 175.82261 
L 290.374667 175.82261 
L 290.374667 177.149521 
L 293.106135 177.149521 
L 293.106135 177.591825 
L 295.837604 177.591825 
L 295.837604 179.803343 
L 298.569072 179.803343 
L 298.569072 181.572558 
L 301.300541 181.572558 
L 301.300541 182.014862 
L 304.032009 182.014862 
L 304.032009 183.341772 
L 306.763478 183.341772 
L 306.763478 184.668683 
L 312.226415 184.668683 
L 312.226415 185.110987 
L 317.689352 185.110987 
L 317.689352 186.437898 
L 325.883758 186.437898 
L 325.883758 186.437898 
" clip-path="url(#p1e081aabc6)" style="fill: none; stroke: #2e7d32; stroke-width: 1.2; stroke-linecap: square"/>
   </g>
   <g id="line2d_58">
    <path d="M 243.939702 24.112453 
L 246.67117 24.112453 
L 246.67117 155.792651 
L 249.402639 155.792651 
L 249.402639 172.813961 
L 252.134107 172.813961 
L 252.134107 182.00338 
L 254.865576 182.00338 
L 254.865576 186.389239 
L 257.597044 186.389239 
L 257.597044 188.582169 
L 260.328513 188.582169 
L 260.328513 190.044122 
L 263.059981 190.044122 
L 263.059981 191.088374 
L 265.79145 191.088374 
L 265.79145 191.6105 
L 268.522918 191.6105 
L 268.522918 191.923776 
L 271.254387 191.923776 
L 271.254387 192.028201 
L 276.717324 192.028201 
L 276.717324 192.132626 
L 279.448793 192.132626 
L 279.448793 192.341477 
L 282.180261 192.341477 
L 282.180261 192.654752 
L 284.91173 192.654752 
L 284.91173 192.863603 
L 325.883758 192.863603 
L 325.883758 192.863603 
" clip-path="url(#p1e081aabc6)" style="fill: none; stroke: #767676; stroke-width: 1.2; stroke-linecap: square"/>
   </g>
   <g id="patch_6">
    <path d="M 243.939702 193.072453 
L 243.939702 15.664453 
" style="fill: none; stroke: #000000; stroke-width: 0.8; stroke-linejoin: miter; stroke-linecap: square"/>
   </g>
   <g id="patch_7">
    <path d="M 243.939702 193.072453 
L 421.485156 193.072453 
" style="fill: none; stroke: #000000; stroke-width: 0.8; stroke-linejoin: miter; stroke-linecap: square"/>
   </g>
   <g id="text_34">
    <text style="font-weight: 700; font-size: 7.5px; font-family: 'SimHei', 'Microsoft YaHei', sans-serif; text-anchor: middle" x="332.712429" y="9.664453" transform="rotate(-0 332.712429 9.664453)">留存率：加联盟 vs 未加联盟</text>
   </g>
   <g id="legend_2">
    <g id="line2d_59">
     <path d="M 375.285156 23.745703 
L 381.285156 23.745703 
L 381.285156 23.745703 
L 387.285156 23.745703 
L 387.285156 23.745703 
" style="fill: none; stroke: #2e7d32; stroke-width: 1.2; stroke-linecap: square"/>
    </g>
    <g id="text_35">
     <text style="font-size: 6px; font-family: 'SimHei', 'Microsoft YaHei', sans-serif; text-anchor: start" x="392.085156" y="25.845703" transform="rotate(-0 392.085156 25.845703)">加联盟</text>
    </g>
    <g id="line2d_60">
     <path d="M 375.285156 32.276953 
L 381.285156 32.276953 
L 381.285156 32.276953 
L 387.285156 32.276953 
L 387.285156 32.276953 
" style="fill: none; stroke: #767676; stroke-width: 1.2; stroke-linecap: square"/>
    </g>
    <g id="text_36">
     <text style="font-size: 6px; font-family: 'SimHei', 'Microsoft YaHei', sans-serif; text-anchor: start" x="392.085156" y="34.376953" transform="rotate(-0 392.085156 34.376953)">未加联盟</text>
    </g>
   </g>
  </g>
 </g>
 <defs>
  <clipPath id="pf6514ef292">
   <rect x="30.885156" y="15.664453" width="177.545455" height="177.408"/>
  </clipPath>
  <clipPath id="p1e081aabc6">
   <rect x="243.939702" y="15.664453" width="177.545455" height="177.408"/>
  </clipPath>
 </defs>
</svg>
