<?xml version="1.0" encoding="utf-8" standalone="no"?>
<!DOCTYPE svg PUBLIC "-//W3C//DTD SVG 1.1//EN"
  "http://www.w3.org/Graphics/SVG/1.1/DTD/svg11.dtd">
<svg xmlns:xlink="http://www.w3.org/1999/xlink" width="425.085156pt" height="219.434172pt" viewBox="0 0 425.085156 219.434172" xmlns="http://www.w3.org/2000/svg" version="1.1">
 <metadata>
  <rdf:RDF xmlns:dc="http://purl.org/dc/elements/1.1/" xmlns:cc="http://creativecommons.org/ns#" xmlns:rdf="http://www.w3.org/1999/02/22-rdf-syntax-ns#">
   <cc:Work>
    <dc:type rdf:resource="http://purl.org/dc/dcmitype/StillImage"/>
    <dc:date>2026-05-21T19:28:13.989776</dc:date>
    <dc:format>image/svg+xml</dc:format>
    <dc:creator>
     <cc:Agent>
      <dc:title>Matplotlib v3.10.0, https://matplotlib.org/</dc:title>
     </cc:Agent>
    </dc:creator>
   </cc:Work>
  </rdf:RDF>
 </metadata>
 <defs>
  <style type="text/css">*{stroke-linejoin: round; stroke-linecap: butt}</style>
 </defs>
 <g id="figure_1">
  <g id="patch_1">
   <path d="M 0 219.434172 
L 425.085156 219.434172 
L 425.085156 0 
L 0 0 
z
" style="fill: #ffffff"/>
  </g>
  <g id="axes_1">
   <g id="patch_2">
    <path d="M 30.885156 193.072453 
L 208.430611 193.072453 
L 208.430611 15.664453 
L 30.885156 15.664453 
z
" style="fill: #ffffff"/>
   </g>
   <g id="matplotlib.axis_1">
    <g id="xtick_1">
     <g id="line2d_1">
      <path d="M 30.885156 193.072453 
L 30.885156 15.664453 
" clip-path="url(#p681df0e3e6)" style="fill: none; stroke-dasharray: 1.11,0.48; stroke-dashoffset: 0; stroke: #b0b0b0; stroke-opacity: 0.3; stroke-width: 0.3"/>
     </g>
     <g id="line2d_2">
      <defs>
       <path id="m9e41dd0d42" d="M 0 0 
L 0 3.5 
" style="stroke: #000000; stroke-width: 0.8"/>
      </defs>
      <g>
       <use xlink:href="#m9e41dd0d42" x="30.885156" y="193.072453" style="stroke: #000000; stroke-width: 0.8"/>
      </g>
     </g>
     <g id="text_1">
      <text style="font-size: 6.5px; font-family: 'SimHei', 'Microsoft YaHei', sans-serif; text-anchor: middle" x="30.885156" y="204.541203" transform="rotate(-0 30.885156 204.541203)">0</text>
     </g>
    </g>
    <g id="xtick_2">
     <g id="line2d_3">
      <path d="M 58.199842 193.072453 
L 58.199842 15.664453 
" clip-path="url(#p681df0e3e6)" style="fill: none; stroke-dasharray: 1.11,0.48; stroke-dashoffset: 0; stroke: #b0b0b0; stroke-opacity: 0.3; stroke-width: 0.3"/>
     </g>
     <g id="line2d_4">
      <g>
       <use xlink:href="#m9e41dd0d42" x="58.199842" y="193.072453" style="stroke: #000000; stroke-width: 0.8"/>
      </g>
     </g>
     <g id="text_2">
      <text style="font-size: 6.5px; font-family: 'SimHei', 'Microsoft YaHei', sans-serif; text-anchor: middle" x="58.199842" y="204.541203" transform="rotate(-0 58.199842 204.541203)">10</text>
     </g>
    </g>
    <g id="xtick_3">
     <g id="line2d_5">
      <path d="M 85.514527 193.072453 
L 85.514527 15.664453 
" clip-path="url(#p681df0e3e6)" style="fill: none; stroke-dasharray: 1.11,0.48; stroke-dashoffset: 0; stroke: #b0b0b0; stroke-opacity: 0.3; stroke-width: 0.3"/>
     </g>
     <g id="line2d_6">
      <g>
       <use xlink:href="#m9e41dd0d42" x="85.514527" y="193.072453" style="stroke: #000000; stroke-width: 0.8"/>
      </g>
     </g>
     <g id="text_3">
      <text style="font-size: 6.5px; font-family: 'SimHei', 'Microsoft YaHei', sans-serif; text-anchor: middle" x="85.514527" y="204.541203" transform="rotate(-0 85.514527 204.541203)">20</text>
     </g>
    </g>
    <g id="xtick_4">
     <g id="line2d_7">
      <path d="M 112.829212 193.072453 
L 112.829212 15.664453 
" clip-path="url(#p681df0e3e6)" style="fill: none; stroke-dasharray: 1.11,0.48; stroke-dashoffset: 0; stroke: #b0b0b0; stroke-opacity: 0.3; stroke-width: 0.3"/>
     </g>
     <g id="line2d_8">
      <g>
       <use xlink:href="#m9e41dd0d42" x="112.829212" y="193.072453" style="stroke: #000000; stroke-width: 0.8"/>
      </g>
     </g>
     <g id="text_4">
      <text style="font-size: 6.5px; font-family: 'SimHei', 'Microsoft YaHei', sans-serif; text-anchor: middle" x="112.829212" y="204.541203" transform="rotate(-0 112.829212 204.541203)">30</text>
     </g>
    </g>
    <g id="xtick_5">
     <g id="line2d_9">
      <path d="M 140.143898 193.072453 
L 140.143898 15.664453 
" clip-path="url(#p681df0e3e6)" style="fill: none; stroke-dasharray: 1.11,0.48; stroke-dashoffset: 0; stroke: #b0b0b0; stroke-opacity: 0.3; stroke-width: 0.3"/>
     </g>
     <g id="line2d_10">
      <g>
       <use xlink:href="#m9e41dd0d42" x="140.143898" y="193.072453" style="stroke: #000000; stroke-width: 0.8"/>
      </g>
     </g>
     <g id="text_5">
      <text style="font-size: 6.5px; font-family: 'SimHei', 'Microsoft YaHei', sans-serif; text-anchor: middle" x="140.143898" y="204.541203" transform="rotate(-0 140.143898 204.541203)">40</text>
     </g>
    </g>
    <g id="xtick_6">
     <g id="line2d_11">
      <path d="M 167.458583 193.072453 
L 167.458583 15.664453 
" clip-path="url(#p681df0e3e6)" style="fill: none; stroke-dasharray: 1.11,0.48; stroke-dashoffset: 0; stroke: #b0b0b0; stroke-opacity: 0.3; stroke-width: 0.3"/>
     </g>
     <g id="line2d_12">
      <g>
       <use xlink:href="#m9e41dd0d42" x="167.458583" y="193.072453" style="stroke: #000000; stroke-width: 0.8"/>
      </g>
     </g>
     <g id="text_6">
      <text style="font-size: 6.5px; font-family: 'SimHei', 'Microsoft YaHei', sans-serif; text-anchor: middle" x="167.458583" y="204.541203" transform="rotate(-0 167.458583 204.541203)">50</text>
     </g>
    </g>
    <g id="xtick_7">
     <g id="line2d_13">
      <path d="M 194.773268 193.072453 
L 194.773268 15.664453 
" clip-path="url(#p681df0e3e6)" style="fill: none; stroke-dasharray: 1.11,0.48; stroke-dashoffset: 0; stroke: #b0b0b0; stroke-opacity: 0.3; stroke-width: 0.3"/>
     </g>
     <g id="line2d_14">
      <g>
       <use xlink:href="#m9e41dd0d42" x="194.773268" y="193.072453" style="stroke: #000000; stroke-width: 0.8"/>
      </g>
     </g>
     <g id="text_7">
      <text style="font-size: 6.5px; font-family: 'SimHei', 'Microsoft YaHei', sans-serif; text-anchor: middle" x="194.773268" y="204.541203" transform="rotate(-0 194.773268 204.541203)">60</text>
     </g>
    </g>
    <g id="text_8">
     <text style="font-size: 7px; font-family: 'SimHei', 'Microsoft YaHei', sans-serif; text-anchor: middle" x="119.657884" y="214.959172" transform="rotate(-0 119.657884 214.959172)">注册后天数</text>
    </g>
   </g>
   <g id="matplotlib.axis_2">
    <g id="ytick_1">
     <g id="line2d_15">
      <path d="M 30.885156 193.072453 
L 208.430611 193.072453 
" clip-path="url(#p681df0e3e6)" style="fill: none; stroke-dasharray: 1.11,0.48; stroke-dashoffset: 0; stroke: #b0b0b0; stroke-opacity: 0.3; stroke-width: 0.3"/>
     </g>
     <g id="line2d_16">
      <defs>
       <path id="mfb62477880" d="M 0 0 
L -3.5 0 
" style="stroke: #000000; stroke-width: 0.8"/>
      </defs>
      <g>
       <use xlink:href="#mfb62477880" x="30.885156" y="193.072453" style="stroke: #000000; stroke-width: 0.8"/>
      </g>
     </g>
     <g id="text_9">
      <text style="font-size: 6.5px; font-family: 'SimHei', 'Microsoft YaHei', sans-serif; text-anchor: end" x="23.885156" y="195.306828" transform="rotate(-0 23.885156 195.306828)">0.0</text>
     </g>
    </g>
    <g id="ytick_2">
     <g id="line2d_17">
      <path d="M 30.885156 159.280453 
L 208.430611 159.280453 
" clip-path="url(#p681df0e3e6)" style="fill: none; stroke-dasharray: 1.11,0.48; stroke-dashoffset: 0; stroke: #b0b0b0; stroke-opacity: 0.3; stroke-width: 0.3"/>
     </g>
     <g id="line2d_18">
      <g>
       <use xlink:href="#mfb62477880" x="30.885156" y="159.280453" style="stroke: #000000; stroke-width: 0.8"/>
      </g>
     </g>
     <g id="text_10">
      <text style="font-size: 6.5px; font-family: 'SimHei', 'Microsoft YaHei', sans-serif; text-anchor: end" x="23.885156" y="161.514828" transform="rotate(-0 23.885156 161.514828)">0.2</text>
     </g>
    </g>
    <g id="ytick_3">
     <g id="line2d_19">
      <path d="M 30.885156 125.488453 
L 208.430611 125.488453 
" clip-path="url(#p681df0e3e6)" style="fill: none; stroke-dasharray: 1.11,0.48; stroke-dashoffset: 0; stroke: #b0b0b0; stroke-opacity: 0.3; stroke-width: 0.3"/>
     </g>
     <g id="line2d_20">
      <g>
       <use xlink:href="#mfb62477880" x="30.885156" y="125.488453" style="stroke: #000000; stroke-width: 0.8"/>
      </g>
     </g>
     <g id="text_11">
      <text style="font-size: 6.5px; font-family: 'SimHei', 'Microsoft YaHei', sans-serif; text-anchor: end" x="23.885156" y="127.722828" transform="rotate(-0 23.885156 127.722828)">0.4</text>
     </g>
    </g>
    <g id="ytick_4">
     <g id="line2d_21">
      <path d="M 30.885156 91.696453 
L 208.430611 91.696453 
" clip-path="url(#p681df0e3e6)" style="fill: none; stroke-dasharray: 1.11,0.48; stroke-dashoffset: 0; stroke: #b0b0b0; stroke-opacity: 0.3; stroke-width: 0.3"/>
     </g>
     <g id="line2d_22">
      <g>
       <use xlink:href="#mfb62477880" x="30.885156" y="91.696453" style="stroke: #000000; stroke-width: 0.8"/>
      </g>
     </g>
     <g id="text_12">
      <text style="font-size: 6.5px; font-family: 'SimHei', 'Microsoft YaHei', sans-serif; text-anchor: end" x="23.885156" y="93.930828" transform="rotate(-0 23.885156 93.930828)">0.6</text>
     </g>
    </g>
    <g id="ytick_5">
     <g id="line2d_23">
      <path d="M 30.885156 57.904453 
L 208.430611 57.904453 
" clip-path="url(#p681df0e3e6)" style="fill: none; stroke-dasharray: 1.11,0.48; stroke-dashoffset: 0; stroke: #b0b0b0; stroke-opacity: 0.3; stroke-width: 0.3"/>
     </g>
     <g id="line2d_24">
      <g>
       <use xlink:href="#mfb62477880" x="30.885156" y="57.904453" style="stroke: #000000; stroke-width: 0.8"/>
      </g>
     </g>
     <g id="text_13">
      <text style="font-size: 6.5px; font-family: 'SimHei', 'Microsoft YaHei', sans-serif; text-anchor: end" x="23.885156" y="60.138828" transform="rotate(-0 23.885156 60.138828)">0.8</text>
     </g>
    </g>
    <g id="ytick_6">
     <g id="line2d_25">
      <path d="M 30.885156 24.112453 
L 208.430611 24.112453 
" clip-path="url(#p681df0e3e6)" style="fill: none; stroke-dasharray: 1.11,0.48; stroke-dashoffset: 0; stroke: #b0b0b0; stroke-opacity: 0.3; stroke-width: 0.3"/>
     </g>
     <g id="line2d_26">
      <g>
       <use xlink:href="#mfb62477880" x="30.885156" y="24.112453" style="stroke: #000000; stroke-width: 0.8"/>
      </g>
     </g>
     <g id="text_14">
      <text style="font-size: 6.5px; font-family: 'SimHei', 'Microsoft YaHei', sans-serif; text-anchor: end" x="23.885156" y="26.346828" transform="rotate(-0 23.885156 26.346828)">1.0</text>
     </g>
    </g>
    <g id="text_15">
     <text style="font-size: 7px; font-family: 'SimHei', 'Microsoft YaHei', sans-serif; text-anchor: middle" x="9.260156" y="104.368453" transform="rotate(-90 9.260156 104.368453)">留存概率</text>
    </g>
   </g>
   <g id="line2d_27">
    <path d="M 30.885156 24.112453 
L 33.616625 24.112453 
L 33.616625 35.376453 
L 36.348093 35.376453 
L 36.348093 39.882053 
L 39.079562 39.882053 
L 39.079562 55.651653 
L 41.81103 55.651653 
L 41.81103 64.662853 
L 44.542499 64.662853 
L 44.542499 71.421253 
L 47.273967 71.421253 
L 47.273967 73.674053 
L 50.005436 73.674053 
L 50.005436 78.179653 
L 55.468373 78.179653 
L 55.468373 82.685253 
L 58.199842 82.685253 
L 58.199842 84.938053 
L 60.93131 84.938053 
L 60.93131 87.190853 
L 63.662779 87.190853 
L 63.662779 93.949253 
L 66.394247 93.949253 
L 66.394247 98.454853 
L 80.05159 98.454853 
L 80.05159 98.454853 
L 82.783058 98.454853 
L 82.783058 98.454853 
L 85.514527 98.454853 
L 85.514527 100.880945 
L 93.708932 100.880945 
L 93.708932 103.307038 
L 96.440401 103.307038 
L 96.440401 105.800522 
L 99.17187 105.800522 
L 99.17187 108.294005 
L 101.903338 108.294005 
L 101.903338 115.774457 
L 104.634807 115.774457 
L 104.634807 118.26794 
L 123.755086 118.26794 
L 123.755086 118.26794 
L 134.68096 118.26794 
L 134.68096 118.26794 
L 137.412429 118.26794 
L 137.412429 118.26794 
L 140.143898 118.26794 
L 140.143898 118.26794 
L 142.875366 118.26794 
L 142.875366 118.26794 
L 161.995646 118.26794 
L 161.995646 118.26794 
L 192.0418 118.26794 
L 192.0418 118.26794 
L 194.773268 118.26794 
L 194.773268 118.26794 
L 197.504737 118.26794 
L 197.504737 118.26794 
L 200.236205 118.26794 
L 200.236205 118.26794 
L 205.699142 118.26794 
L 205.699142 118.26794 
L 208.430611 118.26794 
L 208.430611 118.26794 
L 222.087953 118.26794 
L 222.087953 118.26794 
L 252.134107 118.26794 
L 252.134107 118.26794 
L 271.254387 118.26794 
L 271.254387 118.26794 
L 273.985856 118.26794 
L 273.985856 118.26794 
L 276.717324 118.26794 
L 276.717324 118.26794 
" clip-path="url(#p681df0e3e6)" style="fill: none; stroke: #e28e2c; stroke-width: 1.2; stroke-linecap: square"/>
   </g>
   <g id="line2d_28">
    <path d="M 30.885156 24.112453 
L 33.616625 24.112453 
L 33.616625 124.874053 
L 36.348093 124.874053 
L 36.348093 139.462886 
L 39.079562 139.462886 
L 39.079562 144.735958 
L 41.81103 144.735958 
L 41.81103 149.21807 
L 44.542499 149.21807 
L 44.542499 152.997105 
L 47.273967 152.997105 
L 47.273967 155.369987 
L 50.005436 155.369987 
L 50.005436 157.215562 
L 52.736905 157.215562 
L 52.736905 158.53383 
L 55.468373 158.53383 
L 55.468373 160.994597 
L 58.199842 160.994597 
L 58.199842 162.492739 
L 60.93131 162.492739 
L 60.93131 164.171972 
L 63.662779 164.171972 
L 63.662779 165.5904 
L 66.394247 165.5904 
L 66.394247 167.097481 
L 69.125716 167.097481 
L 69.125716 168.249954 
L 71.857184 168.249954 
L 71.857184 169.491079 
L 74.588653 169.491079 
L 74.588653 171.982696 
L 77.320121 171.982696 
L 77.320121 173.050532 
L 80.05159 173.050532 
L 80.05159 174.659436 
L 82.783058 174.659436 
L 82.783058 176.178957 
L 85.514527 176.178957 
L 85.514527 176.715258 
L 88.245995 176.715258 
L 88.245995 178.324163 
L 90.977464 178.324163 
L 90.977464 178.949848 
L 93.708932 178.949848 
L 93.708932 179.575533 
L 96.440401 179.575533 
L 96.440401 180.201218 
L 99.17187 180.201218 
L 99.17187 180.379985 
L 101.903338 180.379985 
L 101.903338 181.190143 
L 104.634807 181.190143 
L 104.634807 181.734371 
L 107.366275 181.734371 
L 107.366275 182.369303 
L 110.097744 182.369303 
L 110.097744 182.641417 
L 276.717324 182.641417 
L 276.717324 182.641417 
" clip-path="url(#p681df0e3e6)" style="fill: none; stroke: #0f4d92; stroke-width: 1.2; stroke-linecap: square"/>
   </g>
   <g id="patch_3">
    <path d="M 30.885156 193.072453 
L 30.885156 15.664453 
" style="fill: none; stroke: #000000; stroke-width: 0.8; stroke-linejoin: miter; stroke-linecap: square"/>
   </g>
   <g id="patch_4">
    <path d="M 30.885156 193.072453 
L 208.430611 193.072453 
" style="fill: none; stroke: #000000; stroke-width: 0.8; stroke-linejoin: miter; stroke-linecap: square"/>
   </g>
   <g id="text_16">
    <text style="font-weight: 700; font-size: 7.5px; font-family: 'SimHei', 'Microsoft YaHei', sans-serif; text-anchor: middle" x="119.657884" y="9.664453" transform="rotate(-0 119.657884 9.664453)">留存率：付费 vs 非付费玩家</text>
   </g>
   <g id="legend_1">
    <g id="line2d_29">
     <path d="M 156.230611 23.816016 
L 162.230611 23.816016 
L 162.230611 23.816016 
L 168.230611 23.816016 
L 168.230611 23.816016 
" style="fill: none; stroke: #e28e2c; stroke-width: 1.2; stroke-linecap: square"/>
    </g>
    <g id="text_17">
     <text style="font-size: 6px; font-family: 'SimHei', 'Microsoft YaHei', sans-serif; text-anchor: start" x="173.030611" y="25.916016" transform="rotate(-0 173.030611 25.916016)">付费玩家</text>
    </g>
    <g id="line2d_30">
     <path d="M 156.230611 32.417578 
L 162.230611 32.417578 
L 162.230611 32.417578 
L 168.230611 32.417578 
L 168.230611 32.417578 
" style="fill: none; stroke: #0f4d92; stroke-width: 1.2; stroke-linecap: square"/>
    </g>
    <g id="text_18">
     <text style="font-size: 6px; font-family: 'SimHei', 'Microsoft YaHei', sans-serif; text-anchor: start" x="173.030611" y="34.517578" transform="rotate(-0 173.030611 34.517578)">非付费玩家</text>
    </g>
   </g>
  </g>
  <g id="axes_2">
   <g id="patch_5">
    <path d="M 243.939702 193.072453 
L 421.485156 193.072453 
L 421.485156 15.664453 
L 243.939702 15.664453 
z
" style="fill: #ffffff"/>
   </g>
   <g id="matplotlib.axis_3">
    <g id="xtick_8">
     <g id="line2d_31">
      <path d="M 243.939702 193.072453 
L 243.939702 15.664453 
" clip-path="url(#pab00354566)" style="fill: none; stroke-dasharray: 1.11,0.48; stroke-dashoffset: 0; stroke: #b0b0b0; stroke-opacity: 0.3; stroke-width: 0.3"/>
     </g>
     <g id="line2d_32">
      <g>
       <use xlink:href="#m9e41dd0d42" x="243.939702" y="193.072453" style="stroke: #000000; stroke-width: 0.8"/>
      </g>
     </g>
     <g id="text_19">
      <text style="font-size: 6.5px; font-family: 'SimHei', 'Microsoft YaHei', sans-serif; text-anchor: middle" x="243.939702" y="204.541203" transform="rotate(-0 243.939702 204.541203)">0</text>
     </g>
    </g>
    <g id="xtick_9">
     <g id="line2d_33">
      <path d="M 271.254387 193.072453 
L 271.254387 15.664453 
" clip-path="url(#pab00354566)" style="fill: none; stroke-dasharray: 1.11,0.48; stroke-dashoffset: 0; stroke: #b0b0b0; stroke-opacity: 0.3; stroke-width: 0.3"/>
     </g>
     <g id="line2d_34">
      <g>
       <use xlink:href="#m9e41dd0d42" x="271.254387" y="193.072453" style="stroke: #000000; stroke-width: 0.8"/>
      </g>
     </g>
     <g id="text_20">
      <text style="font-size: 6.5px; font-family: 'SimHei', 'Microsoft YaHei', sans-serif; text-anchor: middle" x="271.254387" y="204.541203" transform="rotate(-0 271.254387 204.541203)">10</text>
     </g>
    </g>
    <g id="xtick_10">
     <g id="line2d_35">
      <path d="M 298.569072 193.072453 
L 298.569072 15.664453 
" clip-path="url(#pab00354566)" style="fill: none; stroke-dasharray: 1.11,0.48; stroke-dashoffset: 0; stroke: #b0b0b0; stroke-opacity: 0.3; stroke-width: 0.3"/>
     </g>
     <g id="line2d_36">
      <g>
       <use xlink:href="#m9e41dd0d42" x="298.569072" y="193.072453" style="stroke: #000000; stroke-width: 0.8"/>
      </g>
     </g>
     <g id="text_21">
      <text style="font-size: 6.5px; font-family: 'SimHei', 'Microsoft YaHei', sans-serif; text-anchor: middle" x="298.569072" y="204.541203" transform="rotate(-0 298.569072 204.541203)">20</text>
     </g>
    </g>
    <g id="xtick_11">
     <g id="line2d_37">
      <path d="M 325.883758 193.072453 
L 325.883758 15.664453 
" clip-path="url(#pab00354566)" style="fill: none; stroke-dasharray: 1.11,0.48; stroke-dashoffset: 0; stroke: #b0b0b0; stroke-opacity: 0.3; stroke-width: 0.3"/>
     </g>
     <g id="line2d_38">
      <g>
       <use xlink:href="#m9e41dd0d42" x="325.883758" y="193.072453" style="stroke: #000000; stroke-width: 0.8"/>
      </g>
     </g>
     <g id="text_22">
      <text style="font-size: 6.5px; font-family: 'SimHei', 'Microsoft YaHei', sans-serif; text-anchor: middle" x="325.883758" y="204.541203" transform="rotate(-0 325.883758 204.541203)">30</text>
     </g>
    </g>
    <g id="xtick_12">
     <g id="line2d_39">
      <path d="M 353.198443 193.072453 
L 353.198443 15.664453 
" clip-path="url(#pab00354566)" style="fill: none; stroke-dasharray: 1.11,0.48; stroke-dashoffset: 0; stroke: #b0b0b0; stroke-opacity: 0.3; stroke-width: 0.3"/>
     </g>
     <g id="line2d_40">
      <g>
       <use xlink:href="#m9e41dd0d42" x="353.198443" y="193.072453" style="stroke: #000000; stroke-width: 0.8"/>
      </g>
     </g>
     <g id="text_23">
      <text style="font-size: 6.5px; font-family: 'SimHei', 'Microsoft YaHei', sans-serif; text-anchor: middle" x="353.198443" y="204.541203" transform="rotate(-0 353.198443 204.541203)">40</text>
     </g>
    </g>
    <g id="xtick_13">
     <g id="line2d_41">
      <path d="M 380.513128 193.072453 
L 380.513128 15.664453 
" clip-path="url(#pab00354566)" style="fill: none; stroke-dasharray: 1.11,0.48; stroke-dashoffset: 0; stroke: #b0b0b0; stroke-opacity: 0.3; stroke-width: 0.3"/>
     </g>
     <g id="line2d_42">
      <g>
       <use xlink:href="#m9e41dd0d42" x="380.513128" y="193.072453" style="stroke: #000000; stroke-width: 0.8"/>
      </g>
     </g>
     <g id="text_24">
      <text style="font-size: 6.5px; font-family: 'SimHei', 'Microsoft YaHei', sans-serif; text-anchor: middle" x="380.513128" y="204.541203" transform="rotate(-0 380.513128 204.541203)">50</text>
     </g>
    </g>
    <g id="xtick_14">
     <g id="line2d_43">
      <path d="M 407.827814 193.072453 
L 407.827814 15.664453 
" clip-path="url(#pab00354566)" style="fill: none; stroke-dasharray: 1.11,0.48; stroke-dashoffset: 0; stroke: #b0b0b0; stroke-opacity: 0.3; stroke-width: 0.3"/>
     </g>
     <g id="line2d_44">
      <g>
       <use xlink:href="#m9e41dd0d42" x="407.827814" y="193.072453" style="stroke: #000000; stroke-width: 0.8"/>
      </g>
     </g>
     <g id="text_25">
      <text style="font-size: 6.5px; font-family: 'SimHei', 'Microsoft YaHei', sans-serif; text-anchor: middle" x="407.827814" y="204.541203" transform="rotate(-0 407.827814 204.541203)">60</text>
     </g>
    </g>
    <g id="text_26">
     <text style="font-size: 7px; font-family: 'SimHei', 'Microsoft YaHei', sans-serif; text-anchor: middle" x="332.712429" y="214.959172" transform="rotate(-0 332.712429 214.959172)">注册后天数</text>
    </g>
   </g>
   <g id="matplotlib.axis_4">
    <g id="ytick_7">
     <g id="line2d_45">
      <path d="M 243.939702 193.072453 
L 421.485156 193.072453 
" clip-path="url(#pab00354566)" style="fill: none; stroke-dasharray: 1.11,0.48; stroke-dashoffset: 0; stroke: #b0b0b0; stroke-opacity: 0.3; stroke-width: 0.3"/>
     </g>
     <g id="line2d_46">
      <g>
       <use xlink:href="#mfb62477880" x="243.939702" y="193.072453" style="stroke: #000000; stroke-width: 0.8"/>
      </g>
     </g>
     <g id="text_27">
      <text style="font-size: 6.5px; font-family: 'SimHei', 'Microsoft YaHei', sans-serif; text-anchor: end" x="236.939702" y="195.306828" transform="rotate(-0 236.939702 195.306828)">0.0</text>
     </g>
    </g>
    <g id="ytick_8">
     <g id="line2d_47">
      <path d="M 243.939702 159.280453 
L 421.485156 159.280453 
" clip-path="url(#pab00354566)" style="fill: none; stroke-dasharray: 1.11,0.48; stroke-dashoffset: 0; stroke: #b0b0b0; stroke-opacity: 0.3; stroke-width: 0.3"/>
     </g>
     <g id="line2d_48">
      <g>
       <use xlink:href="#mfb62477880" x="243.939702" y="159.280453" style="stroke: #000000; stroke-width: 0.8"/>
      </g>
     </g>
     <g id="text_28">
      <text style="font-size: 6.5px; font-family: 'SimHei', 'Microsoft YaHei', sans-serif; text-anchor: end" x="236.939702" y="161.514828" transform="rotate(-0 236.939702 161.514828)">0.2</text>
     </g>
    </g>
    <g id="ytick_9">
     <g id="line2d_49">
      <path d="M 243.939702 125.488453 
L 421.485156 125.488453 
" clip-path="url(#pab00354566)" style="fill: none; stroke-dasharray: 1.11,0.48; stroke-dashoffset: 0; stroke: #b0b0b0; stroke-opacity: 0.3; stroke-width: 0.3"/>
     </g>
     <g id="line2d_50">
      <g>
       <use xlink:href="#mfb62477880" x="243.939702" y="125.488453" style="stroke: #000000; stroke-width: 0.8"/>
      </g>
     </g>
     <g id="text_29">
      <text style="font-size: 6.5px; font-family: 'SimHei', 'Microsoft YaHei', sans-serif; text-anchor: end" x="236.939702" y="127.722828" transform="rotate(-0 236.939702 127.722828)">0.4</text>
     </g>
    </g>
    <g id="ytick_10">
     <g id="line2d_51">
      <path d="M 243.939702 91.696453 
L 421.485156 91.696453 
" clip-path="url(#pab00354566)" style="fill: none; stroke-dasharray: 1.11,0.48; stroke-dashoffset: 0; stroke: #b0b0b0; stroke-opacity: 0.3; stroke-width: 0.3"/>
     </g>
     <g id="line2d_52">
      <g>
       <use xlink:href="#mfb62477880" x="243.939702" y="91.696453" style="stroke: #000000; stroke-width: 0.8"/>
      </g>
     </g>
     <g id="text_30">
      <text style="font-size: 6.5px; font-family: 'SimHei', 'Microsoft YaHei', sans-serif; text-anchor: end" x="236.939702" y="93.930828" transform="rotate(-0 236.939702 93.930828)">0.6</text>
     </g>
    </g>
    <g id="ytick_11">
     <g id="line2d_53">
      <path d="M 243.939702 57.904453 
L 421.485156 57.904453 
" clip-path="url(#pab00354566)" style="fill: none; stroke-dasharray: 1.11,0.48; stroke-dashoffset: 0; stroke: #b0b0b0; stroke-opacity: 0.3; stroke-width: 0.3"/>
     </g>
     <g id="line2d_54">
      <g>
       <use xlink:href="#mfb62477880" x="243.939702" y="57.904453" style="stroke: #000000; stroke-width: 0.8"/>
      </g>
     </g>
     <g id="text_31">
      <text style="font-size: 6.5px; font-family: 'SimHei', 'Microsoft YaHei', sans-serif; text-anchor: end" x="236.939702" y="60.138828" transform="rotate(-0 236.939702 60.138828)">0.8</text>
     </g>
    </g>
    <g id="ytick_12">
     <g id="line2d_55">
      <path d="M 243.939702 24.112453 
L 421.485156 24.112453 
" clip-path="url(#pab00354566)" style="fill: none; stroke-dasharray: 1.11,0.48; stroke-dashoffset: 0; stroke: #b0b0b0; stroke-opacity: 0.3; stroke-width: 0.3"/>
     </g>
     <g id="line2d_56">
      <g>
       <use xlink:href="#mfb62477880" x="243.939702" y="24.112453" style="stroke: #000000; stroke-width: 0.8"/>
      </g>
     </g>
     <g id="text_32">
      <text style="font-size: 6.5px; font-family: 'SimHei', 'Microsoft YaHei', sans-serif; text-anchor: end" x="236.939702" y="26.346828" transform="rotate(-0 236.939702 26.346828)">1.0</text>
     </g>
    </g>
    <g id="text_33">
     <text style="font-size: 7px; font-family: 'SimHei', 'Microsoft YaHei', sans-serif; text-anchor: middle" x="222.314702" y="104.368453" transform="rotate(-90 222.314702 104.368453)">留存概率</text>
    </g>
   </g>
   <g id="line2d_57">
    <path d="M 243.939702 24.112453 
L 246.67117 24.112453 
L 246.67117 42.412907 
L 249.402639 42.412907 
L 249.402639 58.631215 
L 252.134107 58.631215 
L 252.134107 68.020761 
L 254.865576 68.020761 
L 254.865576 76.556713 
L 257.597044 76.556713 
L 257.597044 81.251487 
L 260.328513 81.251487 
L 260.328513 85.519462 
L 263.059981 85.519462 
L 263.059981 88.933843 
L 265.79145 88.933843 
L 265.79145 91.067831 
L 268.522918 91.067831 
L 268.522918 95.762604 
L 271.254387 95.762604 
L 271.254387 100.049382 
L 273.985856 100.049382 
L 273.985856 102.202694 
L 276.717324 102.202694 
L 276.717324 106.097112 
L 279.448793 106.097112 
L 279.448793 110.424243 
L 282.180261 110.424243 
L 282.180261 114.318662 
L 284.91173 114.318662 
L 284.91173 116.91494 
L 287.643198 116.91494 
L 287.643198 119.961241 
L 290.374667 119.961241 
L 290.374667 121.701984 
L 293.106135 121.701984 
L 293.106135 125.204829 
L 295.837604 125.204829 
L 295.837604 130.084201 
L 298.569072 130.084201 
L 298.569072 130.977651 
L 301.300541 130.977651 
L 301.300541 132.317827 
L 304.032009 132.317827 
L 304.032009 134.998178 
L 306.763478 134.998178 
L 306.763478 136.785079 
L 309.494946 136.785079 
L 309.494946 137.685677 
L 314.957884 137.685677 
L 314.957884 140.409617 
L 317.689352 140.409617 
L 317.689352 141.78343 
L 320.420821 141.78343 
L 320.420821 143.648485 
L 323.152289 143.648485 
L 323.152289 144.581013 
L 426.085156 144.581013 
L 426.085156 144.581013 
" clip-path="url(#pab00354566)" style="fill: none; stroke: #2e7d32; stroke-width: 1.2; stroke-linecap: square"/>
   </g>
   <g id="line2d_58">
    <path d="M 243.939702 24.112453 
L 246.67117 24.112453 
L 246.67117 141.109084 
L 249.402639 141.109084 
L 249.402639 154.811393 
L 252.134107 154.811393 
L 252.134107 159.554499 
L 254.865576 159.554499 
L 254.865576 163.243582 
L 257.597044 163.243582 
L 257.597044 166.932665 
L 260.328513 166.932665 
L 260.328513 168.829908 
L 263.059981 168.829908 
L 263.059981 170.410943 
L 265.79145 170.410943 
L 265.79145 171.464967 
L 268.522918 171.464967 
L 268.522918 173.467612 
L 271.254387 173.467612 
L 271.254387 174.310831 
L 273.985856 174.310831 
L 273.985856 175.891867 
L 276.717324 175.891867 
L 276.717324 176.94589 
L 279.448793 176.94589 
L 279.448793 177.894512 
L 282.180261 177.894512 
L 282.180261 178.316121 
L 284.91173 178.316121 
L 284.91173 179.15934 
L 287.643198 179.15934 
L 287.643198 181.37279 
L 290.374667 181.37279 
L 290.374667 182.216009 
L 293.106135 182.216009 
L 293.106135 183.270033 
L 295.837604 183.270033 
L 295.837604 183.902447 
L 298.569072 183.902447 
L 298.569072 184.429459 
L 301.300541 184.429459 
L 301.300541 186.010494 
L 304.032009 186.010494 
L 304.032009 186.115897 
L 306.763478 186.115897 
L 306.763478 186.537506 
L 309.494946 186.537506 
L 309.494946 187.16992 
L 312.226415 187.16992 
L 312.226415 187.486127 
L 314.957884 187.486127 
L 314.957884 188.118542 
L 317.689352 188.118542 
L 317.689352 188.540151 
L 320.420821 188.540151 
L 320.420821 188.856358 
L 323.152289 188.856358 
L 323.152289 188.961761 
L 325.883758 188.961761 
L 325.883758 188.961761 
L 328.615226 188.961761 
L 328.615226 188.961761 
L 331.346695 188.961761 
L 331.346695 188.961761 
L 339.5411 188.961761 
L 339.5411 188.961761 
L 347.735506 188.961761 
L 347.735506 188.961761 
L 350.466974 188.961761 
L 350.466974 188.961761 
L 355.929911 188.961761 
L 355.929911 188.961761 
L 358.66138 188.961761 
L 358.66138 188.961761 
L 364.124317 188.961761 
L 364.124317 188.961761 
L 366.855786 188.961761 
L 366.855786 188.961761 
L 369.587254 188.961761 
L 369.587254 188.961761 
L 380.513128 188.961761 
L 380.513128 188.961761 
L 385.976065 188.961761 
L 385.976065 188.961761 
L 407.827814 188.961761 
L 407.827814 188.961761 
L 410.559282 188.961761 
L 410.559282 188.961761 
L 413.290751 188.961761 
L 413.290751 188.961761 
L 424.216625 188.961761 
L 424.216625 188.961761 
L 426.085156 188.961761 
" clip-path="url(#pab00354566)" style="fill: none; stroke: #767676; stroke-width: 1.2; stroke-linecap: square"/>
   </g>
   <g id="patch_6">
    <path d="M 243.939702 193.072453 
L 243.939702 15.664453 
" style="fill: none; stroke: #000000; stroke-width: 0.8; stroke-linejoin: miter; stroke-linecap: square"/>
   </g>
   <g id="patch_7">
    <path d="M 243.939702 193.072453 
L 421.485156 193.072453 
" style="fill: none; stroke: #000000; stroke-width: 0.8; stroke-linejoin: miter; stroke-linecap: square"/>
   </g>
   <g id="text_34">
    <text style="font-weight: 700; font-size: 7.5px; font-family: 'SimHei', 'Microsoft YaHei', sans-serif; text-anchor: middle" x="332.712429" y="9.664453" transform="rotate(-0 332.712429 9.664453)">留存率：加联盟 vs 未加联盟</text>
   </g>
   <g id="legend_2">
    <g id="line2d_59">
     <path d="M 375.285156 23.745703 
L 381.285156 23.745703 
L 381.285156 23.745703 
L 387.285156 23.745703 
L 387.285156 23.745703 
" style="fill: none; stroke: #2e7d32; stroke-width: 1.2; stroke-linecap: square"/>
    </g>
    <g id="text_35">
     <text style="font-size: 6px; font-family: 'SimHei', 'Microsoft YaHei', sans-serif; text-anchor: start" x="392.085156" y="25.845703" transform="rotate(-0 392.085156 25.845703)">加联盟</text>
    </g>
    <g id="line2d_60">
     <path d="M 375.285156 32.276953 
L 381.285156 32.276953 
L 381.285156 32.276953 
L 387.285156 32.276953 
L 387.285156 32.276953 
" style="fill: none; stroke: #767676; stroke-width: 1.2; stroke-linecap: square"/>
    </g>
    <g id="text_36">
     <text style="font-size: 6px; font-family: 'SimHei', 'Microsoft YaHei', sans-serif; text-anchor: start" x="392.085156" y="34.376953" transform="rotate(-0 392.085156 34.376953)">未加联盟</text>
    </g>
   </g>
  </g>
 </g>
 <defs>
  <clipPath id="p681df0e3e6">
   <rect x="30.885156" y="15.664453" width="177.545455" height="177.408"/>
  </clipPath>
  <clipPath id="pab00354566">
   <rect x="243.939702" y="15.664453" width="177.545455" height="177.408"/>
  </clipPath>
 </defs>
</svg>
