<?xml version="1.0" encoding="utf-8" standalone="no"?>
<!DOCTYPE svg PUBLIC "-//W3C//DTD SVG 1.1//EN"
  "http://www.w3.org/Graphics/SVG/1.1/DTD/svg11.dtd">
<svg xmlns:xlink="http://www.w3.org/1999/xlink" width="323.2pt" height="239.755625pt" viewBox="0 0 323.2 239.755625" xmlns="http://www.w3.org/2000/svg" version="1.1">
 <metadata>
  <rdf:RDF xmlns:dc="http://purl.org/dc/elements/1.1/" xmlns:cc="http://creativecommons.org/ns#" xmlns:rdf="http://www.w3.org/1999/02/22-rdf-syntax-ns#">
   <cc:Work>
    <dc:type rdf:resource="http://purl.org/dc/dcmitype/StillImage"/>
    <dc:date>2026-05-23T13:53:06.512424</dc:date>
    <dc:format>image/svg+xml</dc:format>
    <dc:creator>
     <cc:Agent>
      <dc:title>Matplotlib v3.10.0, https://matplotlib.org/</dc:title>
     </cc:Agent>
    </dc:creator>
   </cc:Work>
  </rdf:RDF>
 </metadata>
 <defs>
  <style type="text/css">*{stroke-linejoin: round; stroke-linecap: butt}</style>
 </defs>
 <g id="figure_1">
  <g id="patch_1">
   <path d="M 0 239.755625 
L 323.2 239.755625 
L 323.2 0 
L 0 0 
z
" style="fill: #ffffff"/>
  </g>
  <g id="axes_1">
   <g id="patch_2">
    <path d="M 40.6 210.085312 
L 319.6 210.085312 
L 319.6 16.045312 
L 40.6 16.045312 
z
" style="fill: #ffffff"/>
   </g>
   <g id="patch_3">
    <path d="M 40.6 201.265312 
L 55.891531 201.265312 
L 55.891531 191.423252 
L 40.6 191.423252 
z
" clip-path="url(#pf3f8a869ad)" style="fill: #0f4d92; opacity: 0.85"/>
   </g>
   <g id="patch_4">
    <path d="M 40.6 186.123682 
L 57.098863 186.123682 
L 57.098863 176.281622 
L 40.6 176.281622 
z
" clip-path="url(#pf3f8a869ad)" style="fill: #0f4d92; opacity: 0.85"/>
   </g>
   <g id="patch_5">
    <path d="M 40.6 170.982051 
L 59.481283 170.982051 
L 59.481283 161.139991 
L 40.6 161.139991 
z
" clip-path="url(#pf3f8a869ad)" style="fill: #0f4d92; opacity: 0.85"/>
   </g>
   <g id="patch_6">
    <path d="M 40.6 155.84042 
L 60.1066 155.84042 
L 60.1066 145.99836 
L 40.6 145.99836 
z
" clip-path="url(#pf3f8a869ad)" style="fill: #0f4d92; opacity: 0.85"/>
   </g>
   <g id="patch_7">
    <path d="M 40.6 140.698789 
L 62.680255 140.698789 
L 62.680255 130.856729 
L 40.6 130.856729 
z
" clip-path="url(#pf3f8a869ad)" style="fill: #0f4d92; opacity: 0.85"/>
   </g>
   <g id="patch_8">
    <path d="M 40.6 125.557158 
L 81.432241 125.557158 
L 81.432241 115.715098 
L 40.6 115.715098 
z
" clip-path="url(#pf3f8a869ad)" style="fill: #0f4d92; opacity: 0.85"/>
   </g>
   <g id="patch_9">
    <path d="M 40.6 110.415527 
L 101.100153 110.415527 
L 101.100153 100.573467 
L 40.6 100.573467 
z
" clip-path="url(#pf3f8a869ad)" style="fill: #0f4d92; opacity: 0.85"/>
   </g>
   <g id="patch_10">
    <path d="M 40.6 95.273896 
L 101.355098 95.273896 
L 101.355098 85.431836 
L 40.6 85.431836 
z
" clip-path="url(#pf3f8a869ad)" style="fill: #0f4d92; opacity: 0.85"/>
   </g>
   <g id="patch_11">
    <path d="M 40.6 80.132265 
L 109.608331 80.132265 
L 109.608331 70.290205 
L 40.6 70.290205 
z
" clip-path="url(#pf3f8a869ad)" style="fill: #0f4d92; opacity: 0.85"/>
   </g>
   <g id="patch_12">
    <path d="M 40.6 64.990634 
L 256.744156 64.990634 
L 256.744156 55.148574 
L 40.6 55.148574 
z
" clip-path="url(#pf3f8a869ad)" style="fill: #0f4d92; opacity: 0.85"/>
   </g>
   <g id="patch_13">
    <path d="M 40.6 49.849003 
L 304.567225 49.849003 
L 304.567225 40.006943 
L 40.6 40.006943 
z
" clip-path="url(#pf3f8a869ad)" style="fill: #0f4d92; opacity: 0.85"/>
   </g>
   <g id="patch_14">
    <path d="M 40.6 34.707373 
L 306.314286 34.707373 
L 306.314286 24.865312 
L 40.6 24.865312 
z
" clip-path="url(#pf3f8a869ad)" style="fill: #0f4d92; opacity: 0.85"/>
   </g>
   <g id="matplotlib.axis_1">
    <g id="xtick_1">
     <g id="line2d_1">
      <path d="M 40.6 210.085312 
L 40.6 16.045312 
" clip-path="url(#pf3f8a869ad)" style="fill: none; stroke-dasharray: 1.11,0.48; stroke-dashoffset: 0; stroke: #b0b0b0; stroke-opacity: 0.25; stroke-width: 0.3"/>
     </g>
     <g id="line2d_2">
      <defs>
       <path id="m8332268154" d="M 0 0 
L 0 3.5 
" style="stroke: #000000; stroke-width: 0.8"/>
      </defs>
      <g>
       <use xlink:href="#m8332268154" x="40.6" y="210.085312" style="stroke: #000000; stroke-width: 0.8"/>
      </g>
     </g>
     <g id="text_1">
      <!-- 0.00 -->
      <g transform="translate(30.6 223.960312) scale(0.1 -0.1)">
       <defs>
        <path id="SimHei-30" d="M 225 2537 
Q 250 3200 412 3587 
Q 575 3975 875 4225 
Q 1175 4475 1612 4475 
Q 2050 4475 2375 4112 
Q 2700 3750 2800 3200 
Q 2900 2650 2862 1937 
Q 2825 1225 2612 775 
Q 2400 325 1975 150 
Q 1550 -25 1125 187 
Q 700 400 525 750 
Q 350 1100 275 1487 
Q 200 1875 225 2537 
z
M 750 2687 
Q 675 2000 800 1462 
Q 925 925 1212 700 
Q 1500 475 1800 612 
Q 2100 750 2237 1162 
Q 2375 1575 2375 2062 
Q 2375 2550 2337 2950 
Q 2300 3350 2112 3675 
Q 1925 4000 1612 4012 
Q 1300 4025 1062 3700 
Q 825 3375 750 2687 
z
" transform="scale(0.015625)"/>
        <path id="SimHei-2e" d="M 1075 125 
L 500 125 
L 500 675 
L 1075 675 
L 1075 125 
z
" transform="scale(0.015625)"/>
       </defs>
       <use xlink:href="#SimHei-30"/>
       <use xlink:href="#SimHei-2e" transform="translate(50 0)"/>
       <use xlink:href="#SimHei-30" transform="translate(100 0)"/>
       <use xlink:href="#SimHei-30" transform="translate(150 0)"/>
      </g>
     </g>
    </g>
    <g id="xtick_2">
     <g id="line2d_3">
      <path d="M 77.077295 210.085312 
L 77.077295 16.045312 
" clip-path="url(#pf3f8a869ad)" style="fill: none; stroke-dasharray: 1.11,0.48; stroke-dashoffset: 0; stroke: #b0b0b0; stroke-opacity: 0.25; stroke-width: 0.3"/>
     </g>
     <g id="line2d_4">
      <g>
       <use xlink:href="#m8332268154" x="77.077295" y="210.085312" style="stroke: #000000; stroke-width: 0.8"/>
      </g>
     </g>
     <g id="text_2">
      <!-- 0.25 -->
      <g transform="translate(67.077295 223.960312) scale(0.1 -0.1)">
       <defs>
        <path id="SimHei-32" d="M 300 250 
Q 325 625 650 925 
Q 975 1225 1475 1862 
Q 1975 2500 2125 2850 
Q 2275 3200 2237 3450 
Q 2200 3700 2000 3862 
Q 1800 4025 1537 4000 
Q 1275 3975 1037 3800 
Q 800 3625 675 3275 
L 200 3350 
Q 400 3925 712 4187 
Q 1025 4450 1450 4475 
Q 1700 4500 1900 4462 
Q 2100 4425 2312 4287 
Q 2525 4150 2662 3875 
Q 2800 3600 2762 3212 
Q 2725 2825 2375 2287 
Q 2025 1750 1025 600 
L 2825 600 
L 2825 150 
L 300 150 
L 300 250 
z
" transform="scale(0.015625)"/>
        <path id="SimHei-35" d="M 550 1325 
Q 725 650 1150 575 
Q 1575 500 1837 662 
Q 2100 825 2212 1087 
Q 2325 1350 2312 1675 
Q 2300 2000 2137 2225 
Q 1975 2450 1725 2525 
Q 1475 2600 1162 2525 
Q 850 2450 650 2175 
L 225 2225 
Q 275 2375 700 4375 
L 2675 4375 
L 2675 3925 
L 1075 3925 
Q 950 3250 825 2850 
Q 1200 3025 1525 3012 
Q 1850 3000 2150 2862 
Q 2450 2725 2587 2487 
Q 2725 2250 2787 2012 
Q 2850 1775 2837 1500 
Q 2825 1225 2725 937 
Q 2625 650 2425 462 
Q 2225 275 1937 162 
Q 1650 50 1275 75 
Q 900 100 562 350 
Q 225 600 100 1200 
L 550 1325 
z
" transform="scale(0.015625)"/>
       </defs>
       <use xlink:href="#SimHei-30"/>
       <use xlink:href="#SimHei-2e" transform="translate(50 0)"/>
       <use xlink:href="#SimHei-32" transform="translate(100 0)"/>
       <use xlink:href="#SimHei-35" transform="translate(150 0)"/>
      </g>
     </g>
    </g>
    <g id="xtick_3">
     <g id="line2d_5">
      <path d="M 113.55459 210.085312 
L 113.55459 16.045312 
" clip-path="url(#pf3f8a869ad)" style="fill: none; stroke-dasharray: 1.11,0.48; stroke-dashoffset: 0; stroke: #b0b0b0; stroke-opacity: 0.25; stroke-width: 0.3"/>
     </g>
     <g id="line2d_6">
      <g>
       <use xlink:href="#m8332268154" x="113.55459" y="210.085312" style="stroke: #000000; stroke-width: 0.8"/>
      </g>
     </g>
     <g id="text_3">
      <!-- 0.50 -->
      <g transform="translate(103.55459 223.960312) scale(0.1 -0.1)">
       <use xlink:href="#SimHei-30"/>
       <use xlink:href="#SimHei-2e" transform="translate(50 0)"/>
       <use xlink:href="#SimHei-35" transform="translate(100 0)"/>
       <use xlink:href="#SimHei-30" transform="translate(150 0)"/>
      </g>
     </g>
    </g>
    <g id="xtick_4">
     <g id="line2d_7">
      <path d="M 150.031885 210.085312 
L 150.031885 16.045312 
" clip-path="url(#pf3f8a869ad)" style="fill: none; stroke-dasharray: 1.11,0.48; stroke-dashoffset: 0; stroke: #b0b0b0; stroke-opacity: 0.25; stroke-width: 0.3"/>
     </g>
     <g id="line2d_8">
      <g>
       <use xlink:href="#m8332268154" x="150.031885" y="210.085312" style="stroke: #000000; stroke-width: 0.8"/>
      </g>
     </g>
     <g id="text_4">
      <!-- 0.75 -->
      <g transform="translate(140.031885 223.960312) scale(0.1 -0.1)">
       <defs>
        <path id="SimHei-37" d="M 850 150 
Q 1300 2050 2425 3925 
L 275 3925 
L 275 4375 
L 2950 4375 
L 2950 3950 
Q 1775 2050 1400 150 
L 850 150 
z
" transform="scale(0.015625)"/>
       </defs>
       <use xlink:href="#SimHei-30"/>
       <use xlink:href="#SimHei-2e" transform="translate(50 0)"/>
       <use xlink:href="#SimHei-37" transform="translate(100 0)"/>
       <use xlink:href="#SimHei-35" transform="translate(150 0)"/>
      </g>
     </g>
    </g>
    <g id="xtick_5">
     <g id="line2d_9">
      <path d="M 186.50918 210.085312 
L 186.50918 16.045312 
" clip-path="url(#pf3f8a869ad)" style="fill: none; stroke-dasharray: 1.11,0.48; stroke-dashoffset: 0; stroke: #b0b0b0; stroke-opacity: 0.25; stroke-width: 0.3"/>
     </g>
     <g id="line2d_10">
      <g>
       <use xlink:href="#m8332268154" x="186.50918" y="210.085312" style="stroke: #000000; stroke-width: 0.8"/>
      </g>
     </g>
     <g id="text_5">
      <!-- 1.00 -->
      <g transform="translate(176.50918 223.960312) scale(0.1 -0.1)">
       <defs>
        <path id="SimHei-31" d="M 1400 3600 
Q 1075 3275 575 2975 
L 575 3450 
Q 1200 3875 1600 4450 
L 1900 4450 
L 1900 150 
L 1400 150 
L 1400 3600 
z
" transform="scale(0.015625)"/>
       </defs>
       <use xlink:href="#SimHei-31"/>
       <use xlink:href="#SimHei-2e" transform="translate(50 0)"/>
       <use xlink:href="#SimHei-30" transform="translate(100 0)"/>
       <use xlink:href="#SimHei-30" transform="translate(150 0)"/>
      </g>
     </g>
    </g>
    <g id="xtick_6">
     <g id="line2d_11">
      <path d="M 222.986475 210.085312 
L 222.986475 16.045312 
" clip-path="url(#pf3f8a869ad)" style="fill: none; stroke-dasharray: 1.11,0.48; stroke-dashoffset: 0; stroke: #b0b0b0; stroke-opacity: 0.25; stroke-width: 0.3"/>
     </g>
     <g id="line2d_12">
      <g>
       <use xlink:href="#m8332268154" x="222.986475" y="210.085312" style="stroke: #000000; stroke-width: 0.8"/>
      </g>
     </g>
     <g id="text_6">
      <!-- 1.25 -->
      <g transform="translate(212.986475 223.960312) scale(0.1 -0.1)">
       <use xlink:href="#SimHei-31"/>
       <use xlink:href="#SimHei-2e" transform="translate(50 0)"/>
       <use xlink:href="#SimHei-32" transform="translate(100 0)"/>
       <use xlink:href="#SimHei-35" transform="translate(150 0)"/>
      </g>
     </g>
    </g>
    <g id="xtick_7">
     <g id="line2d_13">
      <path d="M 259.46377 210.085312 
L 259.46377 16.045312 
" clip-path="url(#pf3f8a869ad)" style="fill: none; stroke-dasharray: 1.11,0.48; stroke-dashoffset: 0; stroke: #b0b0b0; stroke-opacity: 0.25; stroke-width: 0.3"/>
     </g>
     <g id="line2d_14">
      <g>
       <use xlink:href="#m8332268154" x="259.46377" y="210.085312" style="stroke: #000000; stroke-width: 0.8"/>
      </g>
     </g>
     <g id="text_7">
      <!-- 1.50 -->
      <g transform="translate(249.46377 223.960312) scale(0.1 -0.1)">
       <use xlink:href="#SimHei-31"/>
       <use xlink:href="#SimHei-2e" transform="translate(50 0)"/>
       <use xlink:href="#SimHei-35" transform="translate(100 0)"/>
       <use xlink:href="#SimHei-30" transform="translate(150 0)"/>
      </g>
     </g>
    </g>
    <g id="xtick_8">
     <g id="line2d_15">
      <path d="M 295.941065 210.085312 
L 295.941065 16.045312 
" clip-path="url(#pf3f8a869ad)" style="fill: none; stroke-dasharray: 1.11,0.48; stroke-dashoffset: 0; stroke: #b0b0b0; stroke-opacity: 0.25; stroke-width: 0.3"/>
     </g>
     <g id="line2d_16">
      <g>
       <use xlink:href="#m8332268154" x="295.941065" y="210.085312" style="stroke: #000000; stroke-width: 0.8"/>
      </g>
     </g>
     <g id="text_8">
      <!-- 1.75 -->
      <g transform="translate(285.941065 223.960312) scale(0.1 -0.1)">
       <use xlink:href="#SimHei-31"/>
       <use xlink:href="#SimHei-2e" transform="translate(50 0)"/>
       <use xlink:href="#SimHei-37" transform="translate(100 0)"/>
       <use xlink:href="#SimHei-35" transform="translate(150 0)"/>
      </g>
     </g>
    </g>
    <g id="text_9">
     <!-- 平均|SHAP值| -->
     <g transform="translate(159.1 235.225937) scale(0.07 -0.07)">
      <defs>
       <path id="SimHei-5e73" d="M 4525 4825 
Q 4900 4825 5450 4850 
L 5450 4375 
Q 4925 4400 4525 4400 
L 3475 4400 
L 3475 2025 
L 5000 2025 
Q 5550 2025 6025 2050 
L 6025 1575 
Q 5550 1600 5000 1600 
L 3475 1600 
L 3475 450 
Q 3475 -100 3500 -600 
L 2925 -600 
Q 2950 -100 2950 450 
L 2950 1600 
L 1125 1600 
Q 775 1600 375 1575 
L 375 2050 
Q 775 2025 1175 2025 
L 2950 2025 
L 2950 4400 
L 1775 4400 
Q 1400 4400 875 4375 
L 875 4850 
Q 1400 4825 1750 4825 
L 4525 4825 
z
M 3925 2600 
Q 4500 3300 4900 4125 
Q 5150 3950 5400 3825 
Q 4775 2850 4350 2300 
Q 4150 2475 3925 2600 
z
M 1975 2350 
Q 1600 3100 1050 3725 
Q 1250 3875 1450 4050 
Q 2075 3300 2450 2725 
Q 2150 2500 1975 2350 
z
" transform="scale(0.015625)"/>
       <path id="SimHei-5747" d="M 5775 275 
Q 5775 -325 5362 -450 
Q 4950 -575 4425 -600 
Q 4375 -275 4250 25 
Q 4950 -25 5125 62 
Q 5300 150 5300 500 
L 5375 3700 
L 3550 3700 
Q 3425 3375 3262 3037 
Q 3100 2700 2925 2400 
Q 2675 2550 2475 2625 
Q 3150 3625 3500 5200 
Q 3800 5100 4075 5025 
Q 3975 4875 3875 4650 
Q 3775 4425 3675 4125 
L 5900 4125 
L 5775 275 
z
M 1250 3625 
L 1250 4375 
Q 1250 4775 1225 5100 
L 1775 5100 
Q 1750 4725 1750 4375 
L 1750 3625 
L 1900 3625 
Q 2200 3625 2525 3650 
L 2525 3150 
Q 2200 3175 1900 3175 
L 1750 3175 
L 1750 1100 
L 2500 1375 
Q 2475 1125 2525 900 
Q 1225 475 962 362 
Q 700 250 475 150 
Q 375 475 250 750 
Q 575 800 800 850 
Q 1025 900 1250 975 
L 1250 3175 
L 1125 3175 
Q 850 3175 400 3150 
L 400 3650 
Q 850 3625 1100 3625 
L 1250 3625 
z
M 4950 1625 
Q 4675 1425 4137 1050 
Q 3600 675 3175 300 
Q 3000 575 2850 775 
Q 3350 1050 3762 1325 
Q 4175 1600 4775 2075 
Q 4825 1850 4950 1625 
z
M 3775 3150 
Q 4125 2800 4475 2300 
Q 4250 2125 4100 1975 
Q 3900 2325 3450 2825 
Q 3600 3000 3775 3150 
z
" transform="scale(0.015625)"/>
       <path id="SimHei-7c" d="M 1825 -850 
L 1325 -850 
L 1325 5500 
L 1825 5500 
L 1825 -850 
z
" transform="scale(0.015625)"/>
       <path id="SimHei-53" d="M 2900 1325 
Q 2900 750 2537 412 
Q 2175 75 1550 75 
Q 925 75 575 425 
Q 225 775 225 1300 
L 225 1475 
L 800 1475 
L 800 1325 
Q 800 950 1025 750 
Q 1250 550 1550 550 
Q 1950 550 2137 762 
Q 2325 975 2325 1275 
Q 2325 1525 2100 1737 
Q 1875 1950 1450 2125 
Q 850 2350 587 2625 
Q 325 2900 325 3275 
Q 325 3800 687 4125 
Q 1050 4450 1550 4450 
Q 2200 4450 2487 4062 
Q 2775 3675 2775 3225 
L 2200 3225 
Q 2225 3500 2050 3725 
Q 1875 3950 1550 3950 
Q 1250 3950 1075 3787 
Q 900 3625 900 3350 
Q 900 3125 1037 2962 
Q 1175 2800 1750 2575 
Q 2300 2350 2600 2037 
Q 2900 1725 2900 1325 
z
" transform="scale(0.015625)"/>
       <path id="SimHei-48" d="M 2850 125 
L 2275 125 
L 2275 2125 
L 850 2125 
L 850 125 
L 275 125 
L 275 4400 
L 850 4400 
L 850 2600 
L 2275 2600 
L 2275 4400 
L 2850 4400 
L 2850 125 
z
" transform="scale(0.015625)"/>
       <path id="SimHei-41" d="M 3075 125 
L 2475 125 
L 2125 1450 
L 1025 1450 
L 675 125 
L 75 125 
L 1325 4450 
L 1825 4450 
L 3075 125 
z
M 2000 1925 
L 1600 3450 
L 1550 3450 
L 1150 1925 
L 2000 1925 
z
" transform="scale(0.015625)"/>
       <path id="SimHei-50" d="M 2950 3100 
Q 2950 2500 2600 2150 
Q 2250 1800 1625 1800 
L 900 1800 
L 900 125 
L 325 125 
L 325 4400 
L 1625 4400 
Q 2250 4400 2600 4050 
Q 2950 3700 2950 3100 
z
M 2375 3100 
Q 2375 3575 2150 3750 
Q 1925 3925 1475 3925 
L 900 3925 
L 900 2275 
L 1475 2275 
Q 1925 2275 2150 2450 
Q 2375 2625 2375 3100 
z
" transform="scale(0.015625)"/>
       <path id="SimHei-503c" d="M 3675 4450 
L 3675 5100 
Q 3975 5075 4350 5050 
Q 4225 4875 4200 4450 
L 5125 4450 
Q 5550 4450 5875 4475 
L 5875 4025 
Q 5525 4050 5125 4050 
L 4175 4050 
L 4125 3500 
L 5400 3500 
Q 5375 3200 5375 2700 
L 5375 150 
Q 5875 150 6100 175 
L 6100 -275 
Q 5775 -250 5200 -250 
L 2850 -250 
Q 2275 -250 1900 -275 
L 1900 175 
Q 2125 150 2600 150 
L 2600 2700 
Q 2600 3175 2575 3500 
L 3600 3500 
L 3650 4050 
L 3200 4050 
Q 2575 4050 2225 4025 
L 2225 4475 
Q 2550 4450 3200 4450 
L 3675 4450 
z
M 2225 4900 
Q 2025 4675 1650 3750 
L 1650 450 
Q 1650 -75 1675 -550 
L 1150 -550 
Q 1175 -125 1175 375 
L 1175 2950 
Q 875 2450 625 2150 
Q 425 2425 250 2575 
Q 500 2825 937 3537 
Q 1375 4250 1625 5150 
Q 1975 4975 2225 4900 
z
M 4925 2650 
L 4925 3150 
L 3075 3150 
L 3075 2650 
L 4925 2650 
z
M 4925 150 
L 4925 625 
L 3075 625 
L 3075 150 
L 4925 150 
z
M 4925 1000 
L 4925 1450 
L 3075 1450 
L 3075 1000 
L 4925 1000 
z
M 4925 1825 
L 4925 2275 
L 3075 2275 
L 3075 1825 
L 4925 1825 
z
" transform="scale(0.015625)"/>
      </defs>
      <use xlink:href="#SimHei-5e73"/>
      <use xlink:href="#SimHei-5747" transform="translate(100 0)"/>
      <use xlink:href="#SimHei-7c" transform="translate(200 0)"/>
      <use xlink:href="#SimHei-53" transform="translate(250 0)"/>
      <use xlink:href="#SimHei-48" transform="translate(300 0)"/>
      <use xlink:href="#SimHei-41" transform="translate(350 0)"/>
      <use xlink:href="#SimHei-50" transform="translate(400 0)"/>
      <use xlink:href="#SimHei-503c" transform="translate(450 0)"/>
      <use xlink:href="#SimHei-7c" transform="translate(550 0)"/>
     </g>
    </g>
   </g>
   <g id="matplotlib.axis_2">
    <g id="ytick_1">
     <g id="line2d_17">
      <defs>
       <path id="m4fd90f8a1a" d="M 0 0 
L -3.5 0 
" style="stroke: #000000; stroke-width: 0.8"/>
      </defs>
      <g>
       <use xlink:href="#m4fd90f8a1a" x="40.6" y="196.344282" style="stroke: #000000; stroke-width: 0.8"/>
      </g>
     </g>
     <g id="text_10">
      <!-- 生命周期 -->
      <g transform="translate(9.6 198.758345) scale(0.06 -0.06)">
       <defs>
        <path id="SimHei-751f" d="M 1875 4650 
Q 1725 4475 1625 4212 
Q 1525 3950 1425 3700 
L 2925 3700 
L 2925 4575 
Q 2925 4900 2900 5200 
L 3475 5200 
Q 3450 4925 3450 4575 
L 3450 3700 
L 4550 3700 
Q 4950 3700 5450 3725 
L 5450 3225 
Q 4975 3250 4550 3250 
L 3450 3250 
L 3450 2125 
L 4225 2125 
Q 4575 2125 5075 2150 
L 5075 1650 
Q 4600 1675 4225 1675 
L 3450 1675 
L 3450 175 
L 4950 175 
Q 5350 175 5875 200 
L 5875 -275 
Q 5375 -250 4950 -250 
L 1350 -250 
Q 925 -250 475 -275 
L 475 200 
Q 950 175 1350 175 
L 2925 175 
L 2925 1675 
L 2000 1675 
Q 1650 1675 1275 1650 
L 1275 2150 
Q 1650 2125 2000 2125 
L 2925 2125 
L 2925 3250 
L 1250 3250 
Q 1025 2725 800 2350 
Q 525 2475 200 2525 
Q 475 2825 787 3487 
Q 1100 4150 1225 4900 
L 1875 4650 
z
" transform="scale(0.015625)"/>
        <path id="SimHei-547d" d="M 2950 2575 
Q 2925 2325 2925 1875 
L 2925 1050 
Q 2925 575 2950 375 
L 2475 375 
L 2475 675 
L 1575 675 
L 1575 175 
L 1100 175 
Q 1125 525 1125 950 
L 1125 1825 
Q 1125 2275 1100 2575 
L 2950 2575 
z
M 3450 4875 
Q 3700 4500 4025 4225 
Q 4350 3950 4800 3700 
Q 5250 3450 6125 3175 
Q 5950 3025 5775 2700 
Q 5250 2900 4850 3125 
Q 4450 3350 4125 3575 
Q 3800 3800 3575 4050 
Q 3350 4300 3175 4550 
Q 2625 3875 2012 3425 
Q 1400 2975 600 2575 
Q 500 2800 300 3000 
Q 775 3150 1237 3425 
Q 1700 3700 2050 4000 
Q 2400 4300 2662 4637 
Q 2925 4975 3075 5300 
L 3600 5050 
Q 3575 5025 3450 4875 
z
M 3500 1850 
Q 3475 2350 3475 2575 
L 5425 2575 
Q 5400 2350 5400 1925 
L 5400 925 
Q 5400 625 5200 437 
Q 5000 250 4475 225 
Q 4425 525 4275 750 
Q 4775 750 4850 812 
Q 4925 875 4950 1100 
L 4950 2200 
L 3950 2200 
L 3950 -650 
L 3475 -650 
Q 3475 -150 3500 400 
L 3500 1850 
z
M 2475 1050 
L 2475 2200 
L 1575 2200 
L 1575 1050 
L 2475 1050 
z
M 4400 3350 
L 4400 2925 
Q 3775 2950 3675 2950 
L 2075 2950 
L 2075 3375 
Q 2200 3375 2675 3350 
L 4400 3350 
z
" transform="scale(0.015625)"/>
        <path id="SimHei-5468" d="M 5600 4925 
Q 5575 4400 5575 3800 
L 5575 50 
Q 5550 -375 5325 -462 
Q 5100 -550 4325 -600 
Q 4300 -400 4125 -75 
Q 4800 -100 4962 -37 
Q 5125 25 5100 225 
L 5100 4525 
L 1500 4525 
Q 1500 2575 1450 1887 
Q 1400 1200 1237 550 
Q 1075 -100 775 -625 
Q 625 -450 275 -225 
Q 650 225 825 1000 
Q 1000 1775 1025 2587 
Q 1050 3400 1000 4925 
L 5600 4925 
z
M 2050 325 
Q 2075 625 2075 950 
L 2075 1400 
Q 2075 1625 2050 1925 
L 4400 1925 
Q 4375 1725 4375 1450 
L 4375 875 
Q 4375 600 4400 325 
L 2050 325 
z
M 3000 3800 
Q 3000 4150 2975 4375 
L 3475 4375 
Q 3450 4075 3450 3800 
Q 4100 3800 4475 3825 
L 4475 3350 
Q 4125 3375 3450 3375 
L 3450 2800 
Q 4200 2800 4825 2825 
L 4825 2350 
Q 4175 2375 3725 2375 
L 2750 2375 
Q 2325 2375 1725 2350 
L 1725 2825 
Q 2325 2800 3000 2800 
L 3000 3375 
Q 2500 3375 1975 3350 
L 1975 3825 
Q 2475 3800 3000 3800 
z
M 3900 725 
L 3900 1525 
L 2550 1525 
L 2550 725 
L 3900 725 
z
" transform="scale(0.015625)"/>
        <path id="SimHei-671f" d="M 4900 -25 
Q 5475 -100 5425 175 
L 5425 1575 
L 4325 1575 
Q 4275 975 4050 425 
Q 3825 -125 3400 -600 
Q 3225 -375 2925 -275 
Q 3350 150 3562 625 
Q 3775 1100 3812 1575 
Q 3850 2050 3850 3125 
Q 3850 4225 3825 4875 
L 5950 4875 
Q 5925 4400 5925 3725 
L 5925 50 
Q 5925 -300 5700 -425 
Q 5475 -550 5100 -600 
Q 5100 -325 4900 -25 
z
M 950 4300 
Q 950 4675 925 5125 
L 1450 5125 
Q 1425 4625 1425 4300 
L 2550 4300 
Q 2550 4775 2525 5125 
L 3075 5125 
Q 3050 4700 3050 4300 
Q 3225 4300 3500 4325 
L 3500 3900 
Q 3250 3925 3050 3925 
L 3050 1550 
Q 3250 1550 3500 1575 
L 3500 1150 
Q 3025 1175 2575 1175 
L 1225 1175 
Q 675 1175 275 1150 
L 275 1575 
Q 650 1550 950 1550 
L 950 3925 
Q 725 3925 425 3900 
L 425 4325 
Q 700 4300 950 4300 
z
M 5425 3375 
L 5425 4500 
L 4350 4500 
L 4350 3375 
L 5425 3375 
z
M 5425 1950 
L 5425 3000 
L 4350 3000 
L 4350 1950 
L 5425 1950 
z
M 1600 725 
Q 1425 650 1162 287 
Q 900 -75 650 -350 
Q 400 -175 225 -75 
Q 450 100 700 412 
Q 950 725 1100 1025 
L 1600 725 
z
M 2550 3375 
L 2550 3925 
L 1425 3925 
L 1425 3375 
L 2550 3375 
z
M 2550 1550 
L 2550 2100 
L 1425 2100 
L 1425 1550 
L 2550 1550 
z
M 2550 2475 
L 2550 3000 
L 1425 3000 
L 1425 2475 
L 2550 2475 
z
M 2850 -75 
Q 2450 525 2225 725 
Q 2375 825 2550 1025 
Q 2850 725 3250 275 
Q 3050 125 2850 -75 
z
" transform="scale(0.015625)"/>
       </defs>
       <use xlink:href="#SimHei-751f"/>
       <use xlink:href="#SimHei-547d" transform="translate(100 0)"/>
       <use xlink:href="#SimHei-5468" transform="translate(200 0)"/>
       <use xlink:href="#SimHei-671f" transform="translate(300 0)"/>
      </g>
     </g>
    </g>
    <g id="ytick_2">
     <g id="line2d_18">
      <g>
       <use xlink:href="#m4fd90f8a1a" x="40.6" y="181.202652" style="stroke: #000000; stroke-width: 0.8"/>
      </g>
     </g>
     <g id="text_11">
      <!-- VIP等级 -->
      <g transform="translate(12.6 183.640152) scale(0.06 -0.06)">
       <defs>
        <path id="SimHei-56" d="M 3050 4400 
L 1800 75 
L 1300 75 
L 50 4400 
L 650 4400 
L 1525 1125 
L 1575 1125 
L 2450 4400 
L 3050 4400 
z
" transform="scale(0.015625)"/>
        <path id="SimHei-49" d="M 1850 125 
L 1275 125 
L 1275 4400 
L 1850 4400 
L 1850 125 
z
" transform="scale(0.015625)"/>
        <path id="SimHei-7b49" d="M 2925 3450 
Q 2925 3625 2900 3950 
L 3450 3950 
Q 3425 3625 3425 3450 
L 4475 3450 
Q 4850 3450 5350 3475 
L 5350 3050 
Q 4875 3075 4500 3075 
L 3425 3075 
L 3425 2400 
L 5225 2400 
Q 5625 2400 6125 2425 
L 6125 1975 
Q 5650 2000 5225 2000 
L 4700 2000 
L 4700 1350 
Q 5325 1350 5750 1375 
L 5750 925 
Q 5250 950 4700 950 
L 4700 125 
Q 4725 -325 4437 -437 
Q 4150 -550 3550 -625 
Q 3500 -325 3350 -75 
Q 3775 -100 3975 -75 
Q 4175 -50 4175 275 
L 4175 950 
L 1550 950 
Q 1225 950 700 925 
L 700 1375 
Q 1200 1350 1650 1350 
L 4175 1350 
L 4175 2000 
L 1075 2000 
Q 750 2000 200 1975 
L 200 2425 
Q 750 2400 1075 2400 
L 2925 2400 
L 2925 3075 
L 1925 3075 
Q 1575 3075 1050 3050 
L 1050 3475 
Q 1725 3450 1925 3450 
L 2925 3450 
z
M 1825 5100 
Q 1675 5000 1500 4725 
L 2400 4725 
Q 2925 4725 3275 4750 
L 3275 4350 
Q 3000 4375 2575 4375 
L 2275 4375 
Q 2400 4175 2575 3850 
Q 2275 3750 2025 3675 
Q 2025 3725 1775 4375 
L 1325 4375 
Q 1125 4075 750 3625 
Q 525 3800 275 3900 
Q 625 4175 850 4525 
Q 1075 4875 1250 5300 
Q 1550 5175 1825 5100 
z
M 3700 3875 
Q 3500 4000 3225 4075 
Q 3475 4275 3650 4575 
Q 3825 4875 3975 5250 
Q 4250 5150 4550 5050 
Q 4350 4875 4250 4700 
L 5275 4700 
Q 5450 4700 6125 4725 
L 6125 4325 
Q 5650 4350 5200 4350 
Q 5475 3900 5600 3725 
Q 5250 3650 5025 3575 
Q 4975 3800 4700 4350 
L 4050 4350 
Q 3925 4150 3700 3875 
z
M 2575 75 
Q 2350 -50 2125 -200 
Q 1900 225 1525 625 
Q 1700 725 1925 900 
Q 2300 500 2575 75 
z
" transform="scale(0.015625)"/>
        <path id="SimHei-7ea7" d="M 5350 4750 
Q 5125 3925 4900 2975 
L 5775 2975 
Q 5650 2325 5462 1750 
Q 5275 1175 4900 575 
Q 5150 325 5462 112 
Q 5775 -100 6150 -250 
Q 5875 -475 5800 -700 
Q 5175 -350 4600 250 
Q 4425 75 4062 -187 
Q 3700 -450 3125 -700 
Q 3000 -500 2775 -350 
Q 3300 -175 3675 75 
Q 4050 325 4325 600 
Q 4025 950 3500 1950 
Q 3425 1400 3125 800 
Q 2850 175 2125 -475 
Q 1975 -350 1700 -200 
Q 2200 150 2525 637 
Q 2850 1125 2987 1687 
Q 3125 2250 3150 2912 
Q 3175 3575 3175 4350 
Q 2900 4350 2525 4325 
L 2525 4775 
Q 2975 4750 3725 4750 
L 5350 4750 
z
M 1900 4850 
Q 1750 4650 1512 4212 
Q 1275 3775 900 3250 
L 1775 3300 
Q 2025 3700 2175 4125 
Q 2300 4025 2625 3825 
Q 2475 3575 2175 3100 
Q 1875 2625 1200 1725 
Q 1950 1825 2400 1900 
Q 2325 1600 2325 1450 
Q 2075 1425 1562 1350 
Q 1050 1275 575 1150 
Q 500 1400 400 1600 
Q 625 1725 925 2037 
Q 1225 2350 1550 2900 
Q 1275 2875 1012 2850 
Q 750 2825 500 2725 
Q 425 2950 300 3250 
Q 625 3450 937 4025 
Q 1250 4600 1400 5125 
Q 1575 5000 1900 4850 
z
M 3575 3125 
Q 3575 2950 3575 2775 
Q 3750 2325 4100 1750 
Q 4450 1150 4600 975 
Q 5025 1625 5225 2575 
L 4325 2575 
Q 4575 3400 4750 4350 
L 3600 4350 
Q 3600 3750 3575 3125 
z
M 2375 1000 
Q 2300 750 2325 550 
Q 1825 425 1425 312 
Q 1025 200 550 50 
Q 475 300 325 525 
Q 675 600 1112 687 
Q 1550 775 2375 1000 
z
" transform="scale(0.015625)"/>
       </defs>
       <use xlink:href="#SimHei-56"/>
       <use xlink:href="#SimHei-49" transform="translate(50 0)"/>
       <use xlink:href="#SimHei-50" transform="translate(100 0)"/>
       <use xlink:href="#SimHei-7b49" transform="translate(150 0)"/>
       <use xlink:href="#SimHei-7ea7" transform="translate(250 0)"/>
      </g>
     </g>
    </g>
    <g id="ytick_3">
     <g id="line2d_19">
      <g>
       <use xlink:href="#m4fd90f8a1a" x="40.6" y="166.061021" style="stroke: #000000; stroke-width: 0.8"/>
      </g>
     </g>
     <g id="text_12">
      <!-- 资源强度 -->
      <g transform="translate(9.6 168.475083) scale(0.06 -0.06)">
       <defs>
        <path id="SimHei-8d44" d="M 5300 2150 
Q 5275 1825 5275 1450 
Q 5275 1075 5300 575 
L 4800 575 
L 4800 1725 
L 1700 1725 
L 1700 425 
L 1200 425 
Q 1225 1000 1225 1375 
Q 1225 1775 1200 2150 
L 5300 2150 
z
M 4225 4075 
Q 4050 3775 4200 3562 
Q 4350 3350 4612 3162 
Q 4875 2975 5262 2850 
Q 5650 2725 6125 2700 
Q 5925 2425 5825 2175 
Q 5200 2300 4712 2550 
Q 4225 2800 3900 3350 
Q 3675 2775 3250 2550 
Q 2825 2325 2325 2175 
Q 2125 2400 1925 2575 
Q 2975 2775 3300 3175 
Q 3625 3575 3650 4150 
L 4225 4075 
z
M 3125 4250 
Q 2825 3850 2550 3650 
Q 2375 3825 2175 3950 
Q 2475 4150 2737 4487 
Q 3000 4825 3150 5200 
Q 3375 5100 3700 5050 
Q 3575 4825 3400 4650 
L 5750 4650 
Q 5675 4500 5300 3675 
Q 5000 3750 4800 3775 
Q 4925 4050 5025 4250 
L 3125 4250 
z
M 3525 1375 
Q 3400 1100 3337 825 
Q 3275 550 3012 262 
Q 2750 -25 2250 -275 
Q 1750 -525 800 -675 
Q 725 -425 500 -200 
Q 1225 -175 1712 -12 
Q 2200 150 2450 350 
Q 2700 550 2812 837 
Q 2925 1125 2925 1450 
Q 3225 1400 3525 1375 
z
M 3825 700 
Q 4300 525 4750 350 
Q 5200 175 5825 -100 
Q 5675 -300 5550 -600 
Q 5075 -325 4612 -125 
Q 4150 75 3625 250 
Q 3750 450 3825 700 
z
M 2075 3325 
Q 1450 2750 875 2050 
Q 625 2325 475 2425 
Q 1275 3050 1725 3625 
Q 1850 3500 2075 3325 
z
M 1700 3975 
Q 1300 4275 625 4675 
Q 800 4850 925 5025 
Q 1150 4875 2000 4350 
Q 1850 4200 1700 3975 
z
" transform="scale(0.015625)"/>
        <path id="SimHei-6e90" d="M 4475 4300 
Q 4350 4100 4225 3800 
L 5650 3800 
Q 5625 3425 5625 3050 
L 5625 2425 
Q 5625 2150 5650 1650 
L 4575 1650 
L 4575 -25 
Q 4575 -325 4387 -487 
Q 4200 -650 3800 -700 
Q 3725 -425 3575 -150 
Q 4100 -225 4100 100 
L 4100 1650 
L 3050 1650 
Q 3075 2050 3075 2400 
L 3075 3075 
Q 3075 3400 3050 3800 
L 3725 3800 
Q 3825 4025 3925 4425 
Q 4175 4350 4475 4300 
z
M 1200 -175 
Q 1550 150 1725 537 
Q 1900 925 1987 1450 
Q 2075 1975 2087 2537 
Q 2100 3100 2100 3750 
Q 2100 4425 2075 4975 
L 4925 4975 
Q 5500 4975 6025 5000 
L 6025 4525 
Q 5500 4550 4925 4550 
L 2575 4550 
L 2575 2875 
Q 2575 2275 2537 1787 
Q 2500 1300 2362 837 
Q 2225 375 2050 37 
Q 1875 -300 1625 -625 
Q 1500 -375 1200 -175 
z
M 1550 1775 
Q 1375 1275 1150 575 
Q 925 -125 825 -450 
Q 600 -275 250 -125 
Q 400 75 650 687 
Q 900 1300 1075 2100 
Q 1325 1900 1550 1775 
z
M 5150 2900 
L 5150 3400 
L 3550 3400 
L 3550 2900 
L 5150 2900 
z
M 2275 -100 
Q 2475 100 2700 412 
Q 2925 725 3150 1150 
Q 3325 975 3650 825 
Q 3400 600 3200 287 
Q 3000 -25 2700 -400 
Q 2475 -225 2275 -100 
z
M 5150 2050 
L 5150 2500 
L 3550 2500 
L 3550 2050 
L 5150 2050 
z
M 5300 1125 
Q 6000 350 6175 100 
Q 5950 -75 5775 -250 
Q 5575 25 5400 262 
Q 5225 500 4925 825 
Q 5100 950 5300 1125 
z
M 1325 2575 
Q 1125 2775 850 2925 
L 300 3225 
Q 400 3400 525 3625 
Q 750 3500 1062 3337 
Q 1375 3175 1625 3025 
L 1325 2575 
z
M 1425 3975 
Q 975 4475 550 4775 
Q 700 4950 875 5125 
Q 1550 4600 1775 4350 
Q 1600 4175 1425 3975 
z
" transform="scale(0.015625)"/>
        <path id="SimHei-5f3a" d="M 2350 25 
Q 3100 75 3950 225 
L 3950 1200 
L 3100 1200 
L 3100 975 
L 2625 975 
Q 2650 1725 2650 2050 
L 2650 2875 
L 3950 2875 
L 3950 3500 
L 2850 3500 
Q 2875 3900 2875 4275 
Q 2875 4675 2850 5025 
L 5525 5025 
Q 5500 4675 5500 4275 
Q 5500 3900 5525 3500 
L 4400 3500 
L 4400 2875 
L 5750 2875 
Q 5725 2575 5725 2075 
Q 5725 1575 5750 1200 
L 4400 1200 
L 4400 275 
L 5250 425 
Q 5150 575 5050 750 
Q 5300 825 5475 925 
Q 5925 200 6175 -250 
Q 5925 -350 5725 -500 
Q 5625 -250 5425 100 
Q 5125 50 4225 -137 
Q 3325 -325 2600 -525 
Q 2525 -200 2350 25 
z
M 600 -25 
Q 1250 -25 1400 50 
Q 1550 125 1575 325 
L 1675 1850 
L 500 1850 
Q 550 2350 562 2762 
Q 575 3175 575 3575 
L 1800 3575 
L 1800 4550 
L 1275 4550 
Q 825 4550 425 4525 
L 425 4950 
Q 850 4925 1275 4925 
L 2275 4925 
Q 2250 4525 2250 4075 
Q 2250 3650 2275 3200 
L 1075 3200 
L 1025 2225 
L 2175 2225 
Q 2125 1775 2100 1425 
L 2025 150 
Q 1975 -250 1637 -387 
Q 1300 -525 850 -600 
Q 775 -275 600 -25 
z
M 5050 3875 
L 5050 4650 
L 3325 4650 
L 3325 3875 
L 5050 3875 
z
M 3950 1575 
L 3950 2500 
L 3100 2500 
L 3100 1575 
L 3950 1575 
z
M 5250 1575 
L 5250 2500 
L 4400 2500 
L 4400 1575 
L 5250 1575 
z
" transform="scale(0.015625)"/>
        <path id="SimHei-5ea6" d="M 1750 1675 
Q 2450 1650 2875 1650 
L 5200 1650 
Q 4975 1250 4650 850 
Q 4325 450 4025 200 
Q 4350 50 4950 -50 
Q 5550 -150 6100 -150 
Q 5950 -300 5825 -650 
Q 5100 -550 4550 -412 
Q 4000 -275 3625 -100 
Q 3100 -325 2587 -462 
Q 2075 -600 1525 -675 
Q 1450 -475 1225 -250 
Q 1675 -250 2250 -125 
Q 2825 0 3250 200 
Q 2825 550 2400 1275 
L 1750 1250 
L 1750 1675 
z
M 2975 5075 
Q 3250 5150 3475 5250 
Q 3625 4975 3775 4525 
L 4700 4525 
Q 4975 4525 5700 4550 
L 5700 4100 
Q 5000 4125 4650 4125 
L 1375 4125 
Q 1375 3000 1350 2312 
Q 1325 1625 1212 950 
Q 1100 275 725 -525 
Q 500 -375 250 -300 
Q 650 400 762 1075 
Q 875 1750 887 2800 
Q 900 3850 875 4525 
L 3200 4525 
Q 3100 4850 2975 5075 
z
M 2475 3300 
Q 2475 3700 2450 3925 
L 2975 3925 
Q 2950 3725 2950 3300 
L 4300 3300 
Q 4300 3700 4275 3950 
L 4800 3950 
Q 4775 3650 4775 3300 
Q 5325 3300 5725 3325 
L 5725 2900 
Q 5350 2925 4775 2925 
Q 4775 2250 4800 1950 
L 2450 1950 
Q 2475 2350 2475 2925 
Q 2175 2925 1600 2900 
L 1600 3325 
Q 2175 3300 2475 3300 
z
M 4300 2350 
L 4300 2925 
L 2950 2925 
L 2950 2350 
L 4300 2350 
z
M 2875 1275 
Q 3200 775 3650 425 
Q 4025 700 4425 1275 
L 2900 1275 
L 2875 1275 
z
" transform="scale(0.015625)"/>
       </defs>
       <use xlink:href="#SimHei-8d44"/>
       <use xlink:href="#SimHei-6e90" transform="translate(100 0)"/>
       <use xlink:href="#SimHei-5f3a" transform="translate(200 0)"/>
       <use xlink:href="#SimHei-5ea6" transform="translate(300 0)"/>
      </g>
     </g>
    </g>
    <g id="ytick_4">
     <g id="line2d_20">
      <g>
       <use xlink:href="#m4fd90f8a1a" x="40.6" y="150.91939" style="stroke: #000000; stroke-width: 0.8"/>
      </g>
     </g>
     <g id="text_13">
      <!-- 矿石获取 -->
      <g transform="translate(9.6 153.345171) scale(0.06 -0.06)">
       <defs>
        <path id="SimHei-77ff" d="M 2150 4525 
Q 2450 4525 2900 4550 
L 2900 4100 
Q 2475 4125 2150 4125 
L 1850 4125 
Q 1725 3550 1475 2875 
L 2625 2875 
Q 2600 2450 2600 2100 
L 2600 950 
Q 2600 575 2625 75 
L 2150 75 
L 2150 500 
L 1450 500 
L 1450 -200 
L 950 -200 
Q 1000 325 1000 675 
L 1000 2150 
Q 825 1900 575 1625 
Q 425 1875 200 2050 
Q 800 2525 1050 3125 
Q 1300 3725 1375 4125 
Q 850 4125 450 4100 
L 450 4550 
Q 850 4525 1175 4525 
L 2150 4525 
z
M 2475 -325 
Q 2800 50 2975 600 
Q 3150 1150 3175 1825 
Q 3200 2500 3187 2975 
Q 3175 3450 3125 4275 
L 5200 4275 
Q 5475 4275 6075 4300 
L 6075 3825 
Q 5675 3850 5200 3850 
L 3650 3850 
L 3650 1925 
Q 3625 1525 3587 1162 
Q 3550 800 3387 312 
Q 3225 -175 2925 -675 
Q 2750 -475 2475 -325 
z
M 2150 925 
L 2150 2475 
L 1450 2475 
L 1450 925 
L 2150 925 
z
M 4525 5275 
Q 4725 4900 4850 4525 
Q 4575 4450 4350 4325 
Q 4225 4725 4075 5100 
Q 4325 5175 4525 5275 
z
" transform="scale(0.015625)"/>
        <path id="SimHei-77f3" d="M 5100 4825 
Q 5400 4825 5925 4850 
L 5925 4375 
Q 5450 4400 5100 4400 
L 3175 4400 
Q 2975 3600 2550 2850 
L 5525 2850 
Q 5500 1800 5500 925 
Q 5500 50 5525 -500 
L 5000 -500 
L 5000 125 
L 2425 125 
L 2425 -550 
L 1900 -550 
Q 1925 25 1925 1975 
Q 1275 1250 625 800 
Q 425 1050 200 1175 
Q 1275 1825 1900 2800 
Q 2525 3775 2625 4400 
L 2050 4400 
Q 1150 4400 725 4375 
L 725 4850 
Q 1150 4825 2075 4825 
L 5100 4825 
z
M 5000 550 
L 5000 2425 
L 2425 2425 
L 2425 550 
L 5000 550 
z
" transform="scale(0.015625)"/>
        <path id="SimHei-83b7" d="M 4325 3350 
Q 4275 3075 4275 2350 
L 5175 2350 
Q 5550 2350 5825 2375 
L 5825 1925 
Q 5550 1950 5175 1950 
L 4300 1950 
Q 4350 1700 4475 1400 
Q 4600 1100 4825 812 
Q 5050 525 5375 262 
Q 5700 0 5950 -75 
Q 5650 -300 5525 -525 
Q 5075 -200 4675 262 
Q 4275 725 4050 1350 
Q 3875 825 3637 475 
Q 3400 125 3187 -112 
Q 2975 -350 2625 -600 
Q 2450 -375 2250 -225 
Q 2550 -50 2825 200 
Q 3100 450 3287 750 
Q 3475 1050 3600 1387 
Q 3725 1725 3750 1950 
L 3475 1950 
Q 3050 1950 2600 1925 
L 2600 2375 
Q 3050 2350 3475 2350 
L 3800 2350 
Q 3800 3150 3775 3425 
Q 4025 3375 4325 3350 
z
M 2575 3200 
Q 2400 3100 2225 2962 
Q 2050 2825 1950 2725 
Q 2200 2375 2325 1837 
Q 2450 1300 2387 700 
Q 2325 100 1962 -187 
Q 1600 -475 975 -600 
Q 950 -400 775 -150 
Q 1350 -75 1587 100 
Q 1825 275 1887 512 
Q 1950 750 1962 987 
Q 1975 1225 1925 1625 
Q 1750 1375 1500 1162 
Q 1250 950 700 525 
Q 575 725 350 875 
Q 800 1075 1187 1412 
Q 1575 1750 1800 2050 
Q 1700 2300 1600 2450 
Q 1475 2350 1287 2225 
Q 1100 2100 700 1850 
Q 550 2025 375 2175 
Q 925 2400 1350 2775 
Q 1025 3050 750 3175 
Q 925 3325 1050 3525 
Q 1500 3200 1700 3050 
Q 2050 3325 2175 3550 
Q 2300 3375 2575 3200 
z
M 2550 4125 
Q 2550 3875 2575 3625 
L 2050 3625 
Q 2075 3950 2075 4125 
L 1400 4125 
Q 1025 4125 575 4100 
L 575 4550 
Q 1050 4525 1425 4525 
L 2075 4525 
Q 2075 4825 2050 5125 
L 2575 5125 
Q 2550 4875 2550 4525 
L 3825 4525 
Q 3825 4875 3800 5150 
L 4325 5150 
Q 4300 4875 4300 4525 
L 4925 4525 
Q 5325 4525 5825 4550 
L 5825 4100 
Q 5375 4125 4950 4125 
L 4300 4125 
Q 4300 3900 4325 3625 
L 3800 3625 
Q 3825 3875 3825 4125 
L 2550 4125 
z
M 4975 3425 
Q 5250 3175 5600 2700 
Q 5400 2575 5225 2400 
Q 4925 2850 4625 3150 
Q 4750 3225 4975 3425 
z
" transform="scale(0.015625)"/>
        <path id="SimHei-53d6" d="M 2650 4875 
Q 3075 4875 3375 4900 
L 3375 4475 
Q 3175 4500 2975 4500 
L 2975 1125 
Q 3250 1200 3600 1300 
L 3600 875 
Q 3275 800 2975 725 
Q 2975 -250 3000 -700 
L 2500 -700 
Q 2525 -325 2525 625 
Q 1925 500 1425 325 
Q 925 150 575 -25 
L 375 550 
L 925 650 
L 925 4500 
Q 725 4500 425 4475 
L 425 4900 
Q 750 4875 1300 4875 
L 2650 4875 
z
M 3175 -125 
Q 3500 75 3762 362 
Q 4025 650 4350 1150 
Q 3975 1850 3862 2575 
Q 3750 3300 3700 4250 
L 3500 4250 
L 3500 4675 
Q 4000 4650 4400 4650 
L 5800 4650 
Q 5700 3425 5512 2625 
Q 5325 1825 4925 1150 
Q 5125 800 5462 500 
Q 5800 200 6200 -25 
Q 5950 -200 5775 -450 
Q 5250 -100 4650 725 
Q 4200 0 3625 -500 
Q 3475 -300 3175 -125 
z
M 4150 4250 
Q 4225 3250 4287 2750 
Q 4350 2250 4625 1600 
Q 5025 2425 5137 3137 
Q 5250 3850 5275 4250 
L 4150 4250 
z
M 2525 3450 
L 2525 4500 
L 1375 4500 
L 1375 3450 
L 2525 3450 
z
M 1375 750 
Q 1975 875 2525 1000 
L 2525 1800 
L 1375 1800 
L 1375 750 
z
M 2525 2200 
L 2525 3075 
L 1375 3075 
L 1375 2200 
L 2525 2200 
z
" transform="scale(0.015625)"/>
       </defs>
       <use xlink:href="#SimHei-77ff"/>
       <use xlink:href="#SimHei-77f3" transform="translate(100 0)"/>
       <use xlink:href="#SimHei-83b7" transform="translate(200 0)"/>
       <use xlink:href="#SimHei-53d6" transform="translate(300 0)"/>
      </g>
     </g>
    </g>
    <g id="ytick_5">
     <g id="line2d_21">
      <g>
       <use xlink:href="#m4fd90f8a1a" x="40.6" y="135.777759" style="stroke: #000000; stroke-width: 0.8"/>
      </g>
     </g>
     <g id="text_14">
      <!-- 木材消耗 -->
      <g transform="translate(9.6 138.156665) scale(0.06 -0.06)">
       <defs>
        <path id="SimHei-6728" d="M 5875 3400 
Q 5100 3450 4450 3450 
L 3750 3450 
Q 3925 2975 4137 2575 
Q 4350 2175 4662 1800 
Q 4975 1425 5337 1150 
Q 5700 875 6175 650 
Q 5800 375 5700 150 
Q 5200 500 4862 812 
Q 4525 1125 4275 1425 
Q 4025 1725 3825 2125 
Q 3625 2525 3450 3000 
L 3450 325 
Q 3450 -25 3475 -550 
L 2950 -550 
Q 2975 -25 2975 325 
L 2975 3225 
Q 2475 2050 2175 1625 
Q 1875 1200 1550 837 
Q 1225 475 800 75 
Q 625 325 275 475 
Q 650 725 987 1037 
Q 1325 1350 1750 1950 
Q 2175 2550 2525 3450 
L 1875 3450 
Q 1400 3450 450 3400 
L 450 3900 
Q 1375 3850 1850 3850 
L 2975 3850 
L 2975 4375 
Q 2975 4925 2950 5225 
L 3500 5225 
Q 3450 4875 3450 4375 
L 3450 3850 
L 4525 3850 
Q 5175 3850 5875 3900 
L 5875 3400 
z
" transform="scale(0.015625)"/>
        <path id="SimHei-6750" d="M 4675 3750 
L 4675 4300 
Q 4675 4750 4650 5175 
L 5200 5175 
Q 5150 4750 5150 4275 
L 5150 3750 
Q 5650 3750 6100 3775 
L 6100 3300 
Q 5650 3325 5150 3325 
L 5150 125 
Q 5150 -250 4962 -375 
Q 4775 -500 4225 -625 
Q 4150 -325 4000 -50 
Q 4425 -50 4550 0 
Q 4675 50 4675 325 
L 4675 2675 
Q 4325 2000 3887 1412 
Q 3450 825 2800 225 
Q 2675 400 2400 625 
Q 2950 975 3512 1675 
Q 4075 2375 4500 3325 
L 3650 3325 
Q 3350 3325 2950 3300 
L 2950 3775 
Q 3350 3750 3650 3750 
L 4675 3750 
z
M 2200 2700 
Q 2650 2125 2850 1825 
Q 2625 1675 2450 1550 
Q 2100 2150 1925 2325 
L 1925 425 
Q 1925 -100 1950 -625 
L 1425 -625 
Q 1450 -75 1450 425 
L 1450 2175 
Q 1275 1800 1037 1400 
Q 800 1000 550 650 
Q 475 825 225 1100 
Q 525 1425 875 2062 
Q 1225 2700 1400 3325 
Q 875 3325 425 3300 
L 425 3775 
Q 925 3750 1450 3750 
L 1450 4350 
Q 1450 4725 1425 5175 
L 1950 5175 
Q 1925 4775 1925 4350 
L 1925 3750 
Q 2300 3750 2725 3775 
L 2725 3300 
Q 2300 3325 1925 3325 
L 1925 2475 
Q 2125 2600 2200 2700 
z
" transform="scale(0.015625)"/>
        <path id="SimHei-6d88" d="M 3850 3350 
Q 3850 4825 3825 5225 
L 4425 5225 
Q 4400 4825 4400 3350 
L 5875 3350 
Q 5850 2700 5850 2325 
L 5850 -100 
Q 5850 -275 5687 -412 
Q 5525 -550 4975 -650 
Q 4950 -400 4675 -75 
Q 5050 -100 5187 -75 
Q 5325 -50 5325 125 
L 5325 700 
L 2950 700 
L 2950 -600 
L 2425 -600 
Q 2450 100 2450 625 
L 2450 2350 
Q 2450 2950 2425 3350 
L 3850 3350 
z
M 5325 2250 
L 5325 2925 
L 2950 2925 
L 2950 2250 
L 5325 2250 
z
M 5325 1125 
L 5325 1800 
L 2950 1800 
L 2950 1125 
L 5325 1125 
z
M 1750 1500 
Q 1600 1275 1387 662 
Q 1175 50 1000 -600 
Q 700 -350 300 -250 
Q 550 25 800 550 
Q 1050 1075 1250 1875 
Q 1500 1650 1750 1500 
z
M 950 5025 
Q 1400 4700 1900 4200 
Q 1625 4000 1475 3800 
Q 1050 4300 550 4700 
Q 725 4775 950 5025 
z
M 525 3400 
Q 1125 3100 1650 2750 
Q 1475 2550 1300 2300 
Q 825 2675 250 3000 
Q 375 3150 525 3400 
z
M 6175 4675 
Q 6025 4575 5775 4262 
Q 5525 3950 5350 3650 
L 4900 3900 
Q 5250 4300 5600 5000 
Q 5900 4800 6175 4675 
z
M 2625 4975 
Q 2950 4575 3300 3950 
Q 3025 3825 2825 3675 
Q 2575 4200 2150 4700 
Q 2375 4800 2625 4975 
z
" transform="scale(0.015625)"/>
        <path id="SimHei-8017" d="M 5675 4400 
Q 5500 4375 5150 4300 
Q 4800 4225 4475 4150 
L 4475 3225 
Q 5025 3300 5700 3400 
L 5725 2975 
Q 5250 2925 4475 2800 
L 4475 1975 
Q 4725 2000 5087 2050 
Q 5450 2100 5975 2175 
L 6025 1725 
Q 5500 1675 4475 1550 
L 4475 250 
Q 4475 0 4750 0 
L 5175 0 
Q 5375 0 5425 137 
Q 5475 275 5500 675 
Q 5725 525 6075 450 
Q 5925 -75 5812 -237 
Q 5700 -400 5425 -400 
L 4525 -400 
Q 4000 -400 4000 150 
L 4000 1475 
Q 3325 1400 2975 1325 
L 2925 1775 
Q 3400 1825 4000 1900 
L 4000 2750 
Q 3850 2750 3200 2625 
L 3150 3075 
Q 3400 3100 4000 3175 
L 4000 4050 
Q 3675 3975 3250 3850 
Q 3175 4125 3050 4325 
Q 3650 4400 4062 4487 
Q 4475 4575 4787 4675 
Q 5100 4775 5400 4925 
Q 5500 4675 5675 4400 
z
M 200 400 
Q 750 925 1012 1325 
Q 1275 1725 1425 2100 
Q 875 2100 400 2075 
L 400 2525 
Q 875 2500 1200 2500 
L 1525 2500 
L 1525 3050 
Q 1050 3050 575 3025 
L 575 3475 
Q 1050 3450 1525 3450 
L 1525 3950 
L 1250 3950 
Q 950 3950 500 3925 
L 500 4375 
Q 950 4350 1250 4350 
L 1525 4350 
Q 1525 4825 1500 5100 
L 2025 5100 
Q 2000 4825 2000 4350 
Q 2450 4350 2950 4375 
L 2950 3925 
Q 2450 3950 2000 3950 
L 2000 3450 
Q 2375 3450 2775 3475 
L 2775 3025 
Q 2350 3050 2000 3050 
L 2000 2500 
Q 2550 2500 2925 2525 
L 2925 2075 
Q 2525 2100 2000 2100 
L 2000 150 
Q 2000 -175 2025 -575 
L 1500 -575 
Q 1525 -175 1525 150 
L 1525 1350 
Q 1175 700 650 100 
Q 425 300 200 400 
z
M 2450 1750 
Q 2550 1575 2975 1000 
Q 2750 875 2550 675 
Q 2450 900 2075 1450 
Q 2225 1550 2450 1750 
z
" transform="scale(0.015625)"/>
       </defs>
       <use xlink:href="#SimHei-6728"/>
       <use xlink:href="#SimHei-6750" transform="translate(100 0)"/>
       <use xlink:href="#SimHei-6d88" transform="translate(200 0)"/>
       <use xlink:href="#SimHei-8017" transform="translate(300 0)"/>
      </g>
     </g>
    </g>
    <g id="ytick_6">
     <g id="line2d_22">
      <g>
       <use xlink:href="#m4fd90f8a1a" x="40.6" y="120.636128" style="stroke: #000000; stroke-width: 0.8"/>
      </g>
     </g>
     <g id="text_15">
      <!-- 粮食获取 -->
      <g transform="translate(9.6 123.061909) scale(0.06 -0.06)">
       <defs>
        <path id="SimHei-7cae" d="M 5575 4250 
Q 5550 3825 5550 3025 
Q 5550 2225 5575 1800 
L 4325 1800 
Q 4475 1175 4775 850 
Q 5125 1200 5300 1525 
Q 5525 1325 5800 1175 
Q 5600 1075 5425 887 
Q 5250 700 5100 525 
Q 5475 175 6200 0 
Q 5925 -225 5800 -500 
Q 4875 0 4475 525 
Q 4075 1050 3925 1800 
L 3375 1800 
L 3375 100 
Q 3750 325 4025 525 
Q 4100 300 4225 75 
Q 4000 -50 3737 -212 
Q 3475 -375 3125 -675 
Q 2950 -425 2775 -250 
Q 2925 -125 2925 150 
L 2925 3250 
Q 2925 3750 2900 4250 
L 5575 4250 
z
M 1350 4425 
Q 1350 4850 1325 5150 
L 1825 5150 
Q 1800 4775 1800 4375 
L 1800 3025 
Q 2200 3025 2650 3050 
L 2650 2600 
Q 2200 2625 1800 2625 
L 1800 200 
Q 1800 -175 1825 -600 
L 1325 -600 
Q 1350 -175 1350 200 
L 1350 1725 
Q 1100 1100 575 375 
Q 400 700 225 900 
Q 575 1225 812 1612 
Q 1050 2000 1225 2625 
Q 725 2625 275 2600 
L 275 3050 
Q 725 3025 1350 3025 
L 1350 4425 
z
M 5100 3200 
L 5100 3875 
L 3375 3875 
L 3375 3200 
L 5100 3200 
z
M 5100 2175 
L 5100 2825 
L 3375 2825 
L 3375 2175 
L 5100 2175 
z
M 2225 2225 
Q 2475 1725 2750 1150 
Q 2475 1050 2300 925 
Q 2075 1575 1850 2000 
Q 2050 2100 2225 2225 
z
M 2725 4525 
Q 2600 4300 2537 4000 
Q 2475 3700 2400 3400 
Q 2200 3450 1975 3475 
Q 2125 4000 2200 4625 
Q 2475 4575 2725 4525 
z
M 850 4625 
Q 1000 4125 1125 3550 
Q 900 3500 675 3425 
Q 600 3900 400 4500 
Q 625 4550 850 4625 
z
M 4025 4350 
Q 3900 4675 3650 5100 
Q 3875 5175 4125 5275 
Q 4250 5100 4500 4525 
Q 4250 4450 4025 4350 
z
" transform="scale(0.015625)"/>
        <path id="SimHei-98df" d="M 3350 4950 
Q 4000 4200 4725 3737 
Q 5450 3275 6100 3175 
Q 5900 2925 5825 2650 
Q 5300 2825 4750 3150 
L 4750 2200 
Q 4750 1750 4775 1175 
L 2000 1175 
L 2000 25 
Q 2500 175 2975 350 
Q 2950 100 3000 -150 
Q 2625 -250 2312 -362 
Q 2000 -475 1575 -650 
Q 1450 -375 1325 -200 
Q 1500 0 1525 325 
L 1525 3075 
Q 1000 2675 600 2450 
Q 475 2700 250 2875 
Q 750 3100 1225 3412 
Q 1700 3725 2225 4300 
Q 2750 4875 2900 5275 
Q 3175 5150 3475 5075 
L 3350 4950 
z
M 5450 850 
Q 5275 775 4650 275 
Q 5150 50 5525 -175 
Q 5300 -375 5200 -625 
Q 4575 -250 4050 37 
Q 3525 325 2825 600 
Q 3000 825 3100 975 
Q 3775 675 4200 475 
Q 4800 950 5000 1225 
Q 5200 1050 5450 850 
z
M 4550 3250 
Q 4025 3525 3100 4625 
Q 2350 3675 1775 3250 
L 4550 3250 
z
M 4275 1575 
L 4275 2050 
L 2000 2050 
L 2000 1575 
L 4275 1575 
z
M 4275 2450 
L 4275 2850 
L 2000 2850 
L 2000 2450 
L 4275 2450 
z
M 3275 4100 
Q 3325 3825 3425 3500 
Q 3200 3450 2950 3375 
Q 2900 3700 2800 3975 
Q 3025 4025 3275 4100 
z
" transform="scale(0.015625)"/>
       </defs>
       <use xlink:href="#SimHei-7cae"/>
       <use xlink:href="#SimHei-98df" transform="translate(100 0)"/>
       <use xlink:href="#SimHei-83b7" transform="translate(200 0)"/>
       <use xlink:href="#SimHei-53d6" transform="translate(300 0)"/>
      </g>
     </g>
    </g>
    <g id="ytick_7">
     <g id="line2d_23">
      <g>
       <use xlink:href="#m4fd90f8a1a" x="40.6" y="105.494497" style="stroke: #000000; stroke-width: 0.8"/>
      </g>
     </g>
     <g id="text_16">
      <!-- 木材获取 -->
      <g transform="translate(9.6 107.896841) scale(0.06 -0.06)">
       <use xlink:href="#SimHei-6728"/>
       <use xlink:href="#SimHei-6750" transform="translate(100 0)"/>
       <use xlink:href="#SimHei-83b7" transform="translate(200 0)"/>
       <use xlink:href="#SimHei-53d6" transform="translate(300 0)"/>
      </g>
     </g>
    </g>
    <g id="ytick_8">
     <g id="line2d_24">
      <g>
       <use xlink:href="#m4fd90f8a1a" x="40.6" y="90.352866" style="stroke: #000000; stroke-width: 0.8"/>
      </g>
     </g>
     <g id="text_17">
      <!-- 钻石净流量 -->
      <g transform="translate(3.6 92.790366) scale(0.06 -0.06)">
       <defs>
        <path id="SimHei-94bb" d="M 4500 5175 
Q 4475 4950 4475 4475 
L 4475 4150 
L 5125 4150 
Q 5525 4150 6000 4175 
L 6000 3725 
Q 5525 3750 5125 3750 
L 4475 3750 
L 4475 2275 
L 5650 2275 
Q 5600 1900 5600 1600 
L 5600 425 
Q 5600 25 5650 -425 
L 5125 -425 
L 5125 25 
L 3550 25 
L 3550 -475 
L 3050 -475 
Q 3075 -50 3075 275 
L 3075 1550 
Q 3075 1850 3050 2275 
L 3975 2275 
L 3975 4450 
Q 3975 4725 3950 5175 
L 4500 5175 
z
M 2025 4950 
Q 1875 4775 1775 4562 
Q 1675 4350 1600 4150 
L 1875 4150 
Q 2250 4150 2875 4175 
L 2875 3725 
Q 2250 3750 1875 3750 
L 1400 3750 
Q 1150 3325 1000 3150 
Q 1375 3125 1775 3125 
Q 2175 3125 2725 3150 
L 2725 2725 
Q 2125 2750 2000 2750 
L 1850 2750 
L 1850 2025 
Q 2375 2025 2800 2050 
L 2800 1600 
Q 2275 1625 1850 1625 
L 1850 400 
Q 2300 725 2625 950 
Q 2650 725 2775 400 
Q 2525 300 2187 62 
Q 1850 -175 1450 -525 
Q 1275 -300 1100 -100 
Q 1350 100 1375 525 
L 1375 1625 
Q 1000 1625 450 1600 
L 450 2050 
Q 1000 2025 1375 2025 
L 1375 2750 
Q 1225 2750 900 2725 
L 900 3050 
Q 800 2925 575 2675 
Q 400 2875 200 3075 
Q 625 3425 862 3837 
Q 1100 4250 1212 4550 
Q 1325 4850 1375 5150 
Q 1775 5025 2025 4950 
z
M 5125 425 
L 5125 1875 
L 3550 1875 
L 3550 425 
L 5125 425 
z
" transform="scale(0.015625)"/>
        <path id="SimHei-51c0" d="M 3425 5075 
Q 3275 4900 3100 4625 
L 4950 4625 
Q 4725 4325 4250 3475 
L 5525 3475 
Q 5500 3150 5500 2450 
Q 5825 2450 6150 2475 
L 6150 2025 
Q 5825 2050 5500 2050 
Q 5500 1075 5525 1000 
L 3875 1000 
L 3875 -75 
Q 3875 -375 3625 -475 
Q 3375 -575 2775 -650 
Q 2725 -350 2575 -75 
Q 2975 -75 3175 -62 
Q 3375 -50 3375 200 
L 3375 1000 
L 2725 1000 
Q 2325 1000 1900 975 
L 1900 1425 
Q 2325 1400 2725 1400 
L 3375 1400 
L 3375 2050 
L 2625 2050 
Q 2225 2050 1700 2025 
L 1700 2475 
Q 2225 2450 2675 2450 
L 3375 2450 
L 3375 3075 
L 3000 3075 
Q 2675 3075 2250 3050 
L 2250 3425 
Q 2100 3225 1900 3000 
Q 1700 3175 1475 3300 
Q 1725 3525 2187 4150 
Q 2650 4775 2825 5300 
Q 3075 5200 3425 5075 
z
M 1625 2025 
Q 1000 775 675 100 
Q 500 275 225 450 
Q 525 875 800 1450 
Q 1075 2025 1175 2325 
Q 1400 2150 1625 2025 
z
M 2325 3500 
Q 2850 3475 3325 3475 
L 3700 3475 
Q 3900 3825 4100 4225 
L 2850 4225 
Q 2550 3775 2325 3500 
z
M 5000 1400 
L 5000 2050 
L 3875 2050 
L 3875 1400 
L 5000 1400 
z
M 700 4750 
Q 1275 4150 1600 3725 
Q 1325 3550 1175 3375 
Q 900 3775 300 4425 
Q 500 4575 700 4750 
z
M 5000 2450 
L 5000 3075 
L 3875 3075 
L 3875 2450 
L 5000 2450 
z
" transform="scale(0.015625)"/>
        <path id="SimHei-6d41" d="M 3725 5250 
Q 3975 4875 4225 4450 
L 5025 4450 
Q 5425 4450 5925 4475 
L 5925 4025 
Q 5325 4050 5025 4050 
L 3425 4050 
Q 3625 3900 3775 3825 
Q 3650 3725 3450 3475 
Q 3250 3225 2850 2775 
Q 3750 2800 4775 2850 
Q 4525 3150 4275 3375 
Q 4525 3550 4625 3675 
Q 5325 2950 5800 2375 
Q 5575 2200 5400 2050 
Q 5200 2325 5050 2525 
Q 4500 2475 3562 2412 
Q 2625 2350 2300 2250 
Q 2225 2475 2075 2675 
Q 2325 2750 2675 3175 
Q 3025 3600 3250 4050 
L 2975 4050 
Q 2525 4050 2050 4000 
L 2050 4475 
Q 2525 4450 2975 4450 
L 3675 4450 
Q 3475 4800 3325 5000 
Q 3575 5125 3725 5250 
z
M 5025 2025 
Q 5000 1700 5000 1375 
L 5000 150 
Q 5000 -75 5225 -75 
L 5475 -75 
Q 5675 -75 5700 500 
Q 5900 350 6200 275 
Q 6050 -350 5887 -425 
Q 5725 -500 5500 -500 
L 5025 -500 
Q 4550 -500 4550 -25 
L 4550 1425 
Q 4550 1725 4525 2025 
L 5025 2025 
z
M 3125 1975 
Q 3075 1725 3037 1212 
Q 3000 700 2812 225 
Q 2625 -250 1950 -700 
Q 1775 -475 1575 -325 
Q 2075 -100 2312 287 
Q 2550 675 2575 1162 
Q 2600 1650 2575 2025 
Q 2825 1975 3125 1975 
z
M 4000 2025 
Q 3975 1875 3975 1400 
L 3975 300 
Q 3975 -25 4000 -500 
L 3475 -500 
Q 3500 -50 3500 300 
L 3500 1400 
Q 3500 1825 3475 2025 
L 4000 2025 
z
M 1900 1625 
Q 1650 1200 1350 562 
Q 1050 -75 850 -425 
Q 625 -250 325 -125 
Q 575 175 900 750 
Q 1225 1325 1450 1950 
Q 1650 1775 1900 1625 
z
M 625 3450 
Q 1200 3100 1725 2725 
Q 1525 2525 1375 2275 
Q 925 2700 325 3000 
Q 475 3200 625 3450 
z
M 925 4975 
Q 1500 4625 1900 4300 
Q 1725 4075 1550 3875 
Q 1150 4275 625 4575 
Q 800 4800 925 4975 
z
" transform="scale(0.015625)"/>
        <path id="SimHei-91cf" d="M 5250 2500 
Q 5225 2200 5225 1700 
Q 5225 1225 5250 950 
L 3425 950 
L 3425 625 
L 4575 625 
Q 5000 625 5375 650 
L 5375 275 
Q 5025 300 4575 300 
L 3425 300 
L 3425 -75 
L 5125 -75 
Q 5525 -75 5925 -50 
L 5925 -425 
Q 5525 -400 5125 -400 
L 1275 -400 
Q 900 -400 475 -425 
L 475 -50 
Q 925 -50 1275 -75 
L 2975 -75 
L 2975 300 
L 1725 300 
Q 1350 300 975 250 
L 975 650 
Q 1375 625 1725 625 
L 2975 625 
L 2975 950 
L 1150 950 
Q 1175 1375 1175 1775 
Q 1175 2175 1150 2500 
L 5250 2500 
z
M 5200 4950 
Q 5175 4575 5175 4250 
Q 5175 3925 5200 3400 
L 1200 3400 
Q 1225 3925 1225 4250 
Q 1225 4575 1200 4950 
L 5200 4950 
z
M 4900 3100 
Q 5500 3125 6000 3150 
L 6000 2750 
Q 5500 2775 4925 2775 
L 1650 2775 
Q 975 2775 325 2750 
L 325 3150 
Q 975 3125 1650 3100 
L 4900 3100 
z
M 4725 3700 
L 4725 4025 
L 1675 4025 
L 1675 3700 
L 4725 3700 
z
M 4725 4350 
L 4725 4650 
L 1675 4650 
L 1675 4350 
L 4725 4350 
z
M 4750 1875 
L 4750 2175 
L 3425 2175 
L 3425 1875 
L 4750 1875 
z
M 2975 1875 
L 2975 2175 
L 1650 2175 
L 1650 1875 
L 2975 1875 
z
M 2975 1275 
L 2975 1550 
L 1650 1550 
L 1650 1275 
L 2975 1275 
z
M 4750 1275 
L 4750 1550 
L 3425 1550 
L 3425 1275 
L 4750 1275 
z
" transform="scale(0.015625)"/>
       </defs>
       <use xlink:href="#SimHei-94bb"/>
       <use xlink:href="#SimHei-77f3" transform="translate(100 0)"/>
       <use xlink:href="#SimHei-51c0" transform="translate(200 0)"/>
       <use xlink:href="#SimHei-6d41" transform="translate(300 0)"/>
       <use xlink:href="#SimHei-91cf" transform="translate(400 0)"/>
      </g>
     </g>
    </g>
    <g id="ytick_9">
     <g id="line2d_25">
      <g>
       <use xlink:href="#m4fd90f8a1a" x="40.6" y="75.211235" style="stroke: #000000; stroke-width: 0.8"/>
      </g>
     </g>
     <g id="text_18">
      <!-- 等级增速 -->
      <g transform="translate(9.6 77.648735) scale(0.06 -0.06)">
       <defs>
        <path id="SimHei-589e" d="M 5475 5000 
Q 5325 4825 5212 4612 
Q 5100 4400 5025 4225 
L 5975 4225 
Q 5950 3975 5950 3525 
L 5950 2850 
Q 5950 2400 5975 2125 
L 2500 2125 
Q 2525 2550 2525 2900 
L 2525 3600 
Q 2525 4000 2500 4225 
L 4575 4225 
Q 4800 4850 4875 5250 
L 5475 5000 
z
M 5750 1750 
Q 5725 1400 5725 1100 
L 5725 125 
Q 5725 -300 5750 -625 
L 5250 -625 
L 5250 -300 
L 3250 -300 
L 3250 -625 
L 2775 -625 
Q 2800 -75 2800 75 
L 2800 1075 
Q 2800 1425 2775 1750 
L 5750 1750 
z
M 2500 875 
Q 2025 725 1375 525 
Q 725 325 450 175 
Q 325 475 200 675 
Q 925 850 1150 925 
L 1150 2975 
L 1000 2975 
Q 650 2975 275 2950 
L 275 3400 
Q 650 3375 1000 3375 
L 1150 3375 
L 1150 4250 
Q 1150 4625 1125 4975 
L 1650 4975 
Q 1625 4575 1625 4250 
L 1625 3375 
L 1800 3375 
Q 2075 3375 2325 3400 
L 2325 2950 
Q 2000 2975 1800 2975 
L 1625 2975 
L 1625 1050 
Q 2100 1175 2450 1275 
L 2500 875 
z
M 5475 2450 
L 5475 3875 
L 4425 3875 
L 4425 2450 
L 5475 2450 
z
M 3975 2450 
L 3975 3875 
L 2975 3875 
L 2975 2450 
L 3975 2450 
z
M 5250 875 
L 5250 1350 
L 3250 1350 
L 3250 875 
L 5250 875 
z
M 5250 75 
L 5250 500 
L 3250 500 
L 3250 75 
L 5250 75 
z
M 3825 4500 
Q 3600 4400 3425 4250 
Q 3300 4500 2925 4975 
Q 3100 5050 3300 5250 
Q 3525 4950 3825 4500 
z
M 5350 3500 
Q 5225 3225 5000 2675 
Q 4775 2800 4550 2875 
Q 4750 3250 4875 3675 
Q 5050 3575 5350 3500 
z
M 3050 3425 
Q 3200 3525 3450 3625 
Q 3575 3400 3800 2875 
Q 3575 2775 3375 2700 
Q 3250 3100 3050 3425 
z
" transform="scale(0.015625)"/>
        <path id="SimHei-901f" d="M 3725 4600 
Q 3725 4975 3700 5250 
L 4175 5250 
Q 4150 5000 4150 4600 
L 5175 4600 
Q 5550 4600 5925 4625 
L 5925 4175 
Q 5550 4200 5175 4200 
L 4150 4200 
L 4150 3725 
L 5700 3725 
Q 5675 3325 5675 2950 
Q 5675 2575 5700 2200 
L 4150 2200 
Q 4150 725 4175 225 
L 3700 225 
Q 3725 725 3725 1925 
Q 3425 1475 3100 1125 
Q 2775 775 2300 425 
Q 2125 625 1825 775 
Q 2275 950 2712 1387 
Q 3150 1825 3325 2200 
L 2200 2200 
Q 2225 2625 2225 2950 
Q 2225 3300 2200 3725 
L 3725 3725 
L 3725 4200 
L 2675 4200 
Q 2325 4200 1925 4175 
L 1925 4625 
Q 2325 4600 2675 4600 
L 3725 4600 
z
M 1500 2875 
Q 1475 2400 1475 1925 
L 1475 550 
Q 2150 -25 3725 -37 
Q 5300 -50 6200 100 
Q 6025 -175 6000 -525 
Q 3925 -550 3087 -475 
Q 2250 -400 1800 -137 
Q 1350 125 1112 -62 
Q 875 -250 600 -600 
Q 475 -375 200 -200 
Q 475 25 1000 400 
L 1000 2450 
Q 675 2450 275 2425 
L 275 2900 
Q 700 2875 1000 2875 
L 1500 2875 
z
M 4550 2050 
Q 4950 1700 5925 925 
Q 5725 775 5550 550 
Q 5075 1000 4250 1675 
Q 4400 1825 4550 2050 
z
M 3725 2575 
L 3725 3325 
L 2675 3325 
L 2675 2575 
L 3725 2575 
z
M 5200 2575 
L 5200 3325 
L 4150 3325 
L 4150 2575 
L 5200 2575 
z
M 1100 4950 
Q 1425 4350 1600 3850 
Q 1350 3750 1050 3625 
Q 975 4050 650 4800 
Q 900 4850 1100 4950 
z
" transform="scale(0.015625)"/>
       </defs>
       <use xlink:href="#SimHei-7b49"/>
       <use xlink:href="#SimHei-7ea7" transform="translate(100 0)"/>
       <use xlink:href="#SimHei-589e" transform="translate(200 0)"/>
       <use xlink:href="#SimHei-901f" transform="translate(300 0)"/>
      </g>
     </g>
    </g>
    <g id="ytick_10">
     <g id="line2d_26">
      <g>
       <use xlink:href="#m4fd90f8a1a" x="40.6" y="60.069604" style="stroke: #000000; stroke-width: 0.8"/>
      </g>
     </g>
     <g id="text_19">
      <!-- 事件类型数 -->
      <g transform="translate(3.6 62.483667) scale(0.06 -0.06)">
       <defs>
        <path id="SimHei-4e8b" d="M 5225 1600 
Q 5600 1600 6050 1625 
L 6050 1175 
Q 5800 1200 5225 1200 
Q 5225 550 5250 175 
L 4750 175 
L 4750 425 
L 3400 425 
L 3400 -50 
Q 3375 -350 3187 -450 
Q 3000 -550 2450 -625 
Q 2400 -375 2200 -75 
Q 2650 -75 2800 -50 
Q 2950 -25 2950 100 
L 2950 425 
L 1550 425 
Q 1275 425 900 400 
L 900 850 
Q 1275 825 1550 825 
L 2950 825 
L 2950 1200 
L 1075 1200 
Q 750 1200 450 1175 
L 450 1625 
Q 750 1600 1075 1600 
L 2950 1600 
L 2950 1950 
L 1500 1950 
Q 1225 1950 900 1925 
L 900 2375 
Q 1225 2350 1500 2350 
L 2950 2350 
L 2950 2675 
L 1200 2675 
Q 1225 3050 1225 3350 
Q 1225 3675 1200 3975 
L 2950 3975 
L 2950 4325 
L 1175 4325 
Q 775 4325 425 4300 
L 425 4750 
Q 775 4725 1150 4725 
L 2950 4725 
Q 2950 4900 2925 5175 
L 3425 5175 
Q 3400 4975 3400 4725 
L 5100 4725 
Q 5525 4725 5975 4750 
L 5975 4300 
Q 5525 4325 5100 4325 
L 3400 4325 
L 3400 3975 
L 5200 3975 
Q 5175 3675 5175 3350 
Q 5175 3025 5200 2675 
L 3400 2675 
L 3400 2350 
L 5250 2350 
Q 5225 2100 5225 1600 
z
M 4700 3075 
L 4700 3575 
L 3400 3575 
L 3400 3075 
L 4700 3075 
z
M 2950 3075 
L 2950 3575 
L 1675 3575 
L 1675 3075 
L 2950 3075 
z
M 4750 825 
L 4750 1200 
L 3400 1200 
L 3400 825 
L 4750 825 
z
M 4750 1600 
L 4750 1950 
L 3400 1950 
L 3400 1600 
L 4750 1600 
z
" transform="scale(0.015625)"/>
        <path id="SimHei-4ef6" d="M 3275 4475 
Q 3150 4375 2925 3775 
L 3900 3775 
L 3900 4275 
Q 3900 4900 3875 5125 
L 4400 5125 
Q 4375 4925 4375 4300 
L 4375 3775 
L 5125 3775 
Q 5450 3775 5725 3800 
L 5725 3325 
Q 5450 3350 5125 3350 
L 4375 3350 
L 4375 2000 
L 5200 2000 
Q 5575 2000 6100 2025 
L 6100 1550 
Q 5675 1575 5175 1575 
L 4375 1575 
L 4375 275 
Q 4375 -100 4400 -550 
L 3875 -550 
Q 3900 -100 3900 275 
L 3900 1575 
L 2925 1575 
Q 2500 1575 1925 1550 
L 1925 2025 
Q 2475 2000 2825 2000 
L 3900 2000 
L 3900 3350 
L 2775 3350 
Q 2700 3150 2350 2425 
Q 2275 2500 1900 2650 
Q 2150 3025 2350 3500 
Q 2550 3975 2700 4700 
Q 2900 4575 3275 4475 
z
M 1150 3200 
Q 900 2825 550 2375 
Q 425 2625 200 2750 
Q 650 3200 1025 3850 
Q 1400 4500 1650 5250 
Q 1950 5050 2175 4975 
Q 2000 4825 1625 4025 
L 1625 625 
Q 1625 -175 1650 -575 
L 1125 -575 
Q 1150 -225 1150 600 
L 1150 3200 
z
" transform="scale(0.015625)"/>
        <path id="SimHei-7c7b" d="M 2125 3875 
Q 1750 4375 1325 4725 
Q 1525 4875 1675 5050 
L 2525 4225 
Q 2400 4125 2200 3875 
L 3025 3875 
L 3025 4550 
Q 3025 4900 3000 5125 
L 3525 5125 
Q 3500 4850 3500 4550 
L 3500 3875 
L 4325 3875 
Q 4125 4050 4000 4150 
Q 4450 4575 4800 5175 
Q 5000 5000 5275 4825 
Q 5100 4675 4912 4475 
Q 4725 4275 4400 3875 
L 5025 3875 
Q 5425 3875 5900 3900 
L 5900 3450 
Q 5425 3475 5025 3475 
L 3500 3475 
L 3500 3050 
Q 3500 2650 3525 2175 
L 3175 2175 
Q 3475 2075 3675 2000 
Q 3575 1875 3525 1575 
L 5025 1575 
Q 5525 1575 6025 1600 
L 6025 1150 
Q 5550 1175 5050 1175 
L 3675 1175 
Q 4050 600 4712 275 
Q 5375 -50 6050 -175 
Q 5850 -350 5725 -675 
Q 4975 -450 4350 -37 
Q 3725 375 3300 950 
Q 3050 350 2425 -50 
Q 1800 -450 775 -700 
Q 650 -425 475 -225 
Q 1375 -100 2012 225 
Q 2650 550 2900 1175 
L 1625 1175 
Q 1025 1175 525 1150 
L 525 1600 
Q 950 1575 1600 1575 
L 3025 1575 
Q 3075 1825 3100 2175 
L 3000 2175 
Q 3025 2675 3025 3050 
L 3025 3325 
Q 2725 2900 2237 2550 
Q 1750 2200 925 1825 
Q 850 2025 625 2275 
Q 1175 2400 1725 2737 
Q 2275 3075 2600 3475 
L 1550 3475 
Q 1050 3475 600 3425 
L 600 3900 
Q 1075 3875 1550 3875 
L 2125 3875 
z
M 4100 3450 
Q 4850 3000 5800 2350 
Q 5575 2125 5425 1925 
Q 4700 2550 3825 3075 
Q 3975 3250 4100 3450 
z
" transform="scale(0.015625)"/>
        <path id="SimHei-578b" d="M 2625 1775 
Q 2650 2325 2650 2700 
L 2650 3000 
L 1825 3000 
Q 1725 2375 1425 2000 
Q 1125 1625 775 1425 
Q 650 1650 375 1900 
Q 850 2075 1062 2362 
Q 1275 2650 1350 3000 
Q 900 3000 375 2975 
L 375 3450 
Q 925 3425 1400 3425 
Q 1425 3950 1425 4475 
Q 1075 4475 700 4450 
L 700 4900 
Q 1050 4875 1525 4875 
L 3000 4875 
Q 3275 4875 3650 4900 
L 3650 4450 
Q 3325 4475 3125 4475 
L 3125 3425 
Q 3450 3425 3825 3450 
L 3825 2975 
Q 3450 3000 3125 3000 
L 3125 2675 
Q 3125 2225 3150 1775 
L 2625 1775 
z
M 3000 1175 
Q 3000 1375 2975 1725 
L 3500 1725 
Q 3475 1375 3475 1175 
L 4550 1175 
Q 5050 1175 5450 1200 
L 5450 725 
Q 4975 750 4550 750 
L 3475 750 
L 3475 -50 
L 5275 -50 
Q 5700 -50 6100 -25 
L 6100 -500 
Q 5725 -475 5300 -475 
L 1250 -475 
Q 775 -475 400 -500 
L 400 -25 
Q 775 -50 1250 -50 
L 3000 -50 
L 3000 750 
L 2025 750 
Q 1500 750 975 725 
L 1050 1200 
Q 1500 1175 2025 1175 
L 3000 1175 
z
M 5775 5200 
Q 5750 4775 5750 4325 
L 5750 2400 
Q 5775 1950 5612 1775 
Q 5450 1600 4900 1525 
Q 4825 1775 4675 2100 
Q 5175 2075 5237 2150 
Q 5300 2225 5300 2525 
L 5300 4325 
Q 5300 4775 5275 5200 
L 5775 5200 
z
M 4600 4750 
Q 4575 4450 4575 3975 
L 4575 3200 
Q 4575 2825 4600 2425 
L 4100 2425 
Q 4125 2825 4125 3200 
L 4125 3975 
Q 4125 4450 4100 4750 
L 4600 4750 
z
M 2650 3425 
L 2650 4475 
L 1875 4475 
Q 1850 3750 1850 3425 
L 2650 3425 
z
" transform="scale(0.015625)"/>
        <path id="SimHei-6570" d="M 4525 4925 
Q 4475 4800 4400 4587 
Q 4325 4375 4175 3825 
L 5325 3825 
Q 5575 3825 5925 3850 
L 5925 3400 
Q 5650 3425 5500 3425 
Q 5500 3025 5362 2162 
Q 5225 1300 4875 675 
Q 5125 375 5437 137 
Q 5750 -100 6025 -200 
Q 5725 -425 5625 -625 
Q 5325 -450 5075 -225 
Q 4825 0 4575 325 
Q 4300 25 3987 -187 
Q 3675 -400 3200 -650 
Q 3075 -425 2850 -300 
Q 3225 -150 3650 125 
Q 4075 400 4300 675 
Q 4125 1025 3962 1425 
Q 3800 1825 3675 2475 
Q 3600 2275 3425 1950 
Q 3250 2050 3000 2150 
Q 3400 2850 3650 3675 
Q 3900 4500 3975 5100 
Q 4275 4975 4525 4925 
z
M 2100 2250 
Q 2000 2150 1875 1925 
L 3250 1925 
Q 3100 1300 2725 675 
Q 3125 525 3350 400 
Q 3225 225 3125 25 
Q 2900 175 2450 325 
Q 1950 -225 725 -650 
Q 600 -375 400 -275 
Q 1575 0 2000 475 
Q 1300 650 850 775 
Q 1000 1000 1250 1525 
Q 1000 1525 425 1500 
L 425 1950 
Q 900 1925 1400 1925 
Q 1500 2150 1550 2425 
Q 1825 2325 2100 2250 
z
M 1775 3950 
Q 1775 4550 1750 5100 
L 2250 5100 
Q 2225 4575 2225 3950 
Q 3075 3950 3425 3975 
L 3425 3525 
Q 3075 3550 2225 3550 
Q 2225 2825 2250 2425 
L 1750 2425 
Q 1775 2775 1775 3300 
Q 1650 3100 1300 2787 
Q 950 2475 650 2300 
Q 525 2525 275 2625 
Q 500 2700 875 2975 
Q 1250 3250 1450 3550 
Q 950 3550 500 3525 
L 500 3975 
Q 925 3950 1775 3950 
z
M 3975 3175 
Q 4200 1700 4600 1125 
Q 4850 1700 4937 2287 
Q 5025 2875 5050 3425 
L 4075 3425 
L 3975 3175 
z
M 1450 1000 
Q 1750 925 2275 800 
Q 2475 1050 2650 1525 
L 1725 1525 
Q 1600 1275 1450 1000 
z
M 3325 4825 
Q 3200 4625 3125 4450 
Q 3050 4275 2925 4025 
Q 2725 4125 2525 4175 
Q 2725 4500 2900 5000 
Q 3150 4875 3325 4825 
z
M 2575 3375 
Q 2900 3050 3200 2725 
Q 3050 2600 2875 2425 
Q 2525 2850 2300 3100 
Q 2450 3225 2575 3375 
z
M 925 5000 
Q 1275 4650 1500 4300 
L 1125 4075 
Q 950 4425 600 4725 
Q 825 4875 925 5000 
z
" transform="scale(0.015625)"/>
       </defs>
       <use xlink:href="#SimHei-4e8b"/>
       <use xlink:href="#SimHei-4ef6" transform="translate(100 0)"/>
       <use xlink:href="#SimHei-7c7b" transform="translate(200 0)"/>
       <use xlink:href="#SimHei-578b" transform="translate(300 0)"/>
       <use xlink:href="#SimHei-6570" transform="translate(400 0)"/>
      </g>
     </g>
    </g>
    <g id="ytick_11">
     <g id="line2d_27">
      <g>
       <use xlink:href="#m4fd90f8a1a" x="40.6" y="44.927973" style="stroke: #000000; stroke-width: 0.8"/>
      </g>
     </g>
     <g id="text_20">
      <!-- 钻石获取 -->
      <g transform="translate(9.6 47.30688) scale(0.06 -0.06)">
       <use xlink:href="#SimHei-94bb"/>
       <use xlink:href="#SimHei-77f3" transform="translate(100 0)"/>
       <use xlink:href="#SimHei-83b7" transform="translate(200 0)"/>
       <use xlink:href="#SimHei-53d6" transform="translate(300 0)"/>
      </g>
     </g>
    </g>
    <g id="ytick_12">
     <g id="line2d_28">
      <g>
       <use xlink:href="#m4fd90f8a1a" x="40.6" y="29.786343" style="stroke: #000000; stroke-width: 0.8"/>
      </g>
     </g>
     <g id="text_21">
      <!-- 总获取量 -->
      <g transform="translate(9.6 32.15353) scale(0.06 -0.06)">
       <defs>
        <path id="SimHei-603b" d="M 4550 4850 
Q 4375 4650 4025 3900 
L 5100 3900 
Q 5075 3425 5075 2950 
Q 5075 2500 5100 2025 
L 1175 2025 
Q 1200 2550 1200 3000 
Q 1200 3475 1175 3900 
L 2175 3900 
Q 1900 4350 1525 4750 
Q 1700 4850 1875 5050 
Q 2350 4550 2575 4200 
Q 2400 4075 2250 3900 
L 3550 3900 
Q 3875 4700 3950 5100 
Q 4300 4925 4550 4850 
z
M 4600 2450 
L 4600 3525 
L 1650 3525 
L 1650 2450 
L 4600 2450 
z
M 2275 1450 
Q 2250 1050 2250 675 
Q 2250 300 2262 112 
Q 2275 -75 2675 -75 
L 4000 -75 
Q 4325 -75 4400 550 
Q 4650 400 4925 325 
Q 4775 -200 4562 -337 
Q 4350 -475 4000 -450 
L 2325 -450 
Q 1850 -450 1825 -175 
Q 1800 100 1800 525 
Q 1800 975 1775 1450 
L 2275 1450 
z
M 1350 1325 
Q 1050 300 825 -250 
Q 625 -150 375 -50 
Q 675 525 900 1500 
Q 1100 1425 1350 1325 
z
M 4950 1575 
Q 5700 825 6000 450 
Q 5825 275 5625 100 
Q 5375 450 4600 1275 
Q 4750 1375 4950 1575 
z
M 3350 575 
Q 2975 1175 2675 1500 
Q 2825 1650 3000 1800 
Q 3225 1575 3750 875 
Q 3525 775 3350 575 
z
" transform="scale(0.015625)"/>
       </defs>
       <use xlink:href="#SimHei-603b"/>
       <use xlink:href="#SimHei-83b7" transform="translate(100 0)"/>
       <use xlink:href="#SimHei-53d6" transform="translate(200 0)"/>
       <use xlink:href="#SimHei-91cf" transform="translate(300 0)"/>
      </g>
     </g>
    </g>
   </g>
   <g id="patch_15">
    <path d="M 40.6 210.085312 
L 40.6 16.045312 
" style="fill: none; stroke: #000000; stroke-width: 0.8; stroke-linejoin: miter; stroke-linecap: square"/>
   </g>
   <g id="patch_16">
    <path d="M 319.6 210.085312 
L 319.6 16.045312 
" style="fill: none; stroke: #000000; stroke-width: 0.8; stroke-linejoin: miter; stroke-linecap: square"/>
   </g>
   <g id="patch_17">
    <path d="M 40.6 210.085312 
L 319.6 210.085312 
" style="fill: none; stroke: #000000; stroke-width: 0.8; stroke-linejoin: miter; stroke-linecap: square"/>
   </g>
   <g id="patch_18">
    <path d="M 40.6 16.045312 
L 319.6 16.045312 
" style="fill: none; stroke: #000000; stroke-width: 0.8; stroke-linejoin: miter; stroke-linecap: square"/>
   </g>
   <g id="text_22">
    <!-- 阶段1: 付费概率驱动因子 (|SHAP|) -->
    <g transform="translate(120.1 10.045312) scale(0.075 -0.075)">
     <defs>
      <path id="SimHei-9636" d="M 2450 4850 
Q 2350 4575 2175 3962 
Q 2000 3350 1825 2800 
Q 2225 2225 2312 1912 
Q 2400 1600 2375 1250 
Q 2350 900 2137 725 
Q 1925 550 1400 475 
Q 1300 925 1200 1075 
Q 1725 1025 1837 1225 
Q 1950 1425 1875 1775 
Q 1800 2125 1350 2725 
Q 1700 3825 1825 4400 
L 975 4400 
L 975 -500 
L 500 -500 
Q 525 175 525 675 
L 525 3650 
Q 525 4225 500 4850 
L 2450 4850 
z
M 4250 4825 
Q 4600 4100 5187 3637 
Q 5775 3175 6200 3025 
Q 5950 2775 5800 2500 
Q 4975 3075 4600 3512 
Q 4225 3950 4025 4400 
Q 3850 4025 3512 3487 
Q 3175 2950 2625 2350 
Q 2425 2575 2175 2700 
Q 2700 3075 3150 3787 
Q 3600 4500 3850 5275 
Q 4050 5150 4375 5075 
Q 4275 4900 4250 4825 
z
M 3750 2700 
Q 3650 2325 3575 1512 
Q 3500 700 3250 225 
Q 3000 -250 2650 -575 
Q 2425 -400 2175 -300 
Q 2550 -25 2762 337 
Q 2975 700 3087 1200 
Q 3200 1700 3200 2800 
Q 3350 2725 3750 2700 
z
M 5025 2775 
Q 4975 2425 4975 2025 
L 4975 350 
Q 4975 100 5000 -525 
L 4475 -525 
Q 4500 150 4500 375 
L 4500 2025 
Q 4500 2375 4475 2775 
L 5025 2775 
z
" transform="scale(0.015625)"/>
      <path id="SimHei-6bb5" d="M 5500 2475 
Q 5350 1775 5100 1237 
Q 4850 700 4600 400 
Q 4825 225 5250 87 
Q 5675 -50 6125 -125 
Q 5950 -275 5825 -650 
Q 5150 -450 4825 -287 
Q 4500 -125 4225 75 
Q 3825 -175 3450 -337 
Q 3075 -500 2625 -650 
Q 2525 -400 2325 -225 
Q 2675 -150 3100 0 
Q 3525 150 3925 425 
Q 3725 675 3525 1150 
Q 3325 1600 3225 2075 
Q 3050 2075 2900 2075 
L 2900 2500 
Q 3375 2475 3800 2475 
L 5500 2475 
z
M 2650 4625 
Q 2300 4550 1887 4475 
Q 1475 4400 1300 4375 
L 1300 3550 
Q 2050 3550 2525 3600 
L 2525 3125 
Q 2050 3150 1300 3150 
L 1300 2350 
Q 2050 2350 2525 2375 
L 2525 1900 
Q 2050 1925 1300 1925 
L 1300 975 
Q 1950 1075 2625 1250 
Q 2600 1000 2600 775 
Q 1900 675 1300 525 
L 1300 100 
Q 1300 -200 1325 -625 
L 800 -625 
Q 825 -200 825 100 
L 825 425 
Q 575 375 350 300 
Q 300 650 250 825 
Q 500 850 825 900 
L 825 3800 
Q 825 4225 800 4725 
Q 1100 4725 1575 4825 
Q 2050 4925 2375 5125 
Q 2475 4850 2650 4625 
z
M 5100 4975 
Q 5075 4600 5075 4275 
L 5075 3650 
Q 5075 3425 5237 3387 
Q 5400 3350 5975 3400 
Q 5875 3225 5850 2950 
L 5075 2950 
Q 4650 2950 4625 3375 
L 4625 4575 
L 3775 4575 
Q 3775 3925 3675 3525 
Q 3575 3125 3200 2725 
Q 3025 2900 2800 3050 
Q 3275 3400 3300 3937 
Q 3325 4475 3300 4975 
L 5100 4975 
z
M 3675 2100 
Q 3775 1675 3962 1287 
Q 4150 900 4275 775 
Q 4450 950 4625 1312 
Q 4800 1675 4900 2100 
L 3800 2100 
L 3675 2100 
z
" transform="scale(0.015625)"/>
      <path id="SimHei-3a" d="M 1825 2425 
L 1250 2425 
L 1250 2975 
L 1825 2975 
L 1825 2425 
z
M 1825 125 
L 1250 125 
L 1250 675 
L 1825 675 
L 1825 125 
z
" transform="scale(0.015625)"/>
      <path id="SimHei-20" transform="scale(0.015625)"/>
      <path id="SimHei-4ed8" d="M 2225 3650 
Q 2650 3625 3075 3625 
L 4575 3625 
L 4575 4375 
Q 4575 4700 4550 5000 
L 5125 5000 
Q 5075 4675 5075 4325 
L 5075 3625 
L 5375 3625 
Q 5800 3625 6050 3650 
L 6050 3175 
Q 5825 3200 5375 3200 
L 5075 3200 
L 5075 200 
Q 5100 -250 4775 -412 
Q 4450 -575 3950 -600 
Q 3875 -275 3725 -25 
Q 4325 -50 4450 25 
Q 4575 100 4575 350 
L 4575 3200 
L 3050 3200 
Q 2650 3200 2225 3175 
L 2225 3650 
z
M 2350 4950 
Q 2275 4850 2112 4512 
Q 1950 4175 1800 3850 
L 1800 625 
Q 1800 -125 1825 -575 
L 1300 -575 
Q 1325 -175 1325 600 
L 1325 2975 
Q 925 2325 625 2025 
Q 450 2275 300 2375 
Q 700 2775 1125 3550 
Q 1550 4325 1800 5225 
Q 2125 5025 2350 4950 
z
M 3200 2675 
Q 3600 1950 3800 1475 
Q 3575 1375 3300 1225 
Q 3100 1825 2775 2400 
Q 2975 2500 3200 2675 
z
" transform="scale(0.015625)"/>
      <path id="SimHei-8d39" d="M 2250 5225 
Q 2525 5175 2825 5150 
Q 2775 5025 2750 4675 
L 3625 4675 
Q 3625 4925 3600 5200 
L 4075 5200 
Q 4050 4925 4050 4675 
L 5675 4675 
Q 5650 4375 5650 4050 
Q 5650 3725 5675 3450 
L 4050 3450 
L 4050 3000 
L 6025 3000 
Q 6000 2575 5987 2300 
Q 5975 2025 5837 1925 
Q 5700 1825 5225 1725 
Q 5175 1975 5000 2225 
Q 5325 2225 5425 2262 
Q 5525 2300 5525 2625 
L 4050 2625 
L 4050 2050 
L 5100 2050 
L 5100 1175 
Q 5100 900 5125 525 
L 4600 525 
L 4600 1675 
L 1900 1675 
L 1900 350 
L 1400 350 
Q 1425 775 1425 1100 
L 1425 1725 
Q 1175 1575 600 1350 
Q 475 1600 300 1850 
Q 625 1875 1162 2087 
Q 1700 2300 2000 2625 
L 875 2625 
Q 975 3350 975 3825 
L 2300 3825 
L 2300 4300 
Q 1200 4300 850 4275 
L 850 4700 
Q 1225 4675 2300 4675 
Q 2300 4900 2250 5225 
z
M 3650 1300 
Q 3525 1025 3362 650 
Q 3200 275 2925 50 
Q 2650 -175 2150 -362 
Q 1650 -550 850 -625 
Q 775 -375 600 -100 
Q 1125 -100 1600 -12 
Q 2075 75 2487 375 
Q 2900 675 3050 1450 
Q 3300 1350 3650 1300 
z
M 3900 700 
Q 4400 500 4862 300 
Q 5325 100 5750 -100 
Q 5525 -375 5400 -575 
Q 4925 -325 4600 -162 
Q 4275 0 3625 250 
Q 3725 400 3900 700 
z
M 3600 2050 
L 3600 2625 
L 2625 2625 
Q 2325 2200 2050 2050 
L 3600 2050 
z
M 5150 3825 
L 5150 4300 
L 4050 4300 
L 4050 3825 
L 5150 3825 
z
M 3600 3825 
L 3600 4300 
L 2750 4300 
L 2750 3825 
L 3600 3825 
z
M 3600 3000 
L 3600 3450 
L 2750 3450 
Q 2725 3175 2700 3000 
L 3600 3000 
z
M 2200 3000 
Q 2275 3275 2275 3450 
L 1450 3450 
L 1425 3000 
L 2200 3000 
z
" transform="scale(0.015625)"/>
      <path id="SimHei-6982" d="M 3100 1150 
Q 3000 1350 2900 1475 
Q 3075 1600 3275 1725 
Q 3425 1475 3537 1262 
Q 3650 1050 3825 750 
Q 3675 625 3425 450 
Q 3375 600 3275 800 
Q 3075 625 2775 412 
Q 2475 200 2250 -50 
Q 2075 200 1925 350 
Q 2100 525 2125 875 
L 2125 4000 
Q 2125 4425 2100 4700 
L 3575 4700 
Q 3550 4325 3550 3475 
Q 3550 2650 3575 2200 
L 2550 2200 
L 2550 750 
Q 2725 850 3100 1150 
z
M 3325 -700 
Q 3200 -500 2950 -325 
Q 3400 -75 3850 637 
Q 4300 1350 4500 2350 
L 3800 2350 
Q 3825 2725 3825 3075 
Q 3825 3425 3800 3750 
L 4275 3750 
Q 4225 3550 4225 3250 
L 4225 2725 
L 4600 2725 
Q 4675 3500 4675 4400 
L 4425 4400 
Q 4075 4400 3800 4375 
L 3800 4800 
Q 4100 4775 4425 4775 
L 5150 4775 
Q 5625 4775 5850 4800 
L 5850 4375 
Q 5650 4400 5100 4400 
Q 5100 3700 5025 2725 
L 5375 2725 
Q 5600 2725 5925 2750 
L 5925 2325 
Q 5600 2350 5425 2350 
L 4950 2350 
Q 4625 1075 4287 462 
Q 3950 -150 3325 -700 
z
M 1000 4425 
Q 1000 4750 975 5050 
L 1475 5050 
Q 1425 4725 1425 4300 
L 1425 3800 
Q 1625 3800 1925 3825 
L 1925 3400 
Q 1600 3425 1425 3425 
L 1425 2650 
Q 1550 2725 1700 2825 
Q 1900 2350 2075 1875 
Q 1850 1825 1700 1700 
Q 1600 2050 1425 2450 
L 1425 300 
Q 1425 -125 1450 -575 
L 975 -575 
Q 1000 -50 1000 300 
L 1000 2025 
Q 825 1450 550 950 
Q 450 1150 175 1350 
Q 500 1825 662 2275 
Q 825 2725 950 3425 
Q 500 3425 350 3400 
L 350 3825 
Q 550 3800 1000 3800 
L 1000 4425 
z
M 5300 1725 
Q 5275 1050 5275 225 
Q 5275 -50 5412 -75 
Q 5550 -100 5625 -87 
Q 5700 -75 5737 37 
Q 5775 150 5775 475 
Q 6000 350 6250 300 
Q 6150 -225 6050 -350 
Q 5950 -475 5650 -475 
L 5350 -475 
Q 4800 -450 4850 50 
Q 4850 925 4850 1725 
L 5300 1725 
z
M 3125 2575 
L 3125 3275 
L 2550 3275 
L 2550 2575 
L 3125 2575 
z
M 3125 3650 
L 3125 4325 
L 2550 4325 
L 2550 3650 
L 3125 3650 
z
" transform="scale(0.015625)"/>
      <path id="SimHei-7387" d="M 3325 5150 
Q 3425 4900 3550 4525 
L 4800 4525 
Q 5250 4525 5800 4550 
L 5800 4125 
Q 5250 4175 4775 4175 
L 2800 4175 
Q 2975 4050 3300 3900 
Q 3075 3750 2875 3537 
Q 2675 3325 2475 3125 
L 3275 3125 
Q 3575 3425 3775 3775 
Q 4000 3600 4275 3425 
Q 3950 3250 3600 2875 
Q 3250 2500 2625 2000 
L 3850 2100 
Q 3725 2250 3600 2425 
Q 3750 2475 4000 2650 
Q 4250 2350 4700 1700 
Q 4475 1625 4225 1450 
Q 4175 1600 4025 1775 
Q 3700 1750 3425 1750 
L 3425 1050 
L 5150 1050 
Q 5675 1050 6100 1075 
L 6100 650 
Q 5700 675 5125 675 
L 3425 675 
L 3425 175 
Q 3425 -300 3450 -625 
L 2900 -625 
Q 2925 -300 2925 175 
L 2925 675 
L 1325 675 
Q 825 675 325 650 
L 325 1075 
Q 825 1050 1350 1050 
L 2925 1050 
L 2925 1700 
Q 2700 1675 2475 1637 
Q 2250 1600 2025 1525 
Q 1950 1775 1850 2000 
Q 2075 2025 2325 2200 
Q 2575 2375 2975 2800 
Q 2300 2725 2025 2625 
Q 1975 2875 1850 3175 
Q 2075 3175 2325 3487 
Q 2575 3800 2750 4175 
L 1700 4175 
Q 1150 4175 650 4125 
L 650 4550 
Q 1150 4525 1550 4525 
L 2975 4525 
Q 2900 4825 2800 5025 
Q 3025 5075 3325 5150 
z
M 1625 2575 
Q 1725 2400 1825 2200 
Q 1575 2050 1325 1862 
Q 1075 1675 800 1425 
Q 625 1675 475 1875 
Q 800 2025 1100 2212 
Q 1400 2400 1625 2575 
z
M 4850 2650 
Q 5125 2475 5337 2337 
Q 5550 2200 5875 1950 
Q 5675 1800 5500 1600 
Q 5300 1775 5062 1975 
Q 4825 2175 4575 2325 
Q 4725 2475 4850 2650 
z
M 5725 3525 
Q 5550 3450 5300 3262 
Q 5050 3075 4800 2825 
Q 4625 3050 4475 3175 
Q 4700 3325 4875 3487 
Q 5050 3650 5300 3925 
Q 5525 3700 5725 3525 
z
M 1050 3850 
Q 1425 3600 1775 3275 
Q 1575 3100 1425 2925 
Q 1075 3300 675 3525 
Q 875 3700 1050 3850 
z
" transform="scale(0.015625)"/>
      <path id="SimHei-9a71" d="M 2650 0 
Q 2625 -450 2350 -537 
Q 2075 -625 1600 -675 
Q 1525 -350 1400 -125 
Q 1800 -150 2000 -137 
Q 2200 -125 2225 150 
L 2350 1750 
L 550 1750 
Q 600 2225 612 2900 
Q 625 3575 625 4025 
L 1125 4025 
Q 1075 3800 1050 2150 
L 1850 2150 
L 1950 4375 
Q 750 4375 300 4350 
L 300 4800 
Q 750 4775 1125 4775 
L 2475 4775 
Q 2425 4425 2400 4025 
L 2325 2150 
L 2875 2150 
Q 2825 1850 2775 1525 
L 2650 0 
z
M 6125 -400 
Q 5800 -375 5300 -375 
L 3100 -375 
Q 3125 -150 3125 500 
L 3125 3925 
Q 3125 4200 3100 4775 
L 5075 4775 
Q 5650 4775 5950 4800 
L 5950 4350 
Q 5600 4375 5175 4375 
L 3550 4375 
L 3550 25 
L 5175 25 
Q 5875 25 6125 50 
L 6125 -400 
z
M 5800 3700 
Q 5725 3600 5600 3250 
Q 5475 2900 5175 2275 
Q 5750 1450 5950 1075 
Q 5675 900 5500 775 
Q 5350 1150 4950 1825 
Q 4475 1025 4150 550 
Q 3950 750 3700 825 
Q 4050 1175 4625 2225 
Q 4300 2725 3725 3425 
Q 3900 3550 4050 3750 
Q 4450 3350 4875 2700 
Q 5225 3625 5275 3925 
Q 5500 3800 5800 3700 
z
M 200 1050 
Q 600 1050 1012 1075 
Q 1425 1100 2000 1175 
L 1925 750 
Q 1675 725 1175 662 
Q 675 600 375 525 
Q 275 800 200 1050 
z
" transform="scale(0.015625)"/>
      <path id="SimHei-52a8" d="M 4125 5150 
Q 4425 5075 4700 5075 
Q 4650 4825 4637 4512 
Q 4625 4200 4625 3750 
L 6025 3750 
Q 6000 3425 5975 3025 
L 5850 175 
Q 5775 -325 5437 -437 
Q 5100 -550 4675 -600 
Q 4600 -300 4425 -50 
Q 4975 -75 5175 12 
Q 5375 100 5375 350 
L 5525 3325 
L 4625 3325 
Q 4575 2225 4462 1650 
Q 4350 1075 4112 587 
Q 3875 100 3150 -675 
Q 2900 -425 2700 -350 
Q 3175 25 3475 437 
Q 3775 850 3900 1287 
Q 4025 1725 4075 2200 
Q 4125 2675 4150 3325 
L 3725 3325 
Q 3450 3325 3075 3300 
L 3075 3775 
Q 3450 3750 3775 3750 
L 4150 3750 
L 4150 4450 
Q 4150 4800 4125 5150 
z
M 275 3025 
Q 650 3000 1175 3000 
L 2125 3000 
Q 2575 3000 3150 3025 
L 3150 2575 
Q 2575 2600 2150 2600 
L 1875 2600 
Q 1725 2200 1537 1750 
Q 1350 1300 1100 850 
Q 2075 950 2575 1050 
Q 2450 1350 2175 1800 
Q 2450 1950 2575 2050 
Q 2825 1600 3000 1287 
Q 3175 975 3375 525 
Q 3175 400 2925 275 
Q 2825 500 2750 650 
Q 1950 525 1462 450 
Q 975 375 625 250 
Q 525 500 375 725 
Q 700 925 962 1525 
Q 1225 2125 1350 2600 
L 1175 2600 
Q 650 2600 275 2575 
L 275 3025 
z
M 2000 4425 
Q 2425 4425 2950 4450 
L 2950 3975 
Q 2425 4000 2000 4000 
L 1400 4000 
Q 1000 4000 625 3975 
L 625 4450 
Q 975 4425 1375 4425 
L 2000 4425 
z
" transform="scale(0.015625)"/>
      <path id="SimHei-56e0" d="M 5775 4950 
Q 5750 4325 5750 3600 
L 5750 850 
Q 5750 200 5775 -550 
L 5275 -550 
L 5275 -100 
L 1150 -100 
L 1150 -600 
L 650 -600 
Q 675 100 675 850 
L 675 3600 
Q 675 4275 650 4950 
L 5775 4950 
z
M 5275 325 
L 5275 4550 
L 1150 4550 
L 1150 325 
L 5275 325 
z
M 2975 3350 
Q 2975 3975 2950 4275 
Q 3225 4250 3525 4250 
Q 3450 3975 3450 3750 
L 3450 3350 
L 4025 3350 
Q 4425 3350 4950 3375 
L 4950 2900 
Q 4425 2925 4025 2925 
L 3425 2925 
Q 3400 2750 3325 2425 
Q 3625 2250 3975 1975 
Q 4325 1700 4900 1225 
Q 4700 1050 4475 800 
Q 4225 1100 3862 1450 
Q 3500 1800 3200 2025 
Q 3025 1700 2700 1375 
Q 2375 1050 1900 700 
Q 1750 925 1475 1075 
Q 2200 1400 2537 1875 
Q 2875 2350 2925 2925 
L 2475 2925 
Q 2025 2925 1525 2900 
L 1525 3375 
Q 2025 3350 2450 3350 
L 2975 3350 
z
" transform="scale(0.015625)"/>
      <path id="SimHei-5b50" d="M 2075 25 
Q 2650 0 2800 62 
Q 2950 125 2950 375 
L 2950 2200 
L 1175 2200 
Q 825 2200 350 2175 
L 350 2625 
Q 825 2600 1175 2600 
L 2950 2600 
Q 2950 3000 2925 3500 
Q 3275 3650 3637 3875 
Q 4000 4100 4475 4400 
L 1925 4400 
Q 1400 4400 1000 4375 
L 1000 4825 
Q 1525 4800 1875 4800 
L 5400 4800 
L 5400 4350 
Q 5025 4200 4575 3950 
Q 4125 3700 3450 3250 
L 3450 2600 
L 5125 2600 
Q 5550 2600 6075 2650 
L 6075 2200 
Q 5550 2225 5125 2200 
L 3450 2200 
L 3450 200 
Q 3450 -300 3162 -400 
Q 2875 -500 2300 -550 
Q 2250 -275 2075 25 
z
" transform="scale(0.015625)"/>
      <path id="SimHei-28" d="M 2975 -200 
L 2700 -475 
Q 2075 125 1762 775 
Q 1450 1425 1450 2250 
Q 1450 3075 1762 3725 
Q 2075 4375 2700 5000 
L 2975 4725 
Q 2400 4175 2112 3587 
Q 1825 3000 1825 2250 
Q 1825 1500 2112 912 
Q 2400 325 2975 -200 
z
" transform="scale(0.015625)"/>
      <path id="SimHei-29" d="M 1675 2250 
Q 1675 1425 1362 775 
Q 1050 125 425 -475 
L 150 -200 
Q 725 325 1012 912 
Q 1300 1500 1300 2250 
Q 1300 3000 1012 3587 
Q 725 4175 150 4725 
L 425 5000 
Q 1050 4375 1362 3725 
Q 1675 3075 1675 2250 
z
" transform="scale(0.015625)"/>
     </defs>
     <use xlink:href="#SimHei-9636"/>
     <use xlink:href="#SimHei-6bb5" transform="translate(100 0)"/>
     <use xlink:href="#SimHei-31" transform="translate(200 0)"/>
     <use xlink:href="#SimHei-3a" transform="translate(250 0)"/>
     <use xlink:href="#SimHei-20" transform="translate(300 0)"/>
     <use xlink:href="#SimHei-4ed8" transform="translate(350 0)"/>
     <use xlink:href="#SimHei-8d39" transform="translate(450 0)"/>
     <use xlink:href="#SimHei-6982" transform="translate(550 0)"/>
     <use xlink:href="#SimHei-7387" transform="translate(650 0)"/>
     <use xlink:href="#SimHei-9a71" transform="translate(750 0)"/>
     <use xlink:href="#SimHei-52a8" transform="translate(850 0)"/>
     <use xlink:href="#SimHei-56e0" transform="translate(950 0)"/>
     <use xlink:href="#SimHei-5b50" transform="translate(1050 0)"/>
     <use xlink:href="#SimHei-20" transform="translate(1150 0)"/>
     <use xlink:href="#SimHei-28" transform="translate(1200 0)"/>
     <use xlink:href="#SimHei-7c" transform="translate(1250 0)"/>
     <use xlink:href="#SimHei-53" transform="translate(1300 0)"/>
     <use xlink:href="#SimHei-48" transform="translate(1350 0)"/>
     <use xlink:href="#SimHei-41" transform="translate(1400 0)"/>
     <use xlink:href="#SimHei-50" transform="translate(1450 0)"/>
     <use xlink:href="#SimHei-7c" transform="translate(1500 0)"/>
     <use xlink:href="#SimHei-29" transform="translate(1550 0)"/>
    </g>
   </g>
  </g>
 </g>
 <defs>
  <clipPath id="pf3f8a869ad">
   <rect x="40.6" y="16.045312" width="279" height="194.04"/>
  </clipPath>
 </defs>
</svg>
